<svg width="18" height="17" viewBox="0 0 18 17" fill="none" xmlns="http://www.w3.org/2000/svg">
<g id="Phone">
<path id="Icon" d="M16.0835 11.9844V14.1094C16.0843 14.3067 16.0439 14.502 15.9649 14.6827C15.8858 14.8635 15.7699 15.0257 15.6246 15.1591C15.4792 15.2924 15.3076 15.394 15.1207 15.4572C14.9338 15.5204 14.7358 15.5438 14.5393 15.5261C12.3597 15.2892 10.266 14.5444 8.42643 13.3515C6.71497 12.264 5.26396 10.813 4.17643 9.1015C2.97933 7.2536 2.23435 5.14971 2.00184 2.96025C1.98414 2.76437 2.00742 2.56696 2.0702 2.38057C2.13297 2.19418 2.23387 2.02291 2.36647 1.87765C2.49907 1.73239 2.66045 1.61634 2.84036 1.53687C3.02027 1.4574 3.21475 1.41627 3.41143 1.41608H5.53643C5.88019 1.4127 6.21345 1.53443 6.47409 1.75859C6.73474 1.98274 6.90498 2.29403 6.95309 2.63442C7.04278 3.31446 7.20912 3.98218 7.44893 4.62483C7.54423 4.87836 7.56485 5.1539 7.50836 5.41879C7.45187 5.68368 7.32062 5.92683 7.13018 6.11942L6.23059 7.019C7.23894 8.79235 8.70725 10.2606 10.4806 11.269L11.3802 10.3694C11.5728 10.179 11.8159 10.0477 12.0808 9.99123C12.3457 9.93474 12.6212 9.95537 12.8748 10.0507C13.5174 10.2905 14.1851 10.4568 14.8652 10.5465C15.2093 10.595 15.5235 10.7684 15.7481 11.0335C15.9728 11.2986 16.0921 11.637 16.0835 11.9844Z" stroke="white" stroke-width="1.5" stroke-linecap="round" stroke-linejoin="round"/>
</g>
</svg>
