<svg width="50" height="50" viewBox="0 0 50 50" fill="none" xmlns="http://www.w3.org/2000/svg">
    <g id="Left">
        <g id="Right">
            <g id="Vector">
                <path d="M48 25C48 12.2974 37.7025 2 25 2C12.2974 2 2 12.2975 2 25C2 37.7025 12.2975 48 25 48C37.7025 48 48 37.7025 48 25Z" fill="white"/>
                <path d="M22.01 32.36L28.245 26.5704C29.2249 25.6605 29.2249 24.1095 28.245 23.1996L22.01 17.41M25 48C37.7025 48 48 37.7025 48 25C48 12.2974 37.7025 2 25 2C12.2974 2 2 12.2975 2 25C2 37.7025 12.2975 48 25 48Z" stroke="#4CAF4F" stroke-width="3" stroke-linecap="round"/>
            </g>
        </g>
    </g>
</svg>
