<svg width="50" height="50" viewBox="0 0 50 50" fill="none" xmlns="http://www.w3.org/2000/svg">
    <g id="ARROW LEFT">
        <g id="Right">
            <g id="Vector">
                <path d="M2 25C2 12.2974 12.2975 2 25 2C37.7026 2 48 12.2975 48 25C48 37.7025 37.7025 48 25 48C12.2975 48 2 37.7025 2 25Z" fill="white"/>
                <path d="M27.99 32.36L21.755 26.5704C20.7751 25.6605 20.7751 24.1095 21.755 23.1996L27.99 17.41M25 48C12.2975 48 2 37.7025 2 25C2 12.2974 12.2975 2 25 2C37.7026 2 48 12.2975 48 25C48 37.7025 37.7025 48 25 48Z" stroke="#D6D6D6" stroke-width="3" stroke-linecap="round"/>
            </g>
        </g>
    </g>
</svg>
