<svg width="430" height="810" viewBox="0 0 430 810" fill="none" xmlns="http://www.w3.org/2000/svg">
<path d="M250.048 583.632C263.482 590.234 273.815 593.749 283.552 595.029C321.004 599.279 369.041 566.247 405.931 510.872C424.165 483.065 435.459 454.134 438.591 427.209C441.16 403.667 437.647 378.034 427.533 346.542C420.447 324.946 409.912 303.932 394.376 280.41C378.553 256.668 363.64 241.792 346.023 232.179C345.218 231.751 344.406 231.334 343.54 230.909C323.012 220.821 286.332 212.166 245.42 207.758C203.837 203.277 165.744 204.178 143.52 210.168C90.231 214.022 82.5163 239.624 70.8354 278.377C65.6551 295.567 59.7813 315.05 48.9981 336.781C41.2128 352.461 34.0525 366.36 27.7343 378.624C-2.60762 437.517 -16.4577 464.395 -5.33507 507.067C-2.44425 517.123 4.58059 524.955 15.5397 530.34C24.1784 534.585 35.3345 537.351 48.6999 538.561C60.8473 539.617 73.8523 539.872 87.6212 540.143C105.731 540.498 124.456 540.864 143.89 543.061C166.968 545.77 189.917 552.852 214.052 564.712C217.634 566.472 221.35 568.391 225.096 570.414C226.779 571.324 228.446 572.23 230.099 573.127C237.033 576.896 243.583 580.455 250.048 583.632ZM343.72 230.585C344.591 231.012 345.408 231.43 346.22 231.861C363.903 241.511 378.861 256.428 394.724 280.23C410.279 303.782 420.829 324.825 427.926 346.452C438.055 377.993 441.573 403.671 438.999 427.264C435.861 454.243 424.547 483.224 406.283 511.075C369.315 566.569 321.127 599.667 283.517 595.397C273.724 594.111 263.347 590.582 249.867 583.958C243.394 580.777 236.84 577.216 229.901 573.445C228.249 572.546 226.583 571.641 224.9 570.732C221.158 568.712 217.448 566.795 213.871 565.037C189.783 553.2 166.882 546.132 143.856 543.429C124.446 541.236 105.732 540.869 87.6317 540.514C73.8553 540.245 60.8439 539.989 48.6804 538.931C35.2571 537.716 24.0468 534.935 15.3584 530.666C4.28803 525.225 -2.80691 517.311 -5.73148 507.141C-11.1402 486.391 -10.8873 469.03 -4.88225 449.087C0.94635 429.724 12.0265 408.218 27.3612 378.454C33.6786 366.191 40.8403 352.292 48.6224 336.613C59.3942 314.91 65.2624 295.439 70.4399 278.262C76.4689 258.26 81.2299 242.46 91.3045 230.746C102.195 218.079 118.27 211.622 143.43 209.805C165.66 203.807 203.814 202.902 245.449 207.388C286.411 211.803 323.148 220.475 343.72 230.585Z" fill="#4CAF4F"/>
<path d="M341.795 234.591C341.313 234.342 340.833 234.102 340.335 233.857C320.719 224.217 285.33 215.97 245.673 211.801C205.314 207.555 168.224 208.494 146.455 214.313C94.636 218.153 86.6407 242.904 74.5399 280.371C69.3063 296.573 63.3743 314.936 52.949 335.362C45.3905 350.272 38.4207 363.524 32.2722 375.216C2.44411 431.934 -11.1694 457.82 -0.822157 499.138C1.98069 509.885 9.38905 518.277 21.2022 524.082C29.1244 527.975 39.0779 530.724 50.7857 532.252C64.9369 534.652 80.4395 535.876 96.8518 537.17C112.273 538.385 128.222 539.643 144.673 541.984C178.706 547.042 207.331 559.51 225.902 568.448L229.14 570.089C233.072 572.081 236.786 573.964 240.507 575.792C256.332 583.569 269.682 589.032 283.396 590.412C319.725 593.906 366.511 561.99 402.588 509.103C421.218 482.125 432.941 454.152 436.49 428.21C439.538 405.161 436.453 380.055 426.78 349.203C419.77 326.652 408.806 305.061 392.274 281.256C376.099 258.189 360.594 243.828 341.999 234.691L341.795 234.591ZM340.517 233.531C341.016 233.776 341.5 234.018 341.979 234.268L342.18 234.365C360.844 243.537 376.4 257.941 392.617 281.069C409.171 304.906 420.153 326.529 427.174 349.116C436.861 380.018 439.951 405.171 436.897 428.272C433.341 454.266 421.599 482.288 402.938 509.31C366.785 562.311 319.852 594.291 283.37 590.783C269.588 589.394 256.195 583.917 240.325 576.118C236.602 574.289 232.887 572.405 228.953 570.412L225.719 568.774C207.179 559.85 178.597 547.4 144.628 542.35C128.191 540.014 112.251 538.756 96.8349 537.539C80.4131 536.245 64.901 535.022 50.7402 532.619C38.99 531.086 28.989 528.323 21.0213 524.407C9.09623 518.547 1.61129 510.068 -1.21812 499.206C-11.6005 457.76 2.03192 431.838 31.9009 375.043C38.049 363.351 45.0177 350.102 52.5769 335.192C62.9903 314.79 68.9171 296.439 74.146 280.251C80.3919 260.913 85.3254 245.638 95.3379 234.296C106.161 222.035 121.9 215.76 146.363 213.949C168.14 208.124 205.293 207.181 245.7 211.431C285.409 215.606 320.855 223.869 340.517 233.531Z" fill="#4CAF4F"/>
<path d="M26.9832 517.882C34.1215 521.39 42.828 524.055 52.858 525.804C69.3538 530.04 87.9327 532.557 107.603 535.223C119.879 536.886 132.573 538.606 145.556 540.844C177.431 546.606 204.575 557.041 226.924 566.489L228.206 567.09C248.198 576.478 265.466 584.584 283.545 585.85C318.8 588.62 364.357 557.867 399.609 507.499C418.908 481 430.718 454.731 434.711 429.418C438.176 407.186 435.41 381.888 426.261 352.076C419.399 328.885 407.636 306.061 390.298 282.296C373.778 259.873 357.185 245.668 337.589 237.155L337.162 236.944C318.427 227.737 284.283 219.874 245.831 215.909C206.646 211.869 170.512 212.817 149.169 218.444C98.7534 222.226 90.4835 246.121 77.9657 282.293C72.7043 297.494 66.7404 314.723 56.6957 333.833C49.3781 347.945 42.6148 360.525 36.6486 371.625C7.33438 426.16 -6.04538 451.049 3.58645 491.032C6.29236 502.548 14.164 511.582 26.9832 517.882ZM342.228 238.893C359.954 247.604 375.336 261.334 390.635 282.1C408 305.902 419.782 328.764 426.656 351.992C435.821 381.855 438.589 407.204 435.117 429.488C431.116 454.853 419.285 481.172 399.956 507.711C382.568 532.556 362.448 553.057 341.774 567C321.097 580.944 300.956 587.59 283.531 586.221C265.368 584.949 248.066 576.825 228.031 567.419L226.759 566.822C204.441 557.387 177.326 546.963 145.497 541.209C132.526 538.974 119.834 537.254 107.56 535.591C87.8776 532.923 69.2846 530.404 52.7825 526.165C42.7248 524.412 33.9796 521.735 26.8019 518.207C13.8632 511.849 5.91809 502.727 3.18604 491.093C-6.47514 450.986 6.92347 426.061 36.2803 371.45C42.2454 360.35 49.0083 347.771 56.3237 333.66C66.3577 314.573 72.3182 297.356 77.5726 282.166C84.035 263.497 89.1377 248.752 99.0958 237.794C109.86 225.943 125.275 219.865 149.077 218.08C170.427 212.447 206.622 211.495 245.859 215.54C284.362 219.509 318.563 227.389 337.343 236.618L337.762 236.825C339.255 237.475 340.761 238.172 342.228 238.893Z" fill="#4CAF4F"/>
<path d="M33.2415 511.905C39.4739 514.968 46.8434 517.453 55.1417 519.288C74.3414 525.968 96.6975 530.136 120.367 534.55C128.853 536.132 137.629 537.768 146.499 539.564C178.676 546.402 207.102 556.759 227.859 564.319C246.943 572.551 264.956 580.322 283.502 581.028C300.313 582.026 319.757 575.499 339.741 562.154C359.764 548.781 379.328 529.226 396.318 505.601C416.021 479.97 428.237 454.652 432.626 430.349C436.566 408.636 434.237 383.896 425.509 354.716C418.731 330.594 406.527 307.191 388.198 283.169C373.724 264.383 359.14 251.781 342.304 243.507C339.418 242.089 336.416 240.777 333.379 239.612C315.307 230.935 282.489 223.577 245.567 219.922C207.292 216.133 173.256 217.112 152.186 222.608C103.234 226.368 94.6693 249.404 81.7058 284.272C76.4289 298.465 70.4477 314.553 60.7948 332.339C53.7352 345.627 47.1899 357.517 41.4165 368.008C12.5922 420.378 -0.563994 444.28 8.30879 482.911C10.8818 495.286 19.2716 505.04 33.2415 511.905ZM342.486 243.181C359.384 251.485 374.014 264.127 388.531 282.964C406.891 307.028 419.115 330.472 425.904 354.637C434.648 383.868 436.979 408.66 433.03 430.426C428.63 454.782 416.393 480.149 396.661 505.818C379.649 529.474 360.053 549.061 339.993 562.457C319.934 575.852 300.4 582.402 283.5 581.399C264.873 580.691 246.822 572.903 227.711 564.659C206.979 557.107 178.569 546.759 146.426 539.926C137.562 538.132 128.788 536.496 120.302 534.914C96.6167 530.497 74.2428 526.325 55.0383 519.643C46.7288 517.805 39.3258 515.309 33.0603 512.23C18.9695 505.306 10.5059 495.46 7.90655 482.967C-0.991376 444.214 12.1823 420.276 41.0484 367.829C46.8228 357.339 53.3663 345.451 60.4263 332.164C70.0671 314.397 76.0438 298.322 81.3177 284.138C88.0092 266.144 93.2928 251.928 103.196 241.348C113.902 229.909 128.984 224.018 152.093 222.245C173.174 216.742 207.268 215.759 245.594 219.552C282.561 223.212 315.44 230.588 333.54 239.278C336.571 240.442 339.587 241.756 342.486 243.181Z" fill="#4CAF4F"/>
<path d="M39.4023 506.587C44.6019 509.142 50.5496 511.339 57.0863 513.119C79.5009 523.06 106.647 529.304 135.382 535.911C139.284 536.808 143.22 537.713 147.189 538.638C171.237 544.515 192.98 551.354 212.162 557.388C217.933 559.204 223.384 560.917 228.619 562.519C248.834 570.436 265.688 576.496 283.342 576.589C299.652 577.22 318.519 570.776 337.908 557.956C357.344 545.104 376.41 526.433 393.048 503.959C413.188 479.159 425.827 454.758 430.615 431.426C435.04 410.212 433.151 385.998 424.836 357.403C418.243 332.662 405.23 307.968 386.159 283.998C372.47 266.959 358.664 255.372 342.715 247.535C338.401 245.415 333.847 243.548 329.183 241.981C311.606 233.886 280.084 227.09 244.837 223.795C208.177 220.368 175.44 221.424 155.023 226.693C107.465 230.449 98.5759 252.661 85.1233 286.285C79.8418 299.488 73.855 314.45 64.5981 330.936C57.7997 343.394 51.4795 354.592 45.9005 364.471C17.4966 414.783 4.5341 437.746 12.6441 475.094C15.0629 488.456 24.0645 499.05 39.4023 506.587ZM342.897 247.208C358.906 255.076 372.756 266.699 386.486 283.789C405.592 307.8 418.627 332.543 425.233 357.328C433.562 385.974 435.455 410.241 431.017 431.512C426.217 454.895 413.557 479.346 393.386 504.183C376.729 526.683 357.629 545.385 338.158 558.259C318.697 571.128 299.745 577.595 283.352 576.96C265.627 576.867 248.731 570.795 228.489 562.865C223.269 561.269 217.817 559.555 212.045 557.739C192.869 551.707 171.133 544.871 147.102 538.997C143.137 538.074 139.201 537.169 135.3 536.272C106.542 529.659 79.3766 523.411 56.9528 513.463C50.4232 511.689 44.4454 509.48 39.2209 506.912C23.7588 499.314 14.6827 488.626 12.2417 475.144C4.10376 437.675 17.0883 414.678 45.5369 364.29C51.1127 354.411 57.4349 343.215 64.2308 330.757C73.4769 314.287 79.461 299.336 84.7367 286.145C91.6809 268.791 97.166 255.085 107.036 244.865C117.708 233.816 132.478 228.098 154.931 226.329C175.361 221.054 208.149 219.994 244.859 223.426C280.155 226.726 311.732 233.535 329.332 241.642C333.993 243.204 338.565 245.08 342.897 247.208Z" fill="#4CAF4F"/>
<path d="M65.7002 509.822C88.8047 521.176 116.671 528.97 148.065 537.269C160.839 540.808 172.868 544.327 184.501 547.732C200.801 552.501 216.198 557.005 229.622 560.337C248.366 566.907 265.341 572.301 283.459 571.809C299.276 572.09 317.56 565.76 336.346 553.501C355.182 541.211 373.734 523.47 389.996 502.197C410.559 478.29 423.593 454.85 428.742 432.523C433.633 411.848 432.15 388.193 424.208 360.204C417.674 334.533 404.166 309.232 384.059 284.996C371.294 269.761 357.878 258.811 343.047 251.522C337.336 248.716 331.215 246.357 324.853 244.511C290.235 229.284 201.255 219.709 157.658 230.767C111.464 234.463 102.258 255.82 88.3218 288.149C83.0738 300.329 77.1237 314.133 68.3005 329.279C61.8005 340.857 55.7287 351.317 50.3742 360.546C22.4079 408.735 9.64262 430.728 17.0499 466.772C19.2918 481.24 29.0357 492.8 46.0067 501.14C50.0063 503.106 54.4311 504.889 59.1572 506.443C61.2804 507.594 63.4697 508.726 65.7002 509.822ZM343.228 251.196C358.116 258.512 371.577 269.498 384.38 284.781C404.526 309.061 418.059 334.413 424.606 360.133C432.564 388.174 434.048 411.885 429.142 432.616C423.981 454.998 410.922 478.486 390.329 502.427C374.049 523.724 355.467 541.494 336.595 553.808C317.741 566.11 299.374 572.463 283.481 572.181C265.294 572.675 248.278 567.269 229.511 560.69C216.098 557.362 200.697 552.855 184.393 548.085C172.76 544.681 160.733 541.163 147.966 537.626C116.551 529.32 88.6612 521.519 65.5195 510.147C63.2841 509.049 61.0892 507.914 58.9969 506.775C54.2877 505.232 49.8435 503.439 45.8259 501.465C28.7251 493.061 18.9072 481.404 16.645 466.815C13.0579 449.357 14.1221 434.705 20.2071 417.831C26.0292 401.681 36.0865 384.348 50.0087 360.36C55.3643 351.132 61.4342 340.673 67.9363 329.096C76.7478 313.964 82.6942 300.17 87.9411 287.999C95.1343 271.315 100.813 258.135 110.651 248.3C121.29 237.665 135.758 232.146 157.565 230.403C177.342 225.385 208.838 224.284 243.947 227.392C277.577 230.368 307.874 236.639 324.99 244.166C331.348 246.011 337.493 248.378 343.228 251.196Z" fill="#4CAF4F"/>
<path d="M81.2386 511.498C102.921 522.153 127.6 530.021 148.881 536.312C177.219 545.075 206.859 554.007 230.457 558.492C250.689 564.703 266.581 568.343 283.346 567.312C314.683 567.135 354.287 541.547 386.711 500.533C407.723 477.478 421.173 454.967 426.695 433.615C432.083 413.463 431.039 390.349 423.508 362.944C417.168 336.702 402.821 310.068 382.02 285.918C369.996 272.091 357.389 262.047 343.48 255.212C336.346 251.706 328.892 249.019 320.693 246.998C304.094 240.069 275.167 234.379 243.277 231.765C209.853 229.026 179.729 230.2 160.627 234.984C115.81 238.68 106.243 259.218 91.7584 290.307C86.558 301.474 80.6629 314.13 72.2888 327.953C66.0974 338.638 60.289 348.352 55.1618 356.921C28.3901 401.699 14.9512 424.175 21.5986 458.96C23.578 474.481 34.4663 487.517 53.0837 496.666C55.6666 497.935 58.4233 499.143 61.2834 500.257C67.3098 504.171 74.0096 507.946 81.2386 511.498ZM343.662 254.887C357.624 261.748 370.274 271.826 382.338 285.697C403.179 309.894 417.553 336.583 423.905 362.876C431.452 390.334 432.496 413.51 427.094 433.716C421.556 455.122 408.082 477.681 387.039 500.769C354.552 541.863 314.829 567.506 283.379 567.684C264.738 568.83 246.97 563.948 230.368 558.849C206.77 554.365 177.117 545.431 148.767 536.665C127.471 530.369 102.771 522.494 81.0573 511.824C73.8145 508.264 67.0975 504.479 61.0975 500.577C58.2659 499.479 55.4974 498.267 52.9021 496.992C34.1521 487.778 23.1877 474.639 21.1935 458.996C14.5253 424.095 27.9855 401.583 54.8024 356.733C59.9265 348.163 65.7334 338.45 71.9256 327.764C80.2919 313.957 86.1837 301.308 91.3818 290.15C98.8568 274.103 104.76 261.43 114.584 251.954C125.205 241.709 139.377 236.364 160.538 234.619C179.647 229.829 209.826 228.652 243.295 231.395C275.228 234.012 304.208 239.713 320.815 246.65C329.013 248.668 336.498 251.366 343.662 254.887Z" fill="#4CAF4F"/>
<path d="M97.3289 514.537C111.906 521.7 129.046 528.475 149.727 535.247C183.508 546.793 210.218 553.766 231.388 556.565C250.16 561.477 266.168 564.406 283.365 562.751C313.613 561.83 352.017 537.335 383.603 498.821C405.08 476.624 418.946 455.039 424.827 434.655C430.707 415.036 430.095 392.453 422.96 365.617C415.069 331.272 395.289 303.768 380.084 286.742C368.746 274.164 356.902 264.937 343.876 258.536C335.475 254.408 326.547 251.407 316.583 249.364C283.773 236.449 203.688 229.125 163.541 239.029C120.037 242.719 110.08 262.451 95.0103 292.319C89.8921 302.462 84.0911 313.96 76.1933 326.45C70.3409 336.207 64.8207 345.145 59.9494 353.03C33.4667 395.899 20.1742 417.417 26.0788 450.979C27.7829 467.958 39.7198 482.351 60.6023 492.613C61.5087 493.058 62.4445 493.501 63.3835 493.93C73.1617 501.378 84.2525 508.111 97.3289 514.537ZM344.057 258.211C357.135 264.637 369.022 273.896 380.396 286.516C395.632 303.576 415.451 331.136 423.357 365.552C430.51 392.444 431.121 415.086 425.222 434.767C419.327 455.202 405.432 476.837 383.926 499.064C352.28 537.649 313.761 562.199 283.412 563.122C266.165 564.783 250.112 561.847 231.319 556.928C210.147 554.129 183.408 547.15 149.604 535.596C128.904 528.818 111.745 522.036 97.1476 514.862C84.0443 508.423 72.9308 501.676 63.1703 494.236C62.2714 493.831 61.3315 493.386 60.421 492.938C39.4045 482.611 27.3883 468.111 25.6744 451.009C19.7485 417.332 33.0627 395.778 59.5896 352.836C64.4595 344.952 69.9805 336.017 75.8358 326.258C83.7251 313.777 89.5224 302.288 94.6371 292.151C109.763 262.173 119.758 242.368 163.45 238.665C203.636 228.748 283.861 236.085 316.695 249.012C326.656 251.054 335.621 254.065 344.057 258.211Z" fill="#4CAF4F"/>
<path d="M112.883 518.008C124.313 523.625 136.672 528.805 150.659 533.841C182.452 545.758 209.972 552.66 232.457 554.355C247.914 557.674 264.779 560.403 283.55 557.949C312.726 556.317 349.921 532.973 380.636 497.023C402.885 475.431 416.755 455.381 423.05 435.711C429.412 416.653 429.206 394.626 422.428 368.37C416.337 340.66 400.581 312.008 378.061 287.685C367.347 276.214 356.204 267.723 343.999 261.725C334.408 257.011 324.046 253.772 312.319 251.82C280.45 240.081 205.303 233.6 166.226 243.036C123.986 246.681 113.621 265.591 97.9312 294.216C92.9478 303.308 87.2984 313.615 79.9278 324.74C74.4544 333.519 69.2626 341.631 64.6785 348.788C38.4575 389.729 25.2969 410.279 30.4985 442.627C32.1542 465.01 50.435 479.23 65.4781 487.222L65.5209 487.251C78.4927 498.661 93.9854 508.722 112.883 518.008ZM344.18 261.4C356.434 267.422 367.617 275.943 378.369 287.451C400.935 311.827 416.725 340.541 422.828 368.307C429.623 394.625 429.825 416.712 423.444 435.832C417.131 455.553 403.231 475.652 380.953 497.272C350.183 533.285 312.88 556.681 283.611 558.319C264.79 560.779 247.879 558.044 232.411 554.721C209.914 553.026 182.352 546.116 150.522 534.186C136.521 529.145 124.15 523.959 112.702 518.333C93.777 509.033 78.2592 498.956 65.2618 487.528C50.131 479.487 31.7584 465.176 30.0903 442.649C24.8719 410.189 38.0559 389.603 64.321 348.589C68.9033 341.434 74.0985 333.323 79.57 324.542C86.9385 313.424 92.5825 303.125 97.5621 294.037C113.311 265.309 123.713 246.329 166.136 242.67C205.25 233.225 280.53 239.718 312.416 251.465C324.144 253.414 334.549 256.667 344.18 261.4Z" fill="#4CAF4F"/>
<path d="M126.636 521.985C134.444 525.822 142.807 529.496 151.496 532.908C182.006 545.346 210.311 552.135 233.355 552.544C253.082 555.791 268.078 556.072 283.53 553.485C297.359 552.314 313.315 546.356 329.691 536.252C346.164 526.088 362.694 511.951 377.491 495.368C400.241 474.646 414.521 455.487 421.16 436.78C428.027 418.263 428.262 396.764 421.878 371.055C415.898 342.403 399.661 313.092 376.156 288.512C366.038 278.022 355.565 270.192 344.137 264.576C333.451 259.325 321.717 255.931 308.261 254.199C277.032 243.558 206.769 238.214 169.219 247.135C128.209 250.801 117.368 268.944 100.959 296.408C96.1538 304.449 90.7087 313.565 83.9017 323.332C78.8468 331.106 74.2185 338.053 69.7436 344.77C43.6634 383.923 30.5721 403.574 35.0183 434.783C36.0491 457.117 53.303 472.26 67.5937 481.034L67.6349 481.066C83.045 496.551 102.895 510.318 126.636 521.985ZM344.318 264.25C355.793 269.889 366.306 277.748 376.459 288.275C400.015 312.906 416.286 342.284 422.279 370.996C428.678 396.767 428.44 418.331 421.55 436.911C414.892 455.67 400.582 474.876 377.802 495.624C362.993 512.219 346.435 526.38 329.931 536.563C313.502 546.7 297.482 552.678 283.604 553.853C268.118 556.446 253.079 556.166 233.334 552.913C210.266 552.506 181.904 545.705 151.345 533.247C142.65 529.832 134.274 526.152 126.455 522.31C102.681 510.627 82.7966 496.838 67.3535 481.326C52.9842 472.5 35.6481 457.267 34.6123 434.798C30.1489 403.478 43.2634 383.789 69.3904 344.567C73.8657 337.85 78.4924 330.905 83.5504 323.127C90.3536 313.365 95.7955 304.255 100.598 296.217C117.064 268.657 127.944 250.449 169.129 246.769C186.28 242.693 212.56 241.33 241.197 243.035C268.09 244.636 293.192 248.676 308.345 253.842C321.806 255.568 333.587 258.977 344.318 264.25Z" fill="#4CAF4F"/>
<path d="M137.943 525.107C142.569 527.38 147.382 529.582 152.246 531.655C182.235 544.874 210.569 551.371 234.191 550.446C252.492 552.505 267.674 551.985 283.451 548.763C310.894 545.609 344.834 524.973 374.261 493.557C397.511 473.744 412.188 455.501 419.144 437.77C426.51 419.817 427.168 398.864 421.158 373.713C415.273 344.136 398.532 314.177 374.021 289.348C364.446 279.727 354.58 272.49 343.86 267.222C332.152 261.469 319.095 257.985 303.94 256.573C274.023 247.263 207.264 242.937 171.932 251.149C132.08 254.821 120.713 272.202 103.514 298.513C98.9656 305.469 93.812 313.355 87.638 321.728C83.0641 328.439 78.8361 334.511 74.7472 340.382C49.5484 376.582 35.667 396.522 39.3783 426.622C39.7977 448.877 56.0342 464.949 69.5826 474.515C87.0813 494.398 110.068 511.409 137.943 525.107ZM344.041 266.896C354.805 272.185 364.709 279.451 374.319 289.106C398.884 313.989 415.661 344.015 421.559 373.656C427.586 398.874 426.922 419.894 419.529 437.911C412.555 455.693 397.845 473.982 374.562 493.821C345.09 525.286 311.058 545.968 283.54 549.129C267.734 552.359 252.509 552.879 234.193 550.817C210.539 551.746 182.134 545.236 152.086 531.99C147.214 529.915 142.393 527.708 137.762 525.432C109.835 511.709 86.8042 494.665 69.3032 474.771C55.7187 465.185 39.3915 449.019 38.9699 426.629C35.2452 396.418 49.1519 376.441 74.3982 340.173C78.4864 334.301 82.7128 328.23 87.2933 321.516C93.4632 313.147 98.6141 305.266 103.159 298.311C120.42 271.911 131.824 254.469 171.842 250.784C188.58 246.892 212.914 245.506 240.333 246.887C265.531 248.157 289.336 251.643 304.011 256.213C319.174 257.621 332.283 261.118 344.041 266.896Z" fill="#4CAF4F"/>
<path d="M147.267 527.603C149.247 528.577 151.273 529.539 153.286 530.464C182.892 544.5 211.236 550.701 235.254 548.395C252.073 549.364 267.414 547.995 283.568 544.086C309.926 540.193 342.665 520.653 371.163 491.814C395.249 472.663 409.885 455.838 417.236 438.853C425.102 421.483 426.185 401.089 420.55 376.502C414.853 346.457 397.172 315.066 372.041 290.37C362.972 281.527 353.67 274.825 343.605 269.879C330.773 263.573 316.864 260.167 299.83 259.158C271.07 251.126 208.984 247.66 174.949 255.39C136.183 259.083 124.223 275.731 106.118 300.932C101.926 306.765 97.1767 313.376 91.7326 320.317C87.7133 325.903 83.9604 331.037 80.3289 336C55.0676 370.536 41.1511 389.559 44.1151 418.602C43.9221 440.748 59.1309 457.744 71.9226 468.104C90.662 492.021 116.707 512.586 147.267 527.603ZM343.786 269.553C353.894 274.52 363.233 281.248 372.334 290.124C397.522 314.875 415.241 346.34 420.951 376.451C426.602 401.105 425.512 421.568 417.617 439.005C410.244 456.042 395.575 472.91 371.456 492.084C342.918 520.965 310.095 540.547 283.671 544.449C267.494 548.365 252.112 549.738 235.283 548.765C211.217 551.078 182.791 544.864 153.114 530.794C151.1 529.868 149.071 528.903 147.086 527.928C116.466 512.881 90.3732 492.278 71.6277 468.343C58.7993 457.962 43.5115 440.872 43.7056 418.6C40.7317 389.448 54.6732 370.387 79.9846 335.784C83.615 330.822 87.3697 325.69 91.3899 320.099C96.8345 313.156 101.583 306.548 105.772 300.719C115.13 287.692 122.521 277.403 132.623 269.649C143.53 261.278 156.556 256.766 174.859 255.024C190.917 251.376 213.962 249.931 239.724 250.962C263.205 251.901 285.695 254.83 299.884 258.795C316.934 259.799 330.899 263.22 343.786 269.553Z" fill="#4CAF4F"/>
<path d="M156.406 530.701C184.873 544.691 212.409 550.172 236.035 546.549C251.736 546.539 266.345 544.392 283.436 539.583C308.758 534.926 340.33 516.437 367.913 490.119C392.554 471.872 407.586 455.912 415.239 439.879C423.504 423.303 425.068 402.87 419.891 379.139C414.314 348.156 396.141 316.084 370.029 291.142C361.427 282.982 352.638 276.753 343.165 272.098C329.426 265.346 314.33 261.973 295.659 261.485C267.078 254.5 210.638 252.143 177.815 259.432C139.971 263.19 127.963 278.335 108.069 303.426C104.188 308.32 100.177 313.379 95.5811 318.85C92.2162 323.256 89.0259 327.378 85.9441 331.367C60.3998 364.391 46.3302 382.582 48.5181 410.696C47.7026 432.752 61.8819 450.696 73.9196 461.871C93.6215 489.982 121.303 513.357 153.998 529.499C154.805 529.907 155.604 530.308 156.406 530.701ZM343.347 271.771C352.861 276.447 361.684 282.701 370.319 290.891C396.49 315.89 414.704 348.038 420.293 379.09C425.486 402.891 423.912 423.4 415.613 440.043C407.937 456.127 392.871 472.128 368.198 490.397C340.581 516.75 308.932 535.277 283.555 539.943C266.443 544.759 251.797 546.911 236.089 546.92C212.404 550.553 184.776 545.059 156.224 531.028C155.421 530.633 154.62 530.232 153.814 529.823C121.056 513.65 93.3194 490.228 73.6056 462.092C61.5358 450.895 47.2892 432.858 48.11 410.687C45.9123 382.462 60.0122 364.235 85.604 331.143C88.6892 327.156 91.8767 323.034 95.2461 318.623C99.8456 313.149 103.854 308.09 107.733 303.2C117.673 290.663 125.524 280.762 135.825 273.288C146.932 265.226 159.854 260.84 177.728 259.066C193.118 255.646 214.893 254.128 239.015 254.797C260.788 255.399 281.98 257.763 295.699 261.12C314.39 261.603 329.547 264.989 343.347 271.771Z" fill="#4CAF4F"/>
<path d="M161.1 531.618C188.021 544.848 214.248 549.328 236.945 544.574C251.155 543.702 265.493 540.746 283.465 534.984C307.8 529.577 338.213 512.171 364.838 488.417C390.4 470.876 405.373 456.246 413.408 440.96C422.177 424.958 424.174 405.075 419.348 381.86C413.864 349.943 395.157 317.187 368.02 291.988C359.835 284.437 351.507 278.629 342.561 274.234C327.942 267.049 311.686 263.748 291.405 263.844C264.138 258.203 211.922 256.644 180.512 263.418C143.355 267.242 130.499 281.854 109.198 306.059C106.056 309.626 102.809 313.319 99.2543 317.235C96.6869 320.369 94.2036 323.376 91.8156 326.27C65.7389 357.86 51.3761 375.26 52.7939 402.561C51.3782 424.496 64.55 443.404 75.8466 455.406C95.2085 486.083 122.487 511.293 154.761 528.345C156.864 529.484 158.996 530.585 161.1 531.618ZM342.743 273.908C351.727 278.323 360.088 284.154 368.306 291.734C395.504 316.992 414.255 349.824 419.751 381.814C424.594 405.101 422.584 425.064 413.778 441.135C405.716 456.471 390.707 471.142 365.113 488.704C338.46 512.484 307.98 529.925 283.598 535.34C265.61 541.109 251.24 544.071 237.024 544.94C214.259 549.711 187.932 545.218 160.919 531.943C158.81 530.907 156.673 529.804 154.564 528.663C122.229 511.579 94.893 486.316 75.5193 455.61C64.1917 443.583 50.963 424.585 52.3854 402.541C50.9589 375.13 65.3532 357.693 91.483 326.038C93.8714 323.143 96.3539 320.137 98.9276 316.997C102.487 313.076 105.734 309.386 108.873 305.817C119.536 293.703 127.954 284.135 138.547 276.912C149.96 269.133 162.875 264.858 180.425 263.052C211.862 256.271 264.166 257.832 291.431 263.476C311.738 263.375 328.058 266.692 342.743 273.908Z" fill="#4CAF4F"/>
<path d="M164.922 532.105C190.678 544.762 215.905 548.366 237.878 542.527C252.841 540.646 266.921 536.283 283.468 530.307C307.206 524.035 335.704 508.122 361.672 486.644C379.277 475.486 400.826 460.34 411.45 441.986C420.723 426.572 423.159 407.253 418.691 384.564C413.397 352.214 393.69 317.944 365.974 292.888C358.185 285.887 350.289 280.465 341.837 276.311C326.178 268.617 309.328 265.525 287.199 266.292C260.805 261.917 212.814 261.369 183.378 267.523C146.6 271.471 132.644 285.696 109.519 309.264C107.474 311.346 105.361 313.501 103.158 315.724C101.596 317.482 100.06 319.202 98.5632 320.886C72.4667 350.17 56.7166 367.847 57.3194 394.491C55.3053 416.274 67.4465 436.137 77.9868 448.968C96.6448 481.692 124.215 509.448 155.634 527.152C158.711 528.922 161.836 530.588 164.922 532.105ZM342.018 275.986C350.508 280.158 358.437 285.601 366.256 292.629C379.25 304.378 390.871 318.551 399.864 333.622C409.831 350.322 416.302 367.445 419.095 384.519C423.579 407.289 421.129 426.689 411.814 442.173C401.152 460.592 379.558 475.772 361.936 486.939C335.945 508.437 307.392 524.377 283.617 530.66C267.061 536.64 252.955 541.011 237.981 542.889C215.932 548.751 190.596 545.137 164.74 532.43C161.646 530.91 158.513 529.238 155.428 527.464C139.761 518.638 125.138 507.463 111.966 494.251C98.6182 480.865 87.0717 465.692 77.6438 449.154C67.0782 436.297 54.8865 416.343 56.9114 394.462C56.3039 367.705 72.0881 349.99 98.2387 320.642C99.7397 318.962 101.272 317.241 102.84 315.476C105.052 313.246 107.163 311.091 109.207 309.01C132.391 285.38 146.386 271.117 183.29 267.156C212.755 260.998 260.819 261.545 287.21 265.922C309.371 265.153 326.289 268.256 342.018 275.986Z" fill="#4CAF4F"/>
<path d="M168.27 532.359C193.135 544.579 217.59 547.399 238.987 540.516C253.988 537.615 268.394 531.818 283.647 525.68C306.542 518.581 333.883 503.734 358.672 484.942C377.796 473.803 398.792 460.131 409.649 443.102C419.424 428.29 422.295 409.539 418.18 387.371C412.99 354.127 392.758 319.19 364.058 293.908C356.635 287.406 349.138 282.334 341.135 278.401C324.669 270.31 306.776 267.365 283.121 268.855C257.743 265.79 214.639 266.026 186.369 271.726C149.36 275.88 133.841 290.019 108.128 313.444L107.195 314.293L106.486 315.017C78.9087 343.206 62.2615 360.221 61.9982 386.475C59.395 408.075 70.5066 428.9 80.2857 442.571C98.4817 477.756 125.609 507.371 156.682 525.986C160.515 528.32 164.413 530.464 168.27 532.359ZM341.317 278.075C349.355 282.025 356.883 287.119 364.335 293.648C393.103 318.988 413.383 354.01 418.585 387.331C422.713 409.584 419.827 428.416 410.005 443.302C399.107 460.394 378.067 474.095 358.923 485.246C334.119 504.051 306.734 518.92 283.81 526.028C268.556 532.167 254.131 537.972 239.116 540.874C217.63 547.787 193.061 544.957 168.088 532.685C164.22 530.784 160.31 528.633 156.467 526.292C125.327 507.639 98.1465 477.964 79.9317 442.739C70.1296 429.04 58.9753 408.128 61.5891 386.436C61.8538 360.065 78.5369 343.013 106.175 314.763L106.891 314.032L107.832 313.174C133.604 289.696 149.158 275.526 186.28 271.36C214.578 265.656 257.742 265.417 283.116 268.485C306.81 266.989 324.775 269.946 341.317 278.075Z" fill="#4CAF4F"/>
<path d="M170.739 532.531C194.891 544.4 218.722 546.49 239.658 538.575C251.72 535.371 263.548 530.032 276.07 524.382C278.461 523.302 280.895 522.205 283.383 521.097C305.711 513.032 331.898 499.231 355.238 483.227C374.806 472.794 396.292 460.003 407.424 444.16C417.709 429.942 421.023 411.751 417.272 390.089C412.207 355.938 391.472 320.324 361.806 294.822C354.731 288.77 347.606 284.015 340.023 280.289C322.778 271.815 303.877 269.053 278.74 271.335C254.631 269.628 216.112 270.643 189.071 275.892C153.652 280.085 135.926 292.665 110.938 312.884C84.0735 337.35 67.5423 353.615 66.351 378.539C63.1596 399.95 73.2252 421.75 82.2304 436.272C99.9053 473.911 126.566 505.385 157.317 524.92C161.747 527.772 166.263 530.332 170.739 532.531ZM340.205 279.964C347.821 283.707 354.975 288.479 362.08 294.556C391.816 320.121 412.599 355.819 417.676 390.052C421.442 411.803 418.11 430.081 407.771 444.373C396.596 460.276 375.064 473.096 355.476 483.54C332.127 499.55 305.909 513.368 283.562 521.438C281.089 522.54 278.656 523.638 276.266 524.717C263.727 530.375 251.886 535.718 239.81 538.927C229.709 542.746 218.769 544.244 207.314 543.372C195.256 542.454 182.889 538.916 170.558 532.856C166.067 530.649 161.537 528.08 157.092 525.22C126.276 505.646 99.5615 474.11 81.8653 436.424C72.8398 421.871 62.74 399.987 65.9433 378.49C67.1389 353.449 83.7113 337.142 110.65 312.608C135.699 292.336 153.469 279.73 188.985 275.525C216.047 270.272 254.615 269.254 278.716 270.965C303.905 268.676 322.88 271.45 340.205 279.964Z" fill="#4CAF4F"/>
<path d="M173.276 532.386C196.885 543.988 220.238 545.41 240.809 536.496C250.823 533.076 260.631 528.061 271.015 522.752C275.073 520.678 279.271 518.532 283.635 516.4C299.919 509.616 325.052 498.049 352.373 481.441C373.42 471.249 394.447 459.808 405.795 445.175C416.594 431.565 420.34 413.93 416.928 392.765C411.961 357.695 390.677 321.388 359.989 295.644C353.321 290.074 346.336 285.477 339.229 281.985C321.201 273.126 301.295 270.561 274.684 273.666C253.787 273.327 219.621 274.743 192.007 279.851C158.845 283.988 139.309 294.067 114.853 311.224C87.2635 332.969 72.8857 348.084 70.8786 370.334C67.125 391.532 76.1626 414.326 84.4066 429.719C101.578 469.813 127.827 503.169 158.33 523.659C163.256 526.997 168.285 529.933 173.276 532.386ZM339.411 281.66C346.549 285.168 353.563 289.783 360.258 295.376C374.493 307.319 387.223 322.177 397.072 338.344C407.777 355.918 414.783 374.726 417.334 392.73C420.76 413.992 416.992 431.713 406.132 445.401C394.739 460.09 373.668 471.558 352.595 481.761C325.269 498.374 300.116 509.95 283.83 516.735C279.481 518.86 275.285 521.005 271.228 523.078C260.832 528.394 251.012 533.415 240.985 536.84C231.059 541.141 220.325 543.05 209.094 542.505C197.265 541.932 185.154 538.638 173.095 532.712C168.085 530.249 163.039 527.303 158.096 523.954C127.528 503.421 101.227 470.002 84.033 429.854C75.771 414.426 66.7039 391.552 70.4745 370.273C71.4669 359.234 75.6727 349.434 83.7058 339.447C91.777 329.414 103.316 319.813 114.584 310.932C139.102 293.732 158.684 283.631 191.921 279.486C219.552 274.373 253.754 272.955 274.643 273.297C301.315 270.18 321.3 272.76 339.411 281.66Z" fill="#4CAF4F"/>
<path d="M175.287 532.331C198.419 543.698 221.35 544.473 241.6 534.568C250.083 530.981 258.405 526.145 267.215 521.025C272.409 518.007 277.78 514.885 283.483 511.844C287.475 509.931 291.655 507.95 295.994 505.893C312.136 498.239 330.431 489.564 349.041 479.773C373.932 468.891 392.738 459.036 403.654 446.301C414.962 433.304 419.147 416.235 416.09 395.569C411.32 360.137 388.985 322.242 357.802 296.67C351.435 291.469 344.783 287.149 338.031 283.83C319.008 274.482 298.774 272.217 270.376 276.255C260.612 276.696 226.372 278.56 194.789 284.11C165.124 288.051 143.079 295.519 118.686 309.887C98.1112 323.363 78.6151 339.061 75.3453 362.449C71.9318 379.037 75.7793 400.127 86.4713 423.448C103.072 465.957 128.862 501.167 159.09 522.597C164.418 526.392 169.867 529.667 175.287 532.331ZM338.212 283.505C344.994 286.837 351.675 291.176 358.067 296.4C372.704 308.402 385.791 323.482 395.916 340.01C406.904 357.946 414.02 377.147 416.495 395.539C419.567 416.305 415.356 433.464 403.98 446.538C393.02 459.327 374.173 469.205 349.245 480.104C330.641 489.893 312.342 498.569 296.196 506.224C291.858 508.281 287.679 510.263 283.695 512.171C278.006 515.205 272.638 518.325 267.447 521.341C258.625 526.467 250.293 531.309 241.797 534.902C232.025 539.682 221.471 541.992 210.435 541.766C198.807 541.528 186.921 538.462 175.106 532.656C169.664 529.982 164.194 526.695 158.848 522.886C128.555 501.41 102.715 466.137 86.0917 423.568C75.3726 400.188 71.5135 379.023 74.941 362.375C76.3772 352.102 80.8604 342.778 88.6498 333.885C95.3638 326.217 104.831 318.492 118.444 309.577C142.896 295.174 164.986 287.69 194.704 283.741C226.301 278.19 260.566 276.326 270.315 275.887C298.788 271.836 319.101 274.113 338.212 283.505Z" fill="#4CAF4F"/>
<path d="M177.145 532.199C199.578 543.223 222.788 543.382 242.5 532.648C249.798 528.929 256.977 524.201 264.578 519.194C270.575 515.245 276.776 511.16 283.482 507.274C300.073 498.177 320.124 489.384 341.352 480.074L345.925 478.069C367.428 469.654 389.447 460.352 401.781 447.36C413.612 434.972 418.238 418.452 415.528 398.261C410.877 361.908 388.001 323.295 355.826 297.488C349.736 292.619 343.389 288.549 336.96 285.39C312.09 273.168 287.228 275.105 266.189 278.612C253.063 280.105 226.718 283.323 197.614 288.136C173.623 291.554 147.922 296.366 122.485 308.34C96.9685 321.309 83.3852 335.945 79.7427 354.399C75.8404 371.028 78.7811 392.112 88.4813 417.071C104.51 462.023 129.865 499.118 159.874 521.526C165.543 525.763 171.353 529.353 177.145 532.199ZM337.141 285.064C343.598 288.238 349.974 292.325 356.089 297.214C388.34 323.083 411.272 361.791 415.934 398.235C418.658 418.531 414.002 435.145 402.097 447.611C389.709 460.659 367.646 469.98 346.111 478.409L341.544 480.412C320.324 489.716 300.281 498.506 283.709 507.593C277.016 511.471 270.82 515.552 264.829 519.499C257.217 524.511 250.03 529.246 242.717 532.972C233.067 538.227 222.653 540.932 211.767 541.01C200.296 541.092 188.587 538.237 176.963 532.525C171.148 529.668 165.314 526.062 159.624 521.809C129.552 499.353 104.147 462.192 88.0934 417.175C78.3699 392.154 75.4235 371.001 79.3389 354.31C83.0046 335.751 96.6483 321.037 122.279 308.011C147.77 296.011 173.508 291.19 197.527 287.769C226.636 282.957 252.989 279.737 266.107 278.245C287.206 274.726 312.155 272.785 337.141 285.064Z" fill="#4CAF4F"/>
<path d="M147.988 535.642C170.103 546.51 193.02 546.052 212.516 534.354C218.852 530.539 225.107 525.888 231.73 520.965C238.304 516.076 245.103 511.021 252.588 506.331C267.111 497.231 284.85 489.354 311.902 479.992C334.846 472.037 356.476 463.914 368.983 452.051C381.335 440.277 386.401 424.31 384.042 404.592C379.516 367.323 356.107 328 322.951 301.968C317.128 297.406 311.07 293.568 304.946 290.558C279.141 277.877 253.15 280.452 231.131 284.643C227.547 285.328 223.878 286.041 220.117 286.773C205.126 289.686 188.136 292.989 169.592 295.844C165.2 296.519 160.656 297.179 156.261 297.816C135.733 300.795 114.508 303.875 95.4559 310.469C72.998 318.25 58.0348 332.295 53.3239 350.015C48.997 366.431 51.1298 388.075 59.6639 414.347C75.1009 461.726 100.008 500.7 129.801 524.092C135.757 528.753 141.876 532.639 147.988 535.642ZM305.127 290.232C311.279 293.255 317.363 297.11 323.211 301.69C356.446 327.786 379.912 367.206 384.448 404.569C386.822 424.398 381.72 440.462 369.286 452.314C356.723 464.228 335.049 472.371 312.063 480.341C285.041 489.693 267.327 497.557 252.831 506.641C245.359 511.323 238.566 516.373 231.997 521.257C225.368 526.186 219.105 530.842 212.752 534.667C203.206 540.395 192.913 543.488 182.155 543.861C170.82 544.253 159.264 541.598 147.806 535.968C141.667 532.951 135.522 529.048 129.542 524.37C114.707 512.722 101.031 497.16 88.8909 478.116C76.8489 459.224 66.8851 437.8 59.2717 414.437C50.7175 388.101 48.5825 366.391 52.9248 349.912C57.6666 332.076 72.7145 317.943 95.2959 310.12C114.384 303.514 135.631 300.43 156.179 297.448C160.573 296.811 165.115 296.152 169.504 295.475C188.042 292.624 205.026 289.322 220.014 286.409C223.772 285.677 227.445 284.965 231.029 284.278C253.123 280.072 279.202 277.492 305.127 290.232Z" fill="#4CAF4F"/>
<path d="M181.587 528.124C203.606 538.944 226.011 538.772 244.677 527.638C251.291 523.697 257.693 518.909 264.469 513.84C270.502 509.328 276.74 504.662 283.597 500.246C286.818 498.187 290.32 496.123 294.006 494.112C306.229 487.444 320.637 481.225 340.724 473.949C362.737 465.937 383.492 457.776 395.531 446.06C407.407 434.455 412.294 418.874 410.056 399.751C407.49 377.704 398.203 355.492 383.199 335.514C373.697 322.622 361.924 310.694 349.151 301.016C343.551 296.716 337.725 293.068 331.836 290.174C316.015 282.399 298.973 279.481 278.209 280.992C272.516 281.423 266.453 282.192 259.677 283.346C254.346 284.222 248.887 285.155 243.108 286.142C230.153 288.351 215.471 290.859 199.798 293.114C197.235 293.475 194.653 293.832 192.057 294.19C174.4 296.629 156.141 299.15 139.145 303.908C135.108 305.037 131.236 306.265 127.639 307.56C105.987 315.31 91.4899 329.11 86.8157 346.413C82.4737 362.568 84.3744 383.673 92.4606 409.14C97.7468 426.27 105.217 443.082 114.662 459.108C121.179 470.31 128.597 480.941 136.71 490.703C144.865 500.497 153.352 508.728 163.423 516.606C169.348 521.237 175.46 525.113 181.587 528.124ZM332.017 289.849C337.932 292.756 343.784 296.418 349.406 300.736C362.209 310.436 374.011 322.395 383.534 335.316C398.577 355.346 407.89 377.62 410.463 399.728C412.715 418.961 407.793 434.637 395.837 446.32C383.743 458.09 362.946 466.268 340.891 474.295C320.824 481.565 306.433 487.776 294.229 494.433C290.551 496.44 287.057 498.499 283.843 500.553C276.998 504.962 270.766 509.624 264.739 514.131C257.953 519.208 251.544 524 244.912 527.952C226.119 539.162 203.565 539.339 181.406 528.45C175.251 525.425 169.115 521.533 163.166 516.885C153.071 508.986 144.561 500.735 136.388 490.918C128.26 481.139 120.83 470.491 114.302 459.27C104.844 443.22 97.3615 426.382 92.0661 409.226C83.9602 383.697 82.0599 362.528 86.4177 346.308C91.124 328.891 105.703 315.005 127.473 307.212C131.08 305.915 134.961 304.683 139.007 303.553C156.031 298.785 174.304 296.262 191.977 293.822C194.573 293.464 197.155 293.108 199.717 292.745C215.384 290.491 229.43 288.094 243.015 285.776C248.794 284.788 254.253 283.855 259.585 282.98C266.375 281.824 272.449 281.053 278.155 280.623C299.005 279.104 316.119 282.036 332.017 289.849Z" fill="#4CAF4F"/>
<path d="M184.499 524.339C206.381 535.093 228.244 535.201 246.06 524.643C252.966 520.573 259.506 515.646 266.431 510.429C271.91 506.302 277.574 502.034 283.788 497.917C286.878 495.897 290.248 493.859 293.805 491.857C305.605 485.215 319.442 478.996 338.67 471.693C359.728 463.638 379.587 455.452 391.147 443.893C402.535 432.468 407.236 417.291 405.119 398.782C402.693 376.98 393.403 355.501 378.257 336.664C368.86 324.531 357.488 313.556 344.453 304.043C339.087 300.01 333.507 296.561 327.869 293.79C312.397 286.186 295.718 283.12 275.379 284.136C269.838 284.441 263.961 285.063 257.411 286.039C249.755 287.082 241.748 288.262 233.273 289.514C222.492 291.105 211.344 292.751 199.251 294.361L197.962 294.526C178.673 296.979 158.728 299.517 140.259 304.928C136.372 306.063 132.629 307.3 129.143 308.604C108.32 316.316 94.3022 329.851 89.6727 346.72C85.3208 362.597 86.9856 383.139 94.6176 407.772C99.476 424.43 106.821 440.502 117.071 456.91C123.588 467.601 130.929 477.662 139.511 487.671C147.31 496.735 155.337 504.265 166.347 512.849C172.242 517.452 178.349 521.317 184.499 524.339ZM328.05 293.464C333.714 296.247 339.316 299.711 344.703 303.758C357.767 313.294 369.167 324.296 378.585 336.458C393.775 355.346 403.093 376.891 405.527 398.762C407.655 417.376 402.922 432.647 391.456 444.15C379.844 455.76 359.943 463.965 338.843 472.037C319.634 479.332 305.814 485.544 294.032 492.175C290.482 494.173 287.12 496.208 284.037 498.222C277.834 502.332 272.174 506.596 266.701 510.719C259.769 515.943 253.219 520.877 246.294 524.958C237.534 530.149 227.742 532.789 217.191 532.805C206.403 532.822 195.342 530.082 184.318 524.665C178.141 521.629 172.009 517.747 166.089 513.126C155.055 504.523 147.01 496.977 139.193 487.891C130.597 477.865 123.244 467.787 116.716 457.08C106.448 440.644 99.0903 424.542 94.2236 407.855C86.5714 383.159 84.9053 362.554 89.275 346.614C93.935 329.634 108.033 316.012 128.973 308.259C132.47 306.95 136.219 305.712 140.118 304.574C158.617 299.154 178.58 296.614 197.889 294.157L199.173 293.993C211.261 292.383 222.409 290.737 233.189 289.146C241.666 287.895 249.673 286.714 257.331 285.671C263.889 284.694 269.779 284.07 275.335 283.765C295.756 282.743 312.507 285.825 328.05 293.464Z" fill="#4CAF4F"/>
<path d="M187.467 520.581C208.92 531.123 230.828 531.522 247.575 521.675C254.81 517.463 261.495 512.383 268.573 507.004C273.499 503.261 278.59 499.391 284.165 495.59C287.134 493.608 290.378 491.592 293.807 489.599C305.199 482.979 318.486 476.755 336.888 469.421C357.025 461.32 376.018 453.105 387.118 441.69C398.034 430.432 402.552 415.64 400.548 397.724C398.248 376.139 388.934 355.362 373.612 337.636C364.458 326.429 353.144 316.068 339.983 306.835C334.85 303.065 329.515 299.814 324.124 297.165C308.968 289.717 292.612 286.488 272.649 287C267.247 287.18 261.544 287.653 255.217 288.448C244.172 289.623 232.268 291.122 219.666 292.709C212.923 293.559 205.952 294.437 198.675 295.321C179.728 297.452 159.688 300.005 141.25 305.656C137.492 306.8 133.877 308.046 130.499 309.359C110.473 317.033 96.9157 330.321 92.3279 346.775C87.9634 362.396 89.4033 382.401 96.6045 406.235C101.106 422.586 108.336 437.957 119.363 454.611C125.769 464.623 133.253 474.426 142.247 484.586C150.698 494.089 158.551 500.762 169.259 509.079C175.145 513.667 181.27 517.536 187.467 520.581ZM324.305 296.839C329.719 299.5 335.076 302.766 340.228 306.548C353.416 315.8 364.758 326.188 373.933 337.42C389.303 355.2 398.649 376.048 400.955 397.706C402.971 415.724 398.421 430.609 387.43 441.943C376.281 453.411 357.246 461.647 337.07 469.763C318.684 477.09 305.413 483.305 294.04 489.914C290.617 491.904 287.381 493.916 284.419 495.892C278.854 499.688 273.765 503.554 268.845 507.293C261.757 512.68 255.062 517.768 247.808 521.991C230.936 531.912 208.876 531.517 187.285 520.907C181.062 517.849 174.911 513.962 169.002 509.357C158.275 501.026 150.406 494.338 141.933 484.811C132.925 474.634 125.428 464.815 119.014 454.789C107.965 438.104 100.72 422.699 96.2095 406.313C88.9877 382.42 87.549 362.351 91.9309 346.667C96.5513 330.105 110.185 316.732 130.325 309.014C133.709 307.699 137.336 306.45 141.102 305.303C159.576 299.641 179.638 297.085 198.604 294.952C205.878 294.068 212.85 293.19 219.591 292.341C232.196 290.753 244.101 289.254 255.145 288.08C261.484 287.283 267.2 286.809 272.616 286.628C292.657 286.113 309.081 289.358 324.305 296.839Z" fill="#4CAF4F"/>
<path d="M190.293 517.102C211.569 527.558 232.905 528.212 248.833 518.895C256.417 514.518 263.24 509.265 270.465 503.703C274.831 500.341 279.347 496.865 284.275 493.391C287.117 491.444 290.232 489.447 293.537 487.455C304.513 480.84 317.241 474.593 334.808 467.2C353.242 459.352 372.129 450.749 382.761 439.461C393.206 428.351 397.557 413.93 395.693 396.601C393.553 375.225 384.254 355.15 368.801 338.546C359.948 328.284 348.723 318.545 335.433 309.591C330.553 306.097 325.486 303.051 320.366 300.535C305.548 293.253 289.528 289.873 269.951 289.899C264.699 289.958 259.178 290.292 253.073 290.915C236.419 292.188 217.863 294.238 198.218 296.408C180.973 298.104 160.86 300.64 142.418 306.587C138.798 307.745 135.309 309.004 132.044 310.332C112.828 317.996 99.7306 331.06 95.1669 347.116C90.7717 362.493 91.957 381.97 98.6879 405.007C102.837 421.153 109.921 435.836 121.657 452.622C127.969 462.047 135.358 471.317 144.91 481.795C153.701 491.382 161.511 497.431 171.4 505.093L172.035 505.584C177.905 510.159 184.048 514.033 190.293 517.102ZM320.548 300.209C325.689 302.736 330.778 305.794 335.672 309.3C348.988 318.271 360.241 328.036 369.113 338.319C384.62 354.979 393.953 375.129 396.1 396.584C397.976 414.014 393.595 428.525 383.078 439.71C372.396 451.05 353.467 459.676 334.995 467.538C317.446 474.924 304.734 481.163 293.774 487.767C290.475 489.757 287.366 491.749 284.533 493.691C279.613 497.158 275.101 500.632 270.738 503.992C263.503 509.561 256.669 514.823 249.065 519.211C233.012 528.601 211.524 527.951 190.111 517.428C183.84 514.346 177.67 510.456 171.777 505.862L171.142 505.371C161.239 497.698 153.418 491.638 144.6 482.025C135.033 471.531 127.634 462.247 121.314 452.808C109.55 435.986 102.452 421.266 98.2911 405.081C91.543 381.987 90.3594 362.447 94.7706 347.006C99.365 330.844 112.539 317.699 131.864 309.99C135.137 308.66 138.639 307.397 142.267 306.235C160.745 300.275 180.886 297.736 198.152 296.039C217.798 293.868 236.359 291.818 253.017 290.547C259.127 289.921 264.661 289.586 269.929 289.526C289.582 289.5 305.666 292.896 320.548 300.209Z" fill="#4CAF4F"/>
<path d="M193.194 513.312C214.287 523.677 235.042 524.603 250.14 515.851C258.093 511.32 265.038 505.903 272.392 500.168C276.195 497.201 280.126 494.133 284.405 491.024C287.159 489.088 290.062 487.172 293.278 485.165C303.827 478.582 315.992 472.339 332.718 464.924C350.244 457.049 368.206 448.426 378.367 437.289C388.326 426.361 392.488 412.343 390.735 395.629C388.723 374.497 379.408 355.147 363.796 339.671C355.143 330.241 344.298 321.378 330.633 312.571C326.017 309.354 321.225 306.521 316.387 304.143C301.883 297.016 286.177 293.464 266.961 292.967C261.854 292.898 256.515 293.084 250.637 293.529C236.091 294.159 219.692 295.401 197.459 297.557C175.146 299.383 157.933 302.538 143.287 307.486C139.804 308.65 136.444 309.918 133.293 311.253C114.897 318.867 102.277 331.664 97.7554 347.287C93.4167 362.177 94.4035 381.621 100.61 403.515C105.478 423.721 115.596 439.14 123.867 450.314C131.78 461.555 140.677 471.372 147.544 478.668C155.257 486.807 162.13 492.052 170.088 498.122C171.611 499.285 173.184 500.484 174.82 501.747C180.697 506.318 186.879 510.208 193.194 513.312ZM316.569 303.817C321.427 306.205 326.237 309.05 330.866 312.275C344.555 321.099 355.427 329.985 364.098 339.433C379.769 354.967 389.123 374.396 391.144 395.612C392.905 412.426 388.714 426.533 378.686 437.535C368.477 448.724 350.475 457.366 332.913 465.26C316.203 472.668 304.054 478.902 293.521 485.474C290.31 487.478 287.414 489.39 284.667 491.321C280.397 494.424 276.467 497.49 272.667 500.454C265.302 506.199 258.347 511.625 250.37 516.169C235.149 524.992 214.243 524.07 193.012 513.637C186.671 510.521 180.463 506.614 174.564 502.025C172.928 500.763 171.356 499.565 169.835 498.403C161.862 492.32 154.976 487.067 147.24 478.903C140.362 471.595 131.452 461.765 123.528 450.508C115.239 439.308 105.095 423.85 100.212 403.585C93.9884 381.635 93.0023 362.128 97.3602 347.177C101.909 331.45 114.606 318.57 133.107 310.914C136.266 309.577 139.636 308.304 143.128 307.136C157.809 302.179 175.053 299.015 197.401 297.188C219.64 295.029 236.043 293.786 250.591 293.158C256.474 292.711 261.828 292.526 266.949 292.594C286.238 293.094 302.004 296.66 316.569 303.817Z" fill="#4CAF4F"/>
<path d="M196.26 509.603C216.809 519.701 237.47 520.899 251.529 512.809C259.875 508.108 266.927 502.508 274.393 496.579C277.636 494.003 280.99 491.341 284.62 488.608C287.243 486.713 290.019 484.819 293.108 482.814C303.092 476.34 315.042 469.897 330.716 462.539C347.33 454.617 364.363 445.958 374.062 434.948C383.541 424.184 387.526 410.556 385.904 394.444C384.041 373.545 374.733 354.914 358.987 340.565C350.61 332.012 340.155 323.996 326.076 315.329C321.747 312.399 317.258 309.787 312.726 307.561C298.539 300.588 283.14 296.87 264.266 295.852C259.309 295.661 254.152 295.699 248.502 295.976C233.187 296.12 216.352 296.976 197.03 298.591C176.581 299.93 158.911 303.204 144.506 308.325C141.164 309.498 137.929 310.777 134.892 312.125C117.318 319.709 105.169 332.26 100.681 347.471C96.3193 362.105 97.0553 380.985 102.81 402.073C107.212 421.762 117.153 436.375 126.297 448.071C133.749 458.16 142.263 467.268 150.352 475.606C157.337 482.752 163.344 487.209 170.298 492.37C172.658 494.12 175.097 495.931 177.741 497.967C183.632 502.544 189.862 506.458 196.26 509.603ZM312.908 307.234C317.459 309.471 321.965 312.093 326.302 315.029C340.404 323.709 350.885 331.747 359.277 340.318C375.091 354.723 384.441 373.439 386.312 394.43C387.944 410.636 383.931 424.349 374.386 435.189C364.641 446.25 347.569 454.93 330.918 462.871C315.261 470.222 303.325 476.657 293.355 483.121C290.272 485.121 287.501 487.012 284.887 488.901C281.264 491.628 277.912 494.29 274.671 496.863C267.193 502.802 260.129 508.412 251.758 513.127C244.501 517.303 235.779 519.082 225.837 518.416C216.379 517.782 206.088 514.847 196.079 509.928C189.653 506.771 183.397 502.84 177.486 498.246C174.842 496.211 172.405 494.402 170.048 492.653C163.079 487.481 157.06 483.015 150.052 475.846C141.951 467.495 133.428 458.377 125.964 448.273C116.797 436.546 106.828 421.891 102.413 402.138C96.6422 380.998 95.9068 362.053 100.286 347.359C104.804 332.046 117.025 319.414 134.701 311.789C137.746 310.438 140.992 309.155 144.342 307.978C158.782 302.845 176.494 299.561 196.976 298.22C216.309 296.604 233.153 295.748 248.469 295.603C254.124 295.328 259.296 295.289 264.267 295.482C283.21 296.501 298.664 300.234 312.908 307.234Z" fill="#4CAF4F"/>
<path d="M199.273 505.867C219.569 515.841 239.597 517.284 252.849 509.728C261.609 504.854 268.42 499.334 276.307 492.941C279 490.758 281.786 488.499 284.782 486.164C287.284 484.301 289.934 482.43 292.888 480.437C302.45 473.988 313.825 467.538 328.684 460.138C344.396 452.176 360.51 443.491 369.751 432.605C378.754 422.002 382.559 408.763 381.058 393.253C379.334 372.581 370.017 354.662 354.116 341.433C343.837 331.658 331.244 323.796 321.421 318.037C317.398 315.404 313.234 313.023 309.031 310.958C295.128 304.126 279.997 300.22 261.411 298.664C256.601 298.344 251.622 298.237 246.197 298.338C230.388 297.918 214.099 298.305 196.389 299.521C177.303 300.432 159.7 303.724 145.477 309.041C142.272 310.224 139.164 311.514 136.237 312.872C119.478 320.416 107.795 332.722 103.342 347.521C97.8049 365.691 101.066 386.366 104.773 400.51C108.764 419.804 118.549 433.644 128.527 445.727C135.842 455.145 143.935 463.404 152.993 472.456C159.484 478.89 164.9 482.761 171.171 487.246C174.097 489.338 177.124 491.502 180.529 494.116C186.454 498.714 192.761 502.667 199.273 505.867ZM309.212 310.634C313.431 312.707 317.612 315.095 321.64 317.732C331.474 323.498 344.094 331.377 354.397 341.175C370.368 354.463 379.733 372.47 381.467 393.24C382.976 408.842 379.145 422.166 370.079 432.841C360.794 443.778 344.643 452.487 328.895 460.466C314.051 467.858 302.689 474.3 293.142 480.739C290.193 482.729 287.547 484.598 285.054 486.453C282.064 488.784 279.279 491.041 276.587 493.224C268.686 499.627 261.864 505.158 253.075 510.046C239.703 517.673 219.522 516.232 199.092 506.193C192.552 502.979 186.221 499.01 180.273 494.395C176.874 491.786 173.85 489.625 170.927 487.534C164.64 483.038 159.211 479.157 152.698 472.701C143.627 463.637 135.526 455.368 128.2 445.936C118.195 433.819 108.379 419.934 104.373 400.571C100.655 386.392 97.3888 365.652 102.946 347.406C107.429 332.509 119.182 320.125 136.039 312.537C138.975 311.174 142.095 309.883 145.307 308.695C159.569 303.364 177.218 300.063 196.345 299.151C214.063 297.933 230.365 297.546 246.179 297.966C251.608 297.865 256.599 297.972 261.426 298.292C280.073 299.854 295.257 303.776 309.212 310.634Z" fill="#4CAF4F"/>
<path d="M202.367 502.519C222.386 512.356 241.771 514.037 254.221 507.014C263.413 501.973 270.279 496.274 278.227 489.675C280.39 487.88 282.627 486.024 285.012 484.096C287.39 482.271 289.917 480.422 292.74 478.438C301.88 472.021 312.684 465.567 326.743 458.127C341.56 450.136 356.76 441.432 365.548 430.664C374.077 420.225 377.698 407.371 376.311 392.461C374.713 372.014 365.373 354.8 349.299 342.68C340.342 334.808 329.822 328.363 316.777 321.107C313.095 318.781 309.285 316.647 305.446 314.76C291.791 308.05 276.877 303.933 258.512 301.804C253.84 301.351 249.036 301.097 243.83 301.025C227.846 299.985 212.09 299.897 195.649 300.755C177.511 301.27 160.452 304.48 146.311 310.039C143.239 311.231 140.258 312.527 137.443 313.896C121.485 321.395 110.266 333.449 105.851 347.842C100.291 365.695 103.195 385.64 106.61 399.229C110.036 417.167 118.709 429.972 130.675 443.681C137.873 452.481 145.898 460.247 154.395 468.469L155.587 469.622C161.734 475.523 166.731 478.941 172.518 482.898C175.85 485.177 179.296 487.532 183.303 490.598C189.292 495.235 195.705 499.245 202.367 502.519ZM305.627 314.435C309.48 316.329 313.303 318.469 316.99 320.798C330.049 328.062 340.591 334.521 349.564 342.407C365.718 354.59 375.113 371.897 376.719 392.45C378.114 407.449 374.469 420.385 365.882 430.894C357.051 441.715 341.814 450.44 326.963 458.45C312.918 465.883 302.126 472.329 293 478.737C290.18 480.717 287.659 482.564 285.29 484.381C282.91 486.305 280.673 488.161 278.512 489.955C270.547 496.567 263.669 502.276 254.447 507.334C241.876 514.425 222.338 512.747 202.186 502.844C195.498 499.558 189.059 495.531 183.046 490.878C179.051 487.82 175.611 485.467 172.283 483.192C166.48 479.224 161.466 475.796 155.295 469.872L154.102 468.716C145.596 460.486 137.563 452.711 130.357 443.899C118.35 430.147 109.646 417.295 106.209 399.285C102.785 385.664 99.8747 365.652 105.455 347.725C109.901 333.239 121.188 321.107 137.238 313.566C140.061 312.193 143.054 310.89 146.134 309.696C160.318 304.119 177.427 300.9 195.612 300.382C212.064 299.524 227.838 299.613 243.829 300.653C249.035 300.726 253.851 300.982 258.54 301.433C276.964 303.572 291.925 307.702 305.627 314.435Z" fill="#4CAF4F"/>
<path d="M205.649 498.916C225.29 508.567 243.963 510.449 255.6 503.946C265.205 498.743 272.076 492.868 280.032 486.065C281.689 484.649 283.405 483.181 285.215 481.659C287.468 479.87 289.867 478.043 292.556 476.069C301.255 469.685 311.476 463.221 324.723 455.729C338.623 447.703 352.892 438.976 361.224 428.315C369.273 418.037 372.716 405.575 371.458 391.275C370.008 371.065 360.677 354.573 344.473 343.579C335.465 336.309 324.978 330.591 312.205 323.869C308.921 321.876 305.531 320.021 302.119 318.344C288.712 311.755 273.995 307.418 255.803 304.697C251.277 304.117 246.657 303.717 241.685 303.476C225.741 301.805 210.542 301.255 195.215 301.794C178.213 301.945 161.281 305.172 147.529 310.881C144.597 312.082 141.742 313.391 139.044 314.77C123.913 322.228 113.166 334.037 108.779 348.02C103.189 365.554 105.714 384.756 108.817 397.776C111.89 415.447 120.75 428.003 133.109 441.421C139.672 449.044 146.916 455.811 154.586 462.974C155.846 464.152 157.115 465.337 158.395 466.54C164.282 472.019 169.187 475.209 174.378 478.585C177.996 480.938 181.737 483.371 186.222 486.795C192.287 491.483 198.822 495.561 205.649 498.916ZM302.301 318.017C305.724 319.699 309.124 321.564 312.409 323.557C325.192 330.283 335.698 336.011 344.722 343.295C361.017 354.35 370.409 370.942 371.866 391.264C373.132 405.651 369.665 418.193 361.562 428.541C353.19 439.251 338.887 448.001 324.952 456.047C311.719 463.531 301.508 469.987 292.821 476.363C290.138 478.334 287.741 480.158 285.496 481.942C283.692 483.459 281.977 484.926 280.32 486.343C272.348 493.159 265.463 499.045 255.824 504.267C244.067 510.837 225.241 508.958 205.467 499.241C198.614 495.873 192.053 491.78 185.967 487.075C181.496 483.662 177.762 481.233 174.151 478.884C168.943 475.498 164.023 472.298 158.109 466.792C156.828 465.59 155.56 464.404 154.3 463.227C146.621 456.055 139.367 449.281 132.795 441.647C120.394 428.183 111.5 415.576 108.417 397.828C105.305 384.776 102.772 365.509 108.385 347.903C112.8 333.828 123.613 321.944 138.832 314.443C141.537 313.058 144.403 311.746 147.347 310.542C161.145 304.813 178.134 301.573 195.187 301.423C210.529 300.883 225.747 301.434 241.699 303.106C246.671 303.347 251.303 303.747 255.846 304.33C274.091 307.058 288.851 311.408 302.301 318.017Z" fill="#4CAF4F"/>
<path d="M208.925 495.31C228.43 504.895 245.922 506.91 256.915 500.838C266.917 495.495 273.417 489.749 281.647 482.473C282.844 481.413 284.079 480.323 285.367 479.194C287.502 477.436 289.777 475.631 292.323 473.673C300.58 467.33 310.223 460.86 322.674 453.314C335.093 445.621 349.007 436.527 356.888 425.965C364.458 415.849 367.72 403.776 366.583 390.084C365.271 370.109 355.932 354.333 339.577 344.456C331.112 338.247 321.057 333.277 310.41 328.018L307.524 326.59C304.715 324.961 301.827 323.415 298.925 321.989C285.702 315.491 271.086 310.892 252.928 307.518C248.544 306.806 244.102 306.259 239.361 305.852C223.334 303.49 209.102 302.499 194.561 302.735C178.351 302.534 161.994 305.684 148.496 311.602C145.7 312.811 142.971 314.127 140.385 315.521C126.074 322.93 115.795 334.488 111.44 348.067C105.82 365.282 107.982 383.744 110.786 396.199C113.836 415.578 124.59 427.995 135.342 439.053C141.402 445.727 148.034 451.673 155.052 457.967C157.026 459.736 159.024 461.528 161.042 463.365C166.747 468.513 171.402 471.374 176.33 474.404C180.162 476.758 184.124 479.195 189.012 482.916C195.102 487.615 201.988 491.901 208.925 495.31ZM299.106 321.663C302.017 323.094 304.915 324.644 307.72 326.273L310.592 327.693C321.256 332.963 331.329 337.94 339.809 344.161C356.266 354.097 365.671 369.978 366.992 390.077C368.136 403.85 364.852 415.999 357.23 426.183C349.312 436.794 335.365 445.913 322.913 453.626C310.473 461.166 300.84 467.627 292.597 473.962C290.052 475.917 287.781 477.719 285.655 479.471C284.37 480.595 283.136 481.686 281.94 482.745C273.691 490.036 267.176 495.797 257.138 501.16C246.022 507.299 228.383 505.286 208.744 495.635C201.781 492.213 194.869 487.911 188.757 483.196C183.888 479.489 179.934 477.058 176.11 474.707C171.165 471.668 166.495 468.796 160.76 463.621C158.741 461.784 156.745 459.993 154.772 458.226C147.744 451.923 141.105 445.97 135.039 439.289C124.246 428.188 113.448 415.719 110.383 396.245C107.572 383.759 105.404 365.234 111.048 347.946C115.43 334.281 125.772 322.651 140.167 315.196C142.761 313.8 145.499 312.476 148.305 311.266C161.855 305.323 178.276 302.161 194.54 302.361C209.101 302.127 223.355 303.118 239.392 305.482C244.133 305.892 248.584 306.438 252.986 307.154C271.192 310.536 285.844 315.146 299.106 321.663Z" fill="#4CAF4F"/>
<path d="M212.273 492.086C231.239 501.407 247.958 503.559 258.14 497.989C268.494 492.52 274.577 486.924 282.996 479.178C283.788 478.45 284.6 477.703 285.438 476.935C287.458 475.202 289.607 473.416 292.012 471.471C299.815 465.166 308.882 458.675 320.551 451.042C334.882 441.453 345.801 433.13 352.495 423.693C359.594 413.714 362.688 402.018 361.689 388.926C360.539 369.169 351.219 354.101 334.737 345.347C331.107 342.956 326.954 340.632 321.649 338.025C317.807 336.137 313.844 334.333 309.647 332.423C307.442 331.418 305.204 330.398 302.938 329.347C300.744 328.134 298.496 326.961 296.246 325.855C282.968 319.33 268.771 314.569 250.208 310.417C246.022 309.583 241.644 308.876 237.198 308.314C221.403 305.285 207.713 303.854 194.104 303.808C178.64 303.284 162.865 306.377 149.676 312.515C147.008 313.739 144.406 315.073 141.943 316.476C128.45 323.855 118.633 335.184 114.293 348.381C108.623 365.309 110.398 383.044 112.885 394.94C115.562 414.1 126.123 425.777 137.643 437.02C143.271 442.904 149.39 448.158 155.87 453.722C158.418 455.912 161.057 458.177 163.704 460.518C169.27 465.394 173.725 467.969 178.44 470.694C182.43 473 186.554 475.382 191.776 479.353C198.009 484.157 205.095 488.559 212.273 492.086ZM321.831 337.699C327.153 340.315 331.321 342.647 334.95 345.039C351.544 353.853 360.94 369.028 362.097 388.919C363.102 402.09 359.988 413.861 352.841 423.903C346.114 433.387 335.169 441.733 320.802 451.346C309.141 458.974 300.083 465.457 292.293 471.754C289.89 473.696 287.742 475.48 285.73 477.208C284.898 477.97 284.084 478.718 283.293 479.447C274.853 487.211 268.755 492.821 258.359 498.312C248.056 503.948 231.19 501.798 212.091 492.412C204.888 488.872 197.775 484.453 191.522 479.633C186.322 475.681 182.21 473.304 178.233 471.005C173.498 468.269 169.026 465.685 163.427 460.779C160.78 458.44 158.144 456.176 155.596 453.988C149.108 448.416 142.981 443.155 137.344 437.261C125.779 425.975 115.171 414.244 112.48 394.981C109.989 383.055 108.209 365.257 113.902 348.259C118.269 334.98 128.146 323.578 141.717 316.156C144.188 314.748 146.8 313.411 149.479 312.182C162.725 306.016 178.57 302.91 194.096 303.437C207.726 303.483 221.441 304.915 237.25 307.947C241.692 308.508 246.079 309.217 250.282 310.053C268.886 314.216 283.116 318.989 296.427 325.53C298.684 326.639 300.938 327.815 303.125 329.025C305.374 330.068 307.612 331.088 309.817 332.092C314.016 334.003 317.982 335.808 321.831 337.699Z" fill="#4CAF4F"/>
<path d="M329.93 346.511C328.137 345.465 326.238 344.453 324.109 343.407C319.179 340.984 313.862 338.801 308.233 336.488C305.016 335.166 301.688 333.8 298.316 332.339C296.977 331.64 295.623 330.954 294.273 330.291C280.965 323.751 266.492 318.565 247.348 313.476C243.287 312.504 239.091 311.642 234.878 310.917C219.122 307.133 206.344 305.291 193.43 304.946C178.646 304.077 163.442 307.075 150.611 313.387C148.076 314.615 145.602 315.954 143.253 317.365C130.403 324.775 121.305 335.545 116.945 348.516C111.253 365.115 112.684 382.091 114.885 393.41C117.244 412.347 127.639 423.307 139.965 434.686C145.252 439.906 150.965 444.576 157.011 449.52C160.087 452.035 163.266 454.636 166.474 457.38C171.959 462.035 176.266 464.358 180.824 466.818C184.94 469.038 189.196 471.334 194.723 475.522C201.163 480.469 208.519 485.027 215.998 488.702C234.372 497.732 250.286 500.016 259.662 494.97C270.303 489.447 275.912 484.069 284.402 475.929L285.788 474.601C287.697 472.894 289.719 471.134 291.977 469.217C299.401 462.91 307.639 456.618 318.688 448.814C331.932 439.237 342.043 430.94 348.333 421.578C354.949 411.772 357.85 400.478 356.957 388.01C355.951 369.04 347.05 354.903 331.212 347.12C330.79 346.913 330.362 346.708 329.93 346.511ZM324.291 343.081C326.429 344.132 328.336 345.15 330.121 346.19C330.536 346.381 330.967 346.586 331.394 346.795C347.372 354.647 356.353 368.896 357.366 388.005C358.263 400.547 355.344 411.911 348.685 421.783C342.366 431.189 332.229 439.509 318.951 449.11C307.909 456.909 299.68 463.195 292.263 469.494C290.009 471.409 287.988 473.167 286.086 474.868L284.705 476.192C276.192 484.354 270.568 489.747 259.88 495.294C250.384 500.405 234.322 498.121 215.817 489.027C208.312 485.339 200.93 480.766 194.468 475.801C188.969 471.635 184.729 469.347 180.629 467.135C176.048 464.663 171.722 462.33 166.202 457.645C162.998 454.904 159.82 452.306 156.745 449.791C150.691 444.84 144.971 440.162 139.675 434.935C127.754 423.929 116.851 412.47 114.481 393.445C112.275 382.099 110.838 365.059 116.552 348.39C120.941 335.34 130.095 324.503 143.018 317.051C145.374 315.635 147.859 314.29 150.403 313.057C163.298 306.715 178.578 303.702 193.43 304.575C206.368 304.92 219.178 306.766 234.948 310.556C239.159 311.278 243.365 312.142 247.438 313.119C266.62 318.216 281.118 323.412 294.454 329.965C295.807 330.63 297.165 331.319 298.492 332.011C301.846 333.465 305.171 334.83 308.386 336.15C314.023 338.465 319.346 340.653 324.291 343.081Z" fill="#4CAF4F"/>
<path d="M219.557 485.582C237.198 494.251 252.237 496.613 260.816 492.062C271.666 486.512 276.764 481.387 285.207 472.899L285.785 472.318C287.59 470.625 289.489 468.887 291.592 466.998C298.51 460.788 306.19 454.485 316.491 446.561C327.015 438.271 337.614 429.238 343.859 419.365C350 409.701 352.724 398.792 351.958 386.936C351.142 369.285 343.145 356.238 328.828 349.202C327.58 348.589 326.269 348.014 324.929 347.494C324.651 347.353 324.391 347.225 324.128 347.095C318.705 344.43 312.608 342.229 306.154 339.901C302.074 338.428 297.856 336.907 293.535 335.17C276.322 326.739 259.027 320.96 244.38 316.416C240.445 315.302 236.433 314.29 232.459 313.413C222.056 310.387 208.147 306.813 192.687 306.02C178.757 304.849 163.743 307.854 151.486 314.26C149.085 315.498 146.737 316.848 144.506 318.272C132.49 325.622 123.847 336.159 119.503 348.742C113.768 365.046 114.832 381.284 116.736 392.035C118.755 410.757 129.401 421.45 142.065 432.531C147.049 437.18 152.406 441.344 158.077 445.753C161.615 448.504 165.273 451.348 168.975 454.42C174.399 458.884 178.583 460.978 183.012 463.196C187.218 465.301 191.57 467.479 197.361 471.856C203.967 476.919 211.849 481.794 219.557 485.582ZM329.01 348.877C343.468 355.982 351.545 369.143 352.366 386.935C353.138 398.858 350.397 409.837 344.216 419.562C337.942 429.479 327.316 438.536 316.766 446.848C306.47 454.767 298.797 461.066 291.886 467.269C289.785 469.155 287.889 470.892 286.091 472.579L285.517 473.155C277.047 481.67 271.935 486.81 261.032 492.386C252.332 497.002 237.147 494.641 219.376 485.907C211.642 482.107 203.734 477.217 197.107 472.136C191.35 467.784 187.018 465.616 182.829 463.519C178.376 461.29 174.172 459.185 168.706 454.689C165.01 451.621 161.356 448.779 157.82 446.031C152.142 441.616 146.778 437.447 141.784 432.789C129.062 421.658 118.362 410.907 116.328 392.065C114.42 381.286 113.353 364.987 119.115 348.615C123.482 335.956 132.18 325.357 144.263 317.962C146.501 316.535 148.86 315.178 151.272 313.935C163.595 307.491 178.695 304.472 192.698 305.649C208.197 306.443 222.139 310.026 232.553 313.056C236.52 313.931 240.54 314.944 244.489 316.063C259.159 320.613 276.475 326.4 293.7 334.837C298 336.564 302.214 338.085 306.289 339.555C313.068 342.002 319.453 344.307 325.096 347.162C326.426 347.679 327.75 348.258 329.01 348.877Z" fill="#4CAF4F"/>
<path d="M223.719 482.412C233.577 487.256 251.709 494.551 262.377 488.982C273.344 483.457 277.896 478.642 286.158 469.899C287.9 468.178 289.672 466.462 291.605 464.62C299.738 456.879 308.212 449.619 314.686 444.157C324.263 435.885 333.933 426.869 339.768 417.017C345.433 407.495 347.979 396.973 347.335 385.739C346.688 369.288 339.496 357.228 326.536 350.859C324.594 349.905 322.499 349.064 320.308 348.363C315.381 346.257 309.888 344.574 304.071 342.792C299.262 341.319 294.289 339.794 289.136 337.892C274.528 331.25 259.651 325.635 241.803 319.246C237.984 317.983 234.156 316.823 230.433 315.8C219.623 312.066 206.657 308.107 192.345 306.983C179.024 305.499 164.603 308.428 152.774 315.014C150.508 316.26 148.285 317.62 146.169 319.058C134.999 326.339 126.81 336.634 122.485 348.835C116.701 364.844 117.403 380.334 119.011 390.511C120.708 409.055 131.135 419.06 144.589 430.214C149.314 434.369 154.362 438.09 159.709 442.03C163.663 444.943 167.751 447.956 171.898 451.291C176.108 454.653 179.487 456.486 182.236 457.837C183.393 458.406 184.508 458.921 185.692 459.466C186.861 460.005 188.075 460.564 189.316 461.174C192.021 462.504 195.729 464.484 200.418 468.02C207.359 473.328 215.634 478.439 223.719 482.412ZM326.718 350.533C339.821 356.972 347.091 369.146 347.743 385.741C348.382 396.88 345.749 407.76 340.131 417.205C334.27 427.101 324.576 436.14 314.973 444.434C308.501 449.894 300.034 457.148 291.908 464.884C289.976 466.723 288.205 468.437 286.494 470.128C278.183 478.922 273.616 483.755 262.591 489.308C251.756 494.964 233.472 487.619 223.537 482.737C215.427 478.751 207.126 473.625 200.164 468.301C195.505 464.787 191.824 462.82 189.135 461.499C187.898 460.891 186.689 460.335 185.519 459.796C184.388 459.274 183.216 458.734 182.054 458.163C179.283 456.801 175.881 454.954 171.635 451.565C167.496 448.235 163.411 445.224 159.459 442.313C154.107 438.37 149.049 434.643 144.318 430.479C130.795 419.271 120.314 409.208 118.603 390.535C116.99 380.331 116.288 364.779 122.095 348.704C126.446 336.433 134.683 326.076 145.919 318.753C148.04 317.31 150.272 315.945 152.55 314.694C164.453 308.066 178.966 305.12 192.367 306.615C206.726 307.739 219.726 311.711 230.548 315.448C234.268 316.468 238.1 317.633 241.931 318.899C259.796 325.293 274.683 330.913 289.291 337.554C294.415 339.446 299.381 340.968 304.186 342.44C310.014 344.226 315.52 345.912 320.448 348.02C322.639 348.722 324.755 349.569 326.718 350.533Z" fill="#4CAF4F"/>
<path d="M227.835 479.566C243.852 487.437 256.602 489.758 263.735 486.101C274.736 480.649 278.879 476.019 286.398 467.614C288.047 465.89 289.696 464.194 291.442 462.424C298.597 455.171 305.899 448.283 312.724 441.92C320.951 434.071 330.097 424.709 335.545 414.808C340.666 405.547 343.1 395.121 342.585 384.654C342.079 369.059 335.773 358.18 323.843 352.318C321.317 351.077 318.519 350.064 315.526 349.309C311.228 347.814 306.503 346.643 301.499 345.404C296.058 344.055 290.432 342.661 284.542 340.677C275.759 337.02 267.03 333.491 257.789 329.756C251.665 327.282 245.334 324.723 238.975 322.119C235.251 320.691 231.606 319.38 228.143 318.221C217.047 313.746 204.963 309.412 191.698 307.971C178.945 306.175 165.103 309.029 153.718 315.796C151.579 317.052 149.481 318.422 147.483 319.873C137.152 327.079 129.408 337.145 125.092 348.982C119.254 364.72 119.596 379.474 120.913 389.08C122.298 407.474 132.507 416.826 146.776 428.03C151.271 431.753 156.059 435.087 161.127 438.615C165.467 441.637 169.955 444.762 174.517 448.318C177.344 450.508 180.061 452.216 183.062 453.69C184.791 454.54 186.416 455.224 188.136 455.948C189.856 456.67 191.636 457.419 193.531 458.35C196.851 459.982 199.924 461.89 203.2 464.356C210.479 469.905 219.458 475.449 227.835 479.566ZM324.024 351.991C336.102 357.926 342.483 368.918 342.992 384.66C343.513 395.183 341.063 405.672 335.912 414.987C330.443 424.931 321.273 434.316 313.024 442.186C306.202 448.546 298.903 455.431 291.753 462.679C290.008 464.448 288.36 466.144 286.717 467.86C279.17 476.297 275.011 480.946 263.947 486.429C256.692 490.148 243.802 487.827 227.654 479.891C219.252 475.762 210.247 470.203 202.947 464.637C199.694 462.19 196.645 460.295 193.35 458.675C191.468 457.751 189.694 457.005 187.979 456.283C186.253 455.558 184.621 454.872 182.88 454.017C179.851 452.528 177.112 450.806 174.26 448.596C169.706 445.047 165.223 441.925 160.889 438.908C155.812 435.373 151.017 432.034 146.511 428.304C132.168 417.04 121.902 407.632 120.505 389.098C119.186 379.464 118.841 364.652 124.706 348.85C129.045 336.945 136.831 326.823 147.222 319.576C149.227 318.12 151.334 316.743 153.481 315.48C164.949 308.667 178.891 305.794 191.735 307.6C205.047 309.049 217.168 313.395 228.282 317.876C231.737 319.032 235.388 320.346 239.123 321.778C245.487 324.385 251.82 326.943 257.939 329.417C267.183 333.153 275.913 336.68 284.684 340.334C290.54 342.307 296.157 343.698 301.589 345.045C306.603 346.287 311.339 347.46 315.637 348.956C318.642 349.713 321.47 350.736 324.024 351.991Z" fill="#4CAF4F"/>
</svg>
