<svg width="18" height="11" viewBox="0 0 18 11" fill="none" xmlns="http://www.w3.org/2000/svg">
    <g id="bxs:up-arrow" clip-path="url(#clip0_1983_91)">
    <path id="Vector" d="M15.4727 1.99935L2.5262 1.99935C2.39512 1.9997 2.26664 2.03047 2.15458 2.08835C2.04252 2.14623 1.95113 2.22903 1.89024 2.32783C1.82935 2.42663 1.80127 2.5377 1.80903 2.64907C1.81679 2.76044 1.86008 2.86791 1.93425 2.9599L8.40751 10.9185C8.67579 11.2485 9.32168 11.2485 9.59068 10.9185L16.0639 2.9599C16.1389 2.8681 16.1828 2.76058 16.191 2.64902C16.1992 2.53746 16.1713 2.42613 16.1103 2.32712C16.0494 2.22811 15.9577 2.14521 15.8453 2.08742C15.7329 2.02963 15.604 1.99917 15.4727 1.99935Z" fill="white"/>
    </g>
    <defs>
    <clipPath id="clip0_1983_91">
    <rect width="17" height="11" fill="white" transform="matrix(-1 0 0 -1 17.5 11)"/>
    </clipPath>
    </defs>
</svg>
