<svg width="740" height="774" viewBox="0 0 740 774" fill="none" xmlns="http://www.w3.org/2000/svg">
<g opacity="0.8">
<path d="M400.754 179.068C387.992 167.407 377.703 160.204 367.395 155.714C327.543 139.201 264.813 161.51 207.583 212.552C179.162 238.276 158.025 267.438 146.46 296.885C136.532 322.686 132.655 352.751 134.258 391.501C135.522 418.12 140.751 445.161 150.715 476.6C160.928 508.377 172.818 529.85 189.265 546.221C190.02 546.957 190.786 547.681 191.609 548.434C211.11 566.251 248.785 587.5 292.39 605.273C336.709 623.337 378.82 634.229 405.037 634.408C464.729 646.715 480.93 620.195 505.455 580.054C516.333 562.248 528.665 542.068 547.067 520.883C560.351 505.597 572.41 492.129 583.051 480.245C634.152 423.18 657.476 397.137 658.139 345.437C657.999 333.169 652.647 322.123 642.236 312.611C634.029 305.112 622.611 298.499 608.296 292.953C595.273 287.962 581.067 283.607 566.026 278.997C546.243 272.934 525.787 266.665 505.105 258.106C480.575 247.83 457.507 232.651 434.579 211.703C431.175 208.594 427.673 205.263 424.17 201.806C422.596 200.251 421.038 198.706 419.494 197.176C413.015 190.749 406.895 184.679 400.754 179.068ZM191.313 548.743C190.486 547.988 189.715 547.26 188.953 546.519C172.444 530.086 160.518 508.552 150.278 476.695C140.302 445.217 135.067 418.139 133.799 391.48C132.194 352.669 136.08 322.552 146.028 296.696C157.618 267.189 178.791 237.976 207.257 212.213C264.609 161.061 327.525 138.724 367.545 155.308C377.912 159.824 388.245 167.056 401.051 178.756C407.2 184.375 413.324 190.448 419.807 196.879C421.35 198.41 422.907 199.955 424.481 201.509C427.981 204.961 431.477 208.287 434.876 211.392C457.759 232.3 480.779 247.447 505.253 257.701C525.91 266.247 546.353 272.513 566.126 278.574C581.176 283.185 595.39 287.542 608.43 292.541C622.806 298.111 634.279 304.758 642.534 312.299C653.05 321.908 658.454 333.07 658.597 345.478C658.275 370.617 652.757 390.157 640.142 410.816C627.896 430.875 609.236 451.713 583.41 480.555C572.77 492.437 560.709 505.904 547.429 521.19C529.048 542.347 516.726 562.515 505.855 580.308C493.196 601.026 483.198 617.392 468.598 627.48C452.813 638.389 433.208 640.66 405.026 634.847C378.8 634.675 336.621 623.768 292.246 605.682C248.589 587.885 210.857 566.6 191.313 548.743Z" fill="#4CAF4F"/>
<path d="M194.637 544.819C195.091 545.251 195.546 545.673 196.018 546.104C214.654 563.131 251.034 583.516 293.332 600.626C336.377 618.043 377.398 628.578 403.064 628.808C461.137 640.67 477.389 615.2 501.988 576.643C512.626 559.972 524.684 541.075 542.3 521.251C555.102 506.765 566.757 493.969 577.038 482.679C626.918 427.911 649.683 402.914 650.789 352.987C650.954 339.967 645.351 328.167 634.128 317.913C626.602 311.037 616.499 304.818 604.101 299.432C589.283 292.295 572.625 286.065 554.99 279.472C538.419 273.276 521.282 266.868 503.919 259.08C468.066 242.723 440.39 219.684 422.691 203.777L419.629 200.91C415.912 197.429 412.401 194.141 408.867 190.912C393.832 177.175 380.819 166.828 366.173 160.98C327.326 145.674 266.306 167.112 210.72 215.598C182.115 240.26 160.796 268.206 149.069 296.412C138.765 321.506 134.576 350.841 135.887 388.73C136.78 416.405 142.306 444.233 153.279 476.302C164.082 507.426 176.777 528.503 194.443 544.643L194.637 544.819ZM195.72 546.416C195.246 545.983 194.788 545.558 194.337 545.126L194.146 544.954C176.415 528.754 163.677 507.613 152.846 476.407C141.858 444.293 136.323 416.425 135.428 388.705C134.116 350.755 138.314 321.365 148.641 296.215C160.392 267.952 181.747 239.956 210.397 215.254C266.103 166.664 327.303 145.199 366.313 160.57C381.031 166.448 394.088 176.825 409.165 190.6C412.702 193.831 416.213 197.121 419.932 200.603L422.99 203.466C440.66 219.347 468.294 242.352 504.08 258.68C521.427 266.459 538.555 272.865 555.12 279.059C572.766 285.656 589.434 291.888 604.262 299.031C616.705 304.437 626.855 310.687 634.425 317.603C645.754 327.953 651.415 339.875 651.245 353.034C650.139 403.116 627.342 428.147 577.394 482.991C567.113 494.281 555.46 507.075 542.657 521.56C525.062 541.36 513.014 560.244 502.385 576.902C489.688 596.803 479.659 612.522 465.239 622.208C449.651 632.68 430.471 634.85 403.056 629.249C377.378 629.022 336.288 618.472 293.191 601.036C250.837 583.903 214.4 563.483 195.72 546.416Z" fill="#4CAF4F"/>
<path d="M625.908 323.113C619.126 316.917 610.368 311.183 599.88 306.071C583.04 296.126 563.394 287.472 542.595 278.311C529.613 272.592 516.19 266.68 502.606 260.091C469.336 243.614 442.673 223.335 420.977 205.671L419.751 204.591C400.626 187.732 384.107 173.172 364.633 166.089C326.747 151.937 267.429 172.446 213.509 218.342C184.313 242.254 163.414 268.247 151.388 295.603C140.872 319.643 136.274 349.096 137.325 385.646C137.863 413.998 143.894 443.469 155.764 475.745C167.14 506.249 181.078 527.49 200.03 543.237L200.436 543.609C218.235 559.871 253.363 579.432 294.399 595.935C336.218 612.751 376.191 622.977 401.331 623.291C457.845 634.781 474.14 610.363 498.806 573.401C509.173 557.868 520.923 540.263 537.723 521.808C550.02 508.149 561.245 496.047 571.148 485.369C619.805 432.907 642.012 408.964 643.501 360.77C644.005 346.91 638.086 334.24 625.908 323.113ZM195.46 539.822C178.62 524.436 165.87 504.111 155.334 475.861C143.446 443.535 137.406 414.016 136.866 385.618C135.813 349.005 140.424 319.494 150.963 295.397C163.014 267.984 183.952 241.941 213.191 217.994C239.788 195.355 268.074 178.478 294.989 169.185C321.907 159.893 346.034 158.679 364.759 165.675C384.325 172.791 400.876 187.38 420.042 204.274L421.26 205.347C442.924 222.986 469.559 243.244 502.782 259.698C516.353 266.279 529.774 272.191 542.752 277.907C563.565 287.076 583.226 295.736 600.072 305.686C610.589 310.811 619.386 316.571 626.205 322.802C638.497 334.032 644.47 346.825 643.959 360.825C642.465 409.169 620.226 433.147 571.5 485.682C561.598 496.36 550.374 508.461 538.08 522.12C521.298 540.552 509.555 558.144 499.2 573.667C486.467 592.744 476.412 607.81 462.167 617.081C446.768 627.107 428.003 629.157 401.322 623.732C376.172 623.422 336.131 613.182 294.257 596.342C253.166 579.82 217.981 560.221 200.139 543.92L199.741 543.555C198.297 542.354 196.854 541.096 195.46 539.822Z" fill="#4CAF4F"/>
<path d="M617.231 327.909C611.31 322.499 603.966 317.387 595.405 312.719C576.334 299.167 553.038 287.467 528.373 275.079C519.529 270.638 510.385 266.046 501.185 261.242C467.907 243.454 439.812 222.864 419.296 207.83C400.821 192.561 383.382 178.147 363.225 171.551C345.063 165.168 321.736 166.464 295.759 175.296C269.731 184.148 242.342 200.13 216.55 221.515C187.174 244.32 166.115 269.111 153.959 295.202C143.079 318.507 138.169 347.193 138.948 382.897C139.112 412.275 145.453 442.537 158.334 475.415C168.561 501.169 180.775 519.97 196.77 534.583C199.512 537.089 202.414 539.509 205.397 541.775C222.627 557.232 256.451 575.807 295.901 591.481C336.796 607.729 374.473 617.265 399.274 617.641C454.175 628.698 470.534 605.344 495.296 569.994C505.376 555.605 516.801 539.294 532.771 522.213C544.536 509.404 555.313 498.015 564.821 487.964C612.285 437.795 633.949 414.899 635.864 368.469C636.773 353.68 630.502 340.035 617.231 327.909ZM196.472 534.895C180.418 520.227 168.165 501.367 157.906 475.542C145.005 442.608 138.654 412.293 138.491 382.862C137.71 347.096 142.633 318.351 153.539 294.989C165.723 268.84 186.819 244.001 216.24 221.163C242.064 199.75 269.499 183.742 295.575 174.875C321.648 166.009 345.08 164.715 363.339 171.132C383.584 177.757 401.059 192.201 419.562 207.493C440.053 222.509 468.133 243.085 501.374 260.856C510.568 265.655 519.711 270.247 528.554 274.688C553.235 287.084 576.55 298.795 595.626 312.35C604.198 317.025 611.575 322.16 617.528 327.598C630.914 339.829 637.238 353.601 636.323 368.531C634.399 415.107 612.705 438.039 565.171 488.282C555.663 498.33 544.888 509.719 533.123 522.526C517.172 539.59 505.755 555.887 495.682 570.267C482.902 588.509 472.808 602.921 458.738 611.781C443.527 621.361 425.183 623.303 399.267 618.081C374.452 617.709 336.709 608.16 295.759 591.89C256.262 576.197 222.376 557.582 205.119 542.103C202.142 539.84 199.226 537.411 196.472 534.895Z" fill="#4CAF4F"/>
<path d="M608.859 331.993C603.919 327.48 598.05 323.138 591.408 319.082C569.79 300.84 541.859 285.298 512.293 268.847C508.278 266.613 504.228 264.36 500.148 262.074C475.509 247.914 453.692 233.388 434.444 220.571C428.654 216.715 423.184 213.074 417.918 209.627C398.105 194.361 381.423 182.242 362.061 176.618C344.337 170.806 321.67 172.189 296.506 180.614C271.28 189.061 244.703 204.199 219.647 224.394C190.041 246.122 168.795 269.745 156.494 294.614C145.231 317.203 139.997 345.157 140.499 380.071C140.273 410.091 147.112 442.066 160.824 475.116C170.716 498.65 182.382 516.06 197.534 529.904C201.633 533.649 206.07 537.182 210.721 540.41C227.583 555.054 260.153 572.589 297.872 587.333C337.102 602.667 373.376 611.71 397.392 612.139C450.759 622.764 467.227 600.442 492.151 566.651C501.936 553.383 513.028 538.347 528.17 522.611C539.397 510.658 549.719 499.98 558.828 490.561C605.21 442.585 626.378 420.689 628.743 375.948C630.119 360.092 623.43 345.306 608.859 331.993ZM197.236 530.216C182.027 516.32 170.324 498.855 160.402 475.249C146.664 442.143 139.816 410.106 140.041 380.032C139.538 345.056 144.784 317.041 156.079 294.392C168.407 269.468 189.692 245.796 219.343 224.035C244.429 203.816 271.052 188.654 296.322 180.193C321.581 171.736 344.349 170.353 362.162 176.196C381.602 181.842 398.327 193.987 418.166 209.277C423.417 212.713 428.888 216.354 434.68 220.211C453.92 233.023 475.73 247.544 500.352 261.695C504.427 263.977 508.477 266.231 512.491 268.465C542.081 284.929 570.032 300.483 591.658 318.735C598.294 322.782 604.193 327.147 609.156 331.682C623.846 345.103 630.588 360.019 629.2 376.017C626.829 420.903 605.627 442.831 559.173 490.878C550.067 500.299 539.744 510.974 528.52 522.927C513.394 538.648 502.309 553.673 492.533 566.931C479.668 584.37 469.507 598.144 455.581 606.607C440.526 615.756 422.577 617.6 397.383 612.579C373.352 612.153 337.019 603.099 297.735 587.744C259.965 572.979 227.338 555.411 210.455 540.748C205.806 537.525 201.351 533.975 197.236 530.216Z" fill="#4CAF4F"/>
<path d="M580.951 320.114C559.001 300.06 530.747 282.54 498.771 263.346C485.809 255.353 473.659 247.615 461.91 240.131C445.447 229.645 429.896 219.741 416.157 211.779C397.553 198.494 380.537 187.091 360.488 181.983C343.202 176.72 321.208 178.156 296.876 186.136C272.478 194.135 246.748 208.383 222.466 227.339C192.665 247.926 171.275 270.338 158.881 293.96C147.269 315.794 141.757 342.99 142.033 377.101C141.461 408.154 148.661 440.969 163.431 474.644C172.852 495.851 184.282 512.42 198.372 525.294C203.797 530.25 209.808 534.83 216.239 538.905C249.665 566.935 344.504 605.576 395.726 606.711C447.577 616.977 464.134 595.72 489.199 563.544C498.639 551.421 509.34 537.683 523.603 523.324C534.236 512.273 544.062 502.351 552.729 493.596C597.989 447.884 618.648 427.021 621.391 383.974C623.295 366.924 616.083 350.813 599.96 336.083C596.16 332.611 591.839 329.212 587.117 325.979C585.132 324.014 583.07 322.05 580.951 320.114ZM198.074 525.605C183.931 512.683 172.462 496.059 163.013 474.786C148.215 441.049 141.002 408.169 141.575 377.058C141.298 342.881 146.823 315.623 158.469 293.729C170.893 270.05 192.325 247.591 222.169 226.975C246.478 207.998 272.251 193.727 296.695 185.712C321.116 177.704 343.206 176.267 360.577 181.556C380.701 186.683 397.758 198.113 416.386 211.415C430.113 219.369 445.668 229.278 462.136 239.765C473.885 247.249 486.032 254.985 498.987 262.974C530.984 282.182 559.262 299.717 581.247 319.804C583.371 321.744 585.439 323.713 587.393 325.654C592.1 328.87 596.44 332.285 600.257 335.772C616.502 350.616 623.767 366.858 621.849 384.052C620.519 404.902 614.928 421.126 603.152 438.293C591.883 454.723 575.605 471.165 553.074 493.92C544.407 502.674 534.583 512.596 523.947 523.646C509.702 537.991 499.008 551.719 489.572 563.833C476.635 580.438 466.42 593.556 452.647 601.594C437.752 610.286 420.196 611.999 395.718 607.152C372.482 606.638 337.556 598.035 299.934 583.545C263.894 569.669 232.511 553.109 215.984 539.251C209.558 535.179 203.523 530.583 198.074 525.605Z" fill="#4CAF4F"/>
<path d="M564.39 313.363C543.792 294.543 519.061 277.935 497.586 264.173C469.107 245.41 439.248 226.05 414.683 213.603C394.336 200.259 377.981 191.177 359.256 187.1C324.784 177.502 273.563 194.036 225.572 230.246C195.535 249.73 173.969 270.964 161.459 293.366C149.459 314.454 143.63 340.901 143.629 374.225C142.672 405.862 150.391 440.445 165.949 474.239C174.981 493.624 185.797 508.916 199.01 520.989C205.788 527.181 213.164 532.548 221.559 537.396C237.699 550.416 267.753 565.89 301.989 578.813C337.873 592.359 371.314 600.452 393.737 601.018C444.077 610.853 460.784 590.635 486.076 560.031C495.158 549.038 505.453 536.579 518.822 523.576C528.847 513.438 538.159 504.277 546.377 496.196C589.296 453.965 610.84 432.768 614.037 391.38C616.548 373.221 608.524 355.087 590.837 338.927C588.383 336.685 585.72 334.458 582.915 332.304C577.477 325.998 571.258 319.637 564.39 313.363ZM198.712 521.3C185.448 509.18 174.596 493.837 165.533 474.39C149.945 440.53 142.213 405.876 143.172 374.177C143.171 340.788 149.02 314.272 161.051 293.127C173.594 270.668 195.203 249.389 225.282 229.876C273.367 193.596 324.736 177.038 359.332 186.669C380.151 191.203 398.194 202.275 414.888 213.228C439.454 225.673 469.326 245.04 497.818 263.81C519.307 277.583 544.059 294.204 564.688 313.052C571.568 319.338 577.803 325.716 583.216 332.002C585.994 334.127 588.669 336.363 591.135 338.615C608.947 354.89 617.024 373.165 614.493 391.467C611.283 432.991 589.705 454.223 546.714 496.521C538.5 504.603 529.19 513.764 519.164 523.904C505.808 536.891 495.519 549.343 486.442 560.327C473.389 576.123 463.08 588.599 449.43 596.236C434.672 604.493 417.494 606.102 393.726 601.458C371.291 600.896 337.79 592.791 301.857 579.227C267.575 566.285 237.466 550.781 221.319 537.75C212.924 532.907 205.518 527.518 198.712 521.3Z" fill="#4CAF4F"/>
<path d="M547.636 304.898C533.787 292.245 517.007 279.23 496.336 265.112C462.719 241.503 435.487 225.272 413.08 215.49C393.944 204.069 377.246 195.754 357.859 192.249C324.359 183.831 274.785 199.505 228.469 233.152C198.181 251.522 176.436 271.578 163.825 292.774C151.445 313.107 145.301 338.818 145.039 371.376C143.339 412.654 156.763 449.92 168.324 473.913C176.981 491.672 187.204 505.802 199.579 517.108C207.56 524.4 216.46 530.582 226.788 536.006C258.925 560.859 344.674 594.175 391.759 595.536C440.654 604.966 457.546 585.781 483.112 556.741C491.795 546.879 501.637 535.7 514.081 524.055C523.453 514.859 532.214 506.484 539.944 499.097C581.97 458.932 603.064 438.772 606.709 398.998C609.962 379.278 601.195 359.282 581.356 341.156C580.495 340.369 579.601 339.576 578.699 338.797C570.208 327.324 560.058 316.248 547.636 304.898ZM199.282 517.419C186.858 506.068 176.597 491.889 167.913 474.071C156.328 450.029 142.879 412.688 144.583 371.324C144.843 338.698 151.005 312.921 163.424 292.525C176.067 271.274 197.859 251.17 228.188 232.777C274.591 199.068 324.307 183.368 357.919 191.815C377.364 195.33 394.109 203.667 413.265 215.101C435.674 224.883 462.935 241.13 496.576 264.756C517.266 278.887 534.066 291.917 547.933 304.587C560.381 315.96 570.551 327.06 579.026 338.519C579.891 339.258 580.789 340.054 581.654 340.845C601.62 359.087 610.441 379.229 607.162 399.09C603.506 439.001 582.377 459.195 540.281 499.428C532.553 506.815 523.792 515.186 514.415 524.383C501.983 536.021 492.148 547.191 483.471 557.048C457.81 586.195 440.855 605.45 391.749 595.975C344.619 594.618 258.719 561.243 226.559 536.37C216.234 530.948 207.296 524.742 199.282 517.419Z" fill="#4CAF4F"/>
<path d="M531.601 296.111C520.742 286.19 508.731 276.473 494.889 266.408C463.566 243.002 435.423 226.598 411.239 217.652C395.263 209.068 377.564 200.712 356.207 197.617C323.67 190.339 275.771 205.09 231.185 236.111C200.232 253.556 178.947 271.877 166.096 292.136C153.356 311.684 146.934 336.639 146.454 368.43C144.78 401.648 153.437 438.953 170.831 473.48C179.137 489.793 188.812 502.872 200.407 513.466C209.518 521.791 219.921 528.691 232.212 534.563C263.673 557.794 344.252 588.613 390.019 590.167C437.513 599.254 454.605 581.126 480.477 553.683C488.695 544.967 498.01 535.086 509.463 524.819C518.124 516.61 526.275 509.066 533.47 502.411C574.626 464.344 595.284 445.235 599.334 407.054C604.271 381.242 588.484 359.458 574.374 345.723L574.336 345.677C563.532 328.728 549.553 312.514 531.601 296.111ZM200.11 513.777C188.469 503.14 178.758 490.014 170.422 473.647C152.994 439.046 144.318 401.661 145.996 368.376C146.476 336.511 152.921 311.488 165.699 291.877C178.586 271.565 199.918 253.197 230.912 235.731C275.577 204.654 323.61 189.879 356.251 197.179C377.666 200.283 395.414 208.661 411.4 217.253C435.598 226.202 463.784 242.628 495.142 266.062C508.999 276.136 521.021 285.864 531.897 295.801C549.876 312.228 563.878 328.466 574.704 345.445C588.896 359.262 604.756 381.179 599.789 407.157C595.723 445.47 575.029 464.612 533.803 502.748C526.61 509.401 518.456 516.942 509.796 525.155C498.348 535.415 489.041 545.288 480.828 554.001C454.86 581.541 437.706 599.737 390.008 590.608C344.196 589.053 263.475 558.179 231.999 534.934C219.705 529.065 209.259 522.136 200.11 513.777Z" fill="#4CAF4F"/>
<path d="M517.695 287.318C510.277 280.541 502.2 273.774 493.688 267.202C463.932 243.607 434.892 227.086 409.705 219.419C389.019 209.581 372.633 204.576 354.881 202.667C339.339 199.668 320.016 201.411 298.98 207.709C277.819 214.045 255.397 224.853 234.14 238.966C202.899 255.27 181.432 272.456 168.494 291.52C155.363 310.298 148.616 334.52 147.868 365.568C145.788 399.816 154.775 438.016 173.173 473.142C181.119 488.159 190.259 500.282 201.116 510.202C211.267 519.477 223.131 526.981 237.388 533.145C268.476 554.934 344.035 582.94 387.969 584.6C434.118 593.279 451.501 576.166 477.813 550.26C485.517 542.676 494.249 534.077 504.674 525.168C512.572 517.964 519.752 511.56 526.694 505.369C567.156 469.278 587.466 451.164 592.002 414.505C597.611 388.945 583.231 366.438 570.183 352.055L570.147 352.006C557.896 329.689 540.249 307.925 517.695 287.318ZM200.819 510.513C189.918 500.553 180.743 488.385 172.769 473.315C154.331 438.115 145.326 399.83 147.41 365.51C148.16 334.386 154.93 310.093 168.105 291.25C181.08 272.133 202.594 254.904 233.876 238.579C255.15 224.456 277.61 213.63 298.811 207.284C319.914 200.965 339.314 199.217 354.911 202.229C372.702 204.14 389.136 209.158 409.841 219.008C435.053 226.68 464.151 243.234 493.955 266.866C502.475 273.443 510.564 280.221 517.992 287.008C540.578 307.643 558.255 329.443 570.535 351.8C583.653 366.267 598.096 388.901 592.452 414.616C587.902 451.405 567.555 469.554 527.021 505.709C520.078 511.9 512.9 518.302 504.998 525.509C494.579 534.414 485.852 543.007 478.152 550.589C451.748 576.585 434.303 593.759 387.958 585.041C367.89 584.285 338.615 577.609 307.676 566.729C278.622 556.512 252.271 544.098 237.187 533.522C222.923 527.363 211.013 519.827 200.819 510.513Z" fill="#4CAF4F"/>
<path d="M506.219 280.255C501.824 276.24 497.203 272.246 492.486 268.383C463.538 244.069 434.379 227.868 408.156 221.528C388.676 213.48 371.844 209.32 353.543 208.028C322.45 203.013 278.944 215.721 237.142 242.022C205.625 257.142 183.999 273.169 171.008 291.032C157.499 309.016 150.452 332.488 149.462 362.79C146.999 398.054 156.343 437.142 175.771 472.864C183.384 486.731 192.036 497.993 202.22 507.298C213.342 517.46 226.632 525.479 242.85 531.813C272.899 551.687 344.917 577.449 386.202 579.215C431.08 587.526 448.811 571.438 475.642 547.083C482.738 540.644 490.778 533.344 500.086 525.812C507.136 519.659 513.612 514.119 519.875 508.762C558.477 475.733 579.742 457.54 584.751 422.365C591.007 397.085 578.025 373.846 566.031 358.8C552.813 330.86 532.7 304.45 506.219 280.255ZM201.922 507.61C191.697 498.267 183.011 486.96 175.371 473.044C155.9 437.245 146.536 398.068 149.004 362.728C149.996 332.347 157.07 308.8 170.627 290.752C183.655 272.838 205.331 256.769 236.891 241.63C278.758 215.287 322.379 202.556 353.556 207.587C371.891 208.879 388.77 213.051 408.265 221.108C434.525 227.453 463.758 243.692 492.763 268.055C497.487 271.923 502.117 275.924 506.517 279.944C533.047 304.184 553.198 330.645 566.416 358.597C578.443 373.678 591.496 397.052 585.201 422.485C580.174 457.789 558.87 476.017 520.195 509.108C513.933 514.465 507.458 520.004 500.401 526.16C491.098 533.689 483.062 540.984 475.971 547.422C449.045 571.859 431.256 588.003 386.19 579.656C366.632 578.82 339.487 572.779 309.788 562.645C282.496 553.333 257.402 541.95 242.664 532.198C226.435 525.866 213.092 517.816 201.922 507.61Z" fill="#4CAF4F"/>
<path d="M496.731 274.518C494.849 272.799 492.914 271.078 490.983 269.403C462.702 244.285 433.443 228.416 406.366 223.513C388.187 217.159 370.924 213.91 352.002 213.276C321.877 209.435 280.021 221.28 240.017 244.96C207.782 259.071 186.629 273.508 173.428 290.404C159.547 307.574 152.202 330.281 150.969 359.828C148.159 395.562 158.104 436.563 178.253 472.328C185.544 485.156 193.738 495.639 203.3 504.375C215.49 515.512 229.739 523.71 248.144 530.176C277.307 548.244 344.451 571.573 384.167 573.479C427.859 581.426 446.02 566.352 473.511 543.534C479.875 538.253 487.087 532.268 495.162 526.126C501.262 521.07 506.934 516.442 512.42 511.969C550.589 480.839 571.616 463.693 577.126 429.947C584.022 404.98 572.447 381.02 561.525 365.312C548.162 332.426 525.762 301.044 496.731 274.518ZM203.002 504.686C193.399 495.913 185.173 485.39 177.856 472.514C157.661 436.669 147.697 395.571 150.514 359.759C151.748 330.133 159.122 307.349 173.056 290.113C186.297 273.165 207.499 258.69 239.776 244.563C279.837 220.848 321.798 208.982 351.998 212.834C370.948 213.466 388.256 216.725 406.447 223.086C433.577 227.996 462.923 243.906 491.271 269.085C493.204 270.761 495.141 272.485 497.027 274.208C526.116 300.785 548.556 332.226 561.921 365.134C572.878 380.877 584.51 404.969 577.575 430.077C572.043 463.949 550.977 481.131 512.733 512.32C507.248 516.793 501.575 521.418 495.472 526.48C487.397 532.623 480.187 538.606 473.827 543.883C459.616 555.678 448.394 564.995 434.958 570.599C420.452 576.649 404.783 577.675 384.155 573.921C365.416 573.022 339.67 567.45 311.686 558.231C286.179 549.828 262.362 539.487 247.975 530.57C229.551 524.104 215.245 515.872 203.002 504.686Z" fill="#4CAF4F"/>
<path d="M487.628 268.16C460.583 243.451 431.995 228.648 404.952 225.355C387.704 220.458 371.01 218.317 350.787 218.407C321.57 215.752 281.313 226.775 243.074 247.892C210.503 260.807 189.176 274.143 175.932 289.869C161.851 306.017 153.966 328.618 152.49 357.054C149.264 393.81 159.544 435.735 180.695 472.085C187.68 483.996 195.453 493.782 204.453 502.005C217.505 513.93 233.067 522.462 253.427 528.851C282.71 545.681 343.988 565.991 382.239 568.016C424.938 575.602 442.697 562.241 472.121 540.107C477.86 535.79 483.793 531.327 490.492 526.581C495.518 522.654 500.266 518.993 504.855 515.449C542.878 486.117 563.821 469.959 569.904 437.505C577.457 412.835 567.299 388.124 557.45 371.733C544.296 333.805 520.947 298.736 489.91 270.272C489.147 269.558 488.389 268.856 487.628 268.16ZM204.154 502.318C195.116 494.059 187.313 484.233 180.301 472.278C159.102 435.845 148.8 393.822 152.034 356.983C153.514 328.464 161.432 305.779 175.57 289.567C188.855 273.791 210.233 260.419 242.846 247.489C281.132 226.343 321.485 215.301 350.766 217.963C371.014 217.871 387.749 220.017 405.005 224.92C432.115 228.219 460.802 243.066 487.926 267.849C488.689 268.545 489.447 269.249 490.209 269.963C521.307 298.482 544.702 333.622 557.862 371.581C567.739 388.008 577.943 412.844 570.349 437.643C564.244 470.225 543.257 486.415 505.161 515.809C500.569 519.35 495.824 523.011 490.792 526.942C484.087 531.691 478.159 536.154 472.422 540.467C457.721 551.527 446.109 560.261 432.54 565.486C417.907 571.124 402.391 572.04 382.224 568.457C364.288 567.509 339.914 562.416 313.622 554.12C289.89 546.631 267.327 537.334 253.272 529.251C232.889 522.862 217.264 514.296 204.154 502.318Z" fill="#4CAF4F"/>
<path d="M482.749 265.656C457.174 242.288 429.72 229.026 403.356 227.302C387.486 223.844 370.847 222.702 349.368 223.594C321.008 222.095 282.351 232.257 245.938 250.776C212.569 262.606 191.708 274.457 178.269 289.219C163.808 304.561 155.614 326.405 153.907 354.148C150.298 391.931 160.957 434.795 183.157 471.756C189.867 482.849 197.262 492.015 205.76 499.78C219.649 512.469 236.507 521.282 258.811 527.514C287.056 542.414 343.936 560.502 380.479 562.667C422.444 569.963 440.974 557.471 471.676 536.778C476.203 533.729 480.884 530.571 485.97 527.257C489.736 524.518 493.371 521.896 496.867 519.372C535.043 491.828 556.07 476.654 562.752 445.36C570.928 421.015 562.168 395.529 553.383 378.435C541.376 337.715 519.024 300.697 488.723 271.336C486.757 269.392 484.747 267.481 482.749 265.656ZM205.463 500.091C196.928 492.293 189.504 483.09 182.767 471.954C160.517 434.907 149.832 391.943 153.451 354.074C155.16 326.244 163.393 304.314 177.916 288.906C191.399 274.096 212.312 262.21 245.723 250.366C282.175 231.826 320.915 221.647 349.329 223.15C370.828 222.255 387.504 223.401 403.381 226.863C429.824 228.589 457.383 241.898 483.046 265.345C485.049 267.176 487.064 269.09 489.035 271.039C519.394 300.455 541.793 337.55 553.804 378.307C562.615 395.439 571.41 421.045 563.195 445.51C556.488 476.933 535.416 492.137 497.163 519.739C493.666 522.263 490.032 524.884 486.257 527.628C481.164 530.946 476.484 534.101 471.96 537.152C456.592 547.508 444.458 555.689 430.643 560.539C415.761 565.761 400.286 566.555 380.465 563.108C343.889 560.942 286.913 542.825 258.672 527.922C236.337 521.687 219.413 512.837 205.463 500.091Z" fill="#4CAF4F"/>
<path d="M478.7 263.912C454.231 241.556 427.611 229.595 401.715 229.325C384.714 226.771 367.932 227.3 347.954 228.88C319.989 228.546 283.886 237.618 248.883 253.771C226.178 260.875 197.939 271.254 180.731 288.673C165.894 303.192 157.387 324.263 155.446 351.3C151.498 389.511 162.798 434.399 185.677 471.38C192.119 481.727 199.155 490.323 207.185 497.659C222.06 511.251 239.635 520.013 264.171 526.064C291.84 539.26 344.384 554.885 378.572 557.134C420.158 564.17 439.78 552.459 472.292 533.056C475.167 531.343 478.137 529.569 481.228 527.744C483.475 526.247 485.68 524.783 487.833 523.349C525.334 498.415 547.968 483.363 555.348 453.066C564.134 429.08 556.794 402.838 549.09 385.042C538.475 342.228 516.571 302.243 487.406 272.413C484.561 269.451 481.631 266.591 478.7 263.912ZM206.888 497.971C198.822 490.602 191.757 481.971 185.29 471.585C174.564 454.245 166.078 434.595 160.749 414.753C154.844 392.764 152.904 371.391 154.989 351.224C156.937 324.09 165.483 302.934 180.388 288.348C197.657 270.867 225.956 260.464 248.682 253.354C283.716 237.187 319.888 228.101 347.897 228.435C367.886 226.854 384.699 226.324 401.711 228.883C427.698 229.152 454.434 241.158 478.997 263.601C481.936 266.287 484.874 269.155 487.726 272.125C502.269 286.997 514.958 304.198 525.437 323.246C536.058 342.546 544.16 363.303 549.523 384.939C557.247 402.771 564.615 429.132 555.787 453.226C548.378 483.653 525.695 498.736 488.116 523.725C485.96 525.155 483.758 526.621 481.503 528.125C478.4 529.954 475.431 531.728 472.558 533.441C439.962 552.895 420.286 564.638 378.558 557.576C344.337 555.323 291.713 539.677 264.048 526.479C239.475 520.42 221.831 511.624 206.888 497.971Z" fill="#4CAF4F"/>
<path d="M475.099 262.578C451.476 240.995 425.468 230.163 399.889 231.251C382.538 229.838 364.965 231.885 346.361 234.053C319.071 234.917 284.561 243.146 251.662 256.632C227.296 263.241 200.109 272.127 183.045 287.975C167.838 301.658 159.025 321.95 156.855 348.287C152.521 387.477 164.198 433.283 188.089 470.827C194.279 480.495 200.983 488.571 208.585 495.517C224.228 509.809 242.992 518.732 269.423 524.444C296.371 535.841 343.784 549.052 376.554 551.449C418.456 558.326 439.769 547.201 475.081 528.769L476.362 528.101L477.359 527.504C516.156 504.271 539.575 490.248 547.788 460.662C557.167 437.067 551.248 410.059 544.634 391.553C535.268 346.103 514.412 304.155 485.901 273.404C482.396 269.567 478.763 265.926 475.099 262.578ZM208.287 495.829C200.651 488.852 193.92 480.742 187.706 471.034C163.758 433.404 152.054 387.486 156.397 348.206C158.58 321.768 167.433 301.39 182.715 287.638C199.842 271.73 227.087 262.825 251.479 256.21C284.398 242.714 318.963 234.474 346.286 233.609C364.894 231.44 382.488 229.391 399.856 230.806C425.541 229.711 451.671 240.591 475.396 262.267C479.071 265.625 482.716 269.278 486.23 273.125C514.802 303.94 535.699 345.972 545.073 391.474C551.704 410.019 557.644 437.137 548.226 460.834C539.976 490.551 516.506 504.605 477.624 527.888L476.616 528.49L475.324 529.165C439.932 547.64 418.572 558.789 376.541 551.891C343.74 549.489 296.259 536.263 269.317 524.863C242.841 519.146 224.003 510.187 208.287 495.829Z" fill="#4CAF4F"/>
<path d="M472.438 261.611C449.493 240.648 423.95 230.835 398.566 233.233C384.35 233.083 369.748 235.418 354.29 237.888C351.338 238.36 348.333 238.84 345.267 239.314C318.309 241.446 285.381 248.855 254.916 259.643C230.275 265.315 202.816 273.051 185.807 287.474C170.22 300.326 161.089 319.847 158.672 345.499C153.927 385.675 165.951 432.404 190.837 470.497C196.782 479.549 203.173 487.149 210.376 493.731C226.758 508.699 246.685 517.73 274.983 523.01C300.947 532.477 343.56 543.373 374.844 545.896C415.011 552.231 438.277 543.558 471.825 528.522C508.715 509.273 531.781 496.061 540.612 468.268C550.579 445.071 546.104 417.288 540.596 398.062C532.544 350.002 512.761 306.098 484.883 274.409C480.877 269.801 476.69 265.496 472.438 261.611ZM210.078 494.042C202.843 487.431 196.425 479.801 190.456 470.713C165.512 432.525 153.461 385.686 158.217 345.414C160.645 319.657 169.821 300.044 185.49 287.126C202.564 272.648 230.082 264.893 254.749 259.215C285.226 248.423 318.192 241.005 345.173 238.872C348.221 238.401 351.225 237.921 354.176 237.449C369.655 234.975 384.274 232.639 398.505 232.788C410.752 231.631 423.22 233.358 435.538 237.925C448.505 242.733 461.02 250.598 472.735 261.301C477.001 265.199 481.201 269.518 485.22 274.14C513.158 305.895 532.981 349.884 541.043 398.005C546.563 417.272 551.051 445.16 541.045 468.451C532.174 496.375 509.05 509.622 472.058 528.924C438.427 544 415.105 552.691 374.827 546.337C343.519 543.813 300.851 532.905 274.896 523.436C246.54 518.147 226.537 509.079 210.078 494.042Z" fill="#4CAF4F"/>
<path d="M469.608 260.983C447.18 240.491 421.959 231.583 396.675 235.224C384.644 235.958 372.359 238.559 359.351 241.311C354.267 242.387 349.01 243.499 343.573 244.544C323.641 247.119 292.545 252.332 257.525 262.558C231.332 267.495 204.785 273.85 187.904 286.838C171.936 298.842 162.499 317.599 159.857 342.584C154.728 383.768 167.147 431.45 193.083 470.138C198.725 478.517 205.009 485.895 211.76 492.063C228.887 507.711 249.977 516.834 280.141 521.645C302.991 528.561 340.944 537.644 372.815 540.505C410.487 546.198 434.986 540.916 467.024 529.175C503.89 513.227 524.244 500.642 533.164 476.126C543.684 453.345 540.638 424.76 536.229 404.789C529.471 354.111 510.708 308.209 483.39 275.519C478.988 270.206 474.35 265.316 469.608 260.983ZM211.463 492.374C204.682 486.179 198.371 478.77 192.706 470.357C180.675 452.41 171.178 431.639 165.24 410.29C158.787 387.083 156.769 363.639 159.401 342.496C162.055 317.398 171.543 298.55 187.602 286.477C204.548 273.44 231.152 267.069 257.377 262.127C292.404 251.897 323.524 246.68 343.46 244.104C348.878 243.063 354.134 241.95 359.216 240.876C372.239 238.12 384.54 235.516 396.586 234.781C408.786 233.024 421.152 234.223 433.323 238.349C446.142 242.695 458.449 250.205 469.905 260.672C474.665 265.021 479.318 269.928 483.736 275.258C511.112 308.019 529.913 354.007 536.68 404.752C541.098 424.77 544.153 453.454 533.589 476.321C529.167 488.485 521.59 498.245 509.753 507.02C497.86 515.833 482.289 523.075 467.231 529.589C435.112 541.359 410.556 546.652 372.799 540.945C340.908 538.084 302.915 528.993 280.076 522.075C249.84 517.258 228.669 508.094 211.463 492.374Z" fill="#4CAF4F"/>
<path d="M467.383 260.416C445.407 240.337 420.455 232.293 395.224 237.154C384.825 238.556 374.225 241.419 363.004 244.45C356.388 246.237 349.546 248.086 342.365 249.739C337.403 250.652 332.214 251.585 326.828 252.553C306.788 256.154 284.076 260.238 260.681 265.483C230.058 269.999 206.428 275.256 190.595 286.234C174.252 297.386 164.504 315.366 161.625 339.675C156.169 381.207 169.263 431.013 195.794 469.662C201.217 477.529 207.219 484.491 213.634 490.352C231.706 506.864 253.245 515.749 285.654 520.065C296.512 522.619 334.681 531.219 371.045 534.822C404.817 539.643 431.283 538.096 462.411 529.486C489.076 520.69 515.227 509.046 525.878 483.638C534.634 465.96 536.773 440.925 532.069 411.227C526.666 358 508.967 310.148 482.234 276.479C477.528 270.525 472.532 265.121 467.383 260.416ZM213.336 490.663C206.893 484.777 200.866 477.785 195.422 469.884C182.968 451.743 173.145 430.611 167.013 408.768C160.358 385.064 158.338 361.141 161.17 339.583C164.064 315.156 173.868 297.081 190.309 285.864C206.206 274.839 229.888 269.569 260.556 265.046C283.944 259.801 306.661 255.718 326.706 252.115C332.091 251.147 337.279 250.214 342.231 249.304C349.394 247.653 356.232 245.806 362.844 244.021C374.081 240.986 384.693 238.12 395.109 236.715C407.285 234.369 419.573 235.058 431.627 238.765C444.326 242.669 456.455 249.849 467.68 260.105C472.85 264.828 477.865 270.253 482.588 276.229C509.377 309.969 527.112 357.908 532.522 411.211C537.238 440.983 535.089 466.107 526.299 483.849C521.621 495.008 513.883 504.144 502.644 511.758C492.955 518.324 480.226 524.093 462.583 529.911C431.379 538.543 404.859 540.093 371.027 535.265C334.647 531.659 296.451 523.052 285.61 520.5C253.115 516.176 231.492 507.251 213.336 490.663Z" fill="#4CAF4F"/>
<path d="M465.302 259.984C443.991 240.513 418.546 233.076 393.656 239.043C384.518 240.963 375.206 244.062 365.346 247.344C357.568 249.932 349.524 252.609 340.986 254.904C320.018 259.997 295.341 263.664 269.216 267.547L263.588 268.384C237.431 271.17 210.44 274.797 192.971 285.623C176.238 295.923 166.172 313.145 163.053 336.809C157.189 379.344 170.661 430.132 198.211 469.354C203.429 476.761 209.172 483.345 215.28 488.925C238.906 510.511 266.798 516.096 290.964 518.711C305.831 521.128 335.738 525.728 369.157 529.388C396.538 533.027 426.219 535.625 457.771 530.047C489.711 523.369 509.047 511.077 518.618 491.361C527.923 473.789 531.056 449.044 527.935 417.806C523.898 361.996 507.246 312.149 481.049 277.445C476.102 270.885 470.804 265.011 465.302 259.984ZM214.983 489.236C208.848 483.631 203.08 477.018 197.839 469.583C170.225 430.265 156.72 379.353 162.599 336.712C165.733 312.925 175.862 295.606 192.7 285.24C210.245 274.369 237.29 270.733 263.487 267.942L269.107 267.106C295.222 263.226 319.888 259.56 340.832 254.472C349.354 252.183 357.391 249.508 365.163 246.921C375.035 243.637 384.359 240.533 393.515 238.609C405.701 235.688 417.955 235.887 429.935 239.202C442.558 242.697 454.558 249.583 465.6 259.672C471.124 264.719 476.444 270.618 481.41 277.203C507.661 311.982 524.348 361.918 528.393 417.81C531.521 449.125 528.372 473.95 519.034 491.587C509.407 511.414 489.98 523.776 457.898 530.483C426.279 536.074 396.555 533.475 369.141 529.83C335.718 526.167 305.801 521.567 290.944 519.152C266.707 516.531 238.72 510.924 214.983 489.236Z" fill="#4CAF4F"/>
<path d="M498.365 265.209C477.355 246.013 452.047 239.365 427.103 246.489C418.993 248.819 410.718 252.119 401.959 255.612C393.263 259.081 384.27 262.668 374.633 265.628C355.936 271.37 334.075 274.726 301.537 276.847C273.936 278.663 247.727 281.08 230.41 290.575C213.29 300.019 202.906 316.478 199.547 339.499C193.269 383.03 207.111 434.785 235.67 474.569C240.689 481.546 246.184 487.777 252.002 493.092C276.517 515.491 305.841 520.707 331.29 522.856C335.433 523.202 339.678 523.544 344.03 523.892C361.374 525.288 381.031 526.867 402.26 529.439C407.288 530.048 412.477 530.724 417.497 531.378C440.943 534.429 465.185 537.585 488.1 536.09C515.115 534.319 535.789 523.126 546.311 504.575C556.018 487.377 560.208 462.251 558.765 429.893C556.109 371.526 540.516 319.695 514.854 283.946C509.719 276.817 504.171 270.513 498.365 265.209ZM251.704 493.404C245.861 488.065 240.341 481.806 235.301 474.802C206.674 434.921 192.799 383.038 199.093 339.398C202.471 316.247 212.922 299.689 230.157 290.183C247.551 280.648 273.814 278.222 301.465 276.403C333.967 274.283 355.797 270.934 374.459 265.202C384.08 262.247 393.064 258.664 401.754 255.198C410.523 251.701 418.806 248.397 426.939 246.062C439.152 242.574 451.39 242.296 463.319 245.237C475.886 248.339 487.778 254.953 498.663 264.897C504.495 270.226 510.066 276.557 515.223 283.714C528 301.515 538.325 323.376 545.91 348.693C553.435 373.806 557.912 401.132 559.222 429.914C560.669 462.35 556.461 487.55 546.718 504.816C536.127 523.488 515.334 534.755 488.171 536.535C465.212 538.033 440.944 534.874 417.477 531.82C412.459 531.165 407.271 530.49 402.246 529.883C381.025 527.309 361.374 525.73 344.033 524.336C339.684 523.987 335.435 523.645 331.292 523.3C305.755 521.145 276.333 515.907 251.704 493.404Z" fill="#4CAF4F"/>
<path d="M459.193 263.2C438.275 244.089 413.615 237.278 389.753 244.025C381.3 246.41 372.823 249.819 363.85 253.429C355.862 256.641 347.602 259.964 338.739 262.81C334.579 264.13 330.11 265.368 325.455 266.488C310.017 270.202 292.315 272.724 268.057 274.667C241.462 276.838 216.203 279.571 199.444 289.047C182.897 298.448 172.828 314.527 169.514 336.838C165.677 362.553 169.174 390.559 179.623 417.825C186.169 435.365 195.499 452.525 206.607 467.455C211.46 474.066 216.758 480.01 222.352 485.121C237.383 498.854 255.219 507.48 278.481 512.263C284.864 513.557 291.755 514.583 299.545 515.397C305.665 516.075 311.942 516.727 318.588 517.419C333.484 518.972 350.366 520.729 368.26 523.081C371.185 523.474 374.128 523.878 377.088 524.285C397.216 527.05 418.032 529.91 438.136 529.846C442.911 529.833 447.534 529.656 451.875 529.317C477.995 527.328 498.083 516.267 508.439 498.174C518.084 481.276 522.367 456.832 521.172 425.525C520.536 404.514 517.406 383.181 511.869 362.117C508.092 347.421 503.153 333.088 497.189 319.519C491.188 305.902 484.351 293.947 475.667 281.896C470.557 274.81 465.014 268.519 459.193 263.2ZM222.055 485.431C216.436 480.298 211.114 474.329 206.243 467.692C195.108 452.728 185.756 435.523 179.196 417.945C168.719 390.606 165.213 362.524 169.06 336.735C172.392 314.298 182.529 298.122 199.187 288.657C216.022 279.138 241.332 276.398 267.979 274.223C292.213 272.281 309.894 269.762 325.307 266.055C329.952 264.937 334.411 263.703 338.561 262.386C347.41 259.544 355.662 256.225 363.642 253.015C372.627 249.4 381.113 245.988 389.59 243.597C413.614 236.804 438.44 243.656 459.49 262.889C465.338 268.232 470.903 274.548 476.034 281.661C484.738 293.743 491.593 305.728 497.608 319.377C503.583 332.969 508.529 347.325 512.313 362.046C517.857 383.141 520.993 404.508 521.631 425.551C522.829 456.935 518.526 481.451 508.845 498.418C498.419 516.628 478.215 527.762 451.952 529.762C447.599 530.101 442.965 530.279 438.181 530.29C418.043 530.356 397.212 527.494 377.064 524.726C374.105 524.319 371.162 523.914 368.238 523.523C350.351 521.171 334.2 519.489 318.579 517.861C311.934 517.17 305.657 516.518 299.536 515.84C291.73 515.024 284.826 513.996 278.429 512.698C255.071 507.896 237.159 499.231 222.055 485.431Z" fill="#4CAF4F"/>
<path d="M454.852 266.567C434.064 247.573 410.084 240.616 387.33 246.976C378.516 249.416 369.845 252.939 360.665 256.67C353.402 259.621 345.893 262.673 337.825 265.382C333.822 266.698 329.506 267.948 324.994 269.099C310.03 272.915 292.955 275.617 269.632 277.857C244.072 280.376 219.79 283.418 203.604 292.865C187.648 302.217 177.904 317.897 174.642 339.475C170.728 364.871 174.447 392.049 185.397 418.071C192.057 434.72 201.234 450.678 212.68 465.503C217.356 471.738 222.443 477.381 227.8 482.275C242.499 495.704 259.891 504.385 282.538 509.595C288.715 510.984 295.358 512.117 302.846 513.063C311.57 514.278 320.72 515.447 330.406 516.683C342.728 518.256 355.468 519.881 369.237 521.843L370.702 522.059C392.629 525.318 415.301 528.685 437.219 528.345C441.831 528.278 446.315 528.051 450.538 527.667C475.735 525.462 495.217 514.55 505.393 496.935C514.965 480.352 519.336 456.619 518.389 426.396C518.08 406.052 514.864 385.594 508.559 363.847C504.628 349.729 499.601 336.063 493.197 322.069C487.366 309.389 480.823 298.369 471.32 285.226C466.235 278.182 460.694 271.905 454.852 266.567ZM227.502 482.587C222.122 477.671 217.014 472.005 212.319 465.747C200.849 450.887 191.648 434.889 184.975 418.201C173.993 392.107 170.261 364.846 174.188 339.371C177.47 317.67 187.277 301.893 203.343 292.478C219.6 282.989 243.935 279.939 269.546 277.415C292.845 275.176 309.899 272.478 324.841 268.668C329.343 267.52 333.65 266.272 337.644 264.959C345.697 262.254 353.201 259.205 360.456 256.257C369.646 252.521 378.33 248.994 387.167 246.547C398.356 243.42 409.907 243.497 421.501 246.779C433.355 250.133 444.676 256.687 455.149 266.256C461.017 271.617 466.581 277.922 471.687 284.994C481.21 298.166 487.768 309.209 493.611 321.921C500.027 335.938 505.062 349.626 509 363.766C515.317 385.549 518.538 406.047 518.847 426.426C519.798 456.725 515.408 480.531 505.798 497.178C495.555 514.91 475.959 525.895 450.621 528.11C446.385 528.496 441.893 528.722 437.267 528.79C415.313 529.13 392.62 525.759 370.672 522.498L369.212 522.283C355.449 520.323 342.708 518.698 330.388 517.124C320.7 515.888 311.549 514.72 302.823 513.504C295.326 512.557 288.669 511.421 282.473 510.029C259.737 504.798 242.269 496.078 227.502 482.587Z" fill="#4CAF4F"/>
<path d="M450.458 269.886C430.078 251.265 406.136 243.965 384.77 249.856C375.553 252.354 366.677 256.005 357.279 259.87C350.739 262.561 343.979 265.341 336.708 267.894C332.849 269.206 328.678 270.47 324.311 271.65C309.8 275.569 293.329 278.447 270.903 280.982C246.341 283.84 223.001 287.185 207.364 296.615C191.978 305.924 182.551 321.228 179.344 342.1C175.356 367.211 179.314 393.603 190.793 418.425C197.464 433.951 206.764 449.197 218.432 463.746C222.932 469.61 227.81 474.953 232.932 479.632C247.33 492.787 264.32 501.55 286.4 507.213C292.388 508.698 298.794 509.947 305.983 511.026C318.469 513.152 331.996 515.179 346.316 517.327C353.978 518.474 361.9 519.661 370.159 520.938C391.613 524.453 414.393 527.834 436.351 527.213C440.823 527.095 445.17 526.818 449.276 526.39C473.588 523.978 492.489 513.201 502.494 496.042C512.002 479.754 516.458 456.697 515.743 427.512C515.734 407.626 512.432 387.996 505.348 365.729C501.333 352.412 496.072 338.994 489.26 324.701C482.846 311.319 476.236 301.323 466.984 288.576C461.905 281.552 456.345 275.264 450.458 269.886ZM232.635 479.943C227.491 475.244 222.594 469.877 218.077 463.993C206.385 449.414 197.063 434.13 190.375 418.569C178.86 393.67 174.888 367.189 178.891 341.993C182.116 321.001 191.606 305.603 207.098 296.231C222.805 286.758 246.197 283.402 270.807 280.539C293.212 278.007 309.664 275.133 324.15 271.221C328.51 270.042 332.671 268.781 336.521 267.473C343.779 264.923 350.535 262.146 357.068 259.459C366.479 255.587 375.368 251.931 384.609 249.426C406.135 243.491 430.245 250.834 450.756 269.575C456.668 274.976 462.251 281.291 467.351 288.343C476.618 301.111 483.242 311.13 489.673 324.545C496.495 338.861 501.766 352.301 505.784 365.636C512.883 387.946 516.192 407.619 516.2 427.547C516.921 456.806 512.444 479.934 502.897 496.288C492.823 513.56 473.813 524.409 449.364 526.834C445.25 527.262 440.889 527.539 436.406 527.658C414.407 528.28 391.601 524.896 370.126 521.377C361.87 520.102 353.948 518.914 346.287 517.765C331.964 515.62 318.436 513.591 305.951 511.464C298.748 510.383 292.327 509.131 286.324 507.643C264.157 501.959 247.098 493.158 232.635 479.943Z" fill="#4CAF4F"/>
<path d="M446.304 272.933C426.092 254.466 402.855 247.056 382.549 252.605C372.899 255.179 363.819 258.983 354.205 263.009C348.395 265.442 342.386 267.959 335.924 270.344C332.216 271.656 328.192 272.939 323.961 274.156C309.908 278.2 294.043 281.28 272.517 284.142C249.902 287.246 226.561 291.064 211.477 300.496C196.652 309.785 187.521 324.721 184.338 344.887C180.237 369.711 184.391 395.305 196.351 418.9C202.978 433.264 212.367 447.779 224.262 462.053C228.566 467.527 233.213 472.554 238.076 476.998C252.153 489.86 268.729 498.688 290.239 504.78C296.026 506.355 302.189 507.704 309.083 508.908C327.759 512.677 348.758 516.162 370.99 519.852C390.442 523.327 413.299 526.75 435.349 525.795C439.675 525.618 443.886 525.286 447.873 524.806C471.292 522.153 489.62 511.486 499.479 494.768C508.947 478.766 513.524 456.385 513.084 428.247C513.4 408.704 510.051 389.897 502.227 367.259C498.14 354.635 492.822 341.849 485.493 327.021C478.731 313.439 471.979 304.161 463.431 292.412L462.881 291.658C457.814 284.653 452.237 278.354 446.304 272.933ZM237.779 477.309C232.894 472.847 228.228 467.8 223.912 462.307C211.993 448.006 202.581 433.453 195.94 419.059C183.937 395.384 179.768 369.696 183.886 344.779C187.086 324.495 196.277 309.467 211.204 300.116C226.359 290.64 249.753 286.811 272.414 283.701C293.919 280.842 309.763 277.766 323.795 273.729C328.018 272.513 332.034 271.234 335.731 269.924C342.182 267.545 348.186 265.03 353.993 262.597C363.619 258.565 372.713 254.756 382.39 252.175C402.855 246.582 426.26 254.036 446.602 272.622C452.56 278.066 458.162 284.391 463.249 291.424L463.797 292.177C472.359 303.945 479.12 313.238 485.903 326.859C493.243 341.709 498.568 354.513 502.661 367.156C510.504 389.844 513.858 408.698 513.542 428.288C513.983 456.496 509.386 478.947 499.881 495.016C489.956 511.844 471.52 522.58 447.968 525.25C443.971 525.729 439.744 526.061 435.409 526.24C413.314 527.198 390.427 523.77 370.95 520.289C348.717 516.6 327.713 513.113 309.033 509.342C302.134 508.139 295.955 506.788 290.15 505.208C268.557 499.093 251.917 490.227 237.779 477.309Z" fill="#4CAF4F"/>
<path d="M441.976 276.311C421.937 258.002 399.42 250.467 380.196 255.636C370.093 258.27 360.83 262.22 351.023 266.403C345.95 268.566 340.706 270.804 335.069 272.98C331.459 274.306 327.693 275.563 323.555 276.827C309.982 280.967 294.737 284.218 274.128 287.368C252.502 290.788 230.171 294.916 215.649 304.325C201.412 313.561 192.61 328.1 189.491 347.536C185.323 372.046 189.713 396.824 202.19 419.194C208.847 432.556 218.084 445.962 230.435 460.187C234.533 465.266 238.941 469.966 243.537 474.166C257.316 486.755 273.494 495.679 294.45 502.249C300.038 503.923 305.959 505.383 312.549 506.717C328.715 510.553 347.101 514.277 372.171 518.792C397.229 523.704 417.088 525.521 434.667 524.508C438.843 524.282 442.917 523.9 446.78 523.376C469.284 520.523 487.006 510.008 496.688 493.767C505.948 478.297 510.733 456.015 510.524 429.334C511.276 404.978 504.816 384.39 499.105 369.177C493.807 354.001 486.998 340.125 481.658 329.732C475.643 318.124 469.677 310.048 462.769 300.7C461.446 298.91 460.082 297.063 458.666 295.124C453.59 288.122 447.975 281.792 441.976 276.311ZM243.239 474.477C238.624 470.26 234.199 465.541 230.089 460.45C217.717 446.197 208.458 432.757 201.786 419.369C189.263 396.915 184.853 372.034 189.037 347.428C192.177 327.876 201.038 313.245 215.373 303.948C229.963 294.495 252.343 290.357 274.014 286.928C294.604 283.781 309.829 280.535 323.382 276.401C327.512 275.141 331.271 273.886 334.871 272.562C340.497 270.39 345.739 268.155 350.807 265.993C360.63 261.803 369.907 257.846 380.04 255.206C399.42 249.993 422.104 257.572 442.273 276C448.298 281.504 453.937 287.86 459.031 294.89C460.447 296.828 461.811 298.673 463.131 300.462C470.053 309.829 476.03 317.917 482.063 329.562C487.411 339.97 494.23 353.865 499.536 369.064C505.26 384.312 511.735 404.951 510.982 429.379C511.193 456.13 506.388 478.482 497.089 494.015C487.346 510.365 469.514 520.95 446.883 523.817C443.01 524.341 438.923 524.725 434.735 524.954C417.115 525.966 397.221 524.15 372.124 519.227C347.047 514.713 328.656 510.989 312.487 507.151C305.891 505.817 299.955 504.352 294.351 502.674C273.316 496.078 257.076 487.119 243.239 474.477Z" fill="#4CAF4F"/>
<path d="M437.487 279.543C417.965 261.707 395.635 253.894 377.751 258.64C367.166 261.343 357.73 265.467 347.74 269.832C343.401 271.728 338.914 273.688 334.103 275.642C330.649 276.963 327.029 278.236 323.032 279.535C310.111 283.73 295.042 287.274 275.606 290.689C254.967 294.447 233.645 298.906 219.67 308.316C206.01 317.517 197.52 331.671 194.438 350.385C190.177 374.585 194.777 398.549 207.741 419.687C214.36 431.971 223.423 444.3 236.27 458.495C240.141 463.16 244.284 467.515 248.589 471.448C262.067 483.763 277.857 492.779 298.28 499.83C303.666 501.596 309.342 503.165 315.632 504.62C332.496 509.245 351.244 513.541 372.954 517.757C395.818 522.637 416.213 524.462 433.581 523.179C437.605 522.898 441.544 522.464 445.286 521.891C466.878 518.815 484.009 508.43 493.529 492.644C502.737 477.471 507.627 455.904 507.672 430.275C508.779 406.649 502.271 387.028 495.758 370.952C490.619 357.22 484.016 344.266 477.649 332.314C472.133 322.056 466.881 315.141 460.801 307.134C458.737 304.419 456.605 301.61 454.315 298.482C449.227 291.469 443.566 285.097 437.487 279.543ZM248.291 471.76C243.967 467.81 239.809 463.438 235.932 458.764C223.063 444.546 213.978 432.185 207.347 419.876C194.326 398.653 189.706 374.58 193.986 350.274C197.086 331.45 205.632 317.208 219.387 307.943C233.428 298.49 254.799 294.019 275.484 290.251C294.9 286.839 309.951 283.3 322.852 279.111C326.842 277.815 330.456 276.545 333.898 275.227C338.7 273.278 343.185 271.318 347.521 269.424C357.527 265.05 366.979 260.92 377.596 258.209C386.827 255.759 396.944 256.475 407.662 260.336C417.859 264.009 428.275 270.544 437.784 279.232C443.889 284.809 449.574 291.207 454.68 298.247C456.969 301.373 459.1 304.179 461.161 306.892C467.254 314.916 472.518 321.844 478.051 332.138C484.428 344.107 491.037 357.076 496.185 370.828C502.713 386.945 509.239 406.624 508.127 430.325C508.085 456.02 503.174 477.659 493.929 492.894C484.346 508.786 467.11 519.239 445.395 522.33C441.642 522.904 437.69 523.34 433.656 523.622C416.247 524.908 395.802 523.081 372.902 518.194C351.18 513.975 332.421 509.676 315.555 505.051C309.261 503.594 303.569 502.02 298.168 500.249C277.669 493.174 261.823 484.123 248.291 471.76Z" fill="#4CAF4F"/>
<path d="M433.05 282.822C413.769 265.205 392.207 257.313 375.372 261.709C364.279 264.477 355.132 268.587 344.54 273.344C340.923 274.969 337.182 276.651 333.186 278.353C329.876 279.676 326.4 280.962 322.555 282.29C310.106 286.589 295.666 290.321 277.112 294.037C257.452 298.122 237.132 302.899 223.697 312.312C210.608 321.479 202.433 335.25 199.401 353.246C195.056 377.145 199.88 400.308 213.351 420.228C221.692 434.49 233.15 447.311 242.2 456.89C245.824 461.124 249.679 465.116 253.671 468.763C266.88 480.831 282.32 489.975 302.263 497.546C307.45 499.411 312.886 501.089 318.876 502.671C336.112 508.088 354.119 512.743 373.938 516.906C395.176 521.845 415.503 523.628 432.729 522.066C436.607 521.731 440.409 521.245 444.034 520.626C464.718 517.341 481.264 507.087 490.621 491.755C502.187 472.954 504.845 448.569 505.043 431.428C506.483 408.376 499.913 389.677 492.601 372.903C487.409 359.973 481.013 348.109 473.796 335.048C468.609 325.749 463.83 319.68 458.295 312.652C455.712 309.372 453.041 305.98 450.09 301.961C444.97 294.914 439.236 288.474 433.05 282.822ZM253.375 469.073C249.367 465.411 245.496 461.405 241.868 457.166C232.807 447.576 221.324 434.726 212.965 420.433C199.434 400.423 194.583 377.146 198.948 353.133C201.999 335.03 210.229 321.171 223.408 311.943C236.907 302.485 257.275 297.694 276.979 293.6C295.515 289.889 309.937 286.161 322.367 281.87C326.207 280.543 329.677 279.259 332.975 277.942C336.963 276.243 340.703 274.562 344.318 272.938C354.928 268.171 364.09 264.054 375.219 261.279C392.208 256.84 413.939 264.778 433.348 282.511C439.56 288.187 445.316 294.652 450.456 301.727C453.402 305.738 456.07 309.125 458.65 312.402C464.199 319.448 468.989 325.532 474.194 334.864C481.421 347.942 487.823 359.82 493.023 372.769C500.355 389.59 506.945 408.349 505.5 431.484C505.305 448.669 502.632 473.128 491.022 492.009C481.602 507.442 464.956 517.761 444.151 521.066C440.514 521.688 436.698 522.172 432.811 522.51C415.538 524.076 395.158 522.288 373.875 517.338C354.047 513.175 336.025 508.516 318.782 503.096C312.79 501.513 307.34 499.832 302.135 497.961C282.126 490.365 266.633 481.186 253.375 469.073Z" fill="#4CAF4F"/>
<path d="M428.642 285.637C409.625 268.262 388.84 260.302 373.046 264.345C361.429 267.168 352.168 271.462 341.447 276.433C338.529 277.786 335.512 279.184 332.31 280.617C329.149 281.936 325.815 283.235 322.115 284.594C310.14 288.989 296.325 292.904 278.638 296.916C259.953 301.314 240.631 306.397 227.729 315.818C215.211 324.948 207.354 338.342 204.377 355.624C199.961 379.23 205.024 401.603 219.02 420.325C226.481 432.021 236.091 442.594 248.228 454.872C251.571 458.652 255.111 462.254 258.759 465.587C271.73 477.439 286.868 486.754 306.397 494.903C311.392 496.874 316.592 498.664 322.287 500.373C339.529 506.545 356.808 511.571 375.124 515.742C395.202 520.831 414.907 522.537 432.116 520.677C435.849 520.29 439.516 519.757 443.021 519.09C462.81 515.606 478.771 505.492 487.965 490.607C499.459 472.17 502.289 448.724 502.64 432.3C504.292 410.957 498.631 393.776 489.626 374.542C484.376 362.347 477.906 351.062 471.055 339.114L470.094 337.438C465.124 328.848 460.667 323.424 455.505 317.143C452.533 313.526 449.459 309.787 445.984 305.069C440.805 297.957 434.971 291.42 428.642 285.637ZM258.462 465.897C254.801 462.553 251.248 458.939 247.902 455.154C235.751 442.863 226.122 432.268 218.647 420.551C204.581 401.733 199.486 379.238 203.925 355.51C206.92 338.124 214.829 324.645 227.432 315.454C240.397 305.987 259.766 300.89 278.494 296.482C296.164 292.474 309.962 288.563 321.92 284.175C325.614 282.819 328.941 281.521 332.092 280.208C335.286 278.778 338.304 277.38 341.219 276.028C351.962 271.047 361.239 266.745 372.895 263.913C388.842 259.83 409.795 267.835 428.94 285.326C435.294 291.131 441.151 297.695 446.35 304.833C449.815 309.538 452.883 313.272 455.852 316.884C461.028 323.182 465.499 328.624 470.49 337.247L471.451 338.927C478.309 350.887 484.786 362.185 490.041 374.395C499.078 393.69 504.758 410.935 503.097 432.362C502.747 448.824 499.904 472.349 488.364 490.863C479.109 505.843 463.05 516.024 443.145 519.528C439.631 520.196 435.95 520.733 432.207 521.119C414.945 522.986 395.182 521.275 375.053 516.175C356.724 512 339.426 506.968 322.176 500.794C316.48 499.083 311.268 497.289 306.255 495.313C286.664 487.135 271.479 477.791 258.462 465.897Z" fill="#4CAF4F"/>
<path d="M423.95 288.685C405.291 271.637 385.349 263.672 370.606 267.383C358.486 270.259 349.166 274.751 338.375 279.95C336.127 281.033 333.799 282.155 331.352 283.309C328.337 284.626 325.151 285.941 321.602 287.331C310.12 291.826 296.943 295.935 280.132 300.259C262.444 304.983 244.137 310.384 231.768 319.826C219.826 328.924 212.283 341.931 209.349 358.484C204.841 381.776 210.112 403.33 224.592 420.82C232.291 431.851 242.083 441.592 254.084 453.182C257.089 456.461 260.252 459.617 263.494 462.579C276.23 474.216 291.085 483.718 310.245 492.482C315.041 494.552 319.994 496.449 325.382 498.275C342.39 505.149 358.918 510.522 375.915 514.705C394.634 519.851 414.205 521.497 431.032 519.346C434.615 518.905 438.146 518.319 441.525 517.603C460.394 513.907 475.763 503.922 484.801 489.491C496.234 471.425 499.256 448.937 499.777 433.253C501.736 412.323 495.794 395.364 486.27 376.337C481.362 365.67 475.448 355.759 469.186 345.266C468.158 343.541 467.121 341.804 466.079 340.046C461.266 332.013 456.843 326.875 452.16 321.437C448.896 317.646 445.521 313.728 441.628 308.456C436.383 301.262 430.436 294.611 423.95 288.685ZM263.195 462.891C259.943 459.92 256.771 456.75 253.766 453.471C241.755 441.873 231.945 432.115 224.232 421.063C209.672 403.475 204.364 381.79 208.898 358.368C211.849 341.714 219.443 328.625 231.466 319.465C243.893 309.979 262.244 304.564 279.977 299.828C296.771 295.508 309.934 291.405 321.399 286.916C324.941 285.527 328.124 284.215 331.128 282.902C333.568 281.752 335.894 280.63 338.142 279.547C348.955 274.337 358.294 269.838 370.456 266.95C385.353 263.202 405.462 271.211 424.248 288.374C430.758 294.323 436.729 301 441.993 308.219C445.874 313.474 449.242 317.387 452.499 321.169C457.197 326.625 461.635 331.779 466.469 339.85C467.513 341.609 468.548 343.345 469.577 345.069C475.846 355.575 481.769 365.498 486.683 376.179C496.239 395.272 502.202 412.3 500.232 433.319C499.711 449.042 496.678 471.606 485.199 489.748C476.101 504.273 460.639 514.321 441.659 518.04C438.27 518.759 434.726 519.346 431.13 519.786C414.245 521.946 394.609 520.295 375.833 515.134C358.82 510.947 342.272 505.566 325.256 498.689C319.867 496.862 314.901 494.963 310.086 492.883C290.871 484.095 275.972 474.565 263.195 462.891Z" fill="#4CAF4F"/>
<path d="M419.264 291.735C400.735 274.805 382.131 267.058 368.224 270.483C355.626 273.394 346.753 277.856 335.517 283.505C333.883 284.328 332.197 285.174 330.442 286.047C327.566 287.366 324.523 288.694 321.136 290.111C310.152 294.698 297.608 298.993 281.655 303.628C265.693 308.439 247.666 314.366 235.823 323.837C224.455 332.902 217.228 345.525 214.344 361.354C209.757 384.336 215.253 405.084 230.234 421.359C237.658 431.022 247.202 439.782 257.308 449.054L260.047 451.57C262.64 454.289 265.346 456.939 268.103 459.458C280.665 470.936 295.329 480.702 314.255 490.192C318.855 492.367 323.569 494.374 328.654 496.317C345.543 503.997 360.875 509.566 376.918 513.846C394.66 519.141 413.576 520.696 430.188 518.228C433.624 517.736 437.019 517.102 440.28 516.335C458.234 512.437 473.012 502.59 481.894 488.607C493.262 470.909 496.46 449.371 497.139 434.419C499.638 411.567 491.574 394.172 483.103 378.314C478.461 368.878 472.972 360.085 467.164 350.778C465.53 348.162 463.876 345.512 462.214 342.806C457.502 335.204 453.253 330.516 448.755 325.551C445.256 321.692 441.64 317.7 437.394 311.966C432.124 304.752 425.854 297.756 419.264 291.735ZM267.805 459.769C265.04 457.243 262.325 454.585 259.736 451.867L257.01 449.365C246.888 440.075 237.327 431.302 229.891 421.62C214.815 405.246 209.278 384.359 213.893 361.233C216.794 345.311 224.068 332.61 235.513 323.483C247.412 313.968 265.482 308.024 281.487 303.201C297.426 298.569 309.956 294.28 320.922 289.699C324.307 288.285 327.345 286.959 330.209 285.644C331.959 284.775 333.644 283.928 335.278 283.106C346.538 277.445 355.432 272.972 368.076 270.05C382.139 266.589 400.905 274.378 419.561 291.424C426.177 297.468 432.47 304.491 437.759 311.73C441.988 317.441 445.597 321.424 449.088 325.277C453.602 330.257 457.864 334.962 462.601 342.604C464.264 345.311 465.916 347.959 467.549 350.573C473.366 359.893 478.861 368.696 483.507 378.143C492.011 394.061 500.107 411.528 497.596 434.493C496.915 449.482 493.704 471.094 482.288 488.866C473.351 502.938 458.481 512.847 440.421 516.771C437.15 517.537 433.744 518.177 430.296 518.668C413.62 521.147 394.631 519.586 376.828 514.275C360.764 509.987 345.407 504.411 328.507 496.725C323.424 494.779 318.7 492.77 314.081 490.585C295.106 481.071 280.405 471.281 267.805 459.769Z" fill="#4CAF4F"/>
<path d="M414.614 294.332C396.596 277.869 378.883 270.21 366.019 273.321C352.995 276.264 344.625 280.685 333.041 286.807C331.951 287.382 330.834 287.972 329.682 288.578C326.94 289.905 324.041 291.252 320.812 292.697C310.339 297.383 298.421 301.882 283.3 306.861C264.667 313.216 250.162 319.207 239.962 327.779C229.152 336.836 222.224 349.086 219.37 364.193C214.67 386.878 220.358 406.821 235.819 421.866C239.085 425.703 242.944 429.627 247.983 434.232C251.634 437.567 255.442 440.845 259.475 444.315C261.594 446.141 263.745 447.993 265.915 449.889C267.959 451.946 270.075 453.975 272.212 455.928C284.826 467.452 298.982 477.271 318.117 487.768C322.463 490.019 327.058 492.187 331.771 494.211C348.205 502.572 362.809 508.47 377.742 512.777C394.569 518.204 412.828 519.641 429.167 516.828C432.467 516.279 435.727 515.585 438.856 514.769C455.902 510.65 470.105 500.917 478.854 487.36C490.191 470.004 493.594 449.408 494.453 435.187C497.296 412.697 489.221 396.2 479.962 379.893C475.556 371.485 470.421 363.634 464.984 355.32C462.846 352.048 460.632 348.664 458.431 345.191C453.789 337.94 449.673 333.638 445.317 329.085C441.63 325.231 437.82 321.249 433.283 315.129C427.887 307.752 421.433 300.562 414.614 294.332ZM247.686 434.544C242.63 429.924 238.756 425.985 235.492 422.148C219.926 406.999 214.187 386.912 218.92 364.073C221.791 348.876 228.764 336.547 239.644 327.433C249.896 318.819 264.436 312.81 283.117 306.438C298.226 301.464 310.132 296.97 320.589 292.29C323.814 290.847 326.711 289.502 329.443 288.179C330.587 287.577 331.706 286.986 332.796 286.41C344.409 280.275 352.8 275.843 365.875 272.888C378.892 269.74 396.767 277.443 414.912 294.02C421.755 300.273 428.233 307.49 433.647 314.892C438.165 320.985 441.963 324.956 445.638 328.797C450.012 333.37 454.145 337.688 458.814 344.983C461.015 348.454 463.227 351.836 465.365 355.105C470.809 363.43 475.95 371.292 480.363 379.714C489.659 396.084 497.769 412.657 494.911 435.267C494.047 449.522 490.631 470.192 479.248 487.621C470.443 501.261 456.154 511.058 439.008 515.202C435.869 516.02 432.597 516.716 429.283 517.266C412.874 520.092 394.534 518.648 377.64 513.199C362.683 508.886 348.052 502.979 331.603 494.61C326.894 492.588 322.289 490.415 317.926 488.155C298.749 477.634 284.561 467.792 271.915 456.238C269.771 454.279 267.65 452.246 265.613 450.195C263.457 448.312 261.307 446.46 259.188 444.637C255.153 441.164 251.342 437.884 247.686 434.544Z" fill="#4CAF4F"/>
<path d="M241.448 422.053C243.102 423.795 244.883 425.532 246.905 427.38C251.589 431.659 256.77 435.789 262.254 440.162C265.388 442.662 268.632 445.246 271.894 447.952C273.153 449.16 274.434 450.359 275.716 451.531C288.358 463.082 302.69 473.467 322.18 485.203C326.347 487.572 330.695 489.858 335.104 491.994C351.267 501.196 364.746 507.273 378.826 511.7C394.801 517.305 412.404 518.671 428.402 515.549C431.557 514.954 434.679 514.215 437.684 513.354C454.034 508.999 467.277 499.672 475.982 486.377C487.243 469.4 490.795 449.769 491.794 436.289C494.918 414.152 486.809 398.517 476.706 381.804C472.474 374.252 467.608 367.188 462.461 359.711C459.841 355.907 457.135 351.974 454.44 347.87C449.82 340.895 445.791 336.923 441.527 332.718C437.676 328.923 433.695 324.998 428.888 318.536C423.309 310.933 416.604 303.482 409.499 296.99C392.044 281.042 375.254 273.485 363.434 276.255C350.08 279.17 342.296 283.493 330.514 290.037L328.592 291.105C325.98 292.437 323.227 293.794 320.169 295.254C310.111 300.06 299.164 304.595 284.673 309.96C267.236 316.641 253.627 322.856 243.893 331.469C233.667 340.482 227.072 352.338 224.289 366.706C219.668 388.458 225.178 407.217 240.224 420.963C240.625 421.33 241.033 421.695 241.448 422.053ZM246.607 427.691C244.576 425.835 242.788 424.089 241.142 422.356C240.744 422.01 240.331 421.644 239.927 421.274C224.747 407.405 219.183 388.494 223.838 366.583C226.638 352.13 233.275 340.201 243.568 331.127C253.348 322.474 266.992 316.241 284.474 309.542C298.955 304.182 309.891 299.651 319.938 294.852C322.992 293.392 325.742 292.038 328.345 290.71L330.261 289.645C342.075 283.084 349.88 278.749 363.292 275.822C375.265 273.014 392.216 280.617 409.796 296.679C416.926 303.194 423.654 310.669 429.252 318.3C434.035 324.728 438.002 328.639 441.837 332.42C446.123 336.646 450.169 340.635 454.819 347.655C457.51 351.755 460.216 355.684 462.835 359.488C467.99 366.975 472.86 374.05 477.099 381.613C486.87 397.778 495.387 414.136 492.248 436.375C491.247 449.888 487.681 469.592 476.375 486.642C467.616 500.018 454.291 509.402 437.847 513.783C434.833 514.647 431.697 515.389 428.531 515.987C412.454 519.123 394.762 517.75 378.713 512.12C364.607 507.685 351.095 501.594 334.918 492.381C330.511 490.248 326.152 487.956 321.973 485.579C302.444 473.821 288.088 463.417 275.419 451.842C274.134 450.668 272.85 449.465 271.601 448.267C268.357 445.576 265.117 442.994 261.983 440.496C256.491 436.118 251.305 431.982 246.607 427.691Z" fill="#4CAF4F"/>
<path d="M404.649 299.404C387.89 284.091 372.085 276.721 361.288 279.181C347.697 282.061 340.551 286.258 328.716 293.21L327.906 293.687C325.412 295.035 322.802 296.406 319.922 297.883C310.449 302.737 300.112 307.459 286.407 313.193C272.346 319.271 257.978 326.164 248.139 335.369C238.477 344.369 232.193 355.845 229.455 369.484C225.024 389.685 229.87 406.929 243.471 419.356C244.656 420.439 245.923 421.499 247.237 422.506C247.501 422.752 247.747 422.978 247.997 423.206C253.15 427.914 259.181 432.307 265.567 436.957C269.604 439.896 273.777 442.934 278 446.247C294.36 461.157 311.611 473.094 326.327 482.809C330.313 485.298 334.414 487.697 338.515 489.93C349.026 496.602 363.225 504.99 379.966 510.72C394.912 516.398 412.309 517.697 427.705 514.29C430.715 513.641 433.702 512.85 436.582 511.938C451.998 507.389 464.671 498.185 473.24 485.323C484.46 468.692 488.192 450.009 489.346 437.265C492.779 415.476 484.313 400.064 473.748 383.583C469.678 376.771 465.051 370.39 460.153 363.635C457.097 359.42 453.938 355.062 450.8 350.434C446.189 343.693 442.226 340.018 438.03 336.128C434.046 332.434 429.924 328.612 424.884 321.855C419.158 314.067 411.972 306.095 404.649 299.404ZM243.174 419.667C229.438 407.117 224.54 389.719 229.007 369.357C231.758 355.641 238.083 344.092 247.806 335.034C257.69 325.79 272.094 318.877 286.191 312.782C299.89 307.052 310.218 302.334 319.681 297.484C322.557 296.01 325.164 294.64 327.649 293.296L328.453 292.824C340.326 285.85 347.492 281.64 361.15 278.748C372.098 276.252 388.063 283.667 404.946 299.093C412.294 305.806 419.503 313.804 425.248 321.617C430.257 328.335 434.361 332.14 438.33 335.82C442.548 339.73 446.53 343.424 451.176 350.214C454.309 354.836 457.465 359.189 460.52 363.401C465.424 370.165 470.056 376.554 474.136 383.379C484.748 399.935 493.255 415.429 489.803 437.358C488.645 450.136 484.898 468.888 473.628 485.588C465.01 498.527 452.259 507.786 436.755 512.365C433.866 513.278 430.866 514.074 427.841 514.723C412.362 518.153 394.866 516.844 379.842 511.135C363.058 505.392 348.826 496.984 338.303 490.304C334.21 488.076 330.101 485.673 326.101 483.174C311.362 473.445 294.09 461.492 277.718 446.572C273.516 443.277 269.347 440.24 265.315 437.305C258.607 432.421 252.291 427.82 246.954 422.829C245.65 421.829 244.37 420.76 243.174 419.667Z" fill="#4CAF4F"/>
<path d="M399.122 301.686C389.756 293.129 372.044 279.216 358.645 282.175C344.932 284.989 338.48 289.008 326.766 296.304C324.333 297.705 321.869 299.09 319.19 300.566C307.922 306.771 296.423 312.326 287.664 316.475C274.648 322.828 261.306 329.993 251.924 339.302C242.828 348.291 236.855 359.386 234.172 372.282C229.918 391.075 234.177 406.952 246.489 418.201C248.334 419.887 250.381 421.492 252.576 422.969C257.352 426.889 262.877 430.508 268.728 434.341C273.566 437.509 278.568 440.787 283.652 444.548C297.692 456.622 312.338 467.618 330.012 480.418C333.826 483.039 337.679 485.547 341.46 487.867C352.206 495.466 365.252 503.995 380.632 509.739C394.816 515.581 411.538 516.78 426.518 513.035C429.383 512.336 432.235 511.494 434.993 510.531C449.459 505.795 461.56 496.721 469.993 484.286C481.178 468.004 485.082 450.28 486.388 438.276C490.121 416.79 481.688 402.223 470.277 385.412C466.342 379.24 461.92 373.457 457.237 367.332C453.774 362.804 450.193 358.121 446.645 353.056C443.036 347.94 439.878 344.812 437.266 342.427C436.167 341.422 435.097 340.492 433.963 339.505C432.841 338.53 431.676 337.519 430.497 336.442C427.927 334.093 424.453 330.697 420.369 325.234C414.349 317.066 406.802 308.704 399.122 301.686ZM246.191 418.513C233.743 407.139 229.432 391.11 233.725 372.152C236.385 359.365 242.56 347.892 251.582 338.976C261.006 329.626 274.381 322.442 287.432 316.072C296.188 311.926 307.677 306.375 318.938 300.173C321.614 298.7 324.077 297.316 326.466 295.94C338.248 288.6 344.724 284.568 358.508 281.739C372.116 278.735 389.981 292.752 399.419 301.375C407.124 308.415 414.693 316.804 420.733 324.997C424.79 330.424 428.239 333.797 430.794 336.131C431.969 337.205 433.129 338.211 434.251 339.186C435.336 340.13 436.46 341.106 437.564 342.115C440.196 344.52 443.376 347.671 447.016 352.829C450.557 357.886 454.135 362.566 457.597 367.091C462.285 373.22 466.715 379.013 470.656 385.198C482.125 402.091 490.6 416.74 486.843 438.377C485.534 450.412 481.611 468.206 470.382 484.556C461.9 497.062 449.727 506.192 435.176 510.953C432.411 511.921 429.547 512.765 426.668 513.467C411.594 517.236 394.764 516.028 380.496 510.148C365.065 504.388 351.986 495.835 341.228 488.229C337.45 485.913 333.593 483.398 329.767 480.77C312.075 467.958 297.42 456.953 283.381 444.882C278.324 441.141 273.328 437.868 268.496 434.703C262.634 430.862 257.095 427.236 252.319 423.312C250.124 421.835 248.055 420.216 246.191 418.513Z" fill="#4CAF4F"/>
<path d="M393.741 303.615C378.525 289.712 365.222 283.103 356.283 285.005C342.556 287.726 336.608 291.664 325.812 298.81C323.481 300.243 321.158 301.644 318.706 303.098C308.658 309.058 298.56 314.559 289.143 319.616C277.738 325.913 264.867 333.633 255.895 343.119C247.475 351.983 241.655 363.004 239.062 374.992C234.91 392.774 238.553 407.039 249.887 417.395C252.286 419.587 255.054 421.605 258.114 423.395C262.383 426.428 267.219 429.229 272.341 432.194C277.91 435.418 283.669 438.753 289.539 442.837C298.082 449.716 306.603 456.432 315.626 463.543C321.606 468.253 327.786 473.124 333.985 478.055C337.644 480.833 341.252 483.454 344.705 485.847C355.542 494.373 367.506 503.049 381.64 508.824C395.105 514.841 411.17 515.944 425.717 511.856C428.446 511.106 431.163 510.213 433.795 509.198C447.318 504.286 458.861 495.331 467.173 483.305C478.337 467.345 482.414 450.566 483.866 439.298C487.897 418.079 479.506 404.319 467.216 387.197C463.403 381.584 459.15 376.32 454.649 370.748C450.795 365.976 446.808 361.041 442.871 355.597C440.427 352.237 437.958 349.459 435.107 346.854C433.464 345.353 431.886 344.072 430.216 342.717C428.545 341.362 426.815 339.959 425.015 338.315C421.861 335.433 419.061 332.316 416.208 328.504C409.888 319.958 401.7 310.886 393.741 303.615ZM249.589 417.707C238.115 407.223 234.424 392.807 238.616 374.859C241.221 362.804 247.077 351.717 255.545 342.801C264.554 333.274 277.458 325.536 288.894 319.221C298.306 314.167 308.401 308.669 318.442 302.713C320.893 301.259 323.214 299.859 325.536 298.433C336.372 291.259 342.343 287.306 356.15 284.569C365.24 282.634 378.698 289.287 394.039 303.304C402.02 310.596 410.233 319.695 416.571 328.266C419.405 332.049 422.182 335.144 425.312 338.004C427.099 339.637 428.823 341.035 430.49 342.386C432.166 343.746 433.751 345.031 435.405 346.542C438.283 349.171 440.771 351.974 443.237 355.363C447.167 360.796 451.149 365.726 454.998 370.491C459.508 376.074 463.766 381.345 467.589 386.97C479.944 404.183 488.38 418.024 484.319 439.406C482.861 450.705 478.769 467.551 467.558 483.575C459.199 495.671 447.592 504.675 433.992 509.616C431.351 510.634 428.621 511.532 425.881 512.288C411.23 516.401 395.05 515.289 381.488 509.232C367.304 503.433 355.304 494.732 344.449 486.193C341.003 483.806 337.39 481.18 333.719 478.394C327.516 473.458 321.333 468.587 315.359 463.879C306.334 456.767 297.81 450.051 289.28 443.18C283.443 439.12 277.694 435.791 272.134 432.571C267.002 429.599 262.155 426.793 257.885 423.759C254.813 421.964 252.016 419.924 249.589 417.707Z" fill="#4CAF4F"/>
</g>
</svg>
