<svg width="740" height="774" viewBox="0 0 740 774" fill="none" xmlns="http://www.w3.org/2000/svg">
<g opacity="0.8">
<path d="M338.301 179.068C351.063 167.407 361.351 160.204 371.66 155.714C411.511 139.201 474.242 161.51 531.472 212.552C559.892 238.276 581.029 267.438 592.595 296.885C602.523 322.686 606.4 352.751 604.797 391.501C603.533 418.12 598.303 445.161 588.34 476.6C578.126 508.377 566.237 529.85 549.79 546.221C549.035 546.957 548.269 547.681 547.445 548.434C527.944 566.251 490.269 587.5 446.664 605.273C402.346 623.337 360.235 634.229 334.018 634.408C274.326 646.715 258.125 620.195 233.599 580.054C222.721 562.248 210.39 542.068 191.987 520.883C178.704 505.597 166.644 492.129 156.003 480.245C104.903 423.18 81.5786 397.137 80.9154 345.437C81.0554 333.169 86.4073 322.123 96.8185 312.611C105.025 305.112 116.444 298.499 130.758 292.953C143.781 287.962 157.988 283.607 173.029 278.997C192.812 272.934 213.268 266.665 233.95 258.106C258.479 247.83 281.548 232.651 304.476 211.703C307.879 208.594 311.381 205.263 314.885 201.806C316.459 200.251 318.017 198.706 319.561 197.176C326.04 190.749 332.159 184.679 338.301 179.068ZM547.741 548.743C548.569 547.988 549.34 547.26 550.102 546.519C566.611 530.086 578.537 508.552 588.776 476.695C598.753 445.217 603.988 418.139 605.256 391.48C606.861 352.669 602.975 322.552 593.026 296.696C581.437 267.189 560.264 237.976 531.798 212.213C474.446 161.061 411.529 138.724 371.51 155.308C361.142 159.824 350.81 167.056 338.004 178.756C331.854 184.375 325.731 190.448 319.248 196.879C317.705 198.41 316.148 199.955 314.574 201.509C311.074 204.961 307.577 208.287 304.179 211.392C281.295 232.3 258.276 247.447 233.801 257.701C213.144 266.247 192.702 272.513 172.928 278.574C157.879 283.185 143.665 287.542 130.625 292.541C116.248 298.111 104.775 304.758 96.5212 312.299C86.0042 321.908 80.6003 333.07 80.4579 345.478C80.78 370.617 86.2977 390.157 98.9123 410.816C111.158 430.875 129.819 451.713 155.645 480.555C166.285 492.437 178.346 505.904 191.625 521.19C210.007 542.347 222.329 562.515 233.2 580.308C245.858 601.026 255.856 617.392 270.457 627.48C286.241 638.389 305.847 640.66 334.028 634.847C360.254 634.675 402.433 623.768 446.809 605.682C490.466 587.885 528.198 566.6 547.741 548.743Z" fill="#4CAF4F"/>
<path d="M544.418 544.819C543.964 545.251 543.509 545.673 543.036 546.104C524.4 563.131 488.021 583.516 445.722 600.626C402.677 618.043 361.657 628.578 335.991 628.808C277.917 640.67 261.665 615.2 237.066 576.643C226.428 559.972 214.371 541.075 196.755 521.251C183.953 506.765 172.298 493.969 162.016 482.679C112.137 427.911 89.3714 402.914 88.2654 352.987C88.1002 339.967 93.7042 328.167 104.927 317.913C112.453 311.037 122.555 304.818 134.953 299.432C149.772 292.295 166.429 286.065 184.065 279.472C200.636 273.276 217.773 266.868 235.135 259.08C270.989 242.723 298.665 219.684 316.364 203.777L319.425 200.91C323.142 197.429 326.654 194.141 330.188 190.912C345.223 177.175 358.236 166.828 372.882 160.98C411.728 145.674 472.748 167.112 528.335 215.598C556.94 240.26 578.258 268.206 589.986 296.412C600.29 321.506 604.479 350.841 603.167 388.73C602.274 416.405 596.749 444.233 585.776 476.302C574.973 507.426 562.277 528.503 544.611 544.643L544.418 544.819ZM543.334 546.416C543.809 545.983 544.267 545.558 544.717 545.126L544.909 544.954C562.64 528.754 575.378 507.613 586.209 476.407C597.197 444.293 602.731 416.425 603.627 388.705C604.939 350.755 600.741 321.365 590.414 296.215C578.663 267.952 557.308 239.956 528.657 215.254C472.952 166.664 411.751 145.199 372.742 160.57C358.024 166.448 344.966 176.825 329.89 190.6C326.353 193.831 322.842 197.121 319.123 200.603L316.065 203.466C298.395 219.347 270.761 242.352 234.975 258.68C217.628 266.459 200.499 272.865 183.935 279.059C166.289 285.656 149.621 291.888 134.793 299.031C122.35 304.437 112.199 310.687 104.63 317.603C93.3011 327.953 87.6393 339.875 87.81 353.034C88.916 403.116 111.713 428.147 161.661 482.991C171.942 494.281 183.595 507.075 196.398 521.56C213.993 541.36 226.041 560.244 236.67 576.902C249.367 596.803 259.396 612.522 273.816 622.208C289.404 632.68 308.584 634.85 335.999 629.249C361.676 629.022 402.767 618.472 445.864 601.036C488.217 583.903 524.655 563.483 543.334 546.416Z" fill="#4CAF4F"/>
<path d="M113.147 323.113C119.929 316.917 128.687 311.183 139.175 306.071C156.014 296.126 175.66 287.472 196.46 278.311C209.441 272.592 222.865 266.68 236.449 260.091C269.719 243.614 296.382 223.335 318.077 205.671L319.303 204.591C338.429 187.732 354.947 173.172 374.422 166.089C412.308 151.937 471.626 172.446 525.546 218.342C554.741 242.254 575.641 268.247 587.667 295.603C598.182 319.643 602.78 349.096 601.73 385.646C601.192 413.998 595.161 443.469 583.291 475.745C571.915 506.249 557.977 527.49 539.024 543.237L538.618 543.609C520.82 559.871 485.692 579.432 444.656 595.935C402.837 612.751 362.863 622.977 337.724 623.291C281.21 634.781 264.914 610.363 240.249 573.401C229.882 557.868 218.131 540.263 201.331 521.808C189.035 508.149 177.81 496.047 167.907 485.369C119.25 432.907 97.0424 408.964 95.5536 360.77C95.0498 346.91 100.969 334.24 113.147 323.113ZM543.595 539.822C560.435 524.436 573.185 504.111 583.72 475.861C595.609 443.535 601.649 414.016 602.188 385.618C603.242 349.005 598.63 319.494 588.091 295.397C576.041 267.984 555.103 241.941 525.864 217.994C499.267 195.355 470.981 178.478 444.066 169.185C417.147 159.893 393.02 158.679 374.295 165.675C354.73 172.791 338.179 187.38 319.012 204.274L317.795 205.347C296.13 222.986 269.495 243.244 236.273 259.698C222.701 266.279 209.281 272.191 196.302 277.907C175.489 287.076 155.828 295.736 138.983 305.686C128.465 310.811 119.669 316.571 112.85 322.802C100.558 334.032 94.5848 346.825 95.0953 360.825C96.5893 409.169 118.828 433.147 167.555 485.682C177.456 496.36 188.681 508.461 200.975 522.12C217.756 540.552 229.499 558.144 239.855 573.667C252.588 592.744 262.642 607.81 276.887 617.081C292.287 627.107 311.052 629.157 337.733 623.732C362.883 623.422 402.924 613.182 444.798 596.342C485.889 579.82 521.074 560.221 538.916 543.92L539.314 543.555C540.757 542.354 542.201 541.096 543.595 539.822Z" fill="#4CAF4F"/>
<path d="M121.824 327.909C127.745 322.499 135.089 317.387 143.649 312.719C162.721 299.167 186.017 287.467 210.682 275.079C219.525 270.638 228.669 266.046 237.87 261.242C271.147 243.454 299.243 222.864 319.759 207.83C338.234 192.561 355.673 178.147 375.83 171.551C393.992 165.168 417.319 166.464 443.295 175.296C469.323 184.148 496.713 200.13 522.505 221.515C551.88 244.32 572.939 269.111 585.095 295.202C595.976 318.507 600.885 347.193 600.106 382.897C599.943 412.275 593.602 442.537 580.721 475.415C570.493 501.169 558.28 519.97 542.285 534.583C539.543 537.089 536.641 539.509 533.658 541.775C516.428 557.232 482.603 575.807 443.154 591.481C402.259 607.729 364.581 617.265 339.78 617.641C284.88 628.698 268.521 605.344 243.759 569.994C233.679 555.605 222.254 539.294 206.284 522.213C194.519 509.404 183.742 498.015 174.234 487.964C126.769 437.795 105.105 414.899 103.191 368.469C102.282 353.68 108.553 340.035 121.824 327.909ZM542.583 534.895C558.636 520.227 570.889 501.367 581.148 475.542C594.05 442.608 600.401 412.293 600.564 382.862C601.345 347.096 596.422 318.351 585.516 294.989C573.332 268.84 552.236 244.001 522.815 221.163C496.991 199.75 469.556 183.742 443.48 174.875C417.407 166.009 393.975 164.715 375.715 171.132C355.471 177.757 337.995 192.201 319.493 207.493C299.002 222.509 270.922 243.085 237.68 260.856C228.487 265.655 219.344 270.247 210.501 274.688C185.819 287.084 162.505 298.795 143.429 312.35C134.857 317.025 127.479 322.16 121.527 327.598C108.141 339.829 101.816 353.601 102.732 368.531C104.656 415.107 126.35 438.039 173.884 488.282C183.392 498.33 194.167 509.719 205.932 522.526C221.883 539.59 233.299 555.887 243.373 570.267C256.153 588.509 266.247 602.921 280.317 611.781C295.528 621.361 313.871 623.303 339.788 618.081C364.603 617.709 402.346 608.16 443.295 591.89C482.792 576.197 516.679 557.582 533.936 542.103C536.913 539.84 539.829 537.411 542.583 534.895Z" fill="#4CAF4F"/>
<path d="M130.196 331.993C135.135 327.48 141.005 323.138 147.647 319.082C169.265 300.84 197.196 285.298 226.762 268.847C230.777 266.613 234.827 264.36 238.907 262.074C263.546 247.914 285.362 233.388 304.61 220.571C310.4 216.715 315.87 213.074 321.136 209.627C340.95 194.361 357.632 182.242 376.994 176.618C394.717 170.806 417.384 172.189 442.549 180.614C467.774 189.061 494.351 204.199 519.408 224.394C549.014 246.122 570.26 269.745 582.561 294.614C593.824 317.203 599.057 345.157 598.556 380.071C598.782 410.091 591.942 442.066 578.231 475.116C568.339 498.65 556.672 516.06 541.52 529.904C537.422 533.649 532.984 537.182 528.334 540.41C511.472 555.054 478.901 572.589 441.183 587.333C401.953 602.667 365.679 611.71 341.663 612.139C288.295 622.764 271.828 600.442 246.904 566.651C237.119 553.383 226.027 538.347 210.884 522.611C199.657 510.658 189.336 499.98 180.227 490.561C133.844 442.585 112.677 420.689 110.312 375.948C108.935 360.092 115.625 345.306 130.196 331.993ZM541.818 530.216C557.028 516.32 568.731 498.855 578.653 475.249C592.39 442.143 599.239 410.106 599.014 380.032C599.517 345.056 594.271 317.041 582.976 294.392C570.647 269.468 549.363 245.796 519.711 224.035C494.626 203.816 468.003 188.654 442.732 180.193C417.473 171.736 394.706 170.353 376.893 176.196C357.452 181.842 340.728 193.987 320.889 209.277C315.638 212.713 310.167 216.354 304.375 220.211C285.134 233.023 263.325 247.544 238.703 261.695C234.627 263.977 230.577 266.231 226.564 268.465C196.974 284.929 169.023 300.483 147.396 318.735C140.76 322.782 134.862 327.147 129.898 331.682C115.209 345.103 108.466 360.019 109.855 376.017C112.225 420.903 133.428 442.831 179.882 490.878C188.988 500.299 199.31 510.974 210.535 522.927C225.661 538.648 236.746 553.673 246.522 566.931C259.387 584.37 269.548 598.144 283.473 606.607C298.529 615.756 316.477 617.6 341.672 612.579C365.703 612.153 402.036 603.099 441.319 587.744C479.089 572.979 511.716 555.411 528.6 540.748C533.248 537.525 537.704 533.975 541.818 530.216Z" fill="#4CAF4F"/>
<path d="M158.104 320.114C180.054 300.06 208.308 282.54 240.284 263.346C253.246 255.353 265.396 247.615 277.145 240.131C293.607 229.645 309.159 219.741 322.897 211.779C341.502 198.494 358.518 187.091 378.567 181.983C395.853 176.72 417.846 178.156 442.179 186.136C466.577 194.135 492.307 208.383 516.589 227.339C546.389 247.926 567.78 270.338 580.174 293.96C591.786 315.794 597.298 342.99 597.022 377.101C597.593 408.154 590.394 440.969 575.624 474.644C566.203 495.851 554.773 512.42 540.683 525.294C535.257 530.25 529.246 534.83 522.816 538.905C489.389 566.935 394.55 605.576 343.329 606.711C291.478 616.977 274.92 595.72 249.856 563.544C240.416 551.421 229.714 537.683 215.452 523.324C204.818 512.273 194.993 502.351 186.326 493.596C141.065 447.884 120.407 427.021 117.664 383.974C115.759 366.924 122.972 350.813 139.095 336.083C142.894 332.611 147.216 329.212 151.938 325.979C153.922 324.014 155.985 322.05 158.104 320.114ZM540.98 525.605C555.124 512.683 566.592 496.059 576.042 474.786C590.84 441.049 598.053 408.169 597.48 377.058C597.757 342.881 592.231 315.623 580.585 293.729C568.162 270.05 546.73 247.591 516.885 226.975C492.577 207.998 466.804 193.727 442.36 185.712C417.939 177.704 395.848 176.267 378.478 181.556C358.354 186.683 341.296 198.113 322.669 211.415C308.942 219.369 293.387 229.278 276.919 239.765C265.17 247.249 253.022 254.985 240.068 262.974C208.07 282.182 179.792 299.717 157.808 319.804C155.684 321.744 153.616 323.713 151.662 325.654C146.955 328.87 142.615 332.285 138.798 335.772C122.552 350.616 115.287 366.858 117.206 384.052C118.535 404.902 124.126 421.126 135.903 438.293C147.172 454.723 163.449 471.165 185.981 493.92C194.648 502.674 204.472 512.596 215.107 523.646C229.352 537.991 240.047 551.719 249.483 563.833C262.419 580.438 272.635 593.556 286.408 601.594C301.303 610.286 318.859 611.999 343.337 607.152C366.573 606.638 401.499 598.035 439.121 583.545C475.16 569.669 506.543 553.109 523.07 539.251C529.497 535.179 535.532 530.583 540.98 525.605Z" fill="#4CAF4F"/>
<path d="M174.664 313.363C195.262 294.543 219.993 277.935 241.468 264.173C269.948 245.41 299.807 226.05 324.372 213.603C344.718 200.259 361.074 191.177 379.798 187.1C414.271 177.502 465.492 194.036 513.483 230.246C543.519 249.73 565.086 270.964 577.596 293.366C589.596 314.454 595.425 340.901 595.426 374.225C596.382 405.862 588.663 440.445 573.106 474.239C564.073 493.624 553.258 508.916 540.045 520.989C533.267 527.181 525.891 532.548 517.496 537.396C501.356 550.416 471.302 565.89 437.065 578.813C401.182 592.359 367.741 600.452 345.317 601.018C294.978 610.853 278.27 590.635 252.979 560.031C243.897 549.038 233.602 536.579 220.232 523.576C210.207 513.438 200.896 504.277 192.678 496.196C149.759 453.965 128.215 432.768 125.017 391.38C122.506 373.221 130.531 355.087 148.218 338.927C150.672 336.685 153.335 334.458 156.14 332.304C161.577 325.998 167.797 319.637 174.664 313.363ZM540.342 521.3C553.607 509.18 564.459 493.837 573.522 474.39C589.109 440.53 596.842 405.876 595.883 374.177C595.884 340.788 590.035 314.272 578.004 293.127C565.461 270.668 543.852 249.389 513.772 229.876C465.687 193.596 414.319 177.038 379.723 186.669C358.903 191.203 340.861 202.275 324.166 213.228C299.601 225.673 269.729 245.04 241.237 263.81C219.747 277.583 194.995 294.204 174.367 313.052C167.486 319.338 161.251 325.716 155.839 332.002C153.06 334.127 150.385 336.363 147.92 338.615C130.107 354.89 122.03 373.165 124.561 391.467C127.771 432.991 149.35 454.223 192.34 496.521C200.555 504.603 209.864 513.764 219.891 523.904C233.247 536.891 243.536 549.343 252.613 560.327C265.666 576.123 275.974 588.599 289.625 596.236C304.382 604.493 321.561 606.102 345.329 601.458C367.763 600.896 401.264 592.791 437.197 579.227C471.48 566.285 501.589 550.781 517.735 537.75C526.13 532.907 533.536 527.518 540.342 521.3Z" fill="#4CAF4F"/>
<path d="M191.419 304.898C205.267 292.245 222.048 279.23 242.719 265.112C276.336 241.503 303.568 225.272 325.975 215.49C345.111 204.069 361.809 195.754 381.196 192.249C414.696 183.831 464.269 199.505 510.586 233.152C540.873 251.522 562.618 271.578 575.23 292.774C587.609 313.107 593.754 338.818 594.016 371.376C595.716 412.654 582.292 449.92 570.73 473.913C562.074 491.672 551.85 505.802 539.476 517.108C531.494 524.4 522.594 530.582 512.267 536.006C480.129 560.859 394.38 594.175 347.296 595.536C298.401 604.966 281.509 585.781 255.943 556.741C247.26 546.879 237.418 535.7 224.974 524.055C215.601 514.859 206.841 506.484 199.11 499.097C157.085 458.932 135.991 438.772 132.346 398.998C129.093 379.278 137.86 359.282 157.698 341.156C158.559 340.369 159.454 339.576 160.355 338.797C168.847 327.324 178.996 316.248 191.419 304.898ZM539.773 517.419C552.197 506.068 562.458 491.889 571.142 474.071C582.726 450.029 596.176 412.688 594.472 371.324C594.211 338.698 588.049 312.921 575.63 292.525C562.988 271.274 541.196 251.17 510.867 232.777C464.464 199.068 414.748 183.368 381.136 191.815C361.691 195.33 344.946 203.667 325.79 215.101C303.38 224.883 276.119 241.13 242.479 264.756C221.789 278.887 204.989 291.917 191.122 304.587C178.673 315.96 168.504 327.06 160.029 338.519C159.164 339.258 158.266 340.054 157.401 340.845C137.435 359.087 128.614 379.229 131.893 399.09C135.549 439.001 156.678 459.195 198.774 499.428C206.502 506.815 215.263 515.186 224.639 524.383C237.071 536.021 246.906 547.191 255.584 557.048C281.245 586.195 298.2 605.45 347.305 595.975C394.436 594.618 480.336 561.243 512.496 536.37C522.821 530.948 531.758 524.742 539.773 517.419Z" fill="#4CAF4F"/>
<path d="M207.454 296.111C218.313 286.19 230.323 276.473 244.166 266.408C275.489 243.002 303.631 226.598 327.815 217.652C343.791 209.068 361.491 200.712 382.848 197.617C415.385 190.339 463.284 205.09 507.869 236.111C538.822 253.556 560.108 271.877 572.959 292.136C585.698 311.684 592.121 336.639 592.601 368.43C594.275 401.648 585.617 438.953 568.223 473.48C559.918 489.793 550.243 502.872 538.648 513.466C529.536 521.791 519.133 528.691 506.843 534.563C475.382 557.794 394.803 588.613 349.035 590.167C301.541 599.254 284.45 581.126 258.578 553.683C250.36 544.967 241.045 535.086 229.591 524.819C220.93 516.61 212.78 509.066 205.584 502.411C164.428 464.344 143.771 445.235 139.721 407.054C134.784 381.242 150.57 359.458 164.68 345.723L164.719 345.677C175.522 328.728 189.502 312.514 207.454 296.111ZM538.944 513.777C550.586 503.14 560.297 490.014 568.633 473.647C586.06 439.046 594.736 401.661 593.059 368.376C592.579 336.511 586.134 311.488 573.355 291.877C560.469 271.565 539.136 253.197 508.142 235.731C463.477 204.654 415.445 189.879 382.803 197.179C361.389 200.283 343.641 208.661 327.655 217.253C303.457 226.202 275.271 242.628 243.912 266.062C230.056 276.136 218.034 285.864 207.158 295.801C189.179 312.228 175.176 328.466 164.35 345.445C150.159 359.262 134.299 381.179 139.266 407.157C143.332 445.47 164.025 464.612 205.252 502.748C212.444 509.401 220.598 516.942 229.258 525.155C240.707 535.415 250.014 545.288 258.227 554.001C284.195 581.541 301.348 599.737 349.047 590.608C394.858 589.053 475.58 558.179 507.056 534.934C519.349 529.065 529.795 522.136 538.944 513.777Z" fill="#4CAF4F"/>
<path d="M221.359 287.318C228.777 280.541 236.854 273.774 245.367 267.202C275.123 243.607 304.163 227.086 329.349 219.419C350.035 209.581 366.421 204.576 384.173 202.667C399.715 199.668 419.039 201.411 440.074 207.709C461.236 214.045 483.658 224.853 504.915 238.966C536.156 255.27 557.622 272.456 570.561 291.52C583.692 310.298 590.439 334.52 591.187 365.568C593.266 399.816 584.279 438.016 565.882 473.142C557.935 488.159 548.796 500.282 537.939 510.202C527.788 519.477 515.924 526.981 501.667 533.145C470.579 554.934 395.02 582.94 351.086 584.6C304.936 593.279 287.554 576.166 261.242 550.26C253.537 542.676 244.806 534.077 234.381 525.168C226.483 517.964 219.303 511.56 212.361 505.369C171.899 469.278 151.589 451.164 147.053 414.505C141.444 388.945 155.824 366.438 168.872 352.055L168.907 352.006C181.159 329.689 198.806 307.925 221.359 287.318ZM538.236 510.513C549.137 500.553 558.312 488.385 566.286 473.315C584.724 438.115 593.729 399.83 591.645 365.51C590.895 334.386 584.125 310.093 570.949 291.25C557.975 272.133 536.461 254.904 505.179 238.579C483.905 224.456 461.445 213.63 440.244 207.284C419.14 200.965 399.741 199.217 384.143 202.229C366.353 204.14 349.919 209.158 329.214 219.008C304.001 226.68 274.903 243.234 245.099 266.866C236.58 273.443 228.491 280.221 221.063 287.008C198.477 307.643 180.8 329.443 168.52 351.8C155.402 366.267 140.958 388.901 146.602 414.616C151.153 451.405 171.5 469.554 212.034 505.709C218.977 511.9 226.154 518.302 234.057 525.509C244.476 534.414 253.202 543.007 260.903 550.589C287.307 576.585 304.751 593.759 351.097 585.041C371.165 584.285 400.44 577.609 431.379 566.729C460.433 556.512 486.783 544.098 501.867 533.522C516.131 527.363 528.042 519.827 538.236 510.513Z" fill="#4CAF4F"/>
<path d="M232.835 280.255C237.231 276.24 241.852 272.246 246.569 268.383C275.517 244.069 304.676 227.868 330.899 221.528C350.378 213.48 367.21 209.32 385.512 208.028C416.604 203.013 460.11 215.721 501.913 242.022C533.429 257.142 555.055 273.169 568.047 291.032C581.556 309.016 588.603 332.488 589.593 362.79C592.056 398.054 582.711 437.142 563.284 472.864C555.671 486.731 547.019 497.993 536.835 507.298C525.712 517.46 512.423 525.479 496.204 531.813C466.155 551.687 394.138 577.449 352.853 579.215C307.975 587.526 290.244 571.438 263.413 547.083C256.317 540.644 248.277 533.344 238.968 525.812C231.919 519.659 225.443 514.119 219.18 508.762C180.577 475.733 159.313 457.54 154.304 422.365C148.048 397.085 161.03 373.846 173.023 358.8C186.241 330.86 206.355 304.45 232.835 280.255ZM537.133 507.61C547.358 498.267 556.044 486.96 563.684 473.044C583.155 437.245 592.518 398.068 590.051 362.728C589.058 332.347 581.985 308.8 568.427 290.752C555.4 272.838 533.724 256.769 502.163 241.63C460.297 215.287 416.676 202.556 385.499 207.587C367.164 208.879 350.284 213.051 330.79 221.108C304.529 227.453 275.297 243.692 246.292 268.055C241.567 271.923 236.938 275.924 232.538 279.944C206.008 304.184 185.856 330.645 172.639 358.597C160.612 373.678 147.559 397.052 153.853 422.485C158.881 457.789 180.184 476.017 218.859 509.108C225.122 514.465 231.596 520.004 238.654 526.16C247.956 533.689 255.992 540.984 263.083 547.422C290.01 571.859 307.799 588.003 352.865 579.656C372.423 578.82 399.568 572.779 429.266 562.645C456.559 553.333 481.652 541.95 496.391 532.198C512.62 525.866 525.962 517.816 537.133 507.61Z" fill="#4CAF4F"/>
<path d="M242.324 274.518C244.206 272.799 246.14 271.078 248.072 269.403C276.352 244.285 305.612 228.416 332.688 223.513C350.868 217.159 368.131 213.91 387.053 213.276C417.178 209.435 459.033 221.28 499.038 244.96C531.273 259.071 552.426 273.508 565.626 290.404C579.508 307.574 586.853 330.281 588.085 359.828C590.896 395.562 580.951 436.563 560.802 472.328C553.511 485.156 545.317 495.639 535.755 504.375C523.565 515.512 509.316 523.71 490.911 530.176C461.748 548.244 394.603 571.573 354.888 573.479C311.195 581.426 293.035 566.352 265.544 543.534C259.179 538.253 251.968 532.268 243.893 526.126C237.792 521.07 232.121 516.442 226.634 511.969C188.465 480.839 167.439 463.693 161.929 429.947C155.033 404.98 166.607 381.02 177.53 365.312C190.893 332.426 213.292 301.044 242.324 274.518ZM536.053 504.686C545.655 495.913 553.881 485.39 561.199 472.514C581.393 436.669 591.358 395.571 588.541 359.759C587.306 330.133 579.933 307.349 565.998 290.113C552.758 273.165 531.556 258.69 499.279 244.563C459.218 220.848 417.257 208.982 387.056 212.834C368.107 213.466 350.798 216.725 332.608 223.086C305.477 227.996 276.131 243.906 247.784 269.085C245.85 270.761 243.913 272.485 242.028 274.208C212.939 300.785 190.498 332.226 177.134 365.134C166.177 380.877 154.544 404.969 161.48 430.077C167.012 463.949 188.077 481.131 226.321 512.32C231.807 516.793 237.479 521.418 243.583 526.48C251.658 532.623 258.868 538.606 265.228 543.883C279.438 555.678 290.661 564.995 304.097 570.599C318.603 576.649 334.271 577.675 354.9 573.921C373.638 573.022 399.385 567.45 427.369 558.231C452.876 549.828 476.693 539.487 491.08 530.57C509.503 524.104 523.81 515.872 536.053 504.686Z" fill="#4CAF4F"/>
<path d="M251.427 268.16C278.471 243.451 307.06 228.648 334.103 225.355C351.35 220.458 368.044 218.317 388.268 218.407C417.485 215.752 457.742 226.775 495.98 247.892C528.551 260.807 549.879 274.143 563.122 289.869C577.204 306.017 585.088 328.618 586.565 357.054C589.791 393.81 579.511 435.735 558.36 472.085C551.374 483.996 543.602 493.782 534.602 502.005C521.55 513.93 505.988 522.462 485.628 528.851C456.345 545.681 395.067 565.991 356.816 568.016C314.116 575.602 296.357 562.241 266.934 540.107C261.194 535.79 255.262 531.327 248.562 526.581C243.537 522.654 238.789 518.993 234.2 515.449C196.177 486.117 175.233 469.959 169.151 437.505C161.598 412.835 171.756 388.124 181.604 371.733C194.759 333.805 218.108 298.736 249.145 270.272C249.908 269.558 250.665 268.856 251.427 268.16ZM534.9 502.318C543.939 494.059 551.742 484.233 558.753 472.278C579.953 435.845 590.255 393.822 587.021 356.983C585.541 328.464 577.623 305.779 563.485 289.567C550.199 273.791 528.822 260.419 496.209 247.489C457.923 226.343 417.57 215.301 388.289 217.963C368.041 217.871 351.306 220.017 334.05 224.92C306.94 228.219 278.253 243.066 251.129 267.849C250.366 268.545 249.607 269.249 248.846 269.963C217.747 298.482 194.353 333.622 181.193 371.581C171.316 388.008 161.112 412.844 168.705 437.643C174.81 470.225 195.798 486.415 233.894 515.809C238.486 519.35 243.231 523.011 248.263 526.942C254.967 531.691 260.896 536.154 266.633 540.467C281.334 551.527 292.946 560.261 306.515 565.486C321.148 571.124 336.664 572.04 356.831 568.457C374.767 567.509 399.141 562.416 425.433 554.12C449.165 546.631 471.727 537.334 485.782 529.251C506.165 522.862 521.791 514.296 534.9 502.318Z" fill="#4CAF4F"/>
<path d="M256.305 265.656C281.881 242.288 309.335 229.026 335.699 227.302C351.569 223.844 368.208 222.702 389.686 223.594C418.047 222.095 456.704 232.257 493.116 250.776C526.486 262.606 547.346 274.457 560.785 289.219C575.247 304.561 583.441 326.405 585.147 354.148C588.757 391.931 578.097 434.795 555.898 471.756C549.187 482.849 541.792 492.015 533.294 499.78C519.405 512.469 502.548 521.282 480.243 527.514C451.998 542.414 395.119 560.502 358.576 562.667C316.61 569.963 298.081 557.471 267.379 536.778C262.852 533.729 258.171 530.571 253.084 527.257C249.319 524.518 245.684 521.896 242.187 519.372C204.012 491.828 182.985 476.654 176.302 445.36C168.127 421.015 176.887 395.529 185.672 378.435C197.679 337.715 220.031 300.697 250.332 271.336C252.297 269.392 254.307 267.481 256.305 265.656ZM533.592 500.091C542.127 492.293 549.551 483.09 556.288 471.954C578.537 434.907 589.223 391.943 585.604 354.074C583.895 326.244 575.662 304.314 561.139 288.906C547.655 274.096 526.743 262.21 493.332 250.366C456.88 231.826 418.139 221.647 389.726 223.15C368.227 222.255 351.551 223.401 335.674 226.863C309.231 228.589 281.671 241.898 256.009 265.345C254.005 267.176 251.991 269.09 250.02 271.039C219.661 300.455 197.262 337.55 185.251 378.307C176.44 395.439 167.644 421.045 175.86 445.51C182.566 476.933 203.639 492.137 241.892 519.739C245.389 522.263 249.023 524.884 252.798 527.628C257.89 530.946 262.57 534.101 267.095 537.152C282.463 547.508 294.596 555.689 308.411 560.539C323.294 565.761 338.769 566.555 358.59 563.108C395.166 560.942 452.141 542.825 480.383 527.922C502.717 521.687 519.641 512.837 533.592 500.091Z" fill="#4CAF4F"/>
<path d="M260.355 263.912C284.824 241.556 311.444 229.595 337.339 229.325C354.341 226.771 371.123 227.3 391.1 228.88C419.066 228.546 455.168 237.618 490.172 253.771C512.877 260.875 541.116 271.254 558.324 288.673C573.161 303.192 581.667 324.263 583.608 351.3C587.557 389.511 576.256 434.399 553.377 471.38C546.936 481.727 539.899 490.323 531.87 497.659C516.994 511.251 499.42 520.013 474.883 526.064C447.215 539.26 394.67 554.885 360.482 557.134C318.897 564.17 299.275 552.459 266.763 533.056C263.888 531.343 260.917 529.569 257.826 527.744C255.58 526.247 253.375 524.783 251.222 523.349C213.721 498.415 191.087 483.363 183.707 453.066C174.92 429.08 182.26 402.838 189.964 385.042C200.58 342.228 222.484 302.243 251.649 272.413C254.494 269.451 257.424 266.591 260.355 263.912ZM532.167 497.971C540.232 490.602 547.298 481.971 553.765 471.585C564.491 454.245 572.977 434.595 578.305 414.753C584.211 392.764 586.15 371.391 584.065 351.224C582.117 324.09 573.571 302.934 558.667 288.348C541.398 270.867 513.098 260.464 490.373 253.354C455.338 237.187 419.166 228.101 391.158 228.435C371.168 226.854 354.356 226.324 337.343 228.883C311.357 229.152 284.621 241.158 260.058 263.601C257.118 266.287 254.181 269.155 251.328 272.125C236.785 286.997 224.097 304.198 213.617 323.246C202.997 342.546 194.895 363.303 189.531 384.939C181.807 402.771 174.439 429.132 183.268 453.226C190.676 483.653 213.359 498.736 250.939 523.725C253.095 525.155 255.297 526.621 257.552 528.125C260.654 529.954 263.624 531.728 266.497 533.441C299.093 552.895 318.769 564.638 360.496 557.576C394.718 555.323 447.342 539.677 475.007 526.479C499.58 520.42 517.224 511.624 532.167 497.971Z" fill="#4CAF4F"/>
<path d="M263.956 262.578C287.578 240.995 313.586 230.163 339.166 231.251C356.516 229.838 374.089 231.885 392.694 234.053C419.984 234.917 454.493 243.146 487.392 256.632C511.759 263.241 538.946 272.127 556.01 287.975C571.217 301.658 580.03 321.95 582.2 348.287C586.534 387.477 574.857 433.283 550.965 470.827C544.776 480.495 538.072 488.571 530.469 495.517C514.826 509.809 496.063 518.732 469.632 524.444C442.684 535.841 395.27 549.052 362.5 551.449C320.598 558.326 299.286 547.201 263.974 528.769L262.693 528.101L261.696 527.504C222.899 504.271 199.479 490.248 191.266 460.662C181.888 437.067 187.806 410.059 194.421 391.553C203.787 346.103 224.642 304.155 253.153 273.404C256.658 269.567 260.292 265.926 263.956 262.578ZM530.767 495.829C538.403 488.852 545.135 480.742 551.348 471.034C575.297 433.404 587 387.486 582.657 348.206C580.475 321.768 571.622 301.39 556.34 287.638C539.212 271.73 511.968 262.825 487.576 256.21C454.657 242.714 420.092 234.474 392.769 233.609C374.161 231.44 356.567 229.391 339.199 230.806C313.514 229.711 287.383 240.591 263.659 262.267C259.984 265.625 256.339 269.278 252.825 273.125C224.253 303.94 203.355 345.972 193.981 391.474C187.35 410.019 181.411 437.137 190.829 460.834C199.079 490.551 222.549 504.605 261.431 527.888L262.438 528.49L263.731 529.165C299.123 547.64 320.483 558.789 362.513 551.891C395.315 549.489 442.796 536.263 469.738 524.863C496.214 519.146 515.052 510.187 530.767 495.829Z" fill="#4CAF4F"/>
<path d="M266.617 261.611C289.561 240.648 315.105 230.835 340.489 233.233C354.704 233.083 369.306 235.418 384.765 237.888C387.717 238.36 390.722 238.84 393.788 239.314C420.746 241.446 453.673 248.855 484.138 259.643C508.78 265.315 536.238 273.051 553.248 287.474C568.835 300.326 577.965 319.847 580.383 345.499C585.128 385.675 573.103 432.404 548.217 470.497C542.273 479.549 535.882 487.149 528.679 493.731C512.296 508.699 492.37 517.73 464.072 523.01C438.108 532.477 395.495 543.373 364.211 545.896C324.044 552.231 300.778 543.558 267.23 528.522C230.34 509.273 207.274 496.061 198.443 468.268C188.475 445.071 192.951 417.288 198.459 398.062C206.511 350.002 226.294 306.098 254.172 274.409C258.178 269.801 262.365 265.496 266.617 261.611ZM528.976 494.042C536.212 487.431 542.629 479.801 548.599 470.713C573.542 432.525 585.594 385.686 580.838 345.414C578.41 319.657 569.234 300.044 553.564 287.126C536.49 272.648 508.972 264.893 484.306 259.215C453.829 248.423 420.862 241.005 393.881 238.872C390.834 238.401 387.83 237.921 384.879 237.449C369.4 234.975 354.781 232.639 340.55 232.788C328.302 231.631 315.835 233.358 303.516 237.925C290.55 242.733 278.035 250.598 266.32 261.301C262.054 265.199 257.854 269.518 253.835 274.14C225.897 305.895 206.073 349.884 198.012 398.005C192.491 417.272 188.003 445.16 198.01 468.451C206.881 496.375 230.005 509.622 266.997 528.924C300.628 544 323.95 552.691 364.227 546.337C395.535 543.813 438.203 532.905 464.158 523.436C492.515 518.147 512.518 509.079 528.976 494.042Z" fill="#4CAF4F"/>
<path d="M269.447 260.983C291.875 240.491 317.096 231.583 342.38 235.224C354.41 235.958 366.696 238.559 379.704 241.311C384.787 242.387 390.045 243.499 395.481 244.544C415.414 247.119 446.509 252.332 481.529 262.558C507.723 267.495 534.27 273.85 551.151 286.838C567.119 298.842 576.556 317.599 579.197 342.584C584.326 383.768 571.908 431.45 545.972 470.138C540.33 478.517 534.045 485.895 527.294 492.063C510.167 507.711 489.078 516.834 458.913 521.645C436.064 528.561 398.111 537.644 366.24 540.505C328.568 546.198 304.069 540.916 272.03 529.175C235.165 513.227 214.811 500.642 205.891 476.126C195.37 453.345 198.417 424.76 202.826 404.789C209.584 354.111 228.347 308.209 255.664 275.519C260.067 270.206 264.704 265.316 269.447 260.983ZM527.591 492.374C534.373 486.179 540.684 478.77 546.348 470.357C558.379 452.41 567.876 431.639 573.814 410.29C580.268 387.083 582.286 363.639 579.653 342.496C577 317.398 567.512 298.55 551.452 286.477C534.506 273.44 507.902 267.069 481.678 262.127C446.65 251.897 415.531 246.68 395.595 244.104C390.176 243.063 384.921 241.95 379.839 240.876C366.816 238.12 354.515 235.516 342.469 234.781C330.269 233.024 317.903 234.223 305.732 238.349C292.913 242.695 280.605 250.205 269.149 260.672C264.39 265.021 259.737 269.928 255.319 275.258C227.942 308.019 209.141 354.007 202.375 404.752C197.957 424.77 194.902 453.454 205.466 476.321C209.887 488.485 217.465 498.245 229.302 507.02C241.195 515.833 256.766 523.075 271.823 529.589C303.943 541.359 328.499 546.652 366.256 540.945C398.147 538.084 436.14 528.993 458.979 522.075C489.215 517.258 510.386 508.094 527.591 492.374Z" fill="#4CAF4F"/>
<path d="M271.672 260.416C293.648 240.337 318.599 232.293 343.83 237.154C354.23 238.556 364.83 241.419 376.051 244.45C382.666 246.237 389.509 248.086 396.689 249.739C401.652 250.652 406.841 251.585 412.227 252.553C432.267 256.154 454.979 260.238 478.374 265.483C508.997 269.999 532.627 275.256 548.46 286.234C564.803 297.386 574.551 315.366 577.43 339.675C582.886 381.207 569.792 431.013 543.261 469.662C537.837 477.529 531.835 484.491 525.421 490.352C507.349 506.864 485.809 515.749 453.4 520.065C442.543 522.619 404.374 531.219 368.009 534.822C334.238 539.643 307.772 538.096 276.643 529.486C249.978 520.69 223.827 509.046 213.177 483.638C204.421 465.96 202.282 440.925 206.986 411.227C212.389 358 230.088 310.148 256.82 276.479C261.527 270.525 266.523 265.121 271.672 260.416ZM525.718 490.663C532.161 484.777 538.189 477.785 543.633 469.884C556.087 451.743 565.91 430.611 572.042 408.768C578.697 385.064 580.717 361.141 577.884 339.583C574.991 315.156 565.187 297.081 548.746 285.864C532.848 274.839 509.167 269.569 478.499 265.046C455.111 259.801 432.393 255.718 412.349 252.115C406.964 251.147 401.776 250.214 396.824 249.304C389.661 247.653 382.823 245.806 376.21 244.021C364.974 240.986 354.361 238.12 343.945 236.715C331.77 234.369 319.481 235.058 307.428 238.765C294.729 242.669 282.6 249.849 271.374 260.105C266.205 264.828 261.189 270.253 256.467 276.229C229.678 309.969 211.943 357.908 206.533 411.211C201.817 440.983 203.966 466.107 212.755 483.849C217.433 495.008 225.172 504.144 236.411 511.758C246.1 518.324 258.829 524.093 276.472 529.911C307.675 538.543 334.196 540.093 368.027 535.265C404.407 531.659 442.604 523.052 453.444 520.5C485.94 516.176 507.563 507.251 525.718 490.663Z" fill="#4CAF4F"/>
<path d="M273.753 259.984C295.064 240.513 320.508 233.076 345.399 239.043C354.537 240.963 363.849 244.062 373.709 247.344C381.487 249.932 389.531 252.609 398.069 254.904C419.037 259.997 443.714 263.664 469.839 267.547L475.467 268.384C501.623 271.17 528.615 274.797 546.083 285.623C562.817 295.923 572.883 313.145 576.001 336.809C581.865 379.344 568.394 430.132 540.844 469.354C535.625 476.761 529.882 483.345 523.775 488.925C500.148 510.511 472.257 516.096 448.09 518.711C433.224 521.128 403.316 525.728 369.898 529.388C342.516 533.027 312.836 535.625 281.284 530.047C249.344 523.369 230.008 511.077 220.437 491.361C211.132 473.789 207.998 449.044 211.119 417.806C215.157 361.996 231.808 312.149 258.005 277.445C262.953 270.885 268.251 265.011 273.753 259.984ZM524.072 489.236C530.206 483.631 535.975 477.018 541.215 469.583C568.83 430.265 582.334 379.353 576.455 336.712C573.322 312.925 563.193 295.606 546.355 285.24C528.81 274.369 501.765 270.733 475.568 267.942L469.948 267.106C443.833 263.226 419.166 259.56 398.222 254.472C389.701 252.183 381.664 249.508 373.892 246.921C364.019 243.637 354.696 240.533 345.539 238.609C333.354 235.688 321.1 235.887 309.12 239.202C296.496 242.697 284.497 249.583 273.455 259.672C267.931 264.719 262.611 270.618 257.645 277.203C231.394 311.982 214.707 361.918 210.662 417.81C207.534 449.125 210.682 473.95 220.02 491.587C229.648 511.414 249.074 523.776 281.157 530.483C312.776 536.074 342.5 533.475 369.913 529.83C403.337 526.167 433.254 521.567 448.111 519.152C472.347 516.531 500.335 510.924 524.072 489.236Z" fill="#4CAF4F"/>
<path d="M240.689 265.209C261.699 246.013 287.007 239.365 311.952 246.489C320.062 248.819 328.336 252.119 337.095 255.612C345.792 259.081 354.785 262.668 364.421 265.628C383.119 271.37 404.98 274.726 437.517 276.847C465.119 278.663 491.327 281.08 508.645 290.575C525.765 300.019 536.148 316.478 539.508 339.499C545.786 383.03 531.944 434.785 503.385 474.569C498.366 481.546 492.87 487.777 487.052 493.092C462.537 515.491 433.214 520.707 407.765 522.856C403.622 523.202 399.377 523.544 395.025 523.892C377.681 525.288 358.024 526.867 336.795 529.439C331.767 530.048 326.577 530.724 321.557 531.378C298.112 534.429 273.87 537.585 250.954 536.09C223.94 534.319 203.266 523.126 192.744 504.575C183.037 487.377 178.847 462.251 180.29 429.893C182.945 371.526 198.538 319.695 224.201 283.946C229.335 276.817 234.884 270.513 240.689 265.209ZM487.35 493.404C493.194 488.065 498.713 481.806 503.754 474.802C532.381 434.921 546.256 383.038 539.962 339.398C536.584 316.247 526.132 299.689 508.897 290.183C491.504 280.648 465.241 278.222 437.589 276.403C405.088 274.283 383.258 270.934 364.595 265.202C354.975 262.247 345.99 258.664 337.301 255.198C328.532 251.701 320.249 248.397 312.116 246.062C299.903 242.574 287.664 242.296 275.736 245.237C263.168 248.339 251.276 254.953 240.392 264.897C234.56 270.226 228.989 276.557 223.832 283.714C211.054 301.515 200.73 323.376 193.144 348.693C185.62 373.806 181.143 401.132 179.832 429.914C178.386 462.35 182.593 487.55 192.337 504.816C202.928 523.488 223.721 534.755 250.884 536.535C273.842 538.033 298.11 534.874 321.578 531.82C326.596 531.165 331.784 530.49 336.809 529.883C358.03 527.309 377.681 525.73 395.022 524.336C399.371 523.987 403.62 523.645 407.763 523.3C433.299 521.145 462.721 515.907 487.35 493.404Z" fill="#4CAF4F"/>
<path d="M279.862 263.2C300.779 244.089 325.44 237.278 349.301 244.025C357.755 246.41 366.232 249.819 375.205 253.429C383.192 256.641 391.452 259.964 400.316 262.81C404.475 264.13 408.945 265.368 413.6 266.488C429.037 270.202 446.739 272.724 470.997 274.667C497.593 276.838 522.851 279.571 539.611 289.047C556.157 298.448 566.227 314.527 569.541 336.838C573.377 362.553 569.881 390.559 559.431 417.825C552.886 435.365 543.555 452.525 532.448 467.455C527.595 474.066 522.297 480.01 516.703 485.121C501.672 498.854 483.836 507.48 460.573 512.263C454.191 513.557 447.3 514.583 439.509 515.397C433.39 516.075 427.112 516.727 420.467 517.419C405.571 518.972 388.689 520.729 370.794 523.081C367.87 523.474 364.927 523.878 361.967 524.285C341.838 527.05 321.023 529.91 300.919 529.846C296.144 529.833 291.521 529.656 287.18 529.317C261.06 527.328 240.972 516.267 230.615 498.174C220.97 481.276 216.688 456.832 217.883 425.525C218.519 404.514 221.649 383.181 227.186 362.117C230.962 347.421 235.902 333.088 241.866 319.519C247.867 305.902 254.704 293.947 263.387 281.896C268.498 274.81 274.041 268.519 279.862 263.2ZM517 485.431C522.619 480.298 527.94 474.329 532.812 467.692C543.947 452.728 553.299 435.523 559.859 417.945C570.336 390.606 573.842 362.524 569.995 336.735C566.663 314.298 556.526 298.122 539.868 288.657C523.033 279.138 497.723 276.398 471.076 274.223C446.841 272.281 429.161 269.762 413.747 266.055C409.102 264.937 404.643 263.703 400.493 262.386C391.645 259.544 383.393 256.225 375.413 253.015C366.427 249.4 357.941 245.988 349.465 243.597C325.44 236.804 300.615 243.656 279.564 262.889C273.717 268.232 268.152 274.548 263.021 281.661C254.317 293.743 247.461 305.728 241.447 319.377C235.472 332.969 230.525 347.325 226.742 362.046C221.198 383.141 218.062 404.508 217.424 425.551C216.226 456.935 220.528 481.451 230.21 498.418C240.636 516.628 260.84 527.762 287.102 529.762C291.455 530.101 296.089 530.279 300.874 530.29C321.012 530.356 341.843 527.494 361.99 524.726C364.95 524.319 367.893 523.914 370.816 523.523C388.704 521.171 404.855 519.489 420.475 517.861C427.121 517.17 433.398 516.518 439.518 515.84C447.325 515.024 454.229 513.996 460.626 512.698C483.984 507.896 501.896 499.231 517 485.431Z" fill="#4CAF4F"/>
<path d="M284.203 266.567C304.991 247.573 328.971 240.616 351.725 246.976C360.538 249.416 369.209 252.939 378.39 256.67C385.652 259.621 393.162 262.673 401.229 265.382C405.233 266.698 409.549 267.948 414.061 269.099C429.025 272.915 446.1 275.617 469.423 277.857C494.983 280.376 519.265 283.418 535.451 292.865C551.406 302.217 561.151 317.897 564.412 339.475C568.327 364.871 564.607 392.049 553.658 418.071C546.998 434.72 537.82 450.678 526.374 465.503C521.699 471.738 516.611 477.381 511.255 482.275C496.556 495.704 479.163 504.385 456.517 509.595C450.339 510.984 443.697 512.117 436.209 513.063C427.485 514.278 418.334 515.447 408.648 516.683C396.326 518.256 383.586 519.881 369.818 521.843L368.353 522.059C346.426 525.318 323.754 528.685 301.836 528.345C297.224 528.278 292.74 528.051 288.517 527.667C263.319 525.462 243.838 514.55 233.662 496.935C224.09 480.352 219.718 456.619 220.666 426.396C220.974 406.052 224.191 385.594 230.496 363.847C234.427 349.729 239.453 336.063 245.858 322.069C251.689 309.389 258.232 298.369 267.734 285.226C272.82 278.182 278.36 271.905 284.203 266.567ZM511.553 482.587C516.933 477.671 522.041 472.005 526.735 465.747C538.206 450.887 547.407 434.889 554.08 418.201C565.062 392.107 568.794 364.846 564.866 339.371C561.585 317.67 551.777 301.893 535.712 292.478C519.455 282.989 495.12 279.939 469.509 277.415C446.21 275.176 429.155 272.478 414.214 268.668C409.712 267.52 405.405 266.272 401.411 264.959C393.357 262.254 385.854 259.205 378.599 256.257C369.408 252.521 360.724 248.994 351.888 246.547C340.699 243.42 329.147 243.497 317.554 246.779C305.7 250.133 294.379 256.687 283.906 266.256C278.038 271.617 272.474 277.922 267.367 284.994C257.844 298.166 251.286 309.209 245.443 321.921C239.027 335.938 233.993 349.626 230.054 363.766C223.738 385.549 220.517 406.047 220.208 426.426C219.257 456.725 223.646 480.531 233.257 497.178C243.5 514.91 263.095 525.895 288.434 528.11C292.67 528.496 297.161 528.722 301.788 528.79C323.742 529.13 346.435 525.759 368.383 522.498L369.843 522.283C383.606 520.323 396.347 518.698 408.667 517.124C418.355 515.888 427.505 514.72 436.231 513.504C443.729 512.557 450.386 511.421 456.581 510.029C479.318 504.798 496.786 496.078 511.553 482.587Z" fill="#4CAF4F"/>
<path d="M288.596 269.886C308.977 251.265 332.919 243.965 354.285 249.856C363.502 252.354 372.378 256.005 381.775 259.87C388.316 262.561 395.075 265.341 402.346 267.894C406.205 269.206 410.376 270.47 414.744 271.65C429.255 275.569 445.726 278.447 468.152 280.982C492.713 283.84 516.054 287.185 531.691 296.615C547.077 305.924 556.504 321.228 559.711 342.1C563.699 367.211 559.74 393.603 548.262 418.425C541.591 433.951 532.291 449.197 520.623 463.746C516.123 469.61 511.244 474.953 506.123 479.632C491.725 492.787 474.735 501.55 452.655 507.213C446.666 508.698 440.261 509.947 433.071 511.026C420.585 513.152 407.058 515.179 392.739 517.327C385.077 518.474 377.155 519.661 368.895 520.938C347.441 524.453 324.661 527.834 302.704 527.213C298.232 527.095 293.885 526.818 289.778 526.39C265.467 523.978 246.566 513.201 236.561 496.042C227.053 479.754 222.596 456.697 223.312 427.512C223.321 407.626 226.622 387.996 233.707 365.729C237.722 352.412 242.983 338.994 249.795 324.701C256.209 311.319 262.819 301.323 272.07 288.576C277.15 281.552 282.71 275.264 288.596 269.886ZM506.42 479.943C511.563 475.244 516.461 469.877 520.978 463.993C532.67 449.414 541.992 434.13 548.68 418.569C560.195 393.67 564.167 367.189 560.164 341.993C556.939 321.001 547.449 305.603 531.956 296.231C516.25 286.758 492.858 283.402 468.248 280.539C445.843 278.007 429.391 275.133 414.904 271.221C410.545 270.042 406.383 268.781 402.533 267.473C395.276 264.923 388.519 262.146 381.987 259.459C372.576 255.587 363.687 251.931 354.446 249.426C332.92 243.491 308.81 250.834 288.299 269.575C282.386 274.976 276.804 281.291 271.703 288.343C262.436 301.111 255.812 311.13 249.381 324.545C242.56 338.861 237.289 352.301 233.271 365.636C226.171 387.946 222.862 407.619 222.855 427.547C222.134 456.806 226.611 479.934 236.158 496.288C246.231 513.56 265.241 524.409 289.691 526.834C293.805 527.262 298.166 527.539 302.649 527.658C324.648 528.28 347.454 524.896 368.929 521.377C377.184 520.102 385.107 518.914 392.768 517.765C407.091 515.62 420.619 513.591 433.104 511.464C440.307 510.383 446.727 509.131 452.73 507.643C474.897 501.959 491.957 493.158 506.42 479.943Z" fill="#4CAF4F"/>
<path d="M292.75 272.933C312.963 254.466 336.2 247.056 356.505 252.605C366.156 255.179 375.236 258.983 384.85 263.009C390.66 265.442 396.669 267.959 403.13 270.344C406.839 271.656 410.863 272.939 415.094 274.156C429.147 278.2 445.012 281.28 466.537 284.142C489.152 287.246 512.493 291.064 527.577 300.496C542.403 309.785 551.534 324.721 554.717 344.887C558.818 369.711 554.664 395.305 542.704 418.9C536.077 433.264 526.687 447.779 514.793 462.053C510.488 467.527 505.842 472.554 500.978 476.998C486.901 489.86 470.326 498.688 448.816 504.78C443.029 506.355 436.865 507.704 429.971 508.908C411.295 512.677 390.297 516.162 368.064 519.852C348.612 523.327 325.756 526.75 303.706 525.795C299.38 525.618 295.169 525.286 291.181 524.806C267.763 522.153 249.435 511.486 239.576 494.768C230.108 478.766 225.531 456.385 225.971 428.247C225.655 408.704 229.004 389.897 236.828 367.259C240.915 354.635 246.233 341.849 253.562 327.021C260.324 313.439 267.075 304.161 275.624 292.412L276.174 291.658C281.24 284.653 286.818 278.354 292.75 272.933ZM501.276 477.309C506.16 472.847 510.827 467.8 515.143 462.307C527.061 448.006 536.474 433.453 543.115 419.059C555.118 395.384 559.286 369.696 555.169 344.779C551.969 324.495 542.777 309.467 527.85 300.116C512.696 290.64 489.302 286.811 466.641 283.701C445.136 280.842 429.291 277.766 415.26 273.729C411.037 272.513 407.021 271.234 403.323 269.924C396.873 267.545 390.869 265.03 385.062 262.597C375.435 258.565 366.341 254.756 356.665 252.175C336.199 246.582 312.795 254.036 292.453 272.622C286.494 278.066 280.893 284.391 275.806 291.424L275.257 292.177C266.696 303.945 259.934 313.238 253.152 326.859C245.811 341.709 240.487 354.513 236.394 367.156C228.551 389.844 225.197 408.698 225.512 428.288C225.071 456.496 229.669 478.947 239.174 495.016C249.098 511.844 267.535 522.58 291.087 525.25C295.084 525.729 299.311 526.061 303.646 526.24C325.74 527.198 348.627 523.77 368.104 520.289C390.337 516.6 411.342 513.113 430.021 509.342C436.921 508.139 443.1 506.788 448.905 505.208C470.498 499.093 487.138 490.227 501.276 477.309Z" fill="#4CAF4F"/>
<path d="M297.079 276.311C317.118 258.002 339.635 250.467 358.858 255.636C368.961 258.27 378.224 262.22 388.032 266.403C393.104 268.566 398.348 270.804 403.986 272.98C407.596 274.306 411.361 275.563 415.5 276.827C429.073 280.967 444.318 284.218 464.927 287.368C486.553 290.788 508.884 294.916 523.406 304.325C537.642 313.561 546.445 328.1 549.564 347.536C553.732 372.046 549.341 396.824 536.865 419.194C530.207 432.556 520.97 445.962 508.62 460.187C504.521 465.266 500.114 469.966 495.517 474.166C481.739 486.755 465.56 495.679 444.605 502.249C439.017 503.923 433.096 505.383 426.506 506.717C410.34 510.553 391.954 514.277 366.884 518.792C341.825 523.704 321.967 525.521 304.388 524.508C300.211 524.282 296.137 523.9 292.274 523.376C269.771 520.523 252.048 510.008 242.366 493.767C233.107 478.297 228.322 456.015 228.531 429.334C227.778 404.978 234.238 384.39 239.95 369.177C245.248 354.001 252.056 340.125 257.397 329.732C263.412 318.124 269.378 310.048 276.286 300.7C277.608 298.91 278.973 297.063 280.389 295.124C285.465 288.122 291.08 281.792 297.079 276.311ZM495.815 474.477C500.431 470.26 504.856 465.541 508.965 460.45C521.337 446.197 530.596 432.757 537.269 419.369C549.792 396.915 554.202 372.034 550.018 347.428C546.878 327.876 538.017 313.245 523.682 303.948C509.092 294.495 486.711 290.357 465.04 286.928C444.45 283.781 429.225 280.535 415.673 276.401C411.543 275.141 407.784 273.886 404.184 272.562C398.558 270.39 393.316 268.155 388.248 265.993C378.425 261.803 369.148 257.846 359.015 255.206C339.635 249.993 316.951 257.572 296.782 276C290.757 281.504 285.118 287.86 280.024 294.89C278.608 296.828 277.243 298.673 275.924 300.462C269.002 309.829 263.024 317.917 256.992 329.562C251.644 339.97 244.824 353.865 239.518 369.064C233.795 384.312 227.319 404.951 228.072 429.379C227.862 456.13 232.666 478.482 241.965 494.015C251.709 510.365 269.541 520.95 292.172 523.817C296.045 524.341 300.131 524.725 304.319 524.954C321.94 525.966 341.834 524.15 366.931 519.227C392.008 514.713 410.399 510.989 426.568 507.151C433.164 505.817 439.1 504.352 444.704 502.674C465.739 496.078 481.979 487.119 495.815 474.477Z" fill="#4CAF4F"/>
<path d="M301.568 279.543C321.089 261.707 343.42 253.894 361.304 258.64C371.888 261.343 381.324 265.467 391.314 269.832C395.654 271.728 400.141 273.688 404.952 275.642C408.406 276.963 412.026 278.236 416.023 279.535C428.944 283.73 444.013 287.274 463.448 290.689C484.088 294.447 505.409 298.906 519.385 308.316C533.045 317.517 541.534 331.671 544.616 350.385C548.877 374.585 544.278 398.549 531.314 419.687C524.695 431.971 515.632 444.3 502.784 458.495C498.914 463.16 494.771 467.515 490.466 471.448C476.988 483.763 461.198 492.779 440.775 499.83C435.389 501.596 429.713 503.165 423.423 504.62C406.559 509.245 387.811 513.541 366.1 517.757C343.237 522.637 322.841 524.462 305.474 523.179C301.45 522.898 297.511 522.464 293.768 521.891C272.177 518.815 255.045 508.43 245.525 492.644C236.318 477.471 231.427 455.904 231.383 430.275C230.276 406.649 236.784 387.028 243.297 370.952C248.436 357.22 255.038 344.266 261.406 332.314C266.922 322.056 272.174 315.141 278.254 307.134C280.318 304.419 282.449 301.61 284.74 298.482C289.828 291.469 295.489 285.097 301.568 279.543ZM490.764 471.76C495.087 467.81 499.246 463.438 503.123 458.764C515.992 444.546 525.077 432.185 531.708 419.876C544.728 398.653 549.349 374.58 545.069 350.274C541.969 331.45 533.423 317.208 519.668 307.943C505.626 298.49 484.255 294.019 463.57 290.251C444.155 286.839 429.104 283.3 416.202 279.111C412.212 277.815 408.599 276.545 405.157 275.227C400.354 273.278 395.87 271.318 391.533 269.424C381.527 265.05 372.076 260.92 361.458 258.209C352.228 255.759 342.111 256.475 331.393 260.336C321.196 264.009 310.779 270.544 301.27 279.232C295.166 284.809 289.481 291.207 284.375 298.247C282.086 301.373 279.955 304.179 277.893 306.892C271.8 314.916 266.537 321.844 261.004 332.138C254.627 344.107 248.018 357.076 242.87 370.828C236.341 386.945 229.815 406.624 230.927 430.325C230.97 456.02 235.88 477.659 245.125 492.894C254.708 508.786 271.945 519.239 293.659 522.33C297.412 522.904 301.365 523.34 305.399 523.622C322.808 524.908 343.252 523.081 366.153 518.194C387.875 513.975 406.633 509.676 423.5 505.051C429.793 503.594 435.485 502.02 440.887 500.249C461.386 493.174 477.232 484.123 490.764 471.76Z" fill="#4CAF4F"/>
<path d="M306.005 282.822C325.286 265.205 346.848 257.313 363.683 261.709C374.776 264.477 383.922 268.587 394.514 273.344C398.132 274.969 401.873 276.651 405.869 278.353C409.178 279.676 412.655 280.962 416.499 282.29C428.949 286.589 443.389 290.321 461.942 294.037C481.603 298.122 501.922 302.899 515.358 312.312C528.446 321.479 536.621 335.25 539.654 353.246C543.999 377.145 539.175 400.308 525.703 420.228C517.363 434.49 505.905 447.311 496.854 456.89C493.231 461.124 489.376 465.116 485.383 468.763C472.175 480.831 456.734 489.975 436.791 497.546C431.605 499.411 426.169 501.089 420.179 502.671C402.943 508.088 384.935 512.743 365.117 516.906C343.879 521.845 323.552 523.628 306.325 522.066C302.448 521.731 298.645 521.245 295.02 520.626C274.337 517.341 257.791 507.087 248.433 491.755C236.867 472.954 234.209 448.569 234.012 431.428C232.572 408.376 239.142 389.677 246.454 372.903C251.646 359.973 258.042 348.109 265.258 335.048C270.446 325.749 275.225 319.68 280.76 312.652C283.342 309.372 286.013 305.98 288.964 301.961C294.085 294.914 299.818 288.474 306.005 282.822ZM485.679 469.073C489.687 465.411 493.559 461.405 497.187 457.166C506.248 447.576 517.731 434.726 526.089 420.433C539.62 400.423 544.471 377.146 540.106 353.133C537.055 335.03 528.826 321.171 515.647 311.943C502.148 302.485 481.78 297.694 462.075 293.6C443.54 289.889 429.118 286.161 416.687 281.87C412.848 280.543 409.378 279.259 406.08 277.942C402.092 276.243 398.352 274.562 394.736 272.938C384.126 268.171 374.965 264.054 363.836 261.279C346.847 256.84 325.116 264.778 305.707 282.511C299.495 288.187 293.739 294.652 288.599 301.727C285.653 305.738 282.985 309.125 280.404 312.402C274.856 319.448 270.065 325.532 264.86 334.864C257.633 347.942 251.231 359.82 246.032 372.769C238.7 389.59 232.11 408.349 233.554 431.484C233.75 448.669 236.422 473.128 248.033 492.009C257.453 507.442 274.099 517.761 294.904 521.066C298.54 521.688 302.356 522.172 306.243 522.51C323.516 524.076 343.897 522.288 365.18 517.338C385.008 513.175 403.03 508.516 420.272 503.096C426.265 501.513 431.714 499.832 436.919 497.961C456.929 490.365 472.422 481.186 485.679 469.073Z" fill="#4CAF4F"/>
<path d="M310.412 285.637C329.43 268.262 350.214 260.302 366.009 264.345C377.625 267.168 386.886 271.462 397.608 276.433C400.526 277.786 403.542 279.184 406.744 280.617C409.906 281.936 413.24 283.235 416.94 284.594C428.915 288.989 442.73 292.904 460.417 296.916C479.102 301.314 498.424 306.397 511.326 315.818C523.844 324.948 531.701 338.342 534.678 355.624C539.094 379.23 534.03 401.603 520.035 420.325C512.573 432.021 502.963 442.594 490.826 454.872C487.484 458.652 483.944 462.254 480.296 465.587C467.324 477.439 452.186 486.754 432.658 494.903C427.663 496.874 422.463 498.664 416.768 500.373C399.526 506.545 382.247 511.571 363.93 515.742C343.853 520.831 324.148 522.537 306.938 520.677C303.205 520.29 299.539 519.757 296.034 519.09C276.245 515.606 260.283 505.492 251.09 490.607C239.595 472.17 236.765 448.724 236.415 432.3C234.763 410.957 240.424 393.776 249.429 374.542C254.679 362.347 261.149 351.062 268 339.114L268.961 337.438C273.931 328.848 278.388 323.424 283.55 317.143C286.522 313.526 289.596 309.787 293.071 305.069C298.249 297.957 304.083 291.42 310.412 285.637ZM480.593 465.897C484.253 462.553 487.806 458.939 491.153 455.154C503.304 442.863 512.933 432.268 520.408 420.551C534.474 401.733 539.568 379.238 535.129 355.51C532.135 338.124 524.226 324.645 511.623 315.454C498.658 305.987 479.289 300.89 460.56 296.482C442.891 292.474 429.092 288.563 417.135 284.175C413.44 282.819 410.114 281.521 406.963 280.208C403.768 278.778 400.751 277.38 397.836 276.028C387.093 271.047 377.816 266.745 366.16 263.913C350.213 259.83 329.259 267.835 310.115 285.326C303.761 291.131 297.904 297.695 292.705 304.833C289.24 309.538 286.171 313.272 283.203 316.884C278.027 323.182 273.555 328.624 268.565 337.247L267.604 338.927C260.745 350.887 254.269 362.185 249.014 374.395C239.977 393.69 234.296 410.935 235.957 432.362C236.308 448.824 239.151 472.349 250.691 490.863C259.946 505.843 276.004 516.024 295.91 519.528C299.424 520.196 303.104 520.733 306.848 521.119C324.11 522.986 343.873 521.275 364.002 516.175C382.331 512 399.629 506.968 416.879 500.794C422.575 499.083 427.787 497.289 432.8 495.313C452.391 487.135 467.576 477.791 480.593 465.897Z" fill="#4CAF4F"/>
<path d="M315.104 288.685C333.764 271.637 353.705 263.672 368.449 267.383C380.569 270.259 389.888 274.751 400.68 279.95C402.928 281.033 405.256 282.155 407.703 283.309C410.717 284.626 413.904 285.941 417.452 287.331C428.934 291.826 442.111 295.935 458.922 300.259C476.611 304.983 494.918 310.384 507.286 319.826C519.229 328.924 526.772 341.931 529.706 358.484C534.214 381.776 528.943 403.33 514.463 420.82C506.764 431.851 496.971 441.592 484.971 453.182C481.966 456.461 478.803 459.617 475.561 462.579C462.824 474.216 447.97 483.718 428.81 492.482C424.014 494.552 419.06 496.449 413.672 498.275C396.664 505.149 380.136 510.522 363.14 514.705C344.421 519.851 324.85 521.497 308.023 519.346C304.44 518.905 300.909 518.319 297.529 517.603C278.661 513.907 263.292 503.922 254.254 489.491C242.821 471.425 239.799 448.937 239.277 433.253C237.319 412.323 243.261 395.364 252.785 376.337C257.692 365.67 263.606 355.759 269.868 345.266C270.897 343.541 271.934 341.804 272.976 340.046C277.788 332.013 282.212 326.875 286.895 321.437C290.159 317.646 293.534 313.728 297.426 308.456C302.672 301.262 308.619 294.611 315.104 288.685ZM475.859 462.891C479.112 459.92 482.283 456.75 485.289 453.471C497.3 441.873 507.11 432.115 514.822 421.063C529.383 403.475 534.69 381.79 530.157 358.368C527.206 341.714 519.612 328.625 507.589 319.465C495.161 309.979 476.811 304.564 459.078 299.828C442.284 295.508 429.121 291.405 417.655 286.916C414.113 285.527 410.931 284.215 407.926 282.902C405.486 281.752 403.16 280.63 400.912 279.547C390.1 274.337 380.761 269.838 368.599 266.95C353.702 263.202 333.592 271.211 314.807 288.374C308.297 294.323 302.325 301 297.061 308.219C293.18 313.474 289.812 317.387 286.556 321.169C281.858 326.625 277.42 331.779 272.586 339.85C271.541 341.609 270.507 343.345 269.478 345.069C263.209 355.575 257.286 365.498 252.372 376.179C242.816 395.272 236.852 412.3 238.822 433.319C239.344 449.042 242.377 471.606 253.856 489.748C262.954 504.273 278.416 514.321 297.396 518.04C300.785 518.759 304.329 519.346 307.925 519.786C324.809 521.946 344.446 520.295 363.221 515.134C380.235 510.947 396.783 505.566 413.799 498.689C419.188 496.862 424.154 494.963 428.968 492.883C448.184 484.095 463.082 474.565 475.859 462.891Z" fill="#4CAF4F"/>
<path d="M319.79 291.735C338.32 274.805 356.924 267.058 370.831 270.483C383.428 273.394 392.302 277.856 403.537 283.505C405.172 284.328 406.858 285.174 408.613 286.047C411.488 287.366 414.532 288.694 417.919 290.111C428.902 294.698 441.446 298.993 457.399 303.628C473.361 308.439 491.388 314.366 503.232 323.837C514.6 332.902 521.826 345.525 524.711 361.354C529.298 384.336 523.802 405.084 508.82 421.359C501.397 431.022 491.853 439.782 481.747 449.054L479.008 451.57C476.415 454.289 473.709 456.939 470.952 459.458C458.39 470.936 443.725 480.702 424.8 490.192C420.199 492.367 415.486 494.374 410.401 496.317C393.512 503.997 378.18 509.566 362.137 513.846C344.394 519.141 325.478 520.696 308.867 518.228C305.431 517.736 302.036 517.102 298.775 516.335C280.82 512.437 266.042 502.59 257.161 488.607C245.792 470.909 242.594 449.371 241.915 434.419C239.417 411.567 247.48 394.172 255.952 378.314C260.593 368.878 266.082 360.085 271.891 350.778C273.525 348.162 275.179 345.512 276.841 342.806C281.553 335.204 285.802 330.516 290.3 325.551C293.798 321.692 297.415 317.7 301.661 311.966C306.931 304.752 313.2 297.756 319.79 291.735ZM471.249 459.769C474.015 457.243 476.73 454.585 479.319 451.867L482.045 449.365C492.167 440.075 501.728 431.302 509.164 421.62C524.24 405.246 529.777 384.359 525.161 361.233C522.26 345.311 514.987 332.61 503.542 323.483C491.643 313.968 473.572 308.024 457.568 303.201C441.629 298.569 429.099 294.28 418.133 289.699C414.748 288.285 411.71 286.959 408.845 285.644C407.095 284.775 405.411 283.928 403.777 283.106C392.517 277.445 383.622 272.972 370.979 270.05C356.916 266.589 338.15 274.378 319.493 291.424C312.878 297.468 306.585 304.491 301.296 311.73C297.067 317.441 293.458 321.424 289.967 325.277C285.453 330.257 281.191 334.962 276.454 342.604C274.79 345.311 273.138 347.959 271.506 350.573C265.688 359.893 260.193 368.696 255.547 378.143C247.044 394.061 238.947 411.528 241.458 434.493C242.139 449.482 245.35 471.094 256.766 488.866C265.704 502.938 280.573 512.847 298.633 516.771C301.904 517.537 305.311 518.177 308.759 518.668C325.434 521.147 344.424 519.586 362.227 514.275C378.29 509.987 393.647 504.411 410.548 496.725C415.631 494.779 420.355 492.77 424.974 490.585C443.948 481.071 458.65 471.281 471.249 459.769Z" fill="#4CAF4F"/>
<path d="M324.441 294.332C342.459 277.869 360.172 270.21 373.036 273.321C386.06 276.264 394.429 280.685 406.014 286.807C407.104 287.382 408.221 287.972 409.373 288.578C412.115 289.905 415.014 291.252 418.243 292.697C428.715 297.383 440.634 301.882 455.754 306.861C474.388 313.216 488.893 319.207 499.093 327.779C509.903 336.836 516.831 349.086 519.685 364.193C524.385 386.878 518.697 406.821 503.236 421.866C499.97 425.703 496.111 429.627 491.071 434.232C487.421 437.567 483.613 440.845 479.58 444.315C477.461 446.141 475.31 447.993 473.14 449.889C471.096 451.946 468.98 453.975 466.843 455.928C454.229 467.452 440.073 477.271 420.938 487.768C416.592 490.019 411.997 492.187 407.283 494.211C390.849 502.572 376.245 508.47 361.312 512.777C344.486 518.204 326.226 519.641 309.888 516.828C306.588 516.279 303.327 515.585 300.199 514.769C283.152 510.65 268.95 500.917 260.2 487.36C248.863 470.004 245.46 449.408 244.601 435.187C241.759 412.697 249.833 396.2 259.093 379.893C263.499 371.485 268.634 363.634 274.071 355.32C276.209 352.048 278.423 348.664 280.624 345.191C285.266 337.94 289.382 333.638 293.738 329.085C297.424 325.231 301.235 321.249 305.772 315.129C311.168 307.752 317.622 300.562 324.441 294.332ZM491.369 434.544C496.425 429.924 500.299 425.985 503.562 422.148C519.129 406.999 524.868 386.912 520.135 364.073C517.263 348.876 510.291 336.547 499.41 327.433C489.159 318.819 474.619 312.81 455.938 306.438C440.828 301.464 428.922 296.97 418.465 292.29C415.24 290.847 412.343 289.502 409.611 288.179C408.468 287.577 407.348 286.986 406.259 286.41C394.646 280.275 386.255 275.843 373.18 272.888C360.162 269.74 342.287 277.443 324.143 294.02C317.299 300.273 310.822 307.49 305.408 314.892C300.89 320.985 297.091 324.956 293.417 328.797C289.042 333.37 284.91 337.688 280.241 344.983C278.039 348.454 275.828 351.836 273.69 355.105C268.246 363.43 263.105 371.292 258.692 379.714C249.395 396.084 241.285 412.657 244.144 435.267C245.008 449.522 248.424 470.192 259.807 487.621C268.612 501.261 282.901 511.058 300.047 515.202C303.186 516.02 306.458 516.716 309.771 517.266C326.181 520.092 344.521 518.648 361.415 513.199C376.371 508.886 391.003 502.979 407.451 494.61C412.16 492.588 416.765 490.415 421.129 488.155C440.305 477.634 454.494 467.792 467.14 456.238C469.284 454.279 471.404 452.246 473.442 450.195C475.597 448.312 477.747 446.46 479.866 444.637C483.902 441.164 487.713 437.884 491.369 434.544Z" fill="#4CAF4F"/>
<path d="M497.607 422.053C495.952 423.795 494.172 425.532 492.15 427.38C487.466 431.659 482.285 435.789 476.801 440.162C473.666 442.662 470.423 445.246 467.161 447.952C465.902 449.16 464.621 450.359 463.339 451.531C450.696 463.082 436.365 473.467 416.874 485.203C412.708 487.572 408.36 489.858 403.951 491.994C387.788 501.196 374.309 507.273 360.229 511.7C344.254 517.305 326.651 518.671 310.653 515.549C307.498 514.954 304.376 514.215 301.371 513.354C285.02 508.999 271.777 499.672 263.073 486.377C251.812 469.4 248.26 449.769 247.261 436.289C244.137 414.152 252.245 398.517 262.349 381.804C266.581 374.252 271.446 367.188 276.594 359.711C279.213 355.907 281.92 351.974 284.615 347.87C289.235 340.895 293.264 336.923 297.528 332.718C301.378 328.923 305.36 324.998 310.166 318.536C315.746 310.933 322.45 303.482 329.555 296.99C347.011 281.042 363.8 273.485 375.62 276.255C388.975 279.17 396.758 283.493 408.54 290.037L410.463 291.105C413.075 292.437 415.828 293.794 418.886 295.254C428.944 300.06 439.891 304.595 454.382 309.96C471.819 316.641 485.428 322.856 495.162 331.469C505.388 340.482 511.983 352.338 514.766 366.706C519.387 388.458 513.876 407.217 498.831 420.963C498.429 421.33 498.021 421.695 497.607 422.053ZM492.448 427.691C494.479 425.835 496.267 424.089 497.913 422.356C498.311 422.01 498.723 421.644 499.128 421.274C514.307 407.405 519.871 388.494 515.216 366.583C512.416 352.13 505.78 340.201 495.487 331.127C485.707 322.474 472.062 316.241 454.581 309.542C440.099 304.182 429.164 299.651 419.117 294.852C416.062 293.392 413.313 292.038 410.71 290.71L408.794 289.645C396.98 283.084 389.175 278.749 375.763 275.822C363.789 273.014 346.838 280.617 329.258 296.679C322.128 303.194 315.401 310.669 309.802 318.3C305.02 324.728 301.053 328.639 297.217 332.42C292.932 336.646 288.886 340.635 284.236 347.655C281.545 351.755 278.839 355.684 276.22 359.488C271.065 366.975 266.195 374.05 261.956 381.613C252.184 397.778 243.668 414.136 246.807 436.375C247.808 449.888 251.373 469.592 262.68 486.642C271.439 500.018 284.764 509.402 301.208 513.783C304.222 514.647 307.358 515.389 310.523 515.987C326.601 519.123 344.293 517.75 360.341 512.12C374.448 507.685 387.96 501.594 404.136 492.381C408.544 490.248 412.902 487.956 417.081 485.579C436.611 473.821 450.967 463.417 463.636 451.842C464.921 450.668 466.205 449.465 467.453 448.267C470.698 445.576 473.938 442.994 477.071 440.496C482.564 436.118 487.749 431.982 492.448 427.691Z" fill="#4CAF4F"/>
<path d="M334.406 299.404C351.165 284.091 366.97 276.721 377.766 279.181C391.358 282.061 398.504 286.258 410.339 293.21L411.149 293.687C413.643 295.035 416.253 296.406 419.133 297.883C428.605 302.737 438.943 307.459 452.648 313.193C466.709 319.271 481.077 326.164 490.916 335.369C500.577 344.369 506.862 355.845 509.599 369.484C514.03 389.685 509.185 406.929 495.584 419.356C494.398 420.439 493.132 421.499 491.817 422.506C491.554 422.752 491.307 422.978 491.057 423.206C485.905 427.914 479.873 432.307 473.487 436.957C469.451 439.896 465.278 442.934 461.055 446.247C444.695 461.157 427.443 473.094 412.727 482.809C408.742 485.298 404.641 487.697 400.54 489.93C390.028 496.602 375.83 504.99 359.089 510.72C344.143 516.398 326.746 517.697 311.35 514.29C308.339 513.641 305.353 512.85 302.473 511.938C287.057 507.389 274.383 498.185 265.815 485.323C254.595 468.692 250.863 450.009 249.709 437.265C246.276 415.476 254.741 400.064 265.306 383.583C269.377 376.771 274.003 370.39 278.901 363.635C281.957 359.42 285.116 355.062 288.255 350.434C292.866 343.693 296.829 340.018 301.024 336.128C305.008 332.434 309.131 328.612 314.171 321.855C319.897 314.067 327.083 306.095 334.406 299.404ZM495.881 419.667C509.617 407.117 514.515 389.719 510.047 369.357C507.297 355.641 500.972 344.092 491.249 335.034C481.365 325.79 466.96 318.877 452.864 312.782C439.165 307.052 428.837 302.334 419.374 297.484C416.498 296.01 413.89 294.64 411.406 293.296L410.602 292.824C398.729 285.85 391.563 281.64 377.905 278.748C366.957 276.252 350.992 283.667 334.108 299.093C326.761 305.806 319.551 313.804 313.807 321.617C308.797 328.335 304.693 332.14 300.725 335.82C296.507 339.73 292.525 343.424 287.879 350.214C284.745 354.836 281.59 359.189 278.535 363.401C273.631 370.165 268.999 376.554 264.919 383.379C254.306 399.935 245.799 415.429 249.252 437.358C250.409 450.136 254.157 468.888 265.426 485.588C274.044 498.527 286.796 507.786 302.299 512.365C305.188 513.278 308.189 514.074 311.213 514.723C326.692 518.153 344.188 516.844 359.213 511.135C375.996 505.392 390.229 496.984 400.752 490.304C404.844 488.076 408.954 485.673 412.954 483.174C427.693 473.445 444.965 461.492 461.337 446.572C465.539 443.277 469.708 440.24 473.74 437.305C480.447 432.421 486.764 427.82 492.1 422.829C493.405 421.829 494.684 420.76 495.881 419.667Z" fill="#4CAF4F"/>
<path d="M339.933 301.686C349.299 293.129 367.011 279.216 380.41 282.175C394.123 284.989 400.575 289.008 412.289 296.304C414.721 297.705 417.185 299.09 419.864 300.566C431.133 306.771 442.632 312.326 451.391 316.475C464.407 322.828 477.749 329.993 487.131 339.302C496.227 348.291 502.199 359.386 504.882 372.282C509.137 391.075 504.877 406.952 492.566 418.201C490.72 419.887 488.674 421.492 486.479 422.969C481.703 426.889 476.177 430.508 470.327 434.341C465.489 437.509 460.487 440.787 455.402 444.548C441.363 456.622 426.717 467.618 409.042 480.418C405.229 483.039 401.375 485.547 397.595 487.867C386.849 495.466 373.803 503.995 358.422 509.739C344.239 515.581 327.516 516.78 312.537 513.035C309.671 512.336 306.82 511.494 304.062 510.531C289.596 505.795 277.495 496.721 269.061 484.286C257.877 468.004 253.972 450.28 252.667 438.276C248.934 416.79 257.366 402.223 268.777 385.412C272.712 379.24 277.134 373.457 281.817 367.332C285.281 362.804 288.861 358.121 292.409 353.056C296.019 347.94 299.177 344.812 301.789 342.427C302.888 341.422 303.957 340.492 305.092 339.505C306.214 338.53 307.378 337.519 308.558 336.442C311.128 334.093 314.602 330.697 318.685 325.234C324.706 317.066 332.252 308.704 339.933 301.686ZM492.864 418.513C505.312 407.139 509.622 391.11 505.33 372.152C502.67 359.365 496.494 347.892 487.473 338.976C478.049 329.626 464.673 322.442 451.623 316.072C442.867 311.926 431.377 306.375 420.117 300.173C417.44 298.7 414.978 297.316 412.589 295.94C400.806 288.6 394.331 284.568 380.547 281.739C366.939 278.735 349.074 292.752 339.636 301.375C331.931 308.415 324.361 316.804 318.322 324.997C314.265 330.424 310.815 333.797 308.261 336.131C307.086 337.205 305.926 338.211 304.803 339.186C303.718 340.13 302.595 341.106 301.491 342.115C298.858 344.52 295.678 347.671 292.038 352.829C288.498 357.886 284.919 362.566 281.458 367.091C276.769 373.22 272.339 379.013 268.399 385.198C256.929 402.091 248.455 416.74 252.212 438.377C253.52 450.412 257.443 468.206 268.673 484.556C277.155 497.062 289.328 506.192 303.879 510.953C306.644 511.921 309.508 512.765 312.387 513.467C327.461 517.236 344.29 516.028 358.558 510.148C373.989 504.388 387.069 495.835 397.827 488.229C401.604 485.913 405.462 483.398 409.288 480.77C426.98 467.958 441.634 456.953 455.674 444.882C460.731 441.141 465.726 437.868 470.559 434.703C476.421 430.862 481.96 427.236 486.736 423.312C488.93 421.835 490.999 420.216 492.864 418.513Z" fill="#4CAF4F"/>
<path d="M345.314 303.615C360.53 289.712 373.833 283.103 382.771 285.005C396.499 287.726 402.447 291.664 413.242 298.81C415.574 300.243 417.896 301.644 420.349 303.098C430.396 309.058 440.495 314.559 449.912 319.616C461.317 325.913 474.188 333.633 483.159 343.119C491.58 351.983 497.4 363.004 499.993 374.992C504.144 392.774 500.502 407.039 489.168 417.395C486.768 419.587 484.001 421.605 480.941 423.395C476.672 426.428 471.835 429.229 466.714 432.194C461.145 435.418 455.386 438.753 449.516 442.837C440.973 449.716 432.451 456.432 423.428 463.543C417.449 468.253 411.268 473.124 405.07 478.055C401.41 480.833 397.803 483.454 394.349 485.847C383.513 494.373 371.549 503.049 357.415 508.824C343.95 514.841 327.885 515.944 313.338 511.856C310.609 511.106 307.892 510.213 305.259 509.198C291.737 504.286 280.194 495.331 271.881 483.305C260.718 467.345 256.641 450.566 255.189 439.298C251.158 418.079 259.548 404.319 271.839 387.197C275.652 381.584 279.904 376.32 284.406 370.748C288.26 365.976 292.247 361.041 296.184 355.597C298.628 352.237 301.097 349.459 303.948 346.854C305.59 345.353 307.169 344.072 308.839 342.717C310.51 341.362 312.24 339.959 314.039 338.315C317.193 335.433 319.993 332.316 322.847 328.504C329.167 319.958 337.355 310.886 345.314 303.615ZM489.466 417.707C500.94 407.223 504.631 392.807 500.439 374.859C497.834 362.804 491.978 351.717 483.509 342.801C474.501 333.274 461.597 325.536 450.161 319.221C440.748 314.167 430.654 308.669 420.613 302.713C418.162 301.259 415.841 299.859 413.518 298.433C402.683 291.259 396.712 287.306 382.904 284.569C373.814 282.634 360.357 289.287 345.016 303.304C337.034 310.596 328.822 319.695 322.484 328.266C319.65 332.049 316.873 335.144 313.742 338.004C311.955 339.637 310.231 341.035 308.565 342.386C306.889 343.746 305.303 345.031 303.65 346.542C300.772 349.171 298.284 351.974 295.818 355.363C291.887 360.796 287.906 365.726 284.056 370.491C279.546 376.074 275.288 381.345 271.465 386.97C259.111 404.183 250.675 418.024 254.735 439.406C256.193 450.705 260.286 467.551 271.496 483.575C279.856 495.671 291.462 504.675 305.062 509.616C307.704 510.634 310.434 511.532 313.173 512.288C327.825 516.401 344.005 515.289 357.567 509.232C371.75 503.433 383.751 494.732 394.606 486.193C398.052 483.806 401.665 481.18 405.336 478.394C411.538 473.458 417.722 468.587 423.696 463.879C432.721 456.767 441.244 450.051 449.775 443.18C455.612 439.12 461.361 435.791 466.92 432.571C472.053 429.599 476.9 426.793 481.17 423.759C484.242 421.964 487.039 419.924 489.466 417.707Z" fill="#4CAF4F"/>
</g>
</svg>
