<svg width="792" height="1001" viewBox="0 0 792 1001" fill="none" xmlns="http://www.w3.org/2000/svg">
<g opacity="0.8">
<path d="M351.845 273.398C334.812 264.28 321.586 259.248 308.961 257.081C260.347 249.598 194.924 288.771 142.289 356.882C116.237 391.102 99.1671 427.134 92.9268 461.079C87.6906 490.77 90.2388 523.451 100.947 563.927C108.486 591.691 120.581 618.911 139.011 649.59C157.801 680.564 176.107 700.249 198.366 713.418C199.385 714.006 200.413 714.579 201.512 715.167C227.538 729.1 274.792 742.12 327.917 749.997C381.912 758.002 431.775 758.992 461.301 752.645C531.262 750.743 543.388 718.73 561.747 670.273C569.889 648.778 579.12 624.417 594.948 597.481C606.375 578.045 616.843 560.831 626.079 545.643C670.436 472.707 690.683 439.42 679.548 384.72C676.571 371.814 668.014 361.496 654.118 354.058C643.166 348.195 628.804 344.065 611.431 341.785C595.637 339.767 578.659 338.715 560.683 337.602C537.041 336.138 512.595 334.626 487.368 330.754C457.419 326.03 427.986 315.771 397.386 299.39C392.844 296.959 388.14 294.319 383.405 291.546C381.278 290.298 379.171 289.056 377.082 287.827C368.319 282.663 360.042 277.786 351.845 273.398ZM201.25 715.568C200.146 714.977 199.111 714.402 198.084 713.81C175.741 700.592 157.379 680.851 138.543 649.799C120.089 619.082 107.978 591.824 100.426 564.019C89.7021 523.48 87.1512 490.742 92.3981 460.987C98.6516 426.973 115.75 390.879 141.844 356.605C194.591 288.348 260.217 249.1 309.036 256.616C321.734 258.794 335.017 263.847 352.108 272.996C360.315 277.389 368.597 282.269 377.366 287.436C379.454 288.667 381.559 289.908 383.687 291.154C388.416 293.924 393.113 296.56 397.649 298.988C428.19 315.337 457.56 325.575 487.441 330.29C512.637 334.155 537.069 335.667 560.699 337.131C578.685 338.243 595.671 339.295 611.486 341.317C628.934 343.607 643.365 347.759 654.381 353.656C668.418 361.17 677.06 371.596 680.072 384.649C685.486 411.248 683.771 433.234 674.332 458.171C665.169 482.385 648.971 509.018 626.553 545.88C617.318 561.067 606.848 578.28 595.426 597.714C579.615 624.615 570.392 648.962 562.255 670.441C552.779 695.451 545.296 715.208 531.193 729.489C515.948 744.932 494.421 752.216 461.391 753.11C431.856 759.467 381.912 758.479 327.849 750.465C274.66 742.576 227.333 729.531 201.25 715.568Z" fill="#4CAF4F"/>
<path d="M204.086 710.598C204.696 710.94 205.305 711.272 205.935 711.609C230.807 724.924 276.406 737.356 327.909 744.859C380.322 752.498 428.877 753.383 457.796 747.227C525.834 745.261 538.259 714.342 557.064 667.537C565.197 647.299 574.415 624.359 589.671 599.057C600.74 580.584 610.907 564.18 619.876 549.707C663.387 479.5 683.246 447.456 673.017 394.515C670.21 380.739 661.196 369.689 646.218 361.671C636.174 356.294 623.383 352.254 608.201 349.663C589.896 345.829 569.73 343.411 548.381 340.852C528.321 338.449 507.575 335.962 486.258 332.075C442.177 323.761 405.756 306.359 382.196 293.992L378.093 291.731C373.113 288.986 368.408 286.393 363.691 283.867C343.626 273.126 326.612 265.456 308.797 262.939C261.591 256.478 197.891 294.307 146.518 359.311C120.014 392.457 102.46 427.251 95.7529 459.928C89.9309 488.968 91.9606 520.956 102.143 560.596C109.507 589.566 122.116 617.542 141.827 648.635C161.129 678.772 180.251 697.84 203.827 710.46L204.086 710.598ZM205.671 712.013C205.038 711.674 204.426 711.34 203.819 710.997L203.564 710.862C179.901 698.195 160.717 679.07 141.364 648.853C121.627 617.718 108.997 589.701 101.621 560.684C91.4237 520.98 89.3908 488.931 95.2261 459.827C101.947 427.084 119.53 392.229 146.076 359.029C197.559 293.884 261.455 255.984 308.86 262.471C326.764 265.002 343.833 272.693 363.955 283.464C368.676 285.991 373.38 288.586 378.363 291.332L382.46 293.589C405.982 305.935 442.348 323.313 486.346 331.613C507.644 335.494 528.38 337.981 548.433 340.385C569.794 342.944 589.972 345.363 608.29 349.2C623.527 351.8 636.378 355.862 646.481 361.27C661.6 369.364 670.708 380.528 673.54 394.451C683.805 447.556 663.919 479.643 620.347 549.948C611.379 564.42 601.213 580.821 590.144 599.293C574.905 624.566 565.695 647.489 557.569 667.712C547.863 691.87 540.196 710.95 526.204 724.764C511.079 739.696 490.008 746.768 457.888 747.694C428.958 753.857 380.32 752.974 327.844 745.326C276.274 737.813 230.601 725.358 205.671 712.013Z" fill="#4CAF4F"/>
<path d="M638.168 369.206C629.117 364.361 617.949 360.496 604.979 357.719C583.755 351.427 559.671 347.197 534.173 342.719C518.26 339.923 501.805 337.033 485.013 333.47C443.81 324.385 409.162 309.641 380.703 296.417L379.076 295.584C353.692 282.569 331.768 271.329 308.239 268.713C262.378 263.23 200.378 299.654 150.284 361.51C122.944 394.013 105.412 426.642 98.1741 458.497C91.8723 486.478 93.4696 518.692 103.051 556.985C110.171 586.757 123.726 616.341 144.493 647.428C164.297 676.769 184.854 695.699 209.788 707.585L210.33 707.876C234.084 720.592 278.086 732.468 328.03 739.644C378.926 746.957 426.233 747.777 454.578 741.841C520.778 739.87 533.493 710.05 552.74 664.911C560.829 645.941 569.999 624.441 584.652 600.786C595.342 583.311 605.186 567.747 613.869 554.015C656.535 486.544 676.009 455.75 666.608 404.542C663.989 389.796 654.421 377.907 638.168 369.206ZM203.863 705.122C181.388 693.091 162.378 674.83 144.037 647.658C123.238 616.522 109.661 586.89 102.528 557.069C92.9298 518.711 91.3344 486.432 97.6494 458.386C104.902 426.465 122.466 393.773 149.846 361.222C174.556 330.711 202.49 305.855 230.625 289.342C258.763 272.829 285.619 265.533 308.286 268.244C331.925 270.872 353.893 282.135 379.33 295.177L380.946 296.005C409.365 309.21 443.976 323.939 485.12 333.011C501.896 336.569 518.348 339.46 534.258 342.254C559.773 346.736 583.874 350.969 605.106 357.265C618.113 360.049 629.33 363.932 638.431 368.804C654.836 377.586 664.493 389.591 667.136 404.486C676.566 455.854 657.064 486.691 614.337 554.257C605.655 567.989 595.812 583.552 585.124 601.026C570.487 624.653 561.323 646.137 553.243 665.094C543.307 688.392 535.462 706.791 521.572 720.122C506.556 734.537 485.923 741.378 454.67 742.307C426.313 748.251 378.928 747.433 327.964 740.11C277.953 732.926 233.879 721.025 210.067 708.278L209.535 707.993C207.636 707.086 205.723 706.118 203.863 705.122Z" fill="#4CAF4F"/>
<path d="M629.511 376.431C621.609 372.201 612.175 368.64 601.475 365.849C576.911 356.31 548.022 349.776 517.436 342.858C506.47 340.379 495.13 337.814 483.679 335.041C442.166 324.575 405.836 309.859 379.308 299.116C355.021 287.617 332.096 276.76 307.911 274.828C286.017 272.622 260.081 279.805 232.896 295.599C205.657 311.425 178.526 335.113 154.434 364.102C126.637 395.481 108.65 426.883 100.974 457.435C94.0929 484.731 95.1635 516.214 104.245 553.683C111.18 584.631 125.266 614.972 147.307 646.441C164.728 671.058 182.785 687.845 204.132 699.272C207.792 701.231 211.611 703.061 215.487 704.707C238.418 716.716 280.727 727.876 328.696 734.575C378.423 741.518 422.988 742.183 450.967 736.396C515.252 734.371 528.284 705.658 548.009 662.195C556.039 644.503 565.14 624.45 579.175 602.45C589.463 586.005 598.966 571.304 607.349 558.332C649.202 493.577 668.305 464.023 659.788 414.57C657.412 398.744 647.224 385.913 629.511 376.431ZM203.869 699.675C182.443 688.205 164.329 671.366 146.856 646.682C124.778 615.158 110.669 584.764 103.722 553.76C94.6249 516.227 93.5551 484.677 100.453 457.315C108.146 426.695 126.164 395.234 154.004 363.807C178.126 334.781 205.302 311.055 232.591 295.201C259.877 279.348 285.932 272.141 307.943 274.357C332.233 276.298 355.207 287.177 379.53 298.694C406.026 309.425 442.334 324.129 483.804 334.586C495.246 337.357 506.584 339.92 517.55 342.401C548.157 349.323 577.069 355.863 601.638 365.406C612.353 368.199 621.83 371.777 629.774 376.029C647.64 385.593 657.917 398.544 660.318 414.522C668.858 464.131 649.73 493.73 607.816 558.579C599.432 571.55 589.931 586.249 579.643 602.692C565.625 624.67 556.531 644.707 548.506 662.386C538.324 684.816 530.284 702.535 516.497 715.389C501.591 729.286 481.407 735.909 451.06 736.862C423.066 742.656 378.424 741.993 328.631 735.042C280.604 728.334 238.215 717.148 215.25 705.122C211.382 703.477 207.544 701.642 203.869 699.675Z" fill="#4CAF4F"/>
<path d="M621.033 382.826C614.441 379.297 606.842 376.179 598.44 373.557C569.935 359.705 534.95 350.274 497.918 340.292C492.889 338.937 487.817 337.57 482.703 336.176C451.739 327.383 423.864 317.499 399.272 308.778C391.874 306.154 384.885 303.678 378.171 301.355C352.379 290.19 330.832 281.567 307.764 280.462C286.496 278.75 261.321 285.86 234.956 301.022C208.527 316.221 182.116 338.815 158.577 366.365C130.273 396.666 111.807 426.882 103.688 456.182C96.2121 482.819 96.7503 513.611 105.338 550.314C111.982 582.037 127.022 614.06 150.038 645.504C166.572 667.863 183.693 683.319 203.915 694.144C209.385 697.072 215.188 699.693 221.16 701.939C243.489 713.181 284.15 723.558 329.958 729.706C377.602 736.101 420.476 736.595 447.584 731.06C510.046 728.962 523.436 701.311 543.702 659.451C551.658 643.016 560.677 624.39 574.091 604.015C583.971 588.608 593.125 574.77 601.205 562.564C642.344 500.393 661.119 472.018 653.497 424.233C651.401 407.164 640.48 393.236 621.033 382.826ZM203.652 694.548C183.353 683.681 166.178 668.176 149.594 645.75C126.536 614.253 111.471 582.166 104.814 550.387C96.2105 513.618 95.6722 482.759 103.17 456.051C111.308 426.686 129.806 396.409 158.153 366.063C181.719 338.48 208.176 315.848 234.653 300.623C261.117 285.404 286.405 278.269 307.781 279.991C330.943 281.1 352.542 289.742 378.369 300.923C385.064 303.238 392.053 305.715 399.453 308.339C424.037 317.057 451.902 326.937 482.845 335.725C487.953 337.117 493.026 338.485 498.053 339.84C535.115 349.83 570.125 359.267 598.642 373.129C607.035 375.743 614.672 378.877 621.296 382.423C640.901 392.918 651.912 406.971 654.027 424.193C661.676 472.131 642.87 500.548 601.666 562.813C593.59 575.021 584.434 588.855 574.557 604.262C561.158 624.617 552.144 643.229 544.196 659.652C533.735 681.255 525.473 698.318 511.756 710.717C496.926 724.121 477.164 730.541 447.675 731.526C420.551 737.069 377.608 736.577 329.899 730.173C284.027 724.016 243.296 713.619 220.938 702.361C214.97 700.121 209.143 697.487 203.652 694.548Z" fill="#4CAF4F"/>
<path d="M586.919 377.253C557.625 361.572 521.822 350.136 481.449 337.861C465.035 332.662 449.592 327.528 434.659 322.563C413.734 315.606 393.968 309.037 376.687 304.063C352.711 294.688 330.953 286.903 307.231 286.513C286.58 285.271 262.176 292.27 236.644 306.753C211.042 321.275 185.379 342.719 162.427 368.769C133.642 397.915 114.736 426.89 106.225 454.897C98.1829 480.824 98.2342 510.885 106.383 546.799C112.876 579.697 128.515 612.517 152.864 644.357C168.333 664.378 184.996 679.005 203.801 689.072C211.041 692.948 218.854 696.28 227.023 698.976C271.057 720.209 386.598 737.323 444.466 725.75C505.14 723.651 518.876 697.1 539.671 656.91C547.502 641.769 556.38 624.609 569.121 605.907C578.54 591.599 587.311 578.683 595.046 567.287C635.444 507.783 653.883 480.625 647.076 434.533C645.299 416.073 633.485 400.877 611.968 389.358C606.896 386.644 601.255 384.136 595.202 381.902C592.518 380.324 589.747 378.767 586.919 377.253ZM203.538 689.475C184.662 679.37 167.943 664.694 152.426 644.61C128.031 612.713 112.363 579.827 105.858 546.867C97.6927 510.885 97.6428 480.754 105.709 454.756C114.24 426.681 133.183 397.646 162.01 368.459C184.987 342.38 210.693 320.901 236.343 306.351C261.967 291.816 286.482 284.792 307.233 286.04C331.044 286.432 352.854 294.235 376.86 303.623C394.127 308.591 413.898 315.164 434.829 322.121C449.762 327.086 465.201 332.217 481.607 337.415C522.007 349.699 557.84 361.145 587.181 376.852C590.015 378.369 592.793 379.93 595.437 381.491C601.47 383.709 607.136 386.23 612.23 388.957C633.912 400.564 645.815 415.886 647.608 434.501C650.905 456.826 648.345 475.334 639.046 496.379C630.148 516.52 615.62 537.922 595.509 567.542C587.773 578.937 579.004 591.853 569.582 606.16C556.858 624.843 547.985 641.991 540.157 657.122C529.424 677.863 520.95 694.248 507.306 706.161C492.552 719.043 473.202 725.227 444.558 726.217C418.308 731.468 377.051 731.101 331.409 725.197C287.688 719.545 248.588 709.901 226.816 699.404C218.652 696.711 210.809 693.367 203.538 689.475Z" fill="#4CAF4F"/>
<path d="M566.741 374.26C539.251 359.544 507.62 348.192 480.306 339.029C443.964 326.337 405.935 313.36 375.446 306.356C349.497 297.352 329.016 291.85 307.02 292.218C266.045 290.688 212.238 320.9 166.586 371.061C137.283 399.103 117.908 426.878 108.987 453.628C100.337 478.864 99.8585 508.215 107.516 543.367C113.71 576.978 130.339 611.533 155.602 643.302C170.215 661.497 185.893 674.932 203.527 684.372C212.573 689.214 222.102 693.037 232.658 696.057C253.802 705.767 291.158 714.597 332.632 719.693C376.102 725.035 415.571 725.234 440.92 720.24C499.795 718.064 513.938 692.572 535.35 653.984C543.038 640.123 551.753 624.414 563.801 607.365C572.746 594.171 581.113 582.185 588.498 571.613C627.062 516.364 646.421 488.633 640.506 444.179C639.157 424.398 625.964 407.27 602.359 394.633C599.085 392.88 595.578 391.195 591.928 389.623C584.363 384.326 575.907 379.167 566.741 374.26ZM203.264 684.774C185.561 675.298 169.831 661.818 155.169 643.565C129.857 611.733 113.197 577.107 106.991 543.431C99.3168 508.211 99.8011 478.782 108.473 453.478C117.419 426.66 136.83 398.825 166.176 370.743C211.918 320.485 265.884 290.21 307.006 291.744C331.463 291.336 354.299 298.517 375.591 305.908C406.079 312.911 444.126 325.893 480.482 338.588C507.816 347.759 539.473 359.12 567.004 373.858C576.187 378.774 584.665 383.947 592.197 389.228C595.81 390.777 599.332 392.469 602.623 394.23C626.396 406.956 639.679 424.22 641.038 444.156C646.971 488.758 627.582 516.535 588.953 571.872C581.572 582.445 573.207 594.429 564.261 607.625C552.224 624.655 543.514 640.354 535.83 654.204C524.779 674.121 516.053 689.851 502.456 701.311C487.756 713.7 468.806 719.68 441.008 720.707C415.648 725.708 376.108 725.511 332.579 720.162C291.048 715.058 253.624 706.211 232.47 696.491C221.915 693.475 212.348 689.637 203.264 684.774Z" fill="#4CAF4F"/>
<path d="M545.952 369.509C527.47 359.615 505.607 350.07 479.114 340.331C435.881 323.809 401.525 313.477 374.077 308.745C349.931 301.469 329.241 296.861 306.631 297.997C267.021 297.471 214.87 326.365 170.512 373.405C140.67 400.333 120.823 426.911 111.511 452.414C102.261 476.948 101.259 505.602 108.446 540.01C116.02 583.977 139.681 619.939 158.198 642.366C172.014 658.94 186.759 671.296 203.275 680.137C213.927 685.839 225.357 690.141 238.219 693.288C280.073 711.491 384.168 725.255 437.434 714.951C494.592 712.708 509.18 688.259 531.26 651.252C538.759 638.684 547.258 624.438 558.577 609.052C567.005 597.015 574.933 585.996 581.93 576.276C619.964 523.431 639.055 496.906 634.013 454.042C633.14 432.429 618.685 413.522 592.208 399.348C591.059 398.733 589.871 398.12 588.678 397.523C576.491 387.537 562.532 378.384 545.952 369.509ZM203.012 680.54C186.431 671.663 171.633 659.265 157.771 642.635C139.218 620.162 115.511 584.127 107.921 540.07C100.717 505.589 101.723 476.862 111.003 452.251C120.338 426.683 140.226 400.043 170.109 373.079C214.55 325.951 266.856 296.996 306.599 297.525C329.276 296.385 350.024 301.004 374.195 308.289C401.646 313.02 436.039 323.362 479.303 339.896C505.819 349.644 527.707 359.199 546.215 369.107C562.829 378 576.817 387.173 588.981 397.148C590.124 397.711 591.317 398.328 592.471 398.946C619.118 413.21 633.668 432.258 634.544 454.026C639.604 497.037 620.482 523.607 582.384 576.542C575.39 586.261 567.461 597.275 559.029 609.315C547.722 624.69 539.228 638.926 531.734 651.486C509.572 688.63 494.929 713.169 437.524 715.417C384.207 725.736 279.93 711.948 238.044 693.729C225.186 690.583 213.709 686.266 203.012 680.54Z" fill="#4CAF4F"/>
<path d="M525.899 364.239C511.407 356.481 495.666 349.225 477.785 342.06C437.178 325.18 401.758 314.893 372.504 311.486C352.564 306.414 330.737 302.013 306.007 304.073C267.741 304.507 217.262 332.01 174.247 375.849C143.444 401.968 123.716 426.601 113.918 451.175C104.083 474.972 102.595 502.897 109.361 536.551C115.112 572.008 133.421 609.2 160.918 641.285C174.007 656.421 187.894 667.806 203.369 676.09C215.53 682.599 228.815 687.285 243.987 690.414C284.708 707.075 382.414 719.494 434.244 709.723C489.747 707.467 504.803 684.083 527.594 648.684C534.833 637.441 543.039 624.696 553.56 611.01C561.415 600.191 568.848 590.201 575.41 581.388C612.949 530.971 631.79 505.664 627.571 464.379C627.192 435.921 604.431 416.877 585.406 405.908L585.352 405.868C569.307 390.683 549.859 377.065 525.899 364.239ZM203.107 676.491C187.57 668.173 173.632 656.749 160.496 641.563C132.944 609.409 114.595 572.137 108.833 536.608C102.05 502.876 103.548 474.873 113.413 451.001C123.238 426.362 143.009 401.668 173.853 375.517C216.944 331.599 267.569 304.037 305.956 303.6C330.754 301.535 352.64 305.947 372.593 311.024C401.864 314.431 437.338 324.731 477.991 341.631C495.89 348.804 511.646 356.068 526.161 363.838C550.156 376.683 569.636 390.321 585.713 405.532C604.849 416.569 627.722 435.733 628.106 464.374C632.338 505.802 613.464 531.153 575.862 581.66C569.302 590.471 561.864 600.458 554.012 611.281C543.494 624.958 535.296 637.693 528.062 648.932C505.185 684.457 490.075 707.928 434.332 710.191C382.453 719.972 284.574 707.531 243.833 690.859C228.658 687.733 215.317 683.027 203.107 676.491Z" fill="#4CAF4F"/>
<path d="M508.24 358.431C498.34 353.131 487.701 348.007 476.617 343.197C437.73 325.727 401.273 315.54 371.185 313.731C345.659 308.512 326.081 307.317 305.677 309.731C287.508 310.441 266.177 317.099 243.966 328.986C221.623 340.945 198.89 357.937 178.226 378.124C146.837 403.111 126.644 426.592 116.474 449.927C106.021 473.009 103.999 500.242 110.293 533.179C115.825 569.824 134.711 607.879 163.474 640.343C175.862 654.203 188.927 664.713 203.417 672.469C216.965 679.722 232.032 684.68 249.483 687.628C289.453 702.86 380.867 713.564 430.659 704.361C484.556 702.01 500.172 679.624 523.811 645.737C530.733 635.816 538.577 624.569 548.254 612.572C555.481 603.003 562.085 594.458 568.47 586.197C605.681 538.038 624.36 513.867 621.038 474.067C621.472 445.706 600.127 425.55 582.147 413.632L582.096 413.589C563.189 393.102 538.34 374.544 508.24 358.431ZM203.154 672.872C188.605 665.084 175.49 654.536 163.059 640.627C134.234 608.094 115.308 569.954 109.765 533.232C103.456 500.214 105.487 472.9 115.975 449.739C126.174 426.339 146.41 402.801 177.84 377.782C198.52 357.579 221.292 340.56 243.678 328.58C265.96 316.652 287.376 309.973 305.61 309.26C326.058 306.84 345.693 308.037 371.243 313.265C401.361 315.072 437.891 325.278 476.841 342.775C487.934 347.59 498.588 352.722 508.502 358.029C538.645 374.165 563.536 392.753 582.485 413.275C600.563 425.264 622.008 445.539 621.57 474.071C624.906 514.012 606.194 538.23 568.915 586.474C562.53 594.736 555.928 603.278 548.697 612.851C539.026 624.842 531.186 636.082 524.268 646C500.547 680.004 484.874 702.47 430.748 704.829C408.005 709.035 373.546 709.291 336.25 705.529C301.226 701.995 268.739 695.47 249.344 688.075C231.886 685.134 216.759 680.155 203.154 672.872Z" fill="#4CAF4F"/>
<path d="M493.71 353.84C487.844 350.7 481.729 347.64 475.536 344.741C437.392 326.31 400.875 316.491 369.927 316.342C346.169 312.708 326.283 312.517 305.404 315.718C269.283 318.18 223.274 342.432 182.305 380.598C150.334 404.405 129.695 426.703 119.189 448.784C108.129 471.123 105.598 497.639 111.447 529.849C116.781 567.662 136.273 606.564 166.331 639.402C178.08 652.13 190.399 661.853 203.991 669.129C218.835 677.076 235.624 682.221 255.32 684.858C293.682 698.331 380.597 707.55 427.434 699.12C479.817 696.697 496.06 675.306 520.64 642.926C527.14 634.365 534.505 624.66 543.243 614.394C549.757 606.146 555.767 598.687 561.58 591.475C597.404 547.01 617.139 522.517 614.688 484.164C615.915 455.937 595.974 434.661 579.028 421.78C557.742 395.603 529.052 372.759 493.71 353.84ZM203.727 669.532C190.08 662.227 177.713 652.465 165.924 639.691C135.798 606.783 116.264 567.792 110.918 529.899C105.053 497.604 107.597 471.002 118.697 448.584C129.231 426.439 149.917 404.084 181.933 380.246C222.965 342.02 269.097 317.715 305.317 315.248C326.234 312.04 346.177 312.232 369.953 315.871C400.945 316.017 437.553 325.858 475.772 344.325C481.975 347.228 488.101 350.294 493.973 353.438C529.381 372.392 558.125 395.281 579.414 421.47C596.406 434.379 616.458 455.78 615.223 484.179C617.682 522.672 597.911 547.211 562.02 591.759C556.208 598.972 550.199 606.429 543.677 614.682C534.944 624.943 527.583 634.642 521.088 643.201C496.421 675.692 480.124 697.157 427.522 699.588C405.334 703.583 373.417 703.977 337.688 700.693C304.853 697.674 274.015 691.923 255.199 685.311C235.491 682.679 218.636 677.513 203.727 669.532Z" fill="#4CAF4F"/>
<path d="M481.721 350.154C479.21 348.81 476.639 347.477 474.081 346.192C436.504 326.747 399.95 317.303 368.372 318.882C346.465 316.712 326.305 317.589 304.878 321.638C270.115 325.097 225.764 348.027 186.214 382.98C153.204 405.902 132.732 426.405 121.768 447.518C110.102 469.091 107.06 494.875 112.463 526.349C117.514 564.744 138.121 605.514 169.001 638.218C180.149 649.931 191.773 658.945 204.535 665.777C220.804 674.486 238.713 679.581 260.898 681.812C297.849 693.601 378.724 701.468 423.828 693.576C474.794 691.066 491.754 670.638 517.428 639.714C523.372 632.556 530.108 624.445 537.778 615.953C543.477 609.098 548.792 602.802 553.934 596.716C589.707 554.362 609.415 531.034 607.857 494.063C609.875 466.008 591.351 443.619 575.458 429.773C552.871 398.415 520.468 370.896 481.721 350.154ZM204.271 666.18C191.456 659.319 179.786 650.27 168.598 638.513C137.648 605.737 116.997 564.869 111.935 526.391C106.515 494.832 109.572 468.959 121.283 447.304C132.279 426.126 152.798 405.57 185.852 382.621C225.457 347.618 269.922 324.638 304.772 321.172C326.229 317.115 346.444 316.236 368.364 318.411C400.005 316.827 436.665 326.292 474.333 345.784C476.892 347.07 479.467 348.406 481.984 349.753C520.806 370.536 553.269 398.106 575.862 429.487C591.802 443.361 610.422 465.875 608.392 494.088C609.954 531.198 590.211 554.574 554.367 597.009C549.226 603.094 543.909 609.388 538.208 616.249C530.538 624.742 523.804 632.851 517.864 640.003C504.593 655.988 494.112 668.614 480.289 677.875C465.365 687.874 447.979 692.863 423.916 694.046C402.636 697.769 372.399 698.312 338.808 695.564C308.19 693.059 279.028 688.089 260.798 682.27C238.593 680.043 220.611 674.927 204.271 666.18Z" fill="#4CAF4F"/>
<path d="M470.023 345.718C433.929 326.397 398.375 317.91 367.204 321.178C346.681 320.313 327.414 322.217 304.691 327.354C271.221 331.838 228.479 353.502 190.327 385.312C156.663 407.056 135.742 426.44 124.461 446.331C112.336 466.875 108.662 492.681 113.536 523.045C118.355 562.622 139.551 604.283 171.692 637.353C182.285 648.176 193.276 656.561 205.287 662.991C222.707 672.316 242.169 677.436 266.536 679.099C303.336 689.55 376.92 695.696 420.405 688.296C470.17 685.651 487.073 667.13 515.077 636.446C520.54 630.461 526.187 624.275 532.631 617.598C537.38 612.203 541.879 607.157 546.225 602.274C582.248 561.853 602.089 539.588 601.471 503.837C604.296 475.931 587.194 452.397 572.351 437.563C548.84 400.834 514.522 369.664 473.074 347.376C472.052 346.814 471.039 346.262 470.023 345.718ZM205.023 663.395C192.96 656.937 181.926 648.517 171.293 637.655C139.079 604.51 117.835 562.75 113.007 523.085C108.117 492.632 111.81 466.729 123.984 446.102C135.301 426.149 156.27 406.714 189.977 384.943C228.176 353.092 271.022 331.384 304.565 326.891C327.315 321.746 346.63 319.837 367.164 320.706C398.412 317.427 434.086 325.936 470.287 345.315C471.304 345.86 472.32 346.413 473.34 346.977C514.869 369.306 549.255 400.54 572.779 437.3C587.662 452.165 604.845 475.82 602.004 503.872C602.626 539.763 582.742 562.073 546.652 602.578C542.301 607.458 537.806 612.503 533.05 617.904C526.602 624.585 520.959 630.771 515.499 636.751C501.507 652.083 490.455 664.191 476.395 673.086C461.233 682.681 443.993 687.516 420.489 688.765C400.1 692.237 371.517 692.942 340.041 690.745C311.629 688.763 284.118 684.581 266.453 679.56C242.061 677.901 222.52 672.761 205.023 663.395Z" fill="#4CAF4F"/>
<path d="M463.961 344.294C429.827 326.021 395.903 318.876 365.857 323.631C347.214 323.94 328.238 326.884 304.287 333.18C272.047 338.67 230.906 359.027 194.21 387.641C159.4 408.439 138.662 426.141 126.94 445.064C114.202 464.853 110.006 489.937 114.462 519.628C119.085 560.383 140.924 602.94 174.385 636.394C184.481 646.421 194.904 654.247 206.246 660.318C224.782 670.241 245.767 675.334 272.284 676.347C307.474 685.022 375.6 689.921 417.196 683.094C466.069 680.326 484.038 662.529 513.812 633.046C518.202 628.702 522.741 624.203 527.7 619.439C531.306 615.612 534.792 611.939 538.144 608.406C574.748 569.832 594.909 548.584 595.233 513.907C598.833 486.188 583.124 461.489 569.316 445.648C546.455 405.688 512.81 372.213 471.984 348.796C469.327 347.235 466.627 345.721 463.961 344.294ZM205.983 660.721C194.592 654.623 184.128 646.766 173.991 636.699C140.455 603.168 118.564 560.512 113.932 519.664C109.459 489.881 113.678 464.695 126.471 444.822C138.232 425.837 159.02 408.085 193.874 387.261C230.609 358.616 271.84 338.22 304.141 332.722C328.113 326.417 347.132 323.468 365.784 323.162C395.919 318.39 429.973 325.557 464.223 343.892C466.897 345.323 469.603 346.841 472.267 348.405C513.17 371.865 546.886 405.41 569.76 445.408C583.607 461.283 599.383 486.1 595.766 513.955C595.444 548.773 575.239 570.065 538.56 608.719C535.207 612.253 531.723 615.924 528.108 619.76C523.143 624.529 518.605 629.024 514.217 633.371C499.314 648.126 487.548 659.781 473.125 668.342C457.587 677.561 440.365 682.256 417.281 683.562C375.649 690.396 307.407 685.491 272.22 676.812C245.669 675.804 224.602 670.688 205.983 660.721Z" fill="#4CAF4F"/>
<path d="M459.005 343.462C426.348 325.98 393.661 320 364.476 326.171C344.768 327.717 326.015 332.458 303.911 339.106C272.382 345.726 233.864 364.297 198.209 390.063C174.307 403.218 144.932 421.207 129.583 443.871C116.233 462.886 111.508 487.233 115.538 516.237C119.878 557.529 142.903 602.061 177.132 635.366C186.755 644.674 196.644 651.987 207.36 657.724C227.213 668.352 248.992 673.213 277.978 673.478C312.128 680.5 374.813 683.881 413.78 677.729C462.166 674.783 481.543 657.538 513.648 628.965C516.488 626.44 519.421 623.829 522.478 621.133C524.661 618.993 526.805 616.899 528.896 614.85C565.342 579.199 587.339 557.678 588.676 523.879C593.046 496.387 578.76 470.535 566.006 453.685C544.228 411.17 510.405 374.452 470.75 350.258C466.869 347.843 462.917 345.556 459.005 343.462ZM207.097 658.126C196.333 652.364 186.403 645.022 176.744 635.679C160.696 620.062 146.636 601.45 136.084 581.848C124.389 560.126 117.296 538.064 115.006 516.271C110.962 487.163 115.711 462.716 129.122 443.614C144.526 420.869 173.963 402.84 197.887 389.674C233.574 363.884 272.167 345.281 303.743 338.651C325.861 331.999 344.648 327.249 364.37 325.706C393.657 319.511 426.485 325.51 459.268 343.059C463.191 345.159 467.154 347.453 471.044 349.874C490.818 361.936 509.041 376.916 525.204 394.397C541.583 412.108 555.465 431.982 566.469 453.468C579.254 470.353 593.598 496.322 589.207 523.938C587.867 557.882 565.822 579.448 529.301 615.177C527.205 617.222 525.065 619.317 522.874 621.466C519.805 624.169 516.873 626.781 514.036 629.304C481.848 657.952 462.418 675.245 413.865 678.199C374.86 684.355 312.08 680.971 277.934 673.947C248.905 673.682 227.04 668.802 207.097 658.126Z" fill="#4CAF4F"/>
<path d="M454.647 342.953C423.121 326.076 391.381 321.133 362.863 328.659C343.025 331.495 323.732 338.035 303.306 344.961C272.813 352.676 235.893 369.961 201.992 392.389C176.107 405.435 147.572 421.587 132.024 442.559C118.065 460.783 112.817 484.386 116.428 512.708C120.56 555.128 144.22 600.536 179.717 634.181C188.9 642.836 198.295 649.684 208.442 655.116C229.319 666.292 252.472 671.025 283.511 670.461C316.438 675.764 372.797 677.878 410.203 672.237C458.908 669.043 480.321 651.994 515.799 623.747L517.086 622.723L518.07 621.845C556.365 587.664 579.481 567.034 581.919 533.777C587.044 506.55 574.181 479.536 562.489 461.664C541.512 416.057 508.416 377.008 469.284 351.679C464.461 348.506 459.537 345.571 454.647 342.953ZM208.179 655.519C197.987 650.063 188.553 643.187 179.334 634.496C143.753 600.773 120.038 555.254 115.896 512.737C112.274 484.305 117.548 460.601 131.575 442.286C147.182 421.235 175.776 405.049 201.688 391.989C235.61 369.546 272.59 352.236 303.12 344.511C323.549 337.584 342.866 331.035 362.724 328.198C391.359 320.639 423.247 325.601 454.91 342.551C459.815 345.176 464.754 348.121 469.59 351.303C508.805 376.684 541.967 415.811 562.966 461.471C574.685 479.38 587.597 506.505 582.451 533.85C580.001 567.254 556.835 587.93 518.457 622.184L517.462 623.071L516.163 624.105C480.605 652.417 459.145 669.503 410.29 672.706C372.847 678.351 316.408 676.238 283.488 670.93C252.397 671.5 229.152 666.746 208.179 655.519Z" fill="#4CAF4F"/>
<path d="M451.434 342.598C420.812 326.205 389.829 322.223 361.833 331.082C345.81 334.468 329.925 340.571 313.107 347.031C309.895 348.265 306.626 349.52 303.287 350.785C273.458 359.755 238.129 375.779 206.345 394.755C179.935 406.882 150.832 421.889 135.017 441.343C120.44 458.786 114.657 481.655 117.833 509.316C121.729 552.879 145.991 599.172 182.734 633.15C191.499 641.216 200.433 647.64 210.047 652.786C231.911 664.491 256.397 669.049 289.436 667.563C320.812 671.077 371.241 671.945 407.004 666.807C453.635 663.475 477.807 648.525 512.082 624.3C549.147 594.798 572.052 575.11 575.597 543.591C581.476 516.637 570.058 488.446 559.446 469.539C539.345 420.85 507.007 379.471 468.371 352.995C462.808 349.133 457.109 345.635 451.434 342.598ZM209.784 653.189C200.127 648.019 191.156 641.571 182.354 633.472C145.525 599.41 121.208 553.007 117.302 509.34C114.113 481.565 119.926 458.588 134.58 441.055C150.456 421.526 179.622 406.485 206.059 394.345C237.854 375.362 273.226 359.319 303.08 350.342C306.399 349.085 309.667 347.829 312.877 346.596C329.718 340.127 345.622 334.018 361.662 330.627C375.17 326.353 389.588 325.067 404.492 326.813C420.18 328.651 436.062 333.827 451.697 342.196C457.39 345.244 463.106 348.753 468.689 352.626C507.407 379.158 539.81 420.617 559.935 469.367C570.572 488.315 582.028 516.613 576.126 543.677C572.566 575.343 549.604 595.082 512.437 624.666C478.077 648.954 453.846 663.936 407.087 667.276C371.297 672.42 320.803 671.551 289.437 668.034C256.33 669.526 231.749 664.947 209.784 653.189Z" fill="#4CAF4F"/>
<path d="M448.106 342.639C418.172 326.616 387.761 323.507 360.162 333.651C346.8 337.426 333.581 343.232 319.584 349.379C314.114 351.781 308.456 354.265 302.582 356.722C280.756 364.408 246.983 377.66 209.948 397.179C181.624 408.917 153.227 422.24 137.227 440.148C122.027 456.792 115.724 478.93 118.495 505.944C122.191 550.666 147.115 597.867 185.174 632.21C193.446 639.642 202.209 645.858 211.219 650.681C234.077 662.918 259.892 667.282 294.922 664.836C322.21 666.435 366.981 666.553 403.482 661.625C447.158 658.238 473.498 646.558 506.832 626.185C544.628 600.171 564.627 581.82 569.025 553.736C575.622 527.083 565.627 497.689 556.078 477.722C536.832 425.95 505.182 382.209 466.947 354.536C460.774 350.029 454.435 346.027 448.106 342.639ZM210.956 651.084C201.906 646.239 193.106 639.998 184.802 632.535C167.147 616.603 151.693 597.061 140.108 576.022C127.517 553.151 119.86 528.924 117.962 505.966C115.179 478.829 121.518 456.581 136.805 439.843C152.868 421.866 181.323 408.512 209.682 396.76C246.724 377.236 280.525 363.974 302.353 356.287C308.208 353.837 313.863 351.354 319.332 348.954C333.344 342.799 346.581 336.986 359.96 333.206C373.277 328.312 387.46 326.493 402.096 327.811C417.511 329.199 433.079 334.052 448.368 342.237C454.721 345.638 461.082 349.655 467.275 354.175C505.593 381.907 537.306 425.73 556.578 477.572C566.146 497.585 576.174 527.081 569.548 553.836C567.37 567.77 561.091 579.954 549.795 592.161C538.445 604.423 522.597 615.945 507.16 626.57C473.741 646.994 447.34 658.7 403.565 662.093C367.042 667.026 322.223 666.909 294.947 665.306C259.835 667.763 233.919 663.376 210.956 651.084Z" fill="#4CAF4F"/>
<path d="M445.474 342.596C416.144 326.895 386.234 324.63 358.975 336.049C347.6 340.12 336.338 345.783 324.414 351.778C317.385 355.312 310.114 358.969 302.418 362.503C297.047 364.703 291.426 366.981 285.591 369.345C263.88 378.141 239.275 388.11 214.17 399.477C180.767 411.875 155.4 423.312 140.116 438.84C124.298 454.678 117.467 476.075 119.815 502.435C123.223 547.604 149.395 596.878 188.115 631.031C196.023 637.978 204.373 643.825 212.934 648.408C237.053 661.32 263.319 665.322 300.76 661.794C313.558 661.782 358.461 661.337 400.187 656.071C439.276 652.736 468.686 644.506 501.716 627.662C529.684 611.735 556.419 592.933 562.558 563.476C568.343 542.646 564.996 515.704 552.88 485.551C534.572 430.751 503.67 384.687 465.868 355.837C459.207 350.729 452.346 346.274 445.474 342.596ZM212.671 648.811C204.072 644.208 195.686 638.335 187.748 631.358C169.572 615.328 153.669 595.486 141.753 573.974C128.821 550.629 121.052 525.897 119.283 502.45C116.923 475.963 123.796 454.452 139.709 438.521C155.054 422.927 180.477 411.464 213.929 399.046C239.027 387.683 263.638 377.711 285.353 368.913C291.186 366.55 296.807 364.272 302.167 362.077C309.844 358.55 317.11 354.897 324.136 351.365C336.076 345.363 347.353 339.693 358.745 335.614C371.898 330.104 385.877 327.767 400.285 328.672C415.464 329.624 430.755 334.174 445.737 342.194C452.636 345.887 459.523 350.359 466.208 355.484C504.09 384.396 535.053 430.543 553.386 485.42C565.532 515.65 568.888 542.687 563.08 563.594C560.384 576.531 553.78 588.097 542.89 598.931C533.502 608.273 520.512 617.532 502.007 628.068C468.897 644.953 439.427 653.201 400.268 656.542C358.525 661.809 313.589 662.254 300.811 662.265C263.271 665.805 236.901 661.782 212.671 648.811Z" fill="#4CAF4F"/>
<path d="M443.035 342.66C414.592 327.434 384.267 325.933 357.645 338.433C347.809 342.737 338.049 348.328 327.714 354.248C319.561 358.917 311.129 363.747 302.054 368.296C279.643 378.896 252.732 388.917 224.243 399.527L218.106 401.813C189.329 411.273 159.806 421.829 142.648 437.603C126.196 452.641 118.832 473.317 120.764 499.056C123.943 545.386 150.765 595.601 190.763 630.105C198.334 636.617 206.306 642.13 214.457 646.493C245.99 663.373 278.642 662.31 306.421 659.043C323.696 657.886 358.389 655.281 396.815 650.811C428.445 647.822 462.423 643.162 496.626 629.412C531.013 614.405 549.935 596.617 556.168 573.434C562.595 552.578 560.432 525.694 549.744 493.522C532.378 435.657 502.195 387.228 464.757 357.152C457.686 351.466 450.377 346.59 443.035 342.66ZM214.194 646.896C206.007 642.513 198 636.976 190.398 630.439C150.305 595.849 123.418 545.512 120.231 499.067C118.288 473.194 125.7 452.4 142.255 437.268C159.488 421.425 189.069 410.848 217.891 401.371L224.019 399.089C252.498 388.485 279.397 378.467 301.782 367.878C310.84 363.339 319.264 358.513 327.411 353.847C337.759 347.921 347.532 342.323 357.387 338.011C370.42 331.891 384.248 329.046 398.483 329.556C413.483 330.095 428.561 334.367 443.298 342.256C450.671 346.203 458.009 351.099 465.107 356.807C502.623 386.948 532.865 435.463 550.259 493.411C560.973 525.664 563.137 552.636 556.688 573.568C550.417 596.883 531.41 614.767 496.869 629.84C462.594 643.621 428.567 648.291 396.899 651.281C358.467 655.75 323.764 658.356 306.499 659.513C278.639 662.791 245.875 663.855 214.194 646.896Z" fill="#4CAF4F"/>
<path d="M481.42 339.927C453.38 324.916 423.389 324.214 396.972 337.948C388.387 342.428 379.839 347.972 370.791 353.84C361.808 359.668 352.518 365.694 342.36 371.219C322.652 381.938 298.837 390.928 262.731 401.277C232.106 410.075 203.186 419.159 185.892 433.492C168.808 447.722 160.912 467.673 162.424 492.795C165.367 540.278 192.828 591.421 234.09 626.266C241.338 632.374 248.95 637.577 256.715 641.733C289.433 659.248 323.611 657.44 352.726 653.361C357.465 652.693 362.318 651.995 367.292 651.278C387.119 648.425 409.59 645.19 434.056 642.61C439.85 642 445.842 641.418 451.638 640.857C478.708 638.23 506.697 635.515 532.125 628.225C562.1 619.62 582.779 602.659 590.35 580.467C597.315 559.905 596.253 532.357 587.193 498.584C570.794 437.678 541.347 386.893 504.27 355.581C496.857 349.341 489.168 344.075 481.42 339.927ZM256.452 642.137C248.652 637.962 241.007 632.736 233.729 626.604C192.368 591.673 164.84 540.404 161.89 492.801C160.369 467.538 168.319 447.467 185.518 433.142C202.888 418.747 231.867 409.64 262.548 400.827C298.614 390.487 322.395 381.512 342.067 370.812C352.207 365.297 361.489 359.277 370.465 353.455C379.523 347.579 388.08 342.03 396.69 337.538C409.624 330.814 423.324 327.47 437.415 327.598C452.262 327.737 467.156 331.748 481.683 339.524C489.467 343.691 497.187 348.981 504.631 355.244C523.093 370.836 539.728 391.322 554.077 416.136C568.31 440.751 579.625 468.459 587.713 498.492C596.794 532.347 597.853 559.978 590.863 580.62C583.243 602.957 562.447 620.026 532.307 628.676C506.83 635.98 478.812 638.699 451.717 641.328C445.923 641.889 439.933 642.47 434.142 643.083C409.684 645.658 387.22 648.892 367.397 651.745C362.427 652.462 357.569 653.159 352.83 653.829C323.615 657.922 289.322 659.733 256.452 642.137Z" fill="#4CAF4F"/>
<path d="M436.902 347.575C408.985 332.631 379.685 331.595 354.4 344.661C345.441 349.285 336.691 354.995 327.428 361.039C319.183 366.42 310.657 371.983 301.343 377.196C296.968 379.626 292.226 382.045 287.248 384.387C270.74 392.154 251.411 399.228 224.575 407.325C195.164 416.247 167.384 425.427 150.713 439.601C134.264 453.643 126.635 473.115 128.035 497.475C129.63 525.558 139.998 554.227 158.016 580.384C169.408 597.254 183.845 613.029 199.768 626.009C206.745 631.772 214.07 636.721 221.535 640.717C241.596 651.456 263.638 656.108 290.899 655.354C298.375 655.128 306.361 654.491 315.309 653.408C322.348 652.597 329.557 651.72 337.19 650.793C354.3 648.718 373.69 646.361 394.356 644.381C397.735 644.067 401.138 643.759 404.56 643.451C427.834 641.348 451.901 639.175 474.496 634.095C479.863 632.891 485.022 631.552 489.827 630.112C518.745 621.502 538.796 604.825 546.285 583.158C553.249 562.928 552.448 536.076 543.91 503.349C538.366 481.345 529.943 459.622 518.876 438.784C511.251 424.223 502.402 410.336 492.576 397.51C482.698 384.642 472.262 373.736 459.726 363.189C452.351 356.988 444.671 351.734 436.902 347.575ZM221.273 641.119C213.774 637.105 206.417 632.136 199.413 626.349C183.451 613.34 168.98 597.524 157.562 580.617C139.497 554.391 129.1 525.643 127.501 497.481C126.092 472.982 133.775 453.392 150.335 439.254C167.081 425.016 194.916 415.815 224.385 406.877C251.194 398.786 270.5 391.721 286.983 383.968C291.95 381.63 296.681 379.217 301.046 376.793C310.344 371.589 318.862 366.03 327.099 360.655C336.374 354.602 345.134 348.886 354.117 344.25C379.576 331.095 409.07 332.133 437.165 347.173C444.969 351.351 452.68 356.626 460.085 362.85C472.65 373.424 483.115 384.358 493.015 397.255C502.858 410.103 511.721 424.013 519.359 438.598C530.442 459.468 538.879 481.225 544.432 503.263C552.991 536.069 553.787 563.003 546.797 583.314C539.257 605.122 519.093 621.904 490.016 630.562C485.198 632.004 480.027 633.348 474.649 634.553C452.016 639.643 427.931 641.818 404.635 643.922C401.214 644.229 397.81 644.536 394.433 644.853C373.775 646.832 355.224 649.084 337.282 651.261C329.65 652.19 322.44 653.067 315.401 653.877C306.434 654.963 298.433 655.6 290.94 655.826C263.567 656.584 241.431 651.91 221.273 641.119Z" fill="#4CAF4F"/>
<path d="M432.794 352.209C405.05 337.357 376.482 335.997 352.353 348.379C343.002 353.15 334.06 359.029 324.592 365.253C317.102 370.176 309.358 375.268 300.908 380.137C296.708 382.524 292.14 384.919 287.33 387.257C271.378 395.013 252.796 402.12 227.08 410.299C198.912 419.328 172.303 428.591 156.271 442.593C140.475 456.435 133.119 475.405 134.41 498.98C135.843 526.744 146.272 554.485 164.567 579.204C175.882 595.106 189.871 609.651 206.151 622.436C212.842 627.847 219.861 632.531 227.01 636.358C246.627 646.859 268.182 651.679 294.849 651.529C302.116 651.453 309.847 650.993 318.486 650.123C328.577 649.23 339.136 648.182 350.314 647.071C364.533 645.657 379.235 644.196 395.171 642.832L396.868 642.695C422.277 640.666 448.549 638.565 473.121 632.742C478.293 631.521 483.284 630.163 487.945 628.705C515.777 620.097 535.179 603.729 542.575 582.611C549.53 562.732 548.992 536.608 540.981 504.963C535.959 483.581 527.64 462.802 515.552 441.435C507.886 427.522 499.093 414.36 488.674 401.195C479.202 389.273 469.311 379.28 455.604 367.786C448.266 361.624 440.592 356.383 432.794 352.209ZM226.746 636.761C219.566 632.917 212.519 628.213 205.801 622.783C189.486 609.968 175.462 595.386 164.122 579.447C145.774 554.659 135.312 526.835 133.875 498.983C132.579 475.273 139.983 456.186 155.888 442.249C171.991 428.187 198.658 418.902 226.882 409.854C252.571 401.683 271.131 394.585 287.059 386.84C291.859 384.507 296.416 382.116 300.606 379.736C309.042 374.875 316.78 369.788 324.262 364.869C333.74 358.637 342.695 352.751 352.072 347.967C363.937 341.879 376.946 339.08 390.738 339.651C404.841 340.234 419.079 344.324 433.057 351.807C440.889 355.999 448.595 361.263 455.963 367.45C469.7 378.969 479.613 388.983 489.106 400.935C499.543 414.122 508.351 427.305 516.03 441.239C528.139 462.642 536.472 483.461 541.503 504.88C549.535 536.605 550.07 562.811 543.087 582.766C535.641 604.024 516.128 620.498 488.139 629.152C483.464 630.615 478.465 631.973 473.277 633.199C448.665 639.031 422.368 641.133 396.935 643.166L395.243 643.303C379.315 644.666 364.612 646.129 350.394 647.541C339.214 648.652 328.655 649.701 318.562 650.594C309.912 651.464 302.164 651.926 294.876 652.002C268.104 652.154 246.454 647.311 226.746 636.761Z" fill="#4CAF4F"/>
<path d="M428.616 356.805C401.416 342.244 372.812 340.513 350.136 352.054C340.344 356.987 331.201 363.051 321.52 369.472C314.783 373.94 307.819 378.559 300.229 383.064C296.19 385.41 291.79 387.783 287.149 390.117C271.73 397.869 253.866 405.012 229.228 413.277C202.261 422.416 176.78 431.764 161.361 445.609C146.196 459.265 139.111 477.758 140.301 500.574C141.586 528.058 152.103 554.909 170.716 578.231C181.787 592.946 195.75 606.709 212.216 619.147C218.624 624.211 225.339 628.63 232.174 632.289C251.39 642.576 272.511 647.583 298.646 648.051C305.722 648.126 313.213 647.846 321.546 647.192C336.077 646.321 351.756 645.087 368.355 643.782C377.236 643.082 386.418 642.359 396 641.646C420.936 640.005 447.333 637.892 471.885 631.763C476.887 630.522 481.712 629.146 486.232 627.671C513.02 619.066 531.8 602.985 539.109 582.391C546.06 562.839 545.773 537.406 538.262 506.799C533.682 485.825 525.458 465.941 512.373 444.219C504.797 431.172 495.797 418.331 484.851 404.952C474.563 392.435 464.831 383.539 451.497 372.4C444.17 366.257 436.472 361.011 428.616 356.805ZM231.911 632.691C225.047 629.017 218.305 624.577 211.873 619.496C195.373 607.033 181.377 593.234 170.279 578.487C151.607 555.094 141.055 528.151 139.767 500.575C138.569 477.628 145.704 459.019 160.974 445.271C176.461 431.361 201.998 421.99 229.018 412.834C253.634 404.577 271.476 397.443 286.87 389.704C291.502 387.374 295.892 385.006 299.922 382.667C307.498 378.168 314.458 373.553 321.187 369.09C330.882 362.66 340.039 356.587 349.856 351.641C372.702 340.013 401.505 341.748 428.879 356.402C436.77 360.626 444.5 365.895 451.856 372.062C465.213 383.22 474.965 392.137 485.28 404.684C496.242 418.084 505.258 430.948 512.842 444.012C525.954 465.776 534.196 485.703 538.784 506.722C546.318 537.405 546.598 562.919 539.62 582.549C532.259 603.28 513.373 619.464 486.433 628.118C481.904 629.595 477.064 630.975 472.049 632.218C447.45 638.359 421.024 640.476 396.063 642.117C386.486 642.831 377.303 643.553 368.423 644.251C351.821 645.559 336.141 646.792 321.611 647.662C313.261 648.317 305.753 648.598 298.659 648.524C272.423 648.055 251.214 643.024 231.911 632.691Z" fill="#4CAF4F"/>
<path d="M424.645 361.056C397.669 346.615 369.833 344.592 348.271 355.508C338.009 360.63 328.671 366.906 318.784 373.55C312.809 377.565 306.629 381.718 299.91 385.844C296.041 388.153 291.81 390.51 287.331 392.849C272.456 400.619 255.322 407.823 231.77 416.209C207.049 425.122 181.676 434.968 166.88 448.678C152.34 462.174 145.504 480.205 146.558 502.27C147.651 529.479 158.204 555.44 177.077 577.348C187.831 590.847 201.727 603.818 218.384 615.908C224.483 620.609 230.864 624.754 237.355 628.229C256.143 638.286 276.813 643.466 302.404 644.529C309.275 644.747 316.516 644.634 324.547 644.186C346.417 643.504 370.834 641.945 396.686 640.294C419.361 639.11 445.853 637.022 470.433 630.517C475.257 629.252 479.917 627.852 484.291 626.352C510.019 617.715 528.181 601.893 535.426 581.8C542.398 562.559 542.402 537.81 535.441 508.238C531.305 487.545 523.217 468.54 509.215 446.612C501.718 434.315 492.798 422.153 481.148 408.339C470.422 395.699 460.697 387.595 448.383 377.333L447.591 376.675C440.283 370.548 432.563 365.295 424.645 361.056ZM237.092 628.631C230.573 625.142 224.165 620.982 218.049 616.264C201.358 604.15 187.428 591.145 176.652 577.618C157.712 555.637 147.12 529.579 146.025 502.269C144.963 480.075 151.846 461.931 166.485 448.345C181.351 434.572 206.782 424.7 231.553 415.769C255.081 407.392 272.194 400.197 287.047 392.44C291.517 390.104 295.74 387.753 299.597 385.451C306.304 381.333 312.479 377.182 318.451 373.168C328.351 366.515 337.703 360.229 347.993 355.094C369.724 344.093 397.759 346.12 424.908 360.653C432.86 364.91 440.614 370.185 447.951 376.337L448.741 376.994C461.074 387.272 470.814 395.389 481.572 408.066C493.24 421.9 502.171 434.079 509.68 446.395C523.714 468.372 531.818 487.424 535.966 508.167C542.944 537.812 542.933 562.641 535.936 581.961C528.641 602.186 510.373 618.108 484.499 626.796C480.115 628.298 475.437 629.702 470.602 630.972C445.974 637.491 419.446 639.581 396.741 640.766C370.889 642.418 346.465 643.976 324.59 644.655C316.554 645.106 309.294 645.222 302.403 645.003C276.713 643.936 255.961 638.732 237.092 628.631Z" fill="#4CAF4F"/>
<path d="M420.551 365.697C393.807 351.38 366.751 349.045 346.319 359.291C335.563 364.589 326.053 371.065 315.984 377.922C310.776 381.469 305.393 385.137 299.553 388.837C295.797 391.137 291.851 393.402 287.487 395.766C273.174 403.517 256.775 410.748 234.321 419.209C210.785 428.209 186.62 438.131 172.449 451.676C158.561 464.968 152.002 482.499 152.96 503.779C153.905 530.672 164.537 555.715 183.71 576.201C194.268 588.636 207.737 600.474 224.896 612.4C230.672 616.735 236.709 620.594 242.844 623.878C261.233 633.723 281.479 639.103 306.557 640.808C313.226 641.181 320.221 641.244 327.939 641.009C347.001 641.025 368.536 640.369 397.768 638.881C427.079 637.815 449.83 634.78 469.368 629.329C474.013 628.049 478.507 626.63 482.732 625.114C507.384 616.495 524.9 600.984 532.057 581.438C538.915 562.811 539.176 538.115 532.809 510.022C528.059 484.142 516.062 464.036 506.143 449.413C496.697 434.725 485.851 421.785 477.457 412.155C468.024 401.409 459.459 394.378 449.541 386.239C447.642 384.681 445.683 383.073 443.645 381.38C436.327 375.26 428.558 369.983 420.551 365.697ZM242.581 624.281C236.421 620.984 230.36 617.109 224.568 612.763C207.378 600.814 193.877 588.945 183.296 576.486C164.052 555.923 153.374 530.777 152.425 503.778C151.464 482.371 158.067 464.728 172.052 451.347C186.289 437.738 210.508 427.794 234.093 418.773C256.526 410.32 272.903 403.1 287.194 395.36C291.55 393.001 295.489 390.74 299.233 388.446C305.062 384.753 310.444 381.088 315.647 377.544C325.731 370.675 335.255 364.188 346.044 358.876C366.643 348.546 393.896 350.885 420.814 365.295C428.855 369.599 436.658 374.897 444.002 381.043C446.04 382.734 447.998 384.34 449.894 385.898C459.831 394.053 468.412 401.095 477.873 411.874C486.28 421.52 497.142 434.476 506.602 449.186C516.543 463.843 528.569 484 533.336 509.955C539.72 538.12 539.453 562.896 532.564 581.599C525.364 601.276 507.742 616.887 482.948 625.554C478.713 627.072 474.205 628.497 469.548 629.782C449.963 635.243 427.172 638.287 397.815 639.351C368.575 640.843 347.035 641.5 327.969 641.482C320.244 641.719 313.232 641.654 306.543 641.281C281.371 639.568 261.047 634.167 242.581 624.281Z" fill="#4CAF4F"/>
<path d="M416.247 370.226C390.193 356.278 363.283 353.605 344.261 363.07C332.978 368.56 323.313 375.263 313.081 382.358C308.637 385.44 304.041 388.626 299.078 391.887C295.498 394.142 291.719 396.387 287.522 398.754C273.955 406.4 257.821 413.896 236.748 422.344C214.4 431.454 191.445 441.474 177.89 454.884C164.641 467.995 158.346 485.042 159.18 505.551C159.949 532.141 170.629 556.273 190.067 575.337C200.334 586.645 213.36 597.39 231.071 609.161C236.496 613.116 242.156 616.677 247.902 619.753C265.89 629.382 285.721 634.957 310.31 637.302C316.773 637.823 323.517 638.062 330.925 638.028C350.954 638.703 373.027 638.56 398.412 637.594C425.247 637.042 448.605 633.882 467.842 628.198C472.303 626.898 476.634 625.458 480.711 623.921C504.287 615.293 521.167 600.067 528.247 581.042C535.115 562.741 535.659 538.772 529.819 511.726C525.635 486.528 513.807 467.453 502.788 452.119C493.852 438.916 483.45 426.897 473.542 415.878C464.981 406.432 457.485 400.447 448.807 393.518C445.862 391.168 442.819 388.736 439.525 386.008C432.191 379.878 424.36 374.569 416.247 370.226ZM247.638 620.156C241.868 617.067 236.187 613.492 230.752 609.529C213.011 597.739 199.954 586.966 189.668 575.635C170.147 556.494 159.418 532.253 158.646 505.547C157.806 484.917 164.145 467.763 177.485 454.561C191.105 441.088 214.112 431.044 236.51 421.912C257.562 413.473 273.676 405.986 287.223 398.352C291.413 395.99 295.185 393.748 298.753 391.501C303.706 388.247 308.299 385.062 312.741 381.982C322.989 374.874 332.67 368.161 343.988 362.654C353.806 357.768 365.348 356.001 378.29 357.402C390.602 358.734 403.819 363.03 416.51 369.823C424.657 374.185 432.521 379.516 439.881 385.669C443.174 388.396 446.215 390.824 449.157 393.172C457.853 400.117 465.365 406.113 473.953 415.592C483.876 426.627 494.289 438.66 503.239 451.882C514.285 467.256 526.147 486.387 530.343 511.665C536.2 538.78 535.65 562.83 528.754 581.206C521.628 600.358 504.646 615.683 480.934 624.357C476.846 625.899 472.501 627.343 468.029 628.647C448.745 634.344 425.332 637.514 398.453 638.068C373.054 639.034 350.969 639.176 330.938 638.502C323.525 638.535 316.762 638.294 310.279 637.772C285.6 635.42 265.698 629.824 247.638 620.156Z" fill="#4CAF4F"/>
<path d="M412.011 374.791C386.278 361.016 360.215 358.066 342.291 366.901C330.451 372.587 321.109 379.202 310.29 386.861C306.595 389.478 302.774 392.184 298.672 394.976C295.253 397.196 291.639 399.419 287.62 401.779C274.607 409.418 259.224 416.955 239.212 425.501C218.04 434.712 196.285 444.816 183.337 458.096C170.724 471.028 164.695 487.593 165.42 507.332C166.025 533.626 176.774 556.856 196.502 574.51C209.159 587.474 224.992 598.142 237.372 605.99C242.421 609.552 247.674 612.802 253.002 615.654C270.63 625.091 290.097 630.887 314.265 633.9C320.527 634.574 327.026 634.989 334.127 635.164C354.756 636.581 376.078 637.002 399.324 636.452C424.344 636.366 447.615 633.179 466.63 627.237C470.914 625.916 475.078 624.456 479.013 622.899C501.52 614.277 517.772 599.335 524.773 580.829C533.46 558.113 530.846 531.729 527.129 513.598C523.45 488.923 511.764 470.836 499.686 454.965C490.876 442.62 480.956 431.701 469.838 419.723C461.867 411.206 455.098 405.997 447.258 399.963C443.6 397.148 439.816 394.235 435.574 390.732C428.196 384.574 420.268 379.211 412.011 374.791ZM252.74 616.055C247.391 613.191 242.117 609.931 237.062 606.364C224.667 598.507 208.8 587.815 196.115 574.822C176.299 557.089 165.494 533.744 164.885 507.326C164.156 487.47 170.227 470.798 182.928 457.778C195.936 444.437 217.742 434.304 238.962 425.073C258.955 416.537 274.319 409.009 287.312 401.383C291.326 399.026 294.933 396.806 298.339 394.595C302.434 391.808 306.254 389.103 309.947 386.488C320.784 378.815 330.142 372.187 342.02 366.485C360.107 357.568 386.371 360.523 412.274 374.389C420.565 378.828 428.525 384.212 435.931 390.393C440.166 393.89 443.945 396.798 447.6 399.611C455.459 405.66 462.245 410.883 470.244 419.429C481.377 431.423 491.306 442.356 500.13 454.718C512.241 470.634 523.964 488.779 527.656 513.543C531.385 531.719 534 558.186 525.282 580.998C518.234 599.626 501.884 614.661 479.245 623.334C475.298 624.897 471.118 626.359 466.824 627.685C447.758 633.643 424.426 636.838 399.352 636.924C376.096 637.476 354.757 637.054 334.119 635.636C327.016 635.46 320.501 635.046 314.217 634.37C289.968 631.347 270.434 625.526 252.74 616.055Z" fill="#4CAF4F"/>
<path d="M407.699 378.861C382.317 365.274 357.113 362.06 340.279 370.263C327.863 376.137 318.434 382.975 307.518 390.892C304.548 393.047 301.476 395.273 298.205 397.584C294.952 399.763 291.501 401.965 287.652 404.32C275.194 411.942 260.557 419.516 241.587 428.158C221.584 437.456 201.021 447.635 188.676 460.79C176.695 473.541 170.937 489.629 171.56 508.602C172.019 534.603 182.855 556.94 202.897 573.2C213.977 583.678 227.214 592.434 243.686 602.359C248.314 605.513 253.123 608.431 257.991 611.037C275.303 620.304 294.469 626.356 318.305 630.083C324.375 630.917 330.635 631.508 337.433 631.891C358.242 634.103 378.83 635.097 400.388 634.929C424.138 635.291 446.691 632.179 465.619 625.926C469.728 624.587 473.729 623.11 477.518 621.533C498.973 612.924 514.6 598.275 521.519 580.282C530.209 557.968 528.004 532.53 524.624 515.118C521.577 492.193 511.262 475.481 496.714 457.437C488.008 445.883 478.138 435.592 467.688 424.696L466.222 423.169C458.658 415.347 452.399 410.736 445.15 405.397C440.976 402.323 436.66 399.145 431.667 395.035C424.209 388.824 416.145 383.383 407.699 378.861ZM257.729 611.438C252.843 608.823 248.017 605.896 243.384 602.738C226.894 592.803 213.629 584.027 202.53 573.531C182.386 557.188 171.487 534.729 171.026 508.593C170.399 489.507 176.196 473.317 188.258 460.48C200.664 447.261 221.276 437.056 241.326 427.736C260.277 419.103 274.897 411.537 287.336 403.928C291.18 401.576 294.623 399.377 297.865 397.206C301.129 394.901 304.201 392.675 307.169 390.521C318.107 382.589 327.552 375.738 340.009 369.845C357.006 361.561 382.411 364.781 407.962 378.459C416.442 382.998 424.537 388.461 432.024 394.695C437.003 398.794 441.312 401.968 445.481 405.037C452.749 410.391 459.028 415.016 466.623 422.868L468.09 424.4C478.552 435.306 488.432 445.609 497.148 457.179C511.745 475.279 522.097 492.054 525.153 515.069C528.542 532.522 530.75 558.046 522.026 580.452C515.06 598.562 499.339 613.304 477.758 621.964C473.96 623.545 469.944 625.029 465.822 626.369C446.837 632.643 424.217 635.766 400.407 635.404C378.834 635.57 358.224 634.575 337.405 632.363C330.605 631.978 324.331 631.385 318.239 630.551C294.327 626.809 275.102 620.738 257.729 611.438Z" fill="#4CAF4F"/>
<path d="M403.123 383.244C378.22 369.914 353.962 366.484 338.233 374.074C325.263 380.13 315.814 387.191 304.872 395.367C302.593 397.069 300.233 398.833 297.746 400.661C294.658 402.801 291.376 404.983 287.705 407.334C275.825 414.938 261.95 422.558 244.037 431.311C225.229 440.703 205.881 450.965 194.14 464.009C182.8 476.584 177.305 492.184 177.81 510.377C178.093 536.07 188.974 557.492 209.278 572.331C220.472 582.048 233.723 589.881 249.883 599.115C254.017 601.825 258.299 604.365 262.626 606.681C279.624 615.781 298.514 622.101 322.077 626.568C327.946 627.556 333.953 628.321 340.432 628.905C361.14 631.915 380.963 633.462 401.04 633.637C423.275 634.398 445.663 631.255 464.094 624.79C468.022 623.432 471.859 621.934 475.495 620.336C495.866 611.732 510.856 597.368 517.705 579.892C526.411 557.985 524.642 533.51 521.624 516.836C519.017 494.27 508.437 477.862 493.353 460.166C485.383 450.138 476.454 441.157 467 431.65C465.447 430.087 463.882 428.514 462.305 426.918C455.047 419.644 448.891 415.328 442.375 410.759C437.833 407.574 433.137 404.282 427.548 399.692C419.995 393.412 411.778 387.878 403.123 383.244ZM262.362 607.085C258.021 604.762 253.726 602.208 249.592 599.499C233.419 590.26 220.144 582.413 208.93 572.677C188.512 557.755 177.56 536.203 177.276 510.367C176.768 492.064 182.3 476.364 193.717 463.704C205.514 450.599 224.907 440.311 243.763 430.895C261.657 422.151 275.519 414.54 287.382 406.947C291.046 404.599 294.324 402.421 297.401 400.286C299.88 398.465 302.239 396.702 304.518 394.999C315.481 386.807 324.951 379.733 337.965 373.655C353.858 365.987 378.314 369.421 403.385 382.842C412.075 387.494 420.325 393.049 427.904 399.351C433.476 403.927 438.163 407.214 442.695 410.392C449.232 414.975 455.408 419.306 462.699 426.614C464.278 428.21 465.841 429.783 467.394 431.345C476.859 440.864 485.801 449.855 493.781 459.897C508.917 477.654 519.536 494.129 522.151 516.792C525.178 533.507 526.952 558.065 518.211 580.064C511.317 597.654 496.236 612.108 475.746 620.763C472.099 622.367 468.249 623.869 464.305 625.23C445.812 631.718 423.348 634.873 401.046 634.109C380.95 633.935 361.102 632.385 340.385 629.373C333.905 628.789 327.883 628.024 321.99 627.031C298.36 622.552 279.414 616.214 262.362 607.085Z" fill="#4CAF4F"/>
<path d="M398.552 387.629C373.822 374.39 351.119 370.857 336.265 377.937C322.767 384.148 313.812 391.067 302.474 399.827C300.825 401.103 299.124 402.416 297.35 403.775C294.42 405.883 291.302 408.043 287.818 410.382C276.52 417.959 263.399 425.617 246.522 434.483C229.676 443.538 210.764 454.284 199.62 467.228C188.918 479.624 183.692 494.741 184.086 512.158C184.209 537.544 195.157 558.059 215.747 571.492C226.316 579.834 239.063 586.695 252.56 593.956L256.218 595.927C259.759 598.149 263.412 600.27 267.091 602.239C283.856 611.214 302.594 617.86 326.059 623.152C331.733 624.299 337.495 625.241 343.66 626.023C364.42 629.913 382.943 631.965 401.969 632.48C423.14 633.641 444.771 630.566 462.886 623.821C466.638 622.445 470.311 620.93 473.801 619.308C493.098 610.719 507.456 596.648 514.231 579.683C522.949 558.181 521.597 534.664 518.924 518.723C516.483 493.994 503.416 477.656 490.245 463.04C482.856 454.243 474.662 446.337 465.991 437.968C463.552 435.615 461.082 433.232 458.592 430.792C451.545 423.948 445.689 420.062 439.49 415.947C434.668 412.749 429.684 409.439 423.591 404.45C416.006 398.154 407.347 392.337 398.552 387.629ZM266.828 602.641C263.137 600.666 259.472 598.539 255.937 596.317L252.296 594.358C238.777 587.082 226.008 580.212 215.42 571.853C194.702 558.34 183.675 537.688 183.551 512.143C183.155 494.624 188.416 479.413 199.191 466.932C210.387 453.928 229.344 443.153 246.235 434.075C263.097 425.215 276.202 417.567 287.483 410C290.965 407.665 294.077 405.508 296.996 403.407C298.764 402.054 300.465 400.741 302.113 399.466C313.476 390.687 322.451 383.752 335.999 377.517C351.02 370.36 373.915 373.897 398.815 387.227C407.643 391.953 416.335 397.792 423.947 404.109C430.016 409.08 434.99 412.381 439.801 415.574C446.022 419.703 451.897 423.603 458.981 430.483C461.473 432.924 463.94 435.305 466.377 437.655C475.061 446.036 483.264 453.952 490.66 462.759C503.882 477.43 517.002 493.836 519.455 518.686C522.134 534.667 523.489 558.265 514.734 579.858C507.916 596.931 493.47 611.091 474.061 619.732C470.558 621.356 466.874 622.88 463.109 624.257C444.924 631.03 423.209 634.118 401.966 632.954C382.915 632.436 364.362 630.383 343.589 626.49C337.425 625.704 331.651 624.763 325.954 623.61C302.427 618.305 283.644 611.643 266.828 602.641Z" fill="#4CAF4F"/>
<path d="M393.921 391.528C369.873 378.655 348.192 374.993 334.439 381.481C320.469 387.833 312.072 394.584 300.45 403.929C299.356 404.807 298.236 405.709 297.079 406.635C294.3 408.719 291.349 410.862 288.05 413.191C277.349 420.745 264.979 428.463 249.117 437.484C229.622 448.834 214.685 458.77 205.183 470.356C195.108 482.604 190.131 497.253 190.393 513.901C190.32 539.002 201.3 558.62 222.146 570.635C226.7 573.869 231.942 577.046 238.669 580.647C243.54 583.255 248.576 585.763 253.91 588.418C256.712 589.815 259.557 591.232 262.434 592.692C265.205 594.352 268.05 595.964 270.903 597.491C287.737 606.503 305.915 613.331 329.847 619.633C335.252 620.923 340.918 622.065 346.685 623.025C367.089 627.747 384.868 630.328 402.653 631.148C422.824 632.677 443.69 629.64 461.419 622.599C465.004 621.197 468.511 619.653 471.843 618.012C490.067 609.417 503.803 595.608 510.528 579.127C519.29 557.992 518.384 535.418 516.082 520.203C514.111 495.771 501.238 480.382 487.077 465.489C480.189 457.718 472.611 450.717 464.585 443.303C461.429 440.385 458.161 437.367 454.887 434.252C448 427.761 442.383 424.249 436.437 420.532C431.406 417.387 426.205 414.136 419.697 408.812C411.933 402.376 403.021 396.4 393.921 391.528ZM238.405 581.049C231.657 577.437 226.396 574.248 221.843 571.014C200.855 558.916 189.785 539.158 189.859 513.886C189.596 497.139 194.605 482.396 204.747 470.069C214.297 458.427 229.269 448.463 248.814 437.084C264.664 428.071 277.021 420.361 287.706 412.817C291.001 410.491 293.951 408.35 296.719 406.273C297.867 405.353 298.99 404.451 300.083 403.572C311.734 394.205 320.152 387.437 334.178 381.06C348.095 374.494 369.968 378.163 394.184 391.126C403.318 396.015 412.262 402.013 420.051 408.471C426.532 413.771 431.717 417.013 436.733 420.149C442.703 423.882 448.343 427.407 455.27 433.937C458.544 437.05 461.808 440.066 464.964 442.982C473 450.406 480.589 457.417 487.487 465.2C501.704 480.15 514.634 495.611 516.615 520.173C518.919 535.426 519.827 558.081 511.03 579.303C504.263 595.887 490.443 609.785 472.112 618.43C468.771 620.076 465.25 621.625 461.65 623.032C443.844 630.105 422.887 633.154 402.635 631.618C384.822 630.797 367.009 628.214 346.587 623.487C340.827 622.529 335.148 621.384 329.721 620.089C305.737 613.772 287.518 606.928 270.64 597.893C267.779 596.361 264.927 594.745 262.164 593.09C259.307 591.641 256.464 590.223 253.661 588.828C248.325 586.171 243.285 583.662 238.405 581.049Z" fill="#4CAF4F"/>
<path d="M228.52 569.429C230.781 570.855 233.183 572.243 235.882 573.688C242.133 577.034 248.908 580.099 256.081 583.344C260.181 585.2 264.422 587.117 268.713 589.158C270.407 590.119 272.123 591.064 273.834 591.98C290.707 601.012 309.212 608.394 333.829 615.915C339.059 617.374 344.474 618.701 349.924 619.856C370.216 625.533 386.772 628.583 403.624 629.742C422.879 631.671 442.99 628.723 460.265 621.441C463.676 620.027 467.018 618.469 470.2 616.812C487.588 608.141 500.338 595.001 507.072 578.807C515.836 558.091 515.319 536.497 513.344 522.029C511.771 497.898 499.059 483.428 483.855 468.317C477.36 461.406 470.265 455.168 462.757 448.564C458.937 445.204 454.989 441.731 451.016 438.074C444.217 431.868 438.772 428.682 433.011 425.31C427.808 422.267 422.428 419.119 415.537 413.501C407.515 406.872 398.263 400.684 388.78 395.608C365.484 383.137 344.865 379.352 332.208 385.221C317.859 391.626 310.099 398.126 298.352 407.967L296.435 409.572C293.803 411.629 291.019 413.746 287.915 416.049C277.708 423.626 266.439 431.139 251.374 440.411C233.299 451.806 219.421 461.755 210.454 473.267C201.024 485.325 196.331 499.475 196.503 515.325C196.305 539.422 206.813 557.836 226.893 568.585C227.429 568.872 227.972 569.155 228.52 569.429ZM235.618 574.091C232.907 572.639 230.495 571.243 228.246 569.825C227.719 569.559 227.171 569.276 226.63 568.987C206.372 558.142 195.768 539.581 195.968 515.308C195.796 499.364 200.518 485.126 210.009 472.989C219.02 461.422 232.933 451.445 251.054 440.021C266.109 430.755 277.367 423.25 287.563 415.683C290.663 413.381 293.444 411.267 296.066 409.217L297.977 407.616C309.755 397.749 317.537 391.231 331.948 384.799C344.769 378.853 365.58 382.646 389.043 395.206C398.559 400.3 407.843 406.509 415.893 413.162C422.749 418.75 428.109 421.886 433.292 424.919C439.082 428.308 444.55 431.507 451.392 437.753C455.361 441.406 459.307 444.876 463.127 448.235C470.645 454.849 477.748 461.097 484.253 468.018C498.957 482.633 512.295 497.765 513.876 522.007C515.855 536.51 516.373 558.184 507.575 578.988C500.798 595.281 487.968 608.502 470.482 617.224C467.29 618.886 463.934 620.451 460.511 621.871C443.15 629.187 422.937 632.15 403.595 630.212C386.71 629.051 370.114 625.995 349.804 620.31C344.357 619.159 338.928 617.829 333.682 616.363C309.016 608.829 290.48 601.434 273.571 592.382C271.857 591.464 270.136 590.515 268.457 589.563C264.189 587.534 259.952 585.618 255.854 583.764C248.67 580.515 241.888 577.445 235.618 574.091Z" fill="#4CAF4F"/>
<path d="M383.88 399.362C361.513 387.389 342.044 383.554 330.467 388.841C315.843 395.268 308.771 401.477 297.059 411.761L296.257 412.466C293.761 414.509 291.141 416.606 288.242 418.883C278.704 426.365 268.163 433.923 254.067 443.389C239.65 453.306 225.075 464.159 216.125 476.322C207.328 488.225 202.897 501.897 202.952 516.966C202.611 539.38 212.024 556.362 230.176 566.079C231.758 566.926 233.426 567.729 235.136 568.462C235.489 568.656 235.818 568.833 236.151 569.012C243.028 572.693 250.821 575.824 259.071 579.136C264.287 581.23 269.678 583.394 275.189 585.836C297.014 597.485 319.16 605.776 337.943 612.355C342.997 613.986 348.161 615.494 353.286 616.827C366.641 621.244 384.537 626.552 404.681 628.422C422.795 630.686 442.66 627.718 459.192 620.286C462.429 618.851 465.606 617.272 468.635 615.591C484.928 606.949 497.065 594.081 503.746 578.377C512.543 558.036 512.447 537.398 510.816 523.667C509.67 499.828 496.607 485.681 480.938 470.93C474.794 464.759 468.125 459.182 461.064 453.277C456.659 449.593 452.104 445.784 447.511 441.685C440.776 435.724 435.475 432.836 429.862 429.777C424.533 426.874 419.018 423.871 411.797 418C403.567 411.213 393.654 404.594 383.88 399.362ZM229.913 566.481C211.581 556.667 202.074 539.537 202.419 516.944C202.361 501.79 206.82 488.03 215.674 476.052C224.666 463.836 239.277 452.952 253.73 443.009C267.82 433.549 278.351 425.997 287.879 418.522C290.775 416.25 293.393 414.155 295.878 412.118L296.673 411.419C308.424 401.102 315.516 394.875 330.211 388.419C341.951 383.056 361.61 386.898 384.143 398.96C393.949 404.209 403.896 410.849 412.151 417.658C419.329 423.495 424.819 426.486 430.128 429.378C435.771 432.451 441.098 435.355 447.883 441.359C452.47 445.453 457.019 449.259 461.422 452.939C468.492 458.852 475.17 464.436 481.327 470.619C497.067 485.437 510.195 499.659 511.351 523.652C512.986 537.419 513.081 558.134 504.244 578.56C497.525 594.357 485.312 607.303 468.928 615.999C465.889 617.682 462.697 619.27 459.445 620.709C442.825 628.186 422.847 631.167 404.637 628.891C384.442 627.018 366.503 621.697 353.134 617.275C348.019 615.944 342.845 614.434 337.772 612.795C318.96 606.208 296.788 597.906 274.946 586.249C269.463 583.821 264.077 581.657 258.867 579.566C250.201 576.086 242.04 572.808 234.892 568.874C233.195 568.144 231.51 567.336 229.913 566.481Z" fill="#4CAF4F"/>
<path d="M378.188 403.149C365.689 396.457 342.571 386.198 328.182 392.659C313.406 399.047 307.074 404.894 295.576 415.512C293.162 417.595 290.709 419.671 288.036 421.896C276.788 431.251 265.132 439.977 256.235 446.537C243.057 456.484 229.698 467.369 221.286 479.528C213.122 491.278 208.954 504.47 208.9 518.742C208.434 539.627 216.873 555.313 233.305 564.109C235.767 565.427 238.438 566.61 241.246 567.621C247.518 570.565 254.564 573.005 262.025 575.589C268.194 577.725 274.573 579.936 281.155 582.635C299.72 591.871 318.718 599.819 341.538 608.914C346.428 610.728 351.339 612.413 356.124 613.917C369.955 619.254 386.588 624.998 405.206 627.223C422.499 629.848 441.582 626.943 457.568 619.259C460.63 617.807 463.644 616.208 466.524 614.504C481.705 605.902 493.23 593.313 499.857 578.094C508.694 558.13 509.012 538.46 507.722 525.472C506.983 501.877 494.151 488.614 477.455 473.726C471.611 468.197 465.309 463.199 458.634 457.906C453.698 453.993 448.595 449.946 443.441 445.488C438.206 440.991 433.935 438.479 430.45 436.613C428.983 435.828 427.566 435.113 426.063 434.355C424.578 433.606 423.036 432.83 421.462 431.988C418.032 430.151 413.344 427.435 407.496 422.691C398.848 415.576 388.439 408.636 378.188 403.149ZM233.041 564.512C216.428 555.618 207.896 539.784 208.368 518.716C208.42 504.566 212.729 490.924 220.827 479.269C229.276 467.056 242.668 456.144 255.882 446.17C264.777 439.614 276.423 430.894 287.661 421.545C290.333 419.323 292.785 417.249 295.155 415.202C306.72 404.522 313.076 398.654 327.928 392.234C342.542 385.672 365.855 396.004 378.451 402.746C388.734 408.251 399.175 415.213 407.851 422.349C413.66 427.064 418.315 429.761 421.724 431.586C423.293 432.426 424.828 433.198 426.315 433.947C427.752 434.672 429.24 435.421 430.714 436.21C434.227 438.091 438.527 440.622 443.806 445.155C448.95 449.607 454.05 453.651 458.983 457.561C465.665 462.858 471.978 467.864 477.831 473.405C494.612 488.366 507.51 501.705 508.257 525.465C509.551 538.487 509.228 558.235 500.356 578.281C493.691 593.588 482.098 606.254 466.828 614.904C463.94 616.614 460.913 618.219 457.836 619.677C441.75 627.411 422.545 630.332 405.147 627.687C386.469 625.459 369.793 619.698 355.946 614.357C351.165 612.855 346.249 611.165 341.342 609.346C318.501 600.243 299.49 592.288 280.927 583.055C274.38 580.37 268.009 578.163 261.847 576.029C254.372 573.439 247.309 570.995 241.036 568.047C238.228 567.036 235.529 565.844 233.041 564.512Z" fill="#4CAF4F"/>
<path d="M372.58 406.523C352.272 395.652 335.792 391.997 326.177 396.232C311.363 402.525 305.579 408.162 295.08 418.392C292.787 420.485 290.497 422.541 288.073 424.687C278.142 433.479 268.049 441.799 258.621 449.481C247.241 458.966 234.539 470.32 226.629 482.562C219.197 494.012 215.183 507.088 215.022 520.381C214.44 540.173 221.814 554.312 236.941 562.41C240.143 564.124 243.72 565.563 247.572 566.689C253.07 568.824 259.154 570.572 265.595 572.422C272.599 574.435 279.842 576.517 287.382 579.361C298.571 584.488 309.698 589.448 321.48 594.698C329.287 598.176 337.358 601.774 345.463 605.43C350.216 607.448 354.876 609.313 359.31 610.976C373.457 617.268 388.906 623.437 406.129 626.005C422.655 628.995 440.976 626.153 456.397 618.213C459.293 616.742 462.144 615.122 464.871 613.396C478.95 604.842 489.875 592.519 496.46 577.76C505.347 558.141 506.076 539.426 505.121 527.178C504.777 503.791 492.179 491.368 474.422 476.37C468.844 471.4 462.851 466.908 456.508 462.152C451.077 458.08 445.459 453.869 439.78 449.107C436.259 446.173 432.844 443.857 429.039 441.82C426.847 440.647 424.777 439.689 422.587 438.676C420.397 437.664 418.129 436.615 415.727 435.329C411.518 433.076 407.653 430.485 403.567 427.177C394.496 419.737 383.202 412.21 372.58 406.523ZM236.677 562.813C221.364 554.616 213.9 540.329 214.49 520.352C214.649 506.986 218.688 493.831 226.163 482.315C234.105 470.019 246.839 458.639 258.249 449.126C267.674 441.448 277.763 433.132 287.687 424.346C290.109 422.202 292.398 420.146 294.682 418.062C305.22 407.793 311.027 402.135 325.927 395.805C335.705 391.497 352.37 395.161 372.843 406.121C383.496 411.823 394.823 419.373 403.921 426.835C407.978 430.118 411.812 432.691 415.99 434.927C418.375 436.204 420.635 437.249 422.82 438.259C425.017 439.275 427.096 440.235 429.303 441.417C433.143 443.473 436.586 445.809 440.138 448.769C445.807 453.521 451.418 457.728 456.842 461.795C463.197 466.559 469.198 471.058 474.789 476.038C492.64 491.115 505.308 503.612 505.655 527.178C506.612 539.461 505.881 558.251 496.955 577.949C490.333 592.792 479.349 605.184 465.189 613.787C462.452 615.519 459.588 617.147 456.681 618.628C441.149 626.62 422.696 629.48 406.051 626.473C388.767 623.892 373.271 617.706 359.101 611.405C354.677 609.746 350.009 607.877 345.241 605.854C337.131 602.194 329.057 598.597 321.257 595.12C309.472 589.868 298.343 584.909 287.17 579.788C279.672 576.96 272.442 574.883 265.449 572.871C258.994 571.017 252.898 569.265 247.399 567.13C243.531 566.002 239.916 564.547 236.677 562.813Z" fill="#4CAF4F"/>
</g>
</svg>
