<svg width="483" height="794" viewBox="0 0 483 794" fill="none" xmlns="http://www.w3.org/2000/svg">
<g opacity="0.8">
<path d="M434.321 516.574C451.265 527.349 464.454 533.502 477.084 536.524C525.729 547.23 591.948 508.4 645.784 437.596C672.438 402.001 690.111 363.965 696.89 327.601C702.597 295.783 700.542 260.314 690.422 215.978C683.285 185.556 671.571 155.476 653.555 121.316C635.184 86.8181 617.125 64.55 595 49.115C593.988 48.4241 592.966 47.7495 591.873 47.0545C565.982 30.5909 518.785 13.9706 465.622 2.59643C411.588 -8.96472 361.591 -12.7188 331.879 -7.44531C261.679 -9.15472 249.026 24.8036 229.87 76.2036C221.374 99.0042 211.742 124.845 195.454 153.115C183.696 173.512 172.933 191.559 163.436 207.483C117.829 283.948 97.0118 318.846 107.342 378.584C110.13 392.697 118.555 404.312 132.378 413.102C143.274 420.031 157.615 425.268 175.005 428.669C190.815 431.7 207.828 433.751 225.841 435.922C249.532 438.777 274.028 441.727 299.271 447.272C329.238 453.99 358.601 466.666 389.042 486.022C393.56 488.896 398.238 492.003 402.944 495.256C405.059 496.719 407.153 498.175 409.229 499.616C417.94 505.671 426.167 511.389 434.321 516.574ZM592.141 46.6355C593.239 47.3338 594.269 48.0114 595.289 48.7063C617.497 64.1993 635.612 86.5306 654.029 121.115C672.067 155.318 683.797 185.439 690.946 215.906C701.08 260.312 703.137 295.843 697.419 327.729C690.626 364.167 672.923 402.269 646.226 437.919C592.276 508.875 525.851 547.775 477.001 537.023C464.299 533.984 451.054 527.807 434.051 516.995C425.887 511.804 417.655 506.082 408.938 500.024C406.864 498.581 404.771 497.126 402.656 495.664C397.955 492.415 393.284 489.313 388.772 486.443C358.39 467.124 329.089 454.474 299.19 447.769C273.978 442.234 249.497 439.284 225.818 436.431C207.795 434.26 190.774 432.209 174.943 429.172C157.477 425.756 143.067 420.491 132.108 413.523C118.145 404.644 109.636 392.906 106.816 378.632C101.792 349.585 103.849 325.906 113.699 299.454C123.26 273.77 139.915 245.847 162.964 207.201C172.46 191.279 183.224 173.233 194.979 152.836C211.249 124.604 220.873 98.7783 229.364 75.995C239.251 49.4656 247.059 28.5083 261.423 13.8276C276.95 -2.04763 298.653 -8.76422 331.796 -7.95368C361.517 -13.2369 411.595 -9.48018 465.697 2.09411C518.925 13.4849 566.194 30.1359 592.141 46.6355Z" fill="#4CAF4F"/>
<path d="M589.221 51.8541C588.615 51.4519 588.009 51.0602 587.382 50.6615C562.64 34.9283 517.095 19.0332 465.552 8.15006C413.099 -2.93033 364.412 -6.50045 335.312 -1.40106C267.04 -2.93758 254.104 29.822 234.526 79.4115C226.059 100.854 216.462 125.159 200.772 151.693C189.387 171.069 178.939 188.256 169.721 203.421C125.004 276.983 104.594 310.558 114.044 368.344C116.647 383.389 125.519 395.82 140.419 405.295C150.412 411.649 163.179 416.706 178.366 420.324C196.668 425.454 216.857 429.153 238.231 433.068C258.314 436.747 279.084 440.552 300.405 445.901C344.491 457.263 380.754 478.037 404.196 492.675L408.276 495.34C413.229 498.576 417.908 501.633 422.601 504.617C442.562 517.309 459.509 526.517 477.339 530.197C524.588 539.723 589.058 502.254 641.581 434.741C668.671 400.331 686.811 363.659 694.039 328.692C700.323 297.61 698.777 262.917 689.172 219.513C682.229 187.796 670.011 156.872 650.718 122.196C631.819 88.5741 612.932 66.9301 589.478 52.0175L589.221 51.8541ZM587.653 50.2396C588.282 50.64 588.892 51.0339 589.495 51.4377L589.748 51.5965C613.289 66.5655 632.237 88.2741 651.185 121.985C670.505 156.708 682.742 187.678 689.697 219.445C699.316 262.92 700.864 297.678 694.566 328.83C687.323 363.868 669.153 400.604 642.02 435.069C589.384 502.728 524.716 540.265 477.268 530.7C459.35 527 442.347 517.767 422.33 505.038C417.634 502.052 412.955 498.994 407.999 495.757L403.925 493.096C380.521 478.482 344.313 457.738 300.31 446.396C279.007 441.054 258.248 437.25 238.172 433.571C216.785 429.655 196.584 425.954 178.27 420.82C163.028 417.188 150.2 412.105 140.15 405.715C125.109 396.15 116.145 383.591 113.518 368.385C104.036 310.42 124.473 276.799 169.252 203.135C178.469 187.972 188.916 170.787 200.302 151.412C215.973 124.909 225.562 100.621 234.022 79.1957C244.127 53.6001 252.109 33.384 266.355 19.2031C281.754 3.8732 302.997 -2.63797 335.227 -1.91103C364.339 -7.01711 413.108 -3.44415 465.624 7.64785C517.234 18.5459 562.853 34.4698 587.653 50.2396Z" fill="#4CAF4F"/>
<path d="M148.61 397.583C157.613 403.308 168.755 408.087 181.722 411.788C202.913 419.732 227.004 425.602 252.51 431.816C268.428 435.695 284.888 439.705 301.676 444.46C342.863 456.501 377.389 474.305 405.731 490.134L407.35 491.122C432.61 506.559 454.427 519.891 477.988 523.986C523.902 532.382 586.645 496.34 637.837 432.16C665.757 398.492 683.841 364.16 691.589 330.109C698.338 300.198 697.23 265.283 688.206 223.369C681.521 190.797 668.378 158.084 648.025 123.357C628.611 90.5701 608.283 68.9977 583.457 54.8056L582.918 54.4616C559.287 39.4355 515.335 24.2279 465.351 13.7814C414.414 3.13636 366.979 -0.296609 338.457 4.5961C272.03 3.16388 258.82 34.7189 238.824 82.4841C230.419 102.558 220.893 125.309 205.833 150.094C194.843 168.412 184.732 184.708 175.812 199.088C131.985 269.736 111.981 301.98 120.626 357.849C123.026 373.932 132.441 387.301 148.61 397.583ZM589.362 57.7868C611.719 72.0037 630.507 92.7689 648.486 123.134C668.871 157.914 682.034 190.681 688.731 223.305C697.771 265.292 698.877 300.276 692.113 330.258C684.35 364.378 666.233 398.777 638.272 432.495C613.02 464.152 584.622 489.521 556.15 505.859C527.674 522.198 500.626 528.641 477.933 524.49C454.263 520.377 432.402 507.017 407.089 491.549L405.481 490.566C377.179 474.76 342.69 456.974 301.561 444.951C284.79 440.201 268.332 436.19 252.417 432.314C226.895 426.095 202.786 420.221 181.587 412.272C168.584 408.562 157.393 403.76 148.34 398.003C132.02 387.626 122.518 374.127 120.095 357.881C111.424 301.838 131.456 269.548 175.347 198.801C184.265 184.422 194.376 168.126 205.363 149.81C220.407 125.053 229.927 102.319 238.321 82.2592C248.644 57.6063 256.795 38.1363 270.931 24.4715C286.212 9.69487 307.012 3.40967 338.373 4.08665C366.905 -0.813267 414.42 2.62187 465.425 13.2818C515.475 23.7398 559.5 38.9781 583.187 54.0408L583.716 54.3781C585.607 55.4608 587.511 56.6101 589.362 57.7868Z" fill="#4CAF4F"/>
<path d="M157.403 390.238C165.264 395.237 174.672 399.595 185.362 403.188C209.852 414.823 238.728 423.442 269.299 432.567C280.261 435.838 291.595 439.221 303.038 442.835C344.515 456.385 380.728 474.249 407.171 487.292C431.355 501.032 454.182 514.003 478.411 517.394C500.336 520.956 526.46 514.586 553.969 498.975C581.531 483.33 609.106 459.181 633.715 429.137C662.076 396.708 680.598 363.726 688.764 331.108C696.084 301.968 695.493 267.873 686.958 226.876C680.476 193.043 666.814 159.482 645.188 124.274C628.092 96.7222 610.238 77.6019 589.002 64.0986C585.362 61.7837 581.559 59.6 577.697 57.6113C554.881 43.3945 512.616 29.0511 464.606 19.2278C414.837 9.04503 370.148 5.92755 341.996 10.678C277.488 9.40771 263.977 39.7491 243.527 85.6762C235.202 104.372 225.767 125.562 211.352 148.591C200.782 165.816 191.025 181.199 182.418 194.773C139.448 262.528 119.835 293.452 127.62 347.376C129.761 364.614 139.783 379.034 157.403 390.238ZM589.273 63.6771C610.587 77.2302 628.497 96.411 645.644 124.038C667.306 159.308 680.991 192.927 687.484 226.821C696.033 267.889 696.623 302.055 689.286 331.266C681.1 363.956 662.546 397 634.142 429.478C609.502 459.561 581.881 483.749 554.268 499.421C526.657 515.092 500.413 521.481 478.371 517.901C454.038 514.495 431.162 501.497 406.943 487.736C380.532 474.709 344.339 456.858 302.906 443.32C291.472 439.709 280.139 436.327 269.179 433.056C238.586 423.925 209.688 415.298 185.191 403.659C174.487 400.062 165.036 395.684 157.133 390.659C139.361 379.358 129.251 364.803 127.087 347.4C119.282 293.306 138.921 262.335 181.953 194.48C190.562 180.908 200.316 165.528 210.887 148.304C225.284 125.298 234.712 104.125 243.032 85.443C253.587 61.7415 261.923 43.0175 275.949 29.863C291.112 15.6402 311.458 9.56676 341.911 10.1692C370.077 5.41147 414.843 8.53082 464.678 18.7265C512.747 28.5625 555.091 42.9381 577.94 57.1756C581.795 59.1623 585.616 61.3522 589.273 63.6771Z" fill="#4CAF4F"/>
<path d="M166.003 383.782C172.561 387.952 180.135 391.731 188.522 395.018C216.9 411.528 251.845 423.608 288.835 436.392C293.859 438.128 298.925 439.879 304.033 441.661C334.955 452.835 362.762 465.02 387.295 475.772C394.674 479.007 401.646 482.061 408.345 484.934C434.043 498.392 455.522 508.875 478.642 511.311C499.948 514.307 525.307 507.974 551.984 493.001C578.725 477.992 605.561 454.986 629.592 426.468C658.445 395.231 677.429 363.557 686.022 332.317C693.928 303.922 693.86 270.603 685.809 230.459C679.631 195.805 665.036 160.375 642.433 125.141C626.192 100.078 609.256 82.4465 589.139 69.6545C583.698 66.1945 577.918 63.0491 571.963 60.2992C549.739 46.9429 509.116 33.5362 463.264 24.424C415.575 14.9464 372.58 12.1041 345.306 16.6298C282.625 15.5362 268.771 44.7104 247.804 88.8749C239.572 106.216 230.241 125.868 216.474 147.173C206.329 163.299 196.935 177.766 188.644 190.529C146.429 255.53 127.163 285.195 134.076 337.268C135.917 355.834 146.657 371.48 166.003 383.782ZM589.41 69.2326C609.603 82.0728 626.592 99.7605 642.882 124.899C665.527 160.192 680.145 195.693 686.336 230.408C694.401 270.624 694.469 304.015 686.539 332.487C677.927 363.796 658.91 395.534 630.013 426.817C605.954 455.369 579.071 478.413 552.282 493.449C525.505 508.478 500.032 514.831 478.618 511.819C455.404 509.373 433.872 498.868 408.14 485.389C401.46 482.526 394.488 479.472 387.106 476.237C362.582 465.488 334.784 453.307 303.883 442.141C298.781 440.362 293.714 438.61 288.693 436.874C251.673 424.079 216.703 411.991 188.313 395.47C179.935 392.193 172.322 388.393 165.733 384.203C146.23 371.802 135.402 356.016 133.544 337.283C126.607 285.043 145.904 255.333 188.185 190.234C196.472 177.471 205.868 163.007 216.01 146.881C229.761 125.596 239.088 105.959 247.311 88.632C258.134 65.8389 266.683 47.8364 280.63 35.1698C295.71 21.4759 315.63 15.5982 345.222 16.1205C372.513 11.5885 415.576 14.431 463.33 23.9219C509.245 33.0476 549.939 46.4801 572.191 59.8546C578.143 62.5984 583.947 65.7588 589.41 69.2326Z" fill="#4CAF4F"/>
<path d="M200.135 391.641C229.277 410.172 265.011 424.462 305.318 439.906C321.701 446.41 337.112 452.791 352.014 458.963C372.895 467.61 392.62 475.777 409.876 482.084C433.78 493.51 455.484 503.098 479.271 504.796C499.964 507.25 524.55 500.997 550.38 486.712C576.28 472.391 602.349 450.588 625.769 423.66C655.086 393.699 674.493 363.39 683.458 333.569C691.922 305.972 692.331 273.468 684.708 234.202C678.699 198.285 663.517 161.961 639.582 126.228C624.373 103.75 607.885 87.0385 589.178 75.143C581.975 70.5628 574.19 66.5402 566.038 63.186C522.197 37.86 406.572 13.1391 348.353 22.5373C287.466 21.5405 273.282 49.5064 251.809 91.8383C243.722 107.787 234.555 125.861 221.489 145.394C211.822 160.357 202.828 173.848 194.895 185.753C153.465 247.91 134.554 276.278 140.676 326.477C142.175 346.53 153.791 363.595 175.197 377.206C180.242 380.414 185.862 383.429 191.899 386.169C194.566 388.02 197.322 389.852 200.135 391.641ZM589.448 74.7216C608.226 86.662 624.769 103.429 640.025 125.977C664.005 161.775 679.216 198.172 685.235 234.156C692.874 273.497 692.463 306.075 683.974 333.748C674.987 363.643 655.543 394.013 626.183 424.018C602.737 450.976 576.625 472.814 550.676 487.163C524.751 501.499 500.056 507.773 479.262 505.307C455.386 503.602 433.629 493.992 409.695 482.551C392.453 476.25 372.724 468.08 351.837 459.432C336.935 453.261 321.528 446.882 305.152 440.38C264.819 424.925 229.055 410.621 199.866 392.061C197.047 390.268 194.284 388.431 191.656 386.602C185.64 383.878 179.995 380.848 174.928 377.626C153.359 363.91 141.654 346.705 140.141 326.483C137.177 302.169 140.027 282.297 149.677 260.045C158.91 238.749 173.81 216.393 194.435 185.451C202.369 173.549 211.361 160.057 221.03 145.096C234.079 125.581 243.241 107.52 251.325 91.5829C262.408 69.7364 271.158 52.4789 285.025 40.3336C300.021 27.2005 319.524 21.5559 348.268 22.0276C374.678 17.7624 416.052 20.3798 461.741 29.2194C505.506 37.6834 544.576 50.2136 566.252 62.7338C574.399 66.0847 582.215 70.122 589.448 74.7216Z" fill="#4CAF4F"/>
<path d="M220.326 395.964C247.674 413.354 279.225 427.329 306.481 438.706C342.737 454.383 380.682 470.459 411.154 479.673C437.043 490.804 457.502 497.854 479.569 498.641C520.644 502.5 575.074 472.733 621.631 420.959C651.451 392.219 671.311 363.233 680.668 334.794C689.73 307.975 690.66 276.268 683.518 237.853C677.82 201.182 661.671 162.928 636.819 127.222C622.441 106.764 606.922 91.3953 589.379 80.2402C580.381 74.5181 570.882 69.8729 560.341 66.0396C539.282 54.4039 501.949 42.8469 460.429 35.1051C416.911 26.9904 377.326 24.6509 351.825 28.6858C292.74 27.8698 278.164 54.6693 256.097 95.2356C248.174 109.807 239.192 126.321 226.846 144.106C217.673 157.888 209.097 170.396 201.528 181.429C162.002 239.084 142.161 268.023 147.412 316.403C148.462 337.861 161.432 357.089 184.914 372.021C188.172 374.093 191.663 376.104 195.3 378C202.806 384.134 211.209 390.166 220.326 395.964ZM589.649 79.8195C607.26 91.0178 622.831 106.437 637.258 126.961C662.158 162.737 678.337 201.07 684.046 237.812C691.203 276.302 690.267 308.093 681.182 334.983C671.798 363.496 651.902 392.544 622.038 421.324C575.389 473.199 520.797 503.025 479.576 499.154C455.039 498.279 432.245 489.286 411.002 480.149C380.53 470.937 342.568 454.855 306.297 439.172C279.022 427.787 247.444 413.8 220.057 396.385C210.921 390.576 202.497 384.527 195.024 378.412C191.424 376.542 187.917 374.524 184.643 372.443C160.994 357.405 147.935 338.025 146.878 316.399C141.61 267.858 161.483 238.872 201.076 181.125C208.641 170.091 217.214 157.584 226.389 143.8C238.723 126.036 247.7 109.531 255.619 94.9713C267.008 74.0332 276.001 57.4963 289.814 45.8388C304.748 33.236 323.847 27.79 351.744 28.176C377.257 24.1345 416.912 26.4752 460.49 34.6013C502.066 42.3546 539.467 53.9333 560.536 65.5804C571.076 69.4093 580.613 74.0736 589.649 79.8195Z" fill="#4CAF4F"/>
<path d="M241.105 402.22C259.491 413.911 281.273 425.407 307.696 437.362C350.806 457.552 385.106 470.57 412.564 477.163C436.671 486.329 457.353 492.425 480.047 492.413C519.769 495.114 572.518 466.683 617.73 418.214C648.073 390.707 668.386 363.041 678.118 335.97C687.771 309.943 689.215 279.018 682.534 241.432C675.611 193.491 652.429 153.337 634.201 128.094C620.597 109.432 605.997 95.2796 589.567 84.8323C578.971 78.0943 567.572 72.8283 554.72 68.7337C513.019 46.8013 408.824 26.3183 355.24 34.5917C297.877 33.9401 282.87 59.5873 260.157 98.4088C252.443 111.593 243.7 126.537 232.111 142.563C223.474 155.123 215.353 166.608 208.187 176.741C169.229 231.826 149.675 259.476 154.075 306.089C154.62 329.502 168.828 350.721 195.167 367.47C196.31 368.197 197.492 368.924 198.68 369.633C210.75 381.085 224.612 391.732 241.105 402.22ZM589.837 84.4114C606.332 94.9002 620.985 109.101 634.633 127.826C652.898 153.121 676.124 193.356 683.061 241.395C689.759 279.061 688.309 310.065 678.625 336.173C668.87 363.314 648.514 391.044 618.129 418.588C572.832 467.147 519.926 495.637 480.073 492.926C457.31 492.938 436.571 486.828 412.438 477.65C384.978 471.058 350.64 458.026 307.5 437.822C281.054 425.856 259.246 414.348 240.835 402.641C224.308 392.131 210.418 381.461 198.37 370.023C197.233 369.352 196.046 368.621 194.897 367.891C168.389 351.035 154.087 329.659 153.542 306.077C149.126 259.305 168.712 231.608 207.735 176.429C214.899 166.298 223.021 154.817 231.662 142.254C243.239 126.24 251.976 111.307 259.685 98.1302C282.482 59.1657 297.546 33.4243 355.157 34.0829C408.792 25.7962 513.17 46.3151 554.902 68.2669C567.751 72.3592 579.196 77.6451 589.837 84.4114Z" fill="#4CAF4F"/>
<path d="M261.138 408.996C275.555 418.164 291.231 426.855 309.056 435.564C349.526 456 384.895 469.027 414.184 474.286C434.106 480.842 455.931 486.775 480.767 485.879C519.154 487.468 570.206 460.451 614.021 415.37C645.316 388.791 665.481 363.221 675.684 337.18C685.913 311.982 687.834 281.871 681.563 245.122C676.339 206.48 658.544 165.284 631.456 129.117C618.56 112.048 604.806 98.9925 589.411 89.2032C577.314 81.5109 564.061 75.7307 548.891 71.5308C508.303 51.3267 410.494 32.6415 358.359 40.4161C302.656 39.868 287.197 64.3387 263.795 101.383C256.363 113.149 247.937 126.486 237.174 140.716C229.13 151.99 221.522 162.39 214.805 171.566C176.381 224.052 157.096 250.398 160.695 295.26C160.64 326.048 183.177 347.861 202.091 360.745L202.144 360.79C218.005 378.071 237.303 393.84 261.138 408.996ZM589.68 88.7837C605.137 98.6122 618.941 111.714 631.884 128.839C659.026 165.084 676.858 206.368 682.093 245.09C688.38 281.923 686.449 312.117 676.189 337.396C665.957 363.505 645.749 389.138 614.411 415.751C570.518 460.913 519.32 487.986 480.81 486.393C455.907 487.29 434.023 481.342 414.088 474.78C384.782 469.521 349.359 456.477 308.843 436.017C291.001 427.299 275.308 418.598 260.869 409.416C236.999 394.238 217.67 378.445 201.777 361.135C182.753 348.172 160.105 326.222 160.159 295.236C156.548 250.22 175.868 223.828 214.356 171.247C221.071 162.074 228.684 151.677 236.725 140.399C247.484 126.178 255.902 112.851 263.33 101.089C286.819 63.9136 302.334 39.352 358.278 39.9053C410.463 32.1226 508.444 50.8409 549.053 71.0583C564.225 75.2546 577.533 81.0598 589.68 88.7837Z" fill="#4CAF4F"/>
<path d="M278.761 416.227C288.61 422.49 299.202 428.602 310.246 434.399C348.982 455.379 385.391 468.355 415.542 471.929C441.064 478.946 460.683 481.291 481.185 479.781C499.419 479.99 520.916 473.941 543.375 462.284C565.969 450.557 589.03 433.411 610.066 412.698C641.931 387.372 662.544 363.074 673.102 338.393C683.94 314 686.385 284.667 680.577 248.719C675.59 208.803 657.23 166.644 628.879 129.998C616.666 114.346 603.723 102.281 589.308 93.1154C575.831 84.5456 560.794 78.3746 543.337 74.2483C503.48 55.6289 411.956 39.1364 361.874 46.4065C307.78 46.048 291.773 69.4095 267.545 104.773C260.45 115.127 252.41 126.864 242.521 139.314C235.125 149.27 228.371 158.153 221.84 166.741C183.779 216.804 164.674 241.931 167.397 285.139C166.527 315.777 187.627 338.718 205.478 352.57L205.529 352.619C224.179 375.786 248.818 397.187 278.761 416.227ZM589.578 92.6946C604.051 101.898 617.044 114.007 629.299 129.713C657.713 166.438 676.111 208.691 681.108 248.69C686.93 284.726 684.474 314.147 673.6 338.622C663.012 363.373 642.354 387.731 610.447 413.088C589.396 433.817 566.295 450.992 543.659 462.739C521.127 474.435 499.544 480.504 481.245 480.293C460.699 481.808 441.023 479.458 415.477 472.431C385.296 468.856 348.813 455.856 310.015 434.843C298.962 429.041 288.354 422.919 278.492 416.647C248.505 397.58 223.825 376.145 205.134 352.938C187.186 339.003 165.987 315.929 166.863 285.106C164.129 241.744 183.268 216.569 221.398 166.417C227.929 157.829 234.681 148.949 242.081 138.988C251.964 126.545 260 114.815 267.09 104.465C291.404 68.9779 307.467 45.5327 361.792 45.8958C384.668 42.5721 419.234 44.1498 456.583 50.2251C491.658 55.9304 524.143 64.7329 543.483 73.7718C560.948 77.891 576.043 84.0882 589.578 92.6946Z" fill="#4CAF4F"/>
<path d="M293.264 421.969C299.1 425.68 305.186 429.318 311.353 432.785C349.329 454.764 385.805 467.345 416.844 469.172C440.617 474.378 460.56 475.656 481.551 473.319C517.818 472.602 564.336 448.858 606.012 409.8C638.444 385.782 659.486 362.786 670.362 339.479C681.797 315.923 684.743 287.392 679.369 252.253C674.598 211.086 655.643 167.978 625.998 130.859C614.41 116.465 602.203 105.29 588.682 96.6925C573.915 87.3024 557.154 80.8364 537.44 76.9247C499.169 60.2942 412.135 45.6502 365.028 52.2434C312.452 52.0431 295.832 74.2956 270.683 107.98C264.032 116.886 256.496 126.982 247.575 137.61C240.915 146.177 234.772 153.917 228.832 161.402C192.219 207.546 172.05 232.964 173.92 274.561C172.257 305.012 191.932 329.087 208.731 343.925C229.681 373.372 258.106 399.613 293.264 421.969ZM588.952 96.2708C602.528 104.903 614.783 116.123 626.412 130.568C656.123 167.767 675.118 210.973 679.9 252.228C685.288 287.459 682.329 316.082 670.852 339.722C659.947 363.096 638.857 386.151 606.38 410.2C564.64 449.319 517.997 473.114 481.631 473.831C460.602 476.174 440.602 474.893 416.811 469.679C385.728 467.853 349.161 455.244 311.11 433.221C304.934 429.749 298.836 426.105 292.995 422.39C257.771 399.992 229.291 373.7 208.34 344.239C191.495 329.368 171.711 305.152 173.384 274.516C171.508 232.768 191.713 207.302 228.395 161.071C234.335 153.586 240.476 145.847 247.144 137.275C256.06 126.652 263.592 116.562 270.238 107.659C295.476 73.8589 312.151 51.5298 364.947 51.7324C387.263 48.6077 419.282 49.8985 455.068 55.3724C487.955 60.4033 518.797 68.2806 537.568 76.4418C557.295 80.3484 574.121 86.8403 588.952 96.2708Z" fill="#4CAF4F"/>
<path d="M305.233 426.6C307.731 428.189 310.289 429.768 312.835 431.295C350.227 454.34 386.746 466.518 418.443 466.51C440.382 470.035 460.616 470.172 482.169 466.948C517.089 465.079 561.925 442.676 602.128 407.016C635.588 384.01 656.436 362.946 667.756 340.709C679.787 318.015 683.234 290.302 678.296 255.984C673.818 214.202 653.774 169.015 623.303 131.996C612.301 118.732 600.78 108.361 588.085 100.289C571.9 89.9973 554.016 83.5251 531.798 79.9188C494.917 65.1853 413.92 52.3266 368.56 58.4316C317.404 58.4024 300.08 79.5755 273.855 111.626C267.783 119.045 260.903 127.452 253.08 136.22C247.259 143.324 241.832 149.845 236.581 156.148C200.052 200.013 179.928 224.173 180.924 264.228C178.47 294.45 196.706 319.653 212.435 335.477C234.609 370.595 266.688 402.09 305.233 426.6ZM588.355 99.8672C601.104 107.974 612.67 118.386 623.712 131.699C654.252 168.8 674.339 214.094 678.826 255.967C683.779 290.378 680.317 318.185 668.239 340.967C656.886 363.272 635.99 384.391 602.486 407.423C562.226 443.135 517.276 465.585 482.268 467.457C460.685 470.689 440.396 470.551 418.444 467.02C386.683 467.03 350.059 454.823 312.576 431.723C310.029 430.195 307.467 428.612 304.964 427.02C266.343 402.462 234.205 370.908 212.025 335.765C196.25 319.907 177.919 294.565 180.388 264.171C179.389 223.967 199.55 199.757 236.151 155.808C241.401 149.506 246.83 142.988 252.653 135.877C260.476 127.108 267.355 118.703 273.422 111.29C286.978 94.7226 297.684 81.6369 311.69 72.3684C326.812 62.3615 344.326 57.9033 368.479 57.9195C389.88 55.0389 420.216 56.08 453.865 60.8586C484.537 65.2147 513.71 72.1571 531.905 79.4292C554.143 83.032 572.1 89.531 588.355 99.8672Z" fill="#4CAF4F"/>
<path d="M316.898 432.027C352.804 454.859 388.335 465.948 419.65 464.092C440.221 466.132 459.574 465.111 482.445 460.779C516.083 457.733 559.285 436.611 598.039 404.275C632.136 382.578 653.417 362.747 665.036 341.85C677.513 320.291 681.593 292.589 677.17 259.499C672.943 216.452 652.321 170.27 620.591 132.787C610.131 120.517 599.237 110.86 587.287 103.261C569.958 92.2424 550.516 85.6596 526.102 82.5501C489.351 69.2702 415.641 58.6653 371.913 64.3262C321.958 64.5066 304.721 83.6207 276.163 115.287C270.591 121.464 264.834 127.848 258.268 134.72C253.422 140.297 248.832 145.51 244.398 150.555C207.648 192.317 187.407 215.321 187.478 254.006C184.217 284.023 201.011 310.387 215.671 327.224C238.689 368.197 272.633 403.744 313.863 430.07C314.879 430.733 315.887 431.384 316.898 432.027ZM587.558 102.839C599.559 110.47 610.497 120.167 620.995 132.482C652.798 170.051 673.466 216.342 677.701 259.485C682.139 292.671 678.038 320.477 665.511 342.122C653.855 363.086 632.526 382.969 598.384 404.692C559.583 437.071 516.276 458.235 482.564 461.287C459.666 465.625 440.264 466.649 419.682 464.605C388.291 466.468 352.64 455.348 316.628 432.449C315.615 431.805 314.605 431.153 313.59 430.488C272.279 404.112 238.269 368.493 215.238 327.485C200.538 310.613 183.665 284.114 186.945 253.939C186.871 215.103 207.156 192.052 243.975 150.204C248.413 145.162 252.999 139.949 257.852 134.366C264.422 127.49 270.176 121.106 275.744 114.935C290.014 99.1121 301.284 86.6163 315.522 77.7562C330.876 68.1991 348.242 63.8998 371.835 63.8146C392.339 61.1583 421.019 61.9342 452.555 66.0032C481.022 69.6757 508.551 75.6769 526.192 82.0567C550.632 85.1622 570.153 91.7709 587.558 102.839Z" fill="#4CAF4F"/>
<path d="M322.957 433.895C356.913 455.487 390.829 465.037 421.038 461.514C439.742 462.183 458.82 460.021 482.939 454.503C515.359 450.303 556.936 430.509 594.179 401.549C629.413 380.937 650.484 362.914 662.53 343.087C675.61 322.379 680.203 295.485 676.188 263.145C672.176 218.834 650.923 171.65 617.875 133.681C607.902 122.297 597.567 113.275 586.285 106.101C567.845 94.375 546.875 87.7396 520.295 85.217C485.132 73.9444 416.877 64.9819 375.051 70.1242C325.989 70.4859 307.694 88.7599 277.379 119.032C272.909 123.493 268.288 128.112 263.241 132.996C259.566 136.939 256.014 140.723 252.597 144.362C215.293 184.096 194.746 205.982 193.889 243.456C189.854 273.229 205.231 300.777 218.839 318.648C241.156 363.08 274.389 401.082 314.978 428.595C317.619 430.426 320.304 432.208 322.957 433.895ZM586.555 105.68C597.886 112.885 608.261 121.943 618.274 133.372C651.397 171.429 672.7 218.724 676.721 263.135C680.751 295.575 676.133 322.577 662.998 343.374C650.911 363.266 629.789 381.34 594.511 401.977C557.227 430.969 515.56 450.801 483.078 455.007C458.937 460.533 439.816 462.698 421.104 462.025C390.805 465.562 356.759 455.981 322.687 434.315C320.028 432.624 317.337 430.837 314.688 429.003C274.022 401.438 240.72 363.357 218.389 318.883C204.744 300.975 189.301 273.296 193.356 243.374C194.212 205.749 214.804 183.817 252.185 144.002C255.601 140.361 259.153 136.58 262.837 132.627C267.89 127.738 272.511 123.123 276.978 118.66C292.152 103.509 304.132 91.542 318.729 83.0631C334.455 73.9324 351.8 69.7826 374.973 69.6132C416.835 64.465 485.206 73.4408 520.366 84.718C546.981 87.2369 568.033 93.9019 586.555 105.68Z" fill="#4CAF4F"/>
<path d="M327.915 435.058C360.402 455.716 393.095 463.94 422.463 458.839C442.254 458.229 461.135 454.112 483.408 448.115C515.132 442.654 554.05 424.649 590.207 398.712C614.382 385.776 644.12 367.909 659.863 344.232C673.544 324.393 678.656 298.325 675.058 266.751C671.337 221.875 648.926 172.491 615.104 134.642C605.595 124.06 595.789 115.622 585.128 108.843C565.379 96.2842 543.609 89.8562 514.54 88.0095C480.395 78.5802 417.575 71.5514 378.397 76.1049C329.82 76.6856 310.121 94.2879 277.482 123.451C274.595 126.027 271.613 128.693 268.506 131.442C266.284 133.639 264.101 135.787 261.973 137.89C224.871 174.472 202.479 196.555 200.62 233.025C195.816 262.512 209.748 291.23 222.282 310.134C243.474 357.27 276.836 398.788 316.239 427.078C320.095 429.899 324.024 432.584 327.915 435.058ZM585.398 108.422C596.106 115.231 605.953 123.703 615.499 134.324C631.355 152.072 645.172 172.95 655.456 194.711C666.853 218.825 673.629 243.058 675.592 266.743C679.202 298.429 674.064 324.605 660.321 344.535C644.522 368.296 614.721 386.204 590.523 399.15C554.335 425.111 515.341 443.146 483.568 448.616C461.282 454.617 442.367 458.741 422.562 459.348C393.092 464.469 360.258 456.217 327.646 435.479C323.743 432.998 319.803 430.305 315.939 427.478C296.29 413.373 278.242 396.197 262.298 376.428C246.141 356.399 232.522 334.164 221.814 310.343C209.25 291.401 195.26 262.552 200.088 232.932C201.952 196.307 224.393 174.177 261.572 137.515C263.705 135.416 265.884 133.267 268.113 131.061C271.233 128.305 274.214 125.638 277.098 123.063C309.822 93.823 329.575 76.1733 378.318 75.5926C417.534 71.0366 480.45 78.0738 514.591 87.5055C543.703 89.3541 565.559 95.8062 585.398 108.422Z" fill="#4CAF4F"/>
<path d="M332.276 435.844C363.638 455.787 395.397 462.839 424.116 456.238C444.057 454.239 463.508 448.207 484.101 441.819C514.804 435.118 552.099 418.418 586.446 395.995C612.608 383.283 641.475 367.357 657.392 345.521C671.671 326.569 677.297 301.334 674.109 270.519C670.614 224.435 647.58 174.07 612.491 135.785C603.413 125.933 594.095 118.024 584.001 111.606C563.232 98.3994 540.082 92.0359 508.943 90.9755C475.998 83.4697 419.502 78.1514 381.898 82.2372C332.998 83.0682 311.26 100.348 275.243 128.978L273.936 130.015L272.935 130.912C234.003 165.804 210.501 186.865 207.546 222.689C201.989 251.849 214.476 281.746 225.929 301.698C246.271 352.134 278.868 396.132 317.729 425.623C322.518 429.313 327.411 432.751 332.276 435.844ZM584.271 111.184C594.41 117.631 603.767 125.573 612.88 135.465C648.051 173.839 671.14 224.327 674.643 270.517C677.84 301.451 672.187 326.793 657.838 345.84C641.862 367.759 612.934 383.719 586.744 396.444C552.377 418.882 515.021 435.606 484.281 442.315C463.685 448.704 444.21 454.745 424.249 456.743C395.412 463.374 363.505 456.294 332.006 436.265C327.127 433.162 322.218 429.713 317.416 426.012C278.472 396.462 245.811 352.375 225.449 301.881C213.968 281.888 201.433 251.867 207.014 222.581C209.982 186.599 233.535 165.492 272.553 130.525L273.564 129.619L274.882 128.571C310.981 99.8762 332.768 82.5583 381.818 81.7254C419.459 77.6376 476.035 82.9595 508.973 90.4699C540.165 91.5268 563.407 97.9168 584.271 111.184Z" fill="#4CAF4F"/>
<path d="M335.494 436.401C365.957 455.772 396.971 461.744 425.188 453.673C441.31 450.875 457.337 445.131 474.304 439.053C477.544 437.891 480.842 436.711 484.211 435.523C514.266 427.43 549.947 412.007 582.116 393.203C608.791 381.513 638.212 366.855 654.372 346.673C669.26 328.6 675.41 304.187 672.649 274.111C669.408 226.804 645.783 175.449 609.451 136.737C600.783 127.545 591.92 120.118 582.357 114.037C560.606 100.206 536.116 93.9607 502.956 93.7887C471.54 88.3017 420.973 84.6488 385.024 88.2789C338.203 89.3715 313.729 104.234 278.98 128.579C241.352 158.48 218.076 178.532 214.038 212.418C207.729 241.243 218.749 272.335 229.103 293.347C248.519 347.068 280.32 393.545 318.666 424.249C324.187 428.723 329.849 432.811 335.494 436.401ZM582.626 113.616C592.233 119.725 601.132 127.18 609.836 136.409C646.254 175.217 669.933 226.693 673.182 274.113C675.954 304.313 669.772 328.841 654.805 347.009C638.583 367.268 609.099 381.959 582.397 393.661C550.216 412.473 514.492 427.914 484.411 436.013C481.063 437.193 477.766 438.375 474.527 439.536C457.537 445.623 441.492 451.371 425.352 454.174C411.738 458.068 397.257 458.683 382.335 455.993C366.629 453.161 350.778 446.711 335.225 436.821C329.56 433.219 323.881 429.117 318.341 424.63C279.914 393.862 248.048 347.295 228.61 293.507C218.232 272.45 207.175 241.238 213.509 212.297C217.564 178.253 240.898 158.148 278.63 128.165C313.464 103.755 337.998 88.8619 384.948 87.767C420.924 84.1326 471.556 87.7888 502.962 93.2798C536.191 93.449 560.775 99.7218 582.626 113.616Z" fill="#4CAF4F"/>
<path d="M338.834 436.536C368.611 455.471 399.066 460.469 426.903 450.986C440.363 447.625 453.711 442.059 467.844 436.167C473.367 433.865 479.08 431.483 485.009 429.143C507.018 422.008 541.095 409.499 578.541 390.39C607.129 379.223 635.815 366.348 652.137 347.847C667.638 330.672 674.299 307.077 671.933 277.721C668.912 229.172 644.636 176.8 606.989 137.623C598.807 129.142 590.112 121.951 581.149 116.251C558.41 101.792 532.585 95.6839 497.412 96.443C470.067 93.2458 425.164 90.7084 388.478 94.0724C344.619 95.3831 318.021 106.593 284.275 126.825C245.967 152.916 225.628 171.679 220.786 201.805C213.761 230.266 223.336 262.582 232.607 284.683C251.118 341.691 282.193 390.684 320.119 422.66C326.241 427.865 332.538 432.533 338.834 436.536ZM581.419 115.831C590.422 121.556 599.153 128.777 607.368 137.292C624.831 155.466 640.032 177.425 651.329 200.796C663.607 226.199 670.916 252.804 672.468 277.727C674.844 307.215 668.146 330.927 652.556 348.201C636.17 366.772 607.424 379.677 578.801 390.856C541.348 409.971 507.244 422.49 485.232 429.625C479.322 431.959 473.612 434.34 468.09 436.64C453.941 442.54 440.576 448.113 427.099 451.479C413.668 456.054 399.414 457.257 384.754 455.044C369.314 452.713 353.774 446.629 338.564 436.957C332.244 432.938 325.926 428.253 319.784 423.033C281.776 390.988 250.639 341.904 232.104 284.819C222.813 262.667 213.208 230.238 220.263 201.669C222.661 186.722 229.145 173.887 240.662 161.297C252.234 148.651 268.306 137.048 283.952 126.392C317.784 106.109 344.443 94.8746 388.402 93.5619C425.11 90.1941 470.061 92.7329 497.394 95.9338C532.649 95.1669 558.575 101.305 581.419 115.831Z" fill="#4CAF4F"/>
<path d="M341.473 436.723C370.65 455.276 400.616 459.334 428.131 448.456C439.602 444.667 450.985 439.15 463.036 433.31C470.141 429.868 477.489 426.306 485.263 422.9C490.684 420.81 496.357 418.65 502.245 416.408C524.155 408.067 548.987 398.613 574.342 387.675C608.034 376.068 633.653 365.069 649.221 349.104C665.328 332.832 672.508 310.067 670.556 281.442C667.83 232.425 642.334 177.745 604.022 138.737C596.197 130.801 587.911 124.029 579.395 118.614C555.401 103.357 529.117 97.6161 491.51 99.4152C478.674 98.7397 433.629 96.8046 391.698 100.252C352.441 101.753 322.816 109.069 289.43 125.501C261.134 141.215 234.031 160.104 227.422 191.62C221.301 213.829 224.245 243.137 235.935 276.389C253.459 336.62 283.748 388.084 321.221 421.31C327.824 427.19 334.637 432.376 341.473 436.723ZM579.665 118.193C588.219 123.632 596.54 130.432 604.395 138.403C622.379 156.712 638.027 179.02 649.649 202.918C662.262 228.853 669.675 256.01 671.09 281.454C673.051 310.217 665.828 333.103 649.624 349.471C633.993 365.504 608.319 376.529 574.577 388.154C549.23 399.089 524.392 408.544 502.477 416.887C496.59 419.129 490.918 421.289 485.508 423.373C477.754 426.773 470.41 430.331 463.309 433.772C451.241 439.619 439.844 445.142 428.356 448.938C415.078 454.188 401.021 455.962 386.584 454.208C371.374 452.362 356.107 446.62 341.203 437.143C334.34 432.779 327.501 427.574 320.874 421.672C283.322 388.376 252.973 336.819 235.426 276.503C223.707 243.167 220.754 213.755 226.9 191.465C229.803 177.623 236.603 165.474 247.693 154.347C257.251 144.752 270.422 135.441 289.144 125.047C322.612 108.574 352.296 101.243 391.624 99.7377C433.573 96.2903 478.65 98.2282 491.467 98.9039C529.173 97.0967 555.561 102.865 579.665 118.193Z" fill="#4CAF4F"/>
<path d="M343.92 436.786C372.215 454.778 402.608 458.033 429.501 445.951C439.432 441.827 449.308 436.308 459.764 430.465C468.013 425.855 476.544 421.087 485.716 416.658C508.356 406.403 535.501 397.018 564.238 387.081L570.429 384.939C599.437 376.26 629.21 366.437 646.661 350.306C663.393 334.934 671.095 312.977 669.553 285.045C667.073 234.785 640.94 179.053 601.351 139.597C593.857 132.149 585.946 125.76 577.837 120.604C546.469 100.657 513.703 100.049 485.79 102.086C468.445 102.408 433.609 103.356 394.999 106.122C363.228 107.651 329.077 110.86 294.561 123.885C259.841 138.259 240.59 156.472 233.984 181.2C227.218 203.402 228.975 232.584 239.202 267.941C255.734 331.435 285.265 385.418 322.355 419.949C329.36 426.477 336.616 432.141 343.92 436.786ZM578.107 120.183C586.251 125.362 594.197 131.779 601.723 139.256C641.405 178.809 667.602 234.678 670.087 285.062C671.639 313.139 663.887 335.222 647.05 350.69C629.523 366.89 599.691 376.734 570.638 385.428L564.456 387.566C535.73 397.498 508.597 406.88 485.982 417.124C476.827 421.544 468.304 426.307 460.062 430.914C449.592 436.764 439.704 442.29 429.753 446.422C416.587 452.337 402.675 454.668 388.405 453.351C373.368 451.961 358.311 446.53 343.65 437.208C336.316 432.544 329.03 426.856 321.999 420.304C284.832 385.697 255.242 331.619 238.684 268.033C228.432 232.587 226.675 203.311 233.463 181.027C240.111 156.158 259.449 137.846 294.324 123.409C328.913 110.355 363.113 107.137 394.922 105.609C433.538 102.845 468.385 101.896 485.719 101.574C513.712 99.5291 546.591 100.143 578.107 120.183Z" fill="#4CAF4F"/>
<path d="M305.378 437.674C333.272 455.412 363.342 457.785 390.048 444.358C398.728 439.977 407.386 434.443 416.551 428.586C425.651 422.769 435.061 416.754 445.333 411.327C465.265 400.8 489.289 392.362 525.662 383.116C556.513 375.253 585.659 366.988 603.225 352.423C620.578 337.958 628.803 316.813 627.671 289.572C625.447 238.078 598.687 181.308 557.835 141.415C550.659 134.421 543.104 128.387 535.379 123.475C502.832 102.778 468.524 102.894 439.259 105.737C434.495 106.204 429.617 106.697 424.617 107.205C404.688 109.222 382.1 111.51 357.521 112.982C351.699 113.331 345.681 113.637 339.859 113.932C312.668 115.315 284.553 116.744 258.937 123.257C228.74 130.946 207.74 148.171 199.807 171.756C192.506 193.611 193.149 223.452 201.718 260.452C217.233 327.182 245.991 383.673 282.699 419.52C290.039 426.665 297.67 432.773 305.378 437.674ZM535.65 123.053C543.408 127.987 550.997 134.048 558.203 141.069C599.152 181.06 625.977 237.97 628.207 289.594C629.345 316.988 621.064 338.26 603.595 352.821C585.952 367.45 556.746 375.735 525.839 383.613C489.506 392.85 465.516 401.273 445.622 411.783C435.366 417.2 425.965 423.208 416.873 429.02C407.697 434.885 399.03 440.424 390.325 444.817C377.249 451.391 363.457 454.269 349.326 453.371C334.436 452.422 319.559 447.284 305.108 438.095C297.365 433.171 289.702 427.037 282.332 419.865C264.054 402.015 247.683 378.972 233.671 351.372C219.772 323.994 208.847 293.429 201.195 260.523C192.606 223.434 191.967 193.503 199.294 171.563C207.279 147.824 228.399 130.489 258.762 122.759C284.427 116.234 312.571 114.803 339.788 113.418C345.607 113.124 351.624 112.818 357.442 112.467C382.013 110.999 404.593 108.712 424.519 106.694C429.515 106.187 434.398 105.694 439.161 105.225C468.527 102.372 502.951 102.26 535.65 123.053Z" fill="#4CAF4F"/>
<path d="M350.146 431.802C377.917 449.462 407.289 452.158 432.85 439.393C441.907 434.877 450.771 429.175 460.153 423.138C468.506 417.765 477.143 412.209 486.564 407.075C490.989 404.683 495.783 402.323 500.812 400.058C517.489 392.55 536.984 385.943 564.024 378.632C593.66 370.57 621.664 362.14 638.601 347.713C655.315 333.417 663.265 312.776 662.234 286.364C661.065 255.917 651.105 224.364 633.434 195.115C622.266 176.263 608.027 158.432 592.255 143.542C585.346 136.936 578.075 131.191 570.648 126.468C550.692 113.778 528.655 107.563 501.301 106.911C493.799 106.753 485.779 107.011 476.788 107.701C469.716 108.199 462.471 108.759 454.801 109.351C437.608 110.674 418.124 112.177 397.366 113.207C393.971 113.364 390.554 113.513 387.117 113.663C363.742 114.684 339.569 115.738 316.828 120.013C311.426 121.026 306.232 122.197 301.391 123.495C272.253 131.247 251.888 148.197 244.044 171.219C236.749 192.716 237.141 221.79 245.204 257.631C250.427 281.719 258.542 305.658 269.323 328.782C276.748 344.935 285.41 360.425 295.07 374.821C304.78 389.264 315.081 401.616 327.492 413.694C334.795 420.794 342.417 426.888 350.146 431.802ZM570.918 126.048C578.378 130.792 585.68 136.559 592.617 143.193C608.427 158.116 622.7 175.994 633.892 194.888C651.61 224.213 661.597 255.854 662.77 286.387C663.808 312.949 655.802 333.715 638.976 348.108C621.961 362.601 593.902 371.05 564.208 379.127C537.194 386.431 517.722 393.031 501.071 400.526C496.054 402.786 491.271 405.141 486.856 407.526C477.45 412.652 468.822 418.204 460.478 423.572C451.082 429.617 442.209 435.324 433.127 439.853C407.391 452.705 377.824 449.995 349.876 432.223C342.112 427.287 334.459 421.169 327.127 414.041C314.687 401.933 304.358 389.549 294.626 375.072C284.95 360.652 276.274 345.137 268.836 328.957C258.04 305.798 249.911 281.822 244.678 257.697C236.596 221.768 236.211 192.606 243.533 171.024C251.43 147.851 271.911 130.793 301.208 122.998C306.062 121.698 311.269 120.524 316.682 119.51C339.46 115.226 363.651 114.17 387.049 113.15C390.485 113.001 393.904 112.852 397.296 112.692C418.046 111.664 436.687 110.227 454.716 108.839C462.386 108.246 469.63 107.686 476.703 107.189C485.714 106.498 493.748 106.239 501.267 106.399C528.734 107.052 550.865 113.297 570.918 126.048Z" fill="#4CAF4F"/>
<path d="M354.337 427.013C381.937 444.563 410.57 447.572 434.961 435.484C444.413 430.828 453.472 424.954 463.064 418.735C470.651 413.815 478.496 408.727 487.047 403.917C491.296 401.563 495.913 399.22 500.774 396.951C516.893 389.424 535.64 382.74 561.558 375.282C589.948 367.036 616.779 358.454 633.074 344.179C649.129 330.064 656.798 309.951 655.864 284.394C654.852 254.299 644.816 223.747 626.846 196.037C615.74 178.237 601.932 161.759 585.799 147.061C579.171 140.85 572.203 135.409 565.091 130.886C545.576 118.477 524.03 112.106 497.281 110.833C489.991 110.524 482.23 110.605 473.552 111.081C463.417 111.503 452.81 112.068 441.582 112.668C427.298 113.431 412.53 114.22 396.526 114.836L394.821 114.893C369.305 115.72 342.922 116.577 318.187 121.55C312.981 122.591 307.955 123.791 303.257 125.116C275.21 132.924 255.499 149.577 247.757 172.01C240.477 193.127 240.616 221.4 248.166 256.044C252.876 279.431 260.902 302.343 272.699 326.095C280.174 341.549 288.792 356.251 299.041 371.045C308.358 384.444 318.126 395.78 331.698 408.945C338.964 416.002 346.58 422.081 354.337 427.013ZM565.362 130.465C572.505 135.007 579.5 140.471 586.155 146.704C602.323 161.437 616.166 177.956 627.296 195.799C645.319 223.585 655.385 254.23 656.4 284.419C657.338 310.122 649.618 330.36 633.453 344.571C617.086 358.908 590.197 367.51 561.75 375.774C535.858 383.225 517.134 389.9 501.04 397.416C496.19 399.68 491.582 402.019 487.343 404.367C478.807 409.169 470.968 414.252 463.388 419.167C453.787 425.394 444.714 431.276 435.237 435.944C423.243 441.888 410.152 444.213 396.327 442.854C382.191 441.464 367.973 436.276 354.068 427.434C346.277 422.48 338.628 416.375 331.332 409.289C317.731 396.096 307.941 384.736 298.603 371.303C288.337 356.485 279.705 341.758 272.216 326.281C260.399 302.489 252.359 279.533 247.642 256.105C240.071 221.374 239.937 193.013 247.246 171.815C255.04 149.233 274.864 132.472 303.069 124.623C307.781 123.293 312.816 122.093 318.037 121.048C342.813 116.066 369.22 115.209 394.761 114.381L396.46 114.324C412.457 113.706 427.227 112.917 441.509 112.156C452.739 111.556 463.346 110.99 473.483 110.567C482.172 110.092 489.95 110.01 497.261 110.32C524.116 111.597 545.756 117.998 565.362 130.465Z" fill="#4CAF4F"/>
<path d="M358.598 422.269C385.657 439.475 414.32 442.886 437.24 431.629C447.137 426.823 456.401 420.758 466.209 414.338C473.035 409.87 480.09 405.251 487.772 400.789C491.859 398.47 496.309 396.141 500.999 393.868C516.583 386.317 534.609 379.555 559.449 371.946C586.636 363.517 612.337 354.782 628.014 340.643C643.434 326.696 650.823 307.083 649.979 282.352C649.112 252.57 638.974 222.973 620.662 196.758C609.783 180.253 595.99 164.622 579.665 150.289C573.315 144.469 566.648 139.33 559.848 135.006C540.732 122.851 519.625 116.3 493.419 114.388C486.323 113.927 478.805 113.826 470.437 114.085C455.849 114.244 440.104 114.735 423.436 115.252C414.518 115.531 405.297 115.818 395.675 116.073C370.639 116.505 344.131 117.369 319.412 122.674C314.375 123.746 309.514 124.974 304.958 126.326C277.958 134.187 258.876 150.562 251.229 172.434C243.958 193.198 243.856 220.71 250.922 254.204C255.193 277.127 263.138 299.066 275.929 323.255C283.328 337.768 292.158 352.136 302.932 367.189C313.059 381.275 322.684 391.417 335.887 404.177C343.142 411.213 350.783 417.299 358.598 422.269ZM560.118 134.586C566.947 138.928 573.64 144.09 580.014 149.93C596.372 164.292 610.2 179.964 621.105 196.505C639.474 222.8 649.645 252.497 650.515 282.38C651.364 307.254 643.923 326.988 628.397 341.03C612.65 355.234 586.893 363.992 559.652 372.436C534.836 380.039 516.831 386.791 501.273 394.329C496.591 396.599 492.151 398.923 488.074 401.235C480.406 405.691 473.354 410.305 466.536 414.769C456.714 421.199 447.437 427.271 437.514 432.091C414.422 443.433 385.56 440.007 358.328 422.69C350.478 417.699 342.806 411.586 335.522 404.523C322.296 391.741 312.652 381.576 302.497 367.455C291.708 352.378 282.862 337.986 275.455 323.453C262.638 299.218 254.676 277.23 250.396 254.26C243.31 220.681 243.42 193.083 250.72 172.235C258.42 150.219 277.611 133.738 304.764 125.832C309.329 124.478 314.205 123.247 319.254 122.173C344.02 116.858 370.558 115.992 395.619 115.56C405.236 115.305 414.458 115.018 423.375 114.741C440.046 114.22 455.793 113.731 470.379 113.573C478.764 113.313 486.299 113.415 493.413 113.876C519.721 115.795 540.916 122.375 560.118 134.586Z" fill="#4CAF4F"/>
<path d="M362.647 417.886C389.483 434.95 417.372 438.635 439.165 427.994C449.536 423.009 458.998 416.727 469.017 410.076C475.071 406.056 481.333 401.899 488.135 397.799C492.052 395.511 496.331 393.191 500.859 390.903C515.898 383.304 533.195 376.438 556.945 368.639C581.876 360.333 607.476 351.053 622.527 337.027C637.317 323.22 644.45 304.094 643.73 280.181C643.052 250.706 632.864 222.071 614.27 197.37C603.691 182.197 589.952 167.426 573.43 153.458C567.385 148.047 561.048 143.222 554.591 139.117C535.901 127.232 515.248 120.52 489.597 117.993C482.709 117.387 475.444 117.12 467.383 117.172C445.437 116.732 420.923 117.104 394.968 117.497C372.207 117.557 345.603 118.389 320.85 124.098C315.992 125.206 311.297 126.47 306.887 127.856C280.949 135.809 262.491 151.937 254.916 173.27C247.629 193.697 247.245 220.454 253.774 252.799C257.605 275.394 265.427 296.376 279.134 320.837C286.466 334.536 295.226 348.164 306.699 363.725C317.264 377.969 326.894 387.253 339.088 399.011L339.872 399.765C347.108 406.782 354.771 412.877 362.647 417.886ZM554.861 138.696C561.346 142.819 567.709 147.661 573.772 153.091C590.327 167.087 604.1 181.896 614.701 197.101C633.361 221.884 643.585 250.626 644.266 280.211C644.991 304.262 637.809 323.508 622.918 337.409C607.796 351.499 582.138 360.804 557.156 369.126C533.429 376.917 516.155 383.774 501.139 391.361C496.619 393.646 492.348 395.96 488.444 398.242C481.653 402.333 475.397 406.488 469.345 410.506C459.314 417.166 449.837 423.459 439.438 428.457C417.473 439.181 389.385 435.481 362.377 418.307C354.466 413.277 346.771 407.156 339.506 400.111L338.723 399.358C326.511 387.582 316.866 378.282 306.27 363.998C294.779 348.414 286.008 334.766 278.665 321.046C264.926 296.532 257.089 275.498 253.247 252.849C246.702 220.423 247.093 193.58 254.407 173.069C262.033 151.595 280.6 135.365 306.685 127.365C311.106 125.976 315.819 124.71 320.687 123.597C345.49 117.876 372.129 117.043 394.92 116.984C420.875 116.59 445.396 116.219 467.347 116.663C475.414 116.607 482.697 116.873 489.605 117.481C515.356 120.017 536.091 126.759 554.861 138.696Z" fill="#4CAF4F"/>
<path d="M366.824 413.09C393.429 430.008 420.53 433.988 441.18 424.01C452.05 418.862 461.688 412.373 471.892 405.501C477.17 401.946 482.626 398.271 488.54 394.584C492.341 392.3 496.334 390.064 500.747 387.743C515.223 380.133 531.781 373.198 554.432 365.259C578.176 356.796 602.566 347.37 616.986 333.488C631.12 319.865 637.967 301.265 637.332 278.206C636.796 249.081 626.516 221.434 607.599 198.254C597.201 184.242 583.872 170.718 566.845 156.901C561.117 151.903 555.121 147.406 549.019 143.526C530.725 131.893 510.501 124.987 485.375 121.793C478.691 121.032 471.676 120.586 463.932 120.426C444.812 119.382 423.203 118.933 393.861 118.969C364.445 118.544 341.579 120.599 321.899 125.442C317.221 126.576 312.692 127.867 308.431 129.279C283.573 137.271 265.767 153.097 258.29 173.845C251.125 193.614 250.485 220.299 256.44 251.014C260.809 279.249 272.533 301.632 282.258 317.976C291.507 334.364 302.188 348.937 310.46 359.801C319.756 371.926 328.24 379.988 338.062 389.321C339.943 391.108 341.883 392.952 343.901 394.891C351.147 401.903 358.859 408.025 366.824 413.09ZM549.289 143.104C555.417 147.001 561.437 151.517 567.179 156.527C584.237 170.371 597.598 183.929 608.019 197.968C627.006 221.235 637.331 248.995 637.868 278.236C638.505 301.432 631.612 320.151 617.38 333.865C602.892 347.812 578.448 357.26 554.654 365.742C532.025 373.675 515.488 380.599 501.035 388.197C496.63 390.514 492.644 392.746 488.854 395.024C482.951 398.704 477.497 402.377 472.224 405.928C462.004 412.811 452.353 419.312 441.45 424.474C420.631 434.534 393.332 430.538 366.554 413.511C358.555 408.424 350.81 402.277 343.538 395.237C341.52 393.299 339.58 391.457 337.703 389.671C327.861 380.32 319.362 372.245 310.038 360.081C301.754 349.201 291.057 334.609 281.794 318.196C272.048 301.815 260.295 279.375 255.912 251.058C249.94 220.264 250.587 193.493 257.783 173.642C265.306 152.757 283.221 136.827 308.221 128.792C312.493 127.378 317.035 126.081 321.726 124.942C341.453 120.093 364.359 118.028 393.821 118.457C423.171 118.418 444.785 118.867 463.908 119.913C471.66 120.072 478.693 120.52 485.395 121.283C510.617 124.49 530.919 131.423 549.289 143.104Z" fill="#4CAF4F"/>
<path d="M371.21 408.425C397.129 424.906 424.078 429.245 443.302 420.036C454.704 414.707 464.5 407.981 474.871 400.86C479.376 397.767 484.035 394.57 489.062 391.312C492.687 389.067 496.512 386.843 500.758 384.509C514.483 376.974 530.78 369.738 552.045 361.738C574.6 353.092 597.777 343.495 611.578 329.727C625.068 316.265 631.643 298.173 631.12 275.955C630.756 247.167 620.414 220.502 601.21 198.845C591.085 186.067 578.185 173.75 560.601 160.07C555.22 155.502 549.598 151.348 543.882 147.713C525.988 136.334 506.183 129.24 481.556 125.381C475.081 124.471 468.321 123.849 460.89 123.487C440.811 121.679 418.671 120.646 393.194 120.324C366.27 119.477 342.794 121.636 323.412 126.745C318.918 127.911 314.553 129.234 310.439 130.677C286.66 138.736 269.496 154.289 262.104 174.477C254.935 193.893 254.022 219.777 259.465 249.331C263.276 276.799 274.848 298.058 285.665 315.229C294.425 329.985 304.674 343.538 314.443 355.985C322.885 366.658 330.312 373.532 338.909 381.491C341.827 384.19 344.842 386.983 348.104 390.109C355.367 397.131 363.14 403.293 371.21 408.425ZM544.153 147.291C549.893 150.941 555.537 155.112 560.927 159.69C578.54 173.391 591.472 185.741 601.615 198.544C620.901 220.289 631.291 247.074 631.656 275.988C632.182 298.337 625.562 316.542 611.979 330.098C598.112 343.93 574.882 353.551 552.277 362.218C531.033 370.209 514.756 377.436 501.052 384.961C496.813 387.289 492.996 389.509 489.382 391.747C484.364 394.998 479.709 398.194 475.206 401.285C464.819 408.418 455.006 415.155 443.57 420.499C433.647 425.254 422.043 426.543 409.084 424.332C396.756 422.229 383.565 416.873 370.94 408.845C362.836 403.692 355.03 397.505 347.742 390.457C344.481 387.331 341.467 384.542 338.553 381.845C329.937 373.869 322.494 366.982 314.026 356.272C304.243 343.808 293.983 330.238 285.208 315.461C274.364 298.246 262.76 276.924 258.939 249.369C253.48 219.74 254.4 193.768 261.598 174.272C269.039 153.95 286.307 138.296 310.222 130.194C314.347 128.747 318.727 127.419 323.232 126.25C342.661 121.129 366.193 118.962 393.16 119.809C418.65 120.133 440.804 121.168 460.885 122.974C468.321 123.337 475.1 123.962 481.594 124.875C506.311 128.746 526.187 135.867 544.153 147.291Z" fill="#4CAF4F"/>
<path d="M375.529 403.718C401.129 419.996 427.225 424.588 445.337 416.001C457.3 410.491 466.771 403.842 477.74 396.143C481.486 393.514 485.36 390.793 489.518 387.996C492.98 385.779 496.639 383.57 500.706 381.235C513.876 373.677 529.42 366.357 549.623 358.194C571 349.375 592.974 339.622 606.164 325.962C619.013 312.659 625.314 295.075 624.89 273.695C624.685 245.236 614.26 219.542 594.743 199.394C582.247 184.697 566.53 172.312 554.233 163.161C549.224 159.038 544.005 155.242 538.704 151.871C521.168 140.72 501.732 133.406 477.537 128.848C471.267 127.782 464.755 126.984 457.636 126.412C436.966 123.77 415.587 122.168 392.263 121.511C367.166 120.257 343.777 122.45 324.614 127.851C320.297 129.048 316.098 130.403 312.127 131.874C289.421 139.985 272.891 155.264 265.586 174.895C256.525 198.987 258.743 227.652 262.193 247.454C265.505 274.328 276.949 294.512 288.82 312.321C297.467 326.141 307.25 338.481 318.217 352.029C326.081 361.665 332.792 367.662 340.562 374.607C344.188 377.848 347.939 381.2 352.14 385.216C359.446 392.27 367.316 398.495 375.529 403.718ZM538.973 151.452C544.295 154.836 549.535 158.644 554.55 162.773C566.861 171.934 582.612 184.347 595.136 199.077C614.74 219.316 625.22 245.136 625.426 273.731C625.853 295.237 619.508 312.934 606.57 326.327C593.318 340.051 571.292 349.832 549.867 358.67C529.683 366.823 514.158 374.135 501.009 381.68C496.947 384.012 493.296 386.218 489.845 388.426C485.695 391.218 481.822 393.937 478.078 396.565C467.091 404.278 457.604 410.939 445.603 416.465C427.325 425.133 401.028 420.524 375.259 404.139C367.011 398.894 359.11 392.644 351.777 385.563C347.583 381.554 343.836 378.207 340.214 374.969C332.424 368.006 325.697 361.994 317.806 352.324C306.823 338.758 297.031 326.404 288.371 312.564C276.467 294.705 264.987 274.457 261.664 247.485C258.202 227.634 255.984 198.879 265.078 174.686C272.433 154.925 289.061 139.55 311.901 131.392C315.884 129.915 320.099 128.559 324.426 127.356C343.641 121.941 367.092 119.743 392.242 120.999C415.576 121.654 436.973 123.259 457.65 125.902C464.772 126.475 471.3 127.273 477.593 128.342C501.869 132.916 521.372 140.26 538.973 151.452Z" fill="#4CAF4F"/>
<path d="M379.916 399.549C405.166 415.605 430.396 420.437 447.406 412.474C459.949 406.792 469.511 399.906 480.581 391.934C483.594 389.765 486.708 387.523 490.025 385.201C493.321 383.02 496.816 380.825 500.712 378.485C513.324 370.916 528.121 363.515 547.28 355.193C567.487 346.218 588.266 336.319 600.85 322.761C613.062 309.62 619.084 292.537 618.75 271.992C618.688 243.856 608.162 219.123 588.308 200.466C577.356 188.542 564.213 178.363 547.844 166.745C543.25 163.087 538.472 159.674 533.629 156.594C516.407 145.643 497.276 138.069 473.427 132.757C467.35 131.528 461.082 130.552 454.269 129.773C433.431 126.261 412.797 124.079 391.171 123.1C367.356 121.43 344.687 123.581 325.607 129.323C321.465 130.549 317.43 131.93 313.605 133.432C291.954 141.585 276.056 156.58 268.841 175.661C259.782 199.318 261.604 226.938 264.728 245.945C267.432 270.894 277.522 289.517 291.838 309.808C300.393 322.768 310.135 334.425 320.45 346.767L321.897 348.498C329.364 357.361 335.571 362.683 342.76 368.845C346.899 372.394 351.179 376.061 356.124 380.773C363.509 387.89 371.514 394.206 379.916 399.549ZM533.898 156.175C538.758 159.265 543.555 162.689 548.153 166.352C564.54 177.981 577.71 188.183 588.682 200.128C608.636 218.881 619.224 243.748 619.285 272.03C619.622 292.698 613.56 309.89 601.265 323.119C588.619 336.743 567.789 346.667 547.536 355.663C528.396 363.977 513.617 371.37 501.023 378.927C497.132 381.263 493.645 383.455 490.36 385.627C487.051 387.943 483.935 390.185 480.926 392.354C469.834 400.341 460.255 407.239 447.67 412.94C430.495 420.981 405.064 416.133 379.646 399.97C371.211 394.606 363.175 388.264 355.76 381.121C350.829 376.422 346.556 372.759 342.422 369.216C335.214 363.037 328.987 357.699 321.49 348.801L320.042 347.066C309.716 334.711 299.964 323.041 291.399 310.063C277.035 289.709 266.909 271.017 264.197 245.969C261.065 226.918 259.241 199.204 268.334 175.45C275.599 156.246 291.592 141.153 313.371 132.953C317.205 131.448 321.256 130.06 325.41 128.832C344.548 123.071 367.283 120.913 391.16 122.585C412.8 123.566 433.457 125.751 454.304 129.264C461.118 130.045 467.402 131.025 473.5 132.255C497.426 137.587 516.616 145.185 533.898 156.175Z" fill="#4CAF4F"/>
<path d="M384.573 395.058C409.346 410.811 433.624 415.824 449.516 408.464C462.618 402.616 472.203 395.49 483.303 387.24C485.615 385.522 488.01 383.743 490.532 381.9C493.662 379.752 496.987 377.57 500.705 375.226C512.737 367.644 526.771 360.153 544.871 351.654C563.88 342.512 583.443 332.458 595.418 318.988C606.985 306.004 612.735 289.433 612.508 269.738C612.618 241.945 602.032 218.199 581.895 201.063C570.816 189.955 557.645 180.773 541.578 169.921C537.474 166.769 533.217 163.792 528.913 161.055C512.003 150.302 493.153 142.453 469.589 136.355C463.717 134.971 457.704 133.82 451.214 132.841C430.491 128.472 410.632 125.732 390.498 124.463C368.208 122.443 345.704 124.636 327.119 130.634C323.158 131.89 319.287 133.304 315.616 134.836C295.051 143.041 279.797 157.764 272.66 176.289C263.592 199.505 264.991 226.061 267.763 244.251C270.032 268.788 280.392 287.096 295.25 307.04C303.091 318.311 311.909 328.5 321.246 339.287C322.779 341.061 324.325 342.846 325.882 344.656C333.05 352.91 339.158 357.909 345.625 363.199C350.131 366.886 354.79 370.698 360.326 375.962C367.805 383.158 375.962 389.583 384.573 395.058ZM529.184 160.632C533.502 163.378 537.772 166.37 541.876 169.521C557.956 180.38 571.151 189.579 582.249 200.708C602.499 217.939 613.155 241.829 613.044 269.777C613.272 289.592 607.483 306.268 595.838 319.341C583.805 332.874 564.196 342.953 545.14 352.118C527.058 360.609 513.038 368.091 501.024 375.662C497.312 378.003 493.991 380.181 490.872 382.323C488.357 384.159 485.965 385.939 483.653 387.657C472.531 395.923 462.925 403.062 449.779 408.933C433.721 416.367 409.243 411.338 384.303 395.479C375.659 389.982 367.469 383.533 359.964 376.311C354.445 371.064 349.794 367.258 345.298 363.578C338.811 358.271 332.683 353.257 325.482 344.963C323.923 343.153 322.38 341.368 320.845 339.596C311.498 328.796 302.667 318.594 294.817 307.308C279.908 287.295 269.509 268.912 267.233 244.269C264.454 226.036 263.05 199.389 272.154 176.076C279.338 157.43 294.686 142.615 315.371 134.361C319.053 132.823 322.938 131.406 326.914 130.147C345.562 124.127 368.141 121.926 390.498 123.952C410.652 125.222 430.536 127.965 451.269 132.337C457.76 133.317 463.788 134.468 469.683 135.859C493.315 141.973 512.22 149.845 529.184 160.632Z" fill="#4CAF4F"/>
<path d="M389.224 390.561C413.825 406.205 436.542 411.246 451.549 404.392C465.183 398.403 474.27 391.405 485.776 382.544C487.45 381.253 489.176 379.925 490.976 378.552C493.948 376.431 497.108 374.263 500.638 371.922C512.086 364.338 525.364 356.765 542.427 348.087C559.462 339.205 578.596 328.604 589.971 315.21C600.895 302.384 606.368 286.322 606.24 267.472C606.506 240.019 595.839 217.25 575.393 201.619C564.92 192.032 552.24 183.928 538.814 175.351L535.175 173.024C531.657 170.431 528.027 167.941 524.367 165.614C507.688 155.009 488.997 146.815 465.542 139.832C459.869 138.285 454.104 136.957 447.932 135.78C427.17 130.457 408.623 127.241 389.547 125.661C368.331 123.266 346.588 125.427 328.315 131.744C324.531 133.029 320.824 134.47 317.298 136.036C297.812 144.282 283.196 158.723 276.141 176.699C267.066 199.477 268.063 224.975 270.499 242.353C272.569 269.22 285.424 287.587 298.412 304.096C305.688 314.005 313.785 322.994 322.354 332.508C324.765 335.183 327.205 337.892 329.666 340.664C336.628 348.443 342.442 352.959 348.597 357.742C353.384 361.46 358.333 365.306 364.367 371.028C371.879 378.243 380.474 384.998 389.224 390.561ZM524.636 165.194C528.308 167.528 531.951 170.025 535.463 172.617L539.085 174.931C552.533 183.525 565.235 191.64 575.727 201.246C596.3 216.971 607.043 239.892 606.776 267.516C606.905 286.477 601.395 302.64 590.397 315.553C578.968 329.01 559.79 339.639 542.709 348.545C525.661 357.215 512.399 364.779 500.969 372.353C497.44 374.689 494.286 376.854 491.326 378.968C489.531 380.336 487.806 381.665 486.133 382.954C474.601 391.833 465.493 398.849 451.809 404.86C436.634 411.79 413.724 406.733 388.954 390.982C380.171 385.397 371.543 378.617 364.005 371.377C357.995 365.677 353.056 361.839 348.279 358.128C342.103 353.33 336.27 348.797 329.27 340.978C326.808 338.205 324.37 335.498 321.962 332.826C313.38 323.298 305.274 314.298 297.991 304.379C284.954 287.806 272.046 269.362 269.966 242.364C267.525 224.943 266.527 199.357 275.639 176.483C282.738 158.392 297.444 143.861 317.045 135.563C320.583 133.996 324.301 132.546 328.098 131.26C346.441 124.917 368.269 122.747 389.558 125.148C408.658 126.734 427.235 129.952 448.011 135.279C454.181 136.46 459.958 137.788 465.655 139.342C489.17 146.343 507.908 154.556 524.636 165.194Z" fill="#4CAF4F"/>
<path d="M393.931 386.596C417.854 401.808 439.543 406.934 453.437 400.66C467.546 394.545 476.072 387.698 487.872 378.22C488.982 377.329 490.12 376.415 491.294 375.476C494.113 373.373 497.106 371.214 500.451 368.874C511.3 361.283 523.825 353.605 539.872 344.705C559.6 333.484 574.733 323.546 584.442 311.531C594.735 298.831 599.951 283.261 599.944 265.249C600.401 238.116 589.688 216.315 568.965 202.203C564.446 198.462 559.237 194.745 552.546 190.49C547.699 187.408 542.687 184.425 537.378 181.268C534.588 179.606 531.757 177.921 528.894 176.189C526.14 174.244 523.31 172.348 520.473 170.544C503.726 159.895 485.598 151.535 461.691 143.434C456.289 141.747 450.624 140.209 444.855 138.86C424.462 132.656 406.669 128.91 388.844 127.066C368.635 124.327 347.661 126.487 329.771 133.146C326.154 134.468 322.612 135.949 319.245 137.544C300.835 145.855 286.846 160.045 279.848 177.501C270.737 199.879 271.3 224.334 273.375 240.907C274.978 267.427 287.653 284.757 301.628 301.621C308.418 310.393 315.912 318.37 323.848 326.818C326.969 330.142 330.201 333.581 333.437 337.125C340.245 344.513 345.825 348.613 351.731 352.951C356.73 356.623 361.896 360.416 368.343 366.523C376.032 373.899 384.878 380.839 393.931 386.596ZM552.816 190.069C559.529 194.337 564.757 198.068 569.274 201.809C590.139 216.019 600.94 237.976 600.478 265.294C600.486 283.414 595.236 299.083 584.875 311.864C575.118 323.937 559.949 333.904 540.17 345.154C524.135 354.046 511.623 361.716 500.79 369.296C497.449 371.634 494.458 373.79 491.65 375.887C490.484 376.819 489.344 377.734 488.234 378.626C476.405 388.126 467.858 394.99 453.692 401.129C439.633 407.478 417.75 402.335 393.661 387.017C384.575 381.24 375.696 374.274 367.982 366.873C361.563 360.793 356.412 357.009 351.429 353.349C345.498 348.992 339.896 344.878 333.048 337.445C329.812 333.903 326.584 330.467 323.463 327.145C315.517 318.686 308.013 310.698 301.213 301.911C287.182 284.983 274.451 267.573 272.84 240.911C270.763 224.297 270.199 199.755 279.347 177.284C286.389 159.719 300.463 145.438 318.981 137.077C322.358 135.477 325.913 133.992 329.545 132.665C347.513 125.976 368.58 123.808 388.869 126.559C406.722 128.404 424.549 132.156 444.96 138.365C450.723 139.712 456.401 141.254 461.824 142.947C485.784 151.067 503.953 159.447 520.742 170.123C523.589 171.933 526.425 173.834 529.17 175.773C532.014 177.493 534.844 179.179 537.633 180.837C542.945 183.998 547.961 186.982 552.816 190.069Z" fill="#4CAF4F"/>
<path d="M562.551 203.163C560.305 201.5 557.918 199.87 555.233 198.162C549.014 194.208 542.265 190.53 535.121 186.635C531.037 184.409 526.812 182.108 522.54 179.67C520.855 178.541 519.149 177.426 517.447 176.344C500.662 165.67 482.214 156.694 457.639 147.238C452.416 145.379 447.004 143.653 441.556 142.111C421.29 134.881 404.731 130.693 387.846 128.533C368.563 125.411 348.347 127.516 330.908 134.459C327.465 135.804 324.09 137.309 320.873 138.929C303.301 147.368 290.311 160.887 283.308 178.033C274.201 199.958 274.388 223.332 276.147 239.08C277.356 265.253 289.884 281.582 304.902 298.737C311.31 306.558 318.332 313.684 325.761 321.228C329.541 325.065 333.447 329.033 337.377 333.201C344.101 340.276 349.513 344.013 355.24 347.969C360.412 351.539 365.759 355.232 372.585 361.676C380.529 369.275 389.715 376.463 399.148 382.461C422.323 397.198 442.946 402.4 455.73 396.735C470.221 390.584 478.104 383.973 490.037 373.967L491.984 372.334C494.655 370.252 497.48 368.113 500.628 365.79C510.982 358.148 522.4 350.632 537.653 341.418C555.956 330.072 570.028 320.062 579.199 308.099C588.841 295.57 593.765 280.525 593.835 263.379C594.403 237.338 584.145 216.865 564.17 204.163C563.637 203.824 563.097 203.488 562.551 203.163ZM555.503 197.741C558.2 199.456 560.598 201.095 562.832 202.75C563.357 203.066 563.902 203.401 564.44 203.743C584.593 216.558 594.944 237.195 594.371 263.427C594.3 280.674 589.345 295.813 579.64 308.424C570.425 320.444 556.318 330.481 537.967 341.858C522.725 351.064 511.319 358.573 500.976 366.205C497.831 368.527 495.01 370.663 492.348 372.738L490.408 374.366C478.443 384.399 470.538 391.028 455.984 397.206C443.034 402.945 422.219 397.724 398.878 382.882C389.412 376.862 380.195 369.65 372.223 362.024C365.432 355.614 360.104 351.935 354.952 348.377C349.196 344.401 343.761 340.648 336.994 333.528C333.069 329.365 329.164 325.4 325.385 321.563C317.945 314.009 310.917 306.871 304.498 299.039C289.974 282.446 276.828 265.369 275.614 239.075C273.851 223.289 273.663 199.828 282.806 177.81C289.854 160.56 302.924 146.956 320.597 138.469C323.823 136.843 327.213 135.332 330.668 133.981C348.193 127.005 368.512 124.89 387.883 128.026C404.8 130.19 421.399 134.387 441.683 141.627C447.129 143.164 452.553 144.895 457.793 146.761C482.417 156.234 500.896 165.227 517.716 175.923C519.422 177.008 521.133 178.126 522.803 179.246C527.052 181.67 531.273 183.969 535.355 186.194C542.51 190.093 549.266 193.777 555.503 197.741Z" fill="#4CAF4F"/>
<path d="M404.121 378.666C426.371 392.814 445.84 398.008 457.533 392.915C472.299 386.754 479.487 380.422 491.392 369.933L492.208 369.215C494.741 367.14 497.401 365.014 500.345 362.709C510.026 355.133 520.714 347.529 534.997 338.054C549.609 328.108 564.394 317.159 573.558 304.49C582.564 292.096 587.217 277.552 587.392 261.258C588.078 237.044 578.897 218.178 560.84 206.695C559.266 205.694 557.605 204.737 555.901 203.851C555.55 203.623 555.223 203.414 554.891 203.203C548.05 198.853 540.282 195.049 532.057 191.024C526.859 188.479 521.484 185.849 515.995 182.912C494.282 169.144 472.197 158.989 453.459 150.865C448.414 148.829 443.258 146.922 438.138 145.204C424.811 139.71 406.942 133.008 386.766 129.902C368.633 126.48 348.663 128.619 331.968 135.765C328.699 137.142 325.488 138.678 322.425 140.332C305.951 148.799 293.579 162.058 286.638 178.676C277.503 200.194 277.284 222.511 278.709 237.444C279.493 263.279 292.378 279.277 307.869 296.068C313.936 303.07 320.54 309.458 327.531 316.222C331.894 320.442 336.403 324.806 340.948 329.485C347.611 336.292 352.885 339.7 358.467 343.308C363.768 346.734 369.253 350.278 376.406 357.014C384.556 364.794 394.398 372.483 404.121 378.666ZM561.109 206.275C579.346 217.871 588.619 236.903 587.926 261.311C587.753 277.697 583.07 292.333 574.006 304.807C564.8 317.53 549.978 328.51 535.33 338.482C521.053 347.951 510.374 355.55 500.703 363.118C497.763 365.419 495.106 367.543 492.582 369.612L491.774 370.324C479.83 380.845 472.621 387.196 457.783 393.385C445.926 398.551 426.266 393.34 403.851 379.086C394.096 372.883 384.221 365.17 376.045 357.364C368.935 350.667 363.474 347.138 358.194 343.726C352.582 340.099 347.283 336.674 340.569 329.817C336.032 325.144 331.527 320.785 327.167 316.569C320.167 309.796 313.554 303.399 307.474 296.384C291.913 279.516 278.964 263.433 278.172 237.432C276.743 222.46 276.966 200.058 286.141 178.452C293.122 161.734 305.571 148.395 322.136 139.876C325.211 138.22 328.436 136.675 331.72 135.294C348.505 128.105 368.588 125.957 386.818 129.397C407.045 132.51 424.956 139.227 438.298 144.728C443.407 146.442 448.574 148.353 453.637 150.398C472.404 158.532 494.516 168.701 516.244 182.479C521.706 185.399 527.075 188.028 532.269 190.57C540.907 194.798 549.043 198.782 556.152 203.42C557.843 204.3 559.521 205.264 561.109 206.275Z" fill="#4CAF4F"/>
<path d="M409.888 374.88C422.323 382.787 445.352 395.123 459.883 388.912C474.801 382.801 481.243 376.82 492.937 365.96C495.39 363.837 497.882 361.725 500.598 359.463C512.022 349.954 523.847 341.148 532.871 334.534C546.242 324.49 559.807 313.441 568.43 300.748C576.799 288.484 581.181 274.446 581.454 259.019C582.242 236.465 574.017 219.052 557.671 208.658C555.222 207.1 552.561 205.678 549.76 204.434C543.514 200.913 536.485 197.896 529.041 194.701C522.886 192.059 516.522 189.326 509.961 186.054C491.483 175.07 472.549 165.454 449.801 154.393C444.923 152.168 440.023 150.083 435.248 148.199C421.456 141.684 404.862 134.58 386.222 131.172C368.917 127.403 349.732 129.516 333.581 136.964C330.487 138.369 327.44 139.935 324.525 141.623C309.167 150.106 297.415 163.095 290.535 179.193C281.365 200.301 280.745 221.55 281.84 235.66C282.22 261.21 294.887 276.24 311.405 293.234C317.182 299.527 323.427 305.269 330.04 311.351C334.931 315.847 339.987 320.497 345.088 325.594C350.27 330.737 354.515 333.683 357.982 335.888C359.442 336.816 360.852 337.665 362.348 338.565C363.826 339.454 365.361 340.376 366.927 341.372C370.339 343.542 374.999 346.731 380.792 352.175C389.357 360.332 399.691 368.395 409.888 374.88ZM557.942 208.236C574.469 218.746 582.784 236.324 581.988 259.075C581.718 274.372 577.188 288.888 568.887 301.053C560.226 313.802 546.626 324.879 533.22 334.95C524.198 341.56 512.384 350.36 500.968 359.863C498.254 362.122 495.763 364.232 493.354 366.317C481.592 377.241 475.127 383.243 460.132 389.385C445.374 395.693 422.149 383.268 409.618 375.3C399.388 368.796 389.023 360.707 380.431 352.525C374.676 347.116 370.049 343.948 366.657 341.792C365.097 340.8 363.569 339.883 362.089 338.993C360.659 338.132 359.178 337.241 357.712 336.309C354.217 334.087 349.942 331.119 344.717 325.934C339.626 320.844 334.572 316.197 329.684 311.704C323.064 305.618 316.809 299.866 311.023 293.56C294.421 276.483 281.689 261.367 281.303 235.639C280.205 221.491 280.831 200.158 290.037 178.963C296.957 162.773 308.779 149.704 324.227 141.174C327.15 139.48 330.21 137.908 333.318 136.497C349.572 129.002 368.879 126.877 386.288 130.673C404.989 134.087 421.626 141.213 435.432 147.733C440.204 149.613 445.109 151.706 450.003 153.936C472.774 165.007 491.719 174.63 510.197 185.612C516.722 188.867 523.078 191.596 529.226 194.235C536.684 197.437 543.73 200.46 549.978 203.984C552.778 205.229 555.467 206.663 557.942 208.236Z" fill="#4CAF4F"/>
<path d="M415.564 371.532C435.766 384.379 452.239 389.217 461.949 385.156C476.903 379.15 482.792 373.367 493.479 362.872C495.81 360.733 498.139 358.632 500.603 356.443C510.698 347.473 520.949 339.021 530.523 331.223C542.082 321.58 554.996 309.99 563.117 297.179C570.747 285.201 574.973 271.279 575.338 256.917C576.226 235.55 569.046 219.867 553.997 210.299C550.812 208.273 547.247 206.525 543.4 205.101C537.918 202.496 531.843 200.279 525.412 197.932C518.417 195.378 511.184 192.738 503.665 189.257C492.521 183.113 481.437 177.151 469.7 170.84C461.923 166.66 453.883 162.336 445.81 157.948C441.073 155.51 436.428 153.243 432.006 151.207C417.913 143.643 402.512 136.142 385.277 132.439C368.747 128.317 350.328 130.403 334.739 138.157C331.811 139.591 328.928 141.189 326.165 142.909C311.913 151.399 300.768 164.134 293.937 179.736C284.722 200.468 283.704 220.663 284.475 233.955C284.461 259.259 296.907 273.368 314.487 290.538C320.006 296.211 325.948 301.391 332.237 306.873C337.622 311.569 343.192 316.424 348.815 321.877C352.302 325.239 355.692 327.926 359.477 330.333C361.658 331.72 363.719 332.867 365.9 334.08C368.081 335.292 370.34 336.548 372.729 338.068C376.917 340.73 380.754 343.739 384.8 347.536C393.785 356.068 404.997 364.813 415.564 371.532ZM554.268 209.877C569.502 219.563 576.769 235.411 575.872 256.977C575.507 271.419 571.255 285.424 563.581 297.472C555.427 310.338 542.48 321.956 530.89 331.626C521.319 339.42 511.072 347.868 500.984 356.833C498.522 359.02 496.195 361.12 493.872 363.25C483.146 373.785 477.235 379.59 462.193 385.631C452.319 389.762 435.661 384.905 415.294 371.953C404.697 365.215 393.451 356.443 384.441 347.886C380.422 344.118 376.616 341.131 372.459 338.488C370.087 336.979 367.836 335.728 365.66 334.518C363.472 333.302 361.402 332.151 359.206 330.755C355.385 328.326 351.968 325.615 348.451 322.223C342.838 316.781 337.275 311.93 331.896 307.242C325.595 301.749 319.646 296.562 314.113 290.877C296.441 273.616 283.926 259.423 283.939 233.926C283.167 220.596 284.189 200.32 293.443 179.505C300.312 163.814 311.519 151.007 325.853 142.469C328.624 140.743 331.522 139.138 334.461 137.694C350.162 129.889 368.713 127.789 385.362 131.937C402.659 135.657 418.106 143.179 432.222 150.754C436.634 152.785 441.287 155.058 446.039 157.502C454.117 161.895 462.16 166.218 469.93 170.397C481.67 176.709 492.756 182.669 503.885 188.808C511.361 192.268 518.582 194.903 525.564 197.454C532.01 199.806 538.098 202.028 543.581 204.633C547.443 206.06 551.046 207.828 554.268 209.877Z" fill="#4CAF4F"/>
</g>
</svg>
