<svg width="792" height="996" viewBox="0 0 792 996" fill="none" xmlns="http://www.w3.org/2000/svg">
<g opacity="0.8">
<path d="M439.6 272.536C456.618 263.524 469.835 258.559 482.454 256.438C531.044 249.129 596.482 288.194 649.163 355.965C675.239 390.014 692.337 425.839 698.607 459.566C703.87 489.065 701.354 521.513 690.687 561.683C683.177 589.236 671.112 616.238 652.717 646.66C633.963 677.372 615.683 696.877 593.443 709.899C592.426 710.48 591.398 711.047 590.3 711.628C564.296 725.399 517.07 738.213 463.971 745.902C410.002 753.718 360.157 754.577 330.635 748.2C260.696 746.137 248.544 714.314 230.145 666.147C221.986 644.78 212.734 620.564 196.887 593.775C185.445 574.445 174.965 557.324 165.717 542.217C121.307 469.675 101.035 436.568 112.115 382.273C115.078 369.464 123.623 359.238 137.506 351.886C148.45 346.091 162.802 342.025 180.168 339.804C195.954 337.839 212.925 336.837 230.894 335.776C254.527 334.382 278.963 332.941 304.178 329.158C334.112 324.542 363.525 314.427 394.099 298.235C398.637 295.832 403.337 293.222 408.068 290.48C410.193 289.246 412.298 288.018 414.385 286.803C423.14 281.696 431.41 276.873 439.6 272.536ZM590.562 712.027C591.665 711.442 592.7 710.874 593.725 710.289C616.049 697.218 634.385 677.658 653.186 646.868C671.604 616.409 683.685 589.37 691.209 561.776C701.89 521.543 704.409 489.038 699.136 459.476C692.852 425.68 675.725 389.793 649.608 355.692C596.815 287.775 531.173 248.634 482.378 255.976C469.687 258.108 456.414 263.093 439.337 272.136C431.137 276.479 422.862 281.304 414.101 286.414C412.015 287.631 409.911 288.858 407.786 290.091C403.061 292.829 398.368 295.435 393.836 297.835C363.321 313.995 333.971 324.09 304.104 328.697C278.92 332.473 254.499 333.914 230.877 335.308C212.899 336.368 195.919 337.37 180.112 339.339C162.672 341.57 148.249 345.657 137.243 351.486C123.219 358.913 114.589 369.246 111.591 382.201C106.203 408.602 107.938 430.442 117.398 455.23C126.581 479.298 142.799 505.788 165.243 542.452C174.49 557.557 184.972 574.677 196.409 594.005C212.24 620.759 221.483 644.961 229.638 666.312C239.134 691.173 246.633 710.812 260.745 725.03C275.999 740.404 297.526 747.691 330.546 748.662C360.077 755.049 410.002 754.191 464.039 746.367C517.203 738.666 564.501 725.828 590.562 712.027Z" fill="#4CAF4F"/>
<path d="M587.723 707.083C587.114 707.421 586.505 707.749 585.875 708.083C561.024 721.243 515.453 733.476 463.974 740.799C411.586 748.255 363.049 749.013 334.134 742.827C266.117 740.706 253.667 709.968 234.824 663.441C226.675 643.322 217.438 620.518 202.164 595.352C191.081 576.98 180.902 560.664 171.922 546.268C128.359 476.437 108.477 444.565 118.653 392.016C121.445 378.342 130.446 367.391 145.411 359.466C155.447 354.151 168.23 350.17 183.403 347.634C201.699 343.873 221.856 341.522 243.195 339.034C263.246 336.697 283.983 334.279 305.288 330.473C349.347 322.325 385.739 305.134 409.279 292.912L413.378 290.676C418.354 287.963 423.055 285.399 427.768 282.903C447.816 272.286 464.817 264.711 482.624 262.256C529.808 255.957 593.522 293.683 644.939 358.366C671.465 391.35 689.046 425.947 695.781 458.415C701.629 487.268 699.63 519.03 689.489 558.372C682.154 587.123 669.576 614.874 649.902 645.703C630.635 675.584 611.538 694.473 587.981 706.947L587.723 707.083ZM586.139 708.484C586.771 708.149 587.384 707.819 587.989 707.48L588.244 707.347C611.888 694.826 631.047 675.881 650.365 645.921C670.066 615.05 682.664 587.258 690.011 558.46C700.167 519.056 702.169 487.233 696.308 458.315C689.559 425.782 671.948 391.124 645.38 358.087C593.853 293.264 529.942 255.466 482.56 261.791C464.665 264.26 447.608 271.855 427.504 282.502C422.787 285 418.087 287.565 413.108 290.279L409.015 292.511C385.513 304.713 349.175 321.88 305.2 330.013C283.913 333.814 263.187 336.232 243.143 338.57C221.791 341.058 201.622 343.41 183.314 347.174C168.086 349.719 155.242 353.721 145.148 359.066C130.041 367.067 120.948 378.131 118.13 391.951C107.919 444.663 127.828 476.579 171.451 546.506C180.43 560.901 190.608 577.214 201.691 595.586C216.948 620.722 226.177 643.51 234.319 663.613C244.045 687.628 251.728 706.596 265.728 720.349C280.862 735.216 301.933 742.291 334.043 743.291C362.969 749.483 411.589 748.727 464.039 741.263C515.585 733.931 561.231 721.675 586.139 708.484Z" fill="#4CAF4F"/>
<path d="M153.467 366.969C162.51 362.18 173.67 358.37 186.634 355.644C207.844 349.449 231.915 345.308 257.401 340.924C273.306 338.187 289.753 335.358 306.535 331.862C347.716 322.942 382.338 308.386 410.775 295.324L412.4 294.501C437.763 281.639 459.669 270.531 483.188 267.992C529.028 262.661 591.041 298.988 641.177 360.542C668.538 392.888 686.094 425.335 693.361 456.988C699.687 484.791 698.12 516.78 688.579 554.784C681.489 584.333 667.967 613.679 647.236 644.499C627.467 673.588 606.935 692.336 582.021 704.077L581.479 704.365C557.746 716.934 513.769 728.619 463.849 735.621C412.977 742.756 365.688 743.453 337.346 737.487C271.168 735.365 258.429 705.719 239.146 660.844C231.041 641.985 221.854 620.61 207.184 597.082C196.48 579.702 186.625 564.221 177.932 550.562C135.217 483.45 115.721 452.821 125.07 401.99C127.673 387.353 137.227 375.569 153.467 366.969ZM587.941 701.647C610.397 689.755 629.384 671.667 647.692 644.728C668.455 613.86 681.999 584.466 689.101 554.869C698.66 516.8 700.224 484.747 693.885 456.879C686.604 425.161 669.016 392.651 641.614 360.257C616.884 329.894 588.936 305.141 560.795 288.672C532.65 272.203 505.797 264.89 483.14 267.526C459.512 270.077 437.562 281.208 412.146 294.096L410.531 294.915C382.135 307.958 347.55 322.498 306.428 331.406C289.661 334.897 273.217 337.727 257.315 340.462C231.814 344.85 207.724 348.994 186.506 355.193C173.506 357.925 162.297 361.753 153.204 366.569C136.813 375.249 127.17 387.147 124.542 401.933C115.164 452.923 134.688 483.596 177.465 550.801C186.157 564.46 196.011 579.94 206.712 597.32C221.367 620.82 230.548 642.179 238.642 661.025C248.597 684.186 256.457 702.478 270.355 715.751C285.379 730.104 306.012 736.949 337.255 737.95C365.608 743.923 412.976 743.229 463.916 736.083C513.902 729.074 557.951 717.365 581.743 704.765L582.274 704.483C584.172 703.587 586.083 702.631 587.941 701.647Z" fill="#4CAF4F"/>
<path d="M162.128 374.163C170.023 369.982 179.451 366.469 190.145 363.724C214.69 354.312 243.563 347.895 274.132 341.101C285.093 338.666 296.426 336.148 307.871 333.422C349.36 323.131 385.663 308.608 412.172 298.006C436.44 286.646 459.347 275.921 483.522 274.063C505.406 271.927 531.341 279.125 558.531 294.877C585.775 310.662 612.92 334.254 637.031 363.102C664.848 394.334 682.859 425.563 690.561 455.924C697.466 483.049 696.425 514.312 687.383 551.499C680.479 582.216 666.427 612.312 644.422 643.509C627.031 667.913 608.996 684.538 587.667 695.833C584.011 697.77 580.194 699.577 576.321 701.203C553.41 713.071 511.126 724.049 463.179 730.582C413.476 737.353 368.926 737.903 340.951 732.086C276.687 729.915 263.632 701.368 243.872 658.156C235.829 640.566 226.712 620.629 212.66 598.746C202.361 582.389 192.847 567.766 184.454 554.862C142.554 490.451 123.43 461.054 131.897 411.963C134.257 396.252 144.43 383.536 162.128 374.163ZM587.931 696.234C609.338 684.897 627.43 668.219 644.874 643.749C666.915 612.498 680.99 582.349 687.905 551.576C696.964 514.325 698.003 482.997 691.082 455.806C683.362 425.378 665.321 394.089 637.461 362.811C613.319 333.925 586.13 310.296 558.835 294.482C531.543 278.671 505.49 271.449 483.49 273.595C459.21 275.462 436.254 286.209 411.95 297.586C385.473 308.177 349.191 322.689 307.746 332.97C296.31 335.693 284.978 338.211 274.019 340.646C243.429 347.445 214.533 353.868 189.981 363.283C179.273 366.031 169.802 369.56 161.864 373.763C144.014 383.217 133.752 396.052 131.367 411.914C122.877 461.159 142.027 490.601 183.988 555.107C192.381 568.009 201.893 582.63 212.193 598.986C226.227 620.846 235.337 640.767 243.376 658.345C253.575 680.645 261.629 698.261 275.424 711.061C290.338 724.899 310.522 731.526 340.859 732.549C368.849 738.373 413.475 737.825 463.245 731.046C511.249 724.505 553.612 713.501 576.558 701.615C580.424 699.991 584.259 698.179 587.931 696.234Z" fill="#4CAF4F"/>
<path d="M170.608 380.536C177.195 377.047 184.788 373.971 193.185 371.388C221.667 357.702 256.631 348.423 293.641 338.603C298.667 337.269 303.737 335.925 308.847 334.553C339.792 325.897 367.648 316.151 392.224 307.552C399.617 304.965 406.601 302.523 413.311 300.233C439.083 289.21 460.614 280.699 483.673 279.659C504.933 278.012 530.106 285.136 556.476 300.258C582.911 315.418 609.334 337.922 632.891 365.34C661.213 395.503 679.702 425.556 687.846 454.674C695.345 481.145 694.836 511.723 686.286 548.152C679.674 579.639 664.669 611.403 641.691 642.573C625.184 664.736 608.083 680.043 587.878 690.743C582.413 693.637 576.615 696.225 570.647 698.441C548.336 709.55 507.699 719.754 461.913 725.745C414.291 731.977 371.432 732.361 344.328 726.796C281.885 724.557 268.473 697.064 248.175 655.443C240.206 639.102 231.173 620.581 217.744 600.314C207.853 584.989 198.688 571.224 190.6 559.082C149.416 497.237 130.621 469.012 138.194 421.576C140.274 404.631 151.178 390.826 170.608 380.536ZM588.142 691.144C608.423 680.403 625.579 665.048 642.135 642.818C665.156 611.596 680.185 579.768 686.81 548.226C695.376 511.732 695.884 481.087 688.364 454.545C680.201 425.363 661.681 395.249 633.315 365.042C609.73 337.591 583.261 315.049 556.779 299.863C530.309 284.684 505.023 277.535 483.656 279.191C460.503 280.236 438.919 288.764 413.112 299.804C406.422 302.086 399.437 304.528 392.042 307.116C367.475 315.712 339.629 325.455 308.704 334.105C303.599 335.474 298.529 336.82 293.505 338.153C256.465 347.982 221.477 357.267 192.983 370.962C184.595 373.537 176.963 376.63 170.345 380.135C150.757 390.509 139.763 404.437 137.665 421.535C130.064 469.123 148.891 497.391 190.139 559.328C198.224 571.471 207.39 585.233 217.278 600.558C230.692 620.806 239.721 639.312 247.681 655.641C258.159 677.121 266.435 694.086 280.158 706.434C294.996 719.783 314.757 726.208 344.237 727.259C371.358 732.831 414.285 732.45 461.972 726.209C507.822 720.209 548.529 709.985 570.869 698.861C576.833 696.65 582.655 694.05 588.142 691.144Z" fill="#4CAF4F"/>
<path d="M204.707 375.088C233.976 359.587 269.756 348.32 310.103 336.23C326.507 331.108 341.94 326.048 356.863 321.155C377.774 314.298 397.528 307.823 414.798 302.927C438.757 293.676 460.5 285.999 484.213 285.671C504.856 284.489 529.259 291.5 554.796 305.947C580.402 320.432 606.077 341.793 629.046 367.719C657.848 396.735 676.776 425.558 685.31 453.392C693.374 479.16 693.351 509.014 685.239 544.659C678.779 577.314 663.177 609.868 638.866 641.427C623.422 661.272 606.778 675.757 587.989 685.707C580.755 689.538 572.948 692.828 564.785 695.484C520.785 716.461 405.3 733.169 347.441 721.532C286.786 719.297 273.029 692.895 252.203 652.93C244.361 637.874 235.469 620.81 222.715 602.206C213.285 587.973 204.506 575.125 196.763 563.788C156.322 504.595 137.863 477.579 144.625 431.822C146.383 413.494 158.179 398.432 179.678 387.047C184.745 384.363 190.382 381.887 196.431 379.684C199.112 378.124 201.881 376.584 204.707 375.088ZM588.253 686.108C607.113 676.12 623.812 661.587 639.304 641.68C663.661 610.064 679.292 577.444 685.764 544.729C693.893 509.015 693.914 479.093 685.825 453.254C677.271 425.351 658.308 396.47 629.463 367.412C606.468 341.456 580.751 320.061 555.096 305.549C529.467 291.05 504.954 284.014 484.211 285.201C460.409 285.531 438.613 293.226 414.624 302.489C397.368 307.38 377.61 313.858 356.693 320.715C341.769 325.608 326.34 330.666 309.945 335.787C269.57 347.886 233.761 359.163 204.445 374.689C201.613 376.188 198.837 377.732 196.195 379.275C190.167 381.463 184.505 383.952 179.416 386.648C157.752 398.12 145.867 413.307 144.092 431.789C140.818 453.951 143.394 472.338 152.711 493.26C161.625 513.284 176.168 534.575 196.3 564.041C204.044 575.376 212.822 588.225 222.254 602.456C234.992 621.042 243.878 638.094 251.718 653.14C262.467 673.764 270.954 690.057 284.604 701.921C299.365 714.751 318.715 720.941 347.349 721.995C373.596 727.276 414.838 727.014 460.459 721.264C504.159 715.76 543.237 706.281 564.992 695.91C573.15 693.256 580.988 689.955 588.253 686.108Z" fill="#4CAF4F"/>
<path d="M224.873 372.166C252.341 357.619 283.95 346.425 311.246 337.392C347.563 324.879 385.568 312.087 416.039 305.207C441.971 296.33 462.44 290.917 484.428 291.337C525.388 289.92 579.205 320.057 624.889 369.985C654.208 397.906 673.604 425.538 682.547 452.125C691.218 477.209 691.724 506.358 684.102 541.248C677.942 574.611 661.352 608.886 636.127 640.373C621.536 658.406 605.877 671.709 588.257 681.04C579.219 685.826 569.697 689.598 559.148 692.571C538.02 702.161 500.685 710.838 459.23 715.795C415.78 720.992 376.324 721.091 350.98 716.069C292.122 713.761 277.96 688.409 256.519 650.035C248.82 636.251 240.094 620.629 228.033 603.667C219.079 590.542 210.704 578.618 203.311 568.101C164.708 513.138 145.33 485.55 151.2 441.418C152.53 421.777 165.702 404.799 189.287 392.309C192.559 390.576 196.063 388.911 199.71 387.359C207.267 382.117 215.716 377.015 224.873 372.166ZM588.52 681.44C606.208 672.073 621.921 658.726 636.56 640.635C661.834 609.086 678.455 574.74 684.627 541.312C692.265 506.355 691.753 477.128 683.061 451.977C674.092 425.322 654.661 397.632 625.299 369.671C579.525 319.645 525.548 289.445 484.442 290.866C459.993 290.4 437.172 297.475 415.893 304.762C385.423 311.64 347.401 324.437 311.069 336.955C283.753 345.994 252.118 357.198 224.61 371.766C215.435 376.625 206.965 381.74 199.441 386.966C195.83 388.496 192.311 390.167 189.023 391.908C165.27 404.487 152.008 421.599 150.668 441.394C144.78 485.673 164.188 513.306 202.857 568.357C210.245 578.875 218.619 590.798 227.574 603.924C239.623 620.866 248.345 636.479 256.039 650.253C267.105 670.059 275.843 685.703 289.446 697.117C304.153 709.457 323.102 715.444 350.892 716.532C376.248 721.562 415.774 721.465 459.284 716.261C500.795 711.295 538.198 702.603 559.336 693.003C569.884 690.034 579.445 686.246 588.52 681.44Z" fill="#4CAF4F"/>
<path d="M245.65 367.498C264.116 357.718 285.963 348.293 312.437 338.688C355.64 322.387 389.974 312.213 417.409 307.582C441.539 300.416 462.218 295.892 484.821 297.076C524.418 296.652 576.578 325.476 620.965 372.301C650.822 399.118 670.687 425.562 680.021 450.912C689.291 475.3 690.32 503.758 683.168 537.91C675.638 581.555 652.019 617.209 633.53 639.435C619.734 655.86 605.005 668.094 588.504 676.833C577.861 682.47 566.439 686.713 553.585 689.807C511.761 707.78 407.715 721.189 354.457 710.823C297.317 708.454 282.711 684.138 260.603 647.331C253.095 634.831 244.585 620.662 233.255 605.354C224.819 593.379 216.883 582.417 209.88 572.747C171.809 520.172 152.699 493.782 157.698 451.227C158.551 429.766 172.983 411.025 199.437 397.015C200.585 396.407 201.772 395.801 202.964 395.212C215.138 385.325 229.084 376.27 245.65 367.498ZM588.767 677.234C605.334 668.46 620.115 656.184 633.956 639.703C652.482 617.432 676.147 581.705 683.692 537.971C690.862 503.747 689.829 475.215 680.528 450.751C671.172 425.336 651.266 398.831 621.368 371.979C576.897 325.066 524.581 296.18 484.853 296.607C462.183 295.418 441.446 299.954 417.29 307.128C389.852 311.759 355.481 321.943 312.248 338.255C285.75 347.87 263.878 357.304 245.386 367.097C228.787 375.888 214.812 384.963 202.661 394.838C201.519 395.395 200.327 396.004 199.174 396.615C172.55 410.715 158.023 429.594 157.167 451.21C152.15 493.911 171.291 520.345 209.426 573.01C216.427 582.679 224.363 593.637 232.804 605.614C244.122 620.911 252.626 635.07 260.129 647.562C282.319 684.505 296.981 708.91 354.368 711.286C407.677 721.667 511.905 708.234 553.759 690.244C566.61 687.153 578.079 682.894 588.767 677.234Z" fill="#4CAF4F"/>
<path d="M265.692 362.315C280.172 354.646 295.9 347.48 313.769 340.409C354.345 323.746 389.744 313.619 418.985 310.308C438.913 305.321 460.728 301.005 485.452 303.112C523.705 303.639 574.193 331.077 617.235 374.72C648.052 400.735 667.797 425.247 677.614 449.677C687.469 473.333 688.983 501.069 682.251 534.474C676.536 569.671 658.268 606.561 630.811 638.356C617.74 653.355 603.869 664.626 588.407 672.815C576.257 679.249 562.98 683.869 547.816 686.939C507.125 703.383 409.464 715.473 357.642 705.64C302.157 703.261 287.084 680.002 264.267 644.79C257.02 633.607 248.805 620.929 238.274 607.312C230.412 596.548 222.972 586.609 216.403 577.84C178.83 527.678 159.971 502.499 164.15 461.51C164.502 433.249 187.236 414.394 206.245 403.547L206.298 403.509C222.324 388.468 241.752 374.993 265.692 362.315ZM588.669 673.214C604.194 664.992 618.115 653.681 631.233 638.633C658.745 606.77 677.052 569.801 682.778 534.532C689.527 501.049 688.004 473.237 678.119 449.504C668.274 425.011 648.487 400.439 617.629 374.391C574.511 330.67 523.877 303.172 485.502 302.642C460.711 300.53 438.837 304.857 418.896 309.849C389.638 313.16 354.185 323.3 313.562 339.982C295.677 347.061 279.932 354.235 265.429 361.916C241.455 374.612 221.995 388.108 205.937 403.173C186.818 414.086 163.971 433.061 163.615 461.504C159.423 502.635 178.315 527.858 215.952 578.109C222.518 586.876 229.963 596.813 237.822 607.58C248.35 621.189 256.557 633.856 263.799 645.036C286.702 680.372 301.829 703.718 357.555 706.105C409.426 715.948 507.259 703.836 547.971 687.381C563.138 684.314 576.469 679.674 588.669 673.214Z" fill="#4CAF4F"/>
<path d="M283.34 356.59C293.231 351.352 303.862 346.29 314.938 341.541C353.795 324.288 390.229 314.262 420.306 312.541C445.817 307.421 465.389 306.284 485.787 308.731C503.951 309.482 525.281 316.146 547.495 328.007C569.842 339.939 592.584 356.87 613.26 376.969C644.661 401.862 664.87 425.231 675.058 448.43C685.53 471.379 687.576 498.428 681.316 531.123C675.821 567.501 656.977 605.245 628.255 637.414C615.884 651.148 602.834 661.552 588.356 669.219C574.82 676.387 559.762 681.273 542.32 684.157C502.378 699.185 411.005 709.588 361.222 700.324C307.341 697.855 291.709 675.584 268.046 641.873C261.117 632.003 253.264 620.814 243.58 608.876C236.346 599.356 229.737 590.853 223.346 582.633C186.102 534.714 167.406 510.663 170.69 471.147C170.229 442.981 191.548 423.017 209.51 411.226L209.561 411.183C228.443 390.885 253.265 372.517 283.34 356.59ZM588.619 669.619C603.156 661.921 616.256 651.479 628.67 637.697C657.455 605.46 676.338 567.631 681.844 531.176C688.12 498.402 686.063 471.272 675.557 448.245C665.34 424.981 645.088 401.555 613.645 376.63C592.953 356.516 570.173 339.557 547.784 327.604C525.497 315.704 504.082 309.017 485.854 308.264C465.411 305.81 445.783 306.95 420.248 312.078C390.141 313.797 353.634 323.842 314.713 341.121C303.629 345.875 292.983 350.945 283.077 356.191C252.959 372.14 228.095 390.537 209.172 410.87C191.112 422.732 169.693 442.813 170.158 471.149C166.861 510.806 185.59 534.903 222.901 582.907C229.292 591.128 235.899 599.627 243.138 609.152C252.817 621.084 260.664 632.266 267.589 642.133C291.335 675.962 307.023 698.311 361.133 700.788C383.873 705.023 418.32 705.363 455.599 701.719C490.608 698.297 523.078 691.898 542.46 684.602C559.908 681.725 575.025 676.818 588.619 669.619Z" fill="#4CAF4F"/>
<path d="M297.861 352.069C303.722 348.965 309.831 345.941 316.02 343.078C354.133 324.87 390.628 315.209 421.567 315.138C445.312 311.589 465.191 311.448 486.067 314.679C522.178 317.214 568.194 341.413 609.185 379.417C641.167 403.14 661.82 425.335 672.344 447.29C683.421 469.502 685.977 495.841 680.16 527.815C674.863 565.352 655.415 603.938 625.398 636.473C613.665 649.085 601.36 658.71 587.78 665.902C572.948 673.756 556.17 678.824 536.483 681.394C498.147 694.679 411.27 703.617 364.441 695.128C312.074 692.592 295.816 671.308 271.214 639.091C264.708 630.573 257.336 620.916 248.591 610.7C242.072 602.492 236.057 595.07 230.239 587.893C194.385 543.646 174.634 519.273 177.047 481.191C175.794 453.156 195.708 432.077 212.636 419.327C233.89 393.384 262.549 370.77 297.861 352.069ZM588.043 666.303C601.679 659.082 614.032 649.419 625.806 636.762C655.89 604.156 675.38 565.483 680.688 527.865C686.521 495.808 683.953 469.383 672.836 447.092C662.284 425.075 641.584 402.823 609.557 379.069C568.503 341.005 522.363 316.753 486.153 314.213C465.24 310.975 445.304 311.116 421.54 314.671C390.558 314.738 353.972 324.42 315.783 342.665C309.586 345.532 303.465 348.562 297.597 351.669C262.22 370.404 233.507 393.063 212.25 419.019C195.277 431.796 175.252 452.999 176.513 481.204C174.091 519.426 193.878 543.845 229.8 588.175C235.617 595.352 241.63 602.773 248.158 610.985C256.897 621.196 264.265 630.847 270.766 639.363C295.456 671.691 311.767 693.048 364.353 695.593C386.538 699.616 418.444 700.087 454.158 696.915C486.979 693.998 517.801 688.364 536.604 681.844C556.303 679.279 573.148 674.191 588.043 666.303Z" fill="#4CAF4F"/>
<path d="M309.841 348.438C312.35 347.109 314.919 345.792 317.474 344.522C355.021 325.305 391.553 316.017 423.122 317.664C445.019 315.564 465.174 316.485 486.597 320.559C521.351 324.081 565.709 346.963 605.278 381.773C638.299 404.619 658.784 425.031 669.763 446.026C681.446 467.479 684.511 493.093 679.14 524.336C674.127 562.453 653.566 602.89 622.727 635.291C611.594 646.896 599.982 655.819 587.232 662.571C570.976 671.18 553.078 676.195 530.903 678.355C493.976 689.97 413.135 697.582 368.039 689.632C317.089 687.012 300.115 666.683 274.42 635.909C268.471 628.786 261.73 620.714 254.055 612.261C248.352 605.439 243.033 599.174 237.886 593.117C202.085 550.967 182.363 527.751 183.885 491.038C181.84 463.172 200.337 440.984 216.212 427.274C238.761 396.188 271.127 368.94 309.841 348.438ZM587.495 662.972C600.3 656.191 611.958 647.233 623.131 635.585C654.038 603.112 674.644 562.579 679.667 524.378C685.056 493.051 681.975 467.35 670.248 445.815C659.236 424.756 638.704 404.291 605.64 381.418C566.015 346.557 521.544 323.626 486.702 320.097C465.249 316.014 445.04 315.092 423.13 317.197C391.498 315.544 354.859 324.853 317.223 344.117C314.666 345.387 312.093 346.708 309.578 348.039C270.789 368.582 238.363 395.88 215.807 426.988C199.886 440.727 181.294 463.039 183.35 491.063C181.823 527.912 201.582 551.175 237.454 593.406C242.599 599.463 247.92 605.726 253.625 612.554C261.301 621.007 268.04 629.077 273.985 636.195C287.267 652.103 297.756 664.667 311.583 673.898C326.511 683.865 343.896 688.863 367.952 690.098C389.229 693.849 419.456 694.463 453.032 691.818C483.637 689.406 512.785 684.544 531.003 678.81C553.199 676.654 571.169 671.618 587.495 662.972Z" fill="#4CAF4F"/>
<path d="M321.532 344.06C357.596 324.962 393.13 316.622 424.293 319.946C444.808 319.137 464.07 321.076 486.791 326.235C520.253 330.771 563.001 352.392 601.171 384.077C634.843 405.755 655.776 425.057 667.072 444.838C679.212 465.271 682.91 490.908 678.066 521.05C673.286 560.342 652.137 601.662 620.038 634.424C609.459 645.145 598.48 653.445 586.478 659.801C569.073 669.018 549.623 674.054 525.266 675.645C488.488 685.932 414.935 691.853 371.458 684.395C321.707 681.645 304.793 663.209 276.769 632.667C271.302 626.71 265.652 620.553 259.204 613.906C254.451 608.536 249.949 603.514 245.599 598.654C209.551 558.423 189.695 536.262 190.279 500.759C187.428 473.039 204.503 449.71 219.327 435.015C242.794 398.599 277.072 367.729 318.484 345.699C319.505 345.143 320.517 344.598 321.532 344.06ZM586.743 660.203C598.796 653.82 609.818 645.485 620.436 634.725C652.608 601.888 673.805 560.47 678.595 521.091C683.454 490.861 679.738 465.128 667.548 444.613C656.217 424.769 635.236 405.416 601.52 383.712C563.304 351.985 520.452 330.32 486.917 325.775C464.169 320.609 444.859 318.665 424.333 319.477C393.093 316.143 357.439 324.504 321.269 343.659C320.252 344.198 319.237 344.744 318.218 345.302C276.724 367.373 242.38 398.306 218.899 434.753C204.035 449.479 186.88 472.927 189.746 500.792C189.159 536.434 209.057 558.64 245.173 598.954C249.527 603.812 254.025 608.834 258.784 614.209C265.237 620.86 270.883 627.017 276.348 632.969C290.35 648.23 301.409 660.282 315.473 669.151C330.638 678.717 347.877 683.561 371.374 684.86C391.76 688.359 420.334 689.131 451.797 687.027C480.197 685.129 507.695 681.045 525.349 676.102C549.731 674.516 569.261 669.461 586.743 660.203Z" fill="#4CAF4F"/>
<path d="M327.591 342.661C361.696 324.599 395.602 317.588 425.642 322.385C444.279 322.739 463.252 325.709 487.2 332.022C519.434 337.554 560.581 357.873 597.291 386.38C632.109 407.121 652.856 424.753 664.592 443.574C677.345 463.258 681.563 488.18 677.136 517.654C672.553 558.116 650.762 600.325 617.345 633.464C607.262 643.397 596.849 651.143 585.517 657.144C566.996 666.952 546.024 671.958 519.517 672.898C484.347 681.425 416.249 686.12 374.661 679.237C325.801 676.366 307.822 658.647 278.03 629.294C273.637 624.969 269.096 620.49 264.134 615.747C260.526 611.937 257.038 608.281 253.683 604.763C217.055 566.365 196.881 545.214 196.524 510.775C192.899 483.239 208.579 458.75 222.368 443.052C245.183 403.425 278.785 370.265 319.575 347.112C322.23 345.569 324.927 344.072 327.591 342.661ZM585.78 657.544C597.161 651.517 607.615 643.74 617.738 633.768C651.231 600.552 673.075 558.245 677.667 517.691C682.11 488.125 677.868 463.103 665.061 443.335C653.286 424.452 632.489 406.771 597.627 386.004C560.877 357.465 519.641 337.107 487.346 331.567C463.375 325.246 444.36 322.27 425.715 321.919C395.585 317.105 361.55 324.138 327.329 342.261C324.657 343.676 321.954 345.176 319.292 346.723C278.424 369.919 244.752 403.148 221.924 442.813C208.097 458.544 192.349 483.15 195.992 510.822C196.346 545.4 216.565 566.595 253.268 605.073C256.623 608.591 260.109 612.246 263.726 616.064C268.694 620.813 273.235 625.288 277.626 629.616C292.538 644.306 304.311 655.91 318.737 664.447C334.278 673.641 351.499 678.347 374.576 679.701C416.201 686.592 484.414 681.891 519.581 673.359C546.122 672.424 567.178 667.396 585.78 657.544Z" fill="#4CAF4F"/>
<path d="M332.544 341.849C365.174 324.569 397.843 318.712 427.025 324.913C446.728 326.497 465.478 331.252 487.582 337.909C519.105 344.562 557.628 363.101 593.295 388.777C617.202 401.901 646.583 419.839 661.949 442.385C675.313 461.302 680.059 485.492 676.058 514.286C671.758 555.282 648.783 599.449 614.597 632.438C604.987 641.658 595.108 648.896 584.401 654.567C564.564 665.072 542.798 669.845 513.822 670.036C479.69 676.925 417.03 680.126 378.071 673.92C329.698 670.874 310.311 653.699 278.19 625.243C275.348 622.729 272.414 620.128 269.356 617.444C267.172 615.313 265.027 613.229 262.934 611.188C226.467 575.692 204.457 554.266 203.089 520.697C198.694 493.383 212.95 467.746 225.684 451.044C247.414 408.876 281.191 372.497 320.81 348.569C324.687 346.18 328.635 343.919 332.544 341.849ZM584.664 654.967C595.419 649.272 605.338 642.005 614.986 632.75C631.013 617.281 645.051 598.833 655.581 579.392C667.252 557.85 674.321 535.958 676.589 514.32C680.604 485.425 675.834 461.134 662.41 442.131C646.989 419.504 617.545 401.526 593.617 388.392C557.918 362.692 519.32 344.121 487.748 337.457C465.631 330.797 446.847 326.032 427.131 324.451C397.847 318.226 365.036 324.102 332.281 341.448C328.362 343.524 324.402 345.792 320.516 348.186C300.76 360.116 282.557 374.947 266.416 392.267C250.059 409.815 236.201 429.518 225.221 450.827C212.456 467.564 198.141 493.318 202.558 520.754C203.93 554.466 225.987 575.938 262.53 611.511C264.627 613.548 266.768 615.634 268.96 617.773C272.03 620.465 274.964 623.067 277.803 625.58C310.007 654.11 329.447 671.331 377.986 674.386C416.983 680.596 479.738 677.392 513.866 670.502C542.885 670.311 564.738 665.52 584.664 654.967Z" fill="#4CAF4F"/>
<path d="M336.898 341.352C368.398 324.67 400.122 319.841 428.637 327.386C448.471 330.251 467.764 336.794 488.189 343.723C518.679 351.461 555.603 368.718 589.514 391.076C615.403 404.097 643.943 420.207 659.506 441.073C673.477 459.207 678.746 482.659 675.162 510.777C671.072 552.894 647.464 597.929 612.01 631.253C602.839 639.826 593.453 646.603 583.315 651.972C562.455 663.018 539.315 667.661 508.287 667.024C475.376 672.208 419.038 674.167 381.639 668.472C332.947 665.179 311.526 648.194 276.033 620.054L274.745 619.034L273.761 618.159C235.447 584.12 212.319 563.574 209.851 530.541C204.701 503.489 217.534 476.694 229.205 458.975C250.133 413.734 283.18 375.038 322.274 349.981C327.093 346.842 332.012 343.939 336.898 341.352ZM583.579 652.372C593.761 646.98 603.186 640.174 612.393 631.567C647.931 598.165 671.594 553.02 675.695 510.807C679.288 482.58 673.993 459.027 659.954 440.803C644.333 419.859 615.733 403.714 589.817 390.68C555.886 368.307 518.902 351.024 488.375 343.277C467.947 336.347 448.63 329.795 428.777 326.928C400.144 319.35 368.271 324.198 336.635 340.952C331.734 343.547 326.8 346.459 321.968 349.607C282.791 374.715 249.678 413.489 228.729 458.782C217.03 476.538 204.149 503.443 209.319 530.612C211.799 563.791 234.977 584.383 273.375 618.495L274.37 619.378L275.669 620.408C311.242 648.613 332.712 665.635 381.553 668.937C418.988 674.636 475.406 672.679 508.31 667.489C539.39 668.133 562.623 663.47 583.579 652.372Z" fill="#4CAF4F"/>
<path d="M340.112 341.007C370.708 324.804 401.676 320.927 429.672 329.794C445.692 333.196 461.578 339.297 478.396 345.754C481.608 346.988 484.877 348.242 488.217 349.507C518.044 358.49 553.376 374.491 585.167 393.414C611.579 405.524 640.687 420.499 656.515 439.859C671.103 457.217 676.906 479.943 673.757 507.405C669.903 550.657 645.693 596.57 608.996 630.222C600.241 638.21 591.316 644.568 581.711 649.655C559.864 661.224 535.391 665.689 502.362 664.132C471 667.543 420.59 668.279 384.834 663.088C338.216 659.663 314.037 644.756 279.751 620.613C242.671 591.222 219.755 571.613 216.181 540.303C210.279 513.52 221.666 485.552 232.257 466.803C252.305 418.5 284.593 377.488 323.19 351.29C328.748 347.469 334.442 344.01 340.112 341.007ZM581.974 650.055C591.622 644.945 600.584 638.563 609.376 630.543C646.159 596.807 670.425 550.785 674.288 507.43C677.449 479.855 671.616 457.022 656.951 439.573C641.062 420.14 611.892 405.13 585.453 393.008C553.65 374.077 518.275 358.057 488.423 349.068C485.104 347.811 481.836 346.556 478.625 345.323C461.784 338.857 445.88 332.751 429.842 329.343C416.335 325.065 401.92 323.751 387.023 325.448C371.343 327.235 355.47 332.335 339.849 340.608C334.16 343.621 328.449 347.091 322.873 350.924C284.193 377.175 251.84 418.268 231.768 466.631C221.153 485.421 209.728 513.496 215.653 540.387C219.241 571.843 242.214 591.503 279.397 620.975C313.768 645.181 338.005 660.12 384.751 663.554C420.534 668.751 471.01 668.014 502.362 664.599C535.459 666.163 560.027 661.677 581.974 650.055Z" fill="#4CAF4F"/>
<path d="M343.438 341.057C373.346 325.218 403.744 322.207 431.343 332.35C444.704 336.132 457.924 341.93 471.922 348.069C477.393 350.468 483.051 352.95 488.925 355.405C510.75 363.092 544.525 376.336 581.566 395.812C609.891 407.54 638.291 420.842 654.302 438.666C669.513 455.233 675.835 477.234 673.09 504.055C669.438 548.458 644.567 595.271 606.553 629.282C598.292 636.642 589.537 642.793 580.535 647.561C557.697 659.656 531.895 663.926 496.874 661.409C469.597 662.929 424.842 662.935 388.348 657.95C344.684 654.478 318.342 642.813 285 622.497C247.192 596.568 227.183 578.295 222.76 550.394C216.14 523.908 226.104 494.743 235.63 474.937C254.821 423.571 286.419 380.211 324.615 352.824C330.781 348.364 337.114 344.405 343.438 341.057ZM580.798 647.961C589.841 643.172 598.632 636.996 606.926 629.605C624.56 613.828 639.991 594.459 651.551 573.594C664.116 550.913 671.747 526.872 673.623 504.077C676.38 477.135 670.022 455.025 654.724 438.364C638.65 420.471 610.191 407.139 581.831 395.398C544.783 375.916 510.982 362.661 489.153 354.973C483.298 352.526 477.643 350.045 472.173 347.648C458.16 341.501 444.923 335.695 431.545 331.908C418.228 327.014 404.048 325.173 389.418 326.445C374.009 327.786 358.451 332.566 343.175 340.656C336.827 344.018 330.473 347.991 324.286 352.465C286.007 379.91 254.347 423.351 235.131 474.786C225.584 494.638 215.588 523.905 222.237 550.492C224.427 564.335 230.715 576.45 242.019 588.602C253.377 600.807 269.231 612.288 284.673 622.879C318.099 643.245 344.502 654.935 388.266 658.414C424.781 663.404 469.585 663.4 496.849 661.876C531.952 664.404 557.855 660.111 580.798 647.961Z" fill="#4CAF4F"/>
<path d="M346.069 341.022C375.374 325.502 405.272 323.328 432.532 334.735C443.907 338.807 455.171 344.459 467.096 350.442C474.127 353.969 481.398 357.619 489.095 361.147C494.466 363.346 500.088 365.622 505.923 367.984C527.634 376.773 552.24 386.736 577.348 398.086C610.751 410.482 636.121 421.903 651.414 437.362C667.241 453.13 674.09 474.396 671.768 500.568C668.404 545.417 642.287 594.285 603.613 628.106C595.715 634.984 587.373 640.771 578.819 645.301C554.72 658.063 528.467 661.973 491.035 658.376C478.242 658.332 433.354 657.777 391.637 652.444C352.558 649.035 323.15 640.788 290.116 623.979C262.143 608.092 235.399 589.353 229.234 560.085C223.432 539.384 226.752 512.637 238.835 482.722C257.085 428.346 287.933 382.677 325.694 354.12C332.349 349.065 339.203 344.658 346.069 341.022ZM579.083 645.702C587.674 641.152 596.052 635.341 603.981 628.432C622.135 612.557 638.014 592.892 649.905 571.558C662.811 548.407 670.554 523.865 672.3 500.585C674.634 474.286 667.743 452.907 651.82 437.046C636.465 421.522 611.04 410.074 577.589 397.659C552.488 386.311 527.876 376.347 506.16 367.556C500.327 365.195 494.706 362.918 489.345 360.725C481.668 357.204 474.401 353.558 467.374 350.033C455.432 344.042 444.154 338.383 432.762 334.305C419.608 328.799 405.631 326.444 391.229 327.306C376.056 328.214 360.774 332.695 345.806 340.622C338.913 344.272 332.032 348.696 325.354 353.77C287.512 382.388 256.604 428.138 238.329 482.591C226.216 512.581 222.886 539.424 228.712 560.2C231.42 573.055 238.032 584.557 248.929 595.344C258.322 604.645 271.316 613.872 289.826 624.381C322.94 641.232 352.408 649.496 391.556 652.912C433.291 658.246 478.211 658.8 490.985 658.843C528.516 662.452 554.873 658.523 579.083 645.702Z" fill="#4CAF4F"/>
<path d="M348.508 341.089C376.927 326.039 407.24 324.624 433.864 337.105C443.701 341.403 453.464 346.98 463.801 352.884C471.955 357.542 480.388 362.359 489.464 366.899C511.878 377.483 538.789 387.501 567.278 398.108L573.416 400.394C602.192 409.861 631.715 420.417 648.882 436.125C665.343 451.1 672.723 471.651 670.817 497.208C667.682 543.21 640.917 593.011 600.966 627.178C593.403 633.625 585.439 639.08 577.295 643.393C545.789 660.078 513.148 658.941 485.374 655.628C468.104 654.435 433.421 651.762 395.004 647.227C363.381 644.18 329.411 639.467 295.207 625.727C260.817 610.738 241.885 593.026 235.632 569.987C229.188 549.259 231.324 522.567 241.978 490.643C259.283 433.222 289.41 385.203 326.807 355.427C333.87 349.798 341.171 344.974 348.508 341.089ZM577.558 643.793C585.738 639.461 593.737 633.982 601.331 627.509C641.377 593.259 668.208 543.336 671.35 497.22C673.267 471.531 665.838 450.861 649.275 435.793C632.032 420.017 602.451 409.439 573.631 399.956L567.502 397.674C539.023 387.072 512.124 377.057 489.736 366.485C480.677 361.955 472.251 357.142 464.103 352.487C453.753 346.577 443.978 340.993 434.122 336.686C421.088 330.576 407.262 327.716 393.032 328.187C378.038 328.685 362.969 332.89 348.244 340.688C340.878 344.589 333.547 349.433 326.457 355.083C288.982 384.923 258.796 433.028 241.463 490.532C230.783 522.536 228.645 549.315 235.112 570.12C241.403 593.289 260.421 611.097 294.964 626.152C329.241 639.923 363.26 644.645 394.92 647.693C433.344 652.227 468.037 654.902 485.297 656.094C513.15 659.419 545.905 660.557 577.558 643.793Z" fill="#4CAF4F"/>
<path d="M310.133 338.282C338.149 323.445 368.129 322.822 394.549 336.528C403.137 340.998 411.686 346.525 420.737 352.375C429.723 358.185 439.015 364.192 449.174 369.704C468.886 380.398 492.702 389.385 528.805 399.754C559.428 408.567 588.347 417.66 605.649 431.937C622.74 446.112 630.652 465.944 629.164 490.889C626.267 538.037 598.864 588.758 557.649 623.26C550.41 629.307 542.805 634.455 535.046 638.564C502.356 655.876 468.189 653.995 439.079 649.871C434.341 649.196 429.489 648.491 424.516 647.766C404.694 644.885 382.227 641.616 357.767 638.993C351.974 638.372 345.984 637.78 340.189 637.207C313.126 634.531 285.144 631.765 259.717 624.462C229.745 615.843 209.057 598.947 201.468 576.889C194.486 556.453 195.521 529.097 204.545 495.58C220.881 435.136 250.271 384.774 287.305 353.772C294.71 347.593 302.391 342.382 310.133 338.282ZM535.31 638.965C543.103 634.838 550.741 629.667 558.011 623.596C599.324 589.009 626.794 538.163 629.698 490.896C631.195 465.812 623.229 445.859 606.022 431.591C588.644 417.252 559.666 408.136 528.988 399.307C492.924 388.949 469.142 379.977 449.467 369.302C439.325 363.799 430.041 357.798 421.063 351.993C412.002 346.136 403.443 340.603 394.832 336.121C381.896 329.411 368.197 326.056 354.111 326.148C339.269 326.249 324.384 330.195 309.869 337.882C302.092 342 294.379 347.234 286.944 353.436C268.503 368.874 251.893 389.177 237.573 413.784C223.367 438.193 212.083 465.681 204.026 495.488C194.98 529.085 193.948 556.524 200.955 577.04C208.594 599.242 229.399 616.244 259.537 624.91C285.011 632.227 313.023 634.997 340.111 637.675C345.904 638.247 351.892 638.839 357.682 639.462C382.134 642.08 404.593 645.348 424.412 648.23C429.381 648.954 434.238 649.66 438.975 650.336C468.184 654.474 502.468 656.357 535.31 638.965Z" fill="#4CAF4F"/>
<path d="M354.643 345.986C382.536 331.214 411.825 330.259 437.114 343.298C446.075 347.912 454.827 353.604 464.092 359.63C472.34 364.993 480.868 370.54 490.184 375.739C494.559 378.164 499.302 380.578 504.281 382.916C520.791 390.67 540.12 397.744 566.954 405.852C596.364 414.785 624.143 423.971 640.821 438.089C657.278 452.075 664.923 471.431 663.546 495.62C661.979 523.505 651.642 551.95 633.654 577.881C622.282 594.607 607.865 610.236 591.96 623.086C584.991 628.792 577.673 633.689 570.214 637.64C550.17 648.254 528.14 652.819 500.887 652.002C493.414 651.759 485.43 651.107 476.484 650.009C469.447 649.186 462.239 648.297 454.608 647.357C437.502 645.254 418.116 642.866 397.456 640.847C394.077 640.527 390.675 640.213 387.254 639.898C363.987 637.752 339.925 635.534 317.333 630.433C311.966 629.224 306.808 627.881 302.004 626.439C273.087 617.816 253.028 601.205 245.52 579.669C238.539 559.562 239.315 532.897 247.82 500.418C253.34 478.579 261.74 457.027 272.784 436.36C280.392 421.919 289.224 408.15 299.035 395.437C308.898 382.682 319.32 371.878 331.841 361.435C339.209 355.295 346.881 350.097 354.643 345.986ZM570.476 638.039C577.969 634.071 585.319 629.155 592.315 623.426C608.259 610.546 622.711 594.876 634.108 578.113C652.143 552.114 662.508 523.59 664.081 495.627C665.466 471.3 657.767 451.826 641.199 437.745C624.445 423.563 596.611 414.357 567.144 405.407C540.336 397.306 521.03 390.241 504.546 382.501C499.578 380.167 494.846 377.758 490.48 375.34C481.18 370.149 472.66 364.607 464.421 359.248C455.143 353.214 446.381 347.517 437.396 342.89C411.934 329.763 382.451 330.72 354.38 345.586C346.582 349.715 338.879 354.935 331.483 361.097C318.932 371.567 308.481 382.399 298.597 395.183C288.769 407.918 279.922 421.709 272.301 436.175C261.241 456.872 252.828 478.458 247.297 500.33C238.772 532.889 238.002 559.634 245.009 579.822C252.567 601.499 272.74 618.215 301.815 626.886C306.633 628.33 311.803 629.677 317.181 630.887C339.811 635.998 363.89 638.218 387.179 640.366C390.6 640.68 394.003 640.993 397.379 641.316C418.032 643.333 436.579 645.616 454.516 647.822C462.147 648.763 469.355 649.653 476.393 650.475C485.358 651.575 493.357 652.228 500.847 652.471C528.212 653.292 550.336 648.705 570.476 638.039Z" fill="#4CAF4F"/>
<path d="M358.753 350.598C386.473 335.918 415.031 334.638 439.163 346.995C448.516 351.756 457.46 357.616 466.931 363.821C474.423 368.729 482.169 373.805 490.621 378.662C494.822 381.042 499.39 383.432 504.201 385.766C520.155 393.508 538.738 400.613 564.452 408.799C592.619 417.836 619.228 427.101 635.268 441.046C651.071 454.832 658.443 473.689 657.175 497.098C655.768 524.667 645.369 552.19 627.104 576.693C615.807 592.457 601.837 606.867 585.575 619.522C578.891 624.88 571.879 629.514 564.736 633.296C545.136 643.676 523.592 648.409 496.935 648.194C489.67 648.101 481.941 647.624 473.305 646.739C463.216 645.827 452.659 644.76 441.485 643.628C427.269 642.189 412.571 640.701 396.639 639.307L394.942 639.167C369.54 637.088 343.275 634.936 318.706 629.092C313.535 627.867 308.544 626.506 303.883 625.047C276.053 616.429 256.642 600.125 249.228 579.135C242.257 559.376 242.769 533.433 250.748 502.027C255.748 480.805 264.044 460.191 276.108 439.001C283.758 425.204 292.536 412.155 302.939 399.107C312.396 387.291 322.274 377.392 335.966 366.011C343.296 359.909 350.962 354.724 358.753 350.598ZM565 633.697C572.175 629.898 579.214 625.244 585.925 619.868C602.222 607.182 616.228 592.736 627.549 576.935C645.867 552.365 656.299 524.758 657.709 497.102C658.983 473.56 651.563 454.586 635.651 440.706C619.54 426.7 592.873 417.414 564.65 408.358C538.962 400.179 520.401 393.084 504.471 385.353C499.671 383.024 495.113 380.639 490.922 378.264C482.485 373.415 474.744 368.345 467.26 363.441C457.78 357.229 448.822 351.361 439.444 346.587C427.577 340.511 414.57 337.699 400.783 338.231C386.686 338.775 372.456 342.802 358.49 350.198C350.665 354.342 342.966 359.55 335.606 365.676C321.885 377.081 311.985 387.002 302.507 398.848C292.086 411.917 283.294 424.987 275.631 438.805C263.545 460.031 255.235 480.685 250.226 501.944C242.227 533.429 241.717 559.453 248.717 579.288C256.18 600.418 275.702 616.827 303.689 625.49C308.364 626.955 313.363 628.316 318.55 629.546C343.159 635.4 369.449 637.552 394.876 639.634L396.567 639.774C412.491 641.168 427.191 642.657 441.405 644.095C452.582 645.226 463.138 646.295 473.229 647.207C481.877 648.092 489.623 648.57 496.908 648.664C523.671 648.881 545.309 644.125 565 633.697Z" fill="#4CAF4F"/>
<path d="M362.934 355.174C390.111 340.782 418.704 339.134 441.382 350.652C451.176 355.575 460.322 361.62 470.005 368.02C476.744 372.475 483.71 377.079 491.302 381.572C495.342 383.912 499.743 386.28 504.384 388.609C519.805 396.346 537.669 403.484 562.308 411.753C589.273 420.896 614.755 430.243 630.182 444.031C645.355 457.63 652.455 476.014 651.287 498.669C650.028 525.959 639.54 552.599 620.955 575.713C609.902 590.299 595.957 603.932 579.508 616.243C573.107 621.256 566.399 625.628 559.569 629.245C540.37 639.413 519.26 644.333 493.136 644.733C486.062 644.789 478.573 644.492 470.242 643.822C455.715 642.921 440.04 641.656 423.446 640.319C414.568 639.602 405.388 638.861 395.808 638.129C370.879 636.438 344.489 634.273 319.94 628.125C314.938 626.881 310.113 625.502 305.594 624.026C278.807 615.414 260.018 599.397 252.692 578.927C245.725 559.492 245.987 534.236 253.468 503.859C258.026 483.041 266.229 463.316 279.288 441.776C286.849 428.838 295.834 416.108 306.763 402.849C317.037 390.444 326.757 381.633 340.075 370.605C347.394 364.522 355.084 359.331 362.934 355.174ZM559.833 629.645C566.691 626.013 573.426 621.621 579.851 616.591C596.334 604.255 610.312 590.586 621.392 575.969C640.036 552.784 650.559 526.053 651.821 498.671C652.996 475.885 645.846 457.387 630.568 443.696C615.073 429.844 589.536 420.473 562.517 411.313C537.901 403.052 520.059 395.923 504.663 388.199C500.03 385.874 495.639 383.511 491.609 381.178C484.031 376.691 477.069 372.091 470.337 367.642C460.64 361.232 451.481 355.179 441.662 350.242C418.813 338.638 390.022 340.289 362.67 354.774C354.786 358.949 347.064 364.162 339.716 370.268C326.375 381.316 316.635 390.147 306.334 402.582C295.389 415.862 286.388 428.614 278.819 441.57C265.733 463.15 257.512 482.919 252.945 503.781C245.443 534.234 245.187 559.57 252.182 579.083C259.559 599.689 278.455 615.808 305.394 624.469C309.922 625.948 314.762 627.33 319.776 628.577C344.372 634.736 370.792 636.905 395.745 638.597C405.321 639.329 414.501 640.069 423.379 640.785C439.976 642.125 455.652 643.389 470.178 644.288C478.525 644.961 486.031 645.257 493.122 645.202C519.349 644.802 540.546 639.859 559.833 629.645Z" fill="#4CAF4F"/>
<path d="M366.909 359.406C393.862 345.132 421.687 343.193 443.252 354.087C453.515 359.199 462.855 365.455 472.745 372.077C478.722 376.08 484.904 380.22 491.624 384.334C495.495 386.637 499.726 388.988 504.206 391.322C519.083 399.075 536.219 406.272 559.77 414.659C584.491 423.572 609.865 433.413 624.669 447.065C639.216 460.504 646.068 478.427 645.034 500.338C643.968 527.356 633.443 553.111 614.597 574.821C603.86 588.2 589.981 601.046 573.341 613.012C567.248 617.665 560.873 621.766 554.388 625.2C535.616 635.141 514.958 640.233 489.376 641.226C482.509 641.425 475.269 641.295 467.241 640.83C445.378 640.098 420.968 638.489 395.123 636.785C372.454 635.553 345.969 633.413 321.392 626.892C316.568 625.624 311.908 624.221 307.534 622.721C281.807 614.079 263.637 598.321 256.374 578.349C249.387 559.224 249.36 534.646 256.29 505.296C260.405 484.756 268.472 465.903 282.448 444.161C289.932 431.967 298.837 419.912 310.47 406.222C321.18 393.696 330.894 385.672 343.195 375.511L343.985 374.86C351.285 368.794 358.998 363.596 366.909 359.406ZM554.651 625.6C561.164 622.151 567.566 618.036 573.676 613.366C590.35 601.377 604.263 588.497 615.023 575.09C633.935 553.308 644.498 527.457 645.568 500.338C646.608 478.3 639.71 460.264 625.064 446.736C610.189 433.02 584.758 423.153 559.987 414.223C536.459 405.844 519.345 398.657 504.49 390.916C500.019 388.585 495.795 386.24 491.937 383.944C485.228 379.838 479.052 375.701 473.078 371.7C463.175 365.068 453.82 358.802 443.529 353.677C421.795 342.697 393.772 344.64 366.645 359.006C358.7 363.213 350.954 368.433 343.626 374.523L342.836 375.174C330.518 385.35 320.788 393.387 310.046 405.95C298.395 419.659 289.479 431.732 281.984 443.944C267.976 465.734 259.892 484.634 255.766 505.223C248.817 534.646 248.852 559.304 255.865 578.508C263.176 598.612 281.453 614.469 307.326 623.162C311.711 624.664 316.389 626.07 321.223 627.344C345.849 633.878 372.37 636.02 395.068 637.253C420.913 638.958 445.33 640.567 467.198 641.296C475.232 641.764 482.489 641.896 489.378 641.696C515.058 640.7 535.798 635.585 554.651 625.6Z" fill="#4CAF4F"/>
<path d="M371.005 364.025C397.727 349.874 424.771 347.623 445.205 357.849C455.963 363.137 465.476 369.592 475.548 376.426C480.758 379.962 486.143 383.618 491.984 387.307C495.74 389.6 499.687 391.859 504.052 394.218C518.368 401.952 534.768 409.173 557.222 417.632C580.759 426.628 604.925 436.542 619.103 450.029C633 463.264 639.573 480.69 638.635 501.82C637.716 528.525 627.111 553.368 607.964 573.665C597.422 585.988 583.969 597.711 566.827 609.512C561.056 613.803 555.025 617.62 548.896 620.866C530.522 630.596 510.288 635.889 485.221 637.52C478.554 637.873 471.562 637.919 463.846 637.667C444.79 637.635 423.263 636.93 394.039 635.379C364.737 634.247 341.991 631.177 322.454 625.715C317.809 624.432 313.316 623.012 309.091 621.496C284.439 612.875 266.915 597.427 259.742 577.998C252.868 559.483 252.584 534.957 258.922 507.074C263.646 481.385 275.619 461.448 285.522 446.95C294.95 432.387 305.781 419.564 314.163 410.02C323.582 399.372 332.138 392.411 342.045 384.353C343.941 382.811 345.898 381.219 347.934 379.543C355.243 373.483 363.005 368.262 371.005 364.025ZM549.159 621.267C555.314 618.008 561.369 614.174 567.155 609.873C584.328 598.049 597.813 586.296 608.379 573.949C627.597 553.576 638.247 528.631 639.17 501.821C640.111 480.564 633.493 463.027 619.501 449.703C605.256 436.153 581.035 426.217 557.45 417.2C535.017 408.748 518.638 401.538 504.344 393.816C499.988 391.462 496.048 389.207 492.303 386.92C486.473 383.237 481.09 379.584 475.885 376.052C465.797 369.206 456.271 362.739 445.48 357.437C424.879 347.127 397.637 349.382 370.742 363.625C362.708 367.88 354.913 373.122 347.577 379.207C345.541 380.881 343.585 382.472 341.691 384.014C331.766 392.087 323.193 399.059 313.746 409.741C305.352 419.299 294.505 432.139 285.062 446.723C275.139 461.255 263.136 481.242 258.396 507.006C252.04 534.961 252.33 559.566 259.234 578.158C266.451 597.716 284.082 613.263 308.876 621.932C313.111 623.451 317.618 624.876 322.275 626.164C341.858 631.636 364.644 634.716 393.993 635.846C423.224 637.4 444.757 638.106 463.816 638.136C471.539 638.391 478.549 638.343 485.235 637.99C510.397 636.351 530.709 631.038 549.159 621.267Z" fill="#4CAF4F"/>
<path d="M375.313 368.534C401.345 354.748 428.243 352.159 447.268 361.606C458.553 367.087 468.22 373.767 478.455 380.839C482.901 383.911 487.499 387.087 492.462 390.337C496.044 392.586 499.823 394.824 504.021 397.186C517.591 404.813 533.726 412.297 554.8 420.739C577.15 429.842 600.106 439.85 613.669 453.201C626.926 466.254 633.235 483.2 632.42 503.565C631.677 529.969 621.023 553.907 601.611 572.792C591.357 583.996 578.346 594.634 560.652 606.28C555.233 610.194 549.578 613.716 543.837 616.757C525.864 626.275 506.046 631.761 481.467 634.029C475.006 634.53 468.265 634.751 460.86 634.699C440.838 635.319 418.773 635.122 393.395 634.1C366.568 633.484 343.216 630.288 323.98 624.596C319.519 623.293 315.189 621.853 311.111 620.316C287.535 611.689 270.646 596.526 263.551 577.615C256.668 559.423 256.101 535.618 261.914 508.774C266.072 483.76 277.879 464.847 288.879 449.646C297.8 436.556 308.187 424.647 318.081 413.728C326.63 404.368 334.118 398.444 342.786 391.584C345.728 389.257 348.767 386.85 352.058 384.149C359.384 378.08 367.207 372.827 375.313 368.534ZM544.101 617.158C549.866 614.104 555.542 610.568 560.971 606.646C578.695 594.982 591.738 584.315 602.01 573.089C621.506 554.128 632.208 530.081 632.955 503.562C633.774 483.077 627.422 466.026 614.073 452.881C600.445 439.468 577.436 429.435 555.038 420.311C533.985 411.877 517.87 404.402 504.32 396.787C500.129 394.431 496.356 392.195 492.787 389.954C487.833 386.711 483.238 383.537 478.795 380.467C468.544 373.382 458.86 366.692 447.541 361.195C437.721 356.318 426.181 354.534 413.245 355.893C400.938 357.185 387.73 361.418 375.05 368.134C366.91 372.444 359.053 377.719 351.702 383.811C348.412 386.511 345.374 388.915 342.436 391.24C333.749 398.115 326.246 404.051 317.669 413.443C307.761 424.377 297.363 436.301 288.428 449.41C277.4 464.649 265.56 483.619 261.39 508.712C255.561 535.625 256.133 559.51 263.044 577.776C270.186 596.814 287.177 612.075 310.888 620.748C314.977 622.289 319.322 623.735 323.794 625.041C343.077 630.747 366.484 633.953 393.354 634.57C418.746 635.592 440.823 635.788 460.847 635.169C468.258 635.22 475.018 634.998 481.498 634.496C506.167 632.222 526.056 626.714 544.101 617.158Z" fill="#4CAF4F"/>
<path d="M379.551 373.077C405.263 359.46 431.314 356.596 449.24 365.414C461.081 371.091 470.426 377.683 481.249 385.316C484.945 387.924 488.768 390.622 492.871 393.404C496.29 395.618 499.905 397.834 503.925 400.188C516.941 407.806 532.326 415.329 552.339 423.866C573.513 433.066 595.27 443.155 608.226 456.375C620.847 469.25 626.89 485.715 626.184 505.316C625.603 531.426 614.881 554.47 595.175 571.953C582.535 584.795 566.717 595.35 554.349 603.113C549.306 606.638 544.058 609.852 538.734 612.672C521.121 621.999 501.666 627.707 477.509 630.639C471.25 631.293 464.753 631.688 457.656 631.845C437.034 633.2 415.72 633.565 392.482 632.961C367.47 632.814 344.204 629.591 325.19 623.642C320.906 622.32 316.742 620.86 312.807 619.304C290.299 610.685 274.038 595.806 267.023 577.41C258.318 554.829 260.906 528.634 264.604 510.637C268.258 486.143 279.923 468.21 291.982 452.478C300.777 440.24 310.684 429.421 321.786 417.553C329.746 409.116 336.509 403.959 344.34 397.986C347.994 395.2 351.774 392.317 356.012 388.848C363.381 382.751 371.302 377.445 379.551 373.077ZM538.996 613.07C544.341 610.24 549.61 607.015 554.66 603.485C567.043 595.714 582.894 585.135 595.563 572.264C615.355 554.702 626.134 531.545 626.718 505.311C627.428 485.594 621.344 469.023 608.634 456.061C595.618 442.779 573.81 432.662 552.589 423.442C532.595 414.915 517.229 407.4 504.233 399.795C500.218 397.444 496.61 395.231 493.203 393.026C489.107 390.249 485.286 387.553 481.592 384.946C470.751 377.3 461.39 370.694 449.51 365.002C431.421 356.101 405.169 358.97 379.288 372.676C371.004 377.064 363.052 382.391 355.654 388.511C351.424 391.973 347.649 394.852 343.998 397.636C336.147 403.624 329.368 408.794 321.381 417.261C310.262 429.144 300.347 439.977 291.538 452.232C279.446 468.008 267.744 485.998 264.077 510.582C260.367 528.623 257.777 554.901 266.514 577.576C273.578 596.093 289.936 611.066 312.575 619.735C316.522 621.297 320.703 622.76 324.996 624.087C344.062 630.051 367.389 633.282 392.454 633.43C415.703 634.036 437.034 633.67 457.663 632.314C464.764 632.157 471.277 631.761 477.558 631.106C501.796 628.164 521.318 622.432 538.996 613.07Z" fill="#4CAF4F"/>
<path d="M383.866 377.129C409.226 363.699 434.418 360.57 451.254 368.758C463.672 374.622 473.104 381.437 484.023 389.327C486.995 391.473 490.067 393.693 493.34 395.995C496.594 398.167 500.045 400.362 503.895 402.712C516.356 410.311 530.996 417.869 549.967 426.499C569.973 435.782 590.538 445.943 602.891 459.038C614.88 471.73 620.652 487.721 620.046 506.562C619.613 532.383 608.802 554.538 588.781 570.636C577.715 581.013 564.491 589.676 548.034 599.492C543.411 602.613 538.606 605.498 533.742 608.074C516.444 617.234 497.291 623.196 473.467 626.838C467.399 627.651 461.143 628.223 454.347 628.586C433.547 630.731 412.967 631.666 391.416 631.446C367.675 631.747 345.126 628.6 326.199 622.343C322.09 621.003 318.089 619.526 314.3 617.951C292.844 609.347 277.209 594.761 270.275 576.875C261.566 554.694 263.747 529.437 267.109 512.154C270.133 489.395 280.429 472.823 294.955 454.94C303.647 443.488 313.504 433.292 323.941 422.498L325.405 420.985C332.959 413.235 339.211 408.672 346.453 403.388C350.622 400.346 354.933 397.201 359.921 393.132C367.371 386.982 375.426 381.599 383.866 377.129ZM534.005 608.473C538.886 605.888 543.708 602.993 548.336 599.869C564.812 590.043 578.064 581.361 589.149 570.965C609.27 554.786 620.145 532.509 620.58 506.554C621.189 487.602 615.379 471.509 603.309 458.73C590.895 445.572 570.28 435.386 550.228 426.081C531.275 417.46 516.653 409.91 504.211 402.322C500.366 399.977 496.922 397.785 493.68 395.621C490.414 393.324 487.341 391.105 484.372 388.959C473.431 381.054 463.982 374.227 451.524 368.344C434.524 360.075 409.131 363.209 383.603 376.729C375.13 381.216 367.042 386.621 359.563 392.793C354.59 396.851 350.286 399.992 346.121 403.03C338.86 408.329 332.588 412.906 325.004 420.685L323.539 422.203C313.091 433.008 303.223 443.215 294.521 454.683C279.946 472.622 269.614 489.255 266.581 512.104C263.209 529.428 261.026 554.77 269.768 577.043C276.749 595.044 292.478 609.725 314.06 618.378C317.859 619.958 321.875 621.441 325.996 622.783C344.981 629.06 367.596 632.218 391.398 631.918C412.964 632.137 433.566 631.2 454.376 629.054C461.172 628.69 467.444 628.116 473.533 627.303C497.434 623.646 516.647 617.665 534.005 608.473Z" fill="#4CAF4F"/>
<path d="M388.444 381.494C413.325 368.317 437.572 364.971 453.302 372.548C466.273 378.594 475.726 385.63 486.672 393.777C488.952 395.473 491.313 397.23 493.801 399.052C496.89 401.185 500.172 403.36 503.844 405.704C515.728 413.285 529.606 420.887 547.521 429.624C566.331 438.999 585.682 449.238 597.431 462.221C608.779 474.737 614.287 490.243 613.8 508.309C613.541 533.824 602.684 555.071 582.401 569.757C571.22 579.379 557.981 587.125 541.835 596.254C537.706 598.935 533.427 601.448 529.104 603.737C512.12 612.731 493.242 618.961 469.692 623.338C463.826 624.305 457.822 625.05 451.345 625.613C430.647 628.551 410.833 630.038 390.763 630.161C368.536 630.862 346.152 627.685 327.722 621.219C323.793 619.861 319.957 618.363 316.321 616.767C295.948 608.172 280.95 593.87 274.086 576.498C265.363 554.72 267.108 530.418 270.109 513.867C272.694 491.463 283.255 475.195 298.316 457.659C306.275 447.72 315.192 438.824 324.634 429.406C326.185 427.858 327.748 426.299 329.323 424.718C336.571 417.513 342.721 413.241 349.231 408.72C353.768 405.569 358.459 402.312 364.042 397.767C371.586 391.549 379.795 386.074 388.444 381.494ZM529.368 604.139C533.705 601.842 537.997 599.317 542.127 596.637C558.285 587.502 571.549 579.742 582.749 570.101C603.146 555.333 614.074 533.958 614.334 508.3C614.824 490.125 609.279 474.52 597.854 461.919C586.049 448.875 566.652 438.61 547.794 429.212C529.897 420.484 516.034 412.891 504.168 405.32C500.502 402.98 497.223 400.809 494.146 398.681C491.665 396.866 489.306 395.109 487.026 393.413C476.058 385.25 466.586 378.201 453.57 372.132C437.675 364.478 413.23 367.828 388.181 381.094C379.499 385.691 371.257 391.187 363.686 397.428C358.12 401.957 353.438 405.21 348.911 408.355C342.38 412.891 336.21 417.176 328.929 424.415C327.352 425.996 325.791 427.555 324.239 429.102C314.787 438.531 305.857 447.438 297.888 457.39C282.775 474.988 272.175 491.322 269.582 513.822C266.572 530.414 264.822 554.798 273.581 576.667C280.489 594.152 295.578 608.545 316.07 617.19C319.717 618.792 323.568 620.294 327.511 621.655C346.004 628.145 368.463 631.333 390.757 630.631C410.846 630.507 430.685 629.018 451.393 626.078C457.87 625.515 463.89 624.77 469.779 623.798C493.397 619.409 512.33 613.162 529.368 604.139Z" fill="#4CAF4F"/>
<path d="M393.018 385.861C417.727 372.776 440.419 369.324 455.274 376.391C468.774 382.594 477.732 389.487 489.075 398.215C490.725 399.486 492.426 400.794 494.2 402.148C497.132 404.248 500.251 406.401 503.736 408.733C515.037 416.285 528.161 423.924 545.04 432.771C561.889 441.804 580.805 452.524 591.957 465.406C602.667 477.743 607.906 492.769 607.529 510.064C607.43 535.275 596.505 555.621 575.935 568.91C565.377 577.167 552.641 583.949 539.156 591.127L535.5 593.074C531.962 595.272 528.314 597.37 524.638 599.316C507.886 608.188 489.162 614.741 465.709 619.937C460.038 621.063 454.279 621.984 448.117 622.745C427.368 626.557 408.853 628.549 389.834 629.012C368.671 630.113 347.044 627.005 328.929 620.261C325.178 618.886 321.505 617.372 318.014 615.752C298.715 607.175 284.349 593.165 277.561 576.301C268.825 554.925 270.155 531.574 272.811 515.75C275.228 491.197 288.275 475.005 301.428 460.523C308.806 451.806 316.989 443.974 325.65 435.685C328.086 433.354 330.552 430.994 333.04 428.577C340.077 421.798 345.928 417.953 352.121 413.882C356.938 410.717 361.917 407.443 368.003 402.504C375.58 396.27 384.23 390.515 393.018 385.861ZM524.901 599.716C528.588 597.764 532.25 595.661 535.782 593.463L539.42 591.526C552.927 584.335 565.686 577.543 576.262 569.269C596.96 555.901 607.964 535.419 608.063 510.051C608.443 492.654 603.169 477.534 592.386 465.113C581.182 452.171 562.221 441.423 545.327 432.365C528.463 423.526 515.354 415.897 504.071 408.354C500.588 406.027 497.475 403.877 494.554 401.784C492.785 400.435 491.084 399.127 489.435 397.857C478.068 389.11 469.089 382.2 455.54 375.975C440.518 368.83 417.634 372.286 392.755 385.461C383.934 390.133 375.251 395.909 367.647 402.165C361.585 407.086 356.616 410.352 351.81 413.511C345.594 417.595 339.725 421.454 332.65 428.268C330.161 430.686 327.697 433.045 325.263 435.373C316.59 443.674 308.397 451.515 301.012 460.243C287.809 474.779 274.709 491.04 272.28 515.712C269.618 531.576 268.285 555.007 277.058 576.473C283.889 593.445 298.344 607.543 317.755 616.173C321.258 617.794 324.942 619.317 328.707 620.694C346.892 627.465 368.603 630.586 389.837 629.483C408.881 629.016 427.426 627.024 448.189 623.209C454.349 622.444 460.121 621.524 465.815 620.393C489.328 615.183 508.099 608.614 524.901 599.716Z" fill="#4CAF4F"/>
<path d="M397.653 389.744C421.68 377.019 443.35 373.436 457.104 379.914C471.076 386.256 479.477 392.981 491.103 402.291C492.198 403.167 493.318 404.064 494.475 404.987C497.255 407.063 500.208 409.199 503.508 411.52C514.213 419.048 526.586 426.744 542.45 435.743C561.95 447.062 576.891 456.967 586.4 468.496C596.484 480.685 601.473 495.246 601.227 511.777C601.323 536.705 590.366 556.16 569.539 568.041C564.989 571.241 559.751 574.383 553.031 577.942C548.163 580.52 543.132 582.999 537.803 585.622C535.002 587.002 532.16 588.403 529.286 589.845C526.517 591.487 523.674 593.081 520.823 594.59C504.003 603.498 485.838 610.233 461.92 616.432C456.518 617.7 450.855 618.819 445.092 619.759C424.699 624.398 406.928 626.916 389.151 627.686C368.988 629.154 348.126 626.087 330.397 619.05C326.812 617.649 323.304 616.106 319.972 614.469C301.745 605.887 288.001 592.14 281.263 575.756C272.484 554.745 273.369 532.329 275.655 517.225C277.603 492.967 290.456 477.717 304.598 462.962C311.476 455.262 319.046 448.328 327.061 440.984C330.214 438.095 333.478 435.106 336.748 432.021C343.626 425.591 349.238 422.118 355.178 418.441C360.205 415.33 365.401 412.115 371.902 406.843C379.657 400.471 388.56 394.559 397.653 389.744ZM553.294 578.343C560.037 574.772 565.294 571.618 569.841 568.418C590.811 556.455 601.859 536.862 601.761 511.764C602.008 495.134 596.987 480.48 586.836 468.213C577.279 456.627 562.303 446.695 542.753 435.346C526.9 426.355 514.54 418.668 503.851 411.15C500.555 408.831 497.605 406.698 494.835 404.629C493.687 403.712 492.563 402.814 491.47 401.938C479.814 392.606 471.392 385.864 457.365 379.496C443.447 372.941 421.584 376.53 397.389 389.343C388.263 394.176 379.328 400.11 371.547 406.504C365.073 411.752 359.893 414.958 354.883 418.06C348.918 421.752 343.283 425.239 336.364 431.707C333.095 434.79 329.834 437.777 326.683 440.665C318.656 448.017 311.077 454.961 304.188 462.674C289.99 477.485 277.08 492.806 275.122 517.194C272.833 532.336 271.947 554.832 280.761 575.93C287.542 592.416 301.37 606.252 319.703 614.883C323.045 616.526 326.566 618.073 330.166 619.48C347.972 626.548 368.926 629.628 389.169 628.153C406.975 627.382 424.779 624.862 445.19 620.218C450.948 619.28 456.623 618.158 462.047 616.885C486.017 610.672 504.224 603.92 521.086 594.99C523.945 593.476 526.795 591.878 529.555 590.241C532.41 588.809 535.251 587.408 538.051 586.03C543.383 583.404 548.419 580.925 553.294 578.343Z" fill="#4CAF4F"/>
<path d="M563.163 566.827C560.904 568.237 558.505 569.61 555.808 571.038C549.562 574.346 542.792 577.373 535.624 580.578C531.528 582.41 527.29 584.304 523.002 586.32C521.31 587.27 519.596 588.204 517.886 589.11C501.027 598.038 482.536 605.322 457.934 612.73C452.708 614.166 447.295 615.47 441.849 616.603C421.568 622.191 405.021 625.178 388.176 626.287C368.929 628.155 348.822 625.177 331.546 617.903C328.135 616.49 324.793 614.934 321.61 613.281C304.221 604.626 291.462 591.545 284.715 575.446C275.934 554.851 276.431 533.408 278.391 519.045C279.941 495.085 292.635 480.746 307.819 465.778C314.305 458.931 321.393 452.753 328.891 446.214C332.707 442.887 336.65 439.447 340.619 435.825C347.41 429.679 352.849 426.529 358.605 423.195C363.804 420.185 369.179 417.072 376.062 411.511C384.075 404.948 393.318 398.825 402.793 393.808C426.07 381.481 446.678 377.773 459.336 383.634C473.686 390.029 481.45 396.505 493.202 406.307L495.12 407.906C497.753 409.955 500.538 412.064 503.643 414.359C513.854 421.909 525.126 429.398 540.195 438.644C558.275 450.005 572.157 459.92 581.132 471.375C590.57 483.373 595.275 497.437 595.118 513.177C595.339 537.108 584.852 555.368 564.789 565.993C564.253 566.277 563.711 566.557 563.163 566.827ZM556.072 571.439C558.781 570.005 561.19 568.624 563.437 567.221C563.964 566.958 564.512 566.679 565.052 566.393C585.293 555.673 595.875 537.267 595.652 513.161C595.809 497.328 591.075 483.176 581.576 471.099C572.558 459.59 558.64 449.648 540.514 438.257C525.456 429.018 514.195 421.536 503.995 413.996C500.894 411.702 498.112 409.596 495.488 407.554L493.577 405.959C481.793 396.131 474.008 389.638 459.595 383.215C446.773 377.278 425.973 380.993 402.53 393.408C393.022 398.443 383.747 404.586 375.706 411.173C368.858 416.705 363.503 419.806 358.325 422.805C352.539 426.156 347.076 429.32 340.242 435.505C336.278 439.123 332.337 442.56 328.522 445.886C321.012 452.435 313.917 458.622 307.421 465.479C292.736 479.957 279.417 494.951 277.86 519.022C275.895 533.419 275.398 554.943 284.212 575.625C291.003 591.822 303.84 604.984 321.329 613.689C324.521 615.348 327.878 616.91 331.301 618.329C348.663 625.638 368.872 628.631 388.206 626.755C405.083 625.644 421.671 622.65 441.969 617.055C447.413 615.925 452.838 614.617 458.081 613.175C482.731 605.755 501.254 598.456 518.149 589.509C519.862 588.602 521.581 587.664 523.259 586.723C527.523 584.718 531.757 582.826 535.852 580.995C543.03 577.787 549.807 574.754 556.072 571.439Z" fill="#4CAF4F"/>
<path d="M407.696 397.549C430.045 385.713 449.503 381.954 461.081 387.233C475.706 393.652 482.782 399.836 494.5 410.078L495.303 410.78C497.799 412.815 500.42 414.905 503.321 417.172C512.862 424.626 523.407 432.159 537.507 441.594C551.928 451.478 566.509 462.293 575.467 474.395C584.273 486.237 588.715 499.826 588.674 514.79C589.036 537.051 579.643 553.892 561.506 563.496C559.925 564.334 558.259 565.127 556.55 565.851C556.197 566.043 555.869 566.218 555.536 566.394C548.665 570.033 540.877 573.122 532.633 576.391C527.421 578.458 522.034 580.594 516.527 583.005C494.72 594.519 472.59 602.697 453.82 609.184C448.769 610.791 443.608 612.276 438.486 613.587C425.14 617.941 407.255 623.168 387.119 624.974C369.014 627.177 349.153 624.181 332.619 616.758C329.382 615.325 326.205 613.749 323.176 612.073C306.88 603.45 294.734 590.64 288.041 575.028C279.228 554.806 279.304 534.311 280.921 520.679C282.044 497.007 295.09 482.99 310.74 468.38C316.875 462.267 323.537 456.745 330.59 450.899C334.99 447.251 339.539 443.48 344.128 439.42C350.854 433.517 356.151 430.662 361.759 427.639C367.084 424.769 372.594 421.8 379.807 415.987C388.027 409.268 397.931 402.72 407.696 397.549ZM561.769 563.896C580.086 554.196 589.573 537.208 589.207 514.77C589.251 499.721 584.78 486.045 575.918 474.127C566.918 461.973 552.301 451.129 537.844 441.218C523.75 431.789 513.215 424.262 503.683 416.815C500.786 414.552 498.167 412.464 495.681 410.435L494.885 409.739C483.129 399.465 476.033 393.263 461.336 386.814C449.596 381.46 429.947 385.226 407.433 397.149C397.636 402.337 387.699 408.906 379.452 415.647C372.282 421.427 366.797 424.383 361.493 427.242C355.855 430.28 350.532 433.15 343.755 439.095C339.174 443.15 334.63 446.918 330.231 450.562C323.17 456.417 316.499 461.945 310.35 468.07C294.63 482.746 281.519 496.838 280.387 520.662C278.765 534.33 278.69 554.902 287.543 575.208C294.275 590.913 306.496 603.8 322.882 612.477C325.922 614.156 329.114 615.74 332.367 617.178C348.989 624.644 368.962 627.655 387.164 625.44C407.35 623.63 425.278 618.391 438.639 614.032C443.751 612.723 448.922 611.237 453.991 609.622C472.79 603.127 494.947 594.937 516.77 583.416C522.249 581.018 527.631 578.883 532.837 576.819C541.497 573.385 549.652 570.149 556.794 566.26C558.49 565.54 560.173 564.741 561.769 563.896Z" fill="#4CAF4F"/>
<path d="M413.389 401.323C425.879 394.709 448.978 384.578 463.369 391.03C478.145 397.41 484.482 403.234 495.985 413.806C498.4 415.882 500.854 417.949 503.529 420.165C514.781 429.484 526.442 438.179 535.342 444.716C548.525 454.627 561.89 465.469 570.31 477.565C578.483 489.254 582.662 502.366 582.729 516.539C583.215 537.281 574.794 552.838 558.376 561.532C555.915 562.835 553.247 564.003 550.441 565C544.173 567.908 537.132 570.314 529.677 572.862C523.511 574.968 517.137 577.147 510.559 579.811C492.01 588.937 473.026 596.782 450.222 605.758C445.335 607.547 440.428 609.208 435.646 610.69C421.824 615.956 405.202 621.618 386.593 623.782C369.308 626.346 350.229 623.414 334.241 615.742C331.179 614.293 328.165 612.698 325.284 610.998C310.1 602.417 298.567 589.887 291.928 574.756C283.075 554.908 282.738 535.373 284.016 522.479C284.733 499.049 297.547 485.909 314.224 471.165C320.06 465.689 326.356 460.741 333.023 455.501C337.953 451.628 343.051 447.621 348.199 443.207C353.428 438.754 357.695 436.27 361.177 434.426C362.643 433.65 364.058 432.943 365.56 432.194C367.045 431.455 368.585 430.688 370.158 429.855C373.585 428.04 378.269 425.354 384.11 420.657C392.749 413.613 403.147 406.747 413.389 401.323ZM558.64 561.933C575.239 553.142 583.753 537.439 583.262 516.515C583.195 502.462 578.875 488.904 570.769 477.309C562.312 465.16 548.914 454.29 535.695 444.352C526.797 437.818 515.147 429.13 503.903 419.817C501.23 417.604 498.777 415.539 496.405 413.5C484.835 402.865 478.476 397.022 463.622 390.609C449.007 384.055 425.712 394.258 413.126 400.923C402.852 406.364 392.421 413.252 383.755 420.317C377.952 424.984 373.302 427.652 369.895 429.456C368.328 430.286 366.794 431.048 365.308 431.788C363.873 432.505 362.386 433.245 360.913 434.025C357.403 435.884 353.107 438.387 347.834 442.876C342.695 447.284 337.601 451.287 332.673 455.158C325.999 460.402 319.693 465.358 313.847 470.846C297.086 485.661 284.205 498.877 283.481 522.471C282.2 535.399 282.541 555.012 291.429 574.941C298.107 590.159 309.708 602.766 324.981 611.395C327.869 613.1 330.897 614.701 333.974 616.157C350.062 623.877 369.263 626.826 386.653 624.243C405.322 622.077 421.987 616.398 435.824 611.128C440.602 609.648 445.514 607.981 450.418 606.188C473.243 597.204 492.239 589.352 510.788 580.229C517.33 577.578 523.696 575.403 529.854 573.299C537.325 570.746 544.383 568.336 550.651 565.424C553.457 564.427 556.154 563.25 558.64 561.933Z" fill="#4CAF4F"/>
<path d="M418.999 404.69C439.289 393.945 455.76 390.356 465.377 394.585C480.191 400.872 485.979 406.484 496.484 416.67C498.778 418.754 501.069 420.802 503.494 422.939C513.43 431.695 523.527 439.983 532.96 447.635C544.345 457.083 557.053 468.39 564.972 480.567C572.413 491.956 576.437 504.953 576.611 518.154C577.212 537.811 569.853 551.834 554.739 559.838C551.54 561.532 547.966 562.952 544.115 564.06C538.621 566.167 532.542 567.888 526.105 569.71C519.104 571.691 511.866 573.741 504.331 576.547C493.151 581.61 482.032 586.508 470.259 591.693C462.458 595.127 454.394 598.68 446.295 602.29C441.545 604.282 436.889 606.123 432.458 607.763C418.322 613.977 402.884 620.065 385.669 622.572C369.151 625.5 350.834 622.632 335.411 614.709C332.514 613.241 329.663 611.625 326.935 609.904C312.852 601.374 301.92 589.109 295.323 574.436C286.421 554.93 285.674 536.342 286.618 524.181C286.939 500.956 299.521 488.651 317.258 473.801C322.829 468.879 328.816 464.433 335.152 459.726C340.578 455.695 346.189 451.527 351.862 446.812C355.379 443.907 358.791 441.616 362.592 439.603C364.783 438.443 366.851 437.497 369.039 436.496C371.227 435.497 373.494 434.46 375.893 433.19C380.099 430.962 383.961 428.399 388.042 425.124C397.103 417.758 408.386 410.311 418.999 404.69ZM555.003 560.239C570.303 552.136 577.751 537.967 577.143 518.126C576.971 504.853 572.921 491.778 565.438 480.323C557.487 468.092 544.746 456.759 533.331 447.284C523.902 439.635 513.808 431.351 503.879 422.601C501.456 420.466 499.166 418.418 496.881 416.343C486.337 406.119 480.527 400.485 465.626 394.162C455.847 389.86 439.192 393.457 418.735 404.29C408.092 409.927 396.775 417.396 387.688 424.784C383.636 428.034 379.805 430.579 375.631 432.79C373.247 434.052 370.989 435.084 368.806 436.082C366.611 437.085 364.534 438.034 362.328 439.202C358.491 441.234 355.052 443.545 351.504 446.476C345.841 451.181 340.237 455.345 334.818 459.37C328.469 464.085 322.475 468.539 316.89 473.47C299.06 488.399 286.408 500.778 286.083 524.18C285.139 536.375 285.887 555.038 294.829 574.622C301.462 589.379 312.454 601.713 326.617 610.292C329.355 612.019 332.22 613.642 335.127 615.12C350.662 623.095 369.111 625.982 385.747 623.037C403.023 620.517 418.508 614.412 432.667 608.19C437.088 606.554 441.752 604.709 446.517 602.712C454.621 599.097 462.688 595.545 470.483 592.112C482.259 586.925 493.379 582.029 504.544 576.97C512.036 574.181 519.262 572.136 526.251 570.156C532.702 568.33 538.794 566.606 544.289 564.499C548.155 563.389 551.767 561.953 555.003 560.239Z" fill="#4CAF4F"/>
</g>
</svg>
