<svg width="241" height="408" viewBox="0 0 241 408" fill="none" xmlns="http://www.w3.org/2000/svg">
<g opacity="0.5">
<path d="M164.998 148.494C154.697 148.601 146.294 156.873 146.401 167.134C146.508 177.395 155.082 185.489 165.383 185.382C175.685 185.275 184.088 177.003 183.981 166.742C183.874 156.481 175.3 148.386 164.998 148.494Z" fill="#F4FBF7" stroke="#4CAF4F" stroke-width="7"/>
<path d="M184.182 233.099C184.245 239.073 179.291 244.28 172.727 244.348C166.162 244.417 161.101 239.315 161.039 233.34C160.977 227.365 165.93 222.159 172.495 222.09C179.059 222.022 184.12 227.124 184.182 233.099Z" fill="#F4FBF7" stroke="#4CAF4F" stroke-width="16"/>
<path d="M165.141 84.2644C165.224 92.1607 158.72 98.7663 150.444 98.8526C142.167 98.939 135.527 92.4705 135.445 84.5743C135.362 76.6781 141.866 70.0725 150.142 69.9861C158.419 69.8997 165.059 76.3682 165.141 84.2644Z" fill="#F4FBF7" stroke="#007636" stroke-width="7"/>
<path d="M135.235 269.479C135.317 277.376 128.814 283.981 120.537 284.067C112.261 284.154 105.621 277.685 105.538 269.789C105.456 261.893 111.96 255.287 120.236 255.201C128.512 255.115 135.153 261.583 135.235 269.479Z" fill="#F4FBF7" stroke="#007636" stroke-width="7"/>
<path opacity="0.3" d="M84.3462 109.212C84.4286 117.108 77.925 123.714 69.6486 123.8C61.3723 123.886 54.7322 117.418 54.6498 109.522C54.5674 101.625 61.0711 95.0197 69.3474 94.9334C77.6238 94.847 84.2639 101.315 84.3462 109.212Z" fill="#F4FBF7" stroke="#007636" stroke-width="7"/>
<mask id="path-6-inside-1_557_819" fill="white">
<ellipse cx="226.324" cy="281.083" rx="12.8443" ry="12.5538" transform="rotate(-0.597836 226.324 281.083)"/>
</mask>
<ellipse cx="226.324" cy="281.083" rx="12.8443" ry="12.5538" transform="rotate(-0.597836 226.324 281.083)" fill="#F4FBF7"/>
<path d="M220.599 281.143C220.56 277.422 223.502 275.096 226.261 275.067L226.649 312.205C243.595 312.028 257.92 298.342 257.737 280.755L220.599 281.143ZM226.261 275.067C229.021 275.039 232.011 277.303 232.049 281.023L194.912 281.411C195.095 298.997 209.703 312.382 226.649 312.205L226.261 275.067ZM232.049 281.023C232.088 284.744 229.146 287.07 226.387 287.099L225.999 249.961C209.054 250.138 194.728 263.825 194.912 281.411L232.049 281.023ZM226.387 287.099C223.628 287.128 220.638 284.863 220.599 281.143L257.737 280.755C257.553 263.169 242.945 249.784 225.999 249.961L226.387 287.099Z" fill="#007636" mask="url(#path-6-inside-1_557_819)"/>
<path d="M226.391 287.464C229.961 287.427 232.866 284.561 232.829 281.016C232.792 277.471 229.828 274.667 226.258 274.704C222.687 274.742 219.783 277.607 219.82 281.152C219.857 284.697 222.82 287.501 226.391 287.464Z" fill="#F4FBF7" stroke="#4CAF4F" stroke-width="2"/>
<mask id="path-9-inside-2_557_819" fill="white">
<ellipse cx="77.5449" cy="318.603" rx="12.8443" ry="12.5538" transform="rotate(-0.597836 77.5449 318.603)"/>
</mask>
<ellipse cx="77.5449" cy="318.603" rx="12.8443" ry="12.5538" transform="rotate(-0.597836 77.5449 318.603)" fill="#F4FBF7"/>
<path d="M71.8196 318.662C71.7808 314.942 74.7229 312.616 77.4821 312.587L77.8697 349.725C94.8156 349.548 109.141 335.861 108.957 318.275L71.8196 318.662ZM77.4821 312.587C80.2414 312.558 83.2314 314.822 83.2702 318.543L46.1324 318.931C46.3159 336.517 60.9237 349.902 77.8697 349.725L77.4821 312.587ZM83.2702 318.543C83.309 322.264 80.367 324.59 77.6077 324.618L77.2202 287.481C60.2742 287.658 45.9489 301.344 46.1324 318.931L83.2702 318.543ZM77.6077 324.618C74.8484 324.647 71.8585 322.383 71.8196 318.662L108.957 318.275C108.774 300.689 94.1661 287.304 77.2202 287.481L77.6077 324.618Z" fill="#007636" mask="url(#path-9-inside-2_557_819)"/>
<path d="M77.6115 324.984C81.1821 324.946 84.0863 322.081 84.0493 318.536C84.0123 314.991 81.0489 312.187 77.4783 312.224C73.9078 312.261 71.0036 315.127 71.0406 318.672C71.0776 322.217 74.0409 325.021 77.6115 324.984Z" fill="#F4FBF7" stroke="#4CAF4F" stroke-width="2"/>
<path d="M262.092 79.2412C262.155 85.216 257.201 90.4225 250.637 90.491C244.073 90.5595 239.012 85.4575 238.949 79.4826C238.887 73.5078 243.84 68.3013 250.405 68.2328C256.969 68.1644 262.03 73.2663 262.092 79.2412Z" fill="#F4FBF7" stroke="#007636" stroke-width="16"/>
<mask id="path-13-inside-3_557_819" fill="white">
<ellipse cx="212.445" cy="123.4" rx="12.8443" ry="12.5538" transform="rotate(-0.597836 212.445 123.4)"/>
</mask>
<ellipse cx="212.445" cy="123.4" rx="12.8443" ry="12.5538" transform="rotate(-0.597836 212.445 123.4)" fill="#F4FBF7"/>
<path d="M206.72 123.459C206.681 119.739 209.623 117.413 212.383 117.384L212.77 154.522C229.716 154.345 244.041 140.658 243.858 123.072L206.72 123.459ZM212.383 117.384C215.142 117.355 218.132 119.619 218.171 123.34L181.033 123.727C181.216 141.314 195.824 154.698 212.77 154.522L212.383 117.384ZM218.171 123.34C218.209 127.06 215.267 129.387 212.508 129.415L212.121 92.2776C195.175 92.4544 180.849 106.141 181.033 123.727L218.171 123.34ZM212.508 129.415C209.749 129.444 206.759 127.18 206.72 123.459L243.858 123.072C243.674 105.485 229.066 92.1007 212.121 92.2776L212.508 129.415Z" fill="#007636" mask="url(#path-13-inside-3_557_819)"/>
<path d="M212.512 129.78C216.082 129.743 218.987 126.878 218.95 123.333C218.913 119.788 215.949 116.983 212.379 117.021C208.808 117.058 205.904 119.924 205.941 123.468C205.978 127.013 208.941 129.818 212.512 129.78Z" fill="#F4FBF7" stroke="#4CAF4F" stroke-width="2"/>
<ellipse cx="50.4979" cy="47.0884" rx="9.19402" ry="8.95829" transform="rotate(-0.597836 50.4979 47.0884)" fill="#F4FBF7"/>
<path d="M50.5482 51.928C53.2519 51.8998 55.4659 49.7342 55.4377 47.0374C55.4096 44.3406 53.1509 42.2217 50.4472 42.25C47.7436 42.2782 45.5296 44.4437 45.5577 47.1405C45.5858 49.8373 47.8446 51.9562 50.5482 51.928Z" fill="#F4FBF7" stroke="#4CAF4F" stroke-width="2"/>
<path d="M126.472 127.959C129.029 127.932 131.12 125.878 131.093 123.324C131.067 120.769 128.933 118.759 126.376 118.786C123.819 118.813 121.728 120.867 121.754 123.421C121.781 125.976 123.914 127.986 126.472 127.959Z" fill="#F4FBF7" stroke="#4CAF4F" stroke-width="2"/>
<path d="M123.53 219.188C126.088 219.161 128.179 217.107 128.152 214.552C128.125 211.998 125.992 209.988 123.435 210.014C120.877 210.041 118.786 212.095 118.813 214.65C118.84 217.204 120.973 219.214 123.53 219.188Z" stroke="#4CAF4F" stroke-width="2"/>
<path d="M246.737 337.649C249.295 337.622 251.386 335.568 251.359 333.013C251.332 330.459 249.199 328.449 246.642 328.475C244.084 328.502 241.993 330.556 242.02 333.111C242.047 335.665 244.18 337.675 246.737 337.649Z" stroke="#4CAF4F" stroke-width="2"/>
<mask id="path-21-inside-4_557_819" fill="white">
<ellipse cx="229.209" cy="205.726" rx="12.8443" ry="12.5538" transform="rotate(-0.597836 229.209 205.726)"/>
</mask>
<ellipse cx="229.209" cy="205.726" rx="12.8443" ry="12.5538" transform="rotate(-0.597836 229.209 205.726)" fill="#F4FBF7"/>
<path d="M223.484 205.786C223.445 202.065 226.387 199.739 229.146 199.71L229.534 236.848C246.48 236.671 260.805 222.984 260.621 205.398L223.484 205.786ZM229.146 199.71C231.905 199.681 234.895 201.946 234.934 205.666L197.796 206.054C197.98 223.64 212.588 237.025 229.534 236.848L229.146 199.71ZM234.934 205.666C234.973 209.387 232.031 211.713 229.272 211.742L228.884 174.604C211.938 174.781 197.613 188.467 197.796 206.054L234.934 205.666ZM229.272 211.742C226.512 211.77 223.523 209.506 223.484 205.786L260.621 205.398C260.438 187.812 245.83 174.427 228.884 174.604L229.272 211.742Z" fill="#4CAF4F" mask="url(#path-21-inside-4_557_819)"/>
<mask id="path-23-inside-5_557_819" fill="white">
<ellipse cx="63.8652" cy="244.597" rx="12.8443" ry="12.5538" transform="rotate(-0.597836 63.8652 244.597)"/>
</mask>
<ellipse cx="63.8652" cy="244.597" rx="12.8443" ry="12.5538" transform="rotate(-0.597836 63.8652 244.597)" fill="#F4FBF7"/>
<path d="M58.14 244.657C58.1011 240.936 61.0432 238.61 63.8025 238.581L64.19 275.719C81.1359 275.542 95.4612 261.855 95.2777 244.269L58.14 244.657ZM63.8025 238.581C66.5617 238.552 69.5517 240.817 69.5905 244.537L32.4527 244.925C32.6362 262.511 47.244 275.896 64.19 275.719L63.8025 238.581ZM69.5905 244.537C69.6293 248.258 66.6873 250.584 63.928 250.613L63.5405 213.475C46.5945 213.652 32.2692 227.338 32.4527 244.925L69.5905 244.537ZM63.928 250.613C61.1687 250.641 58.1788 248.377 58.14 244.657L95.2777 244.269C95.0942 226.683 80.4864 213.298 63.5405 213.475L63.928 250.613Z" fill="#4CAF4F" mask="url(#path-23-inside-5_557_819)"/>
<g opacity="0.3">
<g clip-path="url(#clip0_557_819)">
<path d="M165.562 297.86L182.034 307.137L182.231 326.031L165.957 335.648L149.485 326.372L149.288 307.478L165.562 297.86Z" fill="#4CAF4F"/>
</g>
<circle cx="165.601" cy="317.939" r="3" transform="rotate(-0.597836 165.601 317.939)" fill="white"/>
</g>
<g clip-path="url(#clip1_557_819)">
<path d="M86.7695 154.011L103.241 163.287L103.438 182.181L87.1638 191.799L70.6922 182.523L70.4951 163.629L86.7695 154.011Z" fill="#4CAF4F"/>
</g>
<circle cx="87.8768" cy="173.963" r="3" transform="rotate(-0.597836 87.8768 173.963)" fill="white"/>
<path d="M222.036 373.024C222.098 378.999 217.145 384.206 210.58 384.274C204.016 384.343 198.955 379.241 198.893 373.266C198.83 367.291 203.784 362.085 210.348 362.016C216.912 361.948 221.973 367.049 222.036 373.024Z" fill="#F4FBF7" stroke="#007636" stroke-width="16"/>
<mask id="path-30-inside-6_557_819" fill="white">
<ellipse cx="127.211" cy="359.239" rx="12.8443" ry="12.5538" transform="rotate(-0.597836 127.211 359.239)"/>
</mask>
<ellipse cx="127.211" cy="359.239" rx="12.8443" ry="12.5538" transform="rotate(-0.597836 127.211 359.239)" fill="#F4FBF7"/>
<path d="M121.486 359.299C121.447 355.579 124.389 353.253 127.148 353.224L127.536 390.361C144.482 390.185 158.807 376.498 158.623 358.912L121.486 359.299ZM127.148 353.224C129.907 353.195 132.897 355.459 132.936 359.18L95.7984 359.567C95.9819 377.154 110.59 390.538 127.536 390.361L127.148 353.224ZM132.936 359.18C132.975 362.9 130.033 365.226 127.274 365.255L126.886 328.117C109.94 328.294 95.6149 341.981 95.7984 359.567L132.936 359.18ZM127.274 365.255C124.514 365.284 121.524 363.02 121.486 359.299L158.623 358.912C158.44 341.325 143.832 327.941 126.886 328.117L127.274 365.255Z" fill="#4CAF4F" mask="url(#path-30-inside-6_557_819)"/>
<mask id="path-32-inside-7_557_819" fill="white">
<ellipse cx="110.551" cy="29.8293" rx="12.8443" ry="12.5538" transform="rotate(-0.597836 110.551 29.8293)"/>
</mask>
<ellipse cx="110.551" cy="29.8293" rx="12.8443" ry="12.5538" transform="rotate(-0.597836 110.551 29.8293)" fill="#F4FBF7"/>
<path d="M104.826 29.889C104.787 26.1685 107.729 23.8424 110.488 23.8136L110.876 60.9513C127.821 60.7745 142.147 47.0879 141.963 29.5015L104.826 29.889ZM110.488 23.8136C113.247 23.7848 116.237 26.049 116.276 29.7696L79.1383 30.1571C79.3218 47.7434 93.9296 61.1282 110.876 60.9513L110.488 23.8136ZM116.276 29.7696C116.315 33.4901 113.373 35.8162 110.614 35.845L110.226 -1.29274C93.2801 -1.11592 78.9548 12.5707 79.1383 30.1571L116.276 29.7696ZM110.614 35.845C107.854 35.8738 104.864 33.6096 104.826 29.889L141.963 29.5015C141.78 11.9152 127.172 -1.46957 110.226 -1.29274L110.614 35.845Z" fill="#4CAF4F" mask="url(#path-32-inside-7_557_819)"/>
<path d="M197.233 49.5333C199.791 49.5066 201.882 47.4526 201.855 44.898C201.828 42.3435 199.695 40.3335 197.138 40.3602C194.58 40.3869 192.489 42.441 192.516 44.9955C192.543 47.55 194.676 49.56 197.233 49.5333Z" fill="#F4FBF7" stroke="#4CAF4F" stroke-width="2"/>
</g>
<defs>
<clipPath id="clip0_557_819">
<rect width="33" height="38" fill="white" transform="translate(149.041 298.027) rotate(-0.597836)"/>
</clipPath>
<clipPath id="clip1_557_819">
<rect width="33" height="38" fill="white" transform="translate(70.248 154.178) rotate(-0.597836)"/>
</clipPath>
</defs>
</svg>
