<svg width="342" height="408" viewBox="0 0 342 408" fill="none" xmlns="http://www.w3.org/2000/svg">
<g opacity="0.5">
<path d="M186.161 122.604C176.233 125.355 170.237 135.507 172.977 145.397C175.717 155.286 186.082 160.905 196.01 158.155C205.938 155.404 211.934 145.252 209.194 135.362C206.454 125.473 196.089 119.853 186.161 122.604Z" fill="#F4FBF7" stroke="#4CAF4F" stroke-width="7"/>
<path d="M226.438 199.44C228.033 205.198 224.584 211.503 218.257 213.255C211.931 215.008 205.729 211.378 204.134 205.619C202.538 199.861 205.988 193.557 212.314 191.804C218.641 190.051 224.843 193.682 226.438 199.44Z" fill="#F4FBF7" stroke="#4CAF4F" stroke-width="16"/>
<path d="M169.798 60.4953C171.906 68.1052 167.318 76.1601 159.342 78.37C151.365 80.5799 143.286 76.0346 141.178 68.4247C139.07 60.8147 143.658 52.7598 151.634 50.5499C159.61 48.34 167.689 52.8853 169.798 60.4953Z" fill="#F4FBF7" stroke="#007636" stroke-width="7"/>
<path d="M188.482 247.175C190.591 254.785 186.003 262.84 178.026 265.05C170.05 267.26 161.971 262.714 159.863 255.104C157.754 247.494 162.342 239.44 170.319 237.23C178.295 235.02 186.374 239.565 188.482 247.175Z" fill="#F4FBF7" stroke="#007636" stroke-width="7"/>
<path opacity="0.3" d="M98.124 105.362C100.232 112.972 95.6443 121.027 87.668 123.237C79.6917 125.447 71.6125 120.902 69.5041 113.292C67.3957 105.682 71.9838 97.627 79.9602 95.4171C87.9365 93.2072 96.0156 97.7525 98.124 105.362Z" fill="#F4FBF7" stroke="#007636" stroke-width="7"/>
<path opacity="0.3" d="M296.181 104.439C298.289 112.049 293.701 120.103 285.725 122.313C277.748 124.523 269.669 119.978 267.561 112.368C265.452 104.758 270.04 96.7032 278.017 94.4933C285.993 92.2834 294.072 96.8286 296.181 104.439Z" fill="#F4FBF7" stroke="#007636" stroke-width="7"/>
<mask id="path-7-inside-1_449_3657" fill="white">
<ellipse cx="279.496" cy="234.985" rx="12.8443" ry="12.5538" transform="rotate(-15.4859 279.496 234.985)"/>
</mask>
<ellipse cx="279.496" cy="234.985" rx="12.8443" ry="12.5538" transform="rotate(-15.4859 279.496 234.985)" fill="#F4FBF7"/>
<path d="M273.978 236.514C272.984 232.928 275.23 229.924 277.889 229.187L287.806 264.979C304.137 260.454 314.465 243.546 309.769 226.597L273.978 236.514ZM277.889 229.187C280.548 228.451 284.02 229.871 285.013 233.456L249.222 243.373C253.918 260.322 271.474 269.504 287.806 264.979L277.889 229.187ZM285.013 233.456C286.007 237.042 283.761 240.046 281.102 240.783L271.185 204.991C254.854 209.516 244.526 226.424 249.222 243.373L285.013 233.456ZM281.102 240.783C278.443 241.519 274.971 240.099 273.978 236.514L309.769 226.597C305.073 209.649 287.517 200.466 271.185 204.991L281.102 240.783Z" fill="#007636" mask="url(#path-7-inside-1_449_3657)"/>
<path d="M281.199 241.133C284.64 240.18 286.71 236.664 285.764 233.248C284.817 229.831 281.233 227.883 277.792 228.836C274.351 229.789 272.28 233.305 273.227 236.721C274.173 240.138 277.758 242.087 281.199 241.133Z" fill="#F4FBF7" stroke="#4CAF4F" stroke-width="2"/>
<mask id="path-10-inside-2_449_3657" fill="white">
<ellipse cx="156.372" cy="300.333" rx="12.8443" ry="12.5538" transform="rotate(-15.4859 156.372 300.333)"/>
</mask>
<ellipse cx="156.372" cy="300.333" rx="12.8443" ry="12.5538" transform="rotate(-15.4859 156.372 300.333)" fill="#F4FBF7"/>
<path d="M150.854 301.861C149.86 298.276 152.106 295.272 154.765 294.535L164.682 330.327C181.013 325.802 191.341 308.894 186.645 291.945L150.854 301.861ZM154.765 294.535C157.424 293.798 160.896 295.218 161.889 298.804L126.098 308.72C130.794 325.669 148.35 334.851 164.682 330.327L154.765 294.535ZM161.889 298.804C162.883 302.39 160.637 305.394 157.978 306.13L148.061 270.339C131.73 274.864 121.402 291.771 126.098 308.72L161.889 298.804ZM157.978 306.13C155.319 306.867 151.847 305.447 150.854 301.861L186.645 291.945C181.949 274.996 164.393 265.814 148.061 270.339L157.978 306.13Z" fill="#007636" mask="url(#path-10-inside-2_449_3657)"/>
<path d="M158.076 306.481C161.517 305.528 163.587 302.012 162.641 298.596C161.694 295.179 158.11 293.23 154.669 294.184C151.228 295.137 149.157 298.653 150.104 302.069C151.05 305.486 154.635 307.434 158.076 306.481Z" fill="#F4FBF7" stroke="#4CAF4F" stroke-width="2"/>
<path d="M262.204 30.7289C263.799 36.4872 260.349 42.7916 254.023 44.5444C247.697 46.2971 241.495 42.6668 239.899 36.9086C238.304 31.1503 241.753 24.8459 248.08 23.0931C254.406 21.3403 260.608 24.9706 262.204 30.7289Z" fill="#F4FBF7" stroke="#007636" stroke-width="16"/>
<mask id="path-14-inside-3_449_3657" fill="white">
<ellipse cx="225.569" cy="86.1628" rx="12.8443" ry="12.5538" transform="rotate(-15.4859 225.569 86.1628)"/>
</mask>
<ellipse cx="225.569" cy="86.1628" rx="12.8443" ry="12.5538" transform="rotate(-15.4859 225.569 86.1628)" fill="#F4FBF7"/>
<path d="M220.051 87.6915C219.058 84.1059 221.303 81.1019 223.962 80.3651L233.879 116.157C250.21 111.632 260.538 94.724 255.843 77.7752L220.051 87.6915ZM223.962 80.3651C226.622 79.6284 230.093 81.0484 231.086 84.6341L195.295 94.5504C199.991 111.499 217.547 120.681 233.879 116.157L223.962 80.3651ZM231.086 84.6341C232.08 88.2197 229.834 91.2237 227.175 91.9604L217.259 56.169C200.927 60.6938 190.599 77.6016 195.295 94.5504L231.086 84.6341ZM227.175 91.9604C224.516 92.6972 221.044 91.2772 220.051 87.6915L255.843 77.7752C251.147 60.8263 233.59 51.6441 217.259 56.169L227.175 91.9604Z" fill="#007636" mask="url(#path-14-inside-3_449_3657)"/>
<path d="M227.272 92.311C230.713 91.3576 232.784 87.8421 231.837 84.4256C230.891 81.0092 227.306 79.0604 223.865 80.0138C220.424 80.9672 218.353 84.4827 219.3 87.8992C220.247 91.3156 223.831 93.2644 227.272 92.311Z" fill="#F4FBF7" stroke="#4CAF4F" stroke-width="2"/>
<ellipse cx="49.4504" cy="54.0201" rx="9.19402" ry="8.95829" transform="rotate(-15.4859 49.4504 54.0201)" fill="#F4FBF7"/>
<path d="M50.7424 58.6845C53.348 57.9625 54.9313 55.3009 54.2112 52.7018C53.4911 50.1027 50.7638 48.6354 48.1582 49.3573C45.5525 50.0792 43.9692 52.7409 44.6893 55.3399C45.4094 57.939 48.1367 59.4064 50.7424 58.6845Z" fill="#F4FBF7" stroke="#4CAF4F" stroke-width="2"/>
<path d="M143.653 112.657C146.117 111.974 147.61 109.452 146.928 106.99C146.246 104.528 143.668 103.133 141.203 103.816C138.739 104.499 137.245 107.021 137.928 109.483C138.61 111.945 141.188 113.34 143.653 112.657Z" fill="#F4FBF7" stroke="#4CAF4F" stroke-width="2"/>
<path d="M164.249 201.579C166.714 200.896 168.207 198.373 167.525 195.912C166.843 193.45 164.264 192.055 161.8 192.738C159.335 193.421 157.842 195.943 158.524 198.405C159.206 200.867 161.785 202.262 164.249 201.579Z" stroke="#4CAF4F" stroke-width="2"/>
<path d="M323.217 131.067C325.682 130.384 327.175 127.862 326.493 125.4C325.81 122.938 323.232 121.544 320.768 122.226C318.303 122.909 316.81 125.432 317.492 127.894C318.174 130.355 320.752 131.75 323.217 131.067Z" stroke="#4CAF4F" stroke-width="2"/>
<path d="M313.757 284.407C316.222 283.724 317.715 281.202 317.033 278.74C316.351 276.278 313.772 274.883 311.308 275.566C308.843 276.249 307.35 278.771 308.032 281.233C308.714 283.695 311.292 285.09 313.757 284.407Z" stroke="#4CAF4F" stroke-width="2"/>
<g clip-path="url(#clip0_449_3657)">
<path d="M309.998 166.37L328.3 171.103L333.345 189.312L320.088 202.788L301.786 198.056L296.741 179.847L309.998 166.37Z" fill="#007636"/>
</g>
<circle cx="316.737" cy="184.459" r="3" transform="rotate(-15.4859 316.737 184.459)" fill="white"/>
<mask id="path-25-inside-4_449_3657" fill="white">
<ellipse cx="262.92" cy="161.417" rx="12.8443" ry="12.5538" transform="rotate(-15.4859 262.92 161.417)"/>
</mask>
<ellipse cx="262.92" cy="161.417" rx="12.8443" ry="12.5538" transform="rotate(-15.4859 262.92 161.417)" fill="#F4FBF7"/>
<path d="M257.403 162.945C256.409 159.36 258.655 156.356 261.314 155.619L271.23 191.411C287.562 186.886 297.89 169.978 293.194 153.029L257.403 162.945ZM261.314 155.619C263.973 154.882 267.445 156.302 268.438 159.888L232.647 169.804C237.342 186.753 254.899 195.935 271.23 191.411L261.314 155.619ZM268.438 159.888C269.431 163.474 267.186 166.478 264.527 167.214L254.61 131.423C238.279 135.948 227.951 152.855 232.647 169.804L268.438 159.888ZM264.527 167.214C261.867 167.951 258.396 166.531 257.403 162.945L293.194 153.029C288.498 136.08 270.942 126.898 254.61 131.423L264.527 167.214Z" fill="#4CAF4F" mask="url(#path-25-inside-4_449_3657)"/>
<mask id="path-27-inside-5_449_3657" fill="white">
<ellipse cx="126.266" cy="228.657" rx="12.8443" ry="12.5538" transform="rotate(-15.4859 126.266 228.657)"/>
</mask>
<ellipse cx="126.266" cy="228.657" rx="12.8443" ry="12.5538" transform="rotate(-15.4859 126.266 228.657)" fill="#F4FBF7"/>
<path d="M120.748 230.186C119.755 226.6 122.001 223.596 124.66 222.859L134.576 258.651C150.908 254.126 161.236 237.218 156.54 220.269L120.748 230.186ZM124.66 222.859C127.319 222.123 130.79 223.543 131.784 227.128L95.9923 237.045C100.688 253.993 118.244 263.176 134.576 258.651L124.66 222.859ZM131.784 227.128C132.777 230.714 130.532 233.718 127.872 234.455L117.956 198.663C101.624 203.188 91.2965 220.096 95.9923 237.045L131.784 227.128ZM127.872 234.455C125.213 235.191 121.742 233.771 120.748 230.186L156.54 220.269C151.844 203.32 134.288 194.138 117.956 198.663L127.872 234.455Z" fill="#4CAF4F" mask="url(#path-27-inside-5_449_3657)"/>
<g opacity="0.3">
<g clip-path="url(#clip1_449_3657)">
<path d="M225.084 266.812L243.386 271.544L248.431 289.754L235.174 303.23L216.872 298.497L211.827 280.288L225.084 266.812Z" fill="#4CAF4F"/>
</g>
<circle cx="230.279" cy="286.207" r="3" transform="rotate(-15.4859 230.279 286.207)" fill="white"/>
</g>
<g clip-path="url(#clip2_449_3657)">
<path d="M111.977 148.036L130.279 152.769L135.324 170.978L122.067 184.454L103.765 179.722L98.7198 161.513L111.977 148.036Z" fill="#4CAF4F"/>
</g>
<circle cx="118.173" cy="167.031" r="3" transform="rotate(-15.4859 118.173 167.031)" fill="white"/>
<path d="M318.356 34.2485C308.428 36.9992 302.432 47.1517 305.172 57.0411C307.912 66.9305 318.278 72.55 328.206 69.7994C338.134 67.0487 344.129 56.8962 341.389 47.0068C338.649 37.1174 328.284 31.4979 318.356 34.2485Z" fill="#F4FBF7" stroke="#4CAF4F" stroke-width="7"/>
<path d="M298.972 324.942C300.568 330.7 297.118 337.004 290.792 338.757C284.465 340.51 278.263 336.88 276.668 331.121C275.072 325.363 278.522 319.059 284.848 317.306C291.175 315.553 297.377 319.184 298.972 324.942Z" fill="#F4FBF7" stroke="#007636" stroke-width="16"/>
<mask id="path-35-inside-6_449_3657" fill="white">
<ellipse cx="203.788" cy="335.983" rx="12.8443" ry="12.5538" transform="rotate(-15.4859 203.788 335.983)"/>
</mask>
<ellipse cx="203.788" cy="335.983" rx="12.8443" ry="12.5538" transform="rotate(-15.4859 203.788 335.983)" fill="#F4FBF7"/>
<path d="M198.271 337.512C197.277 333.926 199.523 330.922 202.182 330.185L212.099 365.977C228.43 361.452 238.758 344.544 234.062 327.595L198.271 337.512ZM202.182 330.185C204.841 329.449 208.313 330.869 209.306 334.454L173.515 344.371C178.211 361.32 195.767 370.502 212.099 365.977L202.182 330.185ZM209.306 334.454C210.3 338.04 208.054 341.044 205.395 341.781L195.478 305.989C179.147 310.514 168.819 327.422 173.515 344.371L209.306 334.454ZM205.395 341.781C202.736 342.518 199.264 341.097 198.271 337.512L234.062 327.595C229.366 310.647 211.81 301.464 195.478 305.989L205.395 341.781Z" fill="#4CAF4F" mask="url(#path-35-inside-6_449_3657)"/>
<mask id="path-37-inside-7_449_3657" fill="white">
<ellipse cx="103.053" cy="21.9108" rx="12.8443" ry="12.5538" transform="rotate(-15.4859 103.053 21.9108)"/>
</mask>
<ellipse cx="103.053" cy="21.9108" rx="12.8443" ry="12.5538" transform="rotate(-15.4859 103.053 21.9108)" fill="#F4FBF7"/>
<path d="M97.5354 23.4396C96.542 19.8539 98.7876 16.85 101.447 16.1132L111.363 51.9047C127.695 47.3798 138.023 30.472 133.327 13.5232L97.5354 23.4396ZM101.447 16.1132C104.106 15.3764 107.577 16.7964 108.571 20.3821L72.7794 30.2985C77.4752 47.2473 95.0316 56.4295 111.363 51.9047L101.447 16.1132ZM108.571 20.3821C109.564 23.9677 107.319 26.9717 104.659 27.7085L94.7431 -8.08299C78.4115 -3.55817 68.0836 13.3496 72.7794 30.2985L108.571 20.3821ZM104.659 27.7085C102 28.4452 98.5289 27.0252 97.5354 23.4396L133.327 13.5232C128.631 -3.42562 111.075 -12.6078 94.7431 -8.08299L104.659 27.7085Z" fill="#4CAF4F" mask="url(#path-37-inside-7_449_3657)"/>
<path d="M191.888 18.6822C194.352 17.9994 195.846 15.477 195.163 13.0151C194.481 10.5531 191.903 9.1588 189.439 9.84162C186.974 10.5244 185.481 13.0468 186.163 15.5088C186.845 17.9707 189.423 19.365 191.888 18.6822Z" fill="#F4FBF7" stroke="#4CAF4F" stroke-width="2"/>
</g>
<defs>
<clipPath id="clip0_449_3657">
<rect width="33" height="38" fill="white" transform="translate(294.074 170.775) rotate(-15.4859)"/>
</clipPath>
<clipPath id="clip1_449_3657">
<rect width="33" height="38" fill="white" transform="translate(209.16 271.217) rotate(-15.4859)"/>
</clipPath>
<clipPath id="clip2_449_3657">
<rect width="33" height="38" fill="white" transform="translate(96.0527 152.441) rotate(-15.4859)"/>
</clipPath>
</defs>
</svg>
