<svg width="289" height="306" viewBox="0 0 289 306" fill="none" xmlns="http://www.w3.org/2000/svg">
<g opacity="0.9">
<path d="M176.445 42.7564C186.089 35.85 193.543 31.8678 200.614 29.845C227.825 22.6372 263.614 46.1454 291.788 89.7376C305.725 111.656 314.626 135.197 317.529 157.812C319.945 177.602 317.973 199.754 311.323 227.527C306.653 246.586 299.454 265.48 288.667 286.989C277.675 308.713 267.143 322.803 254.519 332.673C253.941 333.115 253.359 333.547 252.737 333.993C238 344.546 211.453 355.428 181.721 363.102C151.502 370.902 123.704 373.787 107.361 370.82C68.4138 372.648 62.199 351.598 52.7895 319.736C48.6164 305.602 43.8849 289.584 35.5217 272.123C29.4837 259.524 23.9426 248.381 19.0531 238.548C-4.42746 191.335 -15.1454 169.787 -8.01704 132.402C-6.1405 123.567 -1.19826 116.228 6.66914 110.594C12.8707 106.153 20.942 102.729 30.6602 100.419C39.4937 98.3554 48.971 96.891 59.005 95.3411C72.202 93.3028 85.848 91.1958 99.9687 87.4626C116.735 82.9452 133.306 74.7179 150.632 62.3102C153.204 60.4685 155.869 58.479 158.554 56.3981C159.76 55.4622 160.956 54.5311 162.14 53.6093C167.11 49.7371 171.804 46.0799 176.445 42.7564ZM252.876 334.251C253.501 333.804 254.087 333.37 254.669 332.925C267.341 323.017 277.905 308.888 288.925 287.109C299.726 265.573 306.934 246.653 311.612 227.566C318.271 199.75 320.246 177.558 317.826 157.726C314.916 135.065 306 111.484 292.041 89.5311C263.807 45.8455 227.906 22.2956 200.579 29.5347C193.468 31.5684 185.982 35.5666 176.305 42.4968C171.658 45.8246 166.961 49.4835 161.988 53.3582C160.805 54.2811 159.61 55.2114 158.404 56.1468C155.722 58.2247 153.061 60.2113 150.492 62.0505C133.2 74.4341 116.664 82.6448 99.9355 87.153C85.832 90.88 72.1946 92.9864 59.004 95.0239C48.9646 96.5739 39.4826 98.0386 30.6374 100.105C20.8772 102.426 12.7667 105.867 6.52944 110.334C-1.41785 116.026 -6.40929 123.441 -8.30778 132.378C-11.7742 150.556 -11.1902 165.308 -6.3524 181.705C-1.65655 197.626 6.91797 214.867 18.785 238.73C23.6739 248.561 29.216 259.703 35.2515 272.302C43.6058 289.74 48.333 305.749 52.5038 319.872C57.3604 336.317 61.1957 349.308 68.8117 358.312C77.0445 368.048 88.9153 372.003 107.303 371.138C123.651 374.111 151.494 371.224 181.751 363.415C211.519 355.73 238.107 344.828 252.876 334.251Z" fill="#4CAF4F"/>
<path d="M251.379 331.027C251.034 331.285 250.689 331.536 250.332 331.791C236.249 341.876 210.634 352.288 181.812 359.638C152.48 367.121 125.413 369.877 109.405 367.011C71.5303 368.711 65.1305 348.412 55.4443 317.684C51.2551 304.397 46.5069 289.337 38.4347 272.952C32.5799 260.987 27.1925 250.376 22.44 241.015C-0.615852 195.603 -11.1386 174.876 -4.54434 138.719C-2.74787 129.304 2.46114 121.451 10.9416 115.378C16.6289 111.305 23.8237 108.011 32.3257 105.589C42.5895 102.189 53.8658 99.662 65.8037 96.9873C77.021 94.4743 88.6216 91.8745 100.564 88.3057C125.265 80.7381 145.851 67.3828 159.186 57.9953L161.51 56.2877C164.331 54.2154 166.996 52.2573 169.667 50.3445C181.028 42.2084 190.637 36.2794 200.606 33.7899C227.016 27.3335 261.867 50.0115 289.391 91.5647C303.597 112.74 312.789 135.423 315.974 157.162C318.727 176.487 317.055 198.149 310.712 225.335C306.119 245.199 298.621 264.627 287.114 286.471C275.85 307.654 264.874 321.363 251.525 330.922L251.379 331.027ZM250.472 332.052C250.83 331.795 251.177 331.542 251.521 331.284L251.665 331.182C265.063 321.587 276.075 307.837 287.368 286.598C298.891 264.723 306.401 245.267 311.002 225.371C317.354 198.142 319.028 176.438 316.269 157.07C313.078 135.288 303.871 112.564 289.642 91.3547C262.059 49.712 227.099 26.9937 200.578 33.477C190.56 35.9799 180.92 41.9254 169.527 50.0843C166.854 51.9984 164.189 53.9574 161.366 56.0308L159.046 57.7354C145.732 67.1072 125.177 80.4435 100.523 87.9979C88.5909 91.5622 76.996 94.1611 65.7829 96.6742C53.838 99.35 42.5548 101.878 32.2841 105.281C23.7512 107.712 16.5221 111.023 10.8022 115.119C2.24139 121.25 -3.02144 129.183 -4.83464 138.699C-11.4515 174.968 -0.914236 195.723 22.1733 241.198C26.9255 250.559 32.312 261.168 38.1673 273.133C46.2302 289.498 50.9744 304.548 55.1598 317.824C60.1594 333.684 64.1084 346.211 71.6706 354.904C79.8451 364.302 91.4658 368.134 109.346 367.33C125.36 370.2 152.474 367.441 181.84 359.951C210.7 352.591 236.357 342.16 250.472 332.052Z" fill="#4CAF4F"/>
<path d="M15.2999 120.102C20.4245 116.432 26.7118 113.329 33.9854 110.879C45.9166 105.692 59.4063 101.768 73.6883 97.6144C82.6018 95.0214 91.8187 92.3407 101.234 89.1913C124.345 81.2319 143.898 69.7484 159.977 59.5647L160.898 58.9303C175.26 49.0245 187.665 40.4695 200.819 37.659C226.463 31.9219 260.391 53.7285 287.256 93.2158C301.939 113.919 311.155 135.144 314.649 156.305C317.687 174.894 316.253 196.69 310.268 222.94C305.797 243.335 297.745 263.889 285.649 285.776C274.119 306.444 262.346 320.124 248.253 329.249L247.947 329.469C234.497 339.101 209.78 349.067 181.832 356.127C153.352 363.322 126.981 365.979 111.289 363.236C74.439 364.851 67.8587 345.306 57.8983 315.721C53.7119 303.288 48.9665 289.196 41.2021 273.895C35.5414 262.586 30.3201 252.528 25.7141 243.653C3.08314 200.049 -7.24614 180.148 -1.14289 145.196C0.565198 135.136 6.09725 126.692 15.2999 120.102ZM251.596 327.325C264.321 318.212 275.222 305.052 285.9 285.911C298.014 263.989 306.079 243.402 310.557 222.974C316.553 196.679 317.988 174.84 314.944 156.207C311.442 135.002 302.209 113.736 287.504 93.0021C274.253 73.5245 259.109 58.0047 243.713 48.1198C228.315 38.2348 213.476 34.5087 200.801 37.345C187.586 40.1683 175.156 48.7411 160.763 58.6671L159.849 59.2978C143.792 69.4667 124.26 80.9386 101.182 88.8867C91.7757 92.032 82.5604 94.7132 73.6488 97.3047C59.3577 101.462 45.8577 105.389 33.922 110.578C26.6283 113.034 20.313 116.152 15.1603 119.842C5.87173 126.494 0.288168 135.019 -1.43629 145.182C-7.5581 180.243 2.78577 200.172 25.4495 243.837C30.0547 252.712 35.2757 262.769 40.9349 274.078C48.6909 289.361 53.4335 303.442 57.6146 315.867C62.7567 331.137 66.8168 343.196 74.3305 351.568C82.4525 360.622 93.8328 364.318 111.23 363.555C126.928 366.302 153.343 363.643 181.862 356.438C209.846 349.37 234.604 339.384 248.086 329.729L248.387 329.513C249.461 328.817 250.543 328.079 251.596 327.325Z" fill="#4CAF4F"/>
<path d="M20.0011 124.588C24.4753 121.384 29.7919 118.563 35.8007 116.205C49.6473 108.679 65.8534 102.989 83.0114 96.963C89.1632 94.8033 95.5244 92.5696 101.951 90.1903C125.257 81.2857 145.747 69.7465 160.709 61.3218C174.435 52.4867 187.391 44.1457 200.899 41.767C213.134 39.3062 227.463 42.997 242.343 52.4389C257.251 61.9008 271.967 76.6689 284.9 95.1469C299.857 115.072 309.348 135.449 313.108 155.712C316.48 173.814 315.352 195.093 309.659 220.765C305.271 241.945 296.911 263.033 284.098 285.235C273.976 302.611 263.632 314.735 251.545 323.39C249.473 324.874 247.314 326.278 245.127 327.561C232.148 336.679 208.387 346.087 181.548 352.737C153.725 359.631 128.884 362.061 113.393 359.403C77.6111 360.896 70.8356 342.111 60.5802 313.678C56.4056 302.104 51.6738 288.985 44.2257 274.773C38.772 264.14 33.7255 254.649 29.2742 246.273C7.05033 204.465 -3.09323 185.384 2.48766 151.655C4.07905 140.876 9.97234 131.77 20.0011 124.588ZM251.685 323.65C263.816 314.963 274.194 302.801 284.346 285.377C297.179 263.136 305.554 242.012 309.949 220.794C315.651 195.078 316.781 173.754 313.4 155.608C309.631 135.3 300.124 114.885 285.145 94.9291C272.195 76.4271 257.455 61.6355 242.519 52.1568C227.584 42.6795 213.19 38.9777 200.889 41.4511C187.323 43.8399 174.339 52.1984 160.593 61.0472C145.649 69.462 125.171 80.9927 101.89 89.8891C95.4676 92.2663 89.1074 94.4993 82.9559 96.6595C65.7862 102.689 49.5672 108.385 35.7172 115.913C29.7002 118.274 24.3595 121.107 19.8615 124.329C9.74599 131.573 3.80099 140.764 2.19306 151.645C-3.40335 185.481 6.75378 204.591 29.0099 246.461C33.462 254.835 38.5071 264.326 43.9609 274.957C51.4 289.155 56.1281 302.263 60.3002 313.829C65.5938 328.502 69.7737 340.094 77.2384 348.15C85.3083 356.859 96.4418 360.427 113.334 359.721C128.832 362.384 153.716 359.951 181.576 353.049C208.448 346.39 232.254 336.961 245.252 327.83C247.435 326.548 249.604 325.14 251.685 323.65Z" fill="#4CAF4F"/>
<path d="M24.6158 128.522C28.3485 125.849 32.635 123.409 37.3605 121.267C53.4764 110.658 73.1274 102.742 93.9285 94.3636C96.7535 93.2261 99.6028 92.0789 102.475 90.9111C119.876 83.6042 135.573 75.6992 149.422 68.7247C153.588 66.626 157.524 64.645 161.304 62.7799C175.863 54.104 188.013 47.3302 200.885 45.559C212.763 43.4587 226.669 47.1343 241.103 56.1866C255.571 65.2614 269.904 79.3241 282.553 96.8563C297.81 116.033 307.588 135.589 311.616 154.987C315.331 172.618 314.511 193.407 309.106 218.541C304.868 240.23 295.947 262.495 282.592 284.723C273.002 300.537 263.202 311.722 251.752 319.922C248.655 322.139 245.378 324.165 242.012 325.945C229.382 334.52 206.552 343.326 180.926 349.509C154.273 355.94 130.377 358.18 115.367 355.653C80.6022 357.015 73.6091 338.963 63.0257 311.635C58.8705 300.905 54.1606 288.745 47.0311 275.601C41.7871 265.651 36.9207 256.726 32.6251 248.853C10.7552 208.755 0.774485 190.455 5.82862 157.891C7.28495 146.287 13.605 136.408 24.6158 128.522ZM251.892 320.182C263.385 311.951 273.217 300.731 282.835 284.869C296.214 262.603 305.15 240.294 309.397 218.567C314.811 193.388 315.633 172.553 311.907 154.876C307.869 135.434 298.075 115.838 282.794 96.6338C270.13 79.0804 255.772 64.9944 241.278 55.9043C226.791 46.8178 212.822 43.1304 200.883 45.2422C187.96 47.0203 175.779 53.8086 161.201 62.4978C157.432 64.3565 153.496 66.3379 149.329 68.4367C135.485 75.4091 119.792 83.3112 102.404 90.6135C99.5341 91.7791 96.6847 92.9272 93.861 94.0646C73.0429 102.45 53.3777 110.371 37.2553 120.988C32.5348 123.124 28.2266 125.577 24.4761 128.263C13.3761 136.212 7.00376 146.179 5.53411 157.887C0.462312 190.556 10.4599 208.884 32.3641 249.041C36.6574 256.915 41.5251 265.837 46.7674 275.789C53.8887 288.92 58.5964 301.071 62.747 311.792C68.2101 325.896 72.5252 337.036 79.9578 344.787C87.9937 353.167 98.8957 356.618 115.309 355.971C130.328 358.503 154.261 356.262 180.951 349.821C206.613 343.629 229.482 334.806 242.129 326.22C245.492 324.443 248.783 322.409 251.892 320.182Z" fill="#4CAF4F"/>
<path d="M43.7173 123.248C60.3036 111.37 80.4443 102.066 103.146 91.9926C112.379 87.7562 121.07 83.6075 129.474 79.5952C141.25 73.973 152.373 68.6636 162.085 64.5412C175.602 57.1524 187.856 50.9347 201.08 49.6168C212.606 47.861 226.085 51.4957 240.065 60.1278C254.084 68.7821 268.02 82.1029 280.367 98.6493C295.912 117.025 305.956 135.725 310.224 154.234C314.267 171.36 313.73 191.636 308.583 216.218C304.409 238.693 295.142 261.521 281.037 284.076C272.08 298.266 262.549 308.872 251.902 316.497C247.802 319.432 243.393 322.027 238.796 324.208C213.904 340.486 149.24 357.165 117.195 351.933C83.4258 353.217 76.2213 335.922 65.3147 309.743C61.2076 299.88 56.5511 288.702 49.7687 276.657C44.7624 267.426 40.0942 259.106 35.9773 251.765C14.4753 213.433 4.66075 195.938 9.23253 164.552C10.5344 152.023 17.3735 141.25 29.5567 132.525C32.428 130.469 35.6135 128.527 39.024 126.752C40.5457 125.568 42.1161 124.395 43.7173 123.248ZM252.042 316.757C262.729 309.103 272.292 298.462 281.277 284.227C295.408 261.632 304.693 238.758 308.874 216.241C314.032 191.612 314.569 171.29 310.514 154.116C306.236 135.561 296.173 116.824 280.605 98.4219C268.244 81.8565 254.285 68.5143 240.24 59.8432C226.209 51.1802 212.669 47.5339 201.087 49.298C187.814 50.6211 175.53 56.8533 161.996 64.2518C152.292 68.37 141.166 73.6821 129.387 79.3044C120.982 83.3167 112.294 87.4639 103.065 91.6986C80.3486 101.779 60.1911 111.092 43.578 122.989C41.9733 124.138 40.3989 125.315 38.8994 126.485C35.501 128.249 32.3016 130.201 29.4174 132.266C17.141 141.058 10.2501 151.92 8.93629 164.554C6.72241 179.756 7.83567 192.124 12.6611 205.902C17.2784 219.089 25.011 232.877 35.7151 251.958C39.8327 259.298 44.4996 267.618 49.5074 276.848C56.2809 288.882 60.9344 300.052 65.0406 309.907C70.6698 323.418 75.1143 334.09 82.5144 341.517C90.517 349.549 101.194 352.859 117.136 352.252C131.672 354.627 154.665 352.545 180.194 346.533C204.649 340.777 226.597 332.535 238.904 324.488C243.498 322.309 247.925 319.705 252.042 316.757Z" fill="#4CAF4F"/>
<path d="M55.0092 120.332C70.5745 109.185 88.3892 100.123 103.762 92.7289C124.225 82.5541 145.632 72.1114 162.737 66.032C177.347 58.8061 188.851 54.1849 201.1 53.4546C223.956 50.6009 253.423 68.5824 278.011 100.38C293.863 117.988 304.188 135.858 308.707 153.5C313.099 170.135 312.87 189.907 308.009 213.953C303.99 236.896 294.142 260.938 279.529 283.486C271.08 296.407 262.118 306.164 252.133 313.315C247.012 316.983 241.638 319.984 235.706 322.49C223.761 329.979 202.799 337.595 179.605 342.876C155.296 348.411 133.302 350.301 119.263 348.06C86.4976 349.211 79.0483 332.648 67.771 307.577C63.7219 298.572 59.132 288.365 52.7075 277.403C47.9468 268.903 43.4878 261.193 39.5518 254.391C18.9994 218.847 8.68258 201.007 12.7293 170.765C13.8154 157.365 21.4551 145.227 34.8202 135.655C36.6745 134.328 38.6568 133.035 40.7167 131.812C45.0211 127.904 49.8197 124.049 55.0092 120.332ZM252.273 313.574C262.296 306.396 271.289 296.606 279.766 283.645C294.407 261.052 304.274 236.96 308.301 213.973C313.172 189.88 313.399 170.056 308.996 153.376C304.465 135.689 294.12 117.781 278.245 100.148C253.609 68.2882 224.053 50.2715 201.116 53.1347C187.497 53.9469 174.652 59.8053 162.664 65.7364C145.559 71.815 124.142 82.2614 103.672 92.4399C88.2875 99.8397 70.4576 108.91 54.8696 120.073C49.6701 123.796 44.8592 127.662 40.5738 131.558C38.5343 132.764 36.5434 134.061 34.6803 135.395C21.22 145.035 13.5272 157.268 12.4331 170.773C8.37382 201.116 18.7071 218.985 39.2941 254.586C43.2278 261.388 47.6857 269.098 52.447 277.599C58.8654 288.549 63.4528 298.749 67.5 307.747C73.3201 320.687 77.9163 330.908 85.298 338.031C93.2787 345.732 103.736 348.923 119.206 348.379C133.251 350.624 155.284 348.733 179.627 343.189C202.852 337.901 223.853 330.27 235.803 322.775C241.735 320.271 247.13 317.257 252.273 313.574Z" fill="#4CAF4F"/>
<path d="M66.6732 116.203C77.1378 108.709 89.4802 101.299 104.405 93.5534C128.772 80.4886 148.088 71.9935 163.461 67.5817C177.037 61.6011 188.642 57.5735 201.22 57.3342C223.298 55.2177 251.866 72.384 275.785 102.134C291.956 118.967 302.564 136.009 307.322 152.793C312.061 168.927 312.135 188.206 307.549 211.73C302.586 241.717 288.795 267.022 278.1 282.97C270.122 294.761 261.697 303.75 252.346 310.447C246.315 314.766 239.874 318.175 232.655 320.869C209.028 335.006 150.799 348.918 121.295 344.337C89.4879 345.367 81.7732 329.528 70.0969 305.552C66.1312 297.41 61.6366 288.181 55.5901 278.308C51.098 270.565 46.867 263.487 43.1334 257.243C22.8357 223.297 12.6476 206.257 16.1808 177.126C17.0326 162.512 25.4057 149.119 40.397 138.383C41.0476 137.917 41.7198 137.45 42.3946 136.995C49.3534 129.719 57.2859 122.926 66.6732 116.203ZM252.486 310.706C261.874 303.983 270.329 294.964 278.333 283.132C289.05 267.152 302.867 241.796 307.84 211.747C312.437 188.174 312.362 168.845 307.607 152.661C302.839 135.833 292.208 118.752 276.015 101.897C252.051 72.0911 223.398 54.8898 201.246 57.014C188.631 57.2538 176.993 61.2913 163.403 67.2792C148.028 71.6907 128.691 80.1944 104.307 93.2683C89.3692 101.022 77.0124 108.439 66.5335 115.943C57.1268 122.68 49.1782 129.488 42.2321 136.755C41.586 137.186 40.9108 137.655 40.2572 138.123C25.1698 148.928 16.7414 162.42 15.8852 177.14C12.3392 206.37 22.5439 223.438 42.8755 257.443C46.608 263.686 50.8396 270.761 55.3339 278.505C61.3739 288.371 65.8657 297.594 69.8286 305.731C81.5483 329.795 89.2923 345.692 121.237 344.656C150.769 349.244 209.1 335.308 232.745 321.159C239.962 318.466 246.43 315.044 252.486 310.706Z" fill="#4CAF4F"/>
<path d="M77.9346 111.758C86.1402 105.882 95.0329 100.288 105.116 94.6612C128.026 81.4715 147.934 72.9592 164.291 69.3604C175.486 65.0538 187.721 61.1149 201.465 61.4042C222.777 59.9958 250.437 76.2982 273.662 103.95C290.383 120.194 300.958 135.929 306.001 152.066C311.079 167.676 311.436 186.442 307.097 209.439C303.294 233.606 292.464 259.502 276.602 282.362C269.053 293.152 261.124 301.447 252.362 307.722C245.477 312.653 237.996 316.403 229.489 319.188C206.52 332.235 151.873 344.955 123.161 340.67C92.2756 341.617 84.2824 326.517 72.1827 303.658C68.3396 296.398 63.9829 288.167 58.3522 279.406C54.159 272.459 50.1865 266.053 46.679 260.401C26.6165 228.07 16.547 211.841 19.5954 183.812C20.2876 164.603 33.2906 150.748 44.076 142.505L44.1066 142.476C53.3029 131.522 64.3686 121.473 77.9346 111.758ZM252.501 307.981C261.299 301.681 269.257 293.357 276.832 282.531C292.726 259.622 303.579 233.67 307.39 209.454C311.74 186.404 311.379 167.586 306.286 151.925C301.228 135.746 290.63 119.972 273.887 103.708C250.621 76.0068 222.882 59.671 201.501 61.0832C187.72 60.7935 175.452 64.7422 164.249 69.0533C147.883 72.6526 127.944 81.1759 105.009 94.3811C94.9154 100.014 86.0138 105.613 77.7953 111.499C64.2095 121.228 53.1259 131.292 43.9113 142.265C33.063 150.559 19.9952 164.5 19.2973 183.832C16.2391 211.959 26.3266 228.216 46.423 260.604C49.9291 266.255 53.904 272.659 58.0959 279.609C63.7249 288.365 68.0774 296.588 71.9178 303.846C84.0631 326.786 92.0851 341.943 123.104 340.99C151.843 345.279 206.587 332.537 229.568 319.481C238.075 316.699 245.588 312.932 252.501 307.981Z" fill="#4CAF4F"/>
<path d="M87.8718 107.056C93.4771 103.042 99.4913 99.1132 105.748 95.3766C127.71 81.8657 148.194 73.3742 164.988 70.8169C179.298 66.1619 190.226 64.4856 201.553 65.2057C211.664 64.8771 223.436 68.418 235.61 75.4471C247.857 82.5186 260.235 92.9662 271.407 105.661C288.473 121.117 299.327 136.053 304.598 151.338C310.032 166.44 310.698 184.715 306.635 207.207C302.934 232.166 291.768 258.669 275.194 281.842C268.058 291.74 260.601 299.408 252.397 305.283C244.726 310.777 236.247 314.79 226.475 317.554C203.948 329.604 152.835 340.888 125.249 336.896C95.2603 337.707 86.9378 323.305 74.3403 301.503C70.6512 295.12 66.4709 287.884 61.2824 280.224C57.4175 274.093 53.8826 268.623 50.465 263.336C30.5463 232.514 20.5479 217.043 23.0718 190.055C23.3094 170.949 35.5424 156.406 45.7611 147.569L45.7904 147.538C56.671 132.881 70.829 119.261 87.8718 107.056ZM252.536 305.543C260.774 299.644 268.259 291.947 275.42 282.015C292.03 258.793 303.219 232.23 306.929 207.219C311.002 184.672 310.332 166.342 304.88 151.189C299.593 135.862 288.716 120.888 271.627 105.413C260.447 92.709 248.047 82.2439 235.778 75.1602C223.565 68.1075 211.746 64.5551 201.599 64.8855C190.247 64.1629 179.287 65.8432 164.964 70.5048C148.152 73.0626 127.627 81.5701 105.631 95.1019C99.3687 98.842 93.3457 102.777 87.7324 106.797C70.6653 119.019 56.4833 132.661 45.5793 147.344C35.3044 156.233 23.0136 170.86 22.7754 190.081C20.2415 217.166 30.2577 232.665 50.2121 263.543C53.6301 268.83 57.1637 274.298 61.0309 280.432C66.2165 288.088 70.3944 295.32 74.081 301.701C86.7228 323.578 95.0751 338.032 125.192 337.215C137.792 339.041 156.987 337.681 177.829 333.485C197.403 329.544 215.614 323.7 226.545 317.85C236.321 315.09 244.833 311.06 252.536 305.543Z" fill="#4CAF4F"/>
<path d="M96.0448 103.315C99.3662 100.937 102.825 98.601 106.324 96.3708C127.888 82.2451 148.399 73.9995 165.645 72.5224C178.943 69.0157 190.026 68.0021 201.605 69.2322C221.688 69.2862 246.912 83.5955 269.093 107.512C286.503 122.146 297.625 136.265 303.105 150.689C308.89 165.262 309.852 183.032 306.049 205.014C302.438 230.751 290.92 257.853 273.618 281.335C266.857 290.441 259.829 297.546 252.134 303.057C243.729 309.076 234.288 313.293 223.27 315.947C201.668 326.739 153.088 336.821 127.135 333.219C97.9907 333.914 89.302 320.211 76.1549 299.467C72.6779 293.983 68.7384 287.766 64.0436 281.231C60.5539 275.958 57.3312 271.196 54.2144 266.59C35.0064 238.197 24.4253 222.557 26.4388 196.583C26.2323 177.602 37.7021 162.367 47.3613 152.927C59.6636 134.327 76.0342 117.646 96.0448 103.315ZM252.274 303.318C260 297.784 267.056 290.651 273.84 281.512C291.181 257.979 302.723 230.816 306.342 205.024C310.156 182.984 309.188 165.157 303.383 150.532C297.888 136.067 286.741 121.911 269.306 107.259C247.091 83.3043 221.799 68.9646 201.661 68.9119C190.061 67.6784 178.947 68.6951 165.638 72.2062C148.368 73.6828 127.806 81.9472 106.2 96.1011C102.695 98.3342 99.23 100.675 95.9052 103.056C75.8574 117.413 59.4554 134.126 47.1517 152.735C37.4665 162.196 25.9329 177.521 26.1408 196.617C24.12 222.685 34.7206 238.355 53.9647 266.802C57.081 271.407 60.3026 276.169 63.7972 281.445C68.4889 287.976 72.4262 294.19 75.9006 299.673C89.0948 320.487 97.8116 334.238 127.078 333.538C139.372 335.246 157.148 334.093 177.111 330.289C195.456 326.793 212.734 321.543 223.329 316.247C234.354 313.596 243.833 309.363 252.274 303.318Z" fill="#4CAF4F"/>
<path d="M102.787 100.297C104.209 99.2782 105.664 98.2649 107.11 97.2847C128.376 82.5003 148.901 74.5056 166.468 74.1664C178.71 71.729 189.928 71.4237 201.798 73.2014C221.107 73.9884 245.43 87.4798 266.874 109.293C284.879 123.283 295.938 136.199 301.69 149.95C307.825 163.98 309.084 181.233 305.542 202.699C302.079 228.816 289.908 257.227 272.151 280.655C265.742 289.05 259.113 295.646 251.887 300.821C242.676 307.418 232.612 311.65 220.213 314.141C199.427 323.734 154.234 332.637 129.238 329.32C100.885 329.894 91.7804 316.871 77.9986 297.159C74.8077 292.596 71.1921 287.425 67.0625 282.039C64.003 277.67 61.1482 273.661 58.386 269.785C39.1707 242.813 28.5851 227.957 30.078 202.955C29.4275 184.125 40.1266 168.203 49.2157 158.158C62.3299 136.006 80.8486 116.007 102.787 100.297ZM252.027 301.081C259.283 295.884 265.938 289.263 272.371 280.836C290.168 257.357 302.365 228.878 305.835 202.703C309.388 181.179 308.122 163.867 301.964 149.784C296.195 135.991 285.111 123.041 267.082 109.035C245.608 87.1899 221.223 73.6704 201.864 72.8825C189.978 71.1005 178.73 71.4073 166.481 73.8485C148.879 74.187 128.293 82.2006 106.977 97.0207C105.53 98.0016 104.073 99.0172 102.648 100.038C80.6662 115.779 62.1135 135.816 48.9951 157.983C39.8797 168.049 29.1252 184.06 29.7794 202.996C28.2818 228.092 38.8866 242.978 58.1399 270.001C60.9014 273.877 63.7574 277.885 66.8176 282.258C70.9475 287.645 74.5622 292.814 77.7508 297.373C84.8749 307.563 90.5009 315.611 98.0457 321.242C106.192 327.321 115.794 329.913 129.181 329.641C140.974 331.205 157.811 330.226 176.573 326.88C193.674 323.829 210.006 319.18 220.261 314.446C232.671 311.956 242.776 307.706 252.027 301.081Z" fill="#4CAF4F"/>
<path d="M109.379 96.7822C129.815 82.1468 149.768 74.8423 167.08 75.6604C178.529 74.1642 189.231 74.5913 201.805 77.0456C220.376 78.5811 243.824 91.2904 264.543 111.045C282.931 124.212 294.26 136.355 300.209 149.267C306.617 162.582 308.228 179.822 304.999 200.516C301.645 227.42 289.132 256.458 270.666 280.189C264.581 287.959 258.315 294.102 251.514 298.973C241.651 306.036 230.721 310.354 217.117 312.56C196.437 321.244 155.336 328.661 131.234 325.604C103.551 326.034 94.4471 314.295 79.363 294.847C76.4203 291.055 73.3791 287.134 69.9017 282.917C67.3466 279.49 64.9253 276.287 62.5863 273.188C43.1995 247.531 32.5213 233.397 33.4697 209.26C32.3674 190.567 42.2938 173.935 50.8145 163.271C64.5341 137.457 84.1816 114.909 107.651 98.036C108.23 97.6114 108.804 97.1942 109.379 96.7822ZM251.655 299.234C258.485 294.342 264.775 288.173 270.882 280.375C289.391 256.59 301.933 227.483 305.293 200.519C308.532 179.765 306.913 162.461 300.478 149.091C294.511 136.138 283.156 123.964 264.744 110.781C244 91 220.495 78.2658 201.883 76.7276C189.294 74.2694 178.565 73.8412 167.11 75.3402C149.756 74.5185 129.736 81.8433 109.239 96.522C108.663 96.9347 108.088 97.3526 107.509 97.7783C83.9943 114.684 64.3081 137.276 50.5805 163.113C42.0369 173.8 32.0635 190.516 33.1723 209.307C32.2194 233.539 42.9204 247.701 62.3435 273.411C64.685 276.509 67.1041 279.712 69.6626 283.143C73.1425 287.361 76.1816 291.282 79.1228 295.072C86.6596 304.789 92.6125 312.464 100.296 317.837C108.581 323.633 118.104 326.127 131.179 325.924C142.48 327.359 158.393 326.563 175.967 323.682C191.83 321.082 207.229 317.039 217.156 312.867C230.774 310.664 241.748 306.328 251.655 299.234Z" fill="#4CAF4F"/>
<path d="M112.781 95.5516C132.107 81.7111 151.129 75.3841 167.789 77.2544C178.171 76.634 188.693 77.7754 201.931 80.9564C219.801 83.225 242.379 95.1237 262.34 112.788C281.383 125.266 292.638 136.282 298.849 148.522C305.612 161.301 307.526 178.031 304.541 198.252C301.276 225.942 288.389 255.613 269.181 279.662C263.387 286.873 257.447 292.614 251.026 297.213C240.53 304.729 228.753 309.097 213.962 310.959C194.209 318.374 156.169 324.707 133.109 321.953C105.926 322.26 96.2156 311.057 80.1254 292.498C77.7527 289.764 75.2999 286.932 72.6176 283.94C70.6733 281.519 68.7933 279.197 66.9854 276.963C47.2433 252.577 36.3696 239.145 36.7751 215.773C35.2379 197.241 44.4076 179.886 52.3688 168.588C65.7813 140.623 85.0926 116.552 108.234 98.9448C109.741 97.7741 111.271 96.6328 112.781 95.5516ZM251.165 297.473C257.615 292.854 263.578 287.09 269.395 279.85C288.647 255.746 301.565 226.006 304.836 198.253C307.832 177.969 305.906 161.172 299.115 148.338C292.883 136.058 281.601 125.011 262.534 112.518C242.551 94.8335 219.924 82.9121 202.02 80.6406C188.77 77.455 178.224 76.3119 167.838 76.9349C151.128 75.0568 132.034 81.4046 112.641 95.2924C111.128 96.3765 109.594 97.5202 108.083 98.6938C84.8974 116.334 65.5459 140.455 52.1254 168.446C44.1422 179.768 34.9331 197.205 36.4777 215.83C36.0683 239.296 46.966 252.757 66.7482 277.193C68.5564 279.427 70.4358 281.748 72.3849 284.174C75.0706 287.17 77.5232 289.999 79.8942 292.735C87.9484 302.023 94.3069 309.36 102.198 314.491C110.699 320.018 120.215 322.419 133.054 322.273C156.134 325.03 194.238 318.688 213.989 311.27C228.799 309.409 240.623 305.022 251.165 297.473Z" fill="#4CAF4F"/>
<path d="M115.557 94.7729C134.047 81.5313 152.36 76.0453 168.517 78.909C179.471 79.0748 189.839 81.4384 202.042 84.9383C219.496 88.0009 240.642 98.8124 260.073 114.603C273.167 122.411 289.229 133.236 297.398 147.838C304.515 160.068 306.736 176.277 304 196.016C300.884 224.055 287.303 255.111 267.669 279.094C262.151 285.799 256.518 291.17 250.45 295.516C239.209 303.566 226.993 307.813 210.839 309.281C191.693 315.534 156.711 320.602 135.105 318.186C108.196 318.351 97.6915 307.583 80.2868 289.741C78.7471 288.165 77.1572 286.534 75.4996 284.853C74.3198 283.507 73.1607 282.19 72.0302 280.901C52.3267 258.479 40.435 244.944 40.2613 222.21C38.2913 203.864 46.6874 185.795 54.0781 173.864C66.9303 144.224 86.3955 117.958 108.898 99.8788C111.101 98.0771 113.342 96.3593 115.557 94.7729ZM250.59 295.775C256.684 291.411 262.341 286.018 267.881 279.287C277.085 268.042 285.233 254.865 291.444 241.176C298.327 226.008 302.652 210.814 304.296 196.015C307.041 176.206 304.808 159.93 297.659 147.644C289.461 132.99 273.365 122.141 260.258 114.326C240.811 98.5209 219.624 87.6917 202.143 84.6241C189.932 81.1218 179.545 78.7539 168.584 78.5904C152.371 75.7151 133.979 81.2205 115.417 94.5132C113.196 96.1039 110.95 97.8268 108.741 99.6325C97.5203 108.647 87.1141 119.559 77.8133 132.067C68.3883 144.739 60.3178 158.759 53.8237 173.738C46.4152 185.694 37.9843 203.845 39.9645 222.273C40.1373 245.105 52.0548 258.668 71.7991 281.139C72.9323 282.425 74.0892 283.743 75.2732 285.095C76.9375 286.781 78.5268 288.412 80.065 289.988C97.5147 307.876 108.048 318.674 135.049 318.507C156.677 320.924 191.712 315.85 210.855 309.594C227.033 308.125 239.298 303.862 250.59 295.775Z" fill="#4CAF4F"/>
<path d="M117.992 94.2348C135.843 81.4514 153.61 76.7067 169.372 80.5138C180.377 81.544 191.016 85.0968 202.279 88.8587C219.137 92.706 239.415 102.721 257.924 116.338C272.126 123.985 287.751 133.609 296.059 147.061C303.528 158.73 306.054 174.414 303.563 193.675C300.544 222.466 286.594 254.14 266.248 278.408C260.985 284.654 255.635 289.689 249.89 293.804C238.069 302.269 225.09 306.491 207.806 307.49C189.371 312.531 157.935 316.463 137.189 314.322C110.107 314.334 98.4649 303.789 79.1757 286.317L78.4758 285.684L77.9423 285.135C57.1844 263.787 44.6538 250.902 43.8575 228.583C41.4622 210.449 49.0854 191.66 55.9016 179.087C68.3602 147.398 87.4594 119.592 109.69 100.77C112.431 98.4159 115.224 96.2176 117.992 94.2348ZM250.03 294.064C255.8 289.931 261.173 284.874 266.456 278.604C286.85 254.279 300.833 222.528 303.859 193.67C306.357 174.335 303.82 158.585 296.314 146.856C287.975 133.354 272.317 123.71 258.1 116.055C239.58 102.428 219.269 92.3993 202.39 88.5473C191.125 84.7844 180.473 81.2269 169.457 80.1967C153.631 76.3726 135.781 81.1364 117.853 93.9753C115.076 95.9641 112.274 98.1694 109.526 100.531C87.2481 119.391 68.111 147.252 55.6396 178.978C48.8073 191.577 41.1549 210.444 43.5601 228.656C44.3601 251.074 56.9178 263.988 77.7215 285.381L78.2605 285.935L78.9666 286.574C98.2994 304.086 109.968 314.655 137.133 314.642C157.899 316.784 189.379 312.849 207.811 307.805C225.123 306.807 238.155 302.568 250.03 294.064Z" fill="#4CAF4F"/>
<path d="M119.789 93.8512C137.127 81.4345 154.457 77.3717 169.905 82.1005C178.775 83.6715 187.523 87.0811 196.784 90.6896C198.552 91.379 200.352 92.0799 202.191 92.7846C218.659 97.5076 238.072 106.743 255.459 118.126C269.969 125.13 285.93 133.956 294.413 146.373C302.239 157.488 305.075 172.653 302.838 191.448C299.931 221 285.631 253.298 264.585 277.846C259.565 283.675 254.479 288.405 249.036 292.303C236.656 301.169 222.937 305.331 204.554 305.799C187.013 309.563 158.902 312.391 139.063 310.517C113.14 310.344 99.9244 301.336 81.2374 286.524C61.0852 268.276 48.6563 256.018 47.2141 234.919C44.3941 217.003 51.2322 197.484 57.4645 184.262C69.4867 150.533 88.2033 121.19 110.177 101.616C113.342 98.7643 116.576 96.1521 119.789 93.8512ZM249.175 292.563C254.643 288.647 259.75 283.899 264.791 278.047C285.886 253.437 300.219 221.063 303.133 191.441C305.379 172.568 302.529 157.332 294.661 146.159C286.146 133.695 270.15 124.849 255.626 117.837C238.232 106.449 218.796 97.2028 202.314 92.4767C200.486 91.7764 198.686 91.0751 196.919 90.3859C187.645 86.7723 178.887 83.36 170.008 81.7866C162.555 79.5047 154.543 79.2783 146.21 81.1187C137.438 83.0561 128.502 87.2527 119.65 93.5922C116.426 95.9009 113.182 98.5217 110.006 101.382C87.9858 120.996 69.2314 150.396 57.1948 184.167C50.9484 197.418 44.0873 217.012 46.9179 235C48.366 256.198 60.8259 268.488 81.0338 286.786C99.7666 301.638 113.014 310.664 139.009 310.837C158.863 312.714 187.011 309.883 204.546 306.116C222.966 305.65 236.739 301.469 249.175 292.563Z" fill="#4CAF4F"/>
<path d="M121.643 93.7322C138.591 81.5949 155.588 78.1461 170.793 83.7602C178.174 85.7116 185.441 89.039 193.135 92.5618C196.142 93.9384 199.252 95.3622 202.483 96.7581C214.514 100.971 233.107 108.406 253.411 119.922C268.993 126.579 284.589 134.3 293.201 145.666C301.389 156.214 304.526 170.864 302.526 189.205C299.711 219.529 285.026 252.469 263.241 277.322C258.507 282.702 253.52 287.283 248.418 290.936C235.476 300.205 221.019 304.296 201.544 304.205C186.313 306.496 161.367 308.567 141.113 306.866C116.836 306.525 102.359 299.819 84.1308 287.562C63.5123 271.699 52.6801 260.214 50.7045 241.469C47.4795 223.788 53.545 203.521 59.2023 189.631C70.8005 153.861 89.1738 122.955 110.944 102.593C114.46 99.2793 118.059 96.2985 121.643 93.7322ZM248.558 291.196C253.682 287.526 258.69 282.926 263.443 277.524C273.549 265.995 282.49 252.129 289.3 237.425C296.701 221.442 301.377 204.763 302.822 189.196C304.832 170.771 301.676 156.05 293.442 145.441C284.796 134.032 269.168 126.292 253.566 119.628C233.258 108.108 214.65 100.668 202.618 96.4547C199.398 95.0628 196.289 93.6395 193.283 92.264C185.579 88.7366 178.303 85.4048 170.913 83.451C163.576 80.7422 155.705 80.1465 147.528 81.6863C138.916 83.308 130.16 87.2732 121.503 93.4727C117.906 96.0486 114.295 99.0403 110.768 102.364C88.9499 122.77 70.5403 153.734 58.9268 189.552C53.2572 203.474 47.172 223.812 50.4112 241.56C51.389 250.86 54.6814 258.797 60.7689 266.528C66.8853 274.292 75.5204 281.357 83.9417 287.836C102.216 300.124 116.727 306.844 141.059 307.186C161.325 308.888 186.298 306.816 201.522 304.522C221.043 304.618 235.556 300.507 248.558 291.196Z" fill="#4CAF4F"/>
<path d="M123.11 93.5869C139.716 81.6942 156.419 78.8372 171.414 85.3252C177.682 87.5651 183.861 90.8835 190.403 94.3961C194.26 96.4667 198.249 98.6093 202.477 100.65C205.433 101.896 208.526 103.181 211.737 104.516C223.684 109.483 237.225 115.112 251.02 121.661C269.421 128.537 283.361 135.121 291.614 144.914C300.159 154.891 303.604 169.017 301.85 186.898C299.187 217.511 283.773 251.904 261.623 276.658C257.1 281.695 252.349 286.01 247.501 289.481C233.845 299.261 219.143 303.128 198.342 302.414C191.212 302.975 166.202 304.671 143.043 302.975C121.321 302.465 105.074 298.222 86.9564 288.332C71.6433 278.835 57.0655 267.344 54.1429 247.752C51.272 233.961 53.5923 215.643 60.8521 194.77C71.9788 157 89.9744 124.561 111.524 103.423C115.321 99.6829 119.219 96.3733 123.11 93.5869ZM247.641 289.741C252.51 286.254 257.281 281.921 261.822 276.863C272.219 265.244 281.415 251.156 288.418 236.118C296.017 219.8 300.764 202.775 302.146 186.885C303.908 168.917 300.443 154.717 291.846 144.68C283.56 134.846 269.589 128.246 251.162 121.36C237.37 114.812 223.827 109.182 211.877 104.215C208.667 102.88 205.574 101.594 202.624 100.352C198.407 98.3152 194.42 96.1747 190.565 94.105C184.014 90.5881 177.827 87.2659 171.549 85.0221C164.314 81.8908 156.565 80.9366 148.522 82.1874C140.049 83.5047 131.453 87.2528 122.97 93.3275C119.064 96.1249 115.151 99.4469 111.34 103.201C89.745 124.383 71.7143 156.881 60.5724 194.704C53.2943 215.631 50.9673 234.014 53.8498 247.854C55.1335 256.459 58.6173 263.965 64.5019 270.787C69.5742 276.67 76.6551 282.337 86.7873 288.619C104.949 298.533 121.229 302.785 142.99 303.297C166.158 304.993 191.187 303.294 198.306 302.733C219.162 303.451 233.922 299.566 247.641 289.741Z" fill="#4CAF4F"/>
<path d="M124.468 93.5205C140.572 81.9876 157.493 79.6269 172.114 86.8731C177.522 89.3383 182.865 92.6745 188.523 96.2071C192.987 98.9933 197.603 101.876 202.582 104.54C214.889 110.692 229.713 116.253 245.407 122.141L248.788 123.41C264.661 128.51 280.931 134.316 290.224 144.191C299.136 153.6 302.89 167.216 301.378 184.661C298.824 216.046 283.031 251.103 260.163 276.151C255.835 280.879 251.3 284.951 246.685 288.256C228.831 301.042 210.657 301.777 195.235 300.809C185.629 300.797 166.344 300.583 145.011 299.277C127.438 298.668 108.586 297.037 89.7626 289.284C70.8575 280.693 60.6158 269.539 57.535 254.182C54.3067 240.403 55.9658 222.176 62.4647 200.005C73.1182 160.21 90.7531 126.208 112.12 104.26C116.156 100.111 120.31 96.4979 124.468 93.5205ZM246.825 288.516C251.46 285.196 256.015 281.106 260.361 276.359C283.283 251.25 299.114 216.108 301.675 184.644C303.195 167.11 299.417 153.416 290.449 143.947C281.115 134.03 264.813 128.212 248.915 123.103L245.539 121.836C229.851 115.951 215.034 110.392 202.741 104.246C197.771 101.588 193.159 98.7081 188.699 95.9232C183.034 92.3873 177.683 89.0465 172.265 86.5766C165.107 83.0291 157.451 81.7255 149.511 82.7023C141.145 83.7328 132.672 87.2846 124.328 93.2603C120.154 96.2498 115.982 99.8781 111.931 104.043C90.5195 126.038 72.8498 160.1 62.1794 199.953C55.665 222.18 54.0034 240.466 57.2426 254.296C60.3427 269.74 70.6303 280.955 89.6198 289.584C108.484 297.354 127.363 298.99 144.956 299.598C166.293 300.903 185.584 301.117 195.183 301.13C210.65 302.102 228.887 301.362 246.825 288.516Z" fill="#4CAF4F"/>
<path d="M103.127 93.3849C119.004 82.0151 135.725 80.2076 150.211 88.2952C154.919 90.9347 159.587 94.2934 164.529 97.8483C169.436 101.379 174.51 105.03 180.076 108.304C190.875 114.656 203.992 119.66 223.934 125.034C240.848 129.605 256.807 134.445 266.2 143.342C275.478 152.179 279.54 165.282 278.273 182.291C275.831 214.444 259.666 250.155 236.088 275.489C231.947 279.93 227.618 283.777 223.221 286.926C204.696 300.192 185.685 300.493 169.532 299.036C166.903 298.797 164.211 298.542 161.451 298.279C150.453 297.238 137.988 296.055 124.4 295.403C121.182 295.249 117.854 295.124 114.634 295.002C99.5965 294.435 84.0482 293.849 70.0039 290.063C53.4486 285.593 42.2143 275.075 38.3713 260.445C34.8383 246.889 35.8954 228.263 41.5137 205.084C51.6799 163.281 68.9451 127.723 90.1316 104.958C94.3674 100.42 98.7401 96.5267 103.127 93.3849ZM223.361 287.186C227.777 284.024 232.125 280.159 236.284 275.701C259.918 250.304 276.122 214.505 278.57 182.271C279.845 165.167 275.755 151.985 266.414 143.089C256.98 134.154 240.988 129.301 224.043 124.722C204.124 119.353 191.025 114.358 180.246 108.017C174.69 104.748 169.62 101.101 164.718 97.5739C159.77 94.0143 155.097 90.6523 150.375 88.0061C143.283 84.0465 135.706 82.4006 127.853 83.1139C119.579 83.8675 111.213 87.2349 102.988 93.1252C98.5805 96.2812 94.1895 100.192 89.9362 104.747C79.3869 116.083 69.7723 130.638 61.3583 148.01C53.0121 165.243 46.2396 184.432 41.2257 205.046C35.5942 228.28 34.537 246.962 38.0827 260.571C41.9508 275.296 53.2489 285.882 69.8953 290.376C83.966 294.168 99.5308 294.756 114.582 295.324C117.801 295.444 121.128 295.57 124.344 295.726C137.928 296.375 150.389 297.557 161.385 298.599C164.142 298.862 166.837 299.116 169.466 299.357C185.674 300.818 204.75 300.514 223.361 287.186Z" fill="#4CAF4F"/>
<path d="M127.801 96.5622C143.608 85.2424 159.95 83.2412 173.817 90.9281C178.73 93.6478 183.509 97.1092 188.567 100.774C193.07 104.035 197.726 107.409 202.828 110.509C205.224 111.954 207.825 113.374 210.559 114.732C219.626 119.236 230.275 123.147 245.09 127.415C261.326 132.123 276.648 137.079 285.697 145.896C294.624 154.634 298.545 167.426 297.354 183.917C295.991 202.927 289.729 222.722 279.248 241.163C272.616 253.046 264.306 264.326 255.215 273.788C251.23 277.984 247.066 281.648 242.839 284.675C231.48 292.809 219.121 296.926 203.945 297.63C199.784 297.81 195.345 297.736 190.378 297.403C186.47 297.17 182.468 296.898 178.231 296.613C168.733 295.974 157.97 295.247 146.489 294.831C144.612 294.769 142.721 294.713 140.82 294.657C127.889 294.274 114.516 293.879 102.013 291.458C99.0429 290.885 96.1914 290.211 93.5388 289.454C77.5722 284.933 66.683 274.578 62.8764 260.299C59.3383 246.966 60.2386 228.822 65.5489 206.372C69.0093 191.286 74.0693 176.262 80.5878 161.717C85.082 151.558 90.2469 141.799 95.9383 132.713C101.659 123.596 107.659 115.777 114.821 108.106C119.035 103.597 123.403 99.7123 127.801 96.5622ZM242.978 284.934C247.224 281.893 251.407 278.216 255.407 274.001C264.52 264.519 272.85 253.209 279.497 241.299C290.006 222.81 296.284 202.96 297.651 183.897C298.85 167.313 294.901 154.443 285.913 145.645C276.824 136.788 261.471 131.821 245.203 127.104C230.403 122.84 219.766 118.933 210.714 114.438C207.986 113.082 205.391 111.665 203 110.225C197.907 107.128 193.256 103.758 188.757 100.5C183.692 96.8301 178.908 93.3654 173.981 90.6383C160.019 82.8991 143.569 84.9105 127.662 96.3024C123.243 99.4668 118.858 103.367 114.627 107.894C107.447 115.584 101.432 123.423 95.6983 132.56C89.9968 141.663 84.824 151.437 80.3219 161.613C73.7943 176.18 68.7258 191.228 65.2593 206.337C59.936 228.842 59.0376 247.041 62.5886 260.427C66.4212 274.799 77.372 285.22 93.4257 289.766C96.0857 290.524 98.9439 291.2 101.92 291.774C114.444 294.2 127.826 294.595 140.77 294.978C142.671 295.034 144.562 295.089 146.439 295.152C157.915 295.569 168.212 296.263 178.172 296.933C182.409 297.22 186.411 297.491 190.319 297.724C195.297 298.057 199.743 298.131 203.914 297.95C219.153 297.244 231.565 293.108 242.978 284.934Z" fill="#4CAF4F"/>
<path d="M130.012 99.5052C145.72 88.2556 161.66 86.0678 174.894 93.345C180.024 96.1469 184.906 99.7136 190.076 103.49C194.166 106.477 198.394 109.566 203.02 112.475C205.32 113.897 207.824 115.309 210.465 116.672C219.221 121.193 229.455 125.16 243.644 129.532C259.185 134.369 273.854 139.432 282.55 148.162C291.116 156.794 294.894 169.26 293.776 185.216C292.509 204.004 286.229 223.175 275.619 240.659C269.045 251.886 261.005 262.317 251.719 271.663C247.899 275.61 243.91 279.08 239.862 281.979C228.755 289.934 216.664 294.142 201.809 295.227C197.761 295.499 193.462 295.533 188.663 295.33C183.056 295.177 177.191 294.939 170.982 294.687C163.083 294.366 154.917 294.034 146.061 293.823L145.118 293.806C130.996 293.568 116.394 293.319 102.802 290.485C99.941 289.892 97.1833 289.198 94.611 288.422C79.2499 283.855 68.7165 273.679 64.9525 259.766C61.4137 246.67 62.1549 229.028 67.1531 207.331C70.3125 192.688 75.2987 178.305 82.3948 163.358C86.9009 153.634 92.0226 144.367 98.0501 135.026C103.529 126.564 109.208 119.386 117.04 111.025C121.232 106.542 125.597 102.667 130.012 99.5052ZM240.002 282.239C244.068 279.328 248.073 275.842 251.908 271.881C261.215 262.514 269.275 252.056 275.862 240.803C286.504 223.271 292.803 204.041 294.074 185.194C295.197 169.147 291.394 156.604 282.769 147.913C274.035 139.146 259.334 134.07 243.762 129.223C229.587 124.855 219.366 120.894 210.623 116.379C207.988 115.019 205.489 113.61 203.195 112.191C198.577 109.287 194.352 106.201 190.266 103.217C185.091 99.4356 180.201 95.8641 175.058 93.0549C168.55 89.4766 161.35 88.168 153.655 89.1661C145.788 90.1864 137.786 93.578 129.872 99.2457C125.438 102.421 121.055 106.314 116.845 110.814C108.997 119.193 103.305 126.387 97.8137 134.87C91.7758 144.226 86.6459 153.509 82.132 163.247C75.0234 178.219 70.0287 192.63 66.8639 207.298C61.8524 229.05 61.1117 246.746 64.665 259.894C68.4538 273.899 79.0474 284.141 94.4949 288.732C97.0751 289.511 99.8374 290.205 102.707 290.8C116.321 293.639 130.937 293.887 145.073 294.127L146.013 294.144C154.865 294.355 163.032 294.688 170.929 295.008C177.139 295.26 183.005 295.498 188.613 295.651C193.418 295.854 197.727 295.82 201.786 295.547C216.7 294.459 228.843 290.231 240.002 282.239Z" fill="#4CAF4F"/>
<path d="M132.262 102.418C147.662 91.3889 163.628 88.9492 176.067 95.7241C181.439 98.6154 186.431 102.299 191.716 106.198C195.394 108.912 199.196 111.717 203.349 114.417C205.559 115.82 207.971 117.225 210.517 118.592C218.977 123.134 228.809 127.157 242.397 131.635C257.267 136.599 271.306 141.77 279.662 150.421C287.881 158.956 291.516 171.113 290.467 186.552C289.287 205.144 282.973 223.72 272.208 240.275C265.791 250.691 257.78 260.594 248.395 269.714C244.739 273.414 240.923 276.693 237.053 279.464C226.173 287.256 214.321 291.572 199.752 293.05C195.808 293.415 191.64 293.559 187.007 293.489C178.926 293.548 170.211 293.413 160.986 293.271C156.05 293.193 150.946 293.114 145.619 293.06C131.754 293.062 117.082 292.811 103.507 289.769C100.741 289.155 98.0755 288.442 95.5822 287.648C80.8027 283.036 70.6111 273.026 66.887 259.463C63.345 246.586 63.9345 229.422 68.637 208.447C71.543 194.099 76.4613 180.324 84.1188 165.093C88.5601 155.958 93.7915 146.897 100.116 137.388C106.06 128.489 111.633 122.057 119.25 113.952C123.436 109.484 127.813 105.604 132.262 102.418ZM237.193 279.724C241.079 276.941 244.911 273.647 248.58 269.934C257.984 260.795 266.015 250.867 272.448 240.429C283.246 223.823 289.581 205.183 290.765 186.529C291.82 171.001 288.159 158.769 279.884 150.176C271.49 141.484 257.42 136.3 242.521 131.327C228.946 126.853 219.126 122.836 210.68 118.301C208.138 116.936 205.732 115.534 203.527 114.136C199.382 111.439 195.582 108.636 191.908 105.926C186.615 102.02 181.616 98.3322 176.23 95.4331C163.698 88.6072 147.621 91.0581 132.122 102.158C127.654 105.357 123.258 109.255 119.055 113.741C111.425 121.86 105.841 128.306 99.8816 137.227C93.5478 146.751 88.3068 155.827 83.8608 164.975C76.1879 180.235 71.2588 194.04 68.3472 208.419C63.631 229.446 63.0438 246.664 66.6 259.592C70.3504 273.246 80.5996 283.32 95.4631 287.958C97.9612 288.753 100.635 289.468 103.407 290.084C117.009 293.131 131.697 293.383 145.576 293.38C150.9 293.435 156.004 293.514 160.94 293.59C170.167 293.734 178.883 293.868 186.964 293.808C191.604 293.879 195.783 293.734 199.736 293.37C214.362 291.887 226.264 287.551 237.193 279.724Z" fill="#4CAF4F"/>
<path d="M134.403 105.108C149.677 94.1701 165.22 91.5681 177.049 97.9707C182.68 100.968 187.776 104.786 193.172 108.827C196.434 111.269 199.807 113.795 203.48 116.279C205.597 117.664 207.914 119.065 210.37 120.443C218.527 125.021 227.951 129.118 240.931 133.726C254.554 138.637 268.524 144.149 276.537 152.737C284.409 161.191 287.913 173.047 286.953 187.975C285.884 206.372 279.566 224.35 268.68 239.963C262.46 249.545 254.499 258.91 245.014 267.804C241.537 271.246 237.911 274.325 234.236 276.957C223.599 284.575 211.994 288.987 197.718 290.842C193.887 291.295 189.854 291.54 185.387 291.595C173.214 292.108 159.636 292.142 145.261 292.179C132.647 292.389 117.922 292.159 104.338 288.865C101.671 288.226 99.0986 287.489 96.687 286.672C82.4984 281.991 72.6472 272.129 68.9498 258.901C65.391 246.235 65.807 229.545 70.1849 209.293C72.839 195.154 77.6667 181.978 85.8383 166.567C90.2234 157.94 95.3987 149.342 102.123 139.508C108.312 130.507 113.868 124.609 120.902 117.141L121.354 116.662C125.53 112.205 129.92 108.319 134.403 105.108ZM234.376 277.217C238.067 274.573 241.707 271.483 245.195 268.029C254.699 259.118 262.68 249.728 268.913 240.126C279.837 224.46 286.178 206.416 287.25 187.95C288.217 172.936 284.688 161.006 276.762 152.495C268.712 143.867 254.71 138.341 241.06 133.42C228.093 128.816 218.68 124.725 210.536 120.155C208.085 118.778 205.772 117.38 203.662 115.999C199.994 113.52 196.624 110.996 193.365 108.555C187.961 104.508 182.857 100.685 177.211 97.6794C165.289 91.2263 149.635 93.84 134.263 104.849C129.761 108.073 125.352 111.975 121.16 116.45L120.708 116.928C113.664 124.408 108.1 130.315 101.892 139.343C95.1567 149.191 89.975 157.802 85.5833 166.441C77.3928 181.886 72.5552 195.095 69.8939 209.268C65.5047 229.57 65.0913 246.314 68.6634 259.032C72.3856 272.347 82.2945 282.272 96.5634 286.981C98.981 287.799 101.563 288.538 104.236 289.179C117.847 292.48 132.592 292.71 145.222 292.499C159.598 292.464 173.179 292.429 185.355 291.914C189.825 291.861 193.868 291.616 197.711 291.162C212.042 289.299 223.692 284.868 234.376 277.217Z" fill="#4CAF4F"/>
<path d="M136.605 108.057C151.748 97.2128 166.861 94.4352 178.072 100.436C183.976 103.53 189.165 107.475 194.659 111.651C197.5 113.812 200.438 116.046 203.629 118.282C205.682 119.666 207.843 121.018 210.234 122.418C218.078 127.009 227.092 131.156 239.459 135.863C252.42 140.886 265.716 146.503 273.382 155.007C280.896 163.353 284.254 174.884 283.36 189.278C282.379 207.456 276.032 224.817 265.004 239.485C258.911 248.341 251.207 256.924 241.445 265.729C238.153 268.91 234.725 271.78 231.251 274.268C220.839 281.724 209.468 286.253 195.468 288.518C191.745 289.066 187.847 289.42 183.551 289.605C172.93 290.463 160.943 290.978 144.682 291.274C128.369 291.859 115.744 290.825 104.951 288.017C102.384 287.36 99.9045 286.603 97.5766 285.769C83.9869 281.052 74.4903 271.371 70.8333 258.508C67.3268 246.251 67.5989 229.608 71.6209 210.379C74.7051 192.715 81.7288 178.623 87.5026 168.32C93.0136 157.994 99.2753 148.786 104.115 141.918C109.552 134.252 114.443 129.129 120.106 123.2C121.19 122.064 122.309 120.893 123.473 119.661C127.654 115.208 132.072 111.304 136.605 108.057ZM231.391 274.528C234.879 272.03 238.321 269.147 241.622 265.959C251.401 257.136 259.124 248.532 265.23 239.659C276.299 224.936 282.673 207.504 283.658 189.254C284.556 174.774 281.175 163.17 273.61 154.768C265.908 146.223 252.582 140.594 239.594 135.559C227.238 130.856 218.236 126.715 210.404 122.131C208.017 120.734 205.86 119.384 203.813 118.004C200.628 115.772 197.692 113.54 194.853 111.381C189.35 107.198 184.154 103.246 178.232 100.144C166.93 94.0936 151.706 96.8829 136.466 107.798C131.913 111.058 127.476 114.978 123.28 119.449C122.116 120.68 120.998 121.851 119.915 122.985C114.241 128.926 109.341 134.057 103.888 141.747C99.0409 148.626 92.7699 157.847 87.2506 168.187C81.4641 178.514 74.4232 192.642 71.3289 210.358C67.2959 229.636 67.0258 246.332 70.5476 258.639C74.2267 271.589 83.7813 281.333 97.4487 286.075C99.7827 286.911 102.27 287.671 104.843 288.33C115.662 291.142 128.309 292.182 144.647 291.594C160.913 291.3 172.903 290.785 183.526 289.925C187.826 289.741 191.734 289.385 195.467 288.836C209.521 286.562 220.936 282.016 231.391 274.528Z" fill="#4CAF4F"/>
<path d="M138.927 110.919C153.678 100.354 168.717 97.3545 179.155 102.892C185.348 106.092 190.62 110.183 196.201 114.513C198.625 116.394 201.132 118.338 203.841 120.316C205.798 121.678 207.865 123.024 210.164 124.434C217.594 128.987 226.456 133.324 238.054 138.084C250.351 143.234 262.971 148.971 270.297 157.411C277.457 165.664 280.676 176.881 279.864 190.749C278.987 208.714 272.628 225.463 261.477 239.185C255.565 247.267 248.126 255.092 238.059 263.818C234.97 266.727 231.756 269.38 228.503 271.71C218.318 279.004 207.175 283.645 193.436 286.32C189.826 286.958 186.064 287.42 181.938 287.726C170.767 289.072 158.471 289.957 144.344 290.435C129.402 291.255 116.442 290.163 105.82 287.186C103.356 286.507 100.968 285.729 98.7223 284.873C85.7326 280.103 76.5851 270.586 72.9624 258.07C69.445 246.034 69.547 229.894 73.2579 211.395C76.0148 194.216 82.9277 180.826 89.326 169.995C94.5277 160.694 100.526 152.126 106.233 144.254C111.162 137.503 115.44 133.134 120.392 128.074C122.072 126.359 123.809 124.583 125.691 122.597C129.88 118.137 134.333 114.208 138.927 110.919ZM228.643 271.97C231.91 269.63 235.136 266.967 238.231 264.052C248.314 255.312 255.772 247.466 261.694 239.368C272.894 225.591 279.281 208.766 280.162 190.722C280.979 176.772 277.737 165.486 270.528 157.175C263.167 148.695 250.518 142.945 238.194 137.783C226.608 133.027 217.756 128.695 210.337 124.149C208.043 122.742 205.979 121.399 204.029 120.041C201.324 118.068 198.819 116.124 196.397 114.244C190.807 109.906 185.527 105.81 179.314 102.599C173.926 99.7408 167.525 99.0625 160.291 100.583C153.409 102.029 145.973 105.513 138.787 110.659C134.174 113.963 129.702 117.908 125.498 122.384C123.617 124.37 121.881 126.143 120.203 127.857C115.24 132.927 110.954 137.305 106.009 144.079C100.294 151.962 94.2886 160.54 89.0785 169.855C82.6642 180.714 75.732 194.143 72.9669 211.377C69.2456 229.923 69.1453 246.117 72.6771 258.203C76.3235 270.802 85.5263 280.382 98.5905 285.177C100.842 286.035 103.239 286.816 105.708 287.497C116.356 290.481 129.347 291.578 144.313 290.756C158.448 290.278 170.75 289.391 181.922 288.046C186.052 287.739 189.824 287.276 193.445 286.635C207.235 283.952 218.417 279.293 228.643 271.97Z" fill="#4CAF4F"/>
<path d="M141.209 113.81C155.78 103.376 170.351 100.228 180.187 105.389C186.688 108.697 191.781 112.742 197.679 117.427C199.694 119.027 201.777 120.682 204.016 122.382C205.883 123.728 207.859 125.066 210.058 126.479C217.179 131.052 225.622 135.45 236.628 140.324C248.268 145.594 260.218 151.441 267.207 159.82C274.016 167.981 277.096 178.884 276.358 192.228C275.576 209.987 269.195 226.131 257.905 238.914C250.634 248.219 241.632 256.118 234.602 261.961C231.729 264.588 228.747 267.013 225.73 269.173C215.75 276.321 204.806 281.095 191.289 284.202C187.789 284.935 184.161 285.504 180.202 285.938C168.684 287.811 156.797 289.043 143.856 289.706C129.917 290.76 117.005 289.646 106.511 286.484C104.147 285.784 101.851 284.985 99.6855 284.11C87.2914 279.296 78.4888 269.942 74.9014 257.773C70.4454 242.84 72.3477 224.931 74.7252 212.538C77.1916 195.735 84.0083 183.017 91.0059 171.777C96.1231 163.06 101.835 155.255 108.231 146.683C112.816 140.585 116.676 136.771 121.146 132.353C123.232 130.292 125.389 128.159 127.812 125.608C132.027 121.127 136.534 117.158 141.209 113.81ZM225.87 269.432C228.898 267.263 231.892 264.83 234.769 262.199C241.807 256.35 250.828 248.434 258.115 239.107C269.456 226.267 275.87 210.043 276.656 192.2C277.398 178.777 274.297 167.804 267.441 159.588C260.419 151.169 248.441 145.306 236.774 140.024C225.779 135.156 217.347 130.763 210.236 126.198C208.04 124.787 206.068 123.45 204.207 122.11C201.973 120.413 199.89 118.759 197.877 117.16C191.969 112.467 186.867 108.414 180.345 105.096C170.419 99.8868 155.736 103.048 141.07 113.551C136.375 116.913 131.849 120.898 127.618 125.396C125.2 127.942 123.045 130.071 120.961 132.131C116.48 136.56 112.611 140.384 108.01 146.503C101.605 155.087 95.8877 162.901 90.7628 171.63C83.7459 182.902 76.9079 195.66 74.4323 212.525C72.0474 224.948 70.1429 242.913 74.6149 257.909C78.2269 270.158 87.0819 279.571 99.5487 284.413C101.721 285.292 104.026 286.092 106.396 286.795C116.918 289.965 129.863 291.082 143.832 290.025C156.78 289.363 168.676 288.13 180.198 286.256C184.159 285.822 187.796 285.252 191.308 284.517C204.87 281.4 215.851 276.606 225.87 269.432Z" fill="#4CAF4F"/>
<path d="M143.543 116.362C157.914 106.071 172.011 102.782 181.251 107.566C188.07 110.975 193.207 115.167 199.155 120.021C200.774 121.342 202.448 122.707 204.231 124.12C206.007 125.444 207.892 126.776 209.997 128.193C216.809 132.779 224.836 137.236 235.259 142.221C246.247 147.601 257.531 153.552 264.187 161.874C270.647 169.94 273.583 180.534 272.915 193.356C272.22 210.912 265.805 226.458 254.364 238.314C248.014 245.873 240.49 252.366 231.145 259.792C228.513 262.125 225.785 264.306 223.029 266.28C213.226 273.3 202.446 278.233 189.103 281.807C185.706 282.639 182.209 283.317 178.415 283.877C166.783 286.294 155.296 287.88 143.288 288.725C130.049 290.026 117.536 288.929 107.097 285.554C104.83 284.834 102.625 284.016 100.541 283.121C88.7329 278.269 80.274 269.086 76.7233 257.259C72.2585 242.597 73.9171 225.344 76.0947 213.452C78.1795 197.856 84.2091 186.126 92.6195 173.311C97.6655 165.132 103.339 157.753 109.345 149.941L110.188 148.845C114.534 143.234 118.099 139.846 122.229 135.923C124.606 133.664 127.064 131.329 129.915 128.336C134.176 123.815 138.76 119.787 143.543 116.362ZM223.168 266.539C225.934 264.558 228.673 262.37 231.307 260.035C240.663 252.601 248.202 246.093 254.563 238.521C266.062 226.604 272.514 210.973 273.213 193.327C273.885 180.428 270.929 169.767 264.425 161.646C257.737 153.283 246.425 147.318 235.412 141.924C224.999 136.945 216.981 132.493 210.179 127.915C208.077 126.5 206.197 125.17 204.427 123.85C202.647 122.441 200.973 121.076 199.356 119.755C193.396 114.892 188.25 110.692 181.409 107.272C172.079 102.442 157.87 105.743 143.403 116.103C138.602 119.541 133.999 123.585 129.722 128.122C126.879 131.108 124.425 133.44 122.05 135.695C117.91 139.629 114.333 143.027 109.969 148.66L109.126 149.759C103.113 157.579 97.4339 164.966 92.3822 173.156C83.9434 186.012 77.8924 197.785 75.8008 213.442C73.6176 225.363 71.9558 242.674 76.4376 257.396C80.0128 269.299 88.5224 278.542 100.4 283.422C102.49 284.32 104.702 285.142 106.976 285.862C117.447 289.249 129.997 290.349 143.269 289.046C155.286 288.199 166.786 286.612 178.423 284.194C182.217 283.632 185.723 282.953 189.131 282.119C202.517 278.533 213.331 273.584 223.168 266.539Z" fill="#4CAF4F"/>
<path d="M146.018 119.114C160.118 109.016 173.691 105.625 182.326 110.044C189.45 113.551 194.596 117.893 200.554 122.92C201.795 123.967 203.08 125.051 204.435 126.173C206.119 127.479 207.91 128.805 209.916 130.227C216.407 134.827 224.009 139.348 233.841 144.455C244.161 149.952 254.767 156.013 261.088 164.287C267.194 172.263 269.991 182.539 269.403 194.83C268.811 212.17 262.386 227.101 250.823 238.011C244.422 245.061 236.907 250.933 227.747 257.879C225.398 259.89 222.969 261.794 220.52 263.548C210.895 270.441 200.264 275.543 187.06 279.603C183.774 280.531 180.414 281.314 176.794 281.995C165.206 284.946 154.135 286.871 142.946 287.882C130.545 289.384 118.125 288.26 107.965 284.72C105.799 283.979 103.687 283.139 101.688 282.223C90.4838 277.327 82.375 268.306 78.8545 256.825C74.3743 242.439 75.7737 225.854 77.7368 214.475C79.5706 199.141 85.7429 187.606 94.4457 175.001C99.0561 167.884 104.182 161.43 109.611 154.598C110.502 153.475 111.401 152.345 112.306 151.199C116.473 145.971 119.976 142.786 123.684 139.415C126.268 137.065 128.94 134.636 132.132 131.292C136.446 126.721 141.117 122.624 146.018 119.114ZM220.66 263.809C223.118 262.049 225.554 260.136 227.903 258.125C237.07 251.175 244.599 245.293 251.011 238.229C262.639 227.257 269.106 212.236 269.701 194.8C270.293 182.434 267.476 172.092 261.329 164.062C254.978 155.749 244.347 149.674 234.001 144.162C224.178 139.061 216.584 134.545 210.103 129.951C208.101 128.531 206.312 127.208 204.633 125.905C203.282 124.787 201.998 123.703 200.757 122.656C194.787 117.619 189.631 113.27 182.483 109.749C173.758 105.285 160.074 108.689 145.879 118.854C140.959 122.378 136.268 126.491 131.939 131.078C128.757 134.412 126.09 136.837 123.512 139.182C119.792 142.563 116.278 145.758 112.092 151.011C111.185 152.157 110.288 153.288 109.396 154.41C103.962 161.25 98.8281 167.711 94.2119 174.838C85.4791 187.487 79.2839 199.069 77.4439 214.47C75.475 225.876 74.0715 242.517 78.5696 256.964C82.1133 268.519 90.2713 277.597 101.542 282.522C103.546 283.441 105.666 284.283 107.84 285.026C118.034 288.579 130.496 289.707 142.935 288.201C154.135 287.189 165.219 285.262 176.813 282.309C180.433 281.627 183.801 280.843 187.101 279.912C200.342 275.84 211.005 270.723 220.66 263.809Z" fill="#4CAF4F"/>
<path d="M148.49 121.87C162.493 111.842 175.201 108.45 183.357 112.564C190.773 116.152 195.645 120.42 201.814 125.824C202.712 126.611 203.637 127.42 204.602 128.258C206.2 129.549 207.9 130.867 209.801 132.29C215.968 136.897 223.149 141.478 232.402 146.707C241.635 152.064 251.99 158.47 257.98 166.704C263.733 174.588 266.39 184.55 265.876 196.313C265.378 213.438 258.932 227.76 247.233 237.735C241.203 243.83 233.985 249.024 226.343 254.521L224.271 256.013C222.261 257.669 220.19 259.262 218.107 260.753C208.614 267.552 198.062 272.867 184.899 277.479C181.719 278.505 178.492 279.396 175.044 280.197C163.412 283.745 153.057 285.952 142.448 287.145C130.633 288.87 118.633 287.758 108.654 284.015C106.587 283.254 104.567 282.395 102.649 281.456C92.043 276.523 84.2816 267.671 80.7936 256.532C76.2994 242.419 77.4506 226.499 79.2089 215.63C80.9872 198.845 88.5432 187.245 96.1291 176.803C100.394 170.542 105.093 164.846 110.066 158.817C111.465 157.121 112.881 155.405 114.31 153.648C118.351 148.72 121.68 145.839 125.203 142.788C127.944 140.416 130.777 137.963 134.255 134.327C138.588 129.744 143.51 125.436 148.49 121.87ZM218.247 261.013C220.336 259.516 222.414 257.919 224.422 256.264L226.483 254.78C234.138 249.273 241.369 244.071 247.409 237.964C259.18 227.929 265.673 213.511 266.174 196.279C266.691 184.447 264.017 174.423 258.225 166.485C252.206 158.213 241.827 151.79 232.569 146.418C223.324 141.194 216.152 136.618 209.995 132.017C208.094 130.598 206.397 129.281 204.806 127.994C203.843 127.16 202.918 126.35 202.021 125.564C195.839 120.149 190.956 115.871 183.513 112.269C175.265 108.11 162.449 111.514 148.351 121.61C143.352 125.19 138.411 129.514 134.063 134.113C130.598 137.735 127.771 140.183 125.036 142.55C121.5 145.611 118.161 148.503 114.098 153.457C112.668 155.214 111.253 156.929 109.856 158.623C104.876 164.661 100.172 170.364 95.9022 176.632C88.2877 187.114 80.7007 198.762 78.9138 215.629C77.1514 226.525 75.9973 242.5 80.5103 256.672C84.0202 267.883 91.8294 276.789 102.498 281.754C104.422 282.693 106.449 283.557 108.523 284.319C118.54 288.077 130.586 289.194 142.442 287.465C153.065 286.268 163.436 284.059 175.076 280.509C178.523 279.706 181.757 278.814 184.95 277.783C198.148 273.159 208.726 267.831 218.247 261.013Z" fill="#4CAF4F"/>
<path d="M151.006 124.292C164.622 114.541 176.763 111.107 184.316 114.871C191.992 118.534 196.557 122.713 202.874 128.498C203.468 129.042 204.077 129.6 204.706 130.173C206.219 131.455 207.827 132.769 209.626 134.193C215.46 138.811 222.222 143.466 230.907 148.845C241.577 155.632 249.731 161.668 254.829 169.059C260.236 176.871 262.761 186.529 262.334 197.767C261.95 214.692 255.501 228.41 243.683 237.44C241.091 239.823 238.117 242.199 234.308 244.927C231.55 246.902 228.702 248.818 225.685 250.845C224.1 251.912 222.492 252.994 220.864 254.106C219.292 255.349 217.679 256.563 216.064 257.72C206.533 264.546 196.289 269.959 182.849 275.273C179.816 276.384 176.64 277.405 173.411 278.309C161.963 282.401 152.013 284.932 142.091 286.276C130.826 288.204 119.252 287.084 109.494 283.124C107.52 282.338 105.592 281.453 103.763 280.494C93.7548 275.508 86.3354 266.807 82.867 255.991C78.3426 242.128 79.229 226.864 80.7686 216.501C82.2798 199.937 89.7117 188.986 97.8533 178.313C101.822 172.766 106.163 167.708 110.76 162.351C112.568 160.243 114.44 158.062 116.316 155.816C120.263 151.132 123.452 148.514 126.827 145.743C129.684 143.398 132.636 140.974 136.353 137.094C140.787 132.409 145.853 127.982 151.006 124.292ZM234.448 245.187C238.269 242.45 241.254 240.066 243.845 237.682C255.743 228.59 262.245 214.773 262.631 197.734C263.061 186.428 260.519 176.708 255.077 168.847C249.953 161.42 241.78 155.366 231.082 148.562C222.404 143.188 215.649 138.538 209.824 133.926C208.027 132.503 206.42 131.191 204.913 129.913C204.289 129.344 203.678 128.786 203.084 128.241C196.751 122.442 192.175 118.253 184.468 114.576C176.826 110.767 164.577 114.214 150.866 124.032C145.694 127.736 140.61 132.179 136.161 136.88C132.46 140.743 129.517 143.16 126.669 145.497C123.28 148.28 120.078 150.908 116.108 155.62C114.231 157.865 112.362 160.044 110.554 162.151C105.952 167.515 101.605 172.58 97.6299 178.136C89.4561 188.85 81.9911 199.852 80.4721 216.504C78.9304 226.893 78.0418 242.211 82.5841 256.132C86.0744 267.015 93.5391 275.773 103.606 280.788C105.44 281.75 107.375 282.638 109.357 283.427C119.158 287.404 130.783 288.529 142.093 286.592C152.031 285.247 161.999 282.713 173.457 278.617C176.683 277.714 179.866 276.69 182.911 275.575C196.381 270.248 206.648 264.822 216.204 257.979C217.824 256.819 219.44 255.602 221.008 254.363C222.624 253.259 224.232 252.176 225.817 251.111C228.835 249.082 231.685 247.165 234.448 245.187Z" fill="#4CAF4F"/>
<path d="M240.152 236.91C238.868 237.972 237.507 239.015 235.978 240.109C232.439 242.644 228.612 245.012 224.561 247.52C222.245 248.953 219.85 250.435 217.425 252.002C216.465 252.725 215.493 253.439 214.524 254.133C204.97 260.974 194.536 266.776 180.693 272.942C177.755 274.159 174.715 275.294 171.659 276.315C160.257 281.046 150.982 283.839 141.573 285.37C130.812 287.528 119.657 286.433 110.155 282.291C108.279 281.489 106.443 280.587 104.699 279.611C95.1576 274.537 88.2757 266.242 84.7975 255.621C80.2649 242.04 80.9177 227.454 82.2625 217.61C83.5469 201.267 90.8742 190.942 99.6003 180.076C103.336 175.126 107.394 170.604 111.689 165.817C113.874 163.381 116.133 160.863 118.408 158.22C122.301 153.733 125.388 151.342 128.655 148.812C131.605 146.528 134.656 144.166 138.59 140.071C143.172 135.244 148.431 130.659 153.8 126.814C166.991 117.368 178.543 113.899 185.495 117.294C193.382 120.975 197.596 125.014 203.974 131.128L205.015 132.125C206.446 133.395 207.962 134.699 209.652 136.114C215.211 140.77 221.363 145.335 229.6 150.919C239.478 157.799 247.041 163.892 251.843 171.256C256.893 178.969 259.268 188.303 258.905 198.999C258.608 215.241 252.442 228.126 241.073 236.268C240.769 236.485 240.462 236.701 240.152 236.91ZM236.118 240.369C237.653 239.27 239.021 238.221 240.298 237.164C240.596 236.962 240.906 236.747 241.212 236.527C252.683 228.313 258.904 215.324 259.203 198.964C259.568 188.204 257.178 178.812 252.095 171.049C247.271 163.649 239.688 157.54 229.784 150.641C221.553 145.062 215.408 140.501 209.855 135.851C208.166 134.437 206.653 133.135 205.226 131.869L204.189 130.875C197.793 124.744 193.568 120.694 185.647 116.998C178.605 113.558 166.946 117.041 153.661 126.555C148.273 130.413 142.995 135.013 138.398 139.858C134.484 143.931 131.444 146.285 128.506 148.56C125.222 151.103 122.122 153.504 118.204 158.02C115.931 160.66 113.673 163.176 111.489 165.611C107.188 170.406 103.125 174.935 99.3837 179.892C90.9441 190.402 83.2574 201.2 81.967 217.618C80.6192 227.487 79.964 242.127 84.5141 255.766C88.0147 266.452 94.9393 274.797 104.535 279.901C106.285 280.88 108.128 281.786 110.011 282.592C119.56 286.754 130.772 287.853 141.581 285.686C151.008 284.152 160.306 281.353 171.718 276.616C174.772 275.598 177.82 274.459 180.767 273.238C194.637 267.06 205.09 261.248 214.664 254.392C215.634 253.697 216.609 252.98 217.561 252.264C219.973 250.705 222.366 249.225 224.68 247.793C228.738 245.282 232.568 242.91 236.118 240.369Z" fill="#4CAF4F"/>
<path d="M156.467 129.13C169.131 120.061 180.043 116.609 186.404 119.66C194.443 123.344 198.278 127.216 204.63 133.631L205.065 134.071C206.421 135.338 207.845 136.636 209.422 138.042C214.61 142.663 220.355 147.292 228.049 153.048C235.913 159.095 243.851 165.766 248.632 173.571C253.332 181.207 255.569 190.23 255.284 200.395C255.095 215.495 249.564 227.366 239.286 234.726C238.39 235.368 237.447 235.983 236.482 236.554C236.282 236.701 236.096 236.835 235.907 236.97C232.014 239.758 227.619 242.216 222.966 244.816C220.025 246.461 216.984 248.16 213.873 250.052C201.516 258.878 189.037 265.454 178.461 270.726C175.618 272.051 172.715 273.297 169.837 274.424C162.322 277.997 152.261 282.373 141.006 284.53C130.876 286.861 119.858 285.744 110.773 281.466C108.994 280.643 107.25 279.719 105.591 278.72C96.6596 273.617 90.1145 265.478 86.6577 255.185C82.1003 241.859 82.5028 227.937 83.6433 218.604C84.6848 202.476 92.202 192.355 101.182 181.71C104.709 177.276 108.519 173.218 112.553 168.922C115.069 166.242 117.671 163.47 120.3 160.501C124.153 156.182 127.155 153.999 130.334 151.687C133.352 149.492 136.476 147.221 140.598 142.94C145.298 137.998 150.933 133.093 156.467 129.13ZM239.426 234.986C249.805 227.552 255.392 215.577 255.581 200.356C255.87 190.134 253.618 181.053 248.887 173.368C244.084 165.53 236.127 158.84 228.243 152.778C220.553 147.025 214.813 142.399 209.631 137.782C208.055 136.379 206.632 135.082 205.282 133.819L204.851 133.383C198.478 126.948 194.632 123.064 186.554 119.364C180.104 116.269 169.085 119.734 156.327 128.871C150.775 132.847 145.121 137.767 140.406 142.726C136.309 146.982 133.199 149.243 130.193 151.429C126.997 153.753 123.98 155.947 120.098 160.298C117.473 163.263 114.874 166.032 112.359 168.71C108.32 173.012 104.505 177.075 100.97 181.518C91.9499 192.211 84.3952 202.386 83.3456 218.618C82.2019 227.975 81.7992 241.949 86.3772 255.331C89.8536 265.685 96.4395 273.873 105.421 279.008C107.086 280.008 108.837 280.937 110.625 281.763C119.758 286.066 130.839 287.189 141.023 284.844C152.306 282.682 162.391 278.297 169.914 274.72C172.787 273.595 175.695 272.347 178.549 271.016C189.141 265.737 201.635 259.152 214.001 250.32C217.097 248.438 220.134 246.74 223.072 245.097C227.959 242.366 232.562 239.792 236.611 236.821C237.569 236.253 238.521 235.633 239.426 234.986Z" fill="#4CAF4F"/>
<path d="M159.575 131.429C166.652 126.36 179.706 118.413 187.613 122.131C195.738 125.781 199.167 129.443 205.394 136.092C206.703 137.39 208.035 138.681 209.487 140.062C215.595 145.871 221.942 151.238 226.788 155.266C233.962 161.388 241.221 168.134 245.702 175.96C250.053 183.521 252.152 192.232 251.94 201.855C251.847 215.918 246.88 226.872 237.577 233.535C236.182 234.533 234.674 235.45 233.093 236.256C229.548 238.521 225.582 240.48 221.381 242.554C217.908 244.269 214.317 246.043 210.603 248.156C200.104 255.21 189.385 261.415 176.517 268.563C173.762 270.004 170.997 271.359 168.306 272.586C160.509 276.8 151.145 281.413 140.735 283.742C131.055 286.281 120.472 285.171 111.695 280.7C110.014 279.856 108.362 278.912 106.786 277.891C98.4735 272.765 92.2651 264.788 88.8302 254.819C84.2438 241.749 84.3992 228.498 85.3376 219.682C86.1483 203.737 93.5215 194.222 103.076 183.439C106.425 179.45 110.021 175.8 113.829 171.933C116.645 169.075 119.557 166.119 122.504 162.883C125.496 159.618 127.918 157.734 129.892 156.321C130.722 155.726 131.524 155.18 132.374 154.603C133.214 154.032 134.086 153.44 134.978 152.801C136.92 151.411 139.577 149.37 142.916 145.911C147.854 140.728 153.771 135.585 159.575 131.429ZM237.717 233.795C247.123 227.058 252.144 216.001 252.238 201.814C252.447 192.273 250.277 183.265 245.963 175.765C241.462 167.905 234.185 161.141 226.991 155.003C222.146 150.977 215.805 145.614 209.701 139.809C208.251 138.429 206.92 137.14 205.633 135.865C199.371 129.177 195.929 125.502 187.762 121.833C179.731 118.057 166.567 126.062 159.435 131.169C153.613 135.339 147.678 140.498 142.724 145.696C139.408 149.134 136.769 151.16 134.838 152.542C133.95 153.179 133.082 153.767 132.241 154.338C131.428 154.891 130.586 155.463 129.752 156.06C127.762 157.485 125.324 159.383 122.306 162.675C119.365 165.906 116.455 168.86 113.64 171.717C109.828 175.586 106.226 179.242 102.871 183.24C93.2688 194.075 85.8575 203.644 85.0395 219.701C84.0987 228.54 83.9447 241.844 88.549 254.968C92.0037 264.994 98.2487 273.02 106.61 278.175C108.19 279.2 109.85 280.147 111.539 280.994C120.371 285.494 131.022 286.61 140.76 284.052C151.204 281.719 160.592 277.093 168.397 272.875C171.086 271.65 173.854 270.291 176.619 268.846C189.499 261.692 200.225 255.482 210.724 248.429C214.417 246.327 218.003 244.556 221.473 242.843C225.682 240.764 229.658 238.801 233.203 236.534C234.784 235.728 236.308 234.804 237.717 233.795Z" fill="#4CAF4F"/>
<path d="M162.642 133.456C174.141 125.221 183.384 122.024 188.67 124.452C196.817 128.037 199.945 131.581 205.621 138.013C206.863 139.323 208.105 140.608 209.419 141.947C214.803 147.434 220.286 152.597 225.409 157.358C231.589 163.249 238.474 170.34 242.674 178.245C246.622 185.636 248.637 194.276 248.502 203.233C248.492 216.554 244.144 226.418 235.579 232.551C233.766 233.849 231.749 234.979 229.584 235.909C226.484 237.594 223.065 239.043 219.445 240.578C215.509 242.246 211.438 243.973 207.189 246.226C200.869 250.181 194.585 254.02 187.932 258.085C183.524 260.778 178.966 263.563 174.389 266.389C171.706 267.961 169.079 269.426 166.58 270.745C158.592 275.617 149.88 280.464 140.241 282.962C130.983 285.713 120.823 284.611 112.366 279.943C110.777 279.08 109.216 278.114 107.725 277.071C100.026 271.929 94.1477 264.104 90.7282 254.444C86.1083 241.608 86.0183 229.019 86.7578 220.717C87.3443 204.93 94.5734 195.992 104.72 185.088C107.912 181.488 111.327 178.192 114.942 174.703C118.036 171.715 121.237 168.625 124.482 165.162C126.493 163.026 128.435 161.313 130.589 159.77C131.831 158.881 133 158.143 134.237 157.363C135.475 156.583 136.756 155.774 138.116 154.8C140.499 153.094 142.697 151.175 145.029 148.762C150.209 143.341 156.628 137.763 162.642 133.456ZM235.719 232.812C244.39 226.602 248.79 216.636 248.799 203.189C248.936 194.183 246.908 185.491 242.938 178.057C238.721 170.118 231.818 163.01 225.622 157.102C220.501 152.343 215.02 147.183 209.639 141.7C208.326 140.362 207.086 139.077 205.848 137.773C200.151 131.316 197.011 127.759 188.817 124.153C183.441 121.683 174.095 124.894 162.502 133.196C156.471 137.515 150.032 143.111 144.838 148.547C142.522 150.942 140.342 152.847 137.976 154.541C136.626 155.508 135.349 156.313 134.115 157.092C132.873 157.875 131.699 158.615 130.449 159.51C128.275 161.067 126.317 162.795 124.288 164.95C121.049 168.406 117.852 171.493 114.761 174.477C111.14 177.972 107.721 181.273 104.521 184.88C94.321 195.842 87.0516 204.833 86.4601 220.741C85.7194 229.067 85.8091 241.706 90.4492 254.593C93.8875 264.309 99.7981 272.177 107.542 277.349C109.037 278.396 110.606 279.366 112.2 280.235C120.719 284.934 130.952 286.043 140.276 283.274C149.95 280.765 158.688 275.904 166.689 271.025C169.182 269.71 171.814 268.241 174.505 266.665C179.086 263.836 183.645 261.051 188.05 258.36C194.704 254.294 200.989 250.455 207.3 246.504C211.525 244.264 215.589 242.541 219.519 240.874C223.147 239.336 226.573 237.884 229.673 236.199C231.847 235.267 233.885 234.125 235.719 232.812Z" fill="#4CAF4F"/>
</g>
</svg>
