<svg width="103" height="121" viewBox="0 0 103 121" fill="none" xmlns="http://www.w3.org/2000/svg">
<g opacity="0.8">
<path d="M49.8377 32.8294C47.7865 31.7314 46.1938 31.1253 44.6733 30.8644C38.8191 29.9633 30.9405 34.6807 24.6021 42.8828C21.4648 47.0037 19.4092 51.3428 18.6577 55.4307C18.0271 59.0062 18.334 62.9417 19.6235 67.816C20.5314 71.1595 21.9879 74.4374 24.2074 78.1319C26.4701 81.8619 28.6745 84.2325 31.3551 85.8183C31.4778 85.8892 31.6016 85.9582 31.7339 86.029C34.8681 87.7068 40.5587 89.2748 46.9562 90.2233C53.4584 91.1873 59.4631 91.3066 63.0188 90.5422C71.4438 90.3132 72.9041 86.458 75.1149 80.6226C76.0954 78.0341 77.2071 75.1004 79.1131 71.8567C80.4892 69.5162 81.7497 67.4432 82.862 65.6142C88.2036 56.831 90.6418 52.8224 89.3009 46.2352C88.9425 44.6811 87.9119 43.4385 86.2386 42.5428C84.9196 41.8367 83.1902 41.3394 81.098 41.0648C79.1961 40.8218 77.1515 40.6951 74.9868 40.5611C72.1397 40.3848 69.1958 40.2027 66.1578 39.7364C62.5513 39.1675 59.0069 37.9321 55.3219 35.9595C54.7749 35.6667 54.2085 35.3488 53.6383 35.0148C53.3821 34.8645 53.1283 34.715 52.8768 34.567C51.8216 33.9451 50.8247 33.3578 49.8377 32.8294ZM31.7024 86.0772C31.5694 86.0061 31.4448 85.9368 31.3212 85.8655C28.6305 84.2738 26.4193 81.8964 24.1509 78.1571C21.9287 74.458 20.4702 71.1755 19.5607 67.8271C18.2694 62.9452 17.9622 59.0027 18.594 55.4196C19.3471 51.3234 21.4062 46.9769 24.5486 42.8495C30.9005 34.6297 38.8035 29.9033 44.6825 30.8084C46.2116 31.0707 47.8111 31.6792 49.8693 32.781C50.8577 33.31 51.855 33.8976 52.911 34.5199C53.1624 34.6681 53.416 34.8175 53.6722 34.9677C54.2417 35.3012 54.8073 35.6186 55.3536 35.911C59.0314 37.8798 62.5682 39.1128 66.1667 39.6805C69.2009 40.146 72.143 40.3281 74.9887 40.5043C77.1546 40.6383 79.2002 40.7649 81.1046 41.0084C83.2059 41.2842 84.9437 41.7842 86.2703 42.4943C87.9606 43.3992 89.0014 44.6548 89.364 46.2267C90.0161 49.4298 89.8095 52.0775 88.6728 55.0805C87.5694 57.9964 85.6188 61.2037 82.9191 65.6427C81.8069 67.4716 80.5462 69.5444 79.1706 71.8848C77.2667 75.1243 76.156 78.0563 75.176 80.6428C74.0349 83.6546 73.1338 86.0339 71.4355 87.7537C69.5996 89.6133 67.0072 90.4905 63.0296 90.5983C59.4729 91.3638 53.4585 91.2448 46.948 90.2796C40.5427 89.3297 34.8434 87.7587 31.7024 86.0772Z" fill="#4CAF4F"/>
<path d="M32.0426 85.4793C32.1161 85.5204 32.1894 85.5604 32.2653 85.601C35.2605 87.2044 40.7517 88.7016 46.9539 89.6051C53.2657 90.5251 59.1129 90.6316 62.5954 89.8903C70.7889 89.6535 72.2851 85.9301 74.5497 80.2937C75.5291 77.8565 76.6392 75.0941 78.4763 72.047C79.8093 69.8225 81.0337 67.8471 82.1138 66.1042C87.3536 57.6495 89.7451 53.7906 88.5132 47.4153C88.1752 45.7563 87.0897 44.4257 85.286 43.4601C84.0764 42.8126 82.536 42.326 80.7079 42.014C78.5034 41.5523 76.075 41.2611 73.504 40.953C71.0883 40.6636 68.59 40.3641 66.023 39.8961C60.7145 38.8948 56.3286 36.7991 53.4913 35.3099L52.9973 35.0376C52.3976 34.707 51.831 34.3947 51.263 34.0907C48.8466 32.7971 46.7978 31.8735 44.6523 31.5704C38.9676 30.7924 31.2966 35.3478 25.11 43.1758C21.9184 47.1675 19.8045 51.3575 18.9968 55.2926C18.2956 58.7896 18.5401 62.6418 19.7663 67.4154C20.6531 70.9041 22.1715 74.2731 24.5452 78.0174C26.8696 81.6467 29.1723 83.9429 32.0115 85.4626L32.0426 85.4793ZM32.2336 85.6496C32.1574 85.6088 32.0836 85.5686 32.0106 85.5273L31.9799 85.5111C29.1302 83.9856 26.82 81.6826 24.4894 78.0437C22.1126 74.2943 20.5917 70.9203 19.7034 67.4261C18.4754 62.6447 18.2306 58.7853 18.9333 55.2804C19.7426 51.3374 21.8601 47.1399 25.0568 43.1418C31.2567 35.2969 38.9513 30.7328 44.66 31.514C46.816 31.8188 48.8716 32.7449 51.2947 34.0421C51.8632 34.3464 52.4298 34.6589 53.0298 34.9895L53.5232 35.2614C56.3558 36.7481 60.7351 38.8408 66.0336 39.8404C68.5983 40.3078 71.0954 40.6072 73.5103 40.8967C76.0827 41.2049 78.5126 41.4961 80.7185 41.9582C82.5534 42.2714 84.101 42.7605 85.3176 43.4118C87.1384 44.3865 88.2351 45.7309 88.5762 47.4076C89.8123 53.8027 87.4176 57.6668 82.1705 66.1332C81.0905 67.8759 79.8663 69.8511 78.5333 72.0755C76.6982 75.1189 75.5891 77.8795 74.6105 80.3147C73.4417 83.2239 72.5184 85.5217 70.8334 87.1852C69.012 88.9834 66.4745 89.835 62.6065 89.9465C59.1226 90.6887 53.2655 90.5823 46.9461 89.6614C40.7358 88.7566 35.2357 87.2567 32.2336 85.6496Z" fill="#4CAF4F"/>
<path d="M84.3172 44.367C83.2273 43.7836 81.8825 43.3182 80.3205 42.9837C77.7646 42.226 74.8644 41.7166 71.7938 41.1773C69.8774 40.8407 67.8959 40.4926 65.8738 40.0636C60.9119 38.9695 56.7395 37.194 53.3123 35.6015L53.1164 35.5011C50.0596 33.9338 47.4194 32.5803 44.5859 32.2652C39.0631 31.6049 31.5969 35.9912 25.5643 43.4403C22.272 47.3544 20.1607 51.2837 19.2891 55.1198C18.5302 58.4893 18.7225 62.3688 19.8763 66.9801C20.7338 70.5654 22.3661 74.128 24.867 77.8716C27.2519 81.405 29.7274 83.6846 32.73 85.116L32.7953 85.151C35.6558 86.6823 40.9548 88.1125 46.9693 88.9767C53.0984 89.8573 58.7952 89.9561 62.2087 89.2412C70.1807 89.0038 71.7119 85.4128 74.0296 79.977C75.0038 77.6926 76.108 75.1034 77.8727 72.2548C79.16 70.1504 80.3454 68.2762 81.3911 66.6224C86.5291 58.4973 88.8742 54.789 87.7421 48.6223C87.4268 46.8466 86.2745 45.4148 84.3172 44.367ZM32.0165 84.8194C29.31 83.3706 27.0207 81.1715 24.812 77.8993C22.3073 74.1498 20.6724 70.5814 19.8134 66.9903C18.6575 62.3711 18.4654 58.4838 19.2259 55.1064C20.0993 51.2624 22.2143 47.3255 25.5116 43.4056C28.4873 39.7313 31.8512 36.7381 35.2393 34.7495C38.6279 32.7609 41.8619 31.8823 44.5916 32.2088C47.4383 32.5252 50.0837 33.8816 53.147 35.4521L53.3416 35.5519C56.7639 37.1421 60.9319 38.9158 65.8867 40.0083C67.9069 40.4368 69.8881 40.7849 71.8041 41.1213C74.8766 41.6611 77.779 42.1709 80.3358 42.929C81.9022 43.2643 83.253 43.7319 84.3489 44.3186C86.3245 45.3761 87.4874 46.8218 87.8057 48.6156C88.9413 54.8015 86.5929 58.5151 81.4474 66.6516C80.4019 68.3053 79.2166 70.1794 77.9296 72.2837C76.1668 75.129 75.0633 77.7162 74.0903 79.999C72.8938 82.8046 71.949 85.0204 70.2763 86.6257C68.4681 88.3616 65.9833 89.1854 62.2197 89.2974C58.8049 90.0131 53.0985 89.9146 46.9613 89.0327C40.9388 88.1676 35.6311 86.7345 32.7636 85.1995L32.6996 85.1651C32.4709 85.0559 32.2405 84.9393 32.0165 84.8194Z" fill="#4CAF4F"/>
<path d="M83.2739 45.2383C82.3223 44.7289 81.1862 44.3001 79.8976 43.964C76.9396 42.8152 73.4607 42.0284 69.7774 41.1953C68.4568 40.8967 67.0913 40.5879 65.7122 40.254C60.7131 38.9935 56.3381 37.2215 53.1435 35.9277C50.2187 34.5429 47.458 33.2355 44.5455 33.0028C41.909 32.7372 38.7856 33.6023 35.5119 35.5042C32.2317 37.4101 28.9645 40.2626 26.0632 43.7535C22.7158 47.5324 20.5497 51.3139 19.6254 54.9931C18.7967 58.2802 18.9256 62.0715 20.0192 66.5837C20.8544 70.3106 22.5506 73.9644 25.205 77.754C27.3029 80.7185 29.4774 82.74 32.0481 84.1161C32.4888 84.352 32.9488 84.5723 33.4155 84.7706C36.1769 86.2167 41.2719 87.5608 47.0486 88.3674C53.0368 89.2035 58.4036 89.2836 61.7729 88.5867C69.5144 88.3428 71.0837 84.8851 73.4591 79.6512C74.4261 77.5206 75.522 75.1057 77.2123 72.4564C78.4511 70.4761 79.5956 68.7057 80.6051 67.1435C85.6452 59.3455 87.9456 55.7865 86.92 49.8311C86.6338 47.9253 85.4069 46.3802 83.2739 45.2383ZM32.0163 84.1646C29.4362 82.7834 27.2548 80.7555 25.1507 77.7829C22.4919 73.9867 20.7928 70.3266 19.9563 66.5929C18.8608 62.073 18.7319 58.2738 19.5626 54.9787C20.489 51.2913 22.6588 47.5026 26.0114 43.7181C28.9163 40.2226 32.189 37.3655 35.4752 35.4562C38.7611 33.5472 41.8988 32.6792 44.5494 32.9461C47.4745 33.1798 50.2411 34.49 53.1701 35.8769C56.3609 37.1692 60.7333 38.9399 65.7273 40.1992C67.1052 40.5328 68.4705 40.8415 69.7911 41.1402C73.4769 41.9738 76.9586 42.7614 79.9173 43.9106C81.2076 44.247 82.3489 44.6778 83.3056 45.1899C85.457 46.3416 86.6947 47.9012 86.9838 49.8253C88.0122 55.7995 85.7087 59.3639 80.6613 67.1733C79.6517 68.7353 78.5075 70.5054 77.2686 72.4856C75.5804 75.1322 74.4853 77.5451 73.5189 79.6742C72.2928 82.3752 71.3246 84.509 69.6643 86.0569C67.8692 87.7305 65.4386 88.528 61.7841 88.6428C58.413 89.3406 53.037 89.2608 47.0407 88.4236C41.2571 87.6159 36.1525 86.2688 33.387 84.8206C32.9211 84.6225 32.4589 84.4016 32.0163 84.1646Z" fill="#4CAF4F"/>
<path d="M82.2535 46.0073C81.4596 45.5823 80.5445 45.2069 79.5327 44.8911C76.1 43.223 71.8871 42.0873 67.4275 40.8852C66.8219 40.722 66.211 40.5574 65.5952 40.3895C61.8664 39.3306 58.5096 38.1404 55.5481 37.0902C54.6572 36.7742 53.8156 36.476 53.007 36.1962C49.9011 34.8518 47.3064 33.8133 44.5284 33.6802C41.9672 33.474 38.9355 34.3303 35.7605 36.1561C32.5778 37.9864 29.3973 40.7073 26.5627 44.025C23.1543 47.674 20.9305 51.3127 19.9528 54.8412C19.0525 58.0488 19.1173 61.7569 20.1514 66.1769C20.9516 69.9971 22.7628 73.8534 25.5344 77.64C27.5254 80.3326 29.5873 82.1939 32.0225 83.4975C32.6812 83.8501 33.38 84.1657 34.0992 84.4362C36.7881 85.79 41.6846 87.0396 47.201 87.78C52.9386 88.5501 58.1016 88.6096 61.3661 87.943C68.888 87.6904 70.5005 84.3605 72.941 79.3197C73.8991 77.3404 74.9852 75.0974 76.6006 72.6438C77.7903 70.7884 78.8927 69.122 79.8658 67.652C84.8199 60.1651 87.0808 56.7482 86.163 50.9938C85.9105 48.9382 84.5954 47.2609 82.2535 46.0073ZM31.9908 83.5461C29.5464 82.2375 27.478 80.3703 25.4809 77.6696C22.7042 73.8766 20.89 70.0126 20.0883 66.1857C19.0523 61.7578 18.9874 58.0417 19.8904 54.8254C20.8704 51.2892 23.098 47.643 26.5116 43.9886C29.3496 40.667 32.5356 37.9416 35.724 36.1081C38.911 34.2754 41.9562 33.4161 44.5305 33.6235C47.3196 33.7571 49.9208 34.7977 53.0309 36.1443C53.8371 36.423 54.6788 36.7213 55.57 37.0374C58.5304 38.0872 61.8861 39.277 65.6124 40.3352C66.2275 40.5028 66.8384 40.6676 67.4438 40.8307C71.907 42.0338 76.1229 43.1703 79.557 44.8396C80.5678 45.1544 81.4875 45.5318 82.2852 45.9588C84.646 47.2226 85.972 48.9149 86.2268 50.9889C87.1479 56.7618 84.8832 60.1839 79.9213 67.682C78.9487 69.1522 77.846 70.8181 76.6567 72.6735C75.0431 75.1247 73.9576 77.3661 73.0005 79.3438C71.7407 81.9453 70.7457 84.0001 69.0939 85.4932C67.3081 87.1074 64.9282 87.8806 61.377 87.9992C58.1106 88.6666 52.9393 88.6074 47.194 87.8363C41.6699 87.0948 36.7649 85.8428 34.0725 84.487C33.3538 84.2172 32.6521 83.9001 31.9908 83.5461Z" fill="#4CAF4F"/>
<path d="M78.1448 45.3359C74.6171 43.4474 70.3056 42.0703 65.4437 40.5921C63.4671 39.966 61.6074 39.3478 59.809 38.7499C57.2892 37.9121 54.9088 37.121 52.8278 36.522C49.9405 35.393 47.3204 34.4555 44.4637 34.4085C41.9768 34.259 39.0379 35.1018 35.9633 36.846C32.8802 38.5947 29.7898 41.1772 27.0257 44.3141C23.5594 47.824 21.2826 51.3133 20.2578 54.686C19.2892 57.8082 19.2954 61.4284 20.2768 65.7532C21.0587 69.715 22.942 73.6673 25.8742 77.5015C27.737 79.9126 29.7436 81.6741 32.0082 82.8863C32.8801 83.3531 33.8209 83.7543 34.8047 84.079C40.1075 86.636 54.0214 88.6969 60.9901 87.3032C68.2966 87.0505 69.9508 83.8531 72.455 79.0132C73.3981 77.1898 74.4672 75.1234 76.0015 72.8713C77.1358 71.1482 78.192 69.5928 79.1235 68.2204C83.9883 61.0547 86.2089 57.7843 85.3891 52.2337C85.1752 50.0107 83.7525 48.1807 81.1613 46.7936C80.5506 46.4667 79.8712 46.1647 79.1422 45.8957C78.8191 45.7057 78.4853 45.5182 78.1448 45.3359ZM31.9765 82.9349C29.7034 81.718 27.6901 79.9507 25.8215 77.532C22.8837 73.6909 20.9969 69.7306 20.2135 65.7615C19.2302 61.4284 19.2242 57.7999 20.1956 54.6691C21.2229 51.2881 23.5041 47.7917 26.9755 44.2768C29.7426 41.1363 32.8382 38.5496 35.927 36.7976C39.0128 35.0472 41.9649 34.2014 44.4639 34.3516C47.3313 34.3988 49.9578 35.3385 52.8487 36.469C54.928 37.0673 57.3089 37.8588 59.8295 38.6966C61.6278 39.2945 63.4871 39.9125 65.4627 40.5384C70.3279 42.0177 74.6429 43.396 78.1763 45.2875C78.5177 45.4703 78.8522 45.6582 79.1706 45.8461C79.8971 46.1133 80.5794 46.4169 81.1928 46.7453C83.8039 48.143 85.2373 49.9881 85.4533 52.2299C85.8502 54.9183 85.542 57.1472 84.4221 59.6814C83.3506 62.1069 81.601 64.6842 79.1792 68.2513C78.2476 69.6234 77.1917 71.1788 76.0571 72.9017C74.5247 75.1517 73.4563 77.2167 72.5135 79.0388C71.221 81.5365 70.2005 83.5096 68.5575 84.9442C66.7808 86.4955 64.4505 87.2402 61.0012 87.3594C57.84 87.9919 52.8717 87.9477 47.3753 87.2366C42.1103 86.556 37.4016 85.3947 34.7798 84.1306C33.7967 83.8063 32.8521 83.4036 31.9765 82.9349Z" fill="#4CAF4F"/>
<path d="M75.7167 44.9771C72.4062 43.2049 68.5972 41.8379 65.3078 40.7344C60.9314 39.206 56.3517 37.6433 52.6803 36.7998C49.5553 35.7155 47.0889 35.053 44.4401 35.0972C39.5057 34.913 33.0261 38.5512 27.5285 44.5919C23.9997 47.9688 21.6664 51.3136 20.5921 54.5348C19.5505 57.5739 19.4928 61.1085 20.415 65.3416C21.1609 69.3891 23.1634 73.5504 26.2057 77.3762C27.9655 79.5674 29.8534 81.1852 31.977 82.322C33.0664 82.9052 34.2139 83.3654 35.485 83.7292C38.0313 84.8985 42.5299 85.9618 47.5244 86.5755C52.7592 87.2188 57.5122 87.2428 60.5648 86.6414C67.6548 86.3793 69.358 83.3094 71.9365 78.6625C72.8623 76.9934 73.9118 75.1017 75.3627 73.0485C76.4398 71.4596 77.4474 70.0163 78.3368 68.7431C82.9808 62.0899 85.312 58.7504 84.5998 53.397C84.4373 51.0149 82.8486 48.9522 80.006 47.4305C79.6116 47.2194 79.1893 47.0164 78.7498 46.8271C77.8388 46.1892 76.8205 45.568 75.7167 44.9771ZM31.9454 82.3705C29.8135 81.2292 27.9192 79.606 26.1535 77.4079C23.1054 73.5746 21.0991 69.4047 20.3518 65.3493C19.4276 61.108 19.4859 57.5641 20.5302 54.5168C21.6075 51.2873 23.9452 47.9353 27.4791 44.5536C32.9874 38.5012 39.4863 34.8555 44.4384 35.0402C47.3836 34.991 50.1335 35.8558 52.6977 36.7459C56.3692 37.5892 60.9509 39.1525 65.3291 40.6814C68.6207 41.7857 72.433 43.1539 75.7484 44.9287C76.8543 45.5207 77.8752 46.1436 78.7822 46.7796C79.2173 46.9662 79.6415 47.1698 80.0377 47.382C82.9006 48.9145 84.5002 50.9935 84.6639 53.3943C85.3783 58.7654 83.0434 62.1104 78.3915 68.7743C77.5027 70.0475 76.4953 71.4908 75.418 73.0798C73.9685 75.1306 72.9196 77.0212 71.9942 78.6891C70.6635 81.0876 69.6126 82.9819 67.9753 84.3619C66.205 85.8538 63.923 86.574 60.5754 86.6976C57.5214 87.2998 52.7599 87.2761 47.5179 86.632C42.5167 86.0173 38.0099 84.9519 35.4624 83.7814C34.1914 83.4182 33.0392 82.956 31.9454 82.3705Z" fill="#4CAF4F"/>
<path d="M73.2117 44.4048C70.986 43.2134 68.3532 42.0639 65.1628 40.8911C59.9565 38.9014 55.8192 37.6573 52.5138 37.0874C49.6061 36.2112 47.1145 35.6563 44.3917 35.7931C39.6217 35.7297 33.3414 39.2092 27.9997 44.8739C24.406 48.1168 22.016 51.3174 20.8946 54.3886C19.7806 57.3431 19.66 60.7937 20.5255 64.9372C21.4375 70.2319 24.287 74.5626 26.5168 77.2633C28.1806 79.2592 29.9563 80.7472 31.9452 81.8119C33.2279 82.4986 34.6044 83.0166 36.1532 83.3956C41.1935 85.5877 53.729 87.2452 60.1436 86.0043C67.0267 85.7343 68.7835 82.79 71.4424 78.3335C72.3455 76.8199 73.369 75.1044 74.7321 73.2515C75.747 71.802 76.7018 70.4751 77.5443 69.3046C82.1245 62.9408 84.4235 59.7464 83.8164 54.5846C83.7113 51.9819 81.9706 49.705 78.7821 47.9982C78.6437 47.9241 78.5007 47.8502 78.357 47.7784C76.8894 46.5759 75.2083 45.4736 73.2117 44.4048ZM31.9135 81.8604C29.9167 80.7914 28.1347 79.2984 26.4654 77.2957C24.2311 74.5895 21.3762 70.2499 20.4623 64.9444C19.5947 60.7921 19.7159 57.3327 20.8334 54.3689C21.9576 51.2899 24.3526 48.0818 27.9512 44.8347C33.303 39.1594 39.6019 35.6725 44.3878 35.7362C47.1187 35.5989 49.6172 36.1552 52.5281 37.0325C55.8338 37.6022 59.9756 38.8476 65.1856 40.8387C68.3787 42.0126 71.0146 43.1633 73.2434 44.3564C75.2441 45.4274 76.9286 46.532 78.3935 47.7332C78.5311 47.8011 78.6748 47.8753 78.8138 47.9497C82.0227 49.6675 83.7748 51.9613 83.8804 54.5827C84.4897 59.7623 82.1869 62.9619 77.599 69.3366C76.7568 70.507 75.8019 71.8333 74.7865 73.2832C73.4249 75.1347 72.402 76.849 71.4996 78.3617C68.8307 82.8346 67.0673 85.7897 60.1544 86.0605C53.7337 87.3031 41.1762 85.6427 36.1322 83.4486C34.5838 83.0699 33.2016 82.5499 31.9135 81.8604Z" fill="#4CAF4F"/>
<path d="M70.797 43.7698C69.0518 42.8356 67.1562 41.9618 65.0029 41.0989C60.1129 39.0661 55.8475 37.8274 52.3246 37.417C49.9233 36.8063 47.2949 36.2763 44.3167 36.5243C39.7087 36.5767 33.6297 39.8886 28.4497 45.1679C24.7403 48.3132 22.3645 51.2797 21.1847 54.239C20.0003 57.1047 19.821 60.4675 20.6359 64.5203C21.3284 68.7901 23.5333 73.269 26.8445 77.1328C28.4208 78.9555 30.0931 80.3265 31.9567 81.3241C33.4211 82.108 35.021 82.6722 36.8481 83.0491C41.7518 85.0555 53.518 86.551 59.7596 85.3743C66.4434 85.1026 68.2565 82.2867 71.0011 78.0238C71.8728 76.6698 72.8611 75.135 74.1281 73.4869C75.074 72.1841 75.9691 70.9811 76.7594 69.9197C81.2799 63.8484 83.5488 60.8008 83.0408 55.8291C82.9951 52.402 80.2542 50.1087 77.9631 48.7877L77.9566 48.783C76.0244 46.9543 73.6824 45.3144 70.797 43.7698ZM31.9251 81.3724C30.054 80.3708 28.3756 78.995 26.7937 77.1663C23.4758 73.2942 21.2662 68.8057 20.5723 64.5271C19.7555 60.465 19.9358 57.0928 21.1238 54.218C22.307 51.2508 24.6878 48.2771 28.4022 45.1279C33.5914 39.8391 39.6878 36.5201 44.3107 36.4674C47.2969 36.2188 49.9324 36.7501 52.3352 37.3615C55.8602 37.7718 60.1322 39.0121 65.0277 41.0473C67.1832 41.911 69.0806 42.7858 70.8286 43.7215C73.7182 45.2684 76.064 46.9107 78.0001 48.7424C80.3045 50.0716 83.059 52.3794 83.1052 55.8285C83.6149 60.8174 81.3419 63.8703 76.8137 69.9525C76.0237 71.0136 75.1281 72.2163 74.1825 73.5196C72.9159 75.1666 71.9286 76.7002 71.0575 78.0537C68.3026 82.3317 66.4829 85.1581 59.7702 85.4307C53.5227 86.6086 41.7357 85.1104 36.8295 83.1027C35.0021 82.7262 33.3956 82.1596 31.9251 81.3724Z" fill="#4CAF4F"/>
<path d="M68.6717 43.0704C67.4795 42.4322 66.1984 41.8151 64.8635 41.2359C60.1806 39.1321 55.7904 37.9052 52.167 37.6875C49.0931 37.059 46.7354 36.9151 44.2783 37.2057C42.0903 37.2913 39.5215 38.093 36.8469 39.5245C34.1562 40.9647 31.4186 43.0109 28.9301 45.4419C25.1502 48.451 22.7185 51.2786 21.4937 54.0887C20.2349 56.8684 19.9915 60.1478 20.7494 64.1143C21.4156 68.5272 23.6899 73.1099 27.1536 77.0194C28.6455 78.6885 30.2188 79.9541 31.9637 80.8882C33.5952 81.7615 35.4097 82.3586 37.5111 82.7136C42.3245 84.5479 53.333 85.837 59.3291 84.7287C65.8196 84.4455 67.7002 81.7497 70.5469 77.669C71.3805 76.4742 72.3251 75.1198 73.4904 73.6751C74.3607 72.5228 75.156 71.4937 75.9248 70.4989C80.406 64.6995 82.6554 61.7886 82.2553 56.9958C82.3075 53.5804 79.7371 51.1531 77.572 49.7179L77.5658 49.7128C75.2889 47.2456 72.2965 45.0108 68.6717 43.0704ZM31.9321 80.9366C30.18 79.9987 28.6007 78.7285 27.1037 77.0536C23.6324 73.1358 21.3533 68.5428 20.6857 64.1206C19.926 60.1445 20.1706 56.8553 21.4336 54.0661C22.6618 51.2481 25.0988 48.4136 28.8837 45.4007C31.3741 42.9679 34.1163 40.9183 36.8121 39.4756C39.4954 38.0393 42.0744 37.2349 44.2702 37.1491C46.7326 36.8577 49.0972 37.0018 52.174 37.6313C55.801 37.8489 60.2 39.078 64.8905 41.1851C66.2264 41.7649 67.5095 42.3829 68.7033 43.022C72.3333 44.9652 75.3307 47.2036 77.6126 49.6749C79.7896 51.1188 82.3721 53.5603 82.3193 56.9962C82.7211 61.8061 80.4677 64.7225 75.9785 70.5322C75.2095 71.5272 74.4146 72.5558 73.5437 73.7087C72.3791 75.1527 71.435 76.5062 70.6019 77.7006C67.7453 81.7956 65.8579 84.501 59.3398 84.785C56.601 85.2916 52.4513 85.3224 47.9601 84.8693C43.7423 84.4438 39.83 83.658 37.4944 82.7675C35.3921 82.4133 33.5705 81.8137 31.9321 80.9366Z" fill="#4CAF4F"/>
<path d="M66.9201 42.5175C66.2137 42.1393 65.4774 41.7708 64.7316 41.4218C60.1381 39.2022 55.7406 38.0198 52.0136 38.0018C49.1527 37.5643 46.7579 37.5412 44.2435 37.9266C39.8937 38.2231 34.3531 41.1437 29.4195 45.7397C25.5694 48.6067 23.084 51.2919 21.8188 53.951C20.4869 56.6412 20.1821 59.8343 20.8865 63.7133C21.5289 68.2667 23.8762 72.9515 27.4959 76.906C28.9107 78.4388 30.3942 79.6097 32.031 80.4859C33.8186 81.4428 35.8404 82.0624 38.2122 82.3801C42.8319 84.0025 53.2986 85.1126 58.939 84.0974C65.247 83.8057 67.2032 81.2297 70.1631 77.3304C70.9459 76.2994 71.8328 75.1307 72.8851 73.8944C73.6695 72.9011 74.3933 72.003 75.0933 71.1344C79.4074 65.7798 81.7839 62.8302 81.4888 58.2116C81.6366 54.8124 79.2352 52.2503 77.1945 50.6991C74.6311 47.5468 71.1762 44.7958 66.9201 42.5175ZM31.9993 80.5344C30.3558 79.6547 28.8665 78.4791 27.4468 76.9408C23.819 72.9779 21.4666 68.2825 20.8228 63.7192C20.1165 59.8301 20.4228 56.6266 21.7596 53.9269C23.0281 51.2602 25.5192 48.5681 29.3747 45.6974C34.3159 41.0941 39.8713 38.1672 44.233 37.8701C46.752 37.4838 49.1536 37.5069 52.0168 37.9451C55.749 37.9627 60.1575 39.1478 64.76 41.3717C65.5069 41.7212 66.2447 42.0905 66.9518 42.4691C71.2157 44.7516 74.6773 47.5079 77.2409 50.6618C79.2871 52.2164 81.7019 54.7936 81.5532 58.2134C81.8493 62.8489 79.4685 65.804 75.1462 71.1687C74.4463 72.0373 73.7228 72.9353 72.9373 73.9292C71.8857 75.1648 70.9993 76.3328 70.2171 77.3635C67.2465 81.2762 65.2841 83.8611 58.9495 84.1538C56.2775 84.6349 52.434 84.6824 48.1313 84.2869C44.1772 83.9234 40.4636 83.2308 38.1977 82.4346C35.8244 82.1176 33.7946 81.4955 31.9993 80.5344Z" fill="#4CAF4F"/>
<path d="M65.4774 42.0734C65.175 41.9115 64.8654 41.751 64.5574 41.5963C60.0321 39.2546 55.6302 38.1173 51.8274 38.3075C49.1894 38.0462 46.7615 38.1517 44.1812 38.6393C39.9949 39.0559 34.654 41.8173 29.8913 46.0264C25.916 48.7868 23.4507 51.2558 22.1304 53.7984C20.7255 56.3962 20.3592 59.5013 21.0099 63.2915C21.6181 67.9151 24.0997 72.8249 27.8184 76.7631C29.1609 78.1737 30.5607 79.2593 32.0975 80.0819C34.0567 81.1307 36.2134 81.7443 38.885 82.013C43.3348 83.4326 53.0741 84.3801 58.5057 83.4297C64.6432 83.1274 66.6856 80.6673 69.7774 76.9433C70.4932 76.0814 71.3043 75.1046 72.2279 74.0819C72.9143 73.2564 73.5543 72.4983 74.1736 71.7654C78.4815 66.665 80.8547 63.8557 80.6671 59.4034C80.9102 56.0249 78.6795 53.3288 76.7655 51.6614C74.0456 47.8851 70.1434 44.5712 65.4774 42.0734ZM32.0658 80.1305C30.5225 79.3043 29.1171 78.2145 27.7698 76.7987C24.0428 72.8517 21.5559 67.9302 20.9463 63.2965C20.2936 59.496 20.6617 56.3804 22.072 53.7726C23.3962 51.2222 25.8672 48.7468 29.8477 45.9832C34.6171 41.7679 39.9717 39.0007 44.1685 38.5832C46.7524 38.0946 49.1868 37.9889 51.8265 38.2508C55.6368 38.0599 60.0515 39.1998 64.5877 41.5471C64.8959 41.702 65.2059 41.8629 65.509 42.0251C70.1842 44.5278 74.0935 47.8479 76.8142 51.6269C78.7338 53.2977 80.976 56.0089 80.7316 59.4065C80.9197 63.8754 78.5422 66.6904 74.2257 71.8006C73.6066 72.5335 72.9663 73.2913 72.2798 74.1176C71.3561 75.1403 70.5452 76.1168 69.8299 76.9782C68.2316 78.9032 66.9695 80.4236 65.3049 81.5388C63.5077 82.7429 61.4141 83.3437 58.5163 83.4862C55.9536 83.9346 52.3124 83.9999 48.2673 83.669C44.5801 83.3673 41.0683 82.7689 38.873 82.0681C36.1989 81.7999 34.0335 81.1838 32.0658 80.1305Z" fill="#4CAF4F"/>
<path d="M64.0693 41.5401C59.7227 39.2132 55.4411 38.1912 51.6873 38.5848C49.2159 38.4806 46.8957 38.7099 44.1593 39.3286C40.1287 39.8685 34.9816 42.4774 30.3871 46.308C26.3332 48.9266 23.8138 51.2609 22.4553 53.6562C20.9951 56.1302 20.5527 59.2379 21.1397 62.8944C21.72 67.6605 24.2725 72.6775 28.143 76.6599C29.4187 77.9632 30.7422 78.9729 32.1887 79.7473C34.2864 80.8702 36.6302 81.4868 39.5645 81.6871C43.9962 82.9457 52.8575 83.6858 58.094 82.7946C64.087 82.4762 66.1224 80.2458 69.4948 76.5506C70.1528 75.8299 70.8327 75.0849 71.6087 74.2808C72.1807 73.6312 72.7224 73.0235 73.2458 72.4356C77.5838 67.5679 79.9731 64.8866 79.8988 60.5813C80.239 57.2208 78.1794 54.3867 76.3919 52.6003C73.5608 48.1774 69.428 44.4236 64.4367 41.7397C64.3136 41.672 64.1916 41.6056 64.0693 41.5401ZM32.1569 79.796C30.7042 79.0183 29.3754 78.0043 28.095 76.6963C24.2157 72.7047 21.6574 67.6759 21.0759 62.8992C20.4871 59.232 20.9318 56.1127 22.3979 53.6287C23.7606 51.2258 26.2858 48.8854 30.345 46.2636C34.9451 42.428 40.1048 39.8138 44.1441 39.2728C46.8838 38.6532 49.2098 38.4233 51.6825 38.528C55.4455 38.1331 59.7415 39.1578 64.101 41.4915C64.2236 41.5571 64.3458 41.6237 64.4687 41.6916C69.4698 44.3806 73.6107 48.1419 76.4435 52.5687C78.2358 54.3588 80.3051 57.2074 79.9629 60.5855C80.0378 64.9076 77.6433 67.5944 73.2972 72.4721C72.7733 73.0598 72.232 73.6674 71.6592 74.3178C70.8827 75.1223 70.2032 75.8672 69.5456 76.5874C67.8606 78.4337 66.5297 79.8918 64.8365 80.963C63.0108 82.1184 60.9346 82.7007 58.1042 82.8511C55.6488 83.2692 52.2067 83.3541 48.4163 83.0896C44.9948 82.8508 41.6818 82.3473 39.5546 81.7425C36.6172 81.5429 34.2639 80.9239 32.1569 79.796Z" fill="#4CAF4F"/>
<path d="M63.338 41.368C59.2275 39.1676 55.1422 38.3072 51.5239 38.8797C49.2788 38.917 46.9937 39.2715 44.1094 40.0297C40.2269 40.6908 35.2726 43.1422 30.8535 46.588C26.6615 49.0926 24.1642 51.2244 22.7526 53.5031C21.2186 55.8862 20.7133 58.907 21.25 62.4824C21.8067 67.3904 24.4367 72.5152 28.4661 76.5438C29.6819 77.7514 30.9371 78.6938 32.303 79.425C34.5352 80.6199 37.0622 81.2332 40.2555 81.3552C44.4932 82.3999 52.6973 82.9898 57.7064 82.1676C63.5919 81.8344 65.7558 79.6912 69.3413 76.1407C69.87 75.6176 70.4166 75.0758 71.0137 74.5021C71.448 74.0412 71.8677 73.5989 72.2714 73.1734C76.6794 68.5282 79.1073 65.9695 79.1464 61.7935C79.5799 58.4555 77.6881 55.4812 76.0253 53.5734C73.2722 48.7613 69.2206 44.7301 64.3042 41.9102C63.9842 41.7223 63.6591 41.5399 63.338 41.368ZM32.2713 79.4734C30.8996 78.7391 29.6394 77.7929 28.4187 76.5806C24.3801 72.5427 21.7439 67.4058 21.1861 62.4867C20.6474 58.9002 21.1555 55.8672 22.6961 53.474C24.1124 51.1878 26.6157 49.05 30.813 46.5423C35.2368 43.0928 40.202 40.6366 44.0918 39.9745C46.9787 39.2153 49.269 38.8601 51.5151 38.8232C55.1442 38.2486 59.245 39.1117 63.3696 41.3196C63.6915 41.492 64.0174 41.6747 64.3383 41.8631C69.264 44.6883 73.3241 48.7279 76.0788 53.5445C77.7463 55.4563 79.6461 58.4448 79.2105 61.7993C79.1717 65.9923 76.7385 68.5563 72.3215 73.2111C71.9178 73.6367 71.4982 74.0788 71.0629 74.5407C70.4649 75.1151 69.9184 75.6563 69.3901 76.1798C67.5953 77.9567 66.1784 79.3602 64.4415 80.3911C62.5704 81.5013 60.4965 82.0668 57.7167 82.224C52.7031 83.0471 44.4852 82.4564 40.2478 81.4112C37.0504 81.2898 34.5134 80.6737 32.2713 79.4734Z" fill="#4CAF4F"/>
<path d="M62.7417 41.2675C58.809 39.1623 54.8727 38.4422 51.3581 39.1854C48.9848 39.3715 46.7265 39.9425 44.0646 40.743C40.2679 41.5402 35.6294 43.7767 31.3356 46.8794C28.4572 48.4636 24.9198 50.6299 23.0713 53.3593C21.4637 55.6491 20.8947 58.5811 21.38 62.0738C21.9027 67.0464 24.6754 72.4091 28.7975 76.4198C29.9563 77.5408 31.1471 78.4214 32.4376 79.1123C34.8284 80.3921 37.451 80.9775 40.9417 81.0095C45.0542 81.8551 52.6029 82.2622 57.2955 81.5214C63.1223 81.1666 65.4558 79.0898 69.3221 75.6489C69.6641 75.345 70.0173 75.0304 70.3854 74.7059C70.6482 74.4482 70.9064 74.196 71.1582 73.9492C75.5472 69.656 78.1961 67.0644 78.3572 62.9941C78.8834 59.6834 77.1631 56.5703 75.6272 54.541C73.0046 49.4212 68.9315 44.9995 64.1561 42.086C63.6887 41.7951 63.2128 41.5198 62.7417 41.2675ZM32.4059 79.1607C31.1097 78.4668 29.9139 77.5827 28.7506 76.4575C26.8181 74.5768 25.125 72.3355 23.8542 69.9749C22.4459 67.3591 21.5917 64.7023 21.316 62.0779C20.829 58.5727 21.4009 55.6286 23.0158 53.3283C24.8709 50.5892 28.4158 48.4181 31.2968 46.8326C35.5944 43.7269 40.2419 41.4867 44.0445 40.6882C46.708 39.8871 48.9704 39.3151 51.3453 39.1293C54.8722 38.3833 58.8255 39.1057 62.7733 41.2191C63.2457 41.472 63.723 41.7482 64.1915 42.0397C66.5727 43.4923 68.7672 45.2963 70.7136 47.4014C72.6861 49.5342 74.3578 51.9276 75.683 54.5149C77.2226 56.5483 78.95 59.6756 78.4211 63.0013C78.2597 67.0889 75.6051 69.6859 71.207 73.9886C70.9546 74.2349 70.6969 74.4872 70.4331 74.746C70.0635 75.0714 69.7104 75.386 69.3688 75.6899C65.4925 79.1398 63.1527 81.2222 57.3058 81.5779C52.6087 82.3192 45.0484 81.9118 40.9364 81.0659C37.4406 81.034 34.8076 80.4464 32.4059 79.1607Z" fill="#4CAF4F"/>
<path d="M62.2178 41.2062C58.4212 39.1738 54.599 38.5786 51.1648 39.4849C48.7758 39.8264 46.4524 40.614 43.9927 41.4479C40.3206 42.3771 35.8745 44.4586 31.792 47.1595C28.6748 48.7306 25.2386 50.6756 23.3662 53.2011C21.6852 55.3958 21.0532 58.2381 21.4881 61.6488C21.9857 66.7572 24.8349 72.2253 29.1096 76.2771C30.2155 77.3193 31.3469 78.144 32.5688 78.7981C35.0829 80.1439 37.8711 80.7139 41.6088 80.646C45.574 81.2846 52.3611 81.5392 56.8656 80.8598C62.7309 80.4753 65.3095 78.4222 69.5819 75.0205L69.737 74.8972L69.8555 74.7915C74.467 70.6753 77.2508 68.1909 77.5444 64.186C78.1616 60.9072 76.6126 57.6541 75.2046 55.5019C72.6784 50.0096 68.6929 45.3073 63.9805 42.257C63.3996 41.8749 62.8067 41.5214 62.2178 41.2062ZM32.5371 78.8466C31.3098 78.1896 30.1737 77.3615 29.0635 76.3149C24.7786 72.2538 21.9228 66.7724 21.424 61.6522C20.9879 58.2283 21.623 55.3739 23.3121 53.1682C25.1916 50.6332 28.635 48.6841 31.7555 47.1113C35.8404 44.4086 40.2938 42.3241 43.9703 41.3938C46.4304 40.5597 48.7566 39.771 51.148 39.4294C54.5963 38.5191 58.4364 39.1166 62.2495 41.1578C62.8401 41.4739 63.4349 41.8285 64.0173 42.2117C68.7397 45.2682 72.7331 49.9801 75.2619 55.4786C76.6732 57.6353 78.2281 60.9018 77.6084 64.1947C77.3134 68.2174 74.5237 70.7073 69.902 74.8323L69.7822 74.9391L69.6258 75.0636C65.3438 78.473 62.7594 80.5307 56.8761 80.9163C52.3671 81.5961 45.5705 81.3417 41.6061 80.7024C37.8621 80.7711 35.0628 80.1987 32.5371 78.8466Z" fill="#4CAF4F"/>
<path d="M61.8302 41.1626C58.1425 39.1885 54.4115 38.709 51.04 39.7758C49.1105 40.1835 47.1975 40.9185 45.1722 41.6964C44.7855 41.8451 44.3918 41.9962 43.9897 42.1485C40.3976 43.2288 36.1431 45.1585 32.3156 47.4435C29.1352 48.904 25.6304 50.7111 23.7259 53.0539C21.9705 55.1544 21.2741 57.9084 21.6566 61.2394C22.1258 66.4855 25.0475 72.0603 29.4722 76.1521C30.5277 77.1234 31.6036 77.897 32.7613 78.5168C35.3944 79.9263 38.343 80.4751 42.3217 80.2962C46.1001 80.7193 52.173 80.8239 56.4797 80.2052C62.0951 79.8039 65.0061 78.0036 69.1337 75.0864C73.5972 71.5336 76.3555 69.1627 76.7824 65.367C77.4904 62.121 76.1154 58.7262 74.8374 56.4494C72.4168 50.5861 68.5225 45.6031 63.8698 42.4146C63.1998 41.9496 62.5136 41.5284 61.8302 41.1626ZM32.7297 78.5652C31.5668 77.9427 30.4864 77.1661 29.4265 76.1909C24.9914 72.0889 22.063 66.5009 21.5926 61.2424C21.2087 57.8976 21.9087 55.1306 23.6734 53.0192C25.5851 50.6674 29.0975 48.8562 32.2811 47.3942C36.11 45.1082 40.3696 43.1762 43.9648 42.0952C44.3645 41.9438 44.758 41.7926 45.1446 41.644C47.1726 40.865 49.0879 40.1294 51.0194 39.7211C52.6461 39.2063 54.3825 39.0514 56.1772 39.2617C58.0664 39.4831 59.979 40.1064 61.8618 41.1142C62.5475 41.4813 63.2358 41.9039 63.908 42.3703C68.5706 45.5653 72.4728 50.558 74.8963 56.4287C76.1772 58.7104 77.5568 62.1183 76.8461 65.3773C76.4174 69.1907 73.6522 71.5678 69.1763 75.1303C65.0387 78.0552 62.1206 79.8594 56.4898 80.2617C52.1797 80.8811 46.099 80.7765 42.3218 80.3529C38.335 80.5325 35.3748 79.9812 32.7297 78.5652Z" fill="#4CAF4F"/>
<path d="M61.4301 41.1681C57.8255 39.2385 54.1631 38.8641 50.8396 40.0858C49.2305 40.5403 47.6386 41.2395 45.953 41.9797C45.2943 42.2689 44.613 42.5681 43.9056 42.864C41.2773 43.7896 37.2101 45.3855 32.7502 47.736C29.3393 49.1496 25.9197 50.7539 23.9929 52.9105C22.1624 54.9148 21.4034 57.5808 21.7371 60.834C22.1822 66.2195 25.1837 71.9037 29.7669 76.0394C30.7629 76.9344 31.8183 77.6829 32.9033 78.2638C35.6559 79.7373 38.7647 80.2629 42.9831 79.9684C46.2692 80.1609 51.6607 80.1752 56.0564 79.5816C61.316 79.1738 64.4879 77.7673 68.5022 75.3138C73.0537 72.1811 75.4621 69.9713 75.9917 66.5892C76.7861 63.3795 75.5825 59.8399 74.4326 57.4353C72.1149 51.2007 68.3035 45.9333 63.699 42.6008C62.9557 42.0581 62.1923 41.5761 61.4301 41.1681ZM32.8717 78.3122C31.7818 77.7288 30.722 76.9772 29.722 76.0785C27.5959 74.16 25.7349 71.8066 24.3398 69.2729C22.8236 66.5188 21.9015 63.6013 21.6729 60.8365C21.3377 57.5686 22.1011 54.8895 23.9421 52.8737C25.8764 50.7089 29.3032 49.1008 32.7182 47.6856C37.179 45.3344 41.2494 43.7373 43.878 42.8117C44.5831 42.5166 45.2641 42.2176 45.9227 41.9285C47.6101 41.1873 49.2041 40.4873 50.8152 40.0322C52.4189 39.4427 54.1269 39.2237 55.8894 39.3825C57.7458 39.5496 59.6206 40.1341 61.4618 41.1197C62.2268 41.5292 62.9927 42.0129 63.7386 42.5573C68.353 45.8969 72.172 51.1742 74.4927 57.4172C75.6451 59.8273 76.8526 63.3793 76.0547 66.6013C75.7925 68.2792 75.0363 69.7465 73.6759 71.2166C72.3091 72.6932 70.4007 74.0806 68.5416 75.3602C64.5173 77.8197 61.338 79.2294 56.0664 79.638C51.6681 80.2321 46.2708 80.218 42.9862 80.0249C38.7578 80.3209 35.6369 79.7925 32.8717 78.3122Z" fill="#4CAF4F"/>
<path d="M61.1127 41.1627C57.5807 39.2719 53.9787 38.9992 50.6961 40.3743C49.3263 40.8645 47.97 41.5465 46.5342 42.2685C45.6876 42.694 44.8121 43.1344 43.8853 43.56C43.2385 43.825 42.5616 44.0992 41.8589 44.3839C39.2445 45.4431 36.2814 46.6437 33.2581 48.0125C29.2356 49.5056 26.1807 50.8828 24.3402 52.7528C22.4354 54.6601 21.6127 57.2368 21.8955 60.4111C22.306 65.8506 25.4577 71.7843 30.1205 75.8972C31.0727 76.7337 32.0783 77.438 33.1093 77.9899C36.0138 79.5447 39.1769 80.0267 43.6857 79.6018C45.2268 79.6004 50.6343 79.5467 55.659 78.9126C60.3663 78.511 63.908 77.5199 67.8855 75.4915C71.2535 73.5736 74.4731 71.3093 75.2124 67.762C75.909 65.2535 75.5059 62.0091 74.0469 58.3779C71.8422 51.7787 68.1209 46.2315 63.5686 42.7572C62.7664 42.1422 61.9402 41.6057 61.1127 41.1627ZM33.0776 78.0384C32.042 77.484 31.0322 76.7768 30.0762 75.9366C27.8875 74.0062 25.9723 71.6167 24.5374 69.0262C22.9801 66.2149 22.0444 63.2365 21.8314 60.413C21.5473 57.2233 22.3749 54.6329 24.2912 52.7143C26.1392 50.8365 29.2007 49.4561 33.2291 47.9606C36.2514 46.5922 39.2152 45.3914 41.8302 44.332C42.5327 44.0473 43.2096 43.773 43.8551 43.5087C44.7796 43.084 45.6545 42.6441 46.5007 42.2187C47.9386 41.4959 49.2965 40.8131 50.6684 40.322C52.2524 39.6583 53.9358 39.3769 55.6708 39.4859C57.4987 39.6006 59.3402 40.1485 61.1443 41.1142C61.9751 41.559 62.8046 42.0975 63.6095 42.7148C68.1715 46.1965 71.9001 51.7536 74.1079 58.3622C75.5705 62.0025 75.9747 65.2585 75.2753 67.7761C74.9506 69.3341 74.1553 70.7269 72.8438 72.0316C71.7134 73.1566 70.1491 74.2717 67.9206 75.5404C63.9334 77.5738 60.3845 78.567 55.6688 78.9694C50.6419 79.6036 45.2305 79.6571 43.6918 79.6585C39.171 80.0848 35.9955 79.6004 33.0776 78.0384Z" fill="#4CAF4F"/>
<path d="M60.8185 41.1703C57.3933 39.3368 53.7415 39.156 50.5356 40.6614C49.3511 41.1797 48.1757 41.8529 46.9311 42.5658C45.9493 43.1281 44.934 43.7097 43.8411 44.2575C41.1423 45.5341 37.9015 46.7408 34.4708 48.0185L33.7317 48.2938C30.2663 49.4331 26.711 50.7042 24.6448 52.6038C22.6635 54.4147 21.7768 56.9046 22.0093 60.0043C22.3923 65.5835 25.6223 71.6305 30.439 75.7857C31.3507 76.5699 32.3107 77.2337 33.2923 77.7592C37.0896 79.792 41.0216 79.664 44.367 79.2705C46.4473 79.1312 50.6251 78.8175 55.2525 78.2791C59.0616 77.9192 63.1533 77.3581 67.2722 75.7022C71.4132 73.895 73.6919 71.7529 74.4424 68.9611C75.2164 66.4495 74.956 63.2121 73.6689 59.3377C71.5776 52.3695 67.9429 46.5375 63.4344 42.9156C62.5828 42.2308 61.7028 41.6437 60.8185 41.1703ZM33.2606 77.8076C32.2747 77.2799 31.3105 76.613 30.3949 75.8258C25.5669 71.6605 22.329 65.5986 21.9452 60.0055C21.7113 56.8898 22.6038 54.3857 24.5974 52.5634C26.6727 50.6556 30.235 49.3818 33.7058 48.2406L34.4438 47.9657C37.8733 46.6888 41.1126 45.4824 43.8083 44.2073C44.8991 43.6607 45.9136 43.0795 46.8946 42.5175C48.1408 41.804 49.3177 41.1298 50.5045 40.6105C52.074 39.8735 53.7391 39.5309 55.4534 39.5923C57.2598 39.6572 59.0755 40.1717 60.8502 41.1218C61.7381 41.5971 62.6218 42.1867 63.4766 42.874C67.9944 46.5038 71.6363 52.3461 73.7309 59.3245C75.0211 63.2085 75.2818 66.4565 74.5051 68.9773C73.7499 71.7849 71.461 73.9386 67.3015 75.7538C63.1739 77.4133 59.0763 77.9756 55.2627 78.3357C50.6345 78.874 46.4554 79.1878 44.3764 79.3271C41.0214 79.7219 37.0757 79.8499 33.2606 77.8076Z" fill="#4CAF4F"/>
<path d="M65.4419 40.8425C62.0651 39.0349 58.4536 38.9503 55.2723 40.6042C54.2384 41.1437 53.2091 41.8114 52.1195 42.518C51.0377 43.2199 49.9189 43.9455 48.6957 44.6108C46.3223 45.9016 43.4544 46.9842 39.1064 48.2306C35.4185 49.29 31.9358 50.384 29.8531 52.11C27.7958 53.8237 26.845 56.2262 27.0271 59.2515C27.3815 64.9696 30.6885 71.1284 35.6574 75.3246C36.5302 76.0602 37.4469 76.6867 38.382 77.1873C42.322 79.2964 46.4378 79.0787 49.944 78.5875C50.5147 78.507 51.0991 78.423 51.6981 78.3366C54.0857 77.9931 56.7917 77.6036 59.7381 77.2929C60.4359 77.2193 61.1574 77.1493 61.8554 77.0817C65.1152 76.7654 68.4858 76.4384 71.548 75.5605C75.1577 74.5243 77.6479 72.4818 78.5596 69.8093C79.3983 67.3332 79.2705 64.0157 78.1795 59.9487C76.2047 52.6141 72.6585 46.4983 68.1936 42.7277C67.3009 41.9763 66.375 41.342 65.4419 40.8425ZM38.3503 77.2358C37.4111 76.7331 36.4904 76.1037 35.6139 75.3653C30.633 71.1588 27.3181 64.9847 26.9628 59.2522C26.7796 56.21 27.7369 53.7929 29.8081 52.0679C31.8999 50.3344 35.3897 49.2377 39.0844 48.1763C43.4276 46.9312 46.2915 45.8504 48.6604 44.5619C49.8816 43.8977 50.9992 43.1728 52.0802 42.4716C53.171 41.764 54.2014 41.0958 55.2383 40.5549C56.7959 39.7451 58.4457 39.3424 60.1426 39.3579C61.9306 39.3745 63.7242 39.8576 65.4735 40.794C66.4109 41.2958 67.3406 41.9328 68.237 42.6871C70.4602 44.5647 72.4635 47.0317 74.1915 50.0199C75.9055 52.9841 77.2681 56.3208 78.2421 59.9376C79.3356 64.0145 79.4632 67.342 78.6214 69.8278C77.7038 72.5176 75.1994 74.5732 71.5698 75.6149C68.5019 76.4944 65.1277 76.8218 61.8648 77.1385C61.1671 77.206 60.4458 77.276 59.7484 77.3498C56.8031 77.6599 54.0979 78.0493 51.7108 78.3929C51.1122 78.4792 50.5272 78.5632 49.9566 78.6438C46.4384 79.1368 42.3086 79.3548 38.3503 77.2358Z" fill="#4CAF4F"/>
<path d="M60.081 41.7618C56.7191 39.9621 53.1907 39.8374 50.1457 41.4109C49.0668 41.9677 48.0131 42.6552 46.8977 43.3831C45.9048 44.0311 44.8781 44.7011 43.7564 45.3288C43.2296 45.6214 42.6585 45.9128 42.059 46.1948C40.071 47.1301 37.7434 47.982 34.5117 48.9571C30.9699 50.0315 27.6246 51.137 25.617 52.8439C23.6361 54.5349 22.7174 56.8797 22.886 59.8133C23.078 63.1952 24.3266 66.6476 26.4964 69.7975C27.8682 71.8291 29.6068 73.7288 31.5244 75.2918C32.3646 75.9858 33.2466 76.5818 34.1457 77.0631C36.5614 78.3563 39.2158 78.9165 42.4987 78.8257C43.399 78.7985 44.3607 78.7219 45.4383 78.5914C46.2859 78.4937 47.1541 78.3881 48.0733 78.2765C50.1337 78.0265 52.4687 77.7428 54.9574 77.5042C55.3644 77.4664 55.7741 77.4294 56.1862 77.3923C58.9889 77.139 61.8872 76.8774 64.6082 76.2657C65.2545 76.1207 65.8758 75.9594 66.4544 75.786C69.9369 74.7491 72.3514 72.7409 73.2533 70.1316C74.092 67.6955 73.9955 64.4618 72.9672 60.5207C72.2997 57.8709 71.2854 55.2549 69.9526 52.7455C69.0344 50.992 67.9688 49.3196 66.7855 47.7751C65.5959 46.2255 64.3391 44.9122 62.8296 43.642C61.9414 42.8953 61.0165 42.2626 60.081 41.7618ZM34.1141 77.1115C33.211 76.628 32.3251 76.0297 31.4816 75.3328C29.5594 73.7663 27.8167 71.8616 26.4418 69.8256C24.2662 66.6674 23.0143 63.2053 22.8216 59.814C22.6519 56.8637 23.5772 54.5046 25.5714 52.8021C27.588 51.0874 30.9401 49.9794 34.4888 48.9031C37.7173 47.9288 40.0422 47.078 42.0271 46.1443C42.6252 45.8628 43.195 45.5722 43.7206 45.2803C44.8404 44.6536 45.8661 43.9841 46.8581 43.3368C47.975 42.6079 49.0299 41.9197 50.1117 41.3614C53.1775 39.7772 56.7294 39.9022 60.1127 41.7133C61.0524 42.2164 61.981 42.8517 62.8727 43.6012C64.3859 44.8746 65.6461 46.1913 66.8383 47.7444C68.0237 49.2916 69.0909 50.9667 70.0107 52.7232C71.3454 55.2363 72.3614 57.8564 73.0302 60.5103C74.0609 64.461 74.1567 67.7045 73.315 70.1503C72.4069 72.7766 69.9787 74.7976 66.4772 75.8402C65.897 76.0139 65.2743 76.1756 64.6266 76.3208C61.9011 76.9337 59.0006 77.1956 56.1953 77.449C55.7832 77.4861 55.3734 77.523 54.9667 77.5611C52.4789 77.7995 50.245 78.0707 48.0844 78.3329C47.1652 78.4447 46.297 78.5503 45.4493 78.6479C44.3695 78.7786 43.406 78.8553 42.5036 78.8825C39.2073 78.9738 36.5415 78.411 34.1141 77.1115Z" fill="#4CAF4F"/>
<path d="M59.5857 42.321C56.2447 40.5325 52.8044 40.3687 49.8987 41.8598C48.7725 42.4343 47.6957 43.1422 46.5555 43.8918C45.6536 44.4847 44.7211 45.0978 43.7034 45.6843C43.1976 45.9717 42.6476 46.26 42.0684 46.5416C40.1473 47.4756 37.9095 48.3315 34.8128 49.3165C31.4207 50.4038 28.2163 51.5193 26.2856 53.2054C24.3834 54.8723 23.4976 57.1567 23.653 59.9957C23.8256 63.3392 25.0816 66.6799 27.2846 69.6567C28.6474 71.5716 30.332 73.3232 32.2924 74.8628C33.0982 75.5145 33.9434 76.0785 34.8043 76.5393C37.1667 77.8039 39.7625 78.3844 42.9738 78.3663C43.8489 78.3572 44.7799 78.3018 45.8202 78.197C47.0354 78.0895 48.307 77.9633 49.6531 77.8294C51.3655 77.6592 53.1359 77.4832 55.0549 77.319L55.2593 77.3025C58.3192 77.0581 61.483 76.8051 64.442 76.1039C65.0648 75.9569 65.6658 75.7933 66.2271 75.6178C69.5788 74.5812 71.9153 72.61 72.806 70.0669C73.6435 67.6731 73.5787 64.527 72.614 60.7162C72.0092 58.1413 71.0074 55.6391 69.5517 53.0659C68.6286 51.3905 67.5697 49.8055 66.315 48.2201C65.1743 46.7844 63.9832 45.5811 62.3325 44.1969C61.4488 43.4548 60.5247 42.8237 59.5857 42.321ZM34.7726 76.5879C33.9079 76.125 33.0593 75.5586 32.2503 74.9046C30.2856 73.3613 28.5967 71.6054 27.2311 69.6859C25.0216 66.7009 23.7618 63.3501 23.5887 59.9961C23.4325 57.1409 24.3242 54.8423 26.2395 53.164C28.1787 51.4705 31.3901 50.3525 34.7889 49.2628C37.8825 48.2789 40.1176 47.4241 42.0357 46.4915C42.6137 46.2105 43.1625 45.9226 43.6671 45.636C44.683 45.0505 45.6148 44.438 46.5159 43.8456C47.6572 43.0951 48.7357 42.3863 49.8648 41.8102C51.2936 41.077 52.8602 40.74 54.5212 40.8087C56.2195 40.8789 57.9341 41.3715 59.6173 42.2726C60.5605 42.7775 61.4885 43.4113 62.3758 44.1564C64.0301 45.5436 65.2239 46.7495 66.367 48.1888C67.6239 49.7768 68.6845 51.3644 69.6092 53.0423C71.0675 55.6198 72.071 58.1269 72.6768 60.7063C73.6441 64.5267 73.7085 67.6825 72.8676 70.0856C71.971 72.6456 69.6211 74.6295 66.2506 75.6716C65.6876 75.8478 65.0855 76.0114 64.4609 76.1589C61.4969 76.8613 58.3302 77.1144 55.2674 77.3592L55.0637 77.3757C53.1455 77.5399 51.3749 77.716 49.6627 77.886C48.3164 78.0198 47.0448 78.1462 45.8294 78.2538C44.7877 78.3585 43.8547 78.4141 42.9771 78.4233C39.753 78.4415 37.1459 77.8583 34.7726 76.5879Z" fill="#4CAF4F"/>
<path d="M59.0819 42.8744C55.8063 41.1209 52.3617 40.9124 49.631 42.3022C48.4518 42.8963 47.3507 43.6266 46.1849 44.3997C45.3736 44.9378 44.535 45.494 43.6209 46.0366C43.1346 46.3191 42.6047 46.6049 42.0458 46.8859C40.189 47.8195 38.0378 48.6797 35.0707 49.675C31.8233 50.7755 28.7548 51.9012 26.8979 53.5685C25.0717 55.213 24.2185 57.4401 24.3618 60.1876C24.5165 63.4973 25.783 66.7309 28.0246 69.5394C29.3578 71.3114 31.0392 72.9688 33.0221 74.4666C33.7938 75.0764 34.6024 75.6086 35.4256 76.0493C37.7396 77.288 40.2831 77.8911 43.4303 77.9474C44.2824 77.9564 45.1845 77.9226 46.1881 77.8439C47.938 77.739 49.8261 77.5904 51.825 77.4333C52.8944 77.349 54.0002 77.2619 55.1541 77.1761C58.157 76.9785 61.3358 76.724 64.2924 75.9859C64.8949 75.8365 65.476 75.6708 66.0203 75.4932C69.2462 74.4569 71.5077 72.5204 72.3879 70.0403C73.2249 67.6858 73.1904 64.6231 72.2858 60.9372C71.7344 58.4114 70.7439 56.017 69.1682 53.4011C68.2559 51.83 67.1721 50.2835 65.8539 48.6724C64.6149 47.1651 63.443 46.0938 61.8373 44.7524C60.9549 44.0126 60.0279 43.3808 59.0819 42.8744ZM35.3939 76.0977C34.5673 75.6552 33.7554 75.1206 32.9808 74.5087C30.9939 73.0078 29.3083 71.3461 27.9719 69.5702C25.7233 66.7532 24.4526 63.5086 24.2975 60.1877C24.1533 57.4243 25.0125 55.1834 26.8513 53.5278C28.7163 51.8527 31.7916 50.7242 35.0455 49.6216C38.0099 48.6272 40.1584 47.7681 42.0122 46.8362C42.5701 46.5556 43.0987 46.2704 43.584 45.9888C44.4963 45.447 45.3345 44.8913 46.1449 44.3538C47.3123 43.5794 48.415 42.8481 49.5973 42.2525C52.3485 40.8522 55.817 41.0611 59.1136 42.8258C60.0638 43.3345 60.9947 43.969 61.8806 44.7117C63.489 46.0554 64.6633 47.1291 65.9056 48.6402C67.2257 50.2539 68.3115 51.8029 69.2247 53.3762C70.8036 55.9971 71.7962 58.3968 72.3487 60.9279C73.256 64.623 73.2897 67.6954 72.4494 70.0594C71.563 72.5559 69.2886 74.5049 66.0444 75.5469C65.499 75.7249 64.9161 75.891 64.3123 76.0407C61.35 76.7802 58.1676 77.0351 55.1618 77.2328C54.0084 77.3187 52.9025 77.4057 51.8332 77.4898C49.834 77.6473 47.9456 77.7958 46.1959 77.9005C45.1904 77.9795 44.2862 78.0132 43.432 78.0044C40.2725 77.9479 37.7184 77.3421 35.3939 76.0977Z" fill="#4CAF4F"/>
<path d="M58.6039 43.3852C55.3553 41.6462 52.0031 41.4026 49.4066 42.7171C48.1708 43.3339 47.0463 44.0897 45.8557 44.8898C45.1361 45.3734 44.3919 45.8735 43.5828 46.3704C43.1168 46.6484 42.6074 46.9322 42.068 47.2139C40.2767 48.1495 38.2132 49.0171 35.3771 50.027C32.4001 51.1003 29.3446 52.2861 27.5627 53.9371C25.8118 55.5622 24.9885 57.7336 25.1155 60.3908C25.2471 63.6674 26.518 66.7938 28.7908 69.432C30.0858 71.0576 31.7591 72.6196 33.7651 74.0756C34.4996 74.6417 35.268 75.1408 36.0496 75.5592C38.3121 76.7704 40.8013 77.3942 43.8831 77.5222C44.7105 77.5485 45.5826 77.5348 46.5496 77.4809C49.1833 77.3988 52.1237 77.211 55.2369 77.0122C57.9675 76.8697 61.1578 76.6182 64.1178 75.8348C64.6988 75.6825 65.2599 75.5139 65.7867 75.3332C68.885 74.2931 71.072 72.3878 71.9446 69.9681C72.7841 67.6511 72.7846 64.6706 71.9464 61.1095C71.4483 58.6175 70.4743 56.329 68.7882 53.6882C67.8853 52.2073 66.8111 50.7428 65.4082 49.0793C64.1166 47.557 62.9454 46.5812 61.4624 45.3453L61.3671 45.2661C60.487 44.5284 59.5574 43.8957 58.6039 43.3852ZM36.0179 75.6077C35.233 75.1875 34.4613 74.6866 33.7247 74.1184C31.7148 72.6596 30.0372 71.0935 28.7395 69.4645C26.4587 66.8175 25.1832 63.6795 25.0513 60.3907C24.9234 57.718 25.7523 55.5331 27.5152 53.897C29.3054 52.2383 32.3679 51.0495 35.3509 49.974C38.1842 48.9652 40.2451 48.0988 42.0337 47.1647C42.572 46.8833 43.0806 46.6002 43.545 46.3229C44.3528 45.827 45.0964 45.3272 45.8155 44.8439C47.0077 44.0427 48.134 43.2857 49.3731 42.6673C51.9901 41.3424 55.3661 41.5865 58.6356 43.3367C59.5932 43.8494 60.5269 44.4846 61.4104 45.2254L61.5056 45.3045C62.9907 46.5423 64.1637 47.5198 65.4592 49.0464C66.8643 50.7123 67.9398 52.179 68.8441 53.6622C70.5341 56.3086 71.5101 58.6029 72.0095 61.1009C72.8499 64.6709 72.8486 67.6609 72.0059 69.9875C71.1275 72.4231 68.9276 74.3405 65.8118 75.3867C65.2837 75.5676 64.7204 75.7367 64.1382 75.8896C61.1723 76.6746 57.9777 76.9263 55.2436 77.069C52.1303 77.2679 49.1891 77.4556 46.5548 77.5374C45.5871 77.5917 44.7128 77.6056 43.883 77.5793C40.7893 77.4507 38.2902 76.8241 36.0179 75.6077Z" fill="#4CAF4F"/>
<path d="M58.1103 43.9453C54.8896 42.2212 51.6315 41.9401 49.171 43.1739C47.8756 43.8119 46.7304 44.5918 45.5178 45.4175C44.8907 45.8447 44.2424 46.2864 43.5391 46.732C43.0869 47.0089 42.6117 47.2817 42.0862 47.5664C40.3625 48.4998 38.3877 49.3706 35.6837 50.3895C32.8494 51.4733 29.9393 52.6681 28.2329 54.2993C26.5603 55.9 25.7705 58.0111 25.8859 60.5738C25.9997 63.8123 27.2801 66.8281 29.5889 69.2951C30.8603 70.7926 32.4823 72.2182 34.5487 73.6544C35.2443 74.1764 35.9713 74.6411 36.7101 75.0366C38.9246 76.2221 41.3627 76.87 44.3826 77.0753C45.1858 77.1202 46.0281 77.1279 46.9575 77.0995C49.2531 77.1015 51.8463 77.0225 55.3666 76.8432C58.8964 76.7148 61.6362 76.3495 63.989 75.693C64.5484 75.5388 65.0896 75.368 65.5983 75.1854C68.5671 74.1474 70.6763 72.2796 71.5382 69.9257C72.3641 67.6826 72.3956 64.7086 71.6289 61.3255C71.0568 58.209 69.6121 55.7878 68.4176 54.0267C67.2801 52.2579 65.9739 50.6997 64.9631 49.54C63.8271 48.2459 62.7957 47.3992 61.6013 46.4191C61.3727 46.2315 61.1368 46.0378 60.8914 45.834C60.0101 45.0969 59.0745 44.4615 58.1103 43.9453ZM36.6783 75.0851C35.9365 74.688 35.2067 74.2214 34.5092 73.698C32.4391 72.259 30.8132 70.8298 29.539 69.3294C27.2216 66.8531 25.9357 63.825 25.8215 60.5737C25.7057 57.9957 26.5009 55.8711 28.185 54.2597C29.8994 52.6208 32.816 51.4233 35.6562 50.337C38.3576 49.319 40.3298 48.4495 42.0509 47.5175C42.5755 47.2334 43.0498 46.9611 43.5007 46.6849C44.2026 46.2401 44.8507 45.7988 45.4773 45.372C46.6917 44.5448 47.8385 43.7636 49.1379 43.124C51.6184 41.88 54.9004 42.1616 58.1419 43.8969C59.1102 44.4152 60.0499 45.0532 60.9343 45.7933C61.1797 45.997 61.4156 46.1905 61.6438 46.378C62.8405 47.36 63.8739 48.2081 65.0132 49.5062C66.0256 50.6677 67.3337 52.228 68.4729 53.9994C69.67 55.7645 71.1182 58.1919 71.6922 61.3174C72.461 64.7092 72.4289 67.6928 71.5994 69.9452C70.7323 72.3147 68.6101 74.1947 65.6243 75.2384C65.1143 75.4212 64.5715 75.5927 64.0106 75.7475C61.6522 76.4051 58.9076 76.7717 55.3723 76.8999C51.8511 77.0795 49.2572 77.1586 46.9612 77.1565C46.0308 77.185 45.1864 77.1772 44.381 77.1323C41.3496 76.926 38.9021 76.2756 36.6783 75.0851Z" fill="#4CAF4F"/>
<path d="M57.5933 44.49C54.4558 42.8104 51.2152 42.4884 48.9244 43.6282C47.5657 44.2894 46.4018 45.0966 45.1696 45.951C44.6344 46.3222 44.081 46.7059 43.4834 47.0985C43.0522 47.3701 42.5972 47.6404 42.0917 47.9255C40.4579 48.8463 38.515 49.749 35.9773 50.7663C33.286 51.8633 30.5217 53.07 28.8894 54.6848C27.2939 56.2638 26.5358 58.3167 26.6363 60.7864C26.7289 63.9885 28.015 66.8945 30.3558 69.1904C31.5922 70.5521 33.1609 71.846 35.2937 73.2636C35.947 73.7398 36.6286 74.1687 37.3205 74.5391C39.4867 75.6987 41.8748 76.37 44.8359 76.6524C45.6143 76.7151 46.4264 76.744 47.3185 76.7399C49.7305 76.8211 52.3886 76.8039 55.4456 76.6876C58.6772 76.621 61.49 76.2406 63.8066 75.5561C64.3439 75.3995 64.8653 75.2261 65.3563 75.041C68.1955 74.002 70.2283 72.1684 71.0808 69.8773C71.9079 67.6734 71.9734 64.787 71.2701 61.5301C70.7663 58.4956 69.3418 56.1986 68.0149 54.352C66.9388 52.762 65.6862 51.3146 64.493 49.9876C63.4621 48.8501 62.5594 48.1294 61.5144 47.2949C61.1597 47.0119 60.7933 46.7191 60.3965 46.3905C59.5133 45.6524 58.5703 45.013 57.5933 44.49ZM37.2888 74.5876C36.5939 74.2156 35.9097 73.7851 35.2553 73.3078C33.1189 71.8881 31.5464 70.5907 30.3077 69.2262C27.9569 66.9212 26.6649 64.002 26.5719 60.7859C26.4708 58.3016 27.2341 56.2359 28.8407 54.6459C30.4808 53.0235 33.2514 51.814 35.9487 50.7143C38.4838 49.698 40.4243 48.7964 42.0557 47.8771C42.5602 47.5926 43.0145 47.3227 43.4442 47.052C44.0407 46.6602 44.5938 46.2766 45.1287 45.9057C46.3628 45.0498 47.5286 44.2414 48.8915 43.5782C50.0739 42.9898 51.4639 42.777 53.0224 42.9457C54.5051 43.1061 56.0967 43.6234 57.6249 44.4416C58.606 44.9668 59.5531 45.6087 60.4394 46.3497C60.836 46.6781 61.2022 46.9705 61.5565 47.2533C62.6037 48.0896 63.5083 48.8117 64.5425 49.9531C65.7375 51.2821 66.9914 52.7311 68.0693 54.3234C69.3995 56.1747 70.8279 58.4786 71.3333 61.5227C72.0385 64.7879 71.9723 67.6841 71.1419 69.8971C70.2837 72.2035 68.2386 74.0489 65.3832 75.0935C64.8908 75.2791 64.3676 75.4531 63.8291 75.6101C61.5068 76.2962 58.6874 76.6779 55.4505 76.7446C52.3918 76.8609 49.7323 76.878 47.32 76.7969C46.4273 76.8008 45.6129 76.7719 44.8323 76.709C41.8602 76.4258 39.4636 75.7519 37.2888 74.5876Z" fill="#4CAF4F"/>
<path d="M57.0826 45.041C53.9837 43.3821 50.8451 43.0269 48.6866 44.0908C47.2609 44.7756 46.1358 45.5722 44.833 46.4945C44.388 46.8096 43.9278 47.1356 43.4338 47.4717C43.0222 47.7391 42.5869 48.0068 42.103 48.291C40.5358 49.2109 38.6834 50.1185 36.2735 51.1476C33.7238 52.2569 31.104 53.4737 29.5448 55.0729C28.0259 56.6303 27.2998 58.6251 27.3871 61.0022C27.46 64.1685 28.7544 66.966 31.1302 69.092C32.6544 70.6531 34.5611 71.9378 36.0519 72.8828C36.6599 73.3119 37.2925 73.7032 37.9341 74.0467C40.0569 75.1831 42.4012 75.8811 45.3117 76.2439C46.0657 76.3251 46.8484 76.375 47.7034 76.3962C50.1878 76.5668 52.7554 76.6175 55.5547 76.5513C58.5678 76.5409 61.3702 76.1572 63.66 75.4415C64.1759 75.2825 64.6774 75.1067 65.1512 74.9192C67.8616 73.8808 69.8188 72.0815 70.6618 69.8529C71.7079 67.1174 71.3932 63.9401 70.9455 61.7566C70.5026 58.7853 69.0953 56.6071 67.6408 54.6959C66.5798 53.2093 65.3852 51.8943 64.0464 50.4518C63.0865 49.4263 62.2713 48.7989 61.3272 48.0723C60.8867 47.7333 60.431 47.3825 59.9201 46.9607C59.0316 46.2191 58.0769 45.5733 57.0826 45.041ZM37.9026 74.0949C37.2584 73.7501 36.6232 73.3575 36.0145 72.9279C34.5219 71.9818 32.6112 70.6942 31.0836 69.1296C28.6972 66.994 27.3961 64.1827 27.3227 61.0014C27.2349 58.6102 27.966 56.6026 29.4955 55.0346C31.062 53.428 33.688 52.2078 36.2434 51.0962C38.651 50.0682 40.5012 49.1616 42.0659 48.2433C42.5492 47.9594 42.9836 47.6921 43.3938 47.4258C43.8869 47.0902 44.3469 46.7645 44.7916 46.4496C46.0967 45.5256 47.2236 44.7274 48.654 44.0408C50.8321 42.9669 53.9949 43.3227 57.1143 44.9926C58.1128 45.5271 59.0713 46.1755 59.9632 46.9199C60.4731 47.341 60.9283 47.6911 61.3684 48.0299C62.3148 48.7584 63.132 49.3874 64.0952 50.4165C65.436 51.8609 66.6317 53.1774 67.6942 54.6662C69.1527 56.5828 70.5644 58.7679 71.009 61.7501C71.4581 63.9389 71.7731 67.1262 70.7231 69.8732C69.8744 72.1165 67.9055 73.9271 65.1792 74.9715C64.7039 75.1597 64.2005 75.3359 63.6834 75.4955C61.3873 76.213 58.5776 76.5977 55.5582 76.6081C52.7575 76.6745 50.1878 76.6238 47.7026 76.453C46.8471 76.4318 46.0626 76.3819 45.3059 76.3005C42.3856 75.9364 40.0333 75.2355 37.9026 74.0949Z" fill="#4CAF4F"/>
<path d="M56.5636 45.5305C53.5071 43.8943 50.4719 43.5072 48.4447 44.495C46.9495 45.2024 45.814 46.0259 44.4995 46.9793C44.1418 47.2387 43.7719 47.5069 43.3779 47.7851C42.9862 48.0475 42.5707 48.3127 42.1072 48.5964C40.6069 49.5142 38.8443 50.4263 36.5598 51.467C34.1509 52.5867 31.6747 53.8125 30.188 55.3967C28.7453 56.9322 28.0518 58.8696 28.1269 61.1543C28.1821 64.2856 29.487 66.9755 31.9006 68.9336C33.2349 70.1953 34.829 71.2497 36.8125 72.445C37.3699 72.8248 37.949 73.1761 38.5352 73.49C40.6201 74.606 42.9281 75.3348 45.7984 75.7836C46.5295 75.8841 47.2833 75.9553 48.1019 76.0013C50.6079 76.2677 53.0872 76.3874 55.6833 76.3672C58.5433 76.4108 61.2593 76.036 63.5386 75.283C64.0335 75.1217 64.5153 74.9439 64.9715 74.754C67.5553 73.7172 69.4371 71.9532 70.2703 69.7864C71.3169 67.0993 71.0513 64.0359 70.6442 61.9391C70.2774 59.1784 69.0352 57.1658 67.2833 54.9929C66.2348 53.6015 65.0462 52.3622 63.7877 51.0501L63.6112 50.8661C62.7003 49.9242 61.9466 49.3689 61.0736 48.726C60.571 48.3558 60.0513 47.9731 59.45 47.4782C58.5519 46.7302 57.5808 46.075 56.5636 45.5305ZM38.5036 73.5383C37.9153 73.2233 37.3341 72.8709 36.7762 72.4907C34.7904 71.2942 33.193 70.2374 31.8564 68.9734C29.4306 67.0053 28.118 64.3008 28.0626 61.1533C27.987 58.8549 28.6851 56.9052 30.1377 55.3593C31.6316 53.7674 34.1138 52.5385 36.5284 51.4162C38.8105 50.3765 40.5711 49.4654 42.0691 48.5491C42.532 48.2659 42.9466 48.0011 43.337 47.7397C43.7301 47.4621 44.1001 47.194 44.4575 46.9347C45.7746 45.9794 46.912 45.1544 48.4122 44.4447C50.4591 43.4472 53.5184 43.8349 56.5953 45.482C57.6165 46.0287 58.5914 46.6866 59.493 47.4373C60.0926 47.9309 60.6115 48.313 61.1135 48.6827C61.9888 49.3274 62.745 49.8844 63.6595 50.83L63.8361 51.0145C65.096 52.3278 66.2859 53.5685 67.3355 54.9618C69.0933 57.1415 70.3399 59.1616 70.7079 61.9332C71.1161 64.035 71.382 67.1086 70.3314 69.8069C69.4925 71.9877 67.5994 73.7631 65.0005 74.8058C64.5431 74.9963 64.0594 75.1749 63.5631 75.3364C61.2769 76.0919 58.5529 76.4679 55.6855 76.4244C53.0876 76.4444 50.6056 76.3246 48.0985 76.0581C47.2797 76.0119 46.5242 75.9404 45.7905 75.8399C42.9109 75.3893 40.5958 74.6582 38.5036 73.5383Z" fill="#4CAF4F"/>
<path d="M56.012 46.0576C53.0131 44.4522 50.0918 44.0392 48.1977 44.9533C46.6358 45.6825 45.4979 46.5329 44.1803 47.5174C43.9058 47.7224 43.6215 47.9348 43.3221 48.1549C42.9502 48.4127 42.5551 48.6754 42.1129 48.9586C40.6823 49.8743 39.0113 50.7918 36.8542 51.8459C34.5893 52.977 32.2593 54.2128 30.8455 55.7836C29.4798 57.2979 28.8181 59.1766 28.8789 61.3674C28.913 64.4614 30.2233 67.0412 32.6684 68.8282C34.0164 69.9983 35.6122 70.9416 37.5583 72.0536C38.056 72.3799 38.5718 72.6859 39.0928 72.9648C41.1398 74.0606 43.4146 74.8217 46.2521 75.3596C46.9589 75.4786 47.6823 75.5708 48.4625 75.641C50.9563 76.0035 53.3434 76.1898 55.7611 76.2108C58.4387 76.3025 61.1349 75.924 63.3543 75.1455C63.8275 74.982 64.2894 74.8015 64.7273 74.6091C67.1806 73.573 68.9857 71.8433 69.8105 69.7387C70.8589 67.1006 70.6458 64.1532 70.2824 62.1452C69.9685 59.4277 68.6943 57.4518 66.8779 55.3208C65.9181 54.1131 64.8429 53.0317 63.7043 51.8868C63.5173 51.6986 63.3289 51.5091 63.139 51.317C62.265 50.441 61.5236 49.9212 60.7389 49.371C60.192 48.9875 59.6265 48.5911 58.9533 48.0383C58.0438 47.282 57.0543 46.6156 56.012 46.0576ZM39.061 73.0134C38.5383 72.7336 38.021 72.4261 37.5232 72.0999C35.5756 70.9873 33.9769 70.0423 32.6265 68.8699C30.1677 67.0729 28.8488 64.4775 28.8146 61.3662C28.7535 59.1621 29.4197 57.2714 30.7945 55.7468C32.2151 54.1687 34.5505 52.9298 36.8212 51.7959C38.9762 50.7429 40.6454 49.8264 42.074 48.9119C42.5152 48.6292 42.91 48.3669 43.2805 48.1099C43.5791 47.8905 43.8631 47.6782 44.1376 47.4731C45.4579 46.4866 46.5982 45.6347 48.1654 44.9028C50.0793 43.9794 53.0245 44.393 56.0436 46.0092C57.09 46.5693 58.0835 47.2383 58.9962 47.9973C59.6673 48.5482 60.2317 48.9441 60.7774 49.3268C61.5647 49.8788 62.3084 50.4003 63.1864 51.2804C63.3766 51.4725 63.5647 51.662 63.7518 51.8501C64.8916 52.9963 65.9684 54.0791 66.9295 55.2884C68.7521 57.4268 70.031 59.4107 70.3459 62.14C70.7104 64.1528 70.924 67.1102 69.8714 69.7594C69.0412 71.8776 67.2251 73.6183 64.7575 74.6605C64.3184 74.8536 63.8547 75.0346 63.3798 75.1985C61.1528 75.9798 58.4476 76.3597 55.7619 76.2678C53.3418 76.2467 50.9517 76.0601 48.4568 75.6974C47.6765 75.6271 46.9513 75.5349 46.2417 75.4154C43.3961 74.876 41.1145 74.1127 39.061 73.0134Z" fill="#4CAF4F"/>
<path d="M55.461 46.587C52.4829 44.9928 49.7489 44.5673 47.9602 45.4199C46.3346 46.1679 45.2562 47.0011 43.8909 48.0561C43.6923 48.2096 43.4874 48.3678 43.2739 48.5314C42.9209 48.7852 42.5455 49.0454 42.1259 49.3271C40.7653 50.2395 39.1853 51.1618 37.1529 52.2294C35.1242 53.3198 32.8468 54.614 31.5048 56.1727C30.2161 57.6655 29.5867 59.4859 29.6341 61.5833C29.6489 64.6404 30.9674 67.111 33.4468 68.7286C34.7196 69.7331 36.2547 70.5594 37.88 71.4338L38.3206 71.6711C38.747 71.9387 39.1868 72.1941 39.6299 72.4313C41.6489 73.5121 43.9053 74.3124 46.7311 74.9496C47.4143 75.0879 48.1083 75.2013 48.8507 75.2954C51.3507 75.7639 53.5812 76.011 55.8725 76.073C58.422 76.2129 61.0269 75.8425 63.2084 75.0303C63.6602 74.8646 64.1024 74.6821 64.5228 74.4867C66.8466 73.4525 68.5756 71.7579 69.3915 69.715C70.4414 67.1256 70.2785 64.2936 69.9567 62.3739C69.6627 59.3959 68.0892 57.4284 66.503 55.6684C65.6132 54.609 64.6265 53.6569 63.5822 52.6491C63.2885 52.3658 62.9911 52.0788 62.6912 51.785C61.8426 50.9608 61.1374 50.4928 60.3909 49.9973C59.8102 49.6121 59.21 49.2135 58.4763 48.6127C57.5629 47.8545 56.5201 47.154 55.461 46.587ZM39.5982 72.4797C39.1538 72.2418 38.7125 71.9857 38.2867 71.7182L37.8482 71.4822C36.2202 70.606 34.6825 69.7786 33.4075 68.7721C30.9126 67.1447 29.5846 64.6577 29.5698 61.5815C29.522 59.4719 30.1556 57.64 31.4531 56.1371C32.8014 54.5711 35.0842 53.2735 37.1183 52.1802C39.1489 51.1134 40.7272 50.1923 42.0855 49.2811C42.5049 48.9999 42.8796 48.7402 43.2312 48.4872C43.4442 48.3242 43.6489 48.166 43.8474 48.0125C45.2158 46.9554 46.2966 46.1201 47.9281 45.3694C49.7369 44.5074 52.4941 44.9334 55.4926 46.5386C56.5558 47.1078 57.6025 47.8109 58.5192 48.5717C59.2499 49.1703 59.849 49.5678 60.4283 49.9524C61.1775 50.4495 61.885 50.9192 62.7381 51.7477C63.0382 52.0416 63.3353 52.3284 63.6288 52.6114C64.6745 53.6207 65.6624 54.5739 66.553 55.6345C68.1452 57.4012 69.7252 59.377 70.0206 62.3695C70.3432 64.294 70.5064 67.1357 69.4521 69.736C68.6311 71.792 66.8914 73.4972 64.554 74.5378C64.1322 74.7334 63.6885 74.917 63.2352 75.0828C61.0453 75.8984 58.4303 76.2703 55.8721 76.1301C53.5779 76.0677 51.3437 75.8205 48.8421 75.3516C48.0998 75.2571 47.4045 75.1437 46.7184 75.0048C43.8852 74.366 41.6232 73.5637 39.5982 72.4797Z" fill="#4CAF4F"/>
<path d="M54.9032 47.0554C52.0073 45.5051 49.3964 45.0641 47.7402 45.8454C46.0578 46.6103 45.0466 47.4233 43.6471 48.5487C43.5154 48.6545 43.3805 48.763 43.2412 48.8745C42.9065 49.1255 42.5511 49.3836 42.1538 49.6641C40.8651 50.5737 39.3755 51.5032 37.4654 52.5895C35.1177 53.9563 33.319 55.1528 32.1747 56.548C30.9613 58.0231 30.362 59.7872 30.3935 61.7919C30.3848 64.8147 31.7071 67.1772 34.2173 68.6241C34.7659 69.0135 35.3971 69.3961 36.2071 69.8297C36.7938 70.1438 37.4002 70.4459 38.0425 70.7656C38.38 70.9338 38.7225 71.1045 39.069 71.2802C39.4027 71.4802 39.7454 71.6743 40.0889 71.8582C42.1162 72.9435 44.3052 73.7657 47.1872 74.5246C47.8381 74.68 48.5205 74.8175 49.2149 74.9331C51.672 75.5018 53.8131 75.8125 55.9548 75.9112C58.3839 76.0954 60.8966 75.7297 63.0316 74.8818C63.4633 74.713 63.8857 74.527 64.2869 74.3294C66.4816 73.2944 68.1356 71.6315 68.9455 69.6467C70.0006 67.1016 69.8915 64.3831 69.6143 62.5509C69.377 59.6087 67.8268 57.7555 66.1215 55.962C65.292 55.0262 64.3794 54.1831 63.4129 53.2902C63.0328 52.9389 62.6392 52.5754 62.245 52.2004C61.4157 51.4186 60.7392 50.9957 60.0232 50.5481C59.4173 50.1693 58.791 49.7779 58.0072 49.1367C57.0723 48.3616 55.9991 47.642 54.9032 47.0554ZM36.1754 69.8782C35.3628 69.4432 34.7292 69.0592 34.1809 68.6698C31.6535 67.2128 30.3204 64.8335 30.3293 61.7901C30.2976 59.7734 30.9008 57.998 32.1221 56.5136C33.2722 55.1115 35.0751 53.9117 37.4289 52.5414C39.3376 51.4559 40.8257 50.5275 42.1124 49.6191C42.5093 49.3389 42.8644 49.0811 43.1978 48.831C43.3361 48.7202 43.4713 48.6116 43.6029 48.5057C45.0059 47.3776 46.0197 46.5626 47.7088 45.7947C49.3847 45.0041 52.0188 45.4458 54.9349 47.0069C56.0348 47.5957 57.1119 48.318 58.05 49.0957C58.8304 49.734 59.4548 50.1243 60.0588 50.502C60.7778 50.9515 61.4569 51.376 62.2912 52.1624C62.6854 52.5372 63.0785 52.9005 63.4585 53.2516C64.4262 54.1456 65.3401 54.9899 66.1708 55.9272C67.8829 57.7276 69.4399 59.5893 69.6785 62.5473C69.956 64.3841 70.0653 67.1123 69.006 69.668C68.191 71.6651 66.5268 73.3386 64.3193 74.3798C63.9169 74.578 63.493 74.7646 63.0595 74.934C60.9152 75.7857 58.3914 76.1529 55.9526 75.9679C53.8075 75.8691 51.6624 75.558 49.2031 74.9888C48.5094 74.8733 47.8256 74.7355 47.1721 74.5795C44.2837 73.8188 42.0897 72.9946 40.0573 71.9066C39.7127 71.7222 39.3692 71.5276 39.0365 71.3282C38.6925 71.1537 38.3501 70.983 38.0126 70.815C37.37 70.495 36.763 70.1928 36.1754 69.8782Z" fill="#4CAF4F"/>
<path d="M34.9865 68.4788C35.2588 68.6504 35.548 68.8176 35.873 68.9916C36.6258 69.3946 37.4418 69.7637 38.3055 70.1545C38.7992 70.378 39.31 70.6088 39.8267 70.8546C40.0307 70.9703 40.2373 71.0841 40.4434 71.1944C42.4753 72.2822 44.7037 73.1711 47.6682 74.0768C48.298 74.2525 48.9502 74.4123 49.6064 74.5514C52.0501 75.235 54.0438 75.6023 56.0733 75.7419C58.392 75.9742 60.8139 75.6191 62.8942 74.7423C63.305 74.572 63.7074 74.3843 64.0906 74.1848C66.1844 73.1406 67.7199 71.5582 68.5309 69.6081C69.5862 67.1133 69.524 64.5129 69.2862 62.7706C69.0967 59.8648 67.5659 58.1221 65.735 56.3024C64.9528 55.4702 64.0984 54.719 63.1943 53.9237C62.7342 53.5191 62.2588 53.1008 61.7803 52.6604C60.9616 51.9131 60.3059 51.5295 59.6121 51.1234C58.9856 50.7569 58.3377 50.3778 57.5079 49.7013C56.5418 48.903 55.4276 48.1578 54.2857 47.5466C51.4802 46.0447 48.9972 45.5889 47.473 46.2957C45.7451 47.067 44.8105 47.8498 43.3959 49.0348L43.1651 49.2282C42.8482 49.4759 42.5129 49.7308 42.1391 50.0082C40.9099 50.9206 39.5528 51.8253 37.7386 52.942C35.562 54.3141 33.8908 55.5123 32.8109 56.8986C31.6753 58.3506 31.1102 60.0546 31.1309 61.9634C31.107 64.8652 32.3725 67.0826 34.7906 68.3771C34.8551 68.4117 34.9205 68.4458 34.9865 68.4788ZM35.8413 69.0402C35.5148 68.8654 35.2244 68.6972 34.9535 68.5264C34.89 68.4944 34.824 68.4604 34.7589 68.4255C32.3193 67.1196 31.0424 64.8844 31.0665 61.9613C31.0458 60.0413 31.6144 58.3266 32.7574 56.865C33.8424 55.4722 35.5179 54.2707 37.7002 52.8949C39.5131 51.7791 40.8688 50.8753 42.0967 49.964C42.47 49.6868 42.8049 49.4323 43.1207 49.1854L43.3507 48.9926C44.7691 47.8044 45.7062 47.0194 47.4418 46.2449C48.9857 45.5288 51.4918 45.9856 54.3173 47.4981C55.4633 48.1116 56.5813 48.8592 57.5507 49.6604C58.3763 50.3334 59.0218 50.711 59.6459 51.0763C60.3432 51.4844 61.0017 51.8697 61.8257 52.6218C62.3036 53.0617 62.7788 53.4796 63.2388 53.8841C64.1442 54.6805 64.9995 55.4329 65.7829 56.2664C67.5537 58.0264 69.1598 59.8487 69.3502 62.768C69.5885 64.5145 69.6509 67.1246 68.5915 69.6299C67.7753 71.592 66.2303 73.1841 64.1245 74.2344C63.7402 74.4345 63.336 74.623 62.9238 74.7941C60.8331 75.6751 58.399 76.0319 56.0697 75.7985C54.0364 75.6587 52.0378 75.2907 49.592 74.6061C48.9361 74.4675 48.2823 74.3072 47.6506 74.1307C44.6802 73.2235 42.448 72.3329 40.4118 71.2429C40.2053 71.1323 39.9981 71.018 39.7958 70.9034C39.2819 70.659 38.7716 70.4283 38.2782 70.2051C37.4131 69.8138 36.5963 69.4441 35.8413 69.0402Z" fill="#4CAF4F"/>
<path d="M53.6958 47.9995C51.0022 46.5576 48.6577 46.0959 47.2636 46.7325C45.5025 47.5065 44.6508 48.2542 43.2404 49.4927L43.1438 49.5775C42.8433 49.8236 42.5278 50.0762 42.1786 50.3503C41.03 51.2513 39.7607 52.1615 38.0631 53.3014C36.327 54.4956 34.5718 55.8026 33.494 57.2674C32.4346 58.7007 31.9011 60.3472 31.9077 62.1618C31.8667 64.861 33.0001 66.906 35.1861 68.0762C35.3766 68.1782 35.5775 68.2749 35.7834 68.3633C35.8259 68.3866 35.8655 68.4079 35.9057 68.4294C36.7338 68.8727 37.6723 69.2497 38.6658 69.6486C39.2938 69.9008 39.9431 70.1614 40.6067 70.4555C43.235 71.8583 45.9019 72.8567 48.1638 73.6489C48.7725 73.8454 49.3943 74.0269 50.0114 74.1875C51.6198 74.7195 53.7749 75.3587 56.2007 75.5839C58.3821 75.8564 60.7742 75.4991 62.7651 74.604C63.1549 74.4312 63.5375 74.2411 63.9022 74.0387C65.8643 72.998 67.326 71.4483 68.1305 69.5573C69.1899 67.1077 69.1783 64.6224 68.9819 62.9688C68.8439 60.098 67.2708 58.3944 65.3838 56.618C64.644 55.8749 63.8409 55.2033 62.9906 54.4922C62.46 54.0486 61.9116 53.5898 61.3584 53.0961C60.5474 52.3784 59.909 52.0305 59.2331 51.6623C58.5913 51.3126 57.9272 50.9509 57.0576 50.2439C56.0665 49.4266 54.8727 48.6296 53.6958 47.9995ZM35.1544 68.1246C32.9468 66.9429 31.8019 64.8799 31.8435 62.1592C31.8364 60.3343 32.3735 58.6773 33.4397 57.2348C34.5225 55.7637 36.2821 54.4531 38.0225 53.2557C39.7193 52.1165 40.9875 51.207 42.1349 50.3069C42.4837 50.0332 42.7989 49.7809 43.0981 49.5356L43.194 49.4515C44.609 48.2091 45.4631 47.4592 47.2328 46.6817C48.6465 46.0359 51.014 46.4985 53.7274 47.9511C54.9083 48.5832 56.1061 49.3828 57.1003 50.2028C57.9647 50.9058 58.6258 51.2659 59.2651 51.6141C59.9446 51.9842 60.5861 52.3339 61.4033 53.0569C61.9556 53.55 62.5035 54.0083 63.0337 54.4515C63.8851 55.1635 64.6893 55.836 65.4307 56.5805C67.3262 58.365 68.9071 60.0777 69.0463 62.967C69.2432 64.6249 69.2546 67.1195 68.1905 69.5792C67.3814 71.4816 65.9106 73.0406 63.9376 74.0878C63.5716 74.2904 63.1873 74.4817 62.7956 74.655C60.7941 75.5554 58.3883 75.9144 56.1954 75.6403C53.7634 75.4147 51.6032 74.774 49.9932 74.2414C49.3772 74.0812 48.7541 73.8994 48.1432 73.702C45.8778 72.9088 43.2078 71.9089 40.5775 70.5052C39.9172 70.2128 39.2686 69.9522 38.6412 69.7004C37.5976 69.2814 36.6148 68.8866 35.754 68.4128C35.5496 68.3249 35.3468 68.2276 35.1544 68.1246Z" fill="#4CAF4F"/>
<path d="M53.0097 48.4552C51.5044 47.6494 48.7205 46.4139 46.9877 47.192C45.2084 47.9612 44.4457 48.6654 43.0611 49.944C42.7705 50.1949 42.4751 50.4448 42.1531 50.7128C40.7987 51.8394 39.395 52.8902 38.3236 53.6802C36.7366 54.878 35.1279 56.1888 34.1149 57.6531C33.1317 59.068 32.6298 60.6567 32.6233 62.3754C32.5672 64.8904 33.5834 66.7794 35.5622 67.8387C35.8588 67.9974 36.1804 68.1398 36.5185 68.2615C37.2738 68.6161 38.1223 68.91 39.0208 69.2212C39.7637 69.4784 40.5318 69.7446 41.3246 70.0696C43.5602 71.1818 45.848 72.139 48.596 73.2342C49.185 73.4527 49.7764 73.6556 50.3525 73.8368C52.0182 74.4795 54.0212 75.1711 56.2632 75.4391C58.3458 75.7552 60.6438 75.4054 62.5689 74.48C62.9377 74.3051 63.3006 74.1126 63.6474 73.9074C65.4756 72.8715 66.8634 71.3556 67.6615 69.5228C68.7257 67.1186 68.764 64.7499 68.6086 63.1859C68.5196 60.3445 66.9744 58.7472 64.9637 56.9544C64.26 56.2885 63.501 55.6866 62.6973 55.0492C62.1029 54.578 61.4884 54.0907 60.8677 53.5538C60.2372 53.0123 59.7229 52.7098 59.3032 52.4851C59.1265 52.3905 58.956 52.3044 58.775 52.2132C58.5961 52.123 58.4104 52.0296 58.2208 51.9281C57.8078 51.707 57.2433 51.3798 56.5391 50.8085C55.4976 49.9517 54.2441 49.116 53.0097 48.4552ZM35.5305 67.8872C33.5298 66.8162 32.5024 64.9094 32.5592 62.3723C32.5655 60.6682 33.0844 59.0254 34.0595 57.6219C35.077 56.1512 36.6898 54.8371 38.281 53.636C39.3522 52.8464 40.7546 51.7964 42.108 50.6705C42.4298 50.4029 42.725 50.1532 43.0105 49.9067C44.4031 48.6206 45.1685 47.9139 46.9571 47.1408C48.7169 46.3505 51.5244 47.5947 53.0413 48.4067C54.2797 49.0696 55.537 49.908 56.5817 50.7674C57.2813 51.3351 57.8419 51.66 58.2524 51.8797C58.4413 51.9809 58.6262 52.0738 58.8052 52.164C58.9783 52.2513 59.1575 52.3416 59.335 52.4366C59.758 52.663 60.2759 52.9679 60.9116 53.5138C61.5311 54.0499 62.1453 54.5369 62.7393 55.0078C63.5439 55.6456 64.3042 56.2485 65.009 56.9158C67.0299 58.7173 68.5831 60.3238 68.6731 63.185C68.8288 64.7532 68.79 67.1313 67.7216 69.5453C66.9189 71.3887 65.5229 72.9139 63.684 73.9556C63.3362 74.1616 62.9717 74.3548 62.6012 74.5304C60.664 75.4617 58.3512 75.8135 56.2561 75.495C54.0068 75.2267 51.9986 74.533 50.3312 73.8897C49.7554 73.7089 49.1634 73.5053 48.5725 73.2863C45.8219 72.1901 43.5325 71.2321 41.297 70.1202C40.5087 69.7968 39.7415 69.5312 38.9994 69.2741C38.0992 68.9623 37.2487 68.6679 36.4932 68.3129C36.1551 68.1911 35.8301 68.0476 35.5305 67.8872Z" fill="#4CAF4F"/>
<path d="M52.3346 48.8612C49.889 47.552 47.9045 47.1119 46.7465 47.6218C44.9626 48.3797 44.266 49.0585 43.0017 50.2904C42.7256 50.5424 42.4498 50.7901 42.1579 51.0485C40.962 52.1072 39.7466 53.1092 38.6112 54.0343C37.2408 55.1765 35.7112 56.5437 34.7587 58.018C33.8636 59.3969 33.3803 60.9716 33.3608 62.5723C33.2907 64.9558 34.1788 66.6585 36.0004 67.6336C36.386 67.84 36.8167 68.0133 37.2807 68.1489C37.9428 68.406 38.6754 68.6165 39.451 68.8394C40.2945 69.0818 41.1668 69.3325 42.0747 69.675C43.4222 70.2923 44.7621 70.8896 46.181 71.5219C47.1211 71.9408 48.093 72.374 49.069 72.8143C49.6415 73.0572 50.2026 73.2819 50.7365 73.4821C52.4402 74.2398 54.3006 74.9827 56.3747 75.292C58.3649 75.652 60.5711 75.3098 62.4282 74.3537C62.777 74.1765 63.1203 73.9815 63.4487 73.7735C65.1442 72.7435 66.4597 71.2594 67.2527 69.4821C68.3229 67.1196 68.4108 64.8658 68.2957 63.3909C68.2544 60.5745 66.7372 59.0784 64.5988 57.2724C63.9271 56.6739 63.2054 56.1328 62.4415 55.5602C61.7875 55.0698 61.111 54.5626 60.4271 53.9892C60.0031 53.6359 59.5918 53.357 59.1336 53.1118C58.8696 52.9704 58.6204 52.8551 58.3567 52.7331C58.0929 52.6112 57.8198 52.4849 57.5306 52.33C57.0236 52.0587 56.5582 51.7467 56.0662 51.3483C54.9738 50.4524 53.6138 49.5459 52.3346 48.8612ZM35.9687 67.6822C34.1246 66.695 33.2257 64.9746 33.2968 62.5688C33.3159 60.9593 33.8023 59.3751 34.7025 57.9883C35.6589 56.5076 37.1924 55.1371 38.5664 53.9916C39.7014 53.0669 40.9164 52.0654 42.1115 51.0074C42.4032 50.7492 42.6788 50.5016 42.9539 50.2507C44.2228 49.014 44.9221 48.3326 46.7164 47.5704C47.894 47.0516 49.9008 47.4928 52.3663 48.8127C53.6492 49.4994 55.0132 50.4086 56.1088 51.3072C56.5973 51.7025 57.0591 52.0123 57.5622 52.2817C57.8494 52.4354 58.1216 52.5612 58.3847 52.6829C58.6493 52.8052 58.8996 52.9209 59.1654 53.0632C59.6279 53.3108 60.0425 53.592 60.4702 53.9486C61.1529 54.5207 61.8286 55.0274 62.4818 55.5172C63.2471 56.0909 63.9697 56.6327 64.6431 57.2323C66.7927 59.048 68.3183 60.553 68.36 63.3909C68.4753 64.87 68.3872 67.1328 67.3123 69.5049C66.5149 71.2924 65.1921 72.7847 63.487 73.8207C63.1574 74.0293 62.8125 74.2253 62.4624 74.4036C60.5919 75.366 58.3698 75.7105 56.3654 75.3483C54.2839 75.0375 52.4178 74.2926 50.7114 73.5338C50.1786 73.3341 49.6166 73.1089 49.0424 72.8653C48.0657 72.4245 47.0935 71.9914 46.1541 71.5727C44.7349 70.9402 43.3947 70.3431 42.0492 69.7263C41.1463 69.3858 40.2755 69.1356 39.4335 68.8934C38.6561 68.6701 37.922 68.4592 37.2598 68.202C36.794 68.0662 36.3587 67.891 35.9687 67.6822Z" fill="#4CAF4F"/>
</g>
</svg>
