<svg width="103" height="120" viewBox="0 0 103 120" fill="none" xmlns="http://www.w3.org/2000/svg">
<path d="M52.6466 32.6578C54.6882 31.5673 56.2735 30.9656 57.787 30.7069C63.6144 29.8141 71.4579 34.5077 77.7691 42.6648C80.8929 46.763 82.94 51.0776 83.6888 55.1418C84.3172 58.6966 84.0125 62.6088 82.7298 67.4538C81.8266 70.7771 80.3774 74.035 78.1687 77.7067C75.9171 81.4136 73.7231 83.7692 71.055 85.3443C70.933 85.4147 70.8097 85.4832 70.678 85.5535C67.5584 87.2199 61.8941 88.7758 55.5259 89.7155C49.0535 90.6706 43.0762 90.7861 39.5365 90.0244C31.1499 89.7925 29.6955 85.9593 27.4937 80.1571C26.5171 77.5834 25.41 74.6664 23.512 71.4408C22.1418 69.1133 20.8865 67.0519 19.779 65.2331C14.46 56.4989 12.0322 52.5127 13.3657 45.9649C13.7222 44.4201 14.7478 43.1854 16.4133 42.2957C17.7262 41.5945 19.4477 41.101 21.5303 40.829C23.4235 40.5884 25.4587 40.4635 27.6135 40.3313C30.4476 40.1576 33.3781 39.978 36.4021 39.5159C39.9921 38.9523 43.5201 37.7259 47.1879 35.7667C47.7324 35.4759 48.2962 35.1602 48.8637 34.8284C49.1187 34.6792 49.3713 34.5307 49.6216 34.3836C50.6719 33.766 51.6641 33.1826 52.6466 32.6578ZM70.7094 85.6015C70.8417 85.5308 70.9658 85.462 71.0889 85.3912C73.767 83.8102 75.9676 81.4479 78.2249 77.7318C80.4364 74.0555 81.8875 70.7931 82.7923 67.4648C84.0768 62.6123 84.3818 58.6932 83.7522 55.1308C83.0018 51.0584 80.9512 46.7363 77.8224 42.6317C71.4978 34.4571 63.6299 29.7545 57.7779 30.6512C56.2558 30.9113 54.6637 31.5153 52.615 32.6096C51.6313 33.1351 50.6386 33.7187 49.5875 34.3368C49.3374 34.484 49.085 34.6324 48.8299 34.7816C48.2631 35.1128 47.7001 35.4281 47.1564 35.7185C43.4957 37.6739 39.9752 38.8978 36.3933 39.4604C33.3729 39.9216 30.4443 40.1012 27.6116 40.2749C25.4556 40.407 23.4194 40.5319 21.5236 40.773C19.432 41.0461 17.7022 41.5422 16.3818 42.2475C14.6994 43.1462 13.6636 44.3939 13.3029 45.9564C12.6544 49.1403 12.8605 51.7725 13.9927 54.7585C15.0916 57.6577 17.034 60.8471 19.7221 65.2615C20.8296 67.0801 22.085 69.1414 23.4547 71.4687C25.3506 74.6901 26.4568 77.6053 27.4328 80.1772C28.5693 83.1719 29.4668 85.5376 31.1577 87.2481C32.9855 89.0977 35.5663 89.9711 39.5258 90.0802C43.0665 90.843 49.0534 90.7277 55.5341 89.7715C61.91 88.8304 67.583 87.2715 70.7094 85.6015Z" fill="#4CAF4F"/>
<path d="M70.3695 85.0066C70.2964 85.0475 70.2234 85.0872 70.1478 85.1275C67.1666 86.72 61.7007 88.2055 55.527 89.1006C49.2441 90.012 43.4235 90.115 39.9568 89.3763C31.8006 89.1368 30.3105 85.4345 28.0551 79.8301C27.0798 77.4068 25.9742 74.66 24.1448 71.63C22.8175 69.4179 21.5983 67.4534 20.5228 65.7203C15.3053 57.3127 12.9239 53.4753 14.149 47.1381C14.4851 45.4891 15.5654 44.1668 17.3607 43.2078C18.5647 42.5647 20.0979 42.0818 21.9177 41.7725C24.112 41.3146 26.5293 41.0264 29.0885 40.7214C31.4932 40.4349 33.98 40.1384 36.5353 39.6744C41.8194 38.6817 46.1849 36.6006 49.0089 35.1216L49.5006 34.8511C50.0976 34.5228 50.6615 34.2126 51.2269 33.9106C53.632 32.6259 55.6713 31.7087 57.8069 31.4085C63.4656 30.6379 71.1025 35.1704 77.2624 42.9555C80.4403 46.9253 82.5454 51.0917 83.3501 55.0041C84.0487 58.4809 83.8062 62.3103 82.5865 67.0552C81.7043 70.5229 80.1935 73.8713 77.8314 77.5924C75.5182 81.1991 73.2264 83.4807 70.4005 84.9901L70.3695 85.0066ZM70.1794 85.1758C70.2553 85.1353 70.3287 85.0954 70.4014 85.0543L70.432 85.0383C73.2684 83.5232 75.5676 81.2348 77.8869 77.6185C80.2522 73.8924 81.7654 70.5391 82.6491 67.0658C83.8705 62.3132 84.1135 58.4766 83.4133 54.9919C82.6069 51.0717 80.4983 46.8979 77.3154 42.9218C71.1423 35.1199 63.4818 30.5787 57.7993 31.3525C55.6532 31.6544 53.6071 32.574 51.1953 33.8623C50.6295 34.1646 50.0655 34.4749 49.4683 34.8033L48.9772 35.0733C46.1578 36.5499 41.7988 38.628 36.5247 39.6191C33.9717 40.0824 31.4861 40.3788 29.0823 40.6654C26.5216 40.9705 24.1028 41.2588 21.9071 41.7171C20.0807 42.0275 18.5401 42.5129 17.3292 43.1598C15.5169 44.1278 14.4255 45.4637 14.0863 47.1304C12.857 53.4873 15.2416 57.3298 20.4663 65.7491C21.5417 67.4821 22.7607 69.4462 24.0881 71.6583C25.9154 74.6847 27.02 77.4296 27.9946 79.851C29.1587 82.7437 30.0782 85.0284 31.7558 86.6829C33.5692 88.4715 36.0954 89.3193 39.9458 89.4322C43.4139 90.1717 49.2443 90.0689 55.5347 89.1566C61.7166 88.2603 67.1913 86.772 70.1794 85.1758Z" fill="#4CAF4F"/>
<path d="M18.3264 44.1113C19.4113 43.5318 20.7499 43.0698 22.3047 42.738C24.8488 41.9862 27.7357 41.4812 30.7922 40.9466C32.6998 40.6129 34.6723 40.2679 36.6851 39.8424C41.6241 38.7572 45.7771 36.9943 49.1884 35.4129L49.3834 35.3132C52.426 33.7567 55.0539 32.4124 57.8745 32.1007C63.3719 31.447 70.8049 35.8113 76.8115 43.2195C80.0896 47.1122 82.1919 51.0195 83.0604 54.8335C83.8164 58.1836 83.6257 62.0401 82.478 66.6237C81.6252 70.1875 80.0009 73.7284 77.5122 77.4486C75.1388 80.96 72.6751 83.225 69.6864 84.6464L69.6214 84.6812C66.7742 86.2021 61.4997 87.6212 55.5128 88.4773C49.4118 89.3496 43.7409 89.4449 40.3428 88.7325C32.4071 88.4926 30.8822 84.9219 28.574 79.5169C27.6038 77.2454 26.5041 74.6709 24.747 71.8382C23.4651 69.7456 22.2847 67.8817 21.2435 66.2372C16.1273 58.1573 13.7922 54.4696 14.918 48.3398C15.2315 46.5747 16.3783 45.1519 18.3264 44.1113ZM70.3966 84.352C73.0905 82.913 75.3689 80.7281 77.5669 77.4762C80.0595 73.7501 81.6863 70.2035 82.5406 66.6339C83.6904 62.0424 83.8809 58.1782 83.1233 54.8202C82.2531 50.9983 80.1469 47.0836 76.8639 43.1851C73.9011 39.5309 70.5519 36.5536 67.1789 34.575C63.8054 32.5964 60.5859 31.7214 57.8688 32.0446C55.0351 32.3577 52.402 33.7048 49.3529 35.2645L49.1593 35.3636C45.7529 36.9427 41.6042 38.7038 36.6722 39.7875C34.6613 40.2124 32.6891 40.5575 30.782 40.891C27.7235 41.426 24.8344 41.9313 22.2894 42.6837C20.7303 43.0163 19.3857 43.4804 18.2949 44.0631C16.3286 45.1134 15.1712 46.55 14.8546 48.3331C13.7255 54.482 16.0639 58.1749 21.1874 66.2661C22.2285 67.9106 23.4088 69.7744 24.6904 71.8669C26.4456 74.6963 27.5446 77.2689 28.5136 79.5388C29.7052 82.3285 30.6461 84.5316 32.3115 86.1284C34.1118 87.855 36.5854 88.6752 40.3319 88.7884C43.7313 89.5017 49.4116 89.4066 55.5207 88.533C61.5156 87.676 66.7988 86.254 69.653 84.7294L69.7166 84.6953C69.9443 84.5868 70.1736 84.4711 70.3966 84.352Z" fill="#4CAF4F"/>
<path d="M19.3642 44.9756C20.3114 44.4697 21.4423 44.0439 22.7249 43.7104C25.6692 42.5699 29.1321 41.7895 32.7985 40.9631C34.113 40.667 35.4723 40.3607 36.845 40.0294C41.8211 38.7789 46.1758 37.0195 49.3556 35.7349C52.2668 34.3597 55.0147 33.0614 57.9139 32.8315C60.5383 32.5689 63.6476 33.4304 66.9068 35.3227C70.1724 37.2191 73.4253 40.0565 76.314 43.5283C79.6469 47.2866 81.8038 51.0469 82.7246 54.705C83.5502 57.9732 83.4226 61.7421 82.3348 66.2272C81.5041 69.9317 79.8163 73.5632 77.1748 77.3292C75.087 80.2752 72.9228 82.2837 70.3641 83.6504C69.9255 83.8847 69.4676 84.1035 69.0031 84.3004C66.2546 85.7366 61.183 87.0702 55.4328 87.8691C49.472 88.6973 44.1297 88.7742 40.7756 88.0798C33.0694 87.8334 31.5065 84.3952 29.1409 79.1909C28.178 77.0724 27.0865 74.6711 25.4035 72.0366C24.1699 70.0673 23.0303 68.3067 22.0251 66.7532C17.0065 58.9986 14.7159 55.4594 15.7357 49.5395C16.0202 47.645 17.2412 46.1096 19.3642 44.9756ZM70.3957 83.6987C72.9638 82.3269 75.1349 80.312 77.2289 77.358C79.8748 73.5854 81.5654 69.9477 82.3975 66.2364C83.4871 61.7437 83.6146 57.9668 82.7872 54.6907C81.8642 51.0245 79.7036 47.257 76.3656 43.4931C73.4732 40.0167 70.2149 37.1748 66.9433 35.2751C63.672 33.3756 60.5484 32.5112 57.91 32.7752C54.9983 33.006 52.2445 34.3071 49.3291 35.6844C46.1531 36.9674 41.8009 38.7255 36.83 39.9749C35.4584 40.3059 34.0993 40.6121 32.7849 40.9084C29.116 41.7352 25.6503 42.5164 22.7053 43.6573C21.421 43.9911 20.2849 44.4188 19.3327 44.9274C17.1913 46.0713 15.9596 47.6211 15.6721 49.5337C14.6496 55.4722 16.9433 59.0168 21.9691 66.7829C22.9745 68.3361 24.1138 70.0964 25.3474 72.0656C27.0284 74.6974 28.119 77.0967 29.0814 79.2137C30.3024 81.8995 31.2666 84.0213 32.9197 85.5609C34.7069 87.2255 37.1266 88.0196 40.7645 88.1356C44.1203 88.8309 49.4718 88.7543 55.4406 87.925C61.1978 87.125 66.2788 85.7884 69.0315 84.3501C69.4952 84.1534 69.9552 83.934 70.3957 83.6987Z" fill="#4CAF4F"/>
<path d="M20.3811 45.7414C21.1713 45.3193 22.0822 44.9466 23.0893 44.6332C26.5061 42.9766 30.6996 41.8497 35.1386 40.6569C35.7415 40.495 36.3495 40.3317 36.9624 40.1651C40.6741 39.1143 44.0153 37.9327 46.9632 36.8903C47.8499 36.5765 48.6876 36.2805 49.4925 36.0028C52.584 34.6678 55.1667 33.6368 57.932 33.5058C60.4815 33.3022 63.4995 34.1549 66.6604 35.9716C69.8289 37.7928 72.9955 40.4993 75.8178 43.7988C79.2114 47.4281 81.4258 51.0465 82.3997 54.5547C83.2965 57.7439 83.2327 61.4302 82.2042 65.8237C81.4084 69.6209 79.6062 73.4537 76.8479 77.2166C74.8664 79.8923 72.8143 81.7416 70.3904 83.0364C69.7348 83.3866 69.0393 83.6999 68.3234 83.9685C65.647 85.313 60.773 86.5528 55.2819 87.286C49.5707 88.0487 44.4311 88.1053 41.1814 87.441C33.6937 87.186 32.0879 83.8749 29.6576 78.8625C28.7035 76.8945 27.6219 74.664 26.0134 72.2241C24.8287 70.379 23.7311 68.7219 22.7622 67.2601C17.8292 59.8147 15.5779 56.4167 16.4905 50.6966C16.7413 48.6533 18.0502 46.9865 20.3811 45.7414ZM70.422 83.0847C72.8551 81.7851 74.9136 79.9299 76.9011 77.2461C79.6645 73.4768 81.4696 69.6364 82.267 65.8324C83.2974 61.4311 83.3613 57.7368 82.4618 54.539C81.4856 51.0231 79.2675 47.3973 75.8687 43.7627C73.043 40.4592 69.871 37.7482 66.6967 35.9239C63.524 34.1004 60.4924 33.2446 57.9299 33.4495C55.1535 33.5809 52.5644 34.6141 49.4687 35.9511C48.6662 36.2279 47.8284 36.524 46.9414 36.8377C43.9946 37.8799 40.6545 39.061 36.9454 40.1111C36.3331 40.2774 35.725 40.4409 35.1224 40.6028C30.6798 41.7965 26.4832 42.9242 23.0651 44.582C22.059 44.8944 21.1436 45.2691 20.3496 45.6932C17.9998 46.9484 16.6801 48.6301 16.427 50.6917C15.5112 56.4303 17.7662 59.8333 22.7069 67.2898C23.6753 68.7518 24.7733 70.4085 25.9576 72.2536C27.5643 74.6912 28.6453 76.9199 29.5984 78.8864C30.8529 81.4733 31.8438 83.5165 33.4883 85.0017C35.2663 86.6073 37.6355 87.3771 41.1705 87.4968C44.4222 88.1619 49.5699 88.1057 55.2889 87.342C60.7877 86.6076 65.6701 85.3654 68.35 84.0191C69.0654 83.7512 69.7638 83.4363 70.422 83.0847Z" fill="#4CAF4F"/>
<path d="M24.4704 45.077C27.9817 43.2014 32.2732 41.8346 37.1127 40.3676C39.0802 39.7461 40.9313 39.1325 42.7213 38.539C45.2295 37.7074 47.5989 36.9221 49.6703 36.3278C52.5442 35.2068 55.1522 34.2762 57.9959 34.2309C60.4714 34.0835 63.3971 34.9229 66.4581 36.6583C69.5274 38.3983 72.6043 40.9671 75.3563 44.087C78.8075 47.5779 81.0746 51.0479 82.0954 54.4013C83.0601 57.5056 83.0547 61.1045 82.0786 65.4034C81.301 69.3414 79.4271 73.2695 76.509 77.0797C74.6551 79.4757 72.658 81.2258 70.4039 82.4298C69.5361 82.8934 68.5996 83.2918 67.6204 83.614C62.3423 86.1533 48.4921 88.1951 41.555 86.8061C34.2816 86.5512 32.6344 83.3718 30.1407 78.5591C29.2016 76.746 28.1369 74.6911 26.6092 72.4515C25.4797 70.738 24.428 69.1912 23.5005 67.8264C18.6565 60.7005 16.4454 57.4482 17.2604 51.9306C17.4729 49.7208 18.8888 47.9023 21.4679 46.5246C22.0758 46.2 22.752 45.9001 23.4776 45.6331C23.7992 45.4443 24.1314 45.2581 24.4704 45.077ZM70.4355 82.478C72.698 81.2695 74.7018 79.5136 76.5614 77.1101C79.4851 73.293 81.3625 69.357 82.1416 65.4116C83.1196 61.1045 83.1249 57.4973 82.1573 54.3845C81.134 51.0229 78.8626 47.5459 75.4063 44.0499C72.6512 40.9265 69.5692 38.3535 66.4942 36.6102C63.422 34.8685 60.4832 34.0262 57.9957 34.1743C55.1414 34.2198 52.527 35.1526 49.6495 36.275C47.5798 36.8687 45.2099 37.6545 42.701 38.486C40.9109 39.0795 39.0603 39.6929 37.0937 40.3141C32.251 41.7823 27.9559 43.1504 24.4389 45.029C24.0992 45.2104 23.7662 45.3971 23.4493 45.5838C22.7262 45.849 22.0471 46.1505 21.4365 46.4766C18.8376 47.8648 17.4111 49.6984 17.1965 51.9268C16.8019 54.5992 17.1091 56.8151 18.2244 59.335C19.2915 61.7467 21.0336 64.3098 23.445 67.8571C24.3727 69.2216 25.4241 70.7684 26.5539 72.4817C28.0796 74.7192 29.1436 76.7726 30.0825 78.5845C31.3695 81.0682 32.3858 83.0302 34.0215 84.4572C35.7905 86.0002 38.1103 86.7418 41.5439 86.862C44.6908 87.4923 49.6365 87.4508 55.1077 86.7468C60.3486 86.0727 65.0356 84.9206 67.6452 83.6653C68.6238 83.3434 69.564 82.9436 70.4355 82.478Z" fill="#4CAF4F"/>
<path d="M26.89 44.7195C30.1851 42.9594 33.9765 41.6023 37.2506 40.5069C41.6068 38.9898 46.1653 37.4386 49.8199 36.6019C52.9304 35.5256 55.3855 34.8681 58.0222 34.9135C62.9341 34.7328 69.3849 38.3529 74.8586 44.3608C78.3719 47.7196 80.6952 51.0459 81.7653 54.2487C82.8027 57.2705 82.8608 60.7843 81.9436 64.992C81.2019 69.0154 79.2093 73.1511 76.1816 76.9529C74.4303 79.1303 72.5512 80.7376 70.4375 81.8667C69.3533 82.4459 68.211 82.9029 66.9458 83.2638C64.4113 84.4249 59.9334 85.4798 54.9618 86.0874C49.751 86.7242 45.0196 86.7457 41.9808 86.1463C34.9231 85.8822 33.2271 82.8295 30.6594 78.2086C29.7375 76.5488 28.6925 74.6677 27.2478 72.6259C26.1752 71.0459 25.172 69.6105 24.2864 68.3444C19.6623 61.7279 17.341 58.4069 18.049 53.0854C18.2103 50.7174 19.7914 48.6676 22.6207 47.1563C23.0133 46.9466 23.4336 46.7451 23.8711 46.5571C24.7778 45.9234 25.7914 45.3063 26.89 44.7195ZM70.469 81.9149C72.5909 80.7814 74.4764 79.1687 76.2336 76.9844C79.2671 73.1752 81.2634 69.0308 82.0066 64.9997C82.9257 60.7838 82.867 57.2607 81.8269 54.2308C80.7539 51.0198 78.4262 47.6864 74.9078 44.3227C69.4233 38.3032 62.9533 34.6756 58.0239 34.8568C55.0921 34.8064 52.3549 35.6647 49.8025 36.5483C46.148 37.3848 41.5874 38.9366 37.2295 40.4542C33.953 41.5504 30.1584 42.9087 26.8585 44.6713C25.7577 45.2593 24.7416 45.878 23.8389 46.5098C23.4057 46.6951 22.9836 46.8974 22.5891 47.108C19.7396 48.6301 18.1476 50.6961 17.9852 53.0826C17.2751 58.4218 19.6 61.7483 24.2319 68.3753C25.117 69.6415 26.12 71.0768 27.1927 72.657C28.636 74.6965 29.6805 76.5765 30.602 78.235C31.9271 80.62 32.9735 82.5037 34.6037 83.8764C36.3661 85.3605 38.638 86.0776 41.9703 86.2022C45.0105 86.8024 49.7503 86.7812 54.9683 86.1435C59.9466 85.535 64.4327 84.4781 66.9683 83.3158C68.2335 82.9553 69.3803 82.4964 70.469 81.9149Z" fill="#4CAF4F"/>
<path d="M29.3818 44.1521C31.5971 42.9688 34.2177 41.8275 37.3933 40.6631C42.5755 38.6878 46.6937 37.453 49.984 36.8882C52.8783 36.0186 55.3584 35.4682 58.0688 35.6056C62.8171 35.545 69.0694 39.0071 74.3879 44.6413C77.9658 47.8668 80.3455 51.0498 81.4624 54.1035C82.5719 57.0412 82.6926 60.4715 81.8319 64.5903C80.925 69.8533 78.0894 74.1571 75.8702 76.8408C74.2144 78.8242 72.447 80.3025 70.4674 81.3599C69.1907 82.0419 67.8206 82.5562 66.2789 82.9322C61.2619 85.1088 48.7839 86.7503 42.3983 85.5135C35.5465 85.2415 33.7972 82.3138 31.1495 77.8821C30.2503 76.377 29.2311 74.671 27.8738 72.8284C26.8633 71.3868 25.9126 70.0673 25.0737 68.9032C20.5131 62.5746 18.224 59.3978 18.8273 54.2667C18.9315 51.6794 20.6639 49.4168 23.8375 47.7216C23.9752 47.648 24.1176 47.5746 24.2606 47.5033C25.7213 46.3086 27.3945 45.2137 29.3818 44.1521ZM70.499 81.4081C72.4864 80.3465 74.2601 78.8631 75.9213 76.8731C78.145 74.1839 80.986 69.8713 81.8948 64.5975C82.7576 60.47 82.6363 57.0308 81.5233 54.084C80.4037 51.0225 78.019 47.8321 74.4361 44.6023C69.1077 38.9577 62.8368 35.4881 58.0727 35.549C55.3542 35.4112 52.8672 35.9629 49.9697 36.8336C46.6792 37.3983 42.5565 38.6343 37.3707 40.611C34.1923 41.7764 31.5686 42.919 29.3502 44.104C27.3589 45.1677 25.6823 46.2649 24.2243 47.4583C24.0873 47.5257 23.9443 47.5995 23.8059 47.6734C20.612 49.3794 18.8682 51.6588 18.7637 54.2648C18.1581 59.4136 20.451 62.5956 25.0192 68.935C25.8579 70.0989 26.8086 71.418 27.8197 72.8598C29.1755 74.7012 30.194 76.4059 31.0926 77.9101C33.7501 82.3581 35.5061 85.2966 42.3876 85.5693C48.7793 86.8078 61.2792 85.1635 66.2998 82.9849C67.8411 82.6092 69.2169 82.093 70.499 81.4081Z" fill="#4CAF4F"/>
<path d="M31.7855 43.5218C33.5226 42.5939 35.4094 41.7262 37.5527 40.8695C42.4201 38.8511 46.6658 37.6218 50.1726 37.2157C52.5628 36.6098 55.1792 36.0842 58.1438 36.3322C62.7309 36.3866 68.7828 39.6821 73.9402 44.933C77.6333 48.0616 79.9988 51.0118 81.1739 53.9544C82.3534 56.8037 82.5325 60.1469 81.7221 64.1754C81.0336 68.4198 78.8396 72.8712 75.5441 76.7106C73.9754 78.5218 72.311 79.8839 70.4561 80.8747C68.9985 81.6533 67.406 82.2133 65.5873 82.5871C60.7063 84.5792 48.994 86.06 42.7806 84.8871C36.1272 84.6136 34.3218 81.8133 31.5889 77.5741C30.7209 76.2277 29.7369 74.7014 28.4753 73.0624C27.5335 71.7667 26.6423 70.5703 25.8554 69.5148C21.3543 63.4769 19.0951 60.4461 19.5999 55.5039C19.6447 52.097 22.3727 49.8186 24.6531 48.5066L24.6595 48.5019C26.5826 46.6849 28.9137 45.0558 31.7855 43.5218ZM70.4875 80.9227C72.3499 79.9279 74.0204 78.5611 75.5947 76.7439C78.8968 72.8963 81.0955 68.4353 81.7854 64.1823C82.5977 60.1444 82.4176 56.792 81.2344 53.9335C80.0561 50.9832 77.6855 48.0258 73.9874 44.8932C68.8209 39.633 62.7516 36.3303 58.1498 36.2757C55.1772 36.027 52.5537 36.5539 50.162 37.1604C46.6532 37.5665 42.4009 38.7974 37.5281 40.8182C35.3826 41.6757 33.4939 42.5444 31.7541 43.4738C28.878 45.01 26.5432 46.6415 24.6163 48.4615C22.3226 49.7817 19.5811 52.0746 19.5358 55.5033C19.0294 60.4626 21.2926 63.4987 25.8013 69.5474C26.5879 70.6026 27.4797 71.7987 28.4212 73.0948C29.6823 74.7328 30.6654 76.2579 31.5328 77.6038C34.276 81.8581 36.0879 84.6688 42.7701 84.9431C48.9893 86.1172 60.7223 84.6338 65.6058 82.6403C67.4248 82.267 69.0239 81.7045 70.4875 80.9227Z" fill="#4CAF4F"/>
<path d="M33.9008 42.8283C35.0874 42.1944 36.3626 41.5817 37.6913 41.0065C42.3525 38.9174 46.7225 37.7 50.3293 37.4854C53.389 36.8621 55.736 36.7203 58.1819 37.0104C60.3599 37.0966 62.9172 37.8949 65.58 39.3193C68.2586 40.7524 70.9842 42.7879 73.4618 45.2058C77.225 48.1991 79.6462 51.0113 80.8659 53.8055C82.1195 56.5695 82.3625 59.8297 81.6088 63.7725C80.9465 68.1592 78.6834 72.7137 75.2362 76.5985C73.7515 78.257 72.1856 79.5143 70.4487 80.4421C68.8249 81.3095 67.0188 81.9021 64.927 82.2539C60.1359 84.0751 49.1778 85.351 43.2088 84.2462C36.7478 83.9614 34.8753 81.2806 32.0408 77.2224C31.2108 76.0342 30.2702 74.6873 29.1099 73.2505C28.2434 72.1046 27.4515 71.0811 26.686 70.0918C22.2241 64.3242 19.9844 61.4293 20.3818 56.6649C20.3291 53.2697 22.8874 50.8579 25.0424 49.4322L25.0485 49.4271C27.3146 46.9756 30.2929 44.7555 33.9008 42.8283ZM70.4803 80.4903C72.2241 79.5588 73.7961 78.2968 75.2859 76.6325C78.7407 72.7395 81.0085 68.1747 81.6721 63.7789C82.4276 59.8265 82.1835 56.5565 80.9257 53.7831C79.7026 50.9811 77.2762 48.162 73.5079 45.1649C71.0285 42.7451 68.2983 40.7062 65.6146 39.2707C62.9432 37.8415 60.3758 37.0405 58.19 36.9541C55.7387 36.6632 53.385 36.8052 50.3223 37.4295C46.7119 37.644 42.3332 38.8637 37.6644 40.956C36.3347 41.5317 35.0576 42.1455 33.8693 42.7802C30.2563 44.7101 27.2729 46.9338 25.0019 49.3895C22.8351 50.8237 20.2648 53.2496 20.318 56.6653C19.919 61.4467 22.1627 64.3471 26.6326 70.1249C27.3982 71.1144 28.1898 72.1374 29.0569 73.2839C30.2164 74.72 31.1565 76.066 31.986 77.2538C34.8304 81.3261 36.7097 84.0166 43.1981 84.3022C45.9246 84.8072 50.0554 84.8399 54.5261 84.3917C58.7245 83.9708 62.6188 83.1917 64.9436 82.3075C67.0363 81.9565 68.8495 81.3614 70.4803 80.4903Z" fill="#4CAF4F"/>
<path d="M35.6439 42.2801C36.3471 41.9045 37.08 41.5385 37.8223 41.1919C42.3944 38.9877 46.7717 37.8144 50.4817 37.7984C53.3295 37.3649 55.7133 37.3432 58.2163 37.7276C62.5464 38.0245 68.0623 40.9307 72.9743 45.5022C76.8074 48.3543 79.282 51.0249 80.5419 53.669C81.8683 56.344 82.1724 59.5185 81.4719 63.3743C80.8333 67.9007 78.4976 72.5567 74.8951 76.4861C73.487 78.0092 72.0105 79.1724 70.3814 80.0426C68.6021 80.993 66.5897 81.608 64.2287 81.9225C59.6303 83.5331 49.2115 84.6314 43.5967 83.6194C37.3173 83.3262 35.3696 80.7644 32.4224 76.8865C31.643 75.8612 30.7599 74.6989 29.7122 73.4694C28.9311 72.4815 28.2105 71.5883 27.5135 70.7245C23.218 65.3992 20.8518 62.4658 21.1446 57.8745C20.9969 54.4953 23.3868 51.9494 25.418 50.4084C27.9691 47.2759 31.4077 44.5428 35.6439 42.2801ZM70.413 80.0909C72.0487 79.2172 73.531 78.0493 74.944 76.5207C78.5545 72.5829 80.8953 67.9163 81.5353 63.3802C82.2376 59.5144 81.9321 56.3295 80.6009 53.645C79.3376 50.9934 76.8574 48.3159 73.019 45.4602C68.0994 40.8815 62.5687 37.9689 58.2268 37.6715C55.7192 37.2861 53.3286 37.3079 50.4785 37.7421C46.7633 37.7577 42.3751 38.9336 37.794 41.1421C37.0505 41.4892 36.3163 41.8559 35.6124 42.2319C31.3683 44.4989 27.9231 47.2372 25.3717 50.3713C23.3351 51.9156 20.9319 54.4765 21.0806 57.8762C20.7867 62.4843 23.1572 65.4233 27.4608 70.7586C28.1577 71.6224 28.8781 72.5155 29.6602 73.5039C30.7072 74.7328 31.5899 75.8943 32.3687 76.9194C35.3264 80.8106 37.2805 83.3812 43.5862 83.6754C46.2461 84.155 50.0722 84.2042 54.3552 83.8132C58.2912 83.4538 61.9877 82.7672 64.2432 81.9767C66.6056 81.6628 68.626 81.0454 70.413 80.0909Z" fill="#4CAF4F"/>
<path d="M37.0797 41.8395C37.3807 41.6787 37.6889 41.5192 37.9955 41.3656C42.4997 39.04 46.8813 37.9115 50.6668 38.1025C53.2928 37.8441 55.7096 37.9503 58.2783 38.4363C62.4455 38.8525 67.7627 41.6003 72.5045 45.7871C76.4621 48.5332 78.9167 50.989 80.2314 53.5173C81.6304 56.1005 81.9957 59.1875 81.3487 62.9551C80.7441 67.5512 78.2748 72.4308 74.5738 76.3441C73.2377 77.7457 71.8444 78.8241 70.3148 79.6412C68.3648 80.6828 66.218 81.2917 63.5586 81.5575C59.1294 82.9665 49.4346 83.9035 44.0276 82.9559C37.918 82.6523 35.8844 80.2057 32.806 76.5021C32.0933 75.6449 31.2857 74.6734 30.3661 73.6563C29.6827 72.8353 29.0455 72.0813 28.4289 71.3524C24.1396 66.2798 21.7766 63.4859 21.9625 59.0599C21.7199 55.7011 23.94 53.022 25.8449 51.3654C28.5517 47.6126 32.4355 44.3202 37.0797 41.8395ZM70.3464 79.6894C71.8825 78.8689 73.2812 77.7863 74.6222 76.3794C78.3315 72.4575 80.8061 67.5663 81.412 62.9601C82.061 59.1823 81.6939 56.0848 80.2896 53.4916C78.9709 50.9556 76.5108 48.4935 72.5479 45.7442C67.7994 41.5513 62.4686 38.7976 58.2909 38.3805C55.7186 37.8935 53.2953 37.7872 50.6677 38.0462C46.8747 37.8546 42.4803 38.9855 37.9653 41.3167C37.6586 41.4705 37.3499 41.6303 37.0483 41.7914C32.3949 44.2771 28.504 47.5757 25.7964 51.3311C23.8859 52.9911 21.6544 55.6852 21.8984 59.0629C21.712 63.5054 24.0792 66.305 28.377 71.3874C28.9934 72.1162 29.6309 72.87 30.3145 73.6917C31.2341 74.7089 32.0415 75.6801 32.7538 76.5367C34.3451 78.4511 35.6017 79.9632 37.259 81.0728C39.0482 82.2707 41.1324 82.869 44.017 83.0121C46.5681 83.4592 50.1928 83.5259 54.2194 83.199C57.8897 82.901 61.3854 82.3078 63.5706 81.6123C66.2324 81.347 68.3878 80.7356 70.3464 79.6894Z" fill="#4CAF4F"/>
<path d="M38.4828 41.3097C42.8092 38.9987 47.071 37.9849 50.8077 38.378C53.2679 38.2757 55.5776 38.5048 58.3017 39.1212C62.3139 39.66 67.4381 42.2562 72.0124 46.0665C76.0483 48.6717 78.5567 50.9936 79.9094 53.3754C81.3635 55.8357 81.8045 58.9253 81.2209 62.56C80.6441 67.2977 78.1042 72.2839 74.2521 76.241C72.9824 77.5359 71.6652 78.5391 70.2254 79.3081C68.1374 80.4234 65.8045 81.0352 62.8836 81.2328C58.4723 82.4818 49.6516 83.2131 44.4387 82.3245C38.473 82.0049 36.4464 79.7866 33.0886 76.1115C32.4336 75.3947 31.7566 74.6538 30.984 73.854C30.4145 73.2079 29.8751 72.6036 29.354 72.0188C25.0348 67.1776 22.6559 64.5108 22.7291 60.2309C22.3898 56.89 24.4394 54.0737 26.2184 52.2986C29.0358 47.9031 33.1491 44.1736 38.1171 41.508C38.2396 41.4407 38.361 41.3747 38.4828 41.3097ZM70.2571 79.3565C71.703 78.5842 73.0255 77.5768 74.2998 76.2771C78.1608 72.3111 80.7064 67.3131 81.2843 62.5648C81.8697 58.9195 81.4265 55.8182 79.9666 53.3481C78.6096 50.9587 76.0955 48.6308 72.0543 46.0224C67.4745 42.207 62.3378 39.6056 58.3168 39.0658C55.5894 38.4484 53.274 38.2188 50.8125 38.3215C47.0666 37.9271 42.7904 38.9436 38.4512 41.2614C38.3292 41.3265 38.2075 41.3926 38.0852 41.4601C33.1075 44.1308 28.9861 47.8679 26.1671 52.2672C24.3833 54.0459 22.324 56.8767 22.6652 60.235C22.5915 64.5317 24.9756 67.2039 29.3028 72.0551C29.8245 72.6396 30.3634 73.2438 30.9337 73.8907C31.7069 74.6909 32.3834 75.4318 33.0381 76.1481C34.7158 77.9843 36.0409 79.4346 37.7266 80.5003C39.5442 81.6498 41.611 82.2297 44.4286 82.3806C46.8729 82.7975 50.2993 82.8837 54.0724 82.6226C57.4782 82.387 60.776 81.8881 62.8935 81.288C65.8175 81.0909 68.1599 80.4768 70.2571 79.3565Z" fill="#4CAF4F"/>
<path d="M39.2085 41.1385C43.2998 38.9531 47.3663 38.0998 50.9682 38.6708C53.2031 38.709 55.4779 39.0626 58.3491 39.8178C62.2141 40.477 67.1463 42.9164 71.5459 46.3442C75.7193 48.8361 78.2056 50.9567 79.6112 53.2227C81.1387 55.5925 81.6423 58.5958 81.1087 62.1499C80.5555 67.0287 77.9385 72.1221 73.9281 76.125C72.7181 77.3248 71.4688 78.261 70.1094 78.9872C67.8875 80.174 65.3721 80.7824 62.1934 80.9021C57.9752 81.9385 49.8087 82.5208 44.8222 81.701C38.9634 81.3667 36.809 79.235 33.2392 75.7037C32.7128 75.1833 32.1686 74.6444 31.574 74.0739C31.1417 73.6154 30.7237 73.1755 30.3218 72.7523C25.933 68.1322 23.5157 65.5873 23.476 61.4359C23.0439 58.1173 24.9264 55.1615 26.5813 53.2658C29.3209 48.4834 33.3533 44.4779 38.2467 41.6771C38.5653 41.4904 38.8888 41.3093 39.2085 41.1385ZM70.1409 79.0354C71.5062 78.3061 72.7605 77.3661 73.9753 76.1616C77.9947 72.1494 80.618 67.0441 81.1723 62.1542C81.7079 58.589 81.2015 55.5737 79.6675 53.1937C78.2572 50.9203 75.7648 48.7938 71.5862 46.2988C67.1819 42.8673 62.2389 40.423 58.3666 39.7629C55.4928 39.0067 53.2128 38.6525 50.977 38.6147C47.3643 38.0416 43.2823 38.8975 39.177 41.0904C38.8565 41.2616 38.5322 41.4431 38.2128 41.6303C33.3101 44.4363 29.2692 48.4501 26.5281 53.237C24.8685 55.1367 22.9779 58.1067 23.4122 61.4417C23.4516 65.6099 25.8742 68.1602 30.2719 72.7898C30.6739 73.2131 31.0917 73.6528 31.5251 74.1122C32.1204 74.6835 32.6646 75.2218 33.1906 75.7425C34.9775 77.5098 36.3883 78.9058 38.1174 79.9315C39.9802 81.0361 42.0448 81.5993 44.812 81.757C49.8028 82.5777 57.9832 81.9947 62.2011 80.9577C65.3839 80.8387 67.9092 80.2275 70.1409 79.0354Z" fill="#4CAF4F"/>
<path d="M39.8037 41.0385C43.718 38.9476 47.6362 38.2338 51.135 38.9743C53.4975 39.1605 55.7456 39.7293 58.3955 40.5264C62.1751 41.3209 66.7929 43.5465 71.0677 46.6332C73.9333 48.2095 77.455 50.3648 79.2956 53.079C80.8963 55.3562 81.4633 58.2712 80.9808 61.7432C80.4615 66.6862 77.7024 72.016 73.5999 76.0011C72.4466 77.1148 71.2614 77.9897 69.9769 78.6758C67.5972 79.9469 64.9866 80.5276 61.5119 80.5576C57.4183 81.3961 49.904 81.7971 45.2328 81.0583C39.4324 80.7027 37.1091 78.6369 33.2598 75.2143C32.9193 74.912 32.5677 74.5991 32.2012 74.2763C31.9395 74.02 31.6825 73.7691 31.4317 73.5237C27.0619 69.2535 24.4246 66.6758 24.2635 62.6294C23.739 59.3379 25.4509 56.244 26.9794 54.2274C29.589 49.139 33.6427 44.7454 38.3959 41.8515C38.861 41.5625 39.3347 41.289 39.8037 41.0385ZM70.0084 78.724C71.2986 78.0349 72.4888 77.1565 73.6466 76.0385C75.5699 74.1699 77.2549 71.9427 78.5194 69.5966C79.9209 66.9969 80.7706 64.3561 81.0446 61.7473C81.5287 58.2629 80.9588 55.3359 79.3508 53.0483C77.5036 50.3244 73.9745 48.1642 71.1063 46.5867C66.8277 43.4971 62.201 41.2677 58.4156 40.472C55.764 39.6743 53.5119 39.1045 51.1477 38.9186C47.6367 38.1752 43.7016 38.8914 39.7721 40.9903C39.3019 41.2415 38.8269 41.5158 38.3606 41.8054C35.9905 43.2483 33.8064 45.0405 31.8692 47.1322C29.9062 49.2515 28.2425 51.63 26.9239 54.2015C25.3917 56.2221 23.6727 59.3301 24.1999 62.6365C24.3613 66.7001 27.0043 69.2832 31.3832 73.5628C31.6345 73.8078 31.8911 74.0587 32.1537 74.3161C32.5217 74.6398 32.8732 74.9527 33.2134 75.255C37.0726 78.6865 39.4022 80.7579 45.2225 81.1145C49.8984 81.8538 57.424 81.4525 61.5172 80.6137C64.997 80.5837 67.618 80.0009 70.0084 78.724Z" fill="#4CAF4F"/>
<path d="M40.325 40.9791C44.1039 38.9606 47.9086 38.3708 51.3273 39.2735C53.7055 39.6142 56.0184 40.3983 58.4671 41.2286C62.1226 42.1542 66.5489 44.2256 70.6133 46.9127C73.7166 48.4761 77.1375 50.4114 79.0019 52.9231C80.6756 55.1057 81.3053 57.9315 80.873 61.322C80.3787 66.4 77.5436 71.8346 73.2891 75.8603C72.1884 76.8959 71.0623 77.7151 69.8461 78.3648C67.3437 79.7015 64.5684 80.2667 60.8476 80.1973C56.9006 80.8302 50.1446 81.0798 45.6604 80.4022C39.8217 80.0169 37.2545 77.9746 33.0009 74.5908L32.8466 74.4682L32.7286 74.363C28.1373 70.2687 25.3657 67.7975 25.0727 63.816C24.4577 60.5562 25.999 57.323 27.4002 55.1842C29.9138 49.7255 33.8802 45.0528 38.5706 42.0229C39.1487 41.6433 39.7389 41.2922 40.325 40.9791ZM69.8777 78.413C71.0993 77.7605 72.23 76.9379 73.335 75.898C77.5995 71.863 80.4413 66.4152 80.9369 61.3254C81.3703 57.9219 80.7376 55.0839 79.0557 52.8904C77.1843 50.3693 73.7562 48.4299 70.6497 46.8649C66.5828 44.176 62.1494 42.1015 58.4894 41.1748C56.0403 40.3443 53.7246 39.5592 51.3441 39.2183C47.9112 38.3117 44.0887 38.9037 40.2935 40.931C39.7056 41.245 39.1136 41.5972 38.5339 41.9779C33.8336 45.014 29.8593 49.6961 27.3431 55.161C25.9386 57.3043 24.3914 60.5508 25.009 63.8247C25.3033 67.8238 28.0809 70.3005 32.6823 74.4035L32.8015 74.5098L32.9572 74.6336C37.2204 78.0252 39.7934 80.072 45.65 80.4583C50.1385 81.1364 56.9041 80.8869 60.8504 80.2534C64.5774 80.3235 67.3637 79.7559 69.8777 78.413Z" fill="#4CAF4F"/>
<path d="M40.7104 40.9353C44.3809 38.9747 48.0949 38.4999 51.4512 39.5621C53.3719 39.9684 55.2764 40.7 57.2926 41.4744C57.6776 41.6223 58.0695 41.7728 58.4699 41.9244C62.0458 43.0001 66.2813 44.9206 70.0918 47.1942C73.2579 48.6476 76.7471 50.4459 78.6433 52.7759C80.3912 54.8649 81.0849 57.603 80.7048 60.9143C80.2387 66.1292 77.3314 71.6698 72.9277 75.7352C71.8771 76.7003 70.8063 77.4688 69.654 78.0843C67.0332 79.4842 64.0981 80.0284 60.1375 79.8485C56.3764 80.2673 50.3313 80.3682 46.044 79.7509C40.4541 79.3492 37.556 77.558 33.4467 74.6558C29.0029 71.1217 26.2567 68.7634 25.831 64.9898C25.1256 61.7626 26.4937 58.3884 27.7654 56.1256C30.1739 50.298 34.0495 45.3463 38.6804 42.179C39.3472 41.717 40.0303 41.2986 40.7104 40.9353ZM69.6855 78.1325C70.843 77.5143 71.9183 76.7428 72.9732 75.7738C77.3873 71.6982 80.3013 66.1445 80.7685 60.9172C81.1501 57.5923 80.4527 54.8413 78.6956 52.7413C76.7921 50.4025 73.2955 48.6001 70.1261 47.1451C66.3141 44.8707 62.0736 42.9478 58.4946 41.8714C58.0967 41.7207 57.7049 41.5702 57.3201 41.4223C55.3012 40.6469 53.3945 39.9146 51.4717 39.5077C49.8523 38.9952 48.1238 38.8403 46.3373 39.0484C44.4568 39.2676 42.553 39.8862 40.679 40.8872C39.9965 41.2518 39.3114 41.6715 38.6423 42.1348C34.0016 45.3087 30.1181 50.2701 27.7068 56.105C26.4322 58.3727 25.0595 61.7598 25.7676 65C26.195 68.7912 28.9481 71.1557 33.4042 74.6995C37.5236 77.6093 40.4287 79.4043 46.034 79.8071C50.3245 80.425 56.3775 80.3241 60.1374 79.9049C64.1061 80.0855 67.0527 79.5389 69.6855 78.1325Z" fill="#4CAF4F"/>
<path d="M41.1107 40.9422C44.6986 39.0257 48.3441 38.6554 51.6528 39.8716C53.2546 40.3242 54.8394 41.0201 56.5174 41.7568C57.1732 42.0447 57.8515 42.3424 58.5557 42.637C61.1722 43.5584 65.2211 45.1469 69.6612 47.4859C73.0568 48.8929 76.4611 50.4895 78.3796 52.6344C80.2021 54.6278 80.9582 57.2785 80.6266 60.5123C80.1846 65.866 77.1979 71.5152 72.6363 75.6243C71.645 76.5135 70.5946 77.2571 69.5146 77.834C66.7748 79.2975 63.6804 79.8184 59.481 79.5235C56.21 79.7132 50.8431 79.7247 46.4673 79.1324C41.2315 78.7244 38.0738 77.3245 34.0774 74.8835C29.546 71.7669 27.1482 69.5688 26.6204 66.2064C25.8289 63.0152 27.0264 59.497 28.1705 57.1072C30.4765 50.9104 34.2696 45.6759 38.8524 42.3653C39.5922 41.8261 40.3521 41.3474 41.1107 40.9422ZM69.5461 77.8821C70.6309 77.3027 71.6857 76.5561 72.681 75.6632C74.7971 73.757 76.6492 71.4184 78.0374 68.9003C79.5461 66.1632 80.4635 63.2633 80.6905 60.5149C81.0235 57.2664 80.2632 54.6026 78.4302 52.5978C76.5043 50.4447 73.0928 48.8444 69.6931 47.4358C65.2521 45.0962 61.2 43.5065 58.5831 42.5849C57.8812 42.2913 57.2033 41.9936 56.5476 41.7059C54.8677 40.9683 53.2809 40.2715 51.677 39.8183C50.0805 39.2315 48.3803 39.0129 46.6258 39.1698C44.7779 39.3351 42.9118 39.9151 41.0792 40.894C40.3177 41.3008 39.5554 41.7813 38.813 42.3221C34.2203 45.6397 30.4197 50.884 28.1107 57.0891C26.9641 59.4845 25.7628 63.015 26.5576 66.2184C26.819 67.8866 27.572 69.3456 28.9264 70.8077C30.2873 72.2764 32.1873 73.6566 34.0381 74.9295C38.0446 77.3766 41.2097 78.7796 46.4574 79.1885C50.8357 79.7813 56.2084 79.77 59.478 79.5797C63.6872 79.876 66.7937 79.3524 69.5461 77.8821Z" fill="#4CAF4F"/>
<path d="M41.4245 40.9361C44.9401 39.0583 48.5255 38.789 51.7935 40.1576C53.1571 40.6457 54.5073 41.3243 55.9368 42.0427C56.7796 42.4662 57.6512 42.9044 58.5738 43.328C59.2178 43.5918 59.8917 43.8647 60.5912 44.1481C63.1939 45.2024 66.1437 46.3974 69.1535 47.7597C73.1579 49.246 76.1991 50.6167 78.0317 52.4766C79.9281 54.3736 80.7475 56.9355 80.4666 60.0911C80.0591 65.4984 76.9229 71.3956 72.2821 75.4819C71.3344 76.313 70.3335 77.0126 69.3074 77.5607C66.4164 79.105 63.2678 79.5825 58.7795 79.1579C57.2453 79.1557 51.8625 79.0996 46.8606 78.4667C42.1747 78.0651 38.6489 77.0781 34.6891 75.0596C31.3361 73.1512 28.1307 70.8986 27.3941 67.3719C26.7002 64.8778 27.1008 61.6527 28.5525 58.0436C30.7459 51.4843 34.4492 45.9716 38.9801 42.5201C39.7785 41.909 40.6008 41.3761 41.4245 40.9361ZM69.3389 77.609C70.3696 77.0584 71.3747 76.3559 72.3262 75.5211C74.5046 73.6032 76.4106 71.2287 77.8385 68.6541C79.3882 65.8601 80.319 62.8998 80.5305 60.093C80.8127 56.9221 79.9883 54.3466 78.0804 52.4384C76.2405 50.5706 73.1927 49.1968 69.1824 47.7081C66.1735 46.3462 63.223 45.151 60.6197 44.0965C59.9204 43.8131 59.2466 43.5401 58.6039 43.277C57.6836 42.8544 56.8125 42.4166 55.9701 41.9933C54.5387 41.274 53.1868 40.5945 51.8211 40.1056C50.2441 39.4451 48.5684 39.1645 46.8412 39.2719C45.0217 39.385 43.1887 39.9288 41.393 40.888C40.5661 41.3297 39.7405 41.8646 38.9393 42.4778C34.3988 45.9368 30.6883 51.4594 28.4918 58.0279C27.0365 61.6461 26.6348 64.8827 27.3315 67.3859C27.655 68.9349 28.4469 70.3199 29.7527 71.6176C30.8782 72.7365 32.4356 73.8458 34.6542 75.1082C38.6236 77.1316 42.1565 78.1207 46.8508 78.5232C51.8549 79.1562 57.2416 79.2121 58.7734 79.2142C63.2736 79.6403 66.4346 79.1604 69.3389 77.609Z" fill="#4CAF4F"/>
<path d="M41.7173 40.9449C45.1265 39.1238 48.7617 38.946 51.9533 40.4441C53.1325 40.9599 54.3026 41.6298 55.5417 42.3391C56.5191 42.8986 57.53 43.4773 58.6179 44.0224C61.3047 45.2929 64.5309 46.4941 67.9463 47.766L68.6821 48.0401C72.1319 49.1744 75.6712 50.4398 77.7284 52.3293C79.701 54.1305 80.5842 56.6062 80.3532 59.6875C79.9731 65.2337 76.759 71.2436 71.965 75.3719C71.0576 76.151 70.1021 76.8104 69.1251 77.3323C65.3455 79.3512 61.4313 79.222 58.1011 78.8292C56.0303 78.6896 51.8714 78.3757 47.265 77.8382C43.4732 77.4784 39.4 76.9185 35.2996 75.2703C31.1771 73.4716 28.9085 71.341 28.1607 68.5653C27.3898 66.0681 27.6484 62.8498 28.929 58.9989C31.0094 52.0727 34.6264 46.2769 39.1136 42.6785C39.9612 41.9982 40.8372 41.415 41.7173 40.9449ZM69.1566 77.3805C70.1379 76.8563 71.0976 76.1939 72.0089 75.4118C76.8142 71.2734 80.0361 65.2488 80.4171 59.6888C80.6494 56.5915 79.7604 54.1017 77.7755 52.2891C75.7093 50.3915 72.163 49.1234 68.7079 47.9872L67.9731 47.7136C64.559 46.4424 61.3343 45.2415 58.6505 43.9725C57.5646 43.4286 56.5547 42.8503 55.578 42.2912C54.3374 41.5811 53.1657 40.9103 51.9842 40.3935C50.4217 39.6601 48.7641 39.3187 47.0576 39.3788C45.2595 39.4424 43.4522 39.953 41.6857 40.8966C40.802 41.3686 39.9224 41.9543 39.0717 42.6371C34.5751 46.2433 30.9509 52.0494 28.8672 58.9857C27.5836 62.8462 27.3248 66.075 28.0983 68.5814C28.8507 71.3729 31.1296 73.515 35.2705 75.3216C39.3796 76.9734 43.4587 77.5345 47.2549 77.8944C51.8621 78.4318 56.0222 78.7459 58.0918 78.8855C61.4316 79.2796 65.3593 79.4089 69.1566 77.3805Z" fill="#4CAF4F"/>
<path d="M37.1161 40.6141C40.4771 38.8188 44.0722 38.7365 47.2393 40.3824C48.2686 40.9192 49.2933 41.5834 50.3781 42.2865C51.4552 42.9847 52.5689 43.7067 53.7867 44.3687C56.1495 45.6531 59.0045 46.7308 63.333 47.972C67.0043 49.027 70.4714 50.1164 72.5449 51.8333C74.5931 53.5379 75.5401 55.9268 75.3594 58.9341C75.0077 64.6184 71.7169 70.7393 66.7715 74.9084C65.9028 75.6391 64.9904 76.2615 64.0596 76.7587C60.138 78.8535 56.0409 78.6349 52.5506 78.1448C51.9825 78.0646 51.4007 77.9807 50.8044 77.8946C48.4277 77.5519 45.7339 77.1633 42.8009 76.8529C42.1063 76.7795 41.388 76.7095 40.6932 76.6419C37.4481 76.3258 34.0929 75.9991 31.0445 75.1248C27.451 74.0929 24.9718 72.0611 24.0637 69.4039C23.2283 66.942 23.3549 63.644 24.4402 59.6015C26.4046 52.3111 29.9335 46.233 34.3773 42.4868C35.2658 41.7403 36.1874 41.1102 37.1161 40.6141ZM64.0912 76.807C65.0261 76.3076 65.9425 75.6824 66.8148 74.9489C71.7721 70.7696 75.0708 64.6335 75.4234 58.9349C75.6052 55.9107 74.6517 53.5073 72.5897 51.7914C70.5071 50.067 67.0329 48.975 63.3549 47.9181C59.0313 46.6781 56.1802 45.6022 53.8218 44.32C52.6061 43.6592 51.4934 42.938 50.4172 42.2404C49.3312 41.5364 48.3054 40.8715 47.2732 40.3333C45.7225 39.5275 44.0801 39.1263 42.391 39.1409C40.6112 39.1566 38.8258 39.6358 37.0846 40.5659C36.1516 41.0643 35.2262 41.6971 34.334 42.4464C32.1213 44.3119 30.1277 46.7633 28.4081 49.7331C26.7025 52.679 25.3467 55.9954 24.3779 59.5905C23.2901 63.6428 23.1638 66.9507 24.0022 69.4222C24.9162 72.0967 27.4095 74.1414 31.0228 75.1788C34.0769 76.0547 37.4357 76.3819 40.6838 76.6983C41.3784 76.7658 42.0964 76.8358 42.7906 76.9095C45.7226 77.2192 48.4155 77.6078 50.7918 77.9505C51.3877 78.0366 51.97 78.1204 52.5381 78.2008C56.0403 78.6927 60.1513 78.9115 64.0912 76.807Z" fill="#4CAF4F"/>
<path d="M42.4539 41.5323C45.8001 39.7449 49.3124 39.6227 52.3438 41.1884C53.4179 41.7425 54.4669 42.4266 55.5774 43.1508C56.5659 43.7954 57.5881 44.462 58.7047 45.0865C59.2292 45.3777 59.7978 45.6676 60.3946 45.9483C62.3737 46.8791 64.6909 47.7271 67.908 48.6982C71.434 49.768 74.7642 50.8687 76.763 52.5665C78.7351 54.2486 79.6501 56.5801 79.4829 59.4964C79.2924 62.8582 78.0502 66.2898 75.8908 69.42C74.5256 71.439 72.7953 73.3266 70.8868 74.8795C70.0506 75.569 69.1727 76.161 68.2778 76.639C65.8733 77.9234 63.2311 78.4789 59.9631 78.3871C59.0669 78.3595 58.1096 78.2828 57.0369 78.1526C56.1932 78.0551 55.3289 77.9496 54.4139 77.8382C52.3627 77.5887 50.0383 77.3055 47.561 77.0671C47.1558 77.0293 46.7479 76.9923 46.3377 76.9551C43.5478 76.702 40.6626 76.4404 37.9539 75.8309C37.3105 75.6864 36.692 75.5258 36.1161 75.3531C32.6492 74.3206 30.2453 72.323 29.347 69.7286C28.5117 67.3064 28.6071 64.0917 29.6299 60.1744C30.2939 57.5405 31.3031 54.9404 32.6294 52.4464C33.543 50.7037 34.6035 49.0417 35.7811 47.5069C36.9649 45.967 38.2158 44.662 39.7182 43.4001C40.6022 42.6582 41.5227 42.0297 42.4539 41.5323ZM68.3093 76.6871C69.2081 76.207 70.0899 75.6126 70.9294 74.9202C72.8425 73.3639 74.5769 71.4713 75.9452 69.4479C78.1102 66.3094 79.3558 62.8684 79.5469 59.497C79.7153 56.5642 78.7938 54.2185 76.8084 52.5251C74.8005 50.8194 71.4636 49.7163 67.9308 48.6445C64.7168 47.6743 62.4024 46.8273 60.4263 45.8981C59.8309 45.618 59.2636 45.3288 58.7404 45.0383C57.6256 44.4147 56.6044 43.7488 55.6168 43.1047C54.5049 42.3795 53.4547 41.6948 52.3777 41.1392C49.3255 39.5629 45.7899 39.6853 42.4224 41.4841C41.487 41.9838 40.5627 42.6148 39.6752 43.3595C38.1692 44.6246 36.915 45.9329 35.7285 47.4763C34.5488 49.0139 33.4867 50.6785 32.5715 52.4242C31.2434 54.9219 30.2325 57.526 29.5673 60.164C28.542 64.0909 28.4473 67.3153 29.2856 69.7472C30.1901 72.3585 32.6076 74.3687 36.0934 75.407C36.671 75.58 37.2908 75.7411 37.9356 75.8857C40.6488 76.4964 43.5361 76.7583 46.3287 77.0115C46.7389 77.0486 47.1469 77.0855 47.5518 77.1236C50.0282 77.3618 52.252 77.6326 54.4028 77.8943C55.3178 78.0059 56.1821 78.1113 57.0259 78.2088C58.1009 78.3392 59.06 78.416 59.9582 78.4435C63.2396 78.5359 65.8931 77.9777 68.3093 76.6871Z" fill="#4CAF4F"/>
<path d="M42.9455 42.0886C46.2709 40.3123 49.6955 40.1511 52.5883 41.6349C53.7094 42.2067 54.7814 42.911 55.9166 43.6566C56.8145 44.2465 57.7429 44.8565 58.756 45.44C59.2596 45.726 59.8071 46.0129 60.3838 46.2932C62.2963 47.2227 64.524 48.0746 67.6069 49.0553C70.9837 50.138 74.1737 51.2485 76.0959 52.9256C77.9897 54.5837 78.872 56.8552 78.7178 59.6774C78.5466 63.0012 77.297 66.3215 75.1046 69.2797C73.7484 71.1827 72.0718 72.9231 70.1206 74.4526C69.3186 75.1001 68.4774 75.6603 67.6205 76.118C65.2691 77.374 62.6853 77.9497 59.4886 77.9302C58.6175 77.9207 57.6907 77.8651 56.6551 77.7604C55.4454 77.6529 54.1796 77.5268 52.8396 77.3931C51.135 77.223 49.3726 77.0471 47.4623 76.8829L47.2588 76.8664C44.2128 76.6219 41.0634 76.3689 38.1177 75.6702C37.4978 75.5238 36.8994 75.3609 36.3407 75.1861C33.0041 74.154 30.6779 72.1932 29.7907 69.6646C28.9566 67.2844 29.0205 64.1569 29.9801 60.369C30.5816 57.8095 31.5783 55.3225 33.0269 52.7652C33.9455 51.1001 34.9993 49.525 36.248 47.9496C37.3832 46.5229 38.5686 45.3272 40.2115 43.952C41.091 43.2147 42.0108 42.5878 42.9455 42.0886ZM67.6521 76.1663C68.5128 75.7066 69.3574 75.1439 70.1626 74.4942C72.118 72.961 73.7989 71.2162 75.1579 69.3088C77.3567 66.3424 78.6102 63.012 78.7819 59.6778C78.9367 56.8395 78.0487 54.5539 76.1418 52.8846C74.2111 51.2001 71.0141 50.087 67.6306 49.002C64.5509 48.0223 62.3259 47.1714 60.4163 46.2433C59.8409 45.9637 59.2945 45.6772 58.7922 45.392C57.7808 44.8095 56.8531 44.2001 55.9561 43.6108C54.8198 42.8642 53.7461 42.1589 52.622 41.5856C51.1995 40.8561 49.64 40.5203 47.9866 40.5877C46.2961 40.6567 44.5894 41.1455 42.914 42.0404C41.9752 42.5418 41.0516 43.1715 40.1684 43.9117C38.522 45.2899 37.3339 46.4882 36.1962 47.9185C34.9453 49.4964 33.8899 51.0741 32.9697 52.7418C31.5185 55.3034 30.5201 57.7952 29.9175 60.3591C28.9554 64.1565 28.8919 67.2937 29.7294 69.6832C30.6224 72.2285 32.962 74.2019 36.3173 75.2396C36.8778 75.415 37.4771 75.578 38.099 75.7249C41.0496 76.4247 44.2019 76.6779 47.2508 76.9228L47.4536 76.9393C49.3631 77.1035 51.1256 77.2794 52.83 77.4493C54.1702 77.5831 55.436 77.7093 56.646 77.8168C57.6829 77.9215 58.6117 77.9772 59.4853 77.9868C62.6947 78.0066 65.2898 77.4281 67.6521 76.1663Z" fill="#4CAF4F"/>
<path d="M43.4458 42.6389C46.7061 40.8973 50.1349 40.6918 52.8534 42.0748C54.0274 42.666 55.1236 43.3926 56.2842 44.1617C57.0919 44.6971 57.9268 45.2504 58.8368 45.7903C59.321 46.0713 59.8486 46.3557 60.4049 46.6354C62.2535 47.5644 64.395 48.4206 67.3488 49.4115C70.5816 50.5072 73.6364 51.6278 75.4851 53.2863C77.3033 54.922 78.1531 57.1364 78.0109 59.8677C77.8575 63.1578 76.5974 66.3718 74.3666 69.1626C73.0398 70.9236 71.3664 72.5704 69.3928 74.0584C68.6247 74.6642 67.8199 75.1929 67.0006 75.6305C64.6973 76.8608 62.1655 77.459 59.0327 77.5134C58.1845 77.5219 57.2865 77.4879 56.2874 77.4092C54.5455 77.304 52.666 77.1553 50.6762 76.9981C49.6116 76.9137 48.5109 76.8267 47.3621 76.7407C44.3729 76.5428 41.2085 76.2882 38.2653 75.5529C37.6655 75.4042 37.0871 75.2391 36.5452 75.0623C33.3338 74.0305 31.0822 72.1042 30.2055 69.6383C29.3719 67.2972 29.4056 64.2525 30.3054 60.5888C30.8539 58.0782 31.8393 55.6983 33.4074 53.0985C34.3152 51.5371 35.3938 50.0004 36.7057 48.3994C37.9387 46.9015 39.1051 45.8371 40.7032 44.5044C41.5814 43.7694 42.5041 43.1419 43.4458 42.6389ZM67.0321 75.6787C67.8549 75.2392 68.663 74.7081 69.4339 74.1002C71.4115 72.6092 73.0891 70.9581 74.4191 69.1933C76.6569 66.394 77.9212 63.1691 78.075 59.8679C78.218 57.1208 77.3622 54.8926 75.5315 53.2458C73.6746 51.5797 70.6131 50.4562 67.3739 49.3585C64.4228 48.3685 62.2839 47.5134 60.4384 46.586C59.883 46.3068 59.3567 46.023 58.8736 45.7427C57.9654 45.2036 57.1308 44.6508 56.3241 44.1161C55.1618 43.3457 54.064 42.6182 52.887 42.0254C50.1481 40.632 46.6954 40.8379 43.4142 42.5906C42.4684 43.0958 41.5419 43.7261 40.6602 44.464C39.0593 45.799 37.8905 46.8658 36.6542 48.3673C35.3405 49.9709 34.2599 51.5102 33.3511 53.0738C31.7799 55.6785 30.7923 58.0636 30.2428 60.5796C29.3403 64.2524 29.3074 67.3067 30.1444 69.6572C31.0271 72.1395 33.2916 74.0781 36.5212 75.1157C37.0641 75.2929 37.6444 75.4583 38.2455 75.6075C41.1945 76.3441 44.3624 76.5991 47.3546 76.7972C48.5027 76.8831 49.6035 76.9701 50.668 77.0543C52.6582 77.2119 54.538 77.3605 56.2797 77.4654C57.2806 77.5444 58.1807 77.5784 59.031 77.5701C62.1762 77.5155 64.7185 76.9145 67.0321 75.6787Z" fill="#4CAF4F"/>
<path d="M43.922 43.1468C47.1554 41.4196 50.4923 41.1792 53.0772 42.4873C54.3075 43.101 55.427 43.8529 56.6123 44.6489C57.3287 45.13 58.0696 45.6276 58.8752 46.1219C59.3391 46.3986 59.8463 46.681 60.3832 46.9613C62.1666 47.8923 64.2208 48.7558 67.0442 49.7611C70.0078 50.8297 73.0496 52.01 74.8237 53.6522C76.5669 55.2687 77.3869 57.4277 77.2609 60.0692C77.1307 63.3264 75.8661 66.4338 73.6042 69.0553C72.3154 70.6707 70.65 72.2226 68.6534 73.6691C67.9224 74.2315 67.1576 74.7273 66.3796 75.1429C64.1276 76.3458 61.6499 76.9646 58.5822 77.0903C57.7586 77.1161 56.8905 77.102 55.9278 77.0479C53.3061 76.965 50.3791 76.7769 47.2801 76.5777C44.5618 76.4345 41.386 76.1829 38.4394 75.4027C37.861 75.251 37.3024 75.083 36.778 74.9032C33.6936 73.8676 31.5162 71.9724 30.6471 69.5666C29.811 67.2627 29.8099 64.2998 30.6436 60.7601C31.139 58.283 32.1081 56.0084 33.786 53.3841C34.6845 51.9123 35.7535 50.457 37.1497 48.8039C38.4352 47.2913 39.6009 46.3218 41.0768 45.0939L41.1716 45.0152C42.0476 44.2822 42.9729 43.6537 43.922 43.1468ZM66.4111 75.1911C67.1925 74.7737 67.9605 74.2761 68.6936 73.7117C70.6941 72.2624 72.3637 70.7065 73.6552 69.0876C75.9252 66.4573 77.1942 63.3385 77.3249 60.0691C77.4517 57.4122 76.6261 55.2397 74.871 53.6123C73.0886 51.9625 70.0399 50.7791 67.0702 49.7085C64.2496 48.7042 62.198 47.8418 60.4173 46.9123C59.8814 46.6323 59.3751 46.3507 58.9127 46.0748C58.1086 45.5814 57.3683 45.0842 56.6523 44.6033C55.4654 43.8062 54.3441 43.0531 53.1105 42.4377C50.5052 41.1193 47.1446 41.3603 43.8904 43.0986C42.9373 43.6077 42.0079 44.2388 41.1285 44.9747L41.0338 45.0534C39.5557 46.2831 38.3883 47.2542 37.099 48.7712C35.7005 50.4266 34.6302 51.8841 33.7304 53.3581C32.0486 55.9882 31.0774 58.2685 30.5808 60.7515C29.7449 64.3 29.7468 67.2725 30.5861 69.5858C31.4609 72.0075 33.6512 73.9147 36.753 74.9564C37.2787 75.1365 37.8395 75.3049 38.419 75.4572C41.3716 76.239 44.5516 76.4909 47.2734 76.6341C50.3725 76.8334 53.3004 77.0215 55.9226 77.1041C56.8859 77.1586 57.7562 77.1729 58.5823 77.1471C61.6619 77.0209 64.1494 76.3992 66.4111 75.1911Z" fill="#4CAF4F"/>
<path d="M44.4138 43.7039C47.6195 41.9916 50.8627 41.7138 53.3122 42.9416C54.6018 43.5764 55.742 44.3523 56.9492 45.1738C57.5735 45.5988 58.2189 46.0382 58.9191 46.4815C59.3693 46.757 59.8424 47.0284 60.3656 47.3118C62.0816 48.2406 64.0476 49.1072 66.7395 50.1215C69.561 51.2003 72.4581 52.3896 74.1571 54.012C75.8223 55.6041 76.6089 57.7033 76.4945 60.2507C76.3819 63.4702 75.1079 66.4675 72.81 68.9189C71.5447 70.4069 69.9304 71.8234 67.8737 73.25C67.1814 73.7687 66.4578 74.2303 65.7225 74.623C63.5183 75.8004 61.0914 76.4433 58.0853 76.6459C57.2858 76.6901 56.4473 76.6973 55.5221 76.6687C53.237 76.6695 50.6555 76.5896 47.1513 76.4096C43.6376 76.2802 40.9102 75.9156 38.5679 75.2618C38.0111 75.1083 37.4723 74.9382 36.9659 74.7565C34.0104 73.7231 31.9104 71.8651 31.0521 69.5247C30.2294 67.2943 30.1976 64.3378 30.9602 60.9751C31.529 57.8771 32.9667 55.4709 34.1554 53.7208C35.2874 51.963 36.5873 50.4146 37.5933 49.2622C38.7238 47.9763 39.7505 47.1351 40.9392 46.1614C41.1667 45.975 41.4015 45.7826 41.6458 45.5801C42.5229 44.8478 43.4541 44.2166 44.4138 43.7039ZM65.754 74.6713C66.4924 74.2769 67.2188 73.8134 67.9131 73.2935C69.9734 71.864 71.5916 70.4439 72.8597 68.953C75.1662 66.4925 76.4456 63.4828 76.5587 60.2507C76.6734 57.688 75.8815 55.5755 74.2047 53.9727C72.4978 52.3426 69.5943 51.1506 66.7668 50.0693C64.0775 49.0559 62.1141 48.1906 60.4007 47.2632C59.8785 46.9805 59.4062 46.7096 58.9574 46.4348C58.2586 45.9922 57.6134 45.5531 56.9895 45.1285C55.7805 44.3057 54.6387 43.5284 53.3452 42.8919C50.8757 41.654 47.6087 41.9323 44.3823 43.6558C43.4185 44.1706 42.4833 44.8043 41.603 45.5396C41.3588 45.7419 41.124 45.9342 40.8968 46.1205C39.7058 47.0962 38.6773 47.9387 37.5434 49.2286C36.5359 50.3828 35.234 51.9332 34.1004 53.6936C32.909 55.4477 31.4679 57.8601 30.8971 60.967C30.1324 64.3385 30.165 67.3045 30.9912 69.544C31.8548 71.9 33.9676 73.77 36.94 74.8091C37.4477 74.9911 37.9881 75.1619 38.5464 75.316C40.8942 75.971 43.6264 76.3368 47.1456 76.466C50.6508 76.6463 53.2329 76.7263 55.5185 76.7253C56.4446 76.7542 57.2851 76.7468 58.0869 76.7025C61.1044 76.499 63.5406 75.8536 65.754 74.6713Z" fill="#4CAF4F"/>
<path d="M44.9289 44.2457C48.0519 42.5776 51.2776 42.2591 53.5581 43.3934C54.9108 44.0513 56.0695 44.8544 57.2963 45.7044C57.8291 46.0737 58.3801 46.4554 58.9751 46.846C59.4043 47.1162 59.8573 47.3852 60.3605 47.6688C61.9871 48.585 63.9213 49.4834 66.4476 50.496C69.1268 51.5879 71.8788 52.7888 73.504 54.395C75.0926 55.9655 75.8475 58.0067 75.748 60.4619C75.6564 63.645 74.3767 66.5333 72.0471 68.8145C70.8165 70.1676 69.2553 71.4531 67.1324 72.8612C66.4822 73.3344 65.8038 73.7603 65.1151 74.1282C62.959 75.2799 60.5819 75.9461 57.6343 76.2254C56.8595 76.2873 56.0512 76.3156 55.1631 76.311C52.7621 76.3906 50.1161 76.3722 47.073 76.255C43.8562 76.1872 41.0561 75.8075 38.7499 75.1259C38.2151 74.97 37.6959 74.7974 37.2071 74.6131C34.3807 73.5787 32.3568 71.7549 31.5078 69.4769C30.684 67.2856 30.6182 64.4161 31.3177 61.1787C31.8186 58.1623 33.2362 55.8795 34.5567 54.0444C35.6276 52.4643 36.8743 51.0261 38.0618 49.7075C39.0877 48.5772 39.9862 47.8612 41.0263 47.0322C41.3793 46.751 41.744 46.4601 42.1389 46.1337C43.0179 45.4003 43.9565 44.7652 44.9289 44.2457ZM65.1467 74.1765C65.8383 73.8071 66.5193 73.3794 67.1707 72.9052C69.2971 71.4949 70.8621 70.206 72.0949 68.8502C74.4346 66.5599 75.7201 63.6585 75.8121 60.4614C75.9122 57.9917 75.152 55.9378 73.5525 54.3564C71.9195 52.7427 69.1613 51.5388 66.4761 50.4443C63.9524 49.4327 62.0205 48.5355 60.3964 47.6207C59.8941 47.3377 59.4418 47.0691 59.0141 46.7998C58.4202 46.41 57.8696 46.0284 57.337 45.6594C56.1083 44.8079 54.9477 44.0036 53.5909 43.3437C52.4138 42.7581 51.0301 42.5459 49.4787 42.7128C48.0028 42.8715 46.4186 43.385 44.8974 44.1975C43.9209 44.7192 42.9783 45.3569 42.0961 46.093C41.7015 46.4193 41.3369 46.7099 40.9844 46.9908C39.942 47.8216 39.0417 48.539 38.0124 49.6732C36.8232 50.9937 35.5752 52.4336 34.5026 54.016C33.1788 55.8558 31.7573 58.1454 31.2548 61.1713C30.5534 64.417 30.6199 67.2962 31.447 69.4965C32.3016 71.7898 34.3378 73.6254 37.1804 74.6652C37.6705 74.8501 38.1914 75.0232 38.7275 75.1796C41.0393 75.8628 43.846 76.2438 47.0681 76.3117C50.1129 76.4288 52.7603 76.4472 55.1616 76.3677C56.0502 76.3721 56.8609 76.3437 57.638 76.2816C60.5964 76.0015 62.982 75.3328 65.1467 74.1765Z" fill="#4CAF4F"/>
<path d="M45.4378 44.7919C48.5223 43.1443 51.6465 42.7928 53.7953 43.8515C55.2147 44.533 56.3348 45.3254 57.6319 46.243C58.0749 46.5565 58.533 46.8807 59.0249 47.2152C59.4347 47.4812 59.868 47.7476 60.3498 48.0303C61.91 48.9455 63.7542 49.8488 66.1533 50.8731C68.6915 51.9771 71.2997 53.188 72.852 54.7786C74.3644 56.3276 75.0875 58.311 75.0011 60.6741C74.9291 63.8218 73.6411 66.6021 71.2766 68.7144C69.7596 70.2656 67.8619 71.5417 66.378 72.4805C65.7729 72.9067 65.1433 73.2954 64.5046 73.6366C62.3917 74.7652 60.0582 75.4579 57.161 75.8172C56.4105 75.8975 55.6314 75.9467 54.7802 75.9673C52.3073 76.1357 49.7513 76.1847 46.9647 76.1175C43.9654 76.1057 41.1757 75.7228 38.8962 75.0103C38.3826 74.8519 37.8833 74.6768 37.4116 74.4902C34.7134 73.4566 32.7648 71.6669 31.9252 69.451C30.8833 66.731 31.1961 63.5726 31.6413 61.4022C32.0816 58.4485 33.4821 56.2839 34.9296 54.3847C35.9854 52.9073 37.1743 51.6007 38.5068 50.1674C39.4621 49.1483 40.2735 48.525 41.2131 47.8032C41.6516 47.4664 42.1051 47.118 42.6136 46.6988C43.4979 45.9621 44.4482 45.3205 45.4378 44.7919ZM64.536 73.6845C65.1772 73.342 65.8094 72.9521 66.4152 72.5253C67.9008 71.5855 69.8027 70.3065 71.323 68.7518C73.698 66.63 74.9927 63.8359 75.0652 60.6733C75.1521 58.2963 74.424 56.3001 72.9011 54.7406C71.3414 53.1426 68.7272 51.9283 66.1833 50.8219C63.7864 49.7987 61.9445 48.8966 60.3867 47.9829C59.9056 47.7005 59.4731 47.4345 59.0647 47.1695C58.5738 46.8357 58.1158 46.5116 57.673 46.1983C56.3737 45.2791 55.2518 44.4851 53.8278 43.8018C51.6594 42.7331 48.5111 43.0853 45.4063 44.7437C44.4124 45.2746 43.4584 45.9187 42.5707 46.6582C42.0632 47.0766 41.6102 47.4245 41.1721 47.761C40.2301 48.4847 39.4168 49.1096 38.4582 50.1322C37.1238 51.5674 35.9338 52.8756 34.8764 54.3551C33.4249 56.2597 32.02 58.4313 31.578 61.3956C31.1314 63.5714 30.8185 66.7397 31.8642 69.4711C32.7095 71.7016 34.6697 73.5026 37.3838 74.5422C37.857 74.7296 38.3581 74.9049 38.8729 75.0639C41.1586 75.7783 43.9556 76.1622 46.9613 76.174C49.7492 76.2415 52.3072 76.1923 54.7811 76.0238C55.6326 76.0032 56.4136 75.954 57.1669 75.8734C60.0737 75.513 62.4152 74.8174 64.536 73.6845Z" fill="#4CAF4F"/>
<path d="M45.955 45.2804C48.9973 43.6553 52.0186 43.272 54.0368 44.2551C55.5253 44.959 56.6557 45.7783 57.9644 46.7267C58.3206 46.9848 58.6888 47.2516 59.0811 47.5284C59.4711 47.7894 59.8847 48.0533 60.3462 48.3355C61.8398 49.2487 63.5946 50.1563 65.8688 51.192C68.2669 52.3063 70.7321 53.5262 72.2123 55.1018C73.6488 56.629 74.3394 58.5553 74.2651 60.8266C74.2108 63.9394 72.9123 66.6129 70.5101 68.5582C69.1822 69.8118 67.5956 70.8592 65.6212 72.0465C65.0665 72.4238 64.4901 72.7728 63.9066 73.0844C61.8315 74.1929 59.5341 74.9162 56.6769 75.3609C55.9492 75.4604 55.1989 75.5308 54.384 75.5762C51.8895 75.8398 49.4215 75.9575 46.8372 75.9361C43.9902 75.9781 41.2866 75.604 39.0175 74.8543C38.5248 74.6938 38.0452 74.5168 37.591 74.3277C35.0188 73.2957 33.1452 71.5412 32.3154 69.3867C31.2731 66.7148 31.5369 63.6697 31.9417 61.5854C32.3064 58.8411 33.5425 56.8409 35.286 54.6817C36.3294 53.299 37.5124 52.0676 38.7649 50.7639L38.9406 50.5811C39.8471 49.6451 40.5973 49.0935 41.4662 48.4549C41.9664 48.087 42.4837 47.7069 43.0821 47.2152C43.9761 46.4721 44.9425 45.8212 45.955 45.2804ZM63.938 73.1325C64.5236 72.8197 65.1021 72.4696 65.6574 72.0919C67.634 70.9035 69.2239 69.8537 70.5542 68.5978C72.9685 66.6425 74.2746 63.9545 74.3292 60.8257C74.4039 58.5408 73.7086 56.6022 72.2624 55.0647C70.775 53.4814 68.3038 52.2585 65.9001 51.1416C63.6281 50.1068 61.8754 49.2002 60.384 48.2885C59.9232 48.0068 59.5105 47.7433 59.1218 47.4832C58.7304 47.2071 58.3621 46.9404 58.0063 46.6824C56.6949 45.7321 55.5626 44.9114 54.0691 44.2051C52.0313 43.2124 48.986 43.5963 45.9235 45.2322C44.907 45.7751 43.9367 46.4286 43.0393 47.1745C42.4426 47.6649 41.9261 48.0445 41.4265 48.4118C40.5553 49.0523 39.8027 49.6056 38.8925 50.5451L38.7167 50.7284C37.4628 52.0334 36.2786 53.2662 35.234 54.6508C33.4846 56.8168 32.2441 58.8243 31.8783 61.5795C31.4724 63.6687 31.2083 66.7241 32.2546 69.407C33.0901 71.5754 34.9749 73.3413 37.5622 74.3793C38.0176 74.5688 38.499 74.7467 38.9931 74.9074C41.2691 75.6596 43.9807 76.0348 46.835 75.9929C49.4211 76.0142 51.8917 75.8963 54.3874 75.6327C55.2024 75.5871 55.9545 75.5164 56.6848 75.4169C59.5512 74.9704 61.8557 74.2448 63.938 73.1325Z" fill="#4CAF4F"/>
<path d="M46.5027 45.8047C49.4876 44.2103 52.3955 43.8012 54.2811 44.7109C55.836 45.4366 56.9689 46.2825 58.2807 47.2619C58.554 47.4659 58.837 47.6771 59.1352 47.8961C59.5054 48.1526 59.8988 48.414 60.3389 48.6956C61.7633 49.6067 63.4268 50.5197 65.5742 51.5687C67.8291 52.6943 70.1486 53.9239 71.5563 55.4862C72.9161 56.9922 73.5751 58.8602 73.5151 61.0381C73.4817 64.114 72.1778 66.6779 69.7443 68.4531C68.4026 69.6157 66.8142 70.5526 64.8772 71.6571C64.3818 71.9812 63.8685 72.2851 63.3499 72.5621C61.3125 73.6505 59.0481 74.4059 56.2237 74.9393C55.5201 75.0572 54.8001 75.1485 54.0234 75.2179C51.5411 75.577 49.1648 75.761 46.7581 75.7807C44.0928 75.8705 41.4088 75.4929 39.1993 74.7178C38.7283 74.555 38.2684 74.3754 37.8325 74.1839C35.3903 73.1527 33.593 71.4322 32.7716 69.3396C31.7275 66.7164 31.939 63.7865 32.3003 61.7905C32.6123 59.0892 33.8803 57.1256 35.688 55.008C36.6433 53.8079 37.7134 52.7334 38.8465 51.5958C39.0326 51.4088 39.2202 51.2205 39.4092 51.0296C40.279 50.1592 41.0169 49.6428 41.798 49.0963C42.3423 48.7153 42.9052 48.3215 43.5751 47.7723C44.4803 47.0209 45.4652 46.3589 46.5027 45.8047ZM63.3816 72.6105C63.9018 72.3326 64.4167 72.0272 64.9122 71.7031C66.8507 70.598 68.4419 69.6594 69.786 68.4946C72.2332 66.7094 73.5456 64.13 73.5791 61.037C73.6395 58.8459 72.976 56.966 71.6071 55.4497C70.1926 53.8801 67.8676 52.6473 65.6071 51.5189C63.4618 50.471 61.8 49.5591 60.3777 48.6493C59.9384 48.368 59.5454 48.1071 59.1765 47.8513C58.8792 47.6332 58.5965 47.4219 58.3232 47.2179C57.0088 46.2365 55.8735 45.3891 54.3132 44.6606C52.4079 43.7417 49.4763 44.1514 46.4712 45.7566C45.4297 46.3129 44.4408 46.9774 43.5324 47.7315C42.8645 48.2789 42.3027 48.6722 41.7596 49.0524C40.976 49.6006 40.2358 50.1187 39.362 50.9932C39.1727 51.1841 38.9854 51.3724 38.7992 51.5592C37.6649 52.6982 36.5932 53.774 35.6367 54.9757C33.8228 57.1007 32.5501 59.0722 32.2372 61.7853C31.8747 63.7861 31.6626 66.726 32.7109 69.3601C33.5377 71.4663 35.3459 73.1977 37.8025 74.235C38.2396 74.4272 38.7012 74.6073 39.174 74.7705C41.391 75.5484 44.0839 75.9273 46.7574 75.8373C49.1665 75.8176 51.5456 75.6333 54.0291 75.274C54.8059 75.2045 55.5277 75.1132 56.234 74.9947C59.0666 74.4599 61.3376 73.7023 63.3816 72.6105Z" fill="#4CAF4F"/>
<path d="M47.0517 46.3314C50.0159 44.7481 52.7374 44.3265 54.5181 45.1749C56.1364 45.9194 57.21 46.7482 58.5693 47.7976C58.7671 47.9504 58.971 48.1077 59.1836 48.2705C59.535 48.523 59.9088 48.7818 60.3265 49.062C61.681 49.9698 63.2541 50.8874 65.2774 51.9499C67.297 53.0348 69.5644 54.3225 70.9005 55.8728C72.1837 57.3574 72.8105 59.1675 72.7637 61.2525C72.7496 64.2916 71.4376 66.7469 68.9697 68.3538C67.7029 69.3518 66.175 70.1724 64.5573 71.0409L64.1188 71.2765C63.6943 71.5423 63.2566 71.796 62.8156 72.0316C60.806 73.105 58.56 73.8995 55.7472 74.5316C55.0671 74.6686 54.3764 74.781 53.6374 74.8742C51.1488 75.3387 48.9285 75.5833 46.6477 75.6437C44.1099 75.7815 41.5167 75.4119 39.345 74.6034C38.8953 74.4385 38.455 74.2568 38.0365 74.0624C35.7231 73.0331 34.0016 71.3476 33.1891 69.3163C32.1434 66.7416 32.3051 63.9263 32.625 62.0181C32.9171 59.0578 34.4831 57.1027 36.0618 55.3538C36.9472 54.3011 37.9293 53.3551 38.9686 52.3537C39.2609 52.0722 39.5569 51.7871 39.8554 51.4951C40.6999 50.6762 41.4018 50.2114 42.1449 49.7191C42.7228 49.3365 43.3202 48.9406 44.0505 48.3437C44.9596 47.5904 45.9974 46.8946 47.0517 46.3314ZM62.8471 72.0798C63.2895 71.8435 63.7287 71.5891 64.1525 71.3233L64.5889 71.089C66.2094 70.2188 67.7399 69.397 69.0089 68.3971C71.4922 66.7805 72.8136 64.3088 72.8278 61.2507C72.8749 59.1535 72.2439 57.3321 70.952 55.8374C69.6096 54.2799 67.3369 52.9888 65.3118 51.9009C63.2903 50.8394 61.7191 49.9229 60.3667 49.0163C59.9492 48.7367 59.5761 48.4782 59.2261 48.2265C59.0141 48.0644 58.8102 47.9071 58.6126 47.7544C57.2502 46.7027 56.1742 45.8719 54.55 45.1247C52.7492 44.2669 50.0048 44.689 47.0202 46.2833C45.9619 46.8485 44.9202 47.547 44.0078 48.3029C43.2805 48.8975 42.6843 49.2925 42.1076 49.6745C41.3619 50.1683 40.6577 50.6349 39.8087 51.458C39.51 51.7501 39.2144 52.035 38.9223 52.3163C37.8814 53.319 36.8983 54.2662 36.0119 55.3201C34.4273 57.0756 32.8549 59.0389 32.5614 62.0137C32.2407 63.9267 32.0787 66.7516 33.1288 69.3372C33.9464 71.3815 35.6785 73.0775 38.0054 74.1132C38.4253 74.3078 38.867 74.4905 39.3183 74.6556C41.4984 75.4675 44.1016 75.8385 46.6481 75.7005C48.9318 75.6396 51.1558 75.395 53.6459 74.9301C54.3847 74.8365 55.0769 74.7242 55.7599 74.5864C58.58 73.9528 60.8315 73.1564 62.8471 72.0798Z" fill="#4CAF4F"/>
<path d="M47.6073 46.7971C50.4897 45.2575 53.0886 44.8203 54.7374 45.5979C56.4123 46.3591 57.419 47.1678 58.8124 48.2873C58.9435 48.3926 59.0779 48.5005 59.2165 48.6114C59.5497 48.8611 59.9035 49.1178 60.2991 49.3969C61.5821 50.3018 63.0651 51.2266 64.9667 52.3075C67.304 53.6674 69.0947 54.8578 70.234 56.2454C71.4422 57.7123 72.0391 59.4664 72.0081 61.4593C72.0173 64.4643 70.7016 66.8122 68.203 68.2494C67.6571 68.6362 67.0288 69.0163 66.2225 69.4469C65.6386 69.7588 65.035 70.0588 64.3957 70.3763C64.0597 70.5434 63.7188 70.7129 63.374 70.8874C63.0418 71.0861 62.7007 71.2789 62.3588 71.4615C60.341 72.5394 58.1621 73.3557 55.2934 74.1086C54.6455 74.2628 53.9663 74.3991 53.275 74.5137C50.8292 75.0778 48.6979 75.3856 46.566 75.4827C44.148 75.6646 41.6467 75.2998 39.5213 74.4558C39.0915 74.2877 38.671 74.1026 38.2716 73.906C36.0867 72.8759 34.4398 71.222 33.6333 69.2485C32.5825 66.7178 32.6906 64.0154 32.9662 62.1941C33.2019 59.2693 34.7446 57.4278 36.4418 55.6458C37.2673 54.7159 38.1757 53.8782 39.1375 52.991C39.5159 52.642 39.9076 52.2808 40.2999 51.9082C41.1253 51.1315 41.7986 50.7114 42.5113 50.2668C43.1143 49.8905 43.7377 49.5017 44.5178 48.8646C45.4484 48.0946 46.5165 47.3798 47.6073 46.7971ZM66.2541 69.4952C67.0629 69.0631 67.6936 68.6816 68.2393 68.2948C70.7549 66.8477 72.0815 64.483 72.072 61.4575C72.1032 59.4528 71.5024 57.6874 70.2864 56.2111C69.1413 54.8168 67.3463 53.6231 65.003 52.2597C63.1028 51.1796 61.6213 50.2559 60.3403 49.3522C59.9452 49.0734 59.5916 48.817 59.2597 48.5682C59.122 48.458 58.9874 48.3499 58.8563 48.2446C57.4595 47.1225 56.4502 46.3118 54.7687 45.5475C53.1002 44.7607 50.4783 45.1985 47.5757 46.7489C46.4809 47.3337 45.4089 48.0512 44.4752 48.8238C43.6985 49.458 43.077 49.8458 42.4759 50.2209C41.7602 50.6674 41.0843 51.089 40.254 51.8704C39.8616 52.2428 39.4703 52.6037 39.0921 52.9526C38.129 53.8408 37.2195 54.6797 36.3927 55.6111C34.6888 57.4 33.1392 59.2501 32.9022 62.1905C32.6264 64.0163 32.5181 66.7284 33.5731 69.2696C34.3847 71.2554 36.0416 72.9199 38.2393 73.9561C38.6399 74.1533 39.0619 74.339 39.4935 74.5076C41.6282 75.3554 44.1406 75.7217 46.5682 75.539C48.7035 75.4419 50.8388 75.1337 53.2868 74.5691C53.9773 74.4546 54.6579 74.318 55.3085 74.1632C58.1835 73.4085 60.3673 72.5902 62.3903 71.5097C62.7333 71.3265 63.0752 71.1332 63.4063 70.9351C63.7487 70.7619 64.0896 70.5923 64.4255 70.4255C65.0651 70.1077 65.6692 69.8076 66.2541 69.4952Z" fill="#4CAF4F"/>
<path d="M67.4379 68.1044C67.1669 68.275 66.8791 68.441 66.5555 68.6138C65.8063 69.0141 64.9941 69.3805 64.1343 69.7686C63.6429 69.9905 63.1345 70.2198 62.6202 70.4639C62.4172 70.5788 62.2115 70.6918 62.0064 70.8014C59.984 71.8817 57.7659 72.7643 54.8151 73.6631C54.1882 73.8375 53.539 73.9961 52.8858 74.1339C50.4533 74.8124 48.4688 75.1764 46.4486 75.3142C44.1405 75.544 41.7296 75.1898 39.6586 74.317C39.2497 74.1476 38.8491 73.9608 38.4676 73.7622C36.383 72.7231 34.8543 71.1493 34.0466 69.2102C32.9956 66.7296 33.057 64.1445 33.2934 62.4126C33.4815 59.5239 35.005 57.7923 36.8272 55.9843C37.6056 55.1573 38.456 54.4109 39.3559 53.6208C39.8138 53.2188 40.2869 52.8032 40.7632 52.3657C41.578 51.6232 42.2306 51.2421 42.9212 50.8388C43.5448 50.4747 44.1896 50.0982 45.0156 49.4261C45.9771 48.633 47.0861 47.8928 48.2227 47.2857C51.0151 45.7941 53.4867 45.3422 55.004 46.0456C56.7243 46.8132 57.6547 47.5919 59.0631 48.7707L59.2929 48.963C59.6084 49.2094 59.9422 49.463 60.3143 49.7389C61.5381 50.6466 62.8892 51.5467 64.6954 52.6576C66.8624 54.0229 68.5261 55.2148 69.6014 56.5935C70.7321 58.0375 71.2949 59.7318 71.2747 61.6293C71.299 64.5141 70.0398 66.7179 67.6329 68.0035C67.5687 68.0378 67.5036 68.0717 67.4379 68.1044ZM66.5871 68.6621C66.9121 68.4885 67.2012 68.3215 67.4708 68.1518C67.534 68.1201 67.5997 68.0862 67.6644 68.0516C70.0927 66.7546 71.3634 64.5332 71.3388 61.6273C71.3591 59.7186 70.7927 58.0137 69.6547 56.5601C68.5743 55.1749 66.9062 53.9797 64.7336 52.6109C62.9287 51.5008 61.579 50.6015 60.3566 49.6951C59.9849 49.4193 59.6515 49.1661 59.3371 48.9205L59.1081 48.7287C57.6959 47.5468 56.7629 46.7659 55.0352 45.9951C53.4981 45.2825 51.0035 45.7353 48.1912 47.2375C47.0506 47.8468 45.9378 48.5895 44.9729 49.3855C44.1512 50.0541 43.5088 50.4292 42.8875 50.7919C42.1935 51.1973 41.5381 51.58 40.718 52.3272C40.2423 52.7643 39.7694 53.1795 39.3116 53.5815C38.4105 54.3727 37.5591 55.1203 36.7795 55.9484C35.0172 57.6972 33.4187 59.5079 33.2298 62.4099C32.9928 64.146 32.9312 66.7408 33.9863 69.2319C34.7991 71.1828 36.3374 72.7664 38.4338 73.8115C38.8164 74.0107 39.2188 74.1982 39.6291 74.3685C41.7104 75.2454 44.1336 75.6014 46.4522 75.3705C48.4762 75.2326 50.4656 74.8677 52.9001 74.1883C53.5531 74.0509 54.2038 73.8919 54.8326 73.7168C57.7893 72.8163 60.0112 71.9321 62.0379 70.8495C62.2434 70.7398 62.4497 70.6262 62.651 70.5124C63.1625 70.2697 63.6704 70.0405 64.1616 69.8189C65.0226 69.4304 65.8356 69.0632 66.5871 68.6621Z" fill="#4CAF4F"/>
<path d="M48.8102 47.7361C51.4913 46.3041 53.825 45.8462 55.2129 46.4798C56.9661 47.2501 57.814 47.9938 59.2183 49.2257L59.3145 49.3101C59.6136 49.5549 59.9277 49.8062 60.2754 50.0788C61.4189 50.9751 62.6827 51.8806 64.3727 53.0147C66.1011 54.2027 67.8486 55.5029 68.9218 56.9596C69.9766 58.385 70.508 60.0221 70.5018 61.8261C70.5431 64.5094 69.4152 66.5418 67.2395 67.704C67.0498 67.8053 66.8499 67.9013 66.645 67.9891C66.6026 68.0122 66.5632 68.0334 66.5232 68.0548C65.699 68.4951 64.7648 68.8694 63.7759 69.2654C63.1508 69.5158 62.5045 69.7746 61.844 70.0666C59.2279 71.4598 56.5734 72.451 54.3219 73.2374C53.7161 73.4324 53.0971 73.6126 52.4828 73.7719C50.8819 74.2999 48.7368 74.9343 46.322 75.1569C44.1506 75.4268 41.7693 75.0703 39.7873 74.1795C39.3993 74.0075 39.0184 73.8183 38.6553 73.6169C36.702 72.5814 35.2466 71.0401 34.4454 69.1598C33.3904 66.7241 33.4015 64.2534 33.5966 62.6097C33.7335 59.7558 35.2991 58.063 37.1771 56.298C37.9134 55.5596 38.7128 54.8924 39.5591 54.1859C40.0871 53.7452 40.6329 53.2894 41.1835 52.7989C41.9907 52.0857 42.6262 51.7403 43.2989 51.3745C43.9377 51.0273 44.5987 50.668 45.4642 49.9656C46.4506 49.1536 47.6388 48.3619 48.8102 47.7361ZM67.271 67.7522C69.4683 66.5784 70.6076 64.5282 70.5656 61.8235C70.5723 60.0093 70.0375 58.3618 68.9758 56.9273C67.8976 55.4643 66.1459 54.1605 64.4131 52.9693C62.7238 51.8359 61.4612 50.9311 60.3189 50.0357C59.9716 49.7635 59.6578 49.5125 59.3599 49.2685L59.2645 49.1848C57.8557 47.949 57.0054 47.2031 55.2436 46.4293C53.8362 45.7866 51.4796 46.2453 48.7787 47.688C47.6034 48.3158 46.4112 49.1101 45.4217 49.9247C44.5613 50.6231 43.9033 50.9808 43.267 51.3267C42.5906 51.6943 41.9521 52.0415 41.1389 52.7599C40.5891 53.2498 40.0439 53.7051 39.5161 54.1454C38.6688 54.8529 37.8684 55.5209 37.1305 56.2607C35.244 58.0337 33.6705 59.7356 33.5325 62.6078C33.3368 64.2558 33.326 66.7358 34.3857 69.1816C35.1915 71.0732 36.6559 72.6238 38.6201 73.6657C38.9845 73.8674 39.3671 74.0577 39.757 74.2302C41.7496 75.1263 44.1445 75.4844 46.3273 75.2131C48.7481 74.99 50.8984 74.3541 52.501 73.8255C53.1142 73.6665 53.7344 73.4861 54.3425 73.2902C56.5974 72.5027 59.2551 71.5101 61.8731 70.116C62.5303 69.8257 63.1759 69.5669 63.8004 69.3169C64.8391 68.9009 65.8174 68.5089 66.6742 68.0383C66.8776 67.9511 67.0795 67.8544 67.271 67.7522Z" fill="#4CAF4F"/>
<path d="M49.492 48.1894C50.9902 47.3891 53.7612 46.1622 55.4862 46.9366C57.2576 47.7022 58.0169 48.4027 59.3955 49.6744C59.6848 49.924 59.9789 50.1726 60.2995 50.4392C61.648 51.5598 63.0455 52.6051 64.1122 53.391C65.6921 54.5826 67.2938 55.8865 68.3024 57.3426C69.2814 58.7498 69.7813 60.3293 69.7881 62.0379C69.8445 64.5382 68.8332 66.4155 66.8636 67.4676C66.5685 67.6253 66.2483 67.7667 65.9118 67.8875C65.16 68.2396 64.3154 68.5313 63.4211 68.8402C62.6816 69.0956 61.917 69.3598 61.128 69.6825C58.9028 70.787 56.6255 71.7374 53.8902 72.8249C53.304 73.0418 52.7154 73.2431 52.1418 73.423C50.4839 74.061 48.4902 74.7476 46.2584 75.0128C44.1854 75.3261 41.8977 74.9772 39.9812 74.0563C39.6141 73.8823 39.2529 73.6907 38.9075 73.4865C37.0875 72.4558 35.7057 70.9481 34.911 69.1256C33.8511 66.7351 33.8126 64.3803 33.9669 62.8256C34.055 60.0009 35.5929 58.4138 37.594 56.6325C38.2944 55.9709 39.0498 55.373 39.8498 54.7398C40.4414 54.2716 41.053 53.7874 41.6708 53.254C42.2982 52.716 42.8101 52.4156 43.2279 52.1924C43.4037 52.0985 43.5735 52.013 43.7537 51.9223C43.9317 51.8328 44.1165 51.74 44.3052 51.6392C44.7164 51.4196 45.2782 51.0947 45.9791 50.5271C47.0157 49.6759 48.2633 48.8457 49.492 48.1894ZM66.8952 67.5158C68.8866 66.4522 69.909 64.5571 69.852 62.0349C69.8453 60.3408 69.3285 58.7074 68.3575 57.3117C67.3444 55.8491 65.7387 54.5419 64.1545 53.3471C63.0881 52.5616 61.6918 51.5171 60.3444 50.3971C60.0241 50.131 59.7301 49.8826 59.4459 49.6374C58.0593 48.3582 57.2973 47.6552 55.5167 46.8857C53.7647 46.0992 50.9703 47.3347 49.4605 48.1412C48.2279 48.7996 46.9765 49.6324 45.9366 50.4862C45.2403 51.0502 44.6824 51.3729 44.2738 51.5911C44.0857 51.6916 43.9017 51.7839 43.7235 51.8734C43.5513 51.9601 43.3729 52.0498 43.1963 52.1441C42.7752 52.3691 42.2597 52.6719 41.627 53.2142C41.0104 53.7469 40.3992 54.2307 39.8079 54.6985C39.0071 55.3322 38.2504 55.9311 37.5489 56.5941C35.5376 58.3841 33.9918 59.9803 33.9028 62.8247C33.748 64.3835 33.7871 66.7477 34.8511 69.148C35.6505 70.9809 37.0405 72.4979 38.8712 73.5344C39.2174 73.7393 39.5803 73.9316 39.9491 74.1064C41.8777 75.0332 44.18 75.3841 46.2655 75.0685C48.5045 74.8028 50.5034 74.1142 52.1631 73.4756C52.7362 73.2962 53.3255 73.094 53.9137 72.8767C56.6516 71.7882 58.9303 70.8371 61.1554 69.7329C61.9401 69.4118 62.7037 69.148 63.4424 68.8929C64.3385 68.5833 65.185 68.2911 65.937 67.9386C66.2735 67.8177 66.597 67.6751 66.8952 67.5158Z" fill="#4CAF4F"/>
<path d="M50.1645 48.5949C52.5987 47.2947 54.5741 46.8582 55.7269 47.3657C57.5028 48.12 58.1964 48.7951 59.4552 50.0205C59.73 50.2712 60.0046 50.5175 60.2953 50.7745C61.4859 51.8276 62.696 52.8243 63.8264 53.7445C65.1908 54.8808 66.7137 56.2407 67.6621 57.7068C68.5534 59.0779 69.0348 60.6437 69.0544 62.235C69.1247 64.6045 68.241 66.2967 66.4278 67.2652C66.0441 67.4702 65.6153 67.6423 65.1535 67.7768C64.4945 68.032 63.7653 68.2409 62.9932 68.4621C62.1536 68.7026 61.2854 68.9514 60.3816 69.2915C59.0405 69.9045 57.7067 70.4976 56.2944 71.1255C55.3587 71.5414 54.3913 71.9716 53.4198 72.4088C52.85 72.65 52.2915 72.8731 51.76 73.0718C50.0643 73.8242 48.2124 74.5618 46.1479 74.8682C44.1669 75.2251 41.9706 74.8838 40.1218 73.9324C39.7746 73.7561 39.4328 73.562 39.1058 73.3552C37.4179 72.3303 36.1081 70.8543 35.3183 69.0871C34.2525 66.7379 34.1647 64.4973 34.279 63.0311C34.3195 60.2313 35.8295 58.7449 37.9578 56.9505C38.6264 56.3559 39.3446 55.8184 40.1049 55.2495C40.7559 54.7622 41.4292 54.2585 42.1098 53.6888C42.5318 53.3377 42.9412 53.0607 43.3973 52.8171C43.6601 52.6767 43.9081 52.5622 44.1706 52.441C44.4331 52.32 44.705 52.1946 44.9929 52.0408C45.4974 51.7713 45.9607 51.4614 46.4504 51.0655C47.5376 50.1754 48.8913 49.275 50.1645 48.5949ZM66.4595 67.3135C68.295 66.333 69.1894 64.6232 69.1182 62.2315C69.0988 60.6315 68.6144 59.0563 67.718 57.6772C66.7657 56.2048 65.239 54.8416 63.8709 53.7021C62.7409 52.7823 61.5313 51.7861 60.3414 50.7337C60.051 50.4769 59.7766 50.2306 59.5028 49.981C58.2394 48.751 57.5431 48.0732 55.7568 47.3146C54.5845 46.7983 52.587 47.2359 50.1329 48.5467C48.8561 49.2288 47.4984 50.1319 46.408 51.0246C45.9218 51.4175 45.4622 51.7252 44.9614 51.9927C44.6755 52.1454 44.4046 52.2703 44.1428 52.3911C43.8794 52.5126 43.6302 52.6275 43.3657 52.7688C42.9053 53.0147 42.4927 53.2941 42.0669 53.6483C41.3875 54.2168 40.715 54.7201 40.0648 55.2067C39.3031 55.7766 38.5839 56.3149 37.9137 56.9107C35.7743 58.7146 34.2559 60.2099 34.2149 63.0311C34.1005 64.5015 34.1886 66.751 35.259 69.1097C36.0531 70.8871 37.3701 72.3713 39.0677 73.402C39.3959 73.6095 39.7392 73.8046 40.0878 73.982C41.9499 74.9397 44.162 75.2833 46.1572 74.9242C48.2291 74.6163 50.0866 73.8767 51.785 73.1233C52.3154 72.925 52.8748 72.7014 53.4463 72.4595C54.4185 72.0218 55.3862 71.5917 56.3212 71.176C57.7338 70.5479 59.0678 69.955 60.4071 69.3425C61.3058 69.0045 62.1725 68.7562 63.0107 68.5159C63.7844 68.2942 64.5152 68.0849 65.1744 67.8296C65.638 67.6948 66.0713 67.5209 66.4595 67.3135Z" fill="#4CAF4F"/>
</svg>
