<svg width="93" height="109" viewBox="0 0 93 109" fill="none" xmlns="http://www.w3.org/2000/svg">
<g opacity="0.4">
<path d="M54.5706 33.6524C56.4173 33.2429 57.7868 33.1133 59.0111 33.2323C63.698 33.7698 68.4551 39.025 71.13 46.6207C72.438 50.4271 72.8665 54.1736 72.3691 57.455C71.9137 60.3195 70.6514 63.2628 68.3964 66.7177C66.8319 69.0827 64.8673 71.2827 62.2138 73.6412C59.5181 76.0178 57.2221 77.3678 54.7692 78.0182C54.6575 78.0467 54.5453 78.0735 54.4262 78.0999C51.6044 78.7257 46.8675 78.7321 41.7551 78.117C36.559 77.492 31.9621 76.3254 29.4584 74.9966C23.1123 73.057 23.01 69.805 22.8547 64.8825C22.7859 62.699 22.7077 60.2242 22.1066 57.3461C21.6722 55.2692 21.2557 53.421 20.8882 51.7902C19.1232 43.9593 18.3174 40.3852 21.0593 35.632C21.7382 34.5194 22.8466 33.7857 24.3531 33.4516C25.5407 33.1882 26.9857 33.1704 28.6483 33.3987C30.158 33.6114 31.7457 33.9428 33.4267 34.2937C35.6376 34.7553 37.9237 35.2327 40.3555 35.5127C43.2465 35.8333 46.2645 35.6315 49.5822 34.8958C50.0747 34.7866 50.5885 34.6623 51.1094 34.5265C51.3434 34.4653 51.5755 34.4042 51.8054 34.3437C52.7704 34.0895 53.6819 33.8495 54.5706 33.6524ZM54.4375 78.1434C54.5572 78.1168 54.6701 78.09 54.7827 78.0614C57.2448 77.4085 59.5477 76.0549 62.2501 73.6723C64.9071 71.3108 66.8742 69.1077 68.4413 66.7394C70.6996 63.279 71.964 60.3305 72.4204 57.4598C72.9188 54.1718 72.4896 50.4188 71.1795 46.6065C68.4989 38.9945 63.7256 33.7273 59.0188 33.1876C57.7876 33.0678 56.4122 33.1978 54.5592 33.6087C53.6694 33.806 52.7574 34.0462 51.7917 34.3006C51.5619 34.3612 51.33 34.4223 51.0959 34.4834C50.5757 34.6189 50.0626 34.7431 49.5708 34.8521C46.2596 35.5864 43.2479 35.7879 40.3634 35.4681C37.9346 35.1883 35.6499 34.7113 33.4401 34.2499C31.7582 33.8987 30.1697 33.567 28.658 33.3543C26.9882 33.125 25.5361 33.1431 24.3417 33.4079C22.8199 33.7454 21.7003 34.487 21.0135 35.6123C19.6802 37.9235 19.145 39.9902 19.2241 42.5233C19.3008 44.9827 19.9453 47.8423 20.8374 51.8001C21.2048 53.4307 21.6215 55.2789 22.0555 57.3555C22.6562 60.2299 22.7341 62.7032 22.8029 64.8851C22.8831 67.4258 22.9462 69.4328 23.7878 71.1027C24.6975 72.9084 26.4393 74.1218 29.4356 75.0372C31.9398 76.3671 36.544 77.5358 41.7466 78.1618C46.8653 78.7774 51.6095 78.7705 54.4375 78.1434Z" fill="#4CAF4F"/>
<path d="M54.3339 77.6133C54.2673 77.6293 54.201 77.6445 54.1327 77.6597C51.4361 78.2577 46.8694 78.2517 41.9172 77.6432C36.8774 77.0243 32.4036 75.8811 29.9495 74.5852C23.7814 72.6882 23.6173 69.5293 23.3691 64.7476C23.2617 62.68 23.1399 60.3364 22.5397 57.623C22.1078 55.6438 21.6934 53.8777 21.3278 52.3196C19.5543 44.7609 18.7448 41.311 21.3484 36.697C22.0392 35.4999 23.2125 34.7104 24.8364 34.3503C25.9254 34.1088 27.2238 34.0595 28.6955 34.2039C30.4924 34.3128 32.415 34.5989 34.4504 34.9019C36.3629 35.1867 38.3408 35.4811 40.415 35.661C44.7132 36.0077 48.596 35.3247 51.1427 34.7809L51.5895 34.6762C52.1319 34.5493 52.6444 34.4293 53.1558 34.3158C55.3313 33.8334 57.1307 33.5566 58.8412 33.7744C63.3671 34.3704 68.0087 39.4583 70.6659 46.7364C72.0491 50.4553 72.5609 54.1001 72.1461 57.2766C71.7649 60.0959 70.5718 62.9886 68.3913 66.3798C66.8049 68.8602 64.7695 71.1168 61.9856 73.4811C59.2693 75.7678 56.918 77.0403 54.3619 77.6071L54.3339 77.6133ZM54.1441 77.7035C54.2128 77.6882 54.2794 77.673 54.3457 77.6567L54.3733 77.6507C56.9389 77.0818 59.2977 75.8056 62.0211 73.5128C64.8087 71.1453 66.8473 68.8854 68.4364 66.4011C70.6202 63.0043 71.8155 60.1062 72.1976 57.2805C72.6132 54.0977 72.1006 50.4465 70.7153 46.7216C68.0524 39.4278 63.395 34.3283 58.8501 33.7297C57.1311 33.511 55.326 33.7883 53.1444 34.2721C52.6326 34.3856 52.1201 34.5057 51.5773 34.6327L51.1311 34.7371C48.5886 35.2801 44.7116 35.9621 40.4215 35.6163C38.3492 35.4363 36.3722 35.1421 34.4604 34.8576C32.4238 34.5543 30.5 34.268 28.702 34.1591C27.2249 34.0141 25.9203 34.0638 24.825 34.3067C23.1857 34.6702 22.0003 35.4679 21.3026 36.6779C18.6905 41.3062 19.5011 44.7607 21.2771 52.3298C21.6426 53.8879 22.057 55.6537 22.4889 57.6328C23.0885 60.343 23.2101 62.6849 23.3174 64.7509C23.4455 67.219 23.5467 69.1684 24.393 70.7925C25.3077 72.5482 27.0145 73.7305 29.9264 74.6259C32.3813 75.9227 36.8627 77.0681 41.9084 77.6879C46.8671 78.2972 51.4412 78.3028 54.1441 77.7035Z" fill="#4CAF4F"/>
<path d="M25.3362 35.2463C26.3174 35.0287 27.4617 34.9547 28.7368 35.0262C30.8783 34.9825 33.2167 35.2006 35.6924 35.4316C37.2376 35.5757 38.8353 35.7247 40.485 35.8204C44.5439 36.0235 48.1806 35.5405 51.2029 35.0413L51.3781 35.0056C54.1121 34.4481 56.4735 33.9666 58.7104 34.3193C63.0823 34.9714 67.6124 39.8872 70.2517 46.8434C71.7317 50.5241 72.3096 53.9691 71.9694 57.0833C71.6654 59.8173 70.5048 62.7418 68.4218 66.0241C66.8324 68.5845 64.6597 70.9652 61.7794 73.3023C59.0422 75.503 56.5639 76.7267 53.9065 77.1917L53.8477 77.2048C51.2723 77.776 46.8693 77.7591 42.0702 77.1598C37.1796 76.5491 32.8222 75.4314 30.4136 74.1702C24.4141 72.3191 24.1888 69.2541 23.8477 64.6146C23.7043 62.6647 23.5416 60.4548 22.9447 57.9082C22.5161 56.0304 22.1048 54.3498 21.7421 52.867C19.9598 45.5816 19.1462 42.2565 21.6194 37.7809C22.3235 36.4899 23.574 35.6371 25.3362 35.2463ZM54.5266 77.1145C56.9633 76.5741 59.279 75.3731 61.8139 73.335C64.6987 70.9942 66.8749 68.6096 68.467 66.0451C70.5536 62.7571 71.7161 59.8267 72.0209 57.0863C72.3619 53.9657 71.783 50.5141 70.3008 46.8279C68.999 43.3967 67.2238 40.4047 65.1676 38.1754C63.111 35.946 60.8817 34.5972 58.7208 34.275C56.4735 33.9206 54.1074 34.4031 51.3676 34.9617L51.1936 34.9972C48.1756 35.4957 44.5427 35.9782 40.4896 35.7754C38.8415 35.6798 37.2441 35.5308 35.6993 35.3867C33.2219 35.1557 30.8817 34.9373 28.7394 34.9812C27.4608 34.9094 26.3115 34.9838 25.3248 35.2026C23.5461 35.597 22.2838 36.4583 21.5728 37.7625C19.092 42.252 19.9067 45.5818 21.6916 52.8775C22.0542 54.3602 22.4655 56.0407 22.8939 57.9184C23.4903 60.462 23.6529 62.6703 23.7958 64.6187C23.972 67.0134 24.1111 68.9045 24.9632 70.4817C25.8842 72.187 27.5581 73.337 30.3906 74.2108C32.7999 75.473 37.1645 76.5929 42.0616 77.2043C46.867 77.8046 51.2774 77.821 53.8591 77.2485L53.9168 77.2356C54.1193 77.2001 54.3249 77.1592 54.5266 77.1145Z" fill="#4CAF4F"/>
<path d="M25.9012 36.1293C26.7579 35.9393 27.7339 35.8495 28.8016 35.8625C31.3511 35.6041 34.202 35.7315 37.2205 35.8662C38.3027 35.9147 39.4217 35.9647 40.5576 35.9983C44.6883 36.0821 48.4782 35.6442 51.2455 35.3246C53.8314 34.8788 56.2724 34.4579 58.5478 34.8901C60.6219 35.2393 62.7706 36.5545 64.7625 38.6936C66.7583 40.8372 68.4967 43.7014 69.79 46.9769C71.3472 50.5658 72.0055 53.9094 71.7463 56.9147C71.5169 59.6003 70.4276 62.4707 68.4163 65.6898C66.8068 68.3631 64.5618 70.8001 61.5527 73.1402C59.1824 74.9663 57.0005 76.0558 54.686 76.569C54.2893 76.657 53.8819 76.729 53.4752 76.7828C50.9974 77.3096 46.7719 77.2696 42.1687 76.6762C37.3969 76.061 33.2953 74.9981 30.9156 73.7599C25.0931 71.9521 24.8039 68.981 24.3662 64.4836C24.1881 62.6529 23.9861 60.5779 23.3937 58.1993C22.9695 56.4264 22.5622 54.8337 22.203 53.4285C20.4097 46.4135 19.5911 43.2119 21.928 38.8755C22.6439 37.4789 23.9808 36.5551 25.9012 36.1293ZM54.6975 76.6127C57.0204 76.0976 59.2093 75.0047 61.5864 73.1737C64.6006 70.8295 66.8495 68.3882 68.4618 65.7101C70.4765 62.4854 71.5679 59.6089 71.7979 56.9168C72.0575 53.9048 71.3983 50.555 69.8387 46.9606C68.5438 43.6809 66.8025 40.8121 64.803 38.6647C62.8036 36.5176 60.6448 35.1971 58.5596 34.8459C56.2744 34.4119 53.8283 34.8337 51.2385 35.2801C48.4745 35.5994 44.6869 36.0368 40.5605 35.9533C39.4255 35.9196 38.3067 35.8696 37.2245 35.8213C34.204 35.6864 31.3507 35.5591 28.8006 35.8176C27.7315 35.8044 26.7511 35.8946 25.8898 36.0856C23.9528 36.5152 22.6039 37.4478 21.881 38.8577C19.537 43.2078 20.3565 46.4143 22.1525 53.4395C22.5118 54.8446 22.9189 56.437 23.3432 58.2098C23.9348 60.5859 24.1366 62.6593 24.3147 64.4887C24.5408 66.8097 24.719 68.6431 25.5768 70.1738C26.5041 71.8288 28.1437 72.9473 30.8925 73.8004C33.2732 75.0397 37.3818 76.1047 42.16 76.7208C46.7688 77.3149 51.0023 77.3545 53.4838 76.827C53.8898 76.7732 54.299 76.7011 54.6975 76.6127Z" fill="#4CAF4F"/>
<path d="M26.4774 36.9321C27.1921 36.7736 27.9861 36.6784 28.838 36.649C31.8842 36.0932 35.3845 36.1076 39.0897 36.123C39.5929 36.1251 40.1004 36.1273 40.6125 36.1279C43.7246 36.0996 46.5882 35.8931 49.1146 35.7108C49.8746 35.6559 50.5924 35.6042 51.2804 35.5598C53.9936 35.1829 56.238 34.9327 58.3851 35.4128C60.3864 35.7917 62.4676 37.081 64.4044 39.1413C66.3458 41.2067 68.0528 43.9522 69.3406 47.0812C70.9782 50.5837 71.7176 53.8303 71.5385 56.7315C71.3844 59.3714 70.3656 62.1916 68.4236 65.3528C66.8163 68.1047 64.4309 70.6724 61.3334 72.9857C59.1155 74.6263 57.0611 75.6169 54.8686 76.1032C54.2755 76.2347 53.6617 76.3295 53.0441 76.3856C50.6456 76.857 46.5958 76.7864 42.2078 76.1969C37.6438 75.5837 33.7025 74.5478 31.3946 73.3547C25.7413 71.5862 25.3859 68.7037 24.8483 64.3403C24.6372 62.6271 24.3979 60.6855 23.8112 58.4721C23.3916 56.805 22.9891 55.3006 22.6336 53.9734C20.8243 47.2143 19.9986 44.1295 22.201 39.9241C22.9304 38.4061 24.3689 37.3997 26.4774 36.9321ZM54.88 76.1469C57.0808 75.6589 59.1417 74.6651 61.3663 73.0195C64.4693 70.7024 66.859 68.1295 68.4693 65.3728C70.4148 62.2059 71.4357 59.3795 71.5901 56.7325C71.7695 53.8248 71.0291 50.5719 69.389 47.0641C68.0996 43.9313 66.3897 41.1812 64.4447 39.1123C62.5007 37.0442 60.4099 35.7497 58.3983 35.369C56.2426 34.887 53.9927 35.1375 51.2759 35.5151C50.5899 35.5593 49.872 35.611 49.1117 35.6658C46.5862 35.8481 43.7237 36.0545 40.6136 36.0828C40.1021 36.0821 39.5945 36.08 39.0916 36.0779C35.3834 36.0625 31.8806 36.0481 28.833 36.6045C27.9822 36.6334 27.1841 36.7292 26.466 36.8884C24.3404 37.3598 22.8897 38.3754 22.1538 39.9069C19.944 44.1258 20.7712 47.2154 22.5836 53.9847C22.9387 55.3119 23.3415 56.816 23.7607 58.4831C24.3467 60.6942 24.5861 62.6345 24.7967 64.3463C25.0744 66.5983 25.2937 68.377 26.1592 69.864C27.0951 71.4716 28.7024 72.5609 31.3716 73.3953C33.6808 74.5895 37.6283 75.6274 42.1984 76.2414C46.5925 76.8317 50.6495 76.9022 53.0511 76.43C53.6682 76.3743 54.2846 76.279 54.88 76.1469Z" fill="#4CAF4F"/>
<path d="M29.7765 37.2811C32.9526 36.5768 36.5909 36.4274 40.6742 36.316C42.3408 36.2515 43.9165 36.1686 45.4402 36.0883C47.5753 35.9758 49.592 35.8698 51.3309 35.8479C53.8215 35.5898 56.0589 35.4221 58.2433 35.9846C60.1733 36.3911 62.1875 37.6508 64.0693 39.6276C65.9563 41.6097 67.6309 44.2306 68.9124 47.2068C70.6303 50.6151 71.4492 53.7585 71.3466 56.5506C71.2667 59.1395 70.3154 61.9048 68.4385 65.0043C66.8081 67.8682 64.3427 70.4942 61.1107 72.8102C59.0639 74.2626 57.0776 75.1885 55.0387 75.6407C54.2537 75.8147 53.4334 75.9243 52.6005 75.9664C47.8999 76.8099 36.7815 75.4707 31.8473 72.9461C26.3577 71.2226 25.936 68.4327 25.2973 64.2095C25.057 62.6185 24.7844 60.8154 24.2066 58.773C23.7947 57.2186 23.3983 55.8087 23.0488 54.5648C21.2234 48.0698 20.3901 45.1055 22.4647 41.0353C23.2086 39.3812 24.7688 38.2807 27.1017 37.7634C27.6516 37.6414 28.2471 37.553 28.8717 37.5001C29.1671 37.4225 29.4699 37.3491 29.7765 37.2811ZM55.0501 75.6844C57.0967 75.2305 59.0896 74.3016 61.1428 72.8446C64.3809 70.5244 66.8509 67.8931 68.4844 65.0239C70.365 61.9184 71.3183 59.1467 71.3983 56.5507C71.5012 53.7518 70.6809 50.602 68.9603 47.1888C67.6775 44.2092 66 41.5841 64.1096 39.5982C62.2209 37.6142 60.1974 36.3496 58.258 35.941C56.0654 35.3765 53.8226 35.5445 51.3289 35.803C49.5915 35.8247 47.5742 35.931 45.4386 36.0433C43.9149 36.1236 42.3396 36.2064 40.6738 36.271C36.5877 36.3825 32.9463 36.5321 29.7651 37.2376C29.4578 37.3057 29.1543 37.3793 28.863 37.4562C28.2408 37.5083 27.6427 37.5974 27.0904 37.7198C24.7396 38.2412 23.1672 39.351 22.4169 41.0189C21.4121 42.9903 21.0637 44.7582 21.2526 46.9295C21.4332 49.0075 22.0896 51.3435 22.9984 54.5767C23.348 55.8205 23.7442 57.2303 24.1564 58.7846C24.7333 60.825 25.0058 62.6268 25.2462 64.2168C25.5759 66.3963 25.8359 68.1179 26.7101 69.5583C27.6555 71.116 29.2326 72.1732 31.8241 72.9867C34.0624 74.1321 37.8516 75.1389 42.2168 75.7467C46.3981 76.3292 50.2819 76.4279 52.606 76.011C53.4383 75.9691 54.2618 75.8592 55.0501 75.6844Z" fill="#4CAF4F"/>
<path d="M31.7169 37.5135C34.6975 36.8525 37.9512 36.6056 40.7408 36.4512C44.468 36.1998 48.3588 35.9647 51.371 36.0891C54.0305 35.915 56.0791 35.9252 58.0816 36.5138C61.8817 37.4065 65.8573 41.544 68.458 47.3117C70.2582 50.6315 71.1578 53.6763 71.1324 56.3631C71.1298 58.9037 70.2494 61.617 68.4415 64.6588C66.816 67.5958 64.2054 70.3565 60.8919 72.643C58.9809 73.949 57.1224 74.7899 55.2104 75.2139C54.2297 75.4314 53.2368 75.5428 52.1752 75.5545C49.9334 75.9149 46.2348 75.7853 42.2767 75.2082C38.1283 74.6035 34.508 73.6263 32.3441 72.5273C27.0217 70.8421 26.5293 68.1394 25.7838 64.0481C25.5163 62.5786 25.2129 60.9131 24.6465 59.0402C24.2429 57.6004 23.8542 56.2863 23.5108 55.1271C21.7193 49.0699 20.8199 46.0296 22.7612 42.0876C23.5075 40.3012 25.2548 39.0576 27.8141 38.4901C28.1692 38.4113 28.5433 38.3447 28.927 38.292C29.7865 37.9953 30.7232 37.7339 31.7169 37.5135ZM55.2218 75.2576C57.1412 74.8319 59.006 73.9882 60.9232 72.6781C64.2432 70.3871 66.8589 67.6206 68.4875 64.678C70.2992 61.6302 71.1814 58.9097 71.1842 56.3622C71.2094 53.6686 70.3084 50.6174 68.5056 47.2928C65.8997 41.5139 61.9114 37.3666 58.0978 36.4706C55.8713 35.8162 53.5542 35.9011 51.3718 36.0442C48.3597 35.9198 44.4672 36.1548 40.7384 36.4062C37.9469 36.5608 34.6905 36.8079 31.7055 37.4699C30.7099 37.6907 29.7707 37.9529 28.9148 38.2489C28.5352 38.3004 28.1594 38.3672 27.8027 38.4463C25.2252 39.0179 23.4653 40.2717 22.7131 42.0721C20.7655 46.0272 21.6663 49.0725 23.4611 55.1394C23.804 56.2986 24.1926 57.6125 24.5962 59.0525C25.1622 60.9234 25.4654 62.5879 25.7329 64.0563C26.1176 66.1679 26.4214 67.8357 27.3055 69.2333C28.2615 70.7442 29.8084 71.7725 32.3214 72.5681C34.486 73.668 38.1127 74.6471 42.2669 75.2527C46.2303 75.8305 49.9357 75.9602 52.1787 75.5992C53.2401 75.5879 54.237 75.476 55.2218 75.2576Z" fill="#4CAF4F"/>
<path d="M33.7699 37.6009C35.7737 37.1565 38.0762 36.8295 40.8086 36.6014C45.2875 36.1713 48.7587 36.087 51.4209 36.3438C53.861 36.2832 55.9006 36.381 57.935 37.0558C61.5786 38.0064 65.444 41.9808 68.0245 47.4287C69.9091 50.6595 70.8895 53.6061 70.9393 56.188C71.0138 58.6792 70.2033 61.3414 68.4618 64.3267C66.3839 68.1819 63.085 70.8947 60.6834 72.4916C58.8965 73.6685 57.1573 74.4337 55.3666 74.8308C54.2117 75.0869 53.0297 75.1945 51.7529 75.1598C47.3473 75.7793 37.3825 74.4206 32.8296 72.1288C27.6666 70.4808 27.1006 67.8628 26.2441 63.9002C25.9532 62.5543 25.6235 61.029 25.0715 59.3275C24.6788 58.0071 24.2998 56.7932 23.9652 55.7222C22.1465 49.8996 21.2337 46.9769 23.0449 43.1593C23.8054 41.1924 25.7242 39.8169 28.5949 39.1803C28.7195 39.1527 28.8476 39.1261 28.9756 39.1013C30.4059 38.4897 31.9723 37.9995 33.7699 37.6009ZM55.378 74.8745C57.1758 74.4758 58.9212 73.708 60.714 72.5272C63.1205 70.927 66.4258 68.2086 68.5079 64.3455C70.2533 61.3539 71.0657 58.6848 70.9909 56.1858C70.9412 53.5973 69.9589 50.644 68.0717 47.4089C65.4863 41.9508 61.6086 37.9668 57.9529 37.0131C55.9124 36.3363 53.8671 36.238 51.4245 36.2988C48.7619 36.0419 45.2871 36.1262 40.8051 36.5566C38.0702 36.7849 35.7651 37.1122 33.7585 37.5572C31.9572 37.9566 30.3876 38.448 28.9597 39.0592C28.8373 39.0822 28.7086 39.1089 28.5835 39.1366C25.6944 39.7773 23.7624 41.1632 22.9967 43.1445C21.1792 46.9751 22.0935 49.9027 23.9152 55.7351C24.2496 56.806 24.6289 58.0196 25.0218 59.3403C25.5731 61.0404 25.9026 62.5648 26.1933 63.9097C27.053 67.887 27.6212 70.5146 32.8067 72.1694C37.3638 74.4638 47.3461 75.825 51.755 75.2047C53.0314 75.2395 54.2183 75.1317 55.378 74.8745Z" fill="#4CAF4F"/>
<path d="M35.7734 37.6213C37.3447 37.2729 39.0145 37.0021 40.8773 36.7937C45.127 36.2644 48.6942 36.2111 51.4801 36.6353C53.4656 36.6715 55.6027 36.817 57.8023 37.6303C61.2924 38.6354 65.0487 42.4397 67.607 47.5591C69.6051 50.7397 70.6359 53.5042 70.7592 56.0129C70.9105 58.451 70.1676 61.0584 68.4883 63.985C66.8454 67.103 63.9978 70.064 60.4698 72.3232C58.7947 73.3861 57.1647 74.0835 55.4869 74.4556C54.1684 74.748 52.8044 74.8441 51.3166 74.7494C47.0635 75.2556 37.7259 73.9342 33.2877 71.7277C28.2767 70.1202 27.6343 67.5885 26.6621 63.7559C26.3533 62.5386 26.0032 61.1587 25.4707 59.6338C25.0921 58.4401 24.7261 57.3333 24.4027 56.3566C22.5529 50.77 21.6245 47.9658 23.3108 44.2728C24.2415 41.6633 26.9252 40.4848 29.0127 39.9552L29.0188 39.9529C30.9661 38.9601 33.1757 38.1974 35.7734 37.6213ZM55.4982 74.4991C57.1828 74.1256 58.8187 73.4257 60.4997 72.3595C64.0349 70.0953 66.8886 67.1279 68.5349 64.0035C70.2181 61.0702 70.9626 58.4554 70.811 56.0096C70.6872 53.4943 69.6544 50.7231 67.6536 47.5384C65.0907 42.4098 61.3231 38.5965 57.8219 37.5881C55.6163 36.7726 53.4734 36.6267 51.4865 36.5906C48.699 36.1659 45.1265 36.219 40.872 36.749C39.0073 36.9577 37.3358 37.2288 35.762 37.5778C33.1605 38.1547 30.9474 38.9185 28.9964 39.9128C26.8967 40.4459 24.1988 41.6327 23.2619 44.2589C21.57 47.9647 22.5 50.7738 24.3528 56.3703C24.676 57.3466 25.0426 58.4534 25.4208 59.6474C25.9532 61.1714 26.3029 62.5502 26.6114 63.7669C27.5876 67.6133 28.2321 70.1544 33.265 71.7686C37.7073 73.9772 47.0613 75.301 51.3168 74.7942C52.8047 74.8893 54.1744 74.7927 55.4982 74.4991Z" fill="#4CAF4F"/>
<path d="M37.572 37.5318C38.6454 37.2938 39.7809 37.0905 40.9473 36.9275C45.0581 36.3005 48.717 36.2824 51.529 36.8749C54.0305 37.0384 55.8609 37.4223 57.6531 38.1589C59.2944 38.6826 61.038 39.8333 62.6974 41.4875C64.3667 43.1516 65.9133 45.2887 67.1698 47.6677C69.2571 50.759 70.3668 53.4292 70.5633 55.8332C70.7936 58.2211 70.1213 60.7783 68.5079 63.6508C66.8476 66.8837 63.9201 69.9095 60.2642 72.1718C58.6935 73.1349 57.1663 73.7725 55.5952 74.1209C54.1264 74.4466 52.5907 74.5229 50.9 74.354C46.7605 74.7477 38.053 73.4272 33.7836 71.3244C28.9226 69.7486 28.1975 67.2946 27.1 63.5798C26.7785 62.4921 26.4144 61.2593 25.9061 59.9111C25.5456 58.8482 25.21 57.8952 24.8855 56.9739C22.9946 51.6034 22.0453 48.9077 23.6027 45.3288C24.4559 42.7078 27.045 41.3912 29.0666 40.7478L29.0726 40.7452C31.449 39.3367 34.3085 38.2555 37.572 37.5318ZM55.6067 74.1645C57.184 73.8147 58.7171 73.1748 60.2932 72.2083C63.957 69.9413 66.8908 66.9087 68.5547 63.669C70.1719 60.7895 70.846 58.2246 70.6149 55.8285C70.4179 53.4178 69.306 50.7412 67.2159 47.6459C65.9584 45.2652 64.4092 43.1245 62.7367 41.4574C61.0719 39.7977 59.3213 38.6428 57.6741 38.1174C55.878 37.3789 54.0424 36.9938 51.5383 36.8305C48.7236 36.2372 45.0574 36.2551 40.9401 36.883C39.7727 37.0463 38.6355 37.2499 37.5606 37.4882C34.2925 38.213 31.4281 39.2958 29.0469 40.7065C27.0141 41.3539 24.4121 42.6789 23.5539 45.3157C21.9908 48.9074 22.9416 51.608 24.836 56.9882C25.1605 57.9096 25.496 58.8622 25.8568 59.9256C26.3648 61.2731 26.7287 62.5052 27.0498 63.5924C28.1512 67.3201 28.8789 69.783 33.7607 71.3652C35.7108 72.3259 38.858 73.2186 42.3914 73.813C45.7097 74.3712 48.8898 74.5901 50.8986 74.3987C52.5897 74.5684 54.1315 74.4917 55.6067 74.1645Z" fill="#4CAF4F"/>
<path d="M39.0474 37.4771C39.6835 37.3361 40.3397 37.2087 40.998 37.0981C45.071 36.364 48.7239 36.3814 51.5624 37.1482C53.8521 37.413 55.6791 37.897 57.4901 38.7182C60.72 39.8558 64.1692 43.2481 66.7189 47.7938C68.8967 50.7912 70.0844 53.3638 70.3511 55.6609C70.6605 57.9957 70.0574 60.4998 68.5075 63.3166C66.8285 66.6619 63.8188 69.7504 60.0326 72.0144C58.5561 72.8894 57.122 73.4735 55.6483 73.8003C54.0389 74.1572 52.3396 74.2073 50.4531 73.9533C46.5163 74.2256 38.2676 72.8818 34.2444 70.9247C29.5242 69.3806 28.7104 67.0022 27.4793 63.4024C27.1537 62.4506 26.7849 61.3716 26.308 60.2065C25.9713 59.2831 25.6558 58.4451 25.3506 57.6348C23.4704 52.6391 22.4346 49.8873 23.8666 46.4195C24.643 43.7908 27.1388 42.3358 29.0961 41.5777C31.8694 39.7056 35.2157 38.3269 39.0474 37.4771ZM55.6598 73.8441C57.1394 73.516 58.5791 72.9295 60.0609 72.0513C63.8555 69.7825 66.8718 66.6869 68.5544 63.3345C70.1083 60.5103 70.713 57.998 70.4025 55.6549C70.1352 53.3512 68.945 50.7722 66.764 47.7709C64.2105 43.2181 60.7517 39.8177 57.5129 38.6772C55.6986 37.8543 53.8665 37.3691 51.5749 37.1042C48.7324 36.336 45.0705 36.3183 40.9895 37.0539C40.3302 37.1646 39.6727 37.2923 39.036 37.4335C35.1971 38.2848 31.8444 39.6662 29.0705 41.5395C27.1082 42.299 24.5983 43.7627 23.8172 46.4074C22.38 49.8879 23.4177 52.6448 25.3014 57.6499C25.6065 58.4602 25.9219 59.2981 26.2593 60.2221C26.7357 61.3866 27.1044 62.4649 27.4297 63.4164C28.6653 67.0287 29.4816 69.4151 34.2216 70.9656C36.1275 71.8928 39.0375 72.7342 42.4125 73.3331C45.5141 73.8834 48.5188 74.1319 50.4499 73.998C52.3374 74.2528 54.0434 74.2025 55.6598 73.8441Z" fill="#4CAF4F"/>
<path d="M40.2617 37.4393C40.534 37.379 40.8113 37.3211 41.086 37.2674C45.1391 36.4257 48.7835 36.4784 51.6252 37.4202C53.6994 37.7731 55.5178 38.3622 57.3523 39.2753C60.4264 40.4704 63.7655 43.6993 66.2863 47.9135C68.5872 50.8556 69.8162 53.2588 70.1552 55.4784C70.5442 57.7579 70.0109 60.2076 68.5251 62.9679C66.8537 66.3739 63.6831 69.6062 59.8259 71.8371C58.4363 72.6339 57.0881 73.1703 55.7045 73.4771C53.9406 73.8683 52.1403 73.8855 50.0387 73.5313C46.2841 73.6842 38.631 72.3684 34.7495 70.5045C30.1619 68.9881 29.2521 66.6803 27.8749 63.1868C27.556 62.3782 27.1947 61.4618 26.7598 60.4868C26.4538 59.7122 26.1654 58.9988 25.8861 58.309C23.9441 53.5089 22.8741 50.865 24.1809 47.5018C24.8794 44.869 27.2805 43.2758 29.1718 42.4024C32.2273 40.0862 36.0608 38.3709 40.2617 37.4393ZM55.7159 73.5209C57.1054 73.2127 58.4589 72.6743 59.8535 71.8744C63.7194 69.6387 66.8971 66.3985 68.5722 62.985C70.0621 60.2173 70.5968 57.7592 70.2064 55.4709C69.8664 53.2446 68.6348 50.8353 66.3308 47.8896C63.8065 43.6693 60.4586 40.4331 57.3766 39.2351C55.5397 38.3205 53.7163 37.7298 51.6408 37.3771C48.7934 36.4332 45.1386 36.3797 41.0758 37.2235C40.801 37.2773 40.5232 37.3353 40.2503 37.3958C36.0411 38.3292 32.2006 40.0477 29.1437 42.3659C27.2473 43.2406 24.8335 44.843 24.1311 47.4907C22.8196 50.8664 23.8913 53.5157 25.8373 58.325C26.1164 59.0147 26.4051 59.728 26.7111 60.5032C27.146 61.4783 27.5072 62.3944 27.8259 63.2025C28.5378 65.0083 29.1 66.4345 30.074 67.6355C31.1257 68.9321 32.5606 69.8297 34.7267 70.5455C36.558 71.4249 39.3095 72.2374 42.4718 72.8318C45.3542 73.3735 48.1809 73.6516 50.0334 73.5759C52.1368 73.931 53.9443 73.9137 55.7159 73.5209Z" fill="#4CAF4F"/>
<path d="M41.4726 37.3261C45.3859 36.4582 48.9087 36.5739 51.6599 37.6609C53.5664 38.0989 55.2706 38.7601 57.1895 39.806C60.113 41.0628 63.3445 44.1346 65.8364 48.0243C68.2342 50.8744 69.5394 53.1861 69.9461 55.3011C70.4095 57.4976 69.9334 59.9652 68.531 62.6366C66.8436 66.1574 63.5911 69.4568 59.6068 71.6896C58.2961 72.4184 57.0257 72.9129 55.7234 73.2017C53.8347 73.6205 51.8915 73.6008 49.608 73.1393C45.9092 73.173 38.978 71.8826 35.2293 70.1048C30.7558 68.6063 29.7913 66.4755 28.1932 62.9453C27.8814 62.2567 27.5592 61.545 27.1794 60.7679C26.9143 60.1517 26.6613 59.5738 26.417 59.0149C24.3913 54.3864 23.2757 51.8369 24.4579 48.5623C25.0779 45.9229 27.3849 44.1884 29.2111 43.1976C32.5202 40.4105 36.6441 38.4074 41.141 37.4017C41.2523 37.3757 41.3624 37.3505 41.4726 37.3261ZM55.7348 73.2455C57.0428 72.9555 58.3182 72.4589 59.6338 71.7274C63.6271 69.4896 66.8872 66.1822 68.5782 62.6537C69.9848 59.9744 70.4623 57.4975 69.997 55.2921C69.5891 53.1704 68.2809 50.8529 65.88 47.9992C63.3852 44.1045 60.1455 41.026 57.2156 39.7666C55.2945 38.7192 53.586 38.0564 51.6785 37.6185C48.9205 36.5286 45.3861 36.4119 41.4611 37.2823C41.3508 37.3068 41.2404 37.332 41.1292 37.3582C36.6236 38.3657 32.4915 40.3729 29.1802 43.1626C27.3493 44.1553 25.0311 45.8988 24.408 48.552C23.221 51.8394 24.3392 54.3942 26.3684 59.032C26.6131 59.5909 26.8659 60.1686 27.1313 60.7856C27.5114 61.563 27.8333 62.2746 28.145 62.9627C28.9434 64.7266 29.5742 66.1197 30.5815 67.2929C31.6676 68.5583 33.094 69.4381 35.2068 70.1458C36.9645 70.9796 39.5595 71.7654 42.5107 72.3571C45.1747 72.8913 47.8254 73.2004 49.601 73.1838C51.8867 73.6464 53.8378 73.6662 55.7348 73.2455Z" fill="#4CAF4F"/>
<path d="M42.0727 37.3482C45.7734 36.5275 49.1047 36.7256 51.7062 37.921C53.4035 38.4197 55.0483 39.1692 57.0431 40.3528C59.8224 41.6711 62.9485 44.5822 65.4076 48.141C67.9402 50.9331 69.2816 53.0853 69.7591 55.1223C70.3024 57.2648 69.8968 59.6792 68.5539 62.2992C66.8474 65.9333 63.5077 69.2989 59.3905 71.5337C58.1504 72.2019 56.9495 72.6592 55.7199 72.9319C53.7101 73.3776 51.6283 73.317 49.1684 72.7415C45.6731 72.6522 39.2808 71.3848 35.687 69.7074C31.2991 68.22 30.2141 66.1289 28.4162 62.6647C28.151 62.1541 27.877 61.6256 27.5729 61.0622C27.3633 60.619 27.1598 60.1931 26.9641 59.7833C24.827 55.3102 23.6499 52.8463 24.7121 49.6467C25.2553 47.005 27.4713 45.1282 29.2345 44.0185C32.586 40.9177 36.7207 38.6856 41.1962 37.5602C41.4887 37.4836 41.7835 37.4123 42.0727 37.3482ZM55.7313 72.9756C56.9663 72.7017 58.1718 72.2426 59.4169 71.5718C63.5435 69.3317 66.8911 65.9582 68.6014 62.3158C69.9487 59.6878 70.3554 57.2635 69.8098 55.1119C69.3306 53.0681 67.9861 50.9101 65.4503 48.1146C62.9886 44.5519 59.8555 41.6349 57.071 40.3142C55.0744 39.1294 53.4258 38.3783 51.7276 37.8797C49.1185 36.6804 45.7747 36.4812 42.0613 37.3047C41.7714 37.3689 41.4759 37.4403 41.1826 37.5171C36.6986 38.6445 32.5553 40.8812 29.2014 43.9853C27.4336 45.097 25.2077 46.983 24.6618 49.6378C23.595 52.8502 24.7747 55.3193 26.9161 59.8016C27.1118 60.2115 27.3153 60.6372 27.5255 61.0814C27.83 61.6455 28.104 62.1736 28.3689 62.6843C29.2689 64.4182 29.9793 65.7875 31.0304 66.9391C32.1629 68.1794 33.5919 69.0459 35.6645 69.7483C39.2614 71.4273 45.6644 72.6971 49.1596 72.7858C51.6225 73.3627 53.7126 73.4232 55.7313 72.9756Z" fill="#4CAF4F"/>
<path d="M42.5529 37.3973C46.0935 36.6121 49.2748 36.8862 51.7529 38.1902C53.5088 38.8295 55.0766 39.7389 56.8913 40.9081C59.5697 42.3126 62.5119 44.9932 64.9654 48.2637C66.7398 50.0772 68.8631 52.4736 69.555 54.9465C70.1786 57.0332 69.8447 59.393 68.5624 61.9606C66.8649 65.6512 63.3544 69.1688 59.1716 71.3705C57.9974 71.9844 56.8617 72.408 55.6998 72.6657C53.5473 73.143 51.4001 73.0411 48.7376 72.3344C45.3895 72.1193 39.5433 70.8494 36.169 69.3005C31.8313 67.809 30.6 65.7331 28.5599 62.2938C28.3794 61.9898 28.193 61.6755 27.998 61.3504C27.8655 61.0984 27.7352 60.8516 27.6082 60.6102C25.3935 56.41 24.057 53.8747 24.9988 50.7305C25.4643 48.0902 27.5863 46.0714 29.2847 44.8423C32.6175 41.4789 36.8706 38.9529 41.2634 37.7265C41.6948 37.6021 42.1287 37.4913 42.5529 37.3973ZM55.7112 72.7093C56.8782 72.4505 58.0186 72.0253 59.1973 71.4091C61.1584 70.3766 63.0318 69.0184 64.6153 67.4805C66.3701 65.7764 67.7142 63.925 68.6101 61.9771C69.8968 59.4004 70.2317 57.0307 69.6053 54.9345C68.9109 52.4527 66.7832 50.0511 65.0071 48.236C62.5515 44.9625 59.6034 42.2771 56.9209 40.8705C55.1051 39.7005 53.5345 38.7895 51.7772 38.1501C49.2906 36.8413 46.0958 36.5654 42.5415 37.3536C42.1161 37.4479 41.6811 37.559 41.2486 37.6837C39.0582 38.2951 36.918 39.2141 34.8876 40.4151C32.8301 41.632 30.9332 43.1109 29.2491 44.8106C27.5468 46.0421 25.4157 48.0703 24.9483 50.7225C24.0023 53.8801 25.3417 56.4208 27.5609 60.6301C27.6884 60.8713 27.8183 61.118 27.9512 61.371C28.1472 61.6971 28.3334 62.0115 28.5137 62.3153C30.559 65.7636 31.7937 67.8451 36.1464 69.3415C39.524 70.8918 45.3791 72.1638 48.7268 72.3786C51.3932 73.0864 53.5489 73.1888 55.7112 72.7093Z" fill="#4CAF4F"/>
<path d="M42.9681 37.4591C46.3862 36.701 49.4481 37.0467 51.8224 38.4586C53.5496 39.2199 55.1102 40.3084 56.7625 41.4609C59.3116 42.9401 62.148 45.462 64.546 48.3811C66.5054 50.2346 68.6096 52.4407 69.373 54.7629C70.0773 56.7922 69.8147 59.0967 68.5922 61.6121C66.8782 65.4118 63.2821 68.9939 58.9724 71.195C57.859 71.7599 56.7831 72.1531 55.683 72.397C53.4195 72.899 51.1505 72.7507 48.3262 71.9159C45.1442 71.5735 39.9171 70.3465 36.6697 68.8839C32.3105 67.3616 30.8866 65.2525 28.5275 61.7581L28.4418 61.6314L28.3794 61.5258C25.9492 57.4143 24.4821 54.9326 25.306 51.8105C25.694 49.1755 27.7224 47.0139 29.3557 45.6641C32.7125 41.9959 36.9724 39.237 41.3531 37.8929C41.8947 37.7226 42.4379 37.5766 42.9681 37.4591ZM55.6945 72.4408C56.7994 72.1957 57.8798 71.8008 58.9975 71.2336C63.3174 69.0274 66.9221 65.4366 68.6401 61.6282C69.8669 59.1029 70.1303 56.7885 69.4227 54.7491C68.6564 52.4182 66.5478 50.2074 64.5864 48.3519C62.187 45.4309 59.3459 42.9052 56.7937 41.4242C55.1412 40.2715 53.5786 39.1816 51.8497 38.4197C49.4657 37.0018 46.3896 36.6541 42.9567 37.4154C42.4249 37.5333 41.88 37.6798 41.3369 37.8506C36.947 39.1974 32.6786 41.9618 29.3182 45.6343C27.6812 46.9868 25.6448 49.1575 25.2551 51.8038C24.4276 54.9397 25.8978 57.4269 28.3334 61.5472L28.3965 61.6539L28.4829 61.7818C30.8473 65.2842 32.2744 67.3979 36.6469 68.9249C39.8976 70.3887 45.132 71.6178 48.3135 71.9596C51.1424 72.7962 53.4205 72.9451 55.6945 72.4408Z" fill="#4CAF4F"/>
<path d="M43.2736 37.5074C46.5937 36.7711 49.556 37.1861 51.8406 38.7075C53.201 39.4232 54.4634 40.3856 55.8 41.4042C56.0552 41.5988 56.315 41.7968 56.581 41.9974C59.0298 43.5753 61.7602 45.941 64.073 48.489C66.1094 50.2712 68.3017 52.3862 69.1373 54.5755C69.9228 56.5484 69.7323 58.7989 68.5705 61.2644C66.8421 65.1753 63.1629 68.8237 58.7288 71.024C57.6722 71.5452 56.6518 71.9111 55.6095 72.1422C53.239 72.6679 50.8534 72.4698 47.875 71.4998C44.8914 71.0317 40.2465 69.8397 37.1336 68.4649C32.9688 66.9821 31.2261 64.9966 28.8505 61.9027C26.3855 58.2528 24.9081 55.8632 25.576 52.8731C25.8864 50.2442 27.8195 47.9378 29.3865 46.4655C32.7601 42.4917 37.024 39.4992 41.3954 38.037C42.0264 37.822 42.6583 37.6438 43.2736 37.5074ZM55.6209 72.1858C56.6679 71.9537 57.6924 71.5865 58.7534 71.0632C63.1981 68.8573 66.8858 65.2002 68.6184 61.2801C69.7849 58.8043 69.976 56.5432 69.1863 54.56C68.3476 52.3623 66.1506 50.2425 64.1121 48.4585C61.7984 45.9096 59.0648 43.5409 56.6138 41.9619C56.3495 41.7624 56.0898 41.5645 55.8347 41.37C54.4964 40.3499 53.2324 39.3866 51.8705 38.67C50.7682 37.9359 49.4885 37.4539 48.0689 37.2387C46.5745 37.0122 44.9573 37.0879 43.2622 37.4638C42.6449 37.6007 42.011 37.7795 41.3779 37.9951C36.9973 39.4603 32.7248 42.4585 29.3471 46.4373C27.7766 47.9128 25.8366 50.2282 25.5248 52.8676C24.8537 55.8717 26.3348 58.2674 28.8065 61.9274C31.1879 65.0293 32.9349 67.0192 37.1112 68.506C40.2264 69.882 44.8773 71.0757 47.8601 71.5431C50.8445 72.5153 53.2394 72.714 55.6209 72.1858Z" fill="#4CAF4F"/>
<path d="M43.5755 37.5963C46.8209 36.8766 49.7034 37.3576 51.9111 38.9873C53.0157 39.6717 54.0434 40.5394 55.1315 41.4581C55.5567 41.8171 55.9965 42.1884 56.457 42.5627C58.2135 43.8206 60.8887 45.892 63.6653 48.6224C65.8891 50.417 68.0698 52.3593 68.971 54.411C69.8388 56.3261 69.7188 58.5224 68.6145 60.9386C66.868 64.9611 63.0995 68.6764 58.5333 70.8771C57.542 71.3524 56.5438 71.7034 55.5669 71.9201C53.0887 72.4696 50.5875 72.2202 47.457 71.1116C44.908 70.5705 40.8048 69.4522 37.6178 68.078C33.7252 66.6647 31.6811 64.9255 29.2704 62.2098C26.6287 58.8624 25.3753 56.6692 25.8568 53.9737C26.092 51.3544 27.9327 48.9014 29.4357 47.3047C32.8281 43.0255 37.1034 39.7984 41.4758 38.216C42.1828 37.9569 42.8893 37.7485 43.5755 37.5963ZM55.5783 71.9637C56.5596 71.7461 57.5619 71.3937 58.5572 70.9163C60.6755 69.8955 62.7058 68.4868 64.429 66.8427C66.302 65.0555 67.7659 63.019 68.6626 60.954C69.7719 58.5269 69.892 56.3196 69.0192 54.3935C68.1145 52.334 65.9294 50.3873 63.7028 48.5906C60.9257 45.8595 58.2484 43.7865 56.4916 42.5285C56.0327 42.1554 55.5931 41.7842 55.1679 41.4253C54.0786 40.5055 53.0497 39.6367 51.9436 38.9514C50.8784 38.1651 49.637 37.64 48.2553 37.3922C46.8001 37.1311 45.2218 37.1851 43.5641 37.5527C42.8754 37.7054 42.1665 37.9147 41.4571 38.1745C37.0753 39.7602 32.7917 42.9933 29.3947 47.2782C27.8884 48.8787 26.0415 51.3403 25.8058 53.9697C25.5664 55.3069 25.7577 56.5866 26.4077 57.995C27.0609 59.4097 28.1493 60.8697 29.2282 62.2369C31.6451 64.9594 33.694 66.7026 37.5954 68.1189C40.7844 69.4941 44.8919 70.6138 47.4399 71.1542C50.5775 72.2659 53.0887 72.5158 55.5783 71.9637Z" fill="#4CAF4F"/>
<path d="M43.818 37.6591C46.998 36.9539 49.808 37.5 51.9445 39.2383C52.8578 39.8999 53.7107 40.7051 54.6137 41.5576C55.1461 42.0601 55.6967 42.58 56.2901 43.0993C56.7127 43.4373 57.1557 43.7887 57.6155 44.1534C59.3265 45.5104 61.2655 47.0486 63.2065 48.7278C65.8746 50.7113 67.8373 52.4036 68.7478 54.2182C69.6974 56.0747 69.6493 58.2161 68.6043 60.5828C66.87 64.6538 62.9221 68.5283 58.3013 70.6948C57.3585 71.1347 56.4098 71.4622 55.4816 71.6681C52.8666 72.248 50.3355 71.9538 47.0183 70.6848C45.8468 70.3609 41.7493 69.1874 38.0945 67.6504C34.6203 66.3576 32.1865 64.8584 29.6924 62.4752C27.633 60.3041 25.777 57.8993 26.1424 55.0337C26.2686 52.9707 27.4234 50.5757 29.4822 48.1063C32.884 43.5248 37.1639 40.065 41.5337 38.3633C42.3045 38.0613 43.0729 37.8244 43.818 37.6591ZM55.493 71.7118C56.4253 71.505 57.3781 71.1761 58.3246 70.7342C60.4936 69.7174 62.5746 68.2924 64.343 66.6132C66.2622 64.7909 67.7523 62.7108 68.6525 60.5977C69.7026 58.2195 69.7505 56.0666 68.7951 54.199C67.881 52.3769 65.9141 50.6808 63.2421 48.6942C61.3018 47.0155 59.3622 45.4771 57.6509 44.1197C57.1912 43.755 56.7482 43.4037 56.3265 43.0665C55.7346 42.5483 55.1844 42.0288 54.6522 41.5265C53.7479 40.673 52.8939 39.8668 51.9792 39.2041C50.9483 38.3652 49.7419 37.7976 48.3941 37.5175C46.9743 37.2223 45.4309 37.2553 43.8066 37.6155C43.0586 37.7814 42.2871 38.0192 41.5136 38.3223C37.1346 40.0276 32.8465 43.4936 29.4399 48.0815C27.376 50.5572 26.2173 52.9608 26.0909 55.0313C25.9304 56.2899 26.1709 57.5209 26.827 58.7926C27.3924 59.8891 28.2903 61.0689 29.653 62.5052C32.1531 64.8942 34.5918 66.3965 38.0722 67.6917C41.7286 69.2293 45.8292 70.4035 46.9988 70.7268C50.3247 71.9995 52.866 72.2944 55.493 71.7118Z" fill="#4CAF4F"/>
<path d="M44.0396 37.7251C47.1234 37.0413 49.9474 37.668 51.9914 39.4899C52.7565 40.134 53.4742 40.8947 54.2342 41.7002C54.8336 42.3355 55.4536 42.9927 56.1413 43.6402C57.8596 45.181 60.0082 46.7819 62.2828 48.4769L62.7728 48.8421C65.1098 50.4386 67.4808 52.1546 68.5552 54.0391C69.5881 55.8379 69.6114 57.9265 68.6241 60.2466C66.8742 64.4301 62.8371 68.3748 58.0883 70.5414C57.19 70.9497 56.2865 71.256 55.4027 71.452C51.9839 72.2102 49.0276 71.2888 46.5868 70.2875C45.0415 69.7453 41.9469 68.6305 38.5692 67.25C35.767 66.1771 32.8025 64.8913 30.1037 62.7632C27.4276 60.5148 26.255 58.4005 26.4143 56.1098C26.4825 54.0283 27.5269 51.6088 29.5186 48.9175C32.9307 44.0303 37.2192 40.3346 41.5943 38.511C42.4208 38.166 43.2435 37.9017 44.0396 37.7251ZM55.4141 71.4956C56.3018 71.2988 57.2093 70.9912 58.1113 70.5813C62.8714 68.4093 66.9183 64.4549 68.6725 60.261C69.665 57.9289 69.6411 55.8282 68.6017 54.0181C67.5226 52.1255 65.147 50.4059 62.8064 48.8069L62.3171 48.4423C60.0433 46.7481 57.8957 45.1478 56.1794 43.6087C55.4929 42.9625 54.8735 42.3059 54.2745 41.6709C53.5136 40.8646 52.795 40.1029 52.0283 39.4575C51.0277 38.5656 49.8511 37.955 48.5316 37.6429C47.1412 37.3141 45.626 37.3271 44.0282 37.6814C43.2289 37.8587 42.4027 38.1242 41.5731 38.4704C37.1889 40.2981 32.8922 44.0001 29.4749 48.8944C27.4784 51.5924 26.431 54.0199 26.3624 56.109C26.2025 58.4129 27.3798 60.5381 30.0679 62.7965C32.7725 64.9292 35.7411 66.2172 38.5467 67.2911C41.925 68.6717 45.0205 69.7868 46.5649 70.3288C49.0127 71.3331 51.9793 72.2574 55.4141 71.4956Z" fill="#4CAF4F"/>
<path d="M40.6121 36.5053C43.6523 35.8311 46.4205 36.5229 48.4069 38.4531C49.052 39.082 49.6601 39.8078 50.3038 40.576C50.9429 41.3389 51.6038 42.1278 52.3599 42.8924C53.827 44.376 55.7246 45.804 58.7048 47.6671C61.2319 49.2491 63.594 50.8146 64.7262 52.5699C65.8425 54.3103 65.9372 56.3456 65.0078 58.6193C63.2433 62.915 59.1184 66.929 54.2431 69.0951C53.3872 69.4744 52.5263 69.7612 51.6844 69.9479C48.1371 70.7346 45.0646 69.7061 42.5271 68.5964C42.1142 68.4154 41.6918 68.2288 41.2589 68.0373C39.5333 67.2748 37.5776 66.4103 35.4186 65.5558C34.9072 65.3534 34.3769 65.1488 33.8639 64.9509C31.4679 64.0264 28.9906 63.0706 26.8918 61.7584C24.418 60.2105 23.0586 58.128 23.0642 55.8947C23.0738 53.8268 24.0385 51.3183 25.9314 48.4387C29.3507 43.2471 33.6461 39.3161 38.0269 37.3696C38.9022 36.9824 39.772 36.6916 40.6121 36.5053ZM51.6959 69.9917C52.5415 69.8042 53.4061 69.516 54.2656 69.1353C59.1527 66.9638 63.2875 62.9398 65.0565 58.6333C65.9912 56.3468 65.8953 54.2991 64.7715 52.5471C63.6342 50.7842 61.2674 49.2152 58.7357 47.6303C55.7589 45.7691 53.8639 44.3433 52.3996 42.8624C51.6447 42.0991 50.9844 41.311 50.3458 40.5488C49.7014 39.7796 49.0926 39.053 48.4457 38.4225C47.4731 37.4775 46.3239 36.8242 45.0296 36.4806C43.6658 36.1189 42.1757 36.1123 40.6007 36.4616C39.7568 36.6488 38.8833 36.9408 38.0045 37.3295C35.8231 38.2988 33.6549 39.7645 31.5597 41.6862C29.4814 43.5925 27.5729 45.8571 25.8867 48.4171C23.9892 51.3037 23.0222 53.8199 23.0123 55.8958C23.0068 58.1437 24.3736 60.2391 26.861 61.7954C28.9637 63.1101 31.4437 64.067 33.8419 64.9923C34.3547 65.1901 34.8849 65.3946 35.3958 65.5971C37.5543 66.4509 39.5093 67.3151 41.2346 68.0777C41.6672 68.269 42.09 68.4557 42.5028 68.6368C45.049 69.7504 48.1321 70.782 51.6959 69.9917Z" fill="#4CAF4F"/>
<path d="M44.4469 38.3318C47.4737 37.6606 50.1892 38.3043 52.093 40.1445C52.7678 40.796 53.3892 41.5421 54.047 42.332C54.6326 43.0351 55.2381 43.7622 55.9268 44.4768C56.2508 44.8108 56.6089 45.153 56.991 45.4942C58.258 46.6253 59.8052 47.7638 62.0074 49.1859C64.4196 50.7487 66.6741 52.2942 67.7543 54.0191C68.8183 55.7263 68.9038 57.7107 68.0086 59.9172C66.9784 62.4615 65.1263 64.8384 62.6529 66.7911C61.0786 68.0564 59.26 69.144 57.3933 69.9369C56.573 70.2913 55.7465 70.562 54.937 70.7415C52.762 71.2238 50.5973 71.096 48.1248 70.3391C47.4474 70.1297 46.7363 69.8697 45.951 69.5443C45.3321 69.2921 44.6996 69.0296 44.0298 68.7517C42.5285 68.1292 40.8272 67.4233 38.9973 66.7198C38.6978 66.6057 38.3959 66.4915 38.0922 66.3768C36.0274 65.5963 33.8921 64.7893 31.9831 63.752C31.5296 63.5058 31.0994 63.2524 30.7048 62.9987C28.3279 61.4769 27.0171 59.4365 27.0135 57.2536C27.0129 55.2162 27.9317 52.7652 29.744 49.9687C30.9444 48.0835 32.3996 46.2968 34.0691 44.6582C35.2258 43.5104 36.4733 42.4556 37.7768 41.523C39.0865 40.588 40.3855 39.8476 41.8654 39.193C42.736 38.8084 43.6046 38.5186 44.4469 38.3318ZM54.9484 70.7851C55.7615 70.6048 56.5915 70.3331 57.4151 69.9772C59.2862 69.1826 61.1093 68.092 62.6871 66.824C65.167 64.8661 67.0242 62.4826 68.0574 59.9312C68.9578 57.7122 68.8711 55.7155 67.7999 53.9967C66.7149 52.264 64.4558 50.7152 62.0389 49.1494C59.8389 47.7286 58.2936 46.5915 57.0285 45.4622C56.6473 45.1218 56.29 44.7804 55.9667 44.4472C55.2791 43.7338 54.6742 43.0074 54.0892 42.3049C53.4306 41.5139 52.8085 40.767 52.1318 40.1138C50.2149 38.261 47.4816 37.6126 44.4355 38.2881C43.5894 38.4758 42.7173 38.7668 41.8432 39.1528C40.3598 39.809 39.0573 40.5513 37.7447 41.4885C36.4389 42.4227 35.1894 43.4793 34.0308 44.6289C32.3589 46.27 30.9012 48.0595 29.6989 49.9476C27.8822 52.7509 26.9613 55.2095 26.9618 57.255C26.9656 59.4522 28.2835 61.5052 30.6733 63.0354C31.069 63.2896 31.5002 63.5437 31.9547 63.7902C33.8668 64.8295 36.0037 65.6371 38.0705 66.4183C38.3741 66.5329 38.6761 66.647 38.9754 66.7613C40.8046 67.4645 42.4324 68.1397 44.0066 68.7925C44.6763 69.0705 45.3088 69.3331 45.9278 69.5852C46.7148 69.9112 47.4273 70.1717 48.1063 70.3814C50.5888 71.1416 52.7629 71.2698 54.9484 70.7851Z" fill="#4CAF4F"/>
<path d="M44.6775 38.8627C47.6855 38.1956 50.3442 38.791 52.1637 40.539C52.8698 41.214 53.5034 41.9805 54.1744 42.7921C54.7052 43.4341 55.2539 44.098 55.8744 44.7593C56.1838 45.0849 56.5266 45.4205 56.8934 45.757C58.1099 46.8731 59.5876 47.9959 61.6848 49.3972C63.9796 50.9386 66.1245 52.4622 67.1516 54.1551C68.1621 55.8274 68.2384 57.7587 67.3779 59.8958C66.3724 62.4148 64.544 64.7047 62.0906 66.5182C60.5537 67.6962 58.8149 68.6819 56.9217 69.4479C56.1386 69.7772 55.3485 70.0312 54.5734 70.203C52.4465 70.6747 50.321 70.5746 47.884 69.8882C47.221 69.698 46.5276 69.4606 45.7639 69.1627C44.8681 68.826 43.9342 68.4632 42.9457 68.079C41.6882 67.5903 40.3881 67.085 38.9718 66.5575L38.8207 66.5021C36.558 65.6745 34.2186 64.8185 32.152 63.6629C31.7169 63.4201 31.3027 63.1692 30.9218 62.9175C28.6443 61.4234 27.3832 59.4276 27.3708 57.2976C27.3599 55.2928 28.2318 52.9021 29.9617 50.1919C31.0948 48.3507 32.5107 46.6483 34.2904 44.9868C35.4304 43.8997 36.6499 42.9103 38.0185 41.9615C39.2612 41.1032 40.4814 40.433 42.0985 39.7209C42.9644 39.3389 43.8321 39.0502 44.6775 38.8627ZM54.5848 70.2468C55.3633 70.0741 56.1567 69.819 56.9428 69.4887C58.8402 68.7208 60.5834 67.7326 62.1236 66.5517C64.5841 64.7333 66.4182 62.4365 67.4268 59.9095C68.292 57.7602 68.215 55.8169 67.1975 54.1332C66.1658 52.4328 64.0163 50.9058 61.7169 49.3612C59.622 47.9613 58.146 46.84 56.9314 45.7255C56.5654 45.3897 56.2233 45.0548 55.9146 44.73C55.2953 44.0699 54.7469 43.4066 54.2167 42.7652C53.545 41.9526 52.9104 41.185 52.2025 40.5083C51.3077 39.6487 50.2047 39.0631 48.9238 38.7677C47.6141 38.4657 46.1816 38.483 44.6661 38.819C43.817 39.0073 42.9457 39.2974 42.0762 39.6809C40.4556 40.3946 39.2326 41.0661 37.9871 41.9267C36.6162 42.877 35.3947 43.8681 34.2528 44.9567C32.4701 46.621 31.0516 48.3268 29.9165 50.1711C28.1821 52.8881 27.3081 55.2864 27.3191 57.299C27.3315 59.4432 28.5996 61.4514 30.8899 62.9537C31.2719 63.2063 31.6869 63.4574 32.1233 63.701C34.1933 64.8586 36.5349 65.7152 38.7998 66.5438L38.9503 66.599C40.3659 67.1263 41.6662 67.6317 42.9236 68.1202C43.9122 68.5045 44.8461 68.8674 45.7421 69.2041C46.5068 69.5024 47.2017 69.7402 47.8666 69.9311C50.3133 70.6203 52.4481 70.7206 54.5848 70.2468Z" fill="#4CAF4F"/>
<path d="M44.914 39.3904C47.8631 38.7364 50.5367 39.2985 52.2496 40.9326C52.9909 41.6335 53.6372 42.4223 54.3214 43.2573C54.7977 43.8384 55.2898 44.4391 55.843 45.0452C56.1389 45.3629 56.4672 45.6923 56.8186 46.0242C57.9864 47.1265 59.3971 48.2344 61.3929 49.6165C63.5744 51.1377 65.6132 52.6406 66.5892 54.3037C67.5478 55.9429 67.6142 57.8236 66.7869 59.8933C65.8039 62.3902 63.9954 64.5961 61.5567 66.2729C60.0797 67.3479 58.3679 68.2623 56.4685 68.9917C55.7223 69.2961 54.9683 69.5334 54.2272 69.6978C52.1438 70.1598 50.0522 70.0879 47.6444 69.4718C46.9942 69.3002 46.3171 69.0855 45.5746 68.8151C44.2715 68.3685 42.8747 67.8594 41.3959 67.3207C40.6048 67.0323 39.7868 66.7342 38.9318 66.4269C36.7002 65.6469 34.3497 64.7867 32.2946 63.6034C31.8756 63.3631 31.4771 63.1147 31.1097 62.8649C28.9278 61.3974 27.7145 59.4438 27.6937 57.3641C27.6729 55.3895 28.4999 53.0562 30.1515 50.4288C31.2312 48.6141 32.6103 46.9917 34.4924 45.3226C35.5969 44.313 36.8253 43.3582 38.2488 42.403C39.585 41.5106 40.7562 40.9373 42.3278 40.2485C43.1922 39.868 44.0622 39.5793 44.914 39.3904ZM54.2386 69.7414C54.9828 69.5764 55.7399 69.3378 56.4889 69.0324C58.3921 68.3016 60.1082 67.3847 61.5887 66.3075C64.035 64.6256 65.8495 62.4122 66.8357 59.9068C67.6679 57.8252 67.6005 55.9327 66.6352 54.2823C65.6551 52.6116 63.6119 51.1051 61.4261 49.581C59.4321 48.2002 58.023 47.0937 56.8572 45.9932C56.5064 45.662 56.1789 45.3333 55.8836 45.0164C55.3316 44.4113 54.8395 43.811 54.3639 43.2305C53.6787 42.3942 53.0315 41.6045 52.2882 40.9016C50.5625 39.2553 47.8705 38.6885 44.9026 39.3467C44.0471 39.5364 43.1734 39.8264 42.3056 40.2083C40.7313 40.8984 39.5576 41.473 38.218 42.3675C36.7923 43.3243 35.5617 44.2807 34.4559 45.2917C32.5701 46.964 31.188 48.5899 30.1061 50.4086C28.4501 53.0423 27.6211 55.3832 27.642 57.3659C27.6632 59.4593 28.883 61.4251 31.0773 62.901C31.4454 63.1512 31.8452 63.4002 32.2652 63.6411C34.3243 64.8267 36.6774 65.688 38.9112 66.4687C39.7657 66.7759 40.5838 67.0739 41.3749 67.3622C42.8538 67.9013 44.2508 68.4103 45.5539 68.8567C46.2978 69.1277 46.9765 69.3428 47.6283 69.515C50.0454 70.1336 52.1458 70.2055 54.2386 69.7414Z" fill="#4CAF4F"/>
<path d="M45.1439 39.8822C48.0687 39.2336 50.6812 39.7495 52.3118 41.2979C53.0902 42.0281 53.7476 42.8411 54.4437 43.702C54.8644 44.2222 55.2995 44.7603 55.7848 45.3095C56.0664 45.6196 56.3795 45.9432 56.716 46.2714C57.8334 47.3616 59.1755 48.4567 61.068 49.8225C63.0509 51.2663 65.0642 52.8124 65.9873 54.4473C66.8937 56.056 66.952 57.8878 66.1606 59.8919C65.2039 62.3684 63.4201 64.4914 61.0022 66.0315C59.5925 67.0026 57.9118 67.8458 56.0058 68.5384C55.2993 68.8172 54.5845 69.0377 53.8808 69.1938C51.8438 69.6455 49.7881 69.6008 47.4113 69.0532C46.7754 68.9 46.1158 68.7069 45.3946 68.4632C43.4136 67.8488 41.2269 67.0895 38.9118 66.2856C36.8728 65.6047 34.5127 64.7443 32.4669 63.5257C32.065 63.2877 31.6824 63.0412 31.3292 62.7929C29.2453 61.3491 28.0805 59.4349 28.0497 57.403C28.0172 55.4565 28.7961 53.1787 30.3645 50.6328C31.3948 48.8327 32.7338 47.2878 34.7063 45.6228C35.78 44.6802 36.9797 43.786 38.4814 42.8085C39.8615 41.9157 41.0072 41.4153 42.4579 40.7814L42.551 40.7408C43.4131 40.3613 44.2854 40.0725 45.1439 39.8822ZM53.8922 69.2375C54.599 69.0807 55.3167 68.8595 56.0253 68.5796C57.935 67.8857 59.62 67.0403 61.0327 66.0671C63.4591 64.5219 65.2493 62.391 66.2095 59.9053C67.0056 57.8896 66.9466 56.0462 66.034 54.4266C65.1064 52.7841 63.0887 51.2342 61.1017 49.7875C59.2111 48.4231 57.8707 47.3294 56.7549 46.2409C56.4192 45.9132 56.1065 45.5903 55.8259 45.2811C55.3413 44.733 54.9067 44.1953 54.4862 43.6753C53.7892 42.8133 53.1308 41.9989 52.3503 41.2668C50.7069 39.7062 48.076 39.1857 45.1325 39.8385C44.2703 40.0296 43.3943 40.3196 42.5288 40.7006L42.4357 40.7412C40.9828 41.376 39.8354 41.8774 38.4512 42.7727C36.9472 43.7515 35.746 44.6471 34.6706 45.5912C32.6936 47.2597 31.3517 48.8086 30.3188 50.613C28.7464 53.1652 27.9656 55.4505 27.998 57.405C28.0291 59.4503 29.2005 61.3763 31.2961 62.8285C31.6503 63.0773 32.0344 63.3245 32.4371 63.5633C34.487 64.7844 36.8502 65.6459 38.8918 66.3275C41.207 67.1316 43.3943 67.8911 45.3759 68.5053C46.0975 68.7495 46.7586 68.9432 47.3965 69.0969C49.7824 69.6466 51.8464 69.6912 53.8922 69.2375Z" fill="#4CAF4F"/>
<path d="M45.373 40.4133C48.2726 39.7703 50.8235 40.2378 52.3717 41.6961C53.1899 42.4549 53.8567 43.2908 54.5628 44.1758C54.928 44.6336 55.3054 45.1069 55.7236 45.5948C55.9951 45.9011 56.2851 46.2091 56.6102 46.5367C57.6768 47.6111 58.9507 48.6901 60.7403 50.0351C62.612 51.457 64.5123 52.9796 65.3833 54.5836C66.2365 56.1571 66.285 57.9359 65.5273 59.8701C64.594 62.3213 62.8319 64.3578 60.4313 65.7595C59.0731 66.6377 57.467 67.3874 55.5204 68.0522C54.8549 68.3054 54.1807 68.5083 53.5155 68.6558C51.5217 69.0979 49.4985 69.0825 47.1486 68.6069C46.5262 68.4729 45.8837 68.3024 45.1844 68.0861C43.4384 67.6068 41.4873 67.0033 38.8575 66.129C36.2072 65.2916 34.2195 64.4385 32.6021 63.444C32.2171 63.2091 31.8503 62.9652 31.5112 62.7191C29.5253 61.3041 28.4099 59.4349 28.37 57.4555C28.3285 55.5683 29.0822 53.2889 30.5497 50.8642C31.7996 48.6023 33.5311 47.0545 34.8998 45.9589C36.2272 44.8454 37.6277 43.9281 38.6996 43.2536C39.9017 42.5025 40.9073 42.0715 42.0717 41.5727C42.2946 41.4772 42.5246 41.3786 42.7645 41.2742C43.6273 40.8955 44.5049 40.6058 45.373 40.4133ZM53.527 68.6995C54.1948 68.5514 54.8718 68.3477 55.539 68.0938C57.4892 67.4277 59.0992 66.676 60.4603 65.7962C62.8699 64.3892 64.6393 62.3444 65.5763 59.8836C66.3384 57.9377 66.2893 56.1475 65.4301 54.5633C64.555 52.9518 62.6504 51.4258 60.7749 50.0008C58.987 48.657 57.7148 47.5795 56.6498 46.5068C56.3253 46.1798 56.0358 45.8724 55.7652 45.5668C55.3478 45.0799 54.9704 44.6069 54.6056 44.1495C53.8984 43.263 53.2307 42.4258 52.41 41.6648C50.8491 40.1946 48.28 39.7225 45.3616 40.3697C44.4898 40.563 43.6085 40.8538 42.7425 41.2341C42.5027 41.3384 42.2727 41.4368 42.0501 41.5324C40.8835 42.0322 39.876 42.4638 38.6703 43.2173C37.5968 43.8929 36.1943 44.8113 34.8649 45.9264C33.4931 47.0246 31.7573 48.5763 30.5036 50.8447C29.0322 53.2757 28.2766 55.5626 28.3184 57.4576C28.3582 59.45 29.4802 61.3312 31.4776 62.7542C31.8176 63.0007 32.1855 63.2455 32.5715 63.4812C34.1928 64.4777 36.1838 65.3327 38.8384 66.1711C41.4688 67.0459 43.4204 67.6496 45.1668 68.1288C45.8667 68.3455 46.5108 68.5164 47.1349 68.6507C49.4938 69.128 51.5248 69.1435 53.527 68.6995Z" fill="#4CAF4F"/>
<path d="M45.6248 40.9376C48.4496 40.3111 50.9978 40.7438 52.4416 42.0946C53.3019 42.8845 53.9758 43.7451 54.6892 44.6562C54.9991 45.0519 55.3197 45.461 55.6714 45.8862C55.9282 46.1841 56.2035 46.486 56.5133 46.8097C57.5149 47.8556 58.7561 48.9523 60.4197 50.2613C62.1792 51.6633 63.9656 53.1644 64.7845 54.7404C65.5848 56.2812 65.6244 58.0088 64.9023 59.8752C63.9947 62.3029 62.2569 64.2543 59.8769 65.5186C58.5806 66.3003 57.0496 66.9606 55.0573 67.5972C54.436 67.8243 53.8056 68.0093 53.1827 68.1475C51.2324 68.58 49.2411 68.5928 46.9157 68.1885C46.3075 68.0733 45.6825 67.9253 45.0052 67.7353C43.1499 67.2922 41.1334 66.7224 38.8394 65.9932C36.3996 65.2656 34.3603 64.3856 32.7778 63.3774C32.4103 63.1452 32.0591 62.9035 31.7342 62.6592C29.8471 61.2705 28.7809 59.4435 28.7317 57.5141C28.679 55.6566 29.3839 53.437 30.7702 51.0953C31.9467 48.8819 33.6304 47.4248 35.1221 46.2915C36.3561 45.3018 37.687 44.4581 38.9412 43.6939C40.0225 43.0404 40.8973 42.6787 41.91 42.2599C42.2537 42.1179 42.6089 41.9708 42.9965 41.8029C43.861 41.4238 44.7452 41.1326 45.6248 40.9376ZM53.1941 68.1912C53.8197 68.0525 54.4525 67.8668 55.0749 67.6391C57.0705 67.0015 58.6054 66.3394 59.904 65.5561C62.2941 64.2869 64.0398 62.3266 64.9514 59.8883C65.6778 58.0109 65.6375 56.2724 64.8317 54.7209C64.0088 53.1375 62.2184 51.6329 60.455 50.2276C58.7932 48.9199 57.5534 47.8245 56.5534 46.7802C56.2441 46.4572 55.9693 46.1558 55.7133 45.8589C55.3622 45.4346 55.042 45.0256 54.7322 44.6301C54.0176 43.7175 53.3426 42.8555 52.4797 42.0633C51.7345 41.366 50.7333 40.9122 49.5041 40.7147C48.3348 40.5268 46.9894 40.5888 45.6134 40.8939C44.7301 41.0898 43.8422 41.3821 42.9745 41.7627C42.5871 41.9306 42.2322 42.0774 41.8889 42.2193C40.874 42.639 39.9973 43.0014 38.9125 43.6571C37.6565 44.4224 36.3241 45.2672 35.0883 46.2583C33.5928 47.3945 31.9043 48.8559 30.7241 51.0765C29.3341 53.4241 28.6272 55.6513 28.6801 57.5164C28.7295 59.4587 29.802 61.2973 31.7 62.6936C32.0258 62.9386 32.3782 63.1812 32.7466 63.414C34.333 64.4247 36.377 65.3069 38.8207 66.0358C41.116 66.7653 43.1337 67.3354 44.9891 67.7786C45.6669 67.9686 46.2937 68.117 46.9037 68.2324C49.2375 68.6385 51.236 68.6254 53.1941 68.1912Z" fill="#4CAF4F"/>
<path d="M45.8693 41.4654C48.6593 40.8467 51.1387 41.2326 52.5017 42.4977C53.4067 43.3196 54.0539 44.164 54.8033 45.1418C55.0593 45.4758 55.324 45.8212 55.6117 46.1816C55.8548 46.4722 56.1157 46.7679 56.4094 47.0865C57.3605 48.1177 58.5317 49.1993 60.095 50.4905C61.7436 51.8722 63.4175 53.3508 64.1849 54.8994C64.9326 56.4078 64.9631 58.0843 64.2752 59.8826C63.3919 62.2871 61.6763 64.1539 59.3139 65.281C57.7468 66.1548 55.9612 66.7372 54.5805 67.1472C54.0061 67.3477 53.4228 67.5143 52.8451 67.6424C50.9338 68.0663 48.9688 68.1087 46.661 67.7764C46.0664 67.6805 45.4582 67.5547 44.8026 67.3918C42.869 67.0019 40.9034 66.5028 38.7922 65.866C36.5039 65.227 34.4735 64.3468 32.9195 63.3203C32.5688 63.0907 32.2334 62.8513 31.9222 62.6088C30.1328 61.2476 29.1151 59.4626 29.0568 57.5829C28.9766 55.2733 30.0467 52.9111 30.958 51.3362C32.0717 49.1582 33.7112 47.7884 35.3169 46.6325C36.5123 45.7186 37.7645 44.9638 39.1596 44.1419C40.1576 43.5592 40.9415 43.2505 41.8493 42.8929C42.2729 42.7261 42.7111 42.5535 43.2098 42.3381C44.0793 41.9575 44.9741 41.6639 45.8693 41.4654ZM52.8564 67.6859C53.4364 67.5573 54.022 67.3903 54.5972 67.1895C55.9794 66.779 57.7689 66.1953 59.3396 65.3195C61.7124 64.1873 63.4368 62.3114 64.3244 59.8955C65.0163 58.0865 64.9854 56.3991 64.2324 54.8805C63.4614 53.3246 61.7837 51.8422 60.1314 50.4574C58.5695 49.1676 57.3997 48.0873 56.4501 47.0577C56.1568 46.7396 55.8964 46.4443 55.6541 46.1549C55.367 45.7952 55.1023 45.4499 54.8465 45.1161C54.0958 44.1366 53.4476 43.2906 52.5396 42.4663C51.1642 41.1894 48.6663 40.7989 45.8579 41.4218C44.9589 41.6211 44.0606 41.9159 43.1878 42.2979C42.6899 42.5129 42.2523 42.6852 41.8291 42.8519C40.919 43.2104 40.1332 43.5199 39.1317 44.1047C37.7346 44.9277 36.4812 45.6833 35.284 46.5985C33.6739 47.7578 32.0292 49.132 30.9114 51.3179C29.9977 52.8966 28.9248 55.2664 29.0049 57.5856C29.0637 59.4777 30.0873 61.2738 31.8872 62.6429C32.1994 62.8863 32.5361 63.1263 32.8876 63.3566C34.4458 64.3858 36.4816 65.2683 38.7748 65.9086C40.8869 66.546 42.8541 67.0454 44.7884 67.4355C45.4443 67.5984 46.0539 67.7246 46.6506 67.8209C48.9662 68.1543 50.9381 68.1113 52.8564 67.6859Z" fill="#4CAF4F"/>
<path d="M46.1362 41.9474C48.8881 41.3372 51.2972 41.677 52.5803 42.8566C53.5322 43.7103 54.1802 44.5774 54.9305 45.5814C55.1346 45.8546 55.3458 46.137 55.5726 46.4321C55.8018 46.7147 56.0484 47.0043 56.3267 47.3182C57.2275 48.3339 58.3292 49.4 59.7941 50.6738C61.333 52.034 62.8953 53.4894 63.6115 55.0115C64.307 56.4871 64.3277 58.1129 63.6733 59.8433C62.8126 62.2246 61.1171 64.007 58.7699 64.9979C57.4255 65.6826 55.9377 66.1546 54.1169 66.6526C53.5939 66.8261 53.0617 66.9733 52.5339 67.0904C50.6569 67.5066 48.7114 67.5801 46.4115 67.3219C45.8294 67.2456 45.2377 67.1422 44.6032 67.0059C42.628 66.6846 40.7116 66.2568 38.7429 65.6977C36.5569 65.132 34.5898 64.2767 33.0536 63.2238C32.7194 62.997 32.3996 62.7602 32.1023 62.5195C30.4088 61.186 29.4392 59.4438 29.3722 57.6134C29.279 55.3406 30.2819 53.0552 31.1397 51.5381C32.1405 49.5051 33.6112 48.2272 35.5114 46.9336C36.6724 46.0898 37.9002 45.3917 39.2001 44.6526L39.3825 44.549C40.3214 44.0199 41.0397 43.7534 41.8715 43.4449C42.3505 43.2673 42.8457 43.0837 43.4323 42.8314C44.3108 42.4479 45.2204 42.1505 46.1362 41.9474ZM52.5453 67.1339C53.075 67.0164 53.609 66.8688 54.1327 66.6951C55.9554 66.1966 57.4463 65.7236 58.7931 65.0376C61.1521 64.0416 62.8573 62.2496 63.7224 59.8559C64.3808 58.1153 64.3598 56.4791 63.6595 54.9934C62.9398 53.464 61.3738 52.005 59.8313 50.6416C58.3679 49.3691 57.2674 48.3041 56.368 47.2901C56.0901 46.9767 55.8441 46.6875 55.6156 46.4059C55.3893 46.1115 55.1781 45.8291 54.9741 45.5561C54.2224 44.5502 53.5732 43.6815 52.6181 42.8249C51.3226 41.6339 48.895 41.2895 46.1248 41.9038C45.2054 42.1077 44.2922 42.4062 43.4103 42.7911C42.8254 43.0427 42.3309 43.2261 41.8525 43.4035C41.0184 43.7128 40.2978 43.9801 39.3552 44.5112L39.1727 44.6152C37.8713 45.355 36.6422 46.0539 35.4798 46.8989C33.5733 48.1965 32.0973 49.4791 31.0928 51.5202C30.2329 53.0409 29.2271 55.3341 29.3204 57.6162C29.388 59.4585 30.3633 61.2118 32.0668 62.553C32.3648 62.7944 32.6858 63.0322 33.021 63.2595C34.5618 64.3157 36.5347 65.1736 38.7263 65.7409C40.6964 66.3003 42.6149 66.7286 44.5909 67.05C45.2255 67.1862 45.8187 67.2898 46.4028 67.3667C48.7102 67.6254 50.6617 67.5516 52.5453 67.1339Z" fill="#4CAF4F"/>
<path d="M46.4176 42.4671C49.1176 41.8683 51.4467 42.1645 52.6479 43.2598C53.6449 44.1442 54.2877 45.0324 55.0322 46.0607C55.1873 46.2749 55.3479 46.4967 55.5181 46.7277C55.7334 47.0025 55.9652 47.2861 56.2273 47.5951C57.0757 48.5945 58.1063 49.6457 59.4709 50.903C60.8973 52.2418 62.3458 53.6742 63.0101 55.1707C63.6526 56.614 63.6645 58.1883 63.0455 59.8498C62.2106 62.2072 60.5397 63.9042 58.2134 64.7578C56.8824 65.3697 55.4224 65.7563 53.652 66.1985C53.1882 66.3436 52.716 66.4695 52.2469 66.5735C50.404 66.9822 48.4753 67.0874 46.1772 66.9042C45.6086 66.8471 45.0345 66.766 44.4229 66.6562C42.432 66.411 40.5682 66.0534 38.7243 65.5631C36.6644 65.0724 34.7133 64.2184 33.2293 63.1586C32.9123 62.9346 32.6083 62.6999 32.3256 62.4611C30.7312 61.1556 29.8109 59.4556 29.734 57.6745C29.6267 55.4388 30.5593 53.231 31.3606 51.7726C32.3098 49.7616 33.7953 48.5185 35.7336 47.2703C36.7792 46.5485 37.8795 45.9472 39.0445 45.3107C39.2359 45.2061 39.4288 45.1007 39.6234 44.9937C40.517 44.5073 41.2166 44.2653 41.9571 44.0092C42.4732 43.8307 43.0069 43.6462 43.6632 43.3647C44.5525 42.9772 45.4791 42.6752 46.4176 42.4671ZM52.2584 66.6173C52.729 66.5129 53.2027 66.3863 53.6665 66.2413C55.4383 65.7989 56.901 65.4115 58.2343 64.7984C60.5737 63.9401 62.2552 62.2329 63.0947 59.8624C63.7174 58.1908 63.7052 56.6064 63.0585 55.1533C62.3909 53.6498 60.9391 52.2138 59.5091 50.8717C58.1459 49.6156 57.1163 48.5656 56.2691 47.5676C56.0075 47.2591 55.776 46.976 55.5614 46.7019C55.3917 46.4718 55.2313 46.25 55.0762 46.0358C54.3303 45.0054 53.686 44.1155 52.6857 43.2279C51.4719 42.1214 49.1244 41.8206 46.4062 42.4234C45.4641 42.6323 44.5338 42.9355 43.6413 43.3243C42.987 43.6049 42.4543 43.7892 41.9393 43.9674C41.1964 44.2243 40.4946 44.4671 39.5969 44.9557C39.4021 45.0627 39.2094 45.1681 39.018 45.2727C37.8517 45.91 36.7498 46.5119 35.7029 47.2347C33.7579 48.4872 32.2668 49.7355 31.3137 51.7553C30.5103 53.2172 29.5746 55.4325 29.6823 57.6775C29.7597 59.4702 30.6855 61.1808 32.2892 62.4941C32.5726 62.7337 32.8779 62.9691 33.1961 63.1938C34.6851 64.2573 36.6427 65.1142 38.7088 65.6065C40.5545 66.0972 42.4206 66.4552 44.4125 66.7006C45.0242 66.8103 45.5997 66.8917 46.1705 66.949C48.4752 67.1328 50.4096 67.0273 52.2584 66.6173Z" fill="#4CAF4F"/>
<path d="M46.6964 42.9868C49.3776 42.3922 51.5677 42.6397 52.7048 43.6659C53.7453 44.578 54.3474 45.4406 55.1097 46.5327C55.2205 46.6917 55.3349 46.8555 55.4545 47.0252C55.6565 47.2931 55.874 47.5706 56.1193 47.8737C56.9153 48.856 57.8756 49.8917 59.1417 51.1333C60.3992 52.3915 61.7925 53.8575 62.4053 55.3298C62.9949 56.7405 62.9975 58.2635 62.4131 59.8564C61.6025 62.1896 59.954 63.8015 57.6458 64.5184C56.4153 65.0195 55.0321 65.3294 53.5677 65.6573L53.1706 65.7463C52.7764 65.8615 52.3752 65.9646 51.9763 66.0531C50.1586 66.4562 48.2337 66.5952 45.9184 66.4903C45.3628 66.4529 44.8055 66.3942 44.2164 66.3106C42.193 66.1451 40.4323 65.8667 38.674 65.4342C36.6989 65.0071 34.815 64.1785 33.3687 63.1009C33.0685 62.8796 32.7799 62.6476 32.5114 62.4102C31.0149 61.1332 30.1433 59.476 30.0571 57.7439C29.9358 55.5451 30.8001 53.415 31.5468 52.0154C32.5489 49.8011 34.2598 48.6271 35.9261 47.6143C36.8796 46.991 37.8788 46.4701 38.9363 45.9186C39.2337 45.7636 39.5349 45.6066 39.8398 45.4449C40.7004 44.9927 41.359 44.7828 42.0562 44.5604C42.5984 44.3877 43.159 44.2088 43.874 43.9033C44.7668 43.5152 45.7428 43.1983 46.6964 42.9868ZM51.9877 66.0967C52.3879 66.008 52.7904 65.9047 53.1841 65.7894L53.5792 65.7009C55.0461 65.3723 56.4317 65.0621 57.6643 64.5599C59.9869 63.8388 61.6468 62.2163 62.4624 59.8685C63.0503 58.2663 63.0476 56.7337 62.454 55.3134C61.8382 53.8342 60.4417 52.3644 59.1809 51.1029C57.9159 49.8624 56.9567 48.8279 56.1621 47.847C55.9168 47.5444 55.6997 47.2674 55.4986 47.0004C55.3792 46.8312 55.2649 46.6674 55.1541 46.5086C54.3901 45.4141 53.7866 44.5494 52.7424 43.634C51.5924 42.5964 49.3846 42.3445 46.685 42.9432C45.7278 43.1555 44.7481 43.4736 43.8521 43.863C43.14 44.1674 42.5806 44.3458 42.0395 44.5183C41.3398 44.7413 40.6791 44.9521 39.8139 45.4065C39.5088 45.5683 39.2079 45.7252 38.9108 45.8801C37.8517 46.4323 36.8514 46.9539 35.8969 47.5779C34.2243 48.5946 32.5064 49.7736 31.4993 51.9986C30.7509 53.4017 29.8837 55.5393 30.0055 57.7473C30.0922 59.4904 30.9691 61.1579 32.4743 62.4427C32.7439 62.6805 33.0332 62.9137 33.3346 63.1354C34.7864 64.2174 36.6776 65.0493 38.6593 65.4779C40.42 65.9108 42.1835 66.1898 44.2082 66.3554C44.7973 66.4386 45.3557 66.4976 45.9136 66.5351C48.2349 66.6403 50.1646 66.501 51.9877 66.0967Z" fill="#4CAF4F"/>
<path d="M46.998 43.4608C49.6053 42.8826 51.7058 43.0924 52.7608 44.0364C53.8401 44.9733 54.3964 45.8064 55.1663 46.9595C55.2388 47.068 55.313 47.1792 55.3897 47.2936C55.5785 47.5554 55.7813 47.8271 56.01 48.1247C56.7521 49.0898 57.6417 50.112 58.81 51.3423C60.2378 52.8785 61.2926 54.1697 61.7978 55.4756C62.3348 56.8569 62.3292 58.3306 61.7811 59.856C60.9973 62.1679 59.3743 63.6964 57.0873 64.2764C56.5684 64.4591 55.9883 64.6193 55.2591 64.7811C54.7309 64.8982 54.1908 65.002 53.6188 65.1118C53.3182 65.1697 53.0131 65.2284 52.7038 65.2901C52.3977 65.3731 52.0864 65.4497 51.7771 65.5183C49.9519 65.923 48.0725 66.0929 45.6828 66.0692C45.1472 66.0517 44.5924 66.0138 44.0342 65.9568C42.0172 65.8767 40.308 65.6657 38.6537 65.2926C36.7586 64.9246 34.9436 64.1189 33.542 63.0237C33.2579 62.8043 32.9853 62.5737 32.7319 62.3387C31.3338 61.088 30.5109 59.4708 30.414 57.7844C30.2772 55.6184 31.071 53.5637 31.7608 52.2216C32.7106 50.0228 34.3738 48.9313 36.1393 47.9178C37.0147 47.3764 37.9291 46.9233 38.8974 46.4433C39.2783 46.2544 39.6726 46.0591 40.0704 45.855C40.9054 45.4313 41.5303 45.2498 42.1918 45.0577C42.7515 44.8951 43.33 44.7271 44.0937 44.4013C45.0072 44.0048 46.0114 43.6796 46.998 43.4608ZM55.2705 64.8248C56.0021 64.6625 56.5843 64.5017 57.103 64.319C59.4057 63.7349 61.0415 62.1958 61.8304 59.8681C62.3818 58.3336 62.3874 56.8504 61.8468 55.4602C61.339 54.1479 60.2818 52.8533 58.8504 51.3132C57.6829 50.0839 56.7942 49.0627 56.0533 48.099C55.8248 47.8017 55.6222 47.5303 55.4341 47.2694C55.3579 47.1557 55.2835 47.0444 55.2111 46.9359C54.4393 45.78 53.8815 44.9449 52.798 44.0042C51.7304 43.049 49.6121 42.8349 46.9866 43.4171C45.9963 43.6367 44.9885 43.9631 44.0719 44.361C43.3116 44.6853 42.7348 44.8529 42.1768 45.015C41.5126 45.2079 40.8852 45.3901 40.0452 45.8164C39.6475 46.0202 39.2536 46.2155 38.8729 46.4042C37.9033 46.8847 36.9877 47.3386 36.1109 47.8809C34.3384 48.8982 32.6677 49.9949 31.7129 52.2054C31.0217 53.551 30.2252 55.613 30.3625 57.788C30.46 59.4849 31.2878 61.1124 32.6941 62.3704C32.9482 62.6062 33.2218 62.8375 33.5071 63.0578C34.9148 64.1578 36.7378 64.967 38.6406 65.3364C40.2974 65.7101 42.0098 65.9217 44.0286 66.0018C44.5862 66.0588 45.1422 66.0967 45.6799 66.1144C48.075 66.138 49.9587 65.9676 51.7885 65.5619C52.0988 65.4931 52.4108 65.4163 52.7159 65.3336C53.0231 65.2723 53.3281 65.2136 53.6286 65.1559C54.2009 65.0459 54.7414 64.9421 55.2705 64.8248Z" fill="#4CAF4F"/>
<path d="M56.5419 64.006C56.29 64.0801 56.0264 64.1473 55.7337 64.2122C55.056 64.3625 54.3391 64.4737 53.5801 64.5914C53.1463 64.6588 52.6976 64.7283 52.2404 64.8079C52.0551 64.8535 51.8682 64.8973 51.6827 64.9384C49.8533 65.3441 47.9265 65.5567 45.4356 65.628C44.9108 65.6303 44.3731 65.6159 43.8378 65.5847C41.8009 65.5953 40.189 65.4584 38.6094 65.1401C36.7856 64.832 35.0369 64.0534 33.6844 62.9476C33.4166 62.7314 33.1597 62.5037 32.9205 62.271C31.6014 61.0344 30.8477 59.5036 30.7409 57.8434C30.5908 55.7158 31.318 53.7416 31.9543 52.4599C32.8582 50.2789 34.4778 49.2678 36.3457 48.2606C37.158 47.7884 38.0042 47.3933 38.8995 46.9749C39.3551 46.7621 39.826 46.542 40.3049 46.3056C41.1229 45.906 41.7217 45.7501 42.3554 45.5851C42.9277 45.4362 43.5194 45.2822 44.3272 44.9391C45.2705 44.5313 46.3125 44.1952 47.3406 43.9672C49.8665 43.4071 51.8736 43.5788 52.8477 44.4382C53.96 45.3895 54.4659 46.1835 55.2316 47.3854L55.3566 47.5815C55.5328 47.8371 55.7211 48.1022 55.9327 48.3924C56.6288 49.3472 57.4241 50.3228 58.5116 51.5561C59.8079 53.0606 60.7653 54.3263 61.224 55.6119C61.7077 56.9594 61.6919 58.38 61.1771 59.8343C60.4365 62.0569 58.8945 63.4865 56.7175 63.9693C56.6594 63.9822 56.6007 63.9946 56.5419 64.006ZM55.7452 64.256C56.0391 64.1908 56.3039 64.1231 56.5545 64.0493C56.6112 64.0381 56.6703 64.0259 56.7289 64.0129C58.9253 63.5259 60.4806 62.0852 61.2266 59.8462C61.7444 58.3833 61.7603 56.9538 61.2734 55.5974C60.8126 54.3057 59.8528 53.0367 58.5531 51.5282C57.4664 50.2958 56.6719 49.3211 55.9766 48.3676C55.7652 48.0776 55.5771 47.8129 55.4015 47.5581L55.277 47.3626C54.5092 46.1575 54.0019 45.3613 52.8848 44.4059C51.8981 43.5353 49.8731 43.3595 47.3292 43.9236C46.2975 44.1524 45.252 44.4896 44.3054 44.8989C43.5017 45.2402 42.9121 45.3936 42.3421 45.542C41.7051 45.7078 41.1038 45.8644 40.2806 46.2666C39.8022 46.5027 39.3315 46.7225 38.876 46.9353C37.9794 47.3543 37.1323 47.7502 36.3187 48.223C34.5121 49.1972 32.8144 50.2534 31.9064 52.4445C31.2686 53.7293 30.5386 55.7109 30.6891 57.8474C30.7967 59.5177 31.5552 61.0581 32.8817 62.3017C33.1216 62.5352 33.3797 62.7639 33.6483 62.9809C35.0077 64.0921 36.7652 64.8746 38.5973 65.1841C40.1799 65.5031 41.7957 65.6405 43.8344 65.6295C44.3694 65.661 44.9084 65.6754 45.4349 65.6729C47.9307 65.6017 49.8608 65.3886 51.6941 64.982C51.88 64.9408 52.0674 64.8969 52.2511 64.8516C52.7058 64.7725 53.1541 64.703 53.5877 64.6358C54.3478 64.518 55.0655 64.4065 55.7452 64.256Z" fill="#4CAF4F"/>
<path d="M47.6713 44.4367C50.0963 43.8989 51.9997 44.037 52.8933 44.8156C54.03 45.7759 54.4821 46.5257 55.2307 47.7676L55.282 47.8526C55.4461 48.1036 55.62 48.3627 55.8138 48.6453C56.4515 49.5744 57.1787 50.5359 58.1714 51.7626C59.1793 53.0388 60.1721 54.4053 60.6086 55.7504C61.0394 57.0676 61.0146 58.4377 60.5351 59.823C59.8605 61.8944 58.464 63.2198 56.4959 63.6563C56.3244 63.6943 56.1464 63.7261 55.9667 63.7505C55.9283 63.7595 55.8926 63.7675 55.8564 63.7755C55.1109 63.9408 54.2987 64.0324 53.439 64.1291C52.8955 64.1903 52.3337 64.2535 51.7522 64.3392C49.387 64.8608 47.0982 65.0652 45.1712 65.1969C44.657 65.2196 44.1367 65.2281 43.6255 65.2215C42.2635 65.2912 40.4577 65.3283 38.5543 64.9924C36.8244 64.7438 35.099 63.9697 33.8192 62.8687C33.568 62.655 33.3268 62.4295 33.1024 62.1985C31.8827 60.9922 31.1764 59.5018 31.0591 57.8881C30.8941 55.7943 31.5528 53.8974 32.1344 52.6749C32.99 50.5098 34.6315 49.5374 36.5307 48.575C37.2876 48.1621 38.0739 47.8171 38.9063 47.4518C39.4257 47.2238 39.9626 46.9881 40.5124 46.7267C41.3167 46.348 41.8931 46.2159 42.5033 46.076C43.0827 45.9433 43.6822 45.8059 44.5282 45.4477C45.4955 45.0307 46.6116 44.6717 47.6713 44.4367ZM56.5073 63.6999C58.4949 63.2591 59.9048 61.9224 60.5845 59.8345C61.0671 58.4413 61.092 57.0625 60.6584 55.7369C60.2198 54.3858 59.2246 53.0157 58.2142 51.7361C57.2219 50.5102 56.4954 49.5495 55.8584 48.6213C55.6647 48.3391 55.491 48.0803 55.3276 47.8302L55.2768 47.7458C54.5257 46.5 54.0724 45.748 52.93 44.7832C52.0239 43.9936 50.1029 43.8513 47.6598 44.393C46.5967 44.6288 45.4769 44.989 44.5065 45.4074C43.6655 45.7636 43.0686 45.9003 42.4915 46.0326C41.878 46.1731 41.2989 46.3059 40.4885 46.6873C39.9396 46.9485 39.4032 47.1839 38.8841 47.4116C38.0507 47.7774 37.2634 48.1229 36.5049 48.5366C34.5971 49.5033 32.9472 50.4811 32.0859 52.6599C31.5027 53.8857 30.8418 55.7898 31.0078 57.8924C31.1256 59.5157 31.8363 61.0151 33.0627 62.2286C33.288 62.4601 33.5302 62.6868 33.7827 62.9012C35.0691 64.0085 36.8045 64.7868 38.5436 65.0366C40.4517 65.3736 42.2618 65.3364 43.6253 65.2666C44.1355 65.2731 44.6568 65.2647 45.1729 65.2418C47.1029 65.1101 49.3945 64.9052 51.7614 64.3834C52.3399 64.2982 52.9012 64.2349 53.4441 64.1738C54.3472 64.0722 55.1977 63.9763 55.9761 63.7945C56.1545 63.7702 56.3342 63.7383 56.5073 63.6999Z" fill="#4CAF4F"/>
<path d="M48.0738 44.9279C49.4291 44.6274 51.8689 44.2662 52.983 45.2238C54.1348 46.1843 54.5305 46.8822 55.249 48.1493C55.4044 48.4019 55.5637 48.6548 55.7384 48.927C56.4737 50.0717 57.2663 51.1687 57.8744 51.9968C58.7679 53.2446 59.6483 54.5833 60.0357 55.9144C60.4133 57.2017 60.3796 58.5209 59.9351 59.8357C59.3202 61.7694 58.0536 63.0002 56.2721 63.3953C56.0051 63.4545 55.7233 63.496 55.4344 63.5181C54.7673 63.6309 54.0453 63.6778 53.2809 63.7274C52.6487 63.7684 51.995 63.8109 51.3073 63.8933C49.3166 64.275 47.3268 64.5273 44.951 64.7888C44.446 64.8324 43.9433 64.8636 43.4578 64.8814C42.0233 65.0237 40.3195 65.1327 38.5447 64.8679C36.8785 64.6734 35.2226 63.9247 34.0008 62.8143C33.7662 62.6035 33.5406 62.3803 33.3305 62.1509C32.2113 60.9763 31.5524 59.5271 31.4248 57.9593C31.2442 55.8992 31.8345 54.0809 32.3615 52.9182C33.1721 50.7654 34.7647 49.8684 36.7622 48.9194C37.4714 48.5579 38.2059 48.257 38.9837 47.9382C39.5589 47.7026 40.1535 47.4588 40.7658 47.1786C41.3868 46.8968 41.8569 46.7733 42.2348 46.6895C42.3939 46.6542 42.5461 46.6241 42.7076 46.5923C42.8672 46.5609 43.0328 46.5284 43.2035 46.4905C43.5753 46.408 44.0901 46.2763 44.7749 45.9872C45.7908 45.5505 46.9624 45.1744 48.0738 44.9279ZM56.2835 63.439C58.0848 63.0395 59.3645 61.7975 59.9847 59.8468C60.4254 58.5431 60.4604 57.179 60.0859 55.9022C59.6968 54.5651 58.8142 53.2231 57.9183 51.972C57.3103 51.1442 56.5184 50.048 55.7837 48.9041C55.6091 48.6323 55.4499 48.3796 55.2973 48.1314C54.5746 46.8569 54.1774 46.1565 53.0196 45.1911C51.8881 44.2186 49.4281 44.5814 48.0624 44.8843C46.9475 45.1315 45.7723 45.5089 44.7532 45.9468C44.0729 46.2341 43.5617 46.365 43.1921 46.447C43.022 46.4847 42.8571 46.517 42.6974 46.5484C42.543 46.5789 42.3831 46.6103 42.2234 46.6458C41.8425 46.7302 41.369 46.8547 40.7429 47.1388C40.1317 47.4187 39.5374 47.6622 38.9626 47.8977C38.184 48.2166 37.4483 48.5181 36.7379 48.8804C34.7303 49.834 33.1293 50.7363 32.3127 52.9041C31.7843 54.0699 31.192 55.8954 31.3732 57.964C31.5015 59.5408 32.1643 60.9988 33.2901 62.18C33.5007 62.4103 33.7273 62.6343 33.9631 62.8461C35.1926 63.9635 36.8591 64.7168 38.5354 64.9122C40.3159 65.1782 42.0242 65.0686 43.4602 64.9263C43.9453 64.9087 44.4486 64.8771 44.9552 64.8335C47.3333 64.5719 49.3245 64.3193 51.315 63.9378C51.999 63.8557 52.6518 63.8134 53.2833 63.7724C54.0493 63.7226 54.7729 63.6758 55.4402 63.5627C55.7291 63.5404 56.0137 63.4988 56.2835 63.439Z" fill="#4CAF4F"/>
<path d="M48.4813 45.3808C50.6831 44.8925 52.3071 44.9718 53.0543 45.604C54.2125 46.5568 54.5647 47.2215 55.2039 48.4277C55.348 48.6782 55.4929 48.9252 55.6473 49.1838C56.2798 50.2434 56.942 51.2636 57.5634 52.2084C58.3067 53.3684 59.1123 54.7336 59.4511 56.0597C59.7712 57.3009 59.7269 58.6056 59.3232 59.833C58.7533 61.6691 57.6328 62.7843 55.9928 63.148C55.6456 63.225 55.2728 63.2672 54.8846 63.2737C54.314 63.3315 53.7019 63.3389 53.0539 63.3468C52.3491 63.3553 51.6203 63.3643 50.8404 63.4358C49.6545 63.6254 48.4794 63.8012 47.2353 63.9873C46.4109 64.1104 45.5587 64.238 44.7014 64.37C44.2026 64.4358 43.7172 64.49 43.2589 64.5311C41.7654 64.7534 40.1566 64.9315 38.4987 64.7334C36.8913 64.5917 35.3032 63.8681 34.1412 62.7485C33.9223 62.5401 33.7123 62.3191 33.5169 62.0914C32.4971 60.9491 31.8848 59.5395 31.7466 58.0151C31.5505 55.9855 32.073 54.2447 32.5462 53.1417C33.314 50.998 34.8587 50.1725 36.9569 49.2401C37.6241 48.9234 38.3143 48.6611 39.0448 48.3835C39.6704 48.1456 40.3174 47.8998 40.9873 47.6048C41.4021 47.4236 41.7877 47.2966 42.2002 47.2051C42.4379 47.1524 42.6576 47.1165 42.89 47.0785C43.1224 47.0406 43.3631 47.0012 43.6235 46.9435C44.0799 46.8423 44.5154 46.7014 44.9936 46.4999C46.0585 46.044 47.3296 45.6362 48.4813 45.3808ZM56.0042 63.1918C57.6645 62.8236 58.7978 61.6971 59.3728 59.8437C59.779 58.6096 59.8235 57.2971 59.5016 56.0487C59.1615 54.7169 58.3539 53.3484 57.6086 52.1851C56.9874 51.2408 56.3254 50.221 55.6933 49.1621C55.5391 48.9037 55.3942 48.6568 55.2507 48.4074C54.6092 47.1966 54.2556 46.5294 53.0906 45.5711C52.3309 44.928 50.6896 44.8448 48.4699 45.3371C47.3149 45.5932 46.04 46.0023 44.972 46.4596C44.4972 46.6594 44.0651 46.7995 43.6121 46.8999C43.3535 46.9573 43.1137 46.9964 42.8818 47.0343C42.6487 47.0723 42.4281 47.1083 42.1888 47.1614C41.7724 47.2537 41.3836 47.3819 40.9651 47.5647C40.2964 47.859 39.6502 48.1047 39.0255 48.3421C38.2936 48.6203 37.6025 48.883 36.9337 49.2003C34.8245 50.1376 33.271 50.9682 32.4972 53.1282C32.0229 54.2344 31.4982 55.9822 31.6953 58.0201C31.8342 59.5531 32.4498 60.9706 33.4755 62.1194C33.6716 62.3479 33.8825 62.5699 34.1021 62.7795C35.2727 63.9067 36.8723 64.6354 38.491 64.7784C40.155 64.9769 41.7686 64.7984 43.2645 64.5759C43.7218 64.5349 44.2081 64.4805 44.7084 64.4146C45.5662 64.2823 46.4187 64.1549 47.2425 64.0317C48.4869 63.8456 49.6621 63.67 50.8464 63.4804C51.622 63.4093 52.3494 63.4005 53.053 63.3918C53.7025 63.3839 54.3159 63.3765 54.8866 63.3186C55.2763 63.3124 55.6531 63.2697 56.0042 63.1918Z" fill="#4CAF4F"/>
</g>
</svg>
